<svg width="462" height="502" viewBox="0 0 462 502" fill="none" xmlns="http://www.w3.org/2000/svg">
<rect x="1" y="1" width="460" height="500" rx="8" fill="white"/>
<rect x="1" y="1" width="460" height="500" rx="8" stroke="black" stroke-width="2"/>
<path d="M41.288 55.2H43.904L48.92 69.888H48.992L54.032 55.2H56.552L50.408 72H47.408L41.288 55.2ZM62.6221 57.312H57.4861V55.2H70.1101V57.312H64.9741V72H62.6221V57.312ZM72.7398 55.2H77.7078C78.7798 55.2 79.6918 55.304 80.4438 55.512C81.2118 55.704 81.8358 55.992 82.3158 56.376C82.7958 56.744 83.1478 57.2 83.3718 57.744C83.5958 58.272 83.7078 58.864 83.7078 59.52C83.7078 60.432 83.4598 61.216 82.9638 61.872C82.4838 62.528 81.6998 63 80.6118 63.288V63.336C81.8918 63.608 82.8038 64.104 83.3478 64.824C83.9078 65.528 84.1878 66.392 84.1878 67.416C84.1878 68.872 83.7238 70 82.7958 70.8C81.8838 71.6 80.3478 72 78.1878 72H72.7398V55.2ZM78.1878 70.032C79.3878 70.032 80.2598 69.784 80.8038 69.288C81.3638 68.792 81.6438 68.088 81.6438 67.176C81.6438 66.28 81.3638 65.584 80.8038 65.088C80.2598 64.592 79.3878 64.344 78.1878 64.344H75.0918V70.032H78.1878ZM77.7078 62.376C78.9878 62.376 79.8998 62.144 80.4438 61.68C81.0038 61.2 81.2838 60.56 81.2838 59.76C81.2838 58.976 81.0038 58.352 80.4438 57.888C79.8998 57.408 78.9878 57.168 77.7078 57.168H75.0918V62.376H77.7078ZM92.9195 55.2H97.8875C98.9595 55.2 99.8715 55.304 100.624 55.512C101.392 55.704 102.016 55.992 102.496 56.376C102.976 56.744 103.328 57.2 103.552 57.744C103.776 58.272 103.888 58.864 103.888 59.52C103.888 60.432 103.64 61.216 103.144 61.872C102.664 62.528 101.88 63 100.792 63.288V63.336C102.072 63.608 102.984 64.104 103.528 64.824C104.088 65.528 104.368 66.392 104.368 67.416C104.368 68.872 103.904 70 102.976 70.8C102.064 71.6 100.528 72 98.3675 72H92.9195V55.2ZM98.3675 70.032C99.5675 70.032 100.44 69.784 100.984 69.288C101.544 68.792 101.824 68.088 101.824 67.176C101.824 66.28 101.544 65.584 100.984 65.088C100.44 64.592 99.5675 64.344 98.3675 64.344H95.2715V70.032H98.3675ZM97.8875 62.376C99.1675 62.376 100.08 62.144 100.624 61.68C101.184 61.2 101.464 60.56 101.464 59.76C101.464 58.976 101.184 58.352 100.624 57.888C100.08 57.408 99.1675 57.168 97.8875 57.168H95.2715V62.376H97.8875ZM117.984 72H115.728V70.248H115.68C115.216 70.904 114.632 71.392 113.928 71.712C113.24 72.032 112.464 72.192 111.6 72.192C110.16 72.192 109.024 71.768 108.192 70.92C107.36 70.056 106.944 68.736 106.944 66.96V59.76H109.2V66.24C109.2 67.04 109.264 67.704 109.392 68.232C109.536 68.76 109.728 69.184 109.968 69.504C110.224 69.808 110.528 70.032 110.88 70.176C111.248 70.304 111.648 70.368 112.08 70.368C113.184 70.368 114.064 69.976 114.72 69.192C115.392 68.392 115.728 67.168 115.728 65.52V59.76H117.984V72ZM125.072 72.192C124.256 72.192 123.552 72.128 122.96 72C122.384 71.856 121.872 71.696 121.424 71.52V69.528C122.24 69.896 122.944 70.128 123.536 70.224C124.144 70.304 124.584 70.344 124.856 70.344C125.784 70.344 126.456 70.184 126.872 69.864C127.288 69.528 127.496 69.152 127.496 68.736C127.496 68.48 127.424 68.264 127.28 68.088C127.152 67.896 126.976 67.72 126.752 67.56C126.528 67.4 126.264 67.256 125.96 67.128C125.656 66.984 125.336 66.84 125 66.696C124.536 66.488 124.08 66.28 123.632 66.072C123.2 65.848 122.816 65.6 122.48 65.328C122.144 65.04 121.872 64.704 121.664 64.32C121.456 63.936 121.352 63.472 121.352 62.928C121.352 61.92 121.752 61.112 122.552 60.504C123.368 59.88 124.552 59.568 126.104 59.568C126.904 59.568 127.608 59.632 128.216 59.76C128.824 59.888 129.216 59.984 129.392 60.048V61.968C128.928 61.776 128.432 61.64 127.904 61.56C127.392 61.48 126.88 61.44 126.368 61.44C125.456 61.44 124.8 61.568 124.4 61.824C124 62.064 123.8 62.392 123.8 62.808C123.8 63.048 123.864 63.264 123.992 63.456C124.12 63.632 124.288 63.8 124.496 63.96C124.72 64.104 124.976 64.248 125.264 64.392C125.552 64.52 125.856 64.656 126.176 64.8C126.608 64.992 127.048 65.192 127.496 65.4C127.96 65.592 128.376 65.832 128.744 66.12C129.128 66.408 129.432 66.752 129.656 67.152C129.896 67.552 130.016 68.048 130.016 68.64C130.016 69.696 129.584 70.552 128.72 71.208C127.872 71.864 126.656 72.192 125.072 72.192ZM133.375 59.76H135.631V72H133.375V59.76ZM133.255 54.72H135.799V57.264H133.255V54.72ZM139.976 59.76H142.232V61.512H142.28C142.744 60.856 143.32 60.368 144.008 60.048C144.712 59.728 145.496 59.568 146.36 59.568C147.8 59.568 148.936 60 149.768 60.864C150.6 61.712 151.016 63.024 151.016 64.8V72H148.76V65.52C148.76 64.736 148.688 64.08 148.544 63.552C148.416 63.008 148.224 62.584 147.968 62.28C147.728 61.96 147.424 61.736 147.056 61.608C146.704 61.464 146.312 61.392 145.88 61.392C144.776 61.392 143.888 61.792 143.216 62.592C142.56 63.376 142.232 64.592 142.232 66.24V72H139.976V59.76ZM156.137 66.384C156.265 67.648 156.697 68.624 157.433 69.312C158.169 69.984 159.161 70.32 160.409 70.32C161.145 70.32 161.865 70.232 162.569 70.056C163.289 69.864 163.881 69.632 164.345 69.36V71.568C163.961 71.696 163.433 71.832 162.761 71.976C162.089 72.12 161.257 72.192 160.265 72.192C158.185 72.192 156.585 71.616 155.465 70.464C154.361 69.312 153.809 67.712 153.809 65.664C153.809 64.736 153.953 63.896 154.241 63.144C154.545 62.392 154.953 61.752 155.465 61.224C155.993 60.696 156.609 60.288 157.313 60C158.017 59.712 158.777 59.568 159.593 59.568C161.337 59.568 162.705 60.08 163.697 61.104C164.689 62.128 165.185 63.68 165.185 65.76V66.384H156.137ZM159.569 61.392C158.625 61.392 157.849 61.696 157.241 62.304C156.649 62.896 156.281 63.696 156.137 64.704H162.785C162.785 63.648 162.481 62.832 161.873 62.256C161.265 61.68 160.497 61.392 159.569 61.392ZM171.526 72.192C170.71 72.192 170.006 72.128 169.414 72C168.838 71.856 168.326 71.696 167.878 71.52V69.528C168.694 69.896 169.398 70.128 169.99 70.224C170.598 70.304 171.038 70.344 171.31 70.344C172.238 70.344 172.91 70.184 173.326 69.864C173.742 69.528 173.95 69.152 173.95 68.736C173.95 68.48 173.878 68.264 173.734 68.088C173.606 67.896 173.43 67.72 173.206 67.56C172.982 67.4 172.718 67.256 172.414 67.128C172.11 66.984 171.79 66.84 171.454 66.696C170.99 66.488 170.534 66.28 170.086 66.072C169.654 65.848 169.27 65.6 168.934 65.328C168.598 65.04 168.326 64.704 168.118 64.32C167.91 63.936 167.806 63.472 167.806 62.928C167.806 61.92 168.206 61.112 169.006 60.504C169.822 59.88 171.006 59.568 172.558 59.568C173.358 59.568 174.062 59.632 174.67 59.76C175.278 59.888 175.67 59.984 175.846 60.048V61.968C175.382 61.776 174.886 61.64 174.358 61.56C173.846 61.48 173.334 61.44 172.822 61.44C171.91 61.44 171.254 61.568 170.854 61.824C170.454 62.064 170.254 62.392 170.254 62.808C170.254 63.048 170.318 63.264 170.446 63.456C170.574 63.632 170.742 63.8 170.95 63.96C171.174 64.104 171.43 64.248 171.718 64.392C172.006 64.52 172.31 64.656 172.63 64.8C173.062 64.992 173.502 65.192 173.95 65.4C174.414 65.592 174.83 65.832 175.198 66.12C175.582 66.408 175.886 66.752 176.11 67.152C176.35 67.552 176.47 68.048 176.47 68.64C176.47 69.696 176.038 70.552 175.174 71.208C174.326 71.864 173.11 72.192 171.526 72.192ZM182.799 72.192C181.983 72.192 181.279 72.128 180.687 72C180.111 71.856 179.599 71.696 179.151 71.52V69.528C179.967 69.896 180.671 70.128 181.263 70.224C181.871 70.304 182.311 70.344 182.583 70.344C183.511 70.344 184.183 70.184 184.599 69.864C185.015 69.528 185.223 69.152 185.223 68.736C185.223 68.48 185.151 68.264 185.007 68.088C184.879 67.896 184.703 67.72 184.479 67.56C184.255 67.4 183.991 67.256 183.687 67.128C183.383 66.984 183.063 66.84 182.727 66.696C182.263 66.488 181.807 66.28 181.359 66.072C180.927 65.848 180.543 65.6 180.207 65.328C179.871 65.04 179.599 64.704 179.391 64.32C179.183 63.936 179.079 63.472 179.079 62.928C179.079 61.92 179.479 61.112 180.279 60.504C181.095 59.88 182.279 59.568 183.831 59.568C184.631 59.568 185.335 59.632 185.943 59.76C186.551 59.888 186.943 59.984 187.119 60.048V61.968C186.655 61.776 186.159 61.64 185.631 61.56C185.119 61.48 184.607 61.44 184.095 61.44C183.183 61.44 182.527 61.568 182.127 61.824C181.727 62.064 181.527 62.392 181.527 62.808C181.527 63.048 181.591 63.264 181.719 63.456C181.847 63.632 182.015 63.8 182.223 63.96C182.447 64.104 182.703 64.248 182.991 64.392C183.279 64.52 183.583 64.656 183.903 64.8C184.335 64.992 184.775 65.192 185.223 65.4C185.687 65.592 186.103 65.832 186.471 66.12C186.855 66.408 187.159 66.752 187.383 67.152C187.623 67.552 187.743 68.048 187.743 68.64C187.743 69.696 187.311 70.552 186.447 71.208C185.599 71.864 184.383 72.192 182.799 72.192Z" fill="#22242A"/>
<rect x="41.5" y="109.5" width="379" height="55" rx="3.5" fill="white"/>
<rect x="41.5" y="109.5" width="379" height="55" rx="3.5" stroke="#B1B5BB"/>
<path d="M58.488 131.8H60.056V141.592H65.064V143H58.488V131.8ZM70.0381 143.128C69.4195 143.128 68.8541 143.027 68.3421 142.824C67.8301 142.621 67.3875 142.333 67.0141 141.96C66.6515 141.587 66.3688 141.144 66.1661 140.632C65.9635 140.12 65.8621 139.549 65.8621 138.92C65.8621 138.301 65.9635 137.736 66.1661 137.224C66.3688 136.701 66.6515 136.253 67.0141 135.88C67.3875 135.507 67.8301 135.219 68.3421 135.016C68.8541 134.813 69.4195 134.712 70.0381 134.712C70.6568 134.712 71.2221 134.813 71.7341 135.016C72.2461 135.219 72.6835 135.507 73.0461 135.88C73.4195 136.253 73.7075 136.701 73.9101 137.224C74.1128 137.736 74.2141 138.301 74.2141 138.92C74.2141 139.549 74.1128 140.12 73.9101 140.632C73.7075 141.144 73.4195 141.587 73.0461 141.96C72.6835 142.333 72.2461 142.621 71.7341 142.824C71.2221 143.027 70.6568 143.128 70.0381 143.128ZM70.0381 141.912C70.3901 141.912 70.7208 141.843 71.0301 141.704C71.3501 141.565 71.6221 141.368 71.8461 141.112C72.0808 140.845 72.2675 140.531 72.4061 140.168C72.5448 139.795 72.6141 139.379 72.6141 138.92C72.6141 138.461 72.5448 138.051 72.4061 137.688C72.2675 137.315 72.0808 137 71.8461 136.744C71.6115 136.477 71.3395 136.275 71.0301 136.136C70.7208 135.997 70.3901 135.928 70.0381 135.928C69.6861 135.928 69.3501 135.997 69.0301 136.136C68.7208 136.275 68.4488 136.477 68.2141 136.744C67.9901 137 67.8088 137.315 67.6701 137.688C67.5315 138.051 67.4621 138.461 67.4621 138.92C67.4621 139.379 67.5315 139.795 67.6701 140.168C67.8088 140.531 67.9901 140.845 68.2141 141.112C68.4488 141.368 68.7208 141.565 69.0301 141.704C69.3501 141.843 69.6861 141.912 70.0381 141.912ZM79.416 146.648C78.9893 146.648 78.5947 146.621 78.232 146.568C77.8693 146.515 77.5493 146.451 77.272 146.376C76.952 146.301 76.6587 146.211 76.392 146.104V144.664C76.6587 144.803 76.952 144.931 77.272 145.048C77.5493 145.144 77.8693 145.229 78.232 145.304C78.5947 145.389 78.9893 145.432 79.416 145.432C81.304 145.432 82.248 144.483 82.248 142.584V141.736H82.2C81.9333 142.131 81.56 142.44 81.08 142.664C80.6107 142.888 80.0933 143 79.528 143C78.9947 143 78.4987 142.904 78.04 142.712C77.592 142.52 77.1973 142.248 76.856 141.896C76.5253 141.533 76.264 141.101 76.072 140.6C75.88 140.088 75.784 139.512 75.784 138.872C75.784 138.211 75.8853 137.624 76.088 137.112C76.2907 136.589 76.5627 136.152 76.904 135.8C77.256 135.448 77.6667 135.181 78.136 135C78.6053 134.808 79.1067 134.712 79.64 134.712C80.2587 134.712 80.7813 134.84 81.208 135.096C81.6347 135.352 81.9973 135.656 82.296 136.008H82.344V134.84H83.752V142.584C83.752 143.949 83.4 144.968 82.696 145.64C82.0027 146.312 80.9093 146.648 79.416 146.648ZM79.848 141.784C80.1787 141.784 80.488 141.72 80.776 141.592C81.0747 141.464 81.3307 141.277 81.544 141.032C81.7573 140.776 81.9227 140.472 82.04 140.12C82.168 139.757 82.232 139.341 82.232 138.872C82.232 138.392 82.168 137.971 82.04 137.608C81.912 137.235 81.736 136.925 81.512 136.68C81.288 136.424 81.0267 136.237 80.728 136.12C80.4293 135.992 80.104 135.928 79.752 135.928C79.4213 135.928 79.112 135.987 78.824 136.104C78.536 136.221 78.2853 136.403 78.072 136.648C77.8587 136.883 77.688 137.181 77.56 137.544C77.4427 137.896 77.384 138.307 77.384 138.776C77.384 139.245 77.448 139.667 77.576 140.04C77.7147 140.403 77.896 140.717 78.12 140.984C78.344 141.24 78.6053 141.437 78.904 141.576C79.2027 141.715 79.5173 141.784 79.848 141.784ZM86.6461 134.84H88.1501V143H86.6461V134.84ZM86.5661 131.48H88.2621V133.176H86.5661V131.48ZM91.0468 134.84H92.5508V136.008H92.5828C92.8921 135.571 93.2761 135.245 93.7348 135.032C94.2041 134.819 94.7268 134.712 95.3028 134.712C96.2628 134.712 97.0201 135 97.5748 135.576C98.1294 136.141 98.4068 137.016 98.4068 138.2V143H96.9028V138.68C96.9028 138.157 96.8548 137.72 96.7588 137.368C96.6734 137.005 96.5454 136.723 96.3748 136.52C96.2148 136.307 96.0121 136.157 95.7668 136.072C95.5321 135.976 95.2708 135.928 94.9828 135.928C94.2468 135.928 93.6548 136.195 93.2068 136.728C92.7694 137.251 92.5508 138.061 92.5508 139.16V143H91.0468V134.84Z" fill="#7B7E86"/>
<rect x="41.5" y="189.5" width="379" height="55" rx="3.5" fill="white"/>
<rect x="41.5" y="189.5" width="379" height="55" rx="3.5" stroke="#B1B5BB"/>
<path d="M58.488 211.8H62.072C63.4587 211.8 64.4827 212.109 65.144 212.728C65.8053 213.336 66.136 214.205 66.136 215.336C66.136 216.467 65.8053 217.341 65.144 217.96C64.4827 218.568 63.4587 218.872 62.072 218.872H60.056V223H58.488V211.8ZM62.072 217.464C62.8933 217.464 63.496 217.288 63.88 216.936C64.2747 216.573 64.472 216.04 64.472 215.336C64.472 214.632 64.2747 214.104 63.88 213.752C63.496 213.389 62.8933 213.208 62.072 213.208H60.056V217.464H62.072ZM69.7834 223.128C68.93 223.128 68.2527 222.915 67.7514 222.488C67.25 222.051 66.9994 221.448 66.9994 220.68C66.9994 219.784 67.3407 219.101 68.0234 218.632C68.7167 218.152 69.778 217.912 71.2074 217.912H72.7114V217.64C72.7114 217.053 72.5087 216.627 72.1034 216.36C71.698 216.093 71.1594 215.96 70.4874 215.96C70.05 215.96 69.6074 216.013 69.1594 216.12C68.7114 216.216 68.242 216.397 67.7514 216.664V215.256C68.1567 215.075 68.6207 214.941 69.1434 214.856C69.666 214.76 70.178 214.712 70.6794 214.712C71.7994 214.712 72.6687 214.968 73.2874 215.48C73.906 215.981 74.2154 216.797 74.2154 217.928V223H72.6794V221.752H72.6474C72.306 222.253 71.8687 222.611 71.3354 222.824C70.8127 223.027 70.2954 223.128 69.7834 223.128ZM70.1514 221.848C70.5247 221.848 70.866 221.789 71.1754 221.672C71.4954 221.555 71.7674 221.395 71.9914 221.192C72.2154 220.979 72.3914 220.733 72.5194 220.456C72.6474 220.179 72.7114 219.885 72.7114 219.576V219.064H71.2714C70.77 219.064 70.3487 219.101 70.0074 219.176C69.6767 219.251 69.4047 219.357 69.1914 219.496C68.978 219.635 68.8234 219.795 68.7274 219.976C68.642 220.157 68.5994 220.36 68.5994 220.584C68.5994 220.989 68.738 221.304 69.0154 221.528C69.2927 221.741 69.6714 221.848 70.1514 221.848ZM78.6733 223.128C78.1293 223.128 77.6599 223.085 77.2653 223C76.8813 222.904 76.5399 222.797 76.2413 222.68V221.352C76.7853 221.597 77.2546 221.752 77.6493 221.816C78.0546 221.869 78.3479 221.896 78.5293 221.896C79.1479 221.896 79.5959 221.789 79.8733 221.576C80.1506 221.352 80.2893 221.101 80.2893 220.824C80.2893 220.653 80.2413 220.509 80.1453 220.392C80.0599 220.264 79.9426 220.147 79.7933 220.04C79.6439 219.933 79.4679 219.837 79.2653 219.752C79.0626 219.656 78.8493 219.56 78.6253 219.464C78.3159 219.325 78.0119 219.187 77.7133 219.048C77.4253 218.899 77.1693 218.733 76.9453 218.552C76.7213 218.36 76.5399 218.136 76.4013 217.88C76.2626 217.624 76.1933 217.315 76.1933 216.952C76.1933 216.28 76.4599 215.741 76.9933 215.336C77.5373 214.92 78.3266 214.712 79.3613 214.712C79.8946 214.712 80.3639 214.755 80.7693 214.84C81.1746 214.925 81.4359 214.989 81.5533 215.032V216.312C81.2439 216.184 80.9133 216.093 80.5613 216.04C80.2199 215.987 79.8786 215.96 79.5373 215.96C78.9293 215.96 78.4919 216.045 78.2253 216.216C77.9586 216.376 77.8253 216.595 77.8253 216.872C77.8253 217.032 77.8679 217.176 77.9533 217.304C78.0386 217.421 78.1506 217.533 78.2893 217.64C78.4386 217.736 78.6093 217.832 78.8013 217.928C78.9933 218.013 79.1959 218.104 79.4093 218.2C79.6973 218.328 79.9906 218.461 80.2893 218.6C80.5986 218.728 80.8759 218.888 81.1213 219.08C81.3773 219.272 81.5799 219.501 81.7293 219.768C81.8893 220.035 81.9693 220.365 81.9693 220.76C81.9693 221.464 81.6813 222.035 81.1053 222.472C80.5399 222.909 79.7293 223.128 78.6733 223.128ZM86.1889 223.128C85.6449 223.128 85.1755 223.085 84.7809 223C84.3969 222.904 84.0555 222.797 83.7569 222.68V221.352C84.3009 221.597 84.7702 221.752 85.1649 221.816C85.5702 221.869 85.8635 221.896 86.0449 221.896C86.6635 221.896 87.1115 221.789 87.3889 221.576C87.6662 221.352 87.8049 221.101 87.8049 220.824C87.8049 220.653 87.7569 220.509 87.6609 220.392C87.5755 220.264 87.4582 220.147 87.3089 220.04C87.1595 219.933 86.9835 219.837 86.7809 219.752C86.5782 219.656 86.3649 219.56 86.1409 219.464C85.8315 219.325 85.5275 219.187 85.2289 219.048C84.9409 218.899 84.6849 218.733 84.4609 218.552C84.2369 218.36 84.0555 218.136 83.9169 217.88C83.7782 217.624 83.7089 217.315 83.7089 216.952C83.7089 216.28 83.9755 215.741 84.5089 215.336C85.0529 214.92 85.8422 214.712 86.8769 214.712C87.4102 214.712 87.8795 214.755 88.2849 214.84C88.6902 214.925 88.9515 214.989 89.0689 215.032V216.312C88.7595 216.184 88.4289 216.093 88.0769 216.04C87.7355 215.987 87.3942 215.96 87.0529 215.96C86.4449 215.96 86.0075 216.045 85.7409 216.216C85.4742 216.376 85.3409 216.595 85.3409 216.872C85.3409 217.032 85.3835 217.176 85.4689 217.304C85.5542 217.421 85.6662 217.533 85.8049 217.64C85.9542 217.736 86.1249 217.832 86.3169 217.928C86.5089 218.013 86.7115 218.104 86.9249 218.2C87.2129 218.328 87.5062 218.461 87.8049 218.6C88.1142 218.728 88.3915 218.888 88.6369 219.08C88.8929 219.272 89.0955 219.501 89.2449 219.768C89.4049 220.035 89.4849 220.365 89.4849 220.76C89.4849 221.464 89.1969 222.035 88.6209 222.472C88.0555 222.909 87.2449 223.128 86.1889 223.128ZM90.4904 214.84H92.1384L93.9624 221.336L96.0584 214.84H97.3384L99.4184 221.368L101.386 214.84H102.858L100.218 223H98.6344L96.6184 216.824L94.6984 223H93.1144L90.4904 214.84ZM107.913 223.128C107.294 223.128 106.729 223.027 106.217 222.824C105.705 222.621 105.262 222.333 104.889 221.96C104.526 221.587 104.244 221.144 104.041 220.632C103.838 220.12 103.737 219.549 103.737 218.92C103.737 218.301 103.838 217.736 104.041 217.224C104.244 216.701 104.526 216.253 104.889 215.88C105.262 215.507 105.705 215.219 106.217 215.016C106.729 214.813 107.294 214.712 107.913 214.712C108.532 214.712 109.097 214.813 109.609 215.016C110.121 215.219 110.558 215.507 110.921 215.88C111.294 216.253 111.582 216.701 111.785 217.224C111.988 217.736 112.089 218.301 112.089 218.92C112.089 219.549 111.988 220.12 111.785 220.632C111.582 221.144 111.294 221.587 110.921 221.96C110.558 222.333 110.121 222.621 109.609 222.824C109.097 223.027 108.532 223.128 107.913 223.128ZM107.913 221.912C108.265 221.912 108.596 221.843 108.905 221.704C109.225 221.565 109.497 221.368 109.721 221.112C109.956 220.845 110.142 220.531 110.281 220.168C110.42 219.795 110.489 219.379 110.489 218.92C110.489 218.461 110.42 218.051 110.281 217.688C110.142 217.315 109.956 217 109.721 216.744C109.486 216.477 109.214 216.275 108.905 216.136C108.596 215.997 108.265 215.928 107.913 215.928C107.561 215.928 107.225 215.997 106.905 216.136C106.596 216.275 106.324 216.477 106.089 216.744C105.865 217 105.684 217.315 105.545 217.688C105.406 218.051 105.337 218.461 105.337 218.92C105.337 219.379 105.406 219.795 105.545 220.168C105.684 220.531 105.865 220.845 106.089 221.112C106.324 221.368 106.596 221.565 106.905 221.704C107.225 221.843 107.561 221.912 107.913 221.912ZM114.203 214.84H115.611V216.168H115.643C115.91 215.645 116.23 215.272 116.603 215.048C116.987 214.824 117.446 214.712 117.979 214.712C118.128 214.712 118.278 214.723 118.427 214.744C118.587 214.755 118.752 214.771 118.923 214.792V216.104C118.763 216.083 118.608 216.067 118.459 216.056C118.31 216.035 118.166 216.024 118.027 216.024C117.206 216.024 116.614 216.307 116.251 216.872C115.888 217.437 115.707 218.264 115.707 219.352V223H114.203V214.84ZM123.779 223.128C123.203 223.128 122.68 223.021 122.211 222.808C121.742 222.595 121.342 222.296 121.011 221.912C120.68 221.528 120.424 221.075 120.243 220.552C120.072 220.019 119.987 219.443 119.987 218.824C119.987 218.237 120.078 217.693 120.259 217.192C120.44 216.691 120.696 216.259 121.027 215.896C121.358 215.523 121.752 215.235 122.211 215.032C122.68 214.819 123.192 214.712 123.747 214.712C124.366 214.712 124.888 214.829 125.315 215.064C125.752 215.299 126.12 215.587 126.419 215.928H126.451V210.84H127.955V223H126.515V221.848H126.419C126.11 222.243 125.742 222.557 125.315 222.792C124.899 223.016 124.387 223.128 123.779 223.128ZM124.035 221.912C124.387 221.912 124.712 221.837 125.011 221.688C125.31 221.539 125.566 221.336 125.779 221.08C125.992 220.813 126.158 220.499 126.275 220.136C126.392 219.773 126.451 219.373 126.451 218.936C126.451 218.499 126.387 218.099 126.259 217.736C126.142 217.363 125.976 217.043 125.763 216.776C125.55 216.509 125.294 216.301 124.995 216.152C124.696 216.003 124.366 215.928 124.003 215.928C123.662 215.928 123.342 216.003 123.043 216.152C122.744 216.301 122.488 216.509 122.275 216.776C122.062 217.032 121.891 217.341 121.763 217.704C121.646 218.067 121.587 218.461 121.587 218.888C121.587 219.325 121.646 219.731 121.763 220.104C121.891 220.467 122.062 220.787 122.275 221.064C122.499 221.331 122.76 221.539 123.059 221.688C123.358 221.837 123.683 221.912 124.035 221.912Z" fill="#7B7E86"/>
<path d="M392.305 214.081C392.681 213.992 392.999 214.313 392.999 214.7V215.7C392.999 216.418 393.581 217 394.299 217H395.299C395.686 217 396.007 217.318 395.918 217.694C395.605 219.016 394.417 220 392.999 220C391.342 220 389.999 218.657 389.999 217C389.999 215.582 390.983 214.394 392.305 214.081Z" fill="#B1B5BB"/>
<path fill-rule="evenodd" clip-rule="evenodd" d="M392.999 210C388.118 210 384.865 213.655 383.436 215.683C382.873 216.481 382.873 217.519 383.436 218.317C384.865 220.345 388.118 224 392.999 224C397.88 224 401.133 220.345 402.562 218.317C403.125 217.519 403.125 216.481 402.562 215.683C401.133 213.655 397.88 210 392.999 210ZM386.708 213.927C385.761 214.778 385.02 215.691 384.498 216.431C384.252 216.781 384.252 217.219 384.498 217.569C385.02 218.309 385.761 219.222 386.708 220.073C386.254 219.145 385.999 218.102 385.999 217C385.999 215.898 386.254 214.855 386.708 213.927ZM392.999 222.7C389.851 222.7 387.299 220.148 387.299 217C387.299 213.852 389.851 211.3 392.999 211.3C396.147 211.3 398.699 213.852 398.699 217C398.699 220.148 396.147 222.7 392.999 222.7ZM399.29 213.927C400.237 214.778 400.978 215.691 401.5 216.431C401.746 216.781 401.746 217.219 401.5 217.569C400.978 218.309 400.237 219.222 399.29 220.073C399.744 219.145 399.999 218.102 399.999 217C399.999 215.898 399.744 214.855 399.29 213.927Z" fill="#B1B5BB"/>
<path d="M44.234 273.432H41.238V272.2H48.602V273.432H45.606V282H44.234V273.432ZM52.5451 282.112C52.0037 282.112 51.5091 282.023 51.0611 281.846C50.6131 281.669 50.2257 281.417 49.8991 281.09C49.5817 280.763 49.3344 280.376 49.1571 279.928C48.9797 279.48 48.8911 278.981 48.8911 278.43C48.8911 277.889 48.9797 277.394 49.1571 276.946C49.3344 276.489 49.5817 276.097 49.8991 275.77C50.2257 275.443 50.6131 275.191 51.0611 275.014C51.5091 274.837 52.0037 274.748 52.5451 274.748C53.0864 274.748 53.5811 274.837 54.0291 275.014C54.4771 275.191 54.8597 275.443 55.1771 275.77C55.5037 276.097 55.7557 276.489 55.9331 276.946C56.1104 277.394 56.1991 277.889 56.1991 278.43C56.1991 278.981 56.1104 279.48 55.9331 279.928C55.7557 280.376 55.5037 280.763 55.1771 281.09C54.8597 281.417 54.4771 281.669 54.0291 281.846C53.5811 282.023 53.0864 282.112 52.5451 282.112ZM52.5451 281.048C52.8531 281.048 53.1424 280.987 53.4131 280.866C53.6931 280.745 53.9311 280.572 54.1271 280.348C54.3324 280.115 54.4957 279.839 54.6171 279.522C54.7384 279.195 54.7991 278.831 54.7991 278.43C54.7991 278.029 54.7384 277.669 54.6171 277.352C54.4957 277.025 54.3324 276.75 54.1271 276.526C53.9217 276.293 53.6837 276.115 53.4131 275.994C53.1424 275.873 52.8531 275.812 52.5451 275.812C52.2371 275.812 51.9431 275.873 51.6631 275.994C51.3924 276.115 51.1544 276.293 50.9491 276.526C50.7531 276.75 50.5944 277.025 50.4731 277.352C50.3517 277.669 50.2911 278.029 50.2911 278.43C50.2911 278.831 50.3517 279.195 50.4731 279.522C50.5944 279.839 50.7531 280.115 50.9491 280.348C51.1544 280.572 51.3924 280.745 51.6631 280.866C51.9431 280.987 52.2371 281.048 52.5451 281.048ZM58.0487 271.36H59.3647V278.192L62.8227 274.86H64.4607L61.2827 277.828L64.5027 282H62.8927L60.3587 278.64L59.3647 279.578V282H58.0487V271.36ZM66.5596 278.724C66.6343 279.461 66.8863 280.031 67.3156 280.432C67.745 280.824 68.3236 281.02 69.0516 281.02C69.481 281.02 69.901 280.969 70.3116 280.866C70.7316 280.754 71.077 280.619 71.3476 280.46V281.748C71.1236 281.823 70.8156 281.902 70.4236 281.986C70.0316 282.07 69.5463 282.112 68.9676 282.112C67.7543 282.112 66.821 281.776 66.1676 281.104C65.5236 280.432 65.2016 279.499 65.2016 278.304C65.2016 277.763 65.2856 277.273 65.4536 276.834C65.631 276.395 65.869 276.022 66.1676 275.714C66.4756 275.406 66.835 275.168 67.2456 275C67.6563 274.832 68.0996 274.748 68.5756 274.748C69.593 274.748 70.391 275.047 70.9696 275.644C71.5483 276.241 71.8376 277.147 71.8376 278.36V278.724H66.5596ZM68.5616 275.812C68.011 275.812 67.5583 275.989 67.2036 276.344C66.8583 276.689 66.6436 277.156 66.5596 277.744H70.4376C70.4376 277.128 70.2603 276.652 69.9056 276.316C69.551 275.98 69.103 275.812 68.5616 275.812ZM73.7304 274.86H75.0464V275.882H75.0744C75.345 275.499 75.681 275.215 76.0824 275.028C76.493 274.841 76.9504 274.748 77.4544 274.748C78.2944 274.748 78.957 275 79.4424 275.504C79.9277 275.999 80.1704 276.764 80.1704 277.8V282H78.8544V278.22C78.8544 277.763 78.8124 277.38 78.7284 277.072C78.6537 276.755 78.5417 276.507 78.3924 276.33C78.2524 276.143 78.075 276.013 77.8604 275.938C77.655 275.854 77.4264 275.812 77.1744 275.812C76.5304 275.812 76.0124 276.045 75.6204 276.512C75.2377 276.969 75.0464 277.679 75.0464 278.64V282H73.7304V274.86Z" fill="#22242A"/>
<rect x="90" y="269" width="28" height="16" rx="8" fill="#0062FF"/>
<circle cx="110" cy="277" r="6" fill="white"/>
<rect x="41.5" y="297.5" width="379" height="55" rx="3.5" fill="white"/>
<rect x="41.5" y="297.5" width="379" height="55" rx="3.5" stroke="#B1B5BB"/>
<path d="M61.672 319.8H63.368L67.8 331H66.04L64.968 328.12H60.008L58.936 331H57.24L61.672 319.8ZM60.488 326.84H64.504L62.52 321.48H62.488L60.488 326.84ZM72.3104 331.128C71.7344 331.128 71.2117 331.021 70.7424 330.808C70.273 330.595 69.873 330.296 69.5424 329.912C69.2117 329.528 68.9557 329.075 68.7744 328.552C68.6037 328.019 68.5184 327.443 68.5184 326.824C68.5184 326.237 68.609 325.693 68.7904 325.192C68.9717 324.691 69.2277 324.259 69.5584 323.896C69.889 323.523 70.2837 323.235 70.7424 323.032C71.2117 322.819 71.7237 322.712 72.2784 322.712C72.897 322.712 73.4197 322.829 73.8464 323.064C74.2837 323.299 74.6517 323.587 74.9504 323.928H74.9824V318.84H76.4864V331H75.0464V329.848H74.9504C74.641 330.243 74.273 330.557 73.8464 330.792C73.4304 331.016 72.9184 331.128 72.3104 331.128ZM72.5664 329.912C72.9184 329.912 73.2437 329.837 73.5424 329.688C73.841 329.539 74.097 329.336 74.3104 329.08C74.5237 328.813 74.689 328.499 74.8064 328.136C74.9237 327.773 74.9824 327.373 74.9824 326.936C74.9824 326.499 74.9184 326.099 74.7904 325.736C74.673 325.363 74.5077 325.043 74.2944 324.776C74.081 324.509 73.825 324.301 73.5264 324.152C73.2277 324.003 72.897 323.928 72.5344 323.928C72.193 323.928 71.873 324.003 71.5744 324.152C71.2757 324.301 71.0197 324.509 70.8064 324.776C70.593 325.032 70.4224 325.341 70.2944 325.704C70.177 326.067 70.1184 326.461 70.1184 326.888C70.1184 327.325 70.177 327.731 70.2944 328.104C70.4224 328.467 70.593 328.787 70.8064 329.064C71.0304 329.331 71.2917 329.539 71.5904 329.688C71.889 329.837 72.2144 329.912 72.5664 329.912ZM82.3885 331.128C81.8125 331.128 81.2898 331.021 80.8205 330.808C80.3512 330.595 79.9512 330.296 79.6205 329.912C79.2898 329.528 79.0338 329.075 78.8525 328.552C78.6818 328.019 78.5965 327.443 78.5965 326.824C78.5965 326.237 78.6872 325.693 78.8685 325.192C79.0498 324.691 79.3058 324.259 79.6365 323.896C79.9672 323.523 80.3618 323.235 80.8205 323.032C81.2898 322.819 81.8018 322.712 82.3565 322.712C82.9752 322.712 83.4978 322.829 83.9245 323.064C84.3618 323.299 84.7298 323.587 85.0285 323.928H85.0605V318.84H86.5645V331H85.1245V329.848H85.0285C84.7192 330.243 84.3512 330.557 83.9245 330.792C83.5085 331.016 82.9965 331.128 82.3885 331.128ZM82.6445 329.912C82.9965 329.912 83.3218 329.837 83.6205 329.688C83.9192 329.539 84.1752 329.336 84.3885 329.08C84.6018 328.813 84.7672 328.499 84.8845 328.136C85.0018 327.773 85.0605 327.373 85.0605 326.936C85.0605 326.499 84.9965 326.099 84.8685 325.736C84.7512 325.363 84.5858 325.043 84.3725 324.776C84.1592 324.509 83.9032 324.301 83.6045 324.152C83.3058 324.003 82.9752 323.928 82.6125 323.928C82.2712 323.928 81.9512 324.003 81.6525 324.152C81.3538 324.301 81.0978 324.509 80.8845 324.776C80.6712 325.032 80.5005 325.341 80.3725 325.704C80.2552 326.067 80.1965 326.461 80.1965 326.888C80.1965 327.325 80.2552 327.731 80.3725 328.104C80.5005 328.467 80.6712 328.787 80.8845 329.064C81.1085 329.331 81.3698 329.539 81.6685 329.688C81.9672 329.837 82.2925 329.912 82.6445 329.912ZM95.2741 321.208H91.8501V319.8H100.266V321.208H96.8421V331H95.2741V321.208ZM104.773 331.128C104.154 331.128 103.589 331.027 103.077 330.824C102.565 330.621 102.122 330.333 101.749 329.96C101.386 329.587 101.103 329.144 100.901 328.632C100.698 328.12 100.597 327.549 100.597 326.92C100.597 326.301 100.698 325.736 100.901 325.224C101.103 324.701 101.386 324.253 101.749 323.88C102.122 323.507 102.565 323.219 103.077 323.016C103.589 322.813 104.154 322.712 104.773 322.712C105.391 322.712 105.957 322.813 106.469 323.016C106.981 323.219 107.418 323.507 107.781 323.88C108.154 324.253 108.442 324.701 108.645 325.224C108.847 325.736 108.949 326.301 108.949 326.92C108.949 327.549 108.847 328.12 108.645 328.632C108.442 329.144 108.154 329.587 107.781 329.96C107.418 330.333 106.981 330.621 106.469 330.824C105.957 331.027 105.391 331.128 104.773 331.128ZM104.773 329.912C105.125 329.912 105.455 329.843 105.765 329.704C106.085 329.565 106.357 329.368 106.581 329.112C106.815 328.845 107.002 328.531 107.141 328.168C107.279 327.795 107.349 327.379 107.349 326.92C107.349 326.461 107.279 326.051 107.141 325.688C107.002 325.315 106.815 325 106.581 324.744C106.346 324.477 106.074 324.275 105.765 324.136C105.455 323.997 105.125 323.928 104.773 323.928C104.421 323.928 104.085 323.997 103.765 324.136C103.455 324.275 103.183 324.477 102.949 324.744C102.725 325 102.543 325.315 102.405 325.688C102.266 326.051 102.197 326.461 102.197 326.92C102.197 327.379 102.266 327.795 102.405 328.168C102.543 328.531 102.725 328.845 102.949 329.112C103.183 329.368 103.455 329.565 103.765 329.704C104.085 329.843 104.421 329.912 104.773 329.912ZM111.062 318.84H112.566V326.648L116.518 322.84H118.39L114.758 326.232L118.438 331H116.598L113.702 327.16L112.566 328.232V331H111.062V318.84ZM120.789 327.256C120.874 328.099 121.162 328.749 121.653 329.208C122.144 329.656 122.805 329.88 123.637 329.88C124.128 329.88 124.608 329.821 125.077 329.704C125.557 329.576 125.952 329.421 126.261 329.24V330.712C126.005 330.797 125.653 330.888 125.205 330.984C124.757 331.08 124.202 331.128 123.541 331.128C122.154 331.128 121.088 330.744 120.341 329.976C119.605 329.208 119.237 328.141 119.237 326.776C119.237 326.157 119.333 325.597 119.525 325.096C119.728 324.595 120 324.168 120.341 323.816C120.693 323.464 121.104 323.192 121.573 323C122.042 322.808 122.549 322.712 123.093 322.712C124.256 322.712 125.168 323.053 125.829 323.736C126.49 324.419 126.821 325.453 126.821 326.84V327.256H120.789ZM123.077 323.928C122.448 323.928 121.93 324.131 121.525 324.536C121.13 324.931 120.885 325.464 120.789 326.136H125.221C125.221 325.432 125.018 324.888 124.613 324.504C124.208 324.12 123.696 323.928 123.077 323.928ZM128.984 322.84H130.488V324.008H130.52C130.83 323.571 131.214 323.245 131.672 323.032C132.142 322.819 132.664 322.712 133.24 322.712C134.2 322.712 134.958 323 135.512 323.576C136.067 324.141 136.344 325.016 136.344 326.2V331H134.84V326.68C134.84 326.157 134.792 325.72 134.696 325.368C134.611 325.005 134.483 324.723 134.312 324.52C134.152 324.307 133.95 324.157 133.704 324.072C133.47 323.976 133.208 323.928 132.92 323.928C132.184 323.928 131.592 324.195 131.144 324.728C130.707 325.251 130.488 326.061 130.488 327.16V331H128.984V322.84ZM146.069 331.128C145.451 331.128 144.885 331.027 144.373 330.824C143.861 330.621 143.419 330.333 143.045 329.96C142.683 329.587 142.4 329.144 142.197 328.632C141.995 328.12 141.893 327.549 141.893 326.92C141.893 326.301 141.995 325.736 142.197 325.224C142.4 324.701 142.683 324.253 143.045 323.88C143.419 323.507 143.861 323.219 144.373 323.016C144.885 322.813 145.451 322.712 146.069 322.712C146.688 322.712 147.253 322.813 147.765 323.016C148.277 323.219 148.715 323.507 149.077 323.88C149.451 324.253 149.739 324.701 149.941 325.224C150.144 325.736 150.245 326.301 150.245 326.92C150.245 327.549 150.144 328.12 149.941 328.632C149.739 329.144 149.451 329.587 149.077 329.96C148.715 330.333 148.277 330.621 147.765 330.824C147.253 331.027 146.688 331.128 146.069 331.128ZM146.069 329.912C146.421 329.912 146.752 329.843 147.061 329.704C147.381 329.565 147.653 329.368 147.877 329.112C148.112 328.845 148.299 328.531 148.437 328.168C148.576 327.795 148.645 327.379 148.645 326.92C148.645 326.461 148.576 326.051 148.437 325.688C148.299 325.315 148.112 325 147.877 324.744C147.643 324.477 147.371 324.275 147.061 324.136C146.752 323.997 146.421 323.928 146.069 323.928C145.717 323.928 145.381 323.997 145.061 324.136C144.752 324.275 144.48 324.477 144.245 324.744C144.021 325 143.84 325.315 143.701 325.688C143.563 326.051 143.493 326.461 143.493 326.92C143.493 327.379 143.563 327.795 143.701 328.168C143.84 328.531 144.021 328.845 144.245 329.112C144.48 329.368 144.752 329.565 145.061 329.704C145.381 329.843 145.717 329.912 146.069 329.912ZM152.359 322.84H153.767V324.168H153.799C154.066 323.645 154.386 323.272 154.759 323.048C155.143 322.824 155.602 322.712 156.135 322.712C156.285 322.712 156.434 322.723 156.583 322.744C156.743 322.755 156.909 322.771 157.079 322.792V324.104C156.919 324.083 156.765 324.067 156.615 324.056C156.466 324.035 156.322 324.024 156.183 324.024C155.362 324.024 154.77 324.307 154.407 324.872C154.045 325.437 153.863 326.264 153.863 327.352V331H152.359V322.84ZM166.979 326.728C166.851 326.749 166.718 326.76 166.579 326.76C166.451 326.76 166.318 326.76 166.179 326.76H164.259V331H162.691V319.8H166.179C167.544 319.8 168.552 320.104 169.203 320.712C169.854 321.32 170.179 322.189 170.179 323.32C170.179 324.067 170.03 324.685 169.731 325.176C169.443 325.667 169.038 326.045 168.515 326.312L170.915 331H168.979L166.979 326.728ZM166.179 325.432C166.979 325.432 167.56 325.256 167.923 324.904C168.296 324.552 168.483 324.024 168.483 323.32C168.483 322.616 168.296 322.088 167.923 321.736C167.56 321.384 166.979 321.208 166.179 321.208H164.259V325.432H166.179ZM179.479 331H177.975V329.832H177.943C177.634 330.269 177.244 330.595 176.775 330.808C176.316 331.021 175.799 331.128 175.223 331.128C174.263 331.128 173.506 330.845 172.951 330.28C172.396 329.704 172.119 328.824 172.119 327.64V322.84H173.623V327.16C173.623 327.693 173.666 328.136 173.751 328.488C173.847 328.84 173.975 329.123 174.135 329.336C174.306 329.539 174.508 329.688 174.743 329.784C174.988 329.869 175.255 329.912 175.543 329.912C176.279 329.912 176.866 329.651 177.303 329.128C177.751 328.595 177.975 327.779 177.975 326.68V322.84H179.479V331ZM186.237 324.056H184.221V328.456C184.221 328.947 184.343 329.288 184.589 329.48C184.845 329.661 185.143 329.752 185.485 329.752C185.741 329.752 186.013 329.709 186.301 329.624V330.984C186.098 331.037 185.906 331.075 185.725 331.096C185.543 331.117 185.378 331.128 185.229 331.128C184.418 331.128 183.799 330.909 183.373 330.472C182.946 330.024 182.733 329.4 182.733 328.6V324.056H181.245V322.84H182.733V320.808L184.221 320.264V322.84H186.237V324.056ZM191.773 331.128C191.154 331.128 190.589 331.027 190.077 330.824C189.565 330.621 189.122 330.333 188.749 329.96C188.386 329.587 188.103 329.144 187.901 328.632C187.698 328.12 187.597 327.549 187.597 326.92C187.597 326.301 187.698 325.736 187.901 325.224C188.103 324.701 188.386 324.253 188.749 323.88C189.122 323.507 189.565 323.219 190.077 323.016C190.589 322.813 191.154 322.712 191.773 322.712C192.391 322.712 192.957 322.813 193.469 323.016C193.981 323.219 194.418 323.507 194.781 323.88C195.154 324.253 195.442 324.701 195.645 325.224C195.847 325.736 195.949 326.301 195.949 326.92C195.949 327.549 195.847 328.12 195.645 328.632C195.442 329.144 195.154 329.587 194.781 329.96C194.418 330.333 193.981 330.621 193.469 330.824C192.957 331.027 192.391 331.128 191.773 331.128ZM191.773 329.912C192.125 329.912 192.455 329.843 192.765 329.704C193.085 329.565 193.357 329.368 193.581 329.112C193.815 328.845 194.002 328.531 194.141 328.168C194.279 327.795 194.349 327.379 194.349 326.92C194.349 326.461 194.279 326.051 194.141 325.688C194.002 325.315 193.815 325 193.581 324.744C193.346 324.477 193.074 324.275 192.765 324.136C192.455 323.997 192.125 323.928 191.773 323.928C191.421 323.928 191.085 323.997 190.765 324.136C190.455 324.275 190.183 324.477 189.949 324.744C189.725 325 189.543 325.315 189.405 325.688C189.266 326.051 189.197 326.461 189.197 326.92C189.197 327.379 189.266 327.795 189.405 328.168C189.543 328.531 189.725 328.845 189.949 329.112C190.183 329.368 190.455 329.565 190.765 329.704C191.085 329.843 191.421 329.912 191.773 329.912ZM198.062 318.84H199.566V326.648L203.518 322.84H205.39L201.758 326.232L205.438 331H203.598L200.702 327.16L199.566 328.232V331H198.062V318.84ZM207.789 327.256C207.874 328.099 208.162 328.749 208.653 329.208C209.144 329.656 209.805 329.88 210.637 329.88C211.128 329.88 211.608 329.821 212.077 329.704C212.557 329.576 212.952 329.421 213.261 329.24V330.712C213.005 330.797 212.653 330.888 212.205 330.984C211.757 331.08 211.202 331.128 210.541 331.128C209.154 331.128 208.088 330.744 207.341 329.976C206.605 329.208 206.237 328.141 206.237 326.776C206.237 326.157 206.333 325.597 206.525 325.096C206.728 324.595 207 324.168 207.341 323.816C207.693 323.464 208.104 323.192 208.573 323C209.042 322.808 209.549 322.712 210.093 322.712C211.256 322.712 212.168 323.053 212.829 323.736C213.49 324.419 213.821 325.453 213.821 326.84V327.256H207.789ZM210.077 323.928C209.448 323.928 208.93 324.131 208.525 324.536C208.13 324.931 207.885 325.464 207.789 326.136H212.221C212.221 325.432 212.018 324.888 211.613 324.504C211.208 324.12 210.696 323.928 210.077 323.928ZM215.984 322.84H217.488V324.008H217.52C217.83 323.571 218.214 323.245 218.672 323.032C219.142 322.819 219.664 322.712 220.24 322.712C221.2 322.712 221.958 323 222.512 323.576C223.067 324.141 223.344 325.016 223.344 326.2V331H221.84V326.68C221.84 326.157 221.792 325.72 221.696 325.368C221.611 325.005 221.483 324.723 221.312 324.52C221.152 324.307 220.95 324.157 220.704 324.072C220.47 323.976 220.208 323.928 219.92 323.928C219.184 323.928 218.592 324.195 218.144 324.728C217.707 325.251 217.488 326.061 217.488 327.16V331H215.984V322.84Z" fill="#7B7E86"/>
<path fill-rule="evenodd" clip-rule="evenodd" d="M393.044 321.3L390.736 319.453C390.612 319.354 390.457 319.3 390.298 319.3H386C385.613 319.3 385.3 319.613 385.3 320V330C385.3 330.387 385.613 330.7 386 330.7H400C400.387 330.7 400.7 330.387 400.7 330V322C400.7 321.613 400.387 321.3 400 321.3H393.044ZM393.5 320L391.548 318.438C391.193 318.155 390.753 318 390.298 318H386C384.895 318 384 318.895 384 320V330C384 331.105 384.895 332 386 332H400C401.105 332 402 331.105 402 330V322C402 320.895 401.105 320 400 320H393.5Z" fill="#7B7E86"/>
<rect x="41" y="405" width="380" height="56" rx="4" fill="#0062FF"/>
<path d="M208.568 439.16C208.227 439.16 207.821 439.128 207.352 439.064C206.893 439.011 206.392 438.893 205.848 438.712V436.856C206.051 436.941 206.269 437.016 206.504 437.08C206.739 437.144 206.973 437.203 207.208 437.256C207.453 437.299 207.688 437.336 207.912 437.368C208.147 437.389 208.36 437.4 208.552 437.4C209.224 437.4 209.736 437.267 210.088 437C210.44 436.723 210.616 436.365 210.616 435.928C210.616 435.693 210.557 435.485 210.44 435.304C210.333 435.123 210.184 434.963 209.992 434.824C209.8 434.675 209.576 434.541 209.32 434.424C209.075 434.296 208.819 434.168 208.552 434.04C208.211 433.88 207.875 433.709 207.544 433.528C207.213 433.347 206.909 433.133 206.632 432.888C206.365 432.632 206.147 432.339 205.976 432.008C205.816 431.667 205.736 431.261 205.736 430.792C205.736 429.789 206.083 429.016 206.776 428.472C207.48 427.917 208.456 427.64 209.704 427.64C210.205 427.64 210.675 427.683 211.112 427.768C211.549 427.843 211.912 427.933 212.2 428.04V429.784C211.795 429.635 211.368 429.533 210.92 429.48C210.472 429.427 210.093 429.4 209.784 429.4C209.123 429.4 208.637 429.501 208.328 429.704C208.029 429.907 207.88 430.189 207.88 430.552C207.88 430.776 207.928 430.979 208.024 431.16C208.131 431.331 208.269 431.485 208.44 431.624C208.621 431.763 208.829 431.891 209.064 432.008C209.299 432.125 209.544 432.248 209.8 432.376C210.141 432.536 210.488 432.707 210.84 432.888C211.192 433.069 211.507 433.288 211.784 433.544C212.072 433.8 212.307 434.109 212.488 434.472C212.669 434.835 212.76 435.272 212.76 435.784C212.76 436.851 212.392 437.683 211.656 438.28C210.931 438.867 209.901 439.16 208.568 439.16ZM214.828 430.76H216.796V439H214.828V430.76ZM214.78 427.384H216.86V429.224H214.78V427.384ZM222.589 442.616C222.194 442.616 221.826 442.595 221.485 442.552C221.144 442.509 220.84 442.456 220.573 442.392C220.306 442.339 220.082 442.28 219.901 442.216C219.72 442.163 219.592 442.125 219.517 442.104V440.408C219.592 440.44 219.72 440.488 219.901 440.552C220.093 440.627 220.317 440.696 220.573 440.76C220.84 440.835 221.138 440.899 221.469 440.952C221.8 441.016 222.141 441.048 222.493 441.048C223.378 441.048 224.034 440.835 224.461 440.408C224.888 439.981 225.101 439.315 225.101 438.408V437.8H225.037C224.76 438.173 224.392 438.467 223.933 438.68C223.485 438.893 223 439 222.477 439C221.933 439 221.437 438.899 220.989 438.696C220.541 438.483 220.157 438.195 219.837 437.832C219.517 437.459 219.266 437.016 219.085 436.504C218.914 435.992 218.829 435.432 218.829 434.824C218.829 434.184 218.92 433.608 219.101 433.096C219.293 432.573 219.549 432.131 219.869 431.768C220.2 431.395 220.594 431.112 221.053 430.92C221.512 430.717 222.013 430.616 222.557 430.616C223.165 430.616 223.672 430.744 224.077 431C224.493 431.256 224.84 431.56 225.117 431.912H225.165V430.76H227.005V438.408C227.005 439.859 226.648 440.92 225.933 441.592C225.218 442.275 224.104 442.616 222.589 442.616ZM222.973 437.48C223.272 437.48 223.544 437.421 223.789 437.304C224.045 437.176 224.264 437 224.445 436.776C224.637 436.552 224.786 436.275 224.893 435.944C225 435.613 225.053 435.24 225.053 434.824C225.053 434.397 225 434.019 224.893 433.688C224.786 433.357 224.637 433.08 224.445 432.856C224.253 432.632 224.024 432.461 223.757 432.344C223.501 432.227 223.224 432.168 222.925 432.168C222.338 432.168 221.848 432.387 221.453 432.824C221.069 433.261 220.877 433.901 220.877 434.744C220.877 435.16 220.93 435.539 221.037 435.88C221.144 436.221 221.293 436.509 221.485 436.744C221.677 436.979 221.901 437.16 222.157 437.288C222.413 437.416 222.685 437.48 222.973 437.48ZM229.403 430.76H231.291V432.008H231.323C231.622 431.581 231.995 431.245 232.443 431C232.902 430.744 233.43 430.616 234.027 430.616C234.966 430.616 235.691 430.915 236.203 431.512C236.726 432.099 236.987 432.963 236.987 434.104V439H235.019V434.68C235.019 433.795 234.875 433.171 234.587 432.808C234.31 432.445 233.915 432.264 233.403 432.264C232.774 432.264 232.278 432.509 231.915 433C231.552 433.48 231.371 434.205 231.371 435.176V439H229.403V430.76ZM243 430.76H244.968V439H243V430.76ZM242.952 427.384H245.032V429.224H242.952V427.384ZM247.497 430.76H249.385V432.008H249.417C249.716 431.581 250.089 431.245 250.537 431C250.996 430.744 251.524 430.616 252.121 430.616C253.06 430.616 253.785 430.915 254.297 431.512C254.82 432.099 255.081 432.963 255.081 434.104V439H253.113V434.68C253.113 433.795 252.969 433.171 252.681 432.808C252.404 432.445 252.009 432.264 251.497 432.264C250.868 432.264 250.372 432.509 250.009 433C249.646 433.48 249.465 434.205 249.465 435.176V439H247.497V430.76Z" fill="white"/>
</svg>
