<svg width="1200" height="675" viewBox="0 0 1200 675" fill="none" xmlns="http://www.w3.org/2000/svg">
<rect width="1200" height="675" fill="white"/>
<path d="M276.458 66.9396C283.025 94.8341 278.323 127.469 278.323 155.972C278.323 196.599 279.085 238.587 275.629 279.168C273.433 304.966 272.729 330.533 272.729 356.399C272.729 369.127 275.302 382.284 274.179 394.911C272.743 411.064 269 426.531 269 442.947C269 457.752 270.865 472.504 270.865 487.36C270.865 518.704 273.729 550.154 274.594 581.258C275.118 600.123 278.323 619.259 278.323 638.094C278.323 643.876 280.187 649.525 280.187 654.865C280.187 660.737 281.439 659.981 287.024 660.559C306.371 662.559 326.133 663.789 345.549 662.319C363.194 660.983 380.621 663.251 398.273 663.251C423.547 663.251 448.822 663.251 474.096 663.251C515.9 663.251 558.121 665.186 599.847 662.836C666.645 659.075 732.994 646.479 799.971 646.479C838.03 646.479 875.687 650.206 913.706 650.206C923.891 650.206 926.748 650.482 927.172 639.025C927.668 625.641 930.821 612.797 930.901 599.271C930.996 583.199 931.065 567.101 930.901 551.028C930.734 534.641 924.454 520.185 921.579 504.234C917.951 484.112 918.715 463.581 915.985 443.361C911.366 409.148 904.798 375.347 904.798 340.766C904.798 283.722 908.855 225.782 914.535 169.016C916.434 150.036 919.484 131.907 919.714 112.698C919.892 97.8113 923.232 83.3768 923.443 68.596C923.679 52.1147 929.037 35.5776 929.037 19.4211C929.037 16.8803 930.024 13.3392 926.654 13.0024C909.176 11.2556 889.7 11.9354 872.273 13.9342C833.464 18.3851 794.588 14.8912 755.637 17.5576C733.76 19.0552 711.881 18.1504 689.965 18.5928C650.287 19.394 610.667 22.0092 570.947 22.0092C515.636 22.0092 460.262 21.941 404.902 22.2163C366.165 22.4089 327.135 23.9095 288.474 25.9432C282.093 26.2788 280.187 30.4476 280.187 36.2958C280.187 43.3993 286.981 75.6569 278.323 79.9839" stroke="black" stroke-width="8" stroke-linecap="round"/>
<path d="M354 86.7996C354 110.812 354 134.825 354 158.837C354 164.259 354.053 165.101 360.196 165.396C373.932 166.055 387.753 167.281 401.501 167.374C433.052 167.586 465.765 165.383 497.124 168.415C530.176 171.61 563.888 172.455 597.083 172.995C606.334 173.145 614.786 169.864 623.932 169.351C630.68 168.974 659.274 172.53 662.966 165.5C668.361 155.227 661.384 135.615 660.797 124.38C660.228 113.467 663.64 98.4802 660.487 88.1529C658.247 80.812 607.386 85.3546 602.247 85.7586C579.969 87.51 557.87 89.9246 535.538 90.9637C514.952 91.9215 493.581 91.4526 473.27 95.3359C451.156 99.564 430.767 101.79 408.317 101.79C399.507 101.79 386.14 104.141 378.164 100.333C374.678 98.6684 369.255 97.0299 365.875 96.2728C363.943 95.8398 351.808 94.2949 357.718 94.2949" stroke="black" stroke-width="8" stroke-linecap="round"/>
<path d="M364 238C398.991 238 503.948 237 468.957 237" stroke="black" stroke-width="8" stroke-linecap="round"/>
<path d="M368.35 291.635C368.35 316.623 364.625 341.293 364.625 366.453C364.625 371.147 359.839 382.774 366.695 380.853C385.337 375.631 409.621 379.914 428.783 379.914C456.722 379.914 484.662 379.914 512.602 379.914C551.167 379.914 589.726 381.355 628.292 381.792C673.799 382.308 720.032 382.407 765.196 375.323C777.081 373.458 790.163 372.401 802.139 372.401C807.674 372.401 813.426 372.833 818.902 371.983C820.709 371.703 831.452 371.571 832.044 369.479C834.095 362.24 832.291 351.324 831.734 344.018C830.891 332.971 828.422 321.295 828.422 310.313C828.422 308.661 829.605 295.419 827.802 294.661C824.54 293.291 817.334 294.87 814.349 294.974C800.545 295.454 786.753 294.904 772.957 294.452C751.146 293.738 729.126 294.468 707.351 293.096C654.149 289.743 601.308 289.138 547.992 291.217C511.466 292.642 474.848 286 438.199 286C425.521 286 413.016 287.878 400.222 287.878C393.398 287.878 387.748 289.379 381.389 289.757C378.048 289.955 375.847 293.513 372.076 293.513" stroke="black" stroke-width="8" stroke-linecap="round"/>
<path d="M372 433C403.555 433 498.203 432 466.648 432" stroke="black" stroke-width="8" stroke-linecap="round"/>
<path d="M367.928 487.521C365.881 508.143 364.585 528.555 364.2 549.484C364.025 558.993 358.345 576.166 362.543 585.681C363.413 587.653 394.812 579.86 397.339 579.526C426.857 575.62 457.392 577.806 487.023 578.587C538.139 579.935 588.716 576.548 639.671 575.771C691.644 574.977 743.413 572.015 795.427 572.015C809.01 572.015 822.373 570.138 835.815 570.138C839.107 570.138 845.136 571.622 845.136 567.008C845.136 558.278 847 549.706 847 541.138C847 525.194 845.136 509.679 845.136 493.571C845.136 490.572 844.779 487.596 845.964 484.809C846.71 483.056 844.36 484.66 843.997 484.913C838.411 488.808 832.213 490.276 825.459 490.859C810.222 492.174 794.316 489.399 778.961 489.399C758.213 489.399 737.643 490.133 716.928 491.276C672.189 493.745 627.665 490.719 582.817 492.215C539.894 493.647 497.065 496.354 454.091 496.909C433.457 497.176 412.921 498.787 392.161 498.787C387.031 498.787 364.47 499.331 362.336 495.031" stroke="black" stroke-width="8" stroke-linecap="round"/>
</svg>
