<svg width="462" height="424" viewBox="0 0 462 424" fill="none" xmlns="http://www.w3.org/2000/svg">
<rect x="1" y="1" width="460" height="422" rx="8" fill="white"/>
<rect x="1" y="1" width="460" height="422" rx="8" stroke="black" stroke-width="2"/>
<rect x="85" y="1" width="292" height="64" fill="white"/>
<rect x="85" y="65" width="292" height="24" fill="white"/>
<rect x="188" y="89" width="86" height="86" rx="43" fill="#FFEFEF"/>
<path d="M231 142.85C231.966 142.85 232.75 142.066 232.75 141.1C232.75 140.133 231.966 139.35 231 139.35C230.034 139.35 229.25 140.133 229.25 141.1C229.25 142.066 230.034 142.85 231 142.85Z" fill="#D92020"/>
<path d="M231 136.191C231.838 136.191 232.517 135.512 232.517 134.674V122.667C232.517 121.829 231.838 121.15 231 121.15C230.162 121.15 229.483 121.829 229.483 122.667V134.674C229.483 135.512 230.162 136.191 231 136.191Z" fill="#D92020"/>
<path fill-rule="evenodd" clip-rule="evenodd" d="M231 111C219.402 111 210 120.402 210 132C210 143.598 219.402 153 231 153C242.598 153 252 143.598 252 132C252 120.402 242.598 111 231 111ZM213.033 132C213.033 122.077 221.077 114.033 231 114.033C240.923 114.033 248.967 122.077 248.967 132C248.967 141.923 240.923 149.967 231 149.967C221.077 149.967 213.033 141.923 213.033 132Z" fill="#D92020"/>
<path d="M144.823 213.4H149.219L156.387 233H152.131L150.703 228.688H143.171L141.743 233H137.683L144.823 213.4ZM144.207 225.58H149.667L146.979 217.572H146.923L144.207 225.58ZM164.812 233.28C163.655 233.28 162.609 233.103 161.676 232.748C160.761 232.393 159.977 231.889 159.324 231.236C158.689 230.583 158.195 229.799 157.84 228.884C157.504 227.951 157.336 226.915 157.336 225.776C157.336 224.675 157.504 223.667 157.84 222.752C158.176 221.819 158.661 221.025 159.296 220.372C159.949 219.7 160.733 219.187 161.648 218.832C162.563 218.459 163.608 218.272 164.784 218.272C165.643 218.272 166.389 218.337 167.024 218.468C167.677 218.599 168.125 218.701 168.368 218.776V221.688C168.088 221.595 167.696 221.492 167.192 221.38C166.688 221.249 166.091 221.184 165.4 221.184C164.037 221.184 163.001 221.567 162.292 222.332C161.583 223.079 161.228 224.217 161.228 225.748C161.228 227.353 161.62 228.529 162.404 229.276C163.188 230.004 164.233 230.368 165.54 230.368C166.249 230.368 166.847 230.303 167.332 230.172C167.836 230.023 168.191 229.901 168.396 229.808V232.776C168.247 232.813 167.855 232.907 167.22 233.056C166.604 233.205 165.801 233.28 164.812 233.28ZM178.265 233.28C177.108 233.28 176.063 233.103 175.129 232.748C174.215 232.393 173.431 231.889 172.777 231.236C172.143 230.583 171.648 229.799 171.293 228.884C170.957 227.951 170.789 226.915 170.789 225.776C170.789 224.675 170.957 223.667 171.293 222.752C171.629 221.819 172.115 221.025 172.749 220.372C173.403 219.7 174.187 219.187 175.101 218.832C176.016 218.459 177.061 218.272 178.237 218.272C179.096 218.272 179.843 218.337 180.477 218.468C181.131 218.599 181.579 218.701 181.821 218.776V221.688C181.541 221.595 181.149 221.492 180.645 221.38C180.141 221.249 179.544 221.184 178.853 221.184C177.491 221.184 176.455 221.567 175.745 222.332C175.036 223.079 174.681 224.217 174.681 225.748C174.681 227.353 175.073 228.529 175.857 229.276C176.641 230.004 177.687 230.368 178.993 230.368C179.703 230.368 180.3 230.303 180.785 230.172C181.289 230.023 181.644 229.901 181.849 229.808V232.776C181.7 232.813 181.308 232.907 180.673 233.056C180.057 233.205 179.255 233.28 178.265 233.28ZM188.078 226.756C188.433 229.164 189.88 230.368 192.418 230.368C193.128 230.368 193.884 230.293 194.686 230.144C195.508 229.976 196.264 229.789 196.954 229.584V232.608C196.488 232.739 195.825 232.879 194.966 233.028C194.126 233.196 193.165 233.28 192.082 233.28C189.544 233.28 187.602 232.599 186.258 231.236C184.914 229.873 184.242 227.997 184.242 225.608C184.242 224.488 184.41 223.48 184.746 222.584C185.101 221.669 185.586 220.895 186.202 220.26C186.837 219.625 187.584 219.14 188.442 218.804C189.301 218.449 190.244 218.272 191.27 218.272C193.417 218.272 195.06 218.935 196.198 220.26C197.337 221.585 197.906 223.48 197.906 225.944V226.756H188.078ZM191.27 221.156C190.337 221.156 189.609 221.464 189.086 222.08C188.564 222.677 188.228 223.452 188.078 224.404H194.21C194.248 223.396 193.986 222.603 193.426 222.024C192.885 221.445 192.166 221.156 191.27 221.156ZM205.108 233.28C204.156 233.28 203.307 233.205 202.56 233.056C201.832 232.925 201.169 232.748 200.572 232.524V229.612C201.487 229.948 202.317 230.181 203.064 230.312C203.829 230.424 204.427 230.48 204.856 230.48C205.677 230.48 206.256 230.349 206.592 230.088C206.947 229.808 207.124 229.481 207.124 229.108C207.124 228.847 207.049 228.623 206.9 228.436C206.769 228.249 206.573 228.081 206.312 227.932C206.069 227.764 205.78 227.605 205.444 227.456C205.108 227.307 204.744 227.139 204.352 226.952C203.904 226.747 203.447 226.523 202.98 226.28C202.513 226.037 202.093 225.739 201.72 225.384C201.365 225.029 201.067 224.619 200.824 224.152C200.6 223.685 200.488 223.125 200.488 222.472C200.488 221.781 200.628 221.175 200.908 220.652C201.188 220.129 201.58 219.691 202.084 219.336C202.588 218.981 203.185 218.72 203.876 218.552C204.585 218.365 205.36 218.272 206.2 218.272C207.208 218.272 208.085 218.365 208.832 218.552C209.579 218.739 210.083 218.879 210.344 218.972V221.8C209.765 221.557 209.149 221.38 208.496 221.268C207.861 221.137 207.255 221.072 206.676 221.072C205.089 221.072 204.296 221.501 204.296 222.36C204.296 222.603 204.361 222.817 204.492 223.004C204.623 223.172 204.8 223.331 205.024 223.48C205.248 223.611 205.509 223.751 205.808 223.9C206.107 224.031 206.424 224.171 206.76 224.32C207.245 224.544 207.74 224.777 208.244 225.02C208.767 225.244 209.233 225.524 209.644 225.86C210.073 226.177 210.419 226.579 210.68 227.064C210.96 227.549 211.1 228.156 211.1 228.884C211.1 229.631 210.951 230.284 210.652 230.844C210.372 231.385 209.961 231.843 209.42 232.216C208.897 232.571 208.263 232.832 207.516 233C206.788 233.187 205.985 233.28 205.108 233.28ZM218.26 233.28C217.308 233.28 216.459 233.205 215.712 233.056C214.984 232.925 214.322 232.748 213.724 232.524V229.612C214.639 229.948 215.47 230.181 216.216 230.312C216.982 230.424 217.579 230.48 218.008 230.48C218.83 230.48 219.408 230.349 219.744 230.088C220.099 229.808 220.276 229.481 220.276 229.108C220.276 228.847 220.202 228.623 220.052 228.436C219.922 228.249 219.726 228.081 219.464 227.932C219.222 227.764 218.932 227.605 218.596 227.456C218.26 227.307 217.896 227.139 217.504 226.952C217.056 226.747 216.599 226.523 216.132 226.28C215.666 226.037 215.246 225.739 214.872 225.384C214.518 225.029 214.219 224.619 213.976 224.152C213.752 223.685 213.64 223.125 213.64 222.472C213.64 221.781 213.78 221.175 214.06 220.652C214.34 220.129 214.732 219.691 215.236 219.336C215.74 218.981 216.338 218.72 217.028 218.552C217.738 218.365 218.512 218.272 219.352 218.272C220.36 218.272 221.238 218.365 221.984 218.552C222.731 218.739 223.235 218.879 223.496 218.972V221.8C222.918 221.557 222.302 221.38 221.648 221.268C221.014 221.137 220.407 221.072 219.828 221.072C218.242 221.072 217.448 221.501 217.448 222.36C217.448 222.603 217.514 222.817 217.644 223.004C217.775 223.172 217.952 223.331 218.176 223.48C218.4 223.611 218.662 223.751 218.96 223.9C219.259 224.031 219.576 224.171 219.912 224.32C220.398 224.544 220.892 224.777 221.396 225.02C221.919 225.244 222.386 225.524 222.796 225.86C223.226 226.177 223.571 226.579 223.832 227.064C224.112 227.549 224.252 228.156 224.252 228.884C224.252 229.631 224.103 230.284 223.804 230.844C223.524 231.385 223.114 231.843 222.572 232.216C222.05 232.571 221.415 232.832 220.668 233C219.94 233.187 219.138 233.28 218.26 233.28ZM239.574 233.28C238.566 233.28 237.66 233.084 236.858 232.692C236.055 232.3 235.374 231.759 234.814 231.068C234.272 230.377 233.852 229.575 233.554 228.66C233.255 227.727 233.106 226.728 233.106 225.664C233.106 224.693 233.246 223.76 233.526 222.864C233.824 221.968 234.244 221.184 234.786 220.512C235.346 219.821 236.018 219.28 236.802 218.888C237.586 218.477 238.482 218.272 239.49 218.272C240.274 218.272 241.03 218.431 241.758 218.748C242.504 219.047 243.186 219.532 243.802 220.204V211.832H247.554V233H244.026V230.872C243.503 231.675 242.878 232.281 242.15 232.692C241.44 233.084 240.582 233.28 239.574 233.28ZM240.47 230.396C241.478 230.396 242.299 229.976 242.934 229.136C243.568 228.296 243.886 227.185 243.886 225.804C243.886 225.132 243.792 224.516 243.606 223.956C243.438 223.377 243.195 222.892 242.878 222.5C242.579 222.089 242.215 221.772 241.786 221.548C241.375 221.324 240.918 221.212 240.414 221.212C239.91 221.212 239.452 221.324 239.042 221.548C238.631 221.772 238.267 222.089 237.95 222.5C237.651 222.892 237.418 223.368 237.25 223.928C237.082 224.488 236.998 225.104 236.998 225.776C236.998 226.448 237.082 227.073 237.25 227.652C237.418 228.212 237.651 228.697 237.95 229.108C238.267 229.519 238.64 229.836 239.07 230.06C239.499 230.284 239.966 230.396 240.47 230.396ZM254.578 226.756C254.933 229.164 256.38 230.368 258.918 230.368C259.628 230.368 260.384 230.293 261.186 230.144C262.008 229.976 262.764 229.789 263.454 229.584V232.608C262.988 232.739 262.325 232.879 261.466 233.028C260.626 233.196 259.665 233.28 258.582 233.28C256.044 233.28 254.102 232.599 252.758 231.236C251.414 229.873 250.742 227.997 250.742 225.608C250.742 224.488 250.91 223.48 251.246 222.584C251.601 221.669 252.086 220.895 252.702 220.26C253.337 219.625 254.084 219.14 254.942 218.804C255.801 218.449 256.744 218.272 257.77 218.272C259.917 218.272 261.56 218.935 262.698 220.26C263.837 221.585 264.406 223.48 264.406 225.944V226.756H254.578ZM257.77 221.156C256.837 221.156 256.109 221.464 255.586 222.08C255.064 222.677 254.728 223.452 254.578 224.404H260.71C260.748 223.396 260.486 222.603 259.926 222.024C259.385 221.445 258.666 221.156 257.77 221.156ZM267.688 218.524H271.272V220.764H271.328C271.832 220.036 272.476 219.439 273.26 218.972C274.044 218.505 274.968 218.272 276.032 218.272C277.675 218.272 278.935 218.795 279.812 219.84C280.689 220.885 281.128 222.388 281.128 224.348V233H277.348V225.44C277.348 223.984 277.124 222.957 276.676 222.36C276.228 221.763 275.575 221.464 274.716 221.464C273.689 221.464 272.887 221.875 272.308 222.696C271.729 223.499 271.44 224.703 271.44 226.308V233H267.688V218.524ZM284.946 218.524H288.726V233H284.946V218.524ZM284.89 212.616H288.81V215.92H284.89V212.616ZM295.895 226.756C296.249 229.164 297.696 230.368 300.235 230.368C300.944 230.368 301.7 230.293 302.503 230.144C303.324 229.976 304.08 229.789 304.771 229.584V232.608C304.304 232.739 303.641 232.879 302.783 233.028C301.943 233.196 300.981 233.28 299.899 233.28C297.36 233.28 295.419 232.599 294.075 231.236C292.731 229.873 292.059 227.997 292.059 225.608C292.059 224.488 292.227 223.48 292.563 222.584C292.917 221.669 293.403 220.895 294.019 220.26C294.653 219.625 295.4 219.14 296.259 218.804C297.117 218.449 298.06 218.272 299.087 218.272C301.233 218.272 302.876 218.935 304.015 220.26C305.153 221.585 305.723 223.48 305.723 225.944V226.756H295.895ZM299.087 221.156C298.153 221.156 297.425 221.464 296.903 222.08C296.38 222.677 296.044 223.452 295.895 224.404H302.027C302.064 223.396 301.803 222.603 301.243 222.024C300.701 221.445 299.983 221.156 299.087 221.156ZM314.632 233.28C313.624 233.28 312.719 233.084 311.916 232.692C311.114 232.3 310.432 231.759 309.872 231.068C309.331 230.377 308.911 229.575 308.612 228.66C308.314 227.727 308.164 226.728 308.164 225.664C308.164 224.693 308.304 223.76 308.584 222.864C308.883 221.968 309.303 221.184 309.844 220.512C310.404 219.821 311.076 219.28 311.86 218.888C312.644 218.477 313.54 218.272 314.548 218.272C315.332 218.272 316.088 218.431 316.816 218.748C317.563 219.047 318.244 219.532 318.86 220.204V211.832H322.612V233H319.084V230.872C318.562 231.675 317.936 232.281 317.208 232.692C316.499 233.084 315.64 233.28 314.632 233.28ZM315.528 230.396C316.536 230.396 317.358 229.976 317.992 229.136C318.627 228.296 318.944 227.185 318.944 225.804C318.944 225.132 318.851 224.516 318.664 223.956C318.496 223.377 318.254 222.892 317.936 222.5C317.638 222.089 317.274 221.772 316.844 221.548C316.434 221.324 315.976 221.212 315.472 221.212C314.968 221.212 314.511 221.324 314.1 221.548C313.69 221.772 313.326 222.089 313.008 222.5C312.71 222.892 312.476 223.368 312.308 223.928C312.14 224.488 312.056 225.104 312.056 225.776C312.056 226.448 312.14 227.073 312.308 227.652C312.476 228.212 312.71 228.697 313.008 229.108C313.326 229.519 313.699 229.836 314.128 230.06C314.558 230.284 315.024 230.396 315.528 230.396Z" fill="#22242A"/>
<path d="M50.1343 261.8L53.2703 267.08H53.3023L56.4063 261.8H58.2783L54.0703 268.696V273H52.5023V268.696L48.2623 261.8H50.1343ZM62.1553 273.128C61.5366 273.128 60.9713 273.027 60.4593 272.824C59.9473 272.621 59.5046 272.333 59.1313 271.96C58.7686 271.587 58.486 271.144 58.2833 270.632C58.0806 270.12 57.9793 269.549 57.9793 268.92C57.9793 268.301 58.0806 267.736 58.2833 267.224C58.486 266.701 58.7686 266.253 59.1313 265.88C59.5046 265.507 59.9473 265.219 60.4593 265.016C60.9713 264.813 61.5366 264.712 62.1553 264.712C62.774 264.712 63.3393 264.813 63.8513 265.016C64.3633 265.219 64.8006 265.507 65.1633 265.88C65.5366 266.253 65.8246 266.701 66.0273 267.224C66.23 267.736 66.3313 268.301 66.3313 268.92C66.3313 269.549 66.23 270.12 66.0273 270.632C65.8246 271.144 65.5366 271.587 65.1633 271.96C64.8006 272.333 64.3633 272.621 63.8513 272.824C63.3393 273.027 62.774 273.128 62.1553 273.128ZM62.1553 271.912C62.5073 271.912 62.838 271.843 63.1473 271.704C63.4673 271.565 63.7393 271.368 63.9633 271.112C64.198 270.845 64.3846 270.531 64.5233 270.168C64.662 269.795 64.7313 269.379 64.7313 268.92C64.7313 268.461 64.662 268.051 64.5233 267.688C64.3846 267.315 64.198 267 63.9633 266.744C63.7286 266.477 63.4566 266.275 63.1473 266.136C62.838 265.997 62.5073 265.928 62.1553 265.928C61.8033 265.928 61.4673 265.997 61.1473 266.136C60.838 266.275 60.566 266.477 60.3313 266.744C60.1073 267 59.926 267.315 59.7873 267.688C59.6486 268.051 59.5793 268.461 59.5793 268.92C59.5793 269.379 59.6486 269.795 59.7873 270.168C59.926 270.531 60.1073 270.845 60.3313 271.112C60.566 271.368 60.838 271.565 61.1473 271.704C61.4673 271.843 61.8033 271.912 62.1553 271.912ZM75.5492 273H74.0452V271.832H74.0132C73.7039 272.269 73.3145 272.595 72.8452 272.808C72.3865 273.021 71.8692 273.128 71.2932 273.128C70.3332 273.128 69.5759 272.845 69.0212 272.28C68.4665 271.704 68.1892 270.824 68.1892 269.64V264.84H69.6932V269.16C69.6932 269.693 69.7359 270.136 69.8212 270.488C69.9172 270.84 70.0452 271.123 70.2052 271.336C70.3759 271.539 70.5785 271.688 70.8132 271.784C71.0585 271.869 71.3252 271.912 71.6132 271.912C72.3492 271.912 72.9359 271.651 73.3732 271.128C73.8212 270.595 74.0452 269.779 74.0452 268.68V264.84H75.5492V273ZM81.8983 260.84H83.4023V264.84L83.3863 266.008H83.4343C83.7436 265.571 84.1276 265.245 84.5863 265.032C85.045 264.819 85.5676 264.712 86.1543 264.712C87.1143 264.712 87.8716 265 88.4263 265.576C88.981 266.141 89.2583 267.016 89.2583 268.2V273H87.7543V268.68C87.7543 268.157 87.7063 267.72 87.6103 267.368C87.525 267.005 87.397 266.723 87.2263 266.52C87.0663 266.307 86.8636 266.157 86.6183 266.072C86.3836 265.976 86.1223 265.928 85.8343 265.928C85.0983 265.928 84.5063 266.195 84.0583 266.728C83.621 267.251 83.4023 268.061 83.4023 269.16V273H81.8983V260.84ZM93.7599 273.128C92.9066 273.128 92.2293 272.915 91.7279 272.488C91.2266 272.051 90.9759 271.448 90.9759 270.68C90.9759 269.784 91.3173 269.101 91.9999 268.632C92.6933 268.152 93.7546 267.912 95.1839 267.912H96.6879V267.64C96.6879 267.053 96.4853 266.627 96.0799 266.36C95.6746 266.093 95.1359 265.96 94.4639 265.96C94.0266 265.96 93.5839 266.013 93.1359 266.12C92.6879 266.216 92.2186 266.397 91.7279 266.664V265.256C92.1333 265.075 92.5973 264.941 93.1199 264.856C93.6426 264.76 94.1546 264.712 94.6559 264.712C95.7759 264.712 96.6453 264.968 97.2639 265.48C97.8826 265.981 98.1919 266.797 98.1919 267.928V273H96.6559V271.752H96.6239C96.2826 272.253 95.8453 272.611 95.3119 272.824C94.7893 273.027 94.2719 273.128 93.7599 273.128ZM94.1279 271.848C94.5013 271.848 94.8426 271.789 95.1519 271.672C95.4719 271.555 95.7439 271.395 95.9679 271.192C96.1919 270.979 96.3679 270.733 96.4959 270.456C96.6239 270.179 96.6879 269.885 96.6879 269.576V269.064H95.2479C94.7466 269.064 94.3253 269.101 93.9839 269.176C93.6533 269.251 93.3813 269.357 93.1679 269.496C92.9546 269.635 92.7999 269.795 92.7039 269.976C92.6186 270.157 92.5759 270.36 92.5759 270.584C92.5759 270.989 92.7146 271.304 92.9919 271.528C93.2693 271.741 93.6479 271.848 94.1279 271.848ZM99.3557 264.84H101.004L103.5 271.496H103.596L106.14 264.84H107.644L104.396 273H102.604L99.3557 264.84ZM109.844 269.256C109.929 270.099 110.217 270.749 110.708 271.208C111.198 271.656 111.86 271.88 112.692 271.88C113.182 271.88 113.662 271.821 114.132 271.704C114.612 271.576 115.006 271.421 115.316 271.24V272.712C115.06 272.797 114.708 272.888 114.26 272.984C113.812 273.08 113.257 273.128 112.596 273.128C111.209 273.128 110.142 272.744 109.396 271.976C108.66 271.208 108.292 270.141 108.292 268.776C108.292 268.157 108.388 267.597 108.58 267.096C108.782 266.595 109.054 266.168 109.396 265.816C109.748 265.464 110.158 265.192 110.628 265C111.097 264.808 111.604 264.712 112.148 264.712C113.31 264.712 114.222 265.053 114.884 265.736C115.545 266.419 115.876 267.453 115.876 268.84V269.256H109.844ZM112.132 265.928C111.502 265.928 110.985 266.131 110.58 266.536C110.185 266.931 109.94 267.464 109.844 268.136H114.276C114.276 267.432 114.073 266.888 113.668 266.504C113.262 266.12 112.75 265.928 112.132 265.928ZM121.726 264.84H123.134V266.168H123.166C123.433 265.645 123.753 265.272 124.126 265.048C124.51 264.824 124.969 264.712 125.502 264.712C125.652 264.712 125.801 264.723 125.95 264.744C126.11 264.755 126.276 264.771 126.446 264.792V266.104C126.286 266.083 126.132 266.067 125.982 266.056C125.833 266.035 125.689 266.024 125.55 266.024C124.729 266.024 124.137 266.307 123.774 266.872C123.412 267.437 123.23 268.264 123.23 269.352V273H121.726V264.84ZM129.063 269.256C129.148 270.099 129.436 270.749 129.927 271.208C130.417 271.656 131.079 271.88 131.911 271.88C132.401 271.88 132.881 271.821 133.351 271.704C133.831 271.576 134.225 271.421 134.535 271.24V272.712C134.279 272.797 133.927 272.888 133.479 272.984C133.031 273.08 132.476 273.128 131.815 273.128C130.428 273.128 129.361 272.744 128.615 271.976C127.879 271.208 127.511 270.141 127.511 268.776C127.511 268.157 127.607 267.597 127.799 267.096C128.001 266.595 128.273 266.168 128.615 265.816C128.967 265.464 129.377 265.192 129.847 265C130.316 264.808 130.823 264.712 131.367 264.712C132.529 264.712 133.441 265.053 134.103 265.736C134.764 266.419 135.095 267.453 135.095 268.84V269.256H129.063ZM131.351 265.928C130.721 265.928 130.204 266.131 129.799 266.536C129.404 266.931 129.159 267.464 129.063 268.136H133.495C133.495 267.432 133.292 266.888 132.887 266.504C132.481 266.12 131.969 265.928 131.351 265.928ZM139.354 273.128C138.5 273.128 137.823 272.915 137.322 272.488C136.82 272.051 136.57 271.448 136.57 270.68C136.57 269.784 136.911 269.101 137.594 268.632C138.287 268.152 139.348 267.912 140.778 267.912H142.282V267.64C142.282 267.053 142.079 266.627 141.674 266.36C141.268 266.093 140.73 265.96 140.058 265.96C139.62 265.96 139.178 266.013 138.73 266.12C138.282 266.216 137.812 266.397 137.322 266.664V265.256C137.727 265.075 138.191 264.941 138.714 264.856C139.236 264.76 139.748 264.712 140.25 264.712C141.37 264.712 142.239 264.968 142.858 265.48C143.476 265.981 143.786 266.797 143.786 267.928V273H142.25V271.752H142.218C141.876 272.253 141.439 272.611 140.906 272.824C140.383 273.027 139.866 273.128 139.354 273.128ZM139.722 271.848C140.095 271.848 140.436 271.789 140.746 271.672C141.066 271.555 141.338 271.395 141.562 271.192C141.786 270.979 141.962 270.733 142.09 270.456C142.218 270.179 142.282 269.885 142.282 269.576V269.064H140.842C140.34 269.064 139.919 269.101 139.578 269.176C139.247 269.251 138.975 269.357 138.762 269.496C138.548 269.635 138.394 269.795 138.298 269.976C138.212 270.157 138.17 270.36 138.17 270.584C138.17 270.989 138.308 271.304 138.586 271.528C138.863 271.741 139.242 271.848 139.722 271.848ZM149.716 273.128C149.086 273.128 148.516 273.027 148.004 272.824C147.502 272.621 147.076 272.339 146.724 271.976C146.372 271.603 146.1 271.16 145.908 270.648C145.726 270.125 145.636 269.549 145.636 268.92C145.636 268.291 145.732 267.72 145.924 267.208C146.116 266.685 146.388 266.243 146.74 265.88C147.102 265.507 147.534 265.219 148.036 265.016C148.537 264.813 149.102 264.712 149.732 264.712C150.052 264.712 150.334 264.728 150.58 264.76C150.836 264.792 151.054 264.829 151.236 264.872C151.438 264.915 151.614 264.968 151.764 265.032V266.328C151.604 266.253 151.428 266.189 151.236 266.136C151.065 266.083 150.868 266.035 150.644 265.992C150.42 265.949 150.169 265.928 149.892 265.928C149.038 265.928 148.382 266.189 147.924 266.712C147.465 267.224 147.236 267.96 147.236 268.92C147.236 269.88 147.465 270.621 147.924 271.144C148.382 271.656 149.033 271.912 149.876 271.912C150.153 271.912 150.404 271.891 150.628 271.848C150.862 271.805 151.065 271.757 151.236 271.704C151.428 271.651 151.604 271.581 151.764 271.496V272.808C151.604 272.872 151.422 272.925 151.22 272.968C151.038 273.011 150.82 273.048 150.564 273.08C150.308 273.112 150.025 273.128 149.716 273.128ZM153.945 260.84H155.449V264.84L155.433 266.008H155.481C155.791 265.571 156.175 265.245 156.633 265.032C157.092 264.819 157.615 264.712 158.201 264.712C159.161 264.712 159.919 265 160.473 265.576C161.028 266.141 161.305 267.016 161.305 268.2V273H159.801V268.68C159.801 268.157 159.753 267.72 159.657 267.368C159.572 267.005 159.444 266.723 159.273 266.52C159.113 266.307 158.911 266.157 158.665 266.072C158.431 265.976 158.169 265.928 157.881 265.928C157.145 265.928 156.553 266.195 156.105 266.728C155.668 267.251 155.449 268.061 155.449 269.16V273H153.945V260.84ZM164.719 269.256C164.804 270.099 165.092 270.749 165.583 271.208C166.073 271.656 166.735 271.88 167.567 271.88C168.057 271.88 168.537 271.821 169.007 271.704C169.487 271.576 169.881 271.421 170.191 271.24V272.712C169.935 272.797 169.583 272.888 169.135 272.984C168.687 273.08 168.132 273.128 167.471 273.128C166.084 273.128 165.017 272.744 164.271 271.976C163.535 271.208 163.167 270.141 163.167 268.776C163.167 268.157 163.263 267.597 163.455 267.096C163.657 266.595 163.929 266.168 164.271 265.816C164.623 265.464 165.033 265.192 165.503 265C165.972 264.808 166.479 264.712 167.023 264.712C168.185 264.712 169.097 265.053 169.759 265.736C170.42 266.419 170.751 267.453 170.751 268.84V269.256H164.719ZM167.007 265.928C166.377 265.928 165.86 266.131 165.455 266.536C165.06 266.931 164.815 267.464 164.719 268.136H169.151C169.151 267.432 168.948 266.888 168.543 266.504C168.137 266.12 167.625 265.928 167.007 265.928ZM176.162 273.128C175.586 273.128 175.063 273.021 174.594 272.808C174.125 272.595 173.725 272.296 173.394 271.912C173.063 271.528 172.807 271.075 172.626 270.552C172.455 270.019 172.37 269.443 172.37 268.824C172.37 268.237 172.461 267.693 172.642 267.192C172.823 266.691 173.079 266.259 173.41 265.896C173.741 265.523 174.135 265.235 174.594 265.032C175.063 264.819 175.575 264.712 176.13 264.712C176.749 264.712 177.271 264.829 177.698 265.064C178.135 265.299 178.503 265.587 178.802 265.928H178.834V260.84H180.338V273H178.898V271.848H178.802C178.493 272.243 178.125 272.557 177.698 272.792C177.282 273.016 176.77 273.128 176.162 273.128ZM176.418 271.912C176.77 271.912 177.095 271.837 177.394 271.688C177.693 271.539 177.949 271.336 178.162 271.08C178.375 270.813 178.541 270.499 178.658 270.136C178.775 269.773 178.834 269.373 178.834 268.936C178.834 268.499 178.77 268.099 178.642 267.736C178.525 267.363 178.359 267.043 178.146 266.776C177.933 266.509 177.677 266.301 177.378 266.152C177.079 266.003 176.749 265.928 176.386 265.928C176.045 265.928 175.725 266.003 175.426 266.152C175.127 266.301 174.871 266.509 174.658 266.776C174.445 267.032 174.274 267.341 174.146 267.704C174.029 268.067 173.97 268.461 173.97 268.888C173.97 269.325 174.029 269.731 174.146 270.104C174.274 270.467 174.445 270.787 174.658 271.064C174.882 271.331 175.143 271.539 175.442 271.688C175.741 271.837 176.066 271.912 176.418 271.912ZM190.776 266.056H188.76V270.456C188.76 270.947 188.882 271.288 189.128 271.48C189.384 271.661 189.682 271.752 190.024 271.752C190.28 271.752 190.552 271.709 190.84 271.624V272.984C190.637 273.037 190.445 273.075 190.264 273.096C190.082 273.117 189.917 273.128 189.768 273.128C188.957 273.128 188.338 272.909 187.912 272.472C187.485 272.024 187.272 271.4 187.272 270.6V266.056H185.784V264.84H187.272V262.808L188.76 262.264V264.84H190.776V266.056ZM192.758 260.84H194.262V264.84L194.246 266.008H194.294C194.603 265.571 194.987 265.245 195.446 265.032C195.904 264.819 196.427 264.712 197.014 264.712C197.974 264.712 198.731 265 199.286 265.576C199.84 266.141 200.118 267.016 200.118 268.2V273H198.614V268.68C198.614 268.157 198.566 267.72 198.47 267.368C198.384 267.005 198.256 266.723 198.086 266.52C197.926 266.307 197.723 266.157 197.478 266.072C197.243 265.976 196.982 265.928 196.694 265.928C195.958 265.928 195.366 266.195 194.918 266.728C194.48 267.251 194.262 268.061 194.262 269.16V273H192.758V260.84ZM203.531 269.256C203.617 270.099 203.905 270.749 204.395 271.208C204.886 271.656 205.547 271.88 206.379 271.88C206.87 271.88 207.35 271.821 207.819 271.704C208.299 271.576 208.694 271.421 209.003 271.24V272.712C208.747 272.797 208.395 272.888 207.947 272.984C207.499 273.08 206.945 273.128 206.283 273.128C204.897 273.128 203.83 272.744 203.083 271.976C202.347 271.208 201.979 270.141 201.979 268.776C201.979 268.157 202.075 267.597 202.267 267.096C202.47 266.595 202.742 266.168 203.083 265.816C203.435 265.464 203.846 265.192 204.315 265C204.785 264.808 205.291 264.712 205.835 264.712C206.998 264.712 207.91 265.053 208.571 265.736C209.233 266.419 209.563 267.453 209.563 268.84V269.256H203.531ZM205.819 265.928C205.19 265.928 204.673 266.131 204.267 266.536C203.873 266.931 203.627 267.464 203.531 268.136H207.963C207.963 267.432 207.761 266.888 207.355 266.504C206.95 266.12 206.438 265.928 205.819 265.928ZM215.414 264.84H216.822V266.024H216.854C217.131 265.576 217.505 265.245 217.974 265.032C218.454 264.819 218.934 264.712 219.414 264.712C219.99 264.712 220.475 264.851 220.87 265.128C221.275 265.405 221.579 265.795 221.782 266.296C222.059 265.773 222.427 265.379 222.886 265.112C223.345 264.845 223.878 264.712 224.486 264.712C224.934 264.712 225.323 264.792 225.654 264.952C225.995 265.101 226.278 265.315 226.502 265.592C226.726 265.859 226.891 266.179 226.998 266.552C227.115 266.925 227.174 267.331 227.174 267.768V273H225.67V268.136C225.67 267.496 225.558 266.968 225.334 266.552C225.11 266.136 224.715 265.928 224.15 265.928C223.787 265.928 223.473 266.013 223.206 266.184C222.939 266.355 222.721 266.579 222.55 266.856C222.379 267.133 222.251 267.448 222.166 267.8C222.081 268.152 222.038 268.515 222.038 268.888V273H220.55V268.136C220.55 267.475 220.433 266.941 220.198 266.536C219.963 266.131 219.574 265.928 219.03 265.928C218.689 265.928 218.385 266.008 218.118 266.168C217.862 266.317 217.643 266.525 217.462 266.792C217.281 267.059 217.142 267.373 217.046 267.736C216.961 268.099 216.918 268.483 216.918 268.888V273H215.414V264.84ZM231.666 273.128C230.813 273.128 230.136 272.915 229.634 272.488C229.133 272.051 228.882 271.448 228.882 270.68C228.882 269.784 229.224 269.101 229.906 268.632C230.6 268.152 231.661 267.912 233.09 267.912H234.594V267.64C234.594 267.053 234.392 266.627 233.986 266.36C233.581 266.093 233.042 265.96 232.37 265.96C231.933 265.96 231.49 266.013 231.042 266.12C230.594 266.216 230.125 266.397 229.634 266.664V265.256C230.04 265.075 230.504 264.941 231.026 264.856C231.549 264.76 232.061 264.712 232.562 264.712C233.682 264.712 234.552 264.968 235.17 265.48C235.789 265.981 236.098 266.797 236.098 267.928V273H234.562V271.752H234.53C234.189 272.253 233.752 272.611 233.218 272.824C232.696 273.027 232.178 273.128 231.666 273.128ZM232.034 271.848C232.408 271.848 232.749 271.789 233.058 271.672C233.378 271.555 233.65 271.395 233.874 271.192C234.098 270.979 234.274 270.733 234.402 270.456C234.53 270.179 234.594 269.885 234.594 269.576V269.064H233.154C232.653 269.064 232.232 269.101 231.89 269.176C231.56 269.251 231.288 269.357 231.074 269.496C230.861 269.635 230.706 269.795 230.61 269.976C230.525 270.157 230.482 270.36 230.482 270.584C230.482 270.989 230.621 271.304 230.898 271.528C231.176 271.741 231.554 271.848 232.034 271.848ZM240.572 268.728L237.692 264.84H239.564L241.58 267.864L243.628 264.84H245.308L242.46 268.728L245.484 273H243.628L241.452 269.736L239.276 273H237.484L240.572 268.728ZM247.373 264.84H248.877V273H247.373V264.84ZM247.293 261.48H248.989V263.176H247.293V261.48ZM251.773 264.84H253.181V266.024H253.213C253.491 265.576 253.864 265.245 254.333 265.032C254.813 264.819 255.293 264.712 255.773 264.712C256.349 264.712 256.835 264.851 257.229 265.128C257.635 265.405 257.939 265.795 258.141 266.296C258.419 265.773 258.787 265.379 259.245 265.112C259.704 264.845 260.237 264.712 260.845 264.712C261.293 264.712 261.683 264.792 262.013 264.952C262.355 265.101 262.637 265.315 262.861 265.592C263.085 265.859 263.251 266.179 263.357 266.552C263.475 266.925 263.533 267.331 263.533 267.768V273H262.029V268.136C262.029 267.496 261.917 266.968 261.693 266.552C261.469 266.136 261.075 265.928 260.509 265.928C260.147 265.928 259.832 266.013 259.565 266.184C259.299 266.355 259.08 266.579 258.909 266.856C258.739 267.133 258.611 267.448 258.525 267.8C258.44 268.152 258.397 268.515 258.397 268.888V273H256.909V268.136C256.909 267.475 256.792 266.941 256.557 266.536C256.323 266.131 255.933 265.928 255.389 265.928C255.048 265.928 254.744 266.008 254.477 266.168C254.221 266.317 254.003 266.525 253.821 266.792C253.64 267.059 253.501 267.373 253.405 267.736C253.32 268.099 253.277 268.483 253.277 268.888V273H251.773V264.84ZM273.034 273H271.53V271.832H271.498C271.188 272.269 270.799 272.595 270.33 272.808C269.871 273.021 269.354 273.128 268.778 273.128C267.818 273.128 267.06 272.845 266.506 272.28C265.951 271.704 265.674 270.824 265.674 269.64V264.84H267.178V269.16C267.178 269.693 267.22 270.136 267.306 270.488C267.402 270.84 267.53 271.123 267.69 271.336C267.86 271.539 268.063 271.688 268.298 271.784C268.543 271.869 268.81 271.912 269.098 271.912C269.834 271.912 270.42 271.651 270.858 271.128C271.306 270.595 271.53 269.779 271.53 268.68V264.84H273.034V273ZM275.695 264.84H277.103V266.024H277.135C277.413 265.576 277.786 265.245 278.255 265.032C278.735 264.819 279.215 264.712 279.695 264.712C280.271 264.712 280.757 264.851 281.151 265.128C281.557 265.405 281.861 265.795 282.063 266.296C282.341 265.773 282.709 265.379 283.167 265.112C283.626 264.845 284.159 264.712 284.767 264.712C285.215 264.712 285.605 264.792 285.935 264.952C286.277 265.101 286.559 265.315 286.783 265.592C287.007 265.859 287.173 266.179 287.279 266.552C287.397 266.925 287.455 267.331 287.455 267.768V273H285.951V268.136C285.951 267.496 285.839 266.968 285.615 266.552C285.391 266.136 284.997 265.928 284.431 265.928C284.069 265.928 283.754 266.013 283.487 266.184C283.221 266.355 283.002 266.579 282.831 266.856C282.661 267.133 282.533 267.448 282.447 267.8C282.362 268.152 282.319 268.515 282.319 268.888V273H280.831V268.136C280.831 267.475 280.714 266.941 280.479 266.536C280.245 266.131 279.855 265.928 279.311 265.928C278.97 265.928 278.666 266.008 278.399 266.168C278.143 266.317 277.925 266.525 277.743 266.792C277.562 267.059 277.423 267.373 277.327 267.736C277.242 268.099 277.199 268.483 277.199 268.888V273H275.695V264.84ZM293.539 264.84H295.043V266.008H295.075C295.384 265.571 295.768 265.245 296.227 265.032C296.696 264.819 297.219 264.712 297.795 264.712C298.755 264.712 299.512 265 300.067 265.576C300.622 266.141 300.899 267.016 300.899 268.2V273H299.395V268.68C299.395 268.157 299.347 267.72 299.251 267.368C299.166 267.005 299.038 266.723 298.867 266.52C298.707 266.307 298.504 266.157 298.259 266.072C298.024 265.976 297.763 265.928 297.475 265.928C296.739 265.928 296.147 266.195 295.699 266.728C295.262 267.251 295.043 268.061 295.043 269.16V273H293.539V264.84ZM310.409 273H308.905V271.832H308.873C308.563 272.269 308.174 272.595 307.705 272.808C307.246 273.021 306.729 273.128 306.153 273.128C305.193 273.128 304.435 272.845 303.881 272.28C303.326 271.704 303.049 270.824 303.049 269.64V264.84H304.553V269.16C304.553 269.693 304.595 270.136 304.681 270.488C304.777 270.84 304.905 271.123 305.065 271.336C305.235 271.539 305.438 271.688 305.673 271.784C305.918 271.869 306.185 271.912 306.473 271.912C307.209 271.912 307.795 271.651 308.233 271.128C308.681 270.595 308.905 269.779 308.905 268.68V264.84H310.409V273ZM313.07 264.84H314.478V266.024H314.51C314.788 265.576 315.161 265.245 315.63 265.032C316.11 264.819 316.59 264.712 317.07 264.712C317.646 264.712 318.132 264.851 318.526 265.128C318.932 265.405 319.236 265.795 319.438 266.296C319.716 265.773 320.084 265.379 320.542 265.112C321.001 264.845 321.534 264.712 322.142 264.712C322.59 264.712 322.98 264.792 323.31 264.952C323.652 265.101 323.934 265.315 324.158 265.592C324.382 265.859 324.548 266.179 324.654 266.552C324.772 266.925 324.83 267.331 324.83 267.768V273H323.326V268.136C323.326 267.496 323.214 266.968 322.99 266.552C322.766 266.136 322.372 265.928 321.806 265.928C321.444 265.928 321.129 266.013 320.862 266.184C320.596 266.355 320.377 266.579 320.206 266.856C320.036 267.133 319.908 267.448 319.822 267.8C319.737 268.152 319.694 268.515 319.694 268.888V273H318.206V268.136C318.206 267.475 318.089 266.941 317.854 266.536C317.62 266.131 317.23 265.928 316.686 265.928C316.345 265.928 316.041 266.008 315.774 266.168C315.518 266.317 315.3 266.525 315.118 266.792C314.937 267.059 314.798 267.373 314.702 267.736C314.617 268.099 314.574 268.483 314.574 268.888V273H313.07V264.84ZM331.402 273.128C330.784 273.128 330.256 273.021 329.818 272.808C329.392 272.595 329.013 272.28 328.682 271.864H328.65L328.538 273H327.226V260.84H328.73V265.928H328.762C329.061 265.597 329.424 265.315 329.85 265.08C330.288 264.835 330.816 264.712 331.434 264.712C331.989 264.712 332.496 264.819 332.954 265.032C333.424 265.235 333.824 265.523 334.154 265.896C334.485 266.259 334.741 266.691 334.922 267.192C335.104 267.693 335.194 268.237 335.194 268.824C335.194 269.443 335.104 270.019 334.922 270.552C334.752 271.075 334.501 271.528 334.17 271.912C333.84 272.296 333.44 272.595 332.97 272.808C332.501 273.021 331.978 273.128 331.402 273.128ZM331.146 271.912C331.498 271.912 331.824 271.837 332.122 271.688C332.421 271.539 332.677 271.331 332.89 271.064C333.114 270.787 333.285 270.467 333.402 270.104C333.53 269.731 333.594 269.325 333.594 268.888C333.594 268.461 333.53 268.067 333.402 267.704C333.285 267.341 333.114 267.032 332.89 266.776C332.677 266.509 332.421 266.301 332.122 266.152C331.834 266.003 331.52 265.928 331.178 265.928C330.816 265.928 330.485 266.003 330.186 266.152C329.888 266.301 329.626 266.509 329.402 266.776C329.189 267.043 329.024 267.363 328.906 267.736C328.789 268.099 328.73 268.499 328.73 268.936C328.73 269.373 328.789 269.773 328.906 270.136C329.024 270.499 329.189 270.813 329.402 271.08C329.616 271.336 329.872 271.539 330.17 271.688C330.469 271.837 330.794 271.912 331.146 271.912ZM338.313 269.256C338.398 270.099 338.686 270.749 339.177 271.208C339.667 271.656 340.329 271.88 341.161 271.88C341.651 271.88 342.131 271.821 342.601 271.704C343.081 271.576 343.475 271.421 343.785 271.24V272.712C343.529 272.797 343.177 272.888 342.729 272.984C342.281 273.08 341.726 273.128 341.065 273.128C339.678 273.128 338.611 272.744 337.865 271.976C337.129 271.208 336.761 270.141 336.761 268.776C336.761 268.157 336.857 267.597 337.049 267.096C337.251 266.595 337.523 266.168 337.865 265.816C338.217 265.464 338.627 265.192 339.097 265C339.566 264.808 340.073 264.712 340.617 264.712C341.779 264.712 342.691 265.053 343.353 265.736C344.014 266.419 344.345 267.453 344.345 268.84V269.256H338.313ZM340.601 265.928C339.971 265.928 339.454 266.131 339.049 266.536C338.654 266.931 338.409 267.464 338.313 268.136H342.745C342.745 267.432 342.542 266.888 342.137 266.504C341.731 266.12 341.219 265.928 340.601 265.928ZM346.508 264.84H347.916V266.168H347.948C348.214 265.645 348.534 265.272 348.908 265.048C349.292 264.824 349.75 264.712 350.284 264.712C350.433 264.712 350.582 264.723 350.732 264.744C350.892 264.755 351.057 264.771 351.228 264.792V266.104C351.068 266.083 350.913 266.067 350.764 266.056C350.614 266.035 350.47 266.024 350.332 266.024C349.51 266.024 348.918 266.307 348.556 266.872C348.193 267.437 348.012 268.264 348.012 269.352V273H346.508V264.84ZM360.312 273.128C359.693 273.128 359.128 273.027 358.616 272.824C358.104 272.621 357.661 272.333 357.288 271.96C356.925 271.587 356.642 271.144 356.44 270.632C356.237 270.12 356.136 269.549 356.136 268.92C356.136 268.301 356.237 267.736 356.44 267.224C356.642 266.701 356.925 266.253 357.288 265.88C357.661 265.507 358.104 265.219 358.616 265.016C359.128 264.813 359.693 264.712 360.312 264.712C360.93 264.712 361.496 264.813 362.008 265.016C362.52 265.219 362.957 265.507 363.32 265.88C363.693 266.253 363.981 266.701 364.184 267.224C364.386 267.736 364.488 268.301 364.488 268.92C364.488 269.549 364.386 270.12 364.184 270.632C363.981 271.144 363.693 271.587 363.32 271.96C362.957 272.333 362.52 272.621 362.008 272.824C361.496 273.027 360.93 273.128 360.312 273.128ZM360.312 271.912C360.664 271.912 360.994 271.843 361.304 271.704C361.624 271.565 361.896 271.368 362.12 271.112C362.354 270.845 362.541 270.531 362.68 270.168C362.818 269.795 362.888 269.379 362.888 268.92C362.888 268.461 362.818 268.051 362.68 267.688C362.541 267.315 362.354 267 362.12 266.744C361.885 266.477 361.613 266.275 361.304 266.136C360.994 265.997 360.664 265.928 360.312 265.928C359.96 265.928 359.624 265.997 359.304 266.136C358.994 266.275 358.722 266.477 358.488 266.744C358.264 267 358.082 267.315 357.944 267.688C357.805 268.051 357.736 268.461 357.736 268.92C357.736 269.379 357.805 269.795 357.944 270.168C358.082 270.531 358.264 270.845 358.488 271.112C358.722 271.368 358.994 271.565 359.304 271.704C359.624 271.843 359.96 271.912 360.312 271.912ZM365.673 264.84H367.241V263.864C367.241 262.723 367.455 261.912 367.881 261.432C368.319 260.952 368.985 260.712 369.881 260.712C370.148 260.712 370.399 260.728 370.633 260.76C370.868 260.792 371.039 260.819 371.145 260.84V262.056C370.975 262.035 370.82 262.019 370.681 262.008C370.543 261.997 370.409 261.992 370.281 261.992C369.983 261.992 369.732 262.029 369.529 262.104C369.337 262.168 369.183 262.275 369.065 262.424C368.948 262.573 368.863 262.771 368.809 263.016C368.767 263.251 368.745 263.533 368.745 263.864V264.84H371.033V266.056H368.745V273H367.241V266.056H365.673V264.84ZM376.451 260.808H377.955V273H376.451V260.808ZM384.483 273.128C383.865 273.128 383.299 273.027 382.787 272.824C382.275 272.621 381.833 272.333 381.459 271.96C381.097 271.587 380.814 271.144 380.611 270.632C380.409 270.12 380.307 269.549 380.307 268.92C380.307 268.301 380.409 267.736 380.611 267.224C380.814 266.701 381.097 266.253 381.459 265.88C381.833 265.507 382.275 265.219 382.787 265.016C383.299 264.813 383.865 264.712 384.483 264.712C385.102 264.712 385.667 264.813 386.179 265.016C386.691 265.219 387.129 265.507 387.491 265.88C387.865 266.253 388.153 266.701 388.355 267.224C388.558 267.736 388.659 268.301 388.659 268.92C388.659 269.549 388.558 270.12 388.355 270.632C388.153 271.144 387.865 271.587 387.491 271.96C387.129 272.333 386.691 272.621 386.179 272.824C385.667 273.027 385.102 273.128 384.483 273.128ZM384.483 271.912C384.835 271.912 385.166 271.843 385.475 271.704C385.795 271.565 386.067 271.368 386.291 271.112C386.526 270.845 386.713 270.531 386.851 270.168C386.99 269.795 387.059 269.379 387.059 268.92C387.059 268.461 386.99 268.051 386.851 267.688C386.713 267.315 386.526 267 386.291 266.744C386.057 266.477 385.785 266.275 385.475 266.136C385.166 265.997 384.835 265.928 384.483 265.928C384.131 265.928 383.795 265.997 383.475 266.136C383.166 266.275 382.894 266.477 382.659 266.744C382.435 267 382.254 267.315 382.115 267.688C381.977 268.051 381.907 268.461 381.907 268.92C381.907 269.379 381.977 269.795 382.115 270.168C382.254 270.531 382.435 270.845 382.659 271.112C382.894 271.368 383.166 271.565 383.475 271.704C383.795 271.843 384.131 271.912 384.483 271.912ZM393.861 276.648C393.435 276.648 393.04 276.621 392.677 276.568C392.315 276.515 391.995 276.451 391.717 276.376C391.397 276.301 391.104 276.211 390.837 276.104V274.664C391.104 274.803 391.397 274.931 391.717 275.048C391.995 275.144 392.315 275.229 392.677 275.304C393.04 275.389 393.435 275.432 393.861 275.432C395.749 275.432 396.693 274.483 396.693 272.584V271.736H396.645C396.379 272.131 396.005 272.44 395.525 272.664C395.056 272.888 394.539 273 393.973 273C393.44 273 392.944 272.904 392.485 272.712C392.037 272.52 391.643 272.248 391.301 271.896C390.971 271.533 390.709 271.101 390.517 270.6C390.325 270.088 390.229 269.512 390.229 268.872C390.229 268.211 390.331 267.624 390.533 267.112C390.736 266.589 391.008 266.152 391.349 265.8C391.701 265.448 392.112 265.181 392.581 265C393.051 264.808 393.552 264.712 394.085 264.712C394.704 264.712 395.227 264.84 395.653 265.096C396.08 265.352 396.443 265.656 396.741 266.008H396.789V264.84H398.197V272.584C398.197 273.949 397.845 274.968 397.141 275.64C396.448 276.312 395.355 276.648 393.861 276.648ZM394.293 271.784C394.624 271.784 394.933 271.72 395.221 271.592C395.52 271.464 395.776 271.277 395.989 271.032C396.203 270.776 396.368 270.472 396.485 270.12C396.613 269.757 396.677 269.341 396.677 268.872C396.677 268.392 396.613 267.971 396.485 267.608C396.357 267.235 396.181 266.925 395.957 266.68C395.733 266.424 395.472 266.237 395.173 266.12C394.875 265.992 394.549 265.928 394.197 265.928C393.867 265.928 393.557 265.987 393.269 266.104C392.981 266.221 392.731 266.403 392.517 266.648C392.304 266.883 392.133 267.181 392.005 267.544C391.888 267.896 391.829 268.307 391.829 268.776C391.829 269.245 391.893 269.667 392.021 270.04C392.16 270.403 392.341 270.717 392.565 270.984C392.789 271.24 393.051 271.437 393.349 271.576C393.648 271.715 393.963 271.784 394.293 271.784ZM401.091 264.84H402.595V273H401.091V264.84ZM401.011 261.48H402.707V263.176H401.011V261.48ZM405.492 264.84H406.996V266.008H407.028C407.337 265.571 407.721 265.245 408.18 265.032C408.649 264.819 409.172 264.712 409.748 264.712C410.708 264.712 411.465 265 412.02 265.576C412.575 266.141 412.852 267.016 412.852 268.2V273H411.348V268.68C411.348 268.157 411.3 267.72 411.204 267.368C411.119 267.005 410.991 266.723 410.82 266.52C410.66 266.307 410.457 266.157 410.212 266.072C409.977 265.976 409.716 265.928 409.428 265.928C408.692 265.928 408.1 266.195 407.652 266.728C407.215 267.251 406.996 268.061 406.996 269.16V273H405.492V264.84ZM43.6349 297.128C42.7816 297.128 42.1043 296.915 41.6029 296.488C41.1016 296.051 40.8509 295.448 40.8509 294.68C40.8509 293.784 41.1923 293.101 41.8749 292.632C42.5683 292.152 43.6296 291.912 45.0589 291.912H46.5629V291.64C46.5629 291.053 46.3603 290.627 45.9549 290.36C45.5496 290.093 45.0109 289.96 44.3389 289.96C43.9016 289.96 43.4589 290.013 43.0109 290.12C42.5629 290.216 42.0936 290.397 41.6029 290.664V289.256C42.0083 289.075 42.4723 288.941 42.9949 288.856C43.5176 288.76 44.0296 288.712 44.5309 288.712C45.6509 288.712 46.5203 288.968 47.1389 289.48C47.7576 289.981 48.0669 290.797 48.0669 291.928V297H46.5309V295.752H46.4989C46.1576 296.253 45.7203 296.611 45.1869 296.824C44.6643 297.027 44.1469 297.128 43.6349 297.128ZM44.0029 295.848C44.3763 295.848 44.7176 295.789 45.0269 295.672C45.3469 295.555 45.6189 295.395 45.8429 295.192C46.0669 294.979 46.2429 294.733 46.3709 294.456C46.4989 294.179 46.5629 293.885 46.5629 293.576V293.064H45.1229C44.6216 293.064 44.2003 293.101 43.8589 293.176C43.5283 293.251 43.2563 293.357 43.0429 293.496C42.8296 293.635 42.6749 293.795 42.5789 293.976C42.4936 294.157 42.4509 294.36 42.4509 294.584C42.4509 294.989 42.5896 295.304 42.8669 295.528C43.1443 295.741 43.5229 295.848 44.0029 295.848ZM54.5568 290.056H52.5408V294.456C52.5408 294.947 52.6635 295.288 52.9088 295.48C53.1648 295.661 53.4635 295.752 53.8048 295.752C54.0608 295.752 54.3328 295.709 54.6208 295.624V296.984C54.4181 297.037 54.2261 297.075 54.0448 297.096C53.8635 297.117 53.6981 297.128 53.5488 297.128C52.7381 297.128 52.1195 296.909 51.6928 296.472C51.2661 296.024 51.0528 295.4 51.0528 294.6V290.056H49.5648V288.84H51.0528V286.808L52.5408 286.264V288.84H54.5568V290.056ZM60.6349 290.056H58.6189V294.456C58.6189 294.947 58.7416 295.288 58.9869 295.48C59.2429 295.661 59.5416 295.752 59.8829 295.752C60.1389 295.752 60.4109 295.709 60.6989 295.624V296.984C60.4963 297.037 60.3043 297.075 60.1229 297.096C59.9416 297.117 59.7763 297.128 59.6269 297.128C58.8163 297.128 58.1976 296.909 57.7709 296.472C57.3443 296.024 57.1309 295.4 57.1309 294.6V290.056H55.6429V288.84H57.1309V286.808L58.6189 286.264V288.84H60.6349V290.056ZM63.5469 293.256C63.6323 294.099 63.9203 294.749 64.4109 295.208C64.9016 295.656 65.5629 295.88 66.3949 295.88C66.8856 295.88 67.3656 295.821 67.8349 295.704C68.3149 295.576 68.7096 295.421 69.0189 295.24V296.712C68.7629 296.797 68.4109 296.888 67.9629 296.984C67.5149 297.08 66.9603 297.128 66.2989 297.128C64.9123 297.128 63.8456 296.744 63.0989 295.976C62.3629 295.208 61.9949 294.141 61.9949 292.776C61.9949 292.157 62.0909 291.597 62.2829 291.096C62.4856 290.595 62.7576 290.168 63.0989 289.816C63.4509 289.464 63.8616 289.192 64.3309 289C64.8003 288.808 65.3069 288.712 65.8509 288.712C67.0136 288.712 67.9256 289.053 68.5869 289.736C69.2483 290.419 69.5789 291.453 69.5789 292.84V293.256H63.5469ZM65.8349 289.928C65.2056 289.928 64.6883 290.131 64.2829 290.536C63.8883 290.931 63.6429 291.464 63.5469 292.136H67.9789C67.9789 291.432 67.7763 290.888 67.3709 290.504C66.9656 290.12 66.4536 289.928 65.8349 289.928ZM71.7421 288.84H73.1501V290.024H73.1821C73.4594 289.576 73.8327 289.245 74.3021 289.032C74.7821 288.819 75.2621 288.712 75.7421 288.712C76.3181 288.712 76.8034 288.851 77.1981 289.128C77.6034 289.405 77.9074 289.795 78.1101 290.296C78.3874 289.773 78.7554 289.379 79.2141 289.112C79.6727 288.845 80.2061 288.712 80.8141 288.712C81.2621 288.712 81.6514 288.792 81.9821 288.952C82.3234 289.101 82.6061 289.315 82.8301 289.592C83.0541 289.859 83.2194 290.179 83.3261 290.552C83.4434 290.925 83.5021 291.331 83.5021 291.768V297H81.9981V292.136C81.9981 291.496 81.8861 290.968 81.6621 290.552C81.4381 290.136 81.0434 289.928 80.4781 289.928C80.1154 289.928 79.8007 290.013 79.5341 290.184C79.2674 290.355 79.0487 290.579 78.8781 290.856C78.7074 291.133 78.5794 291.448 78.4941 291.8C78.4087 292.152 78.3661 292.515 78.3661 292.888V297H76.8781V292.136C76.8781 291.475 76.7607 290.941 76.5261 290.536C76.2914 290.131 75.9021 289.928 75.3581 289.928C75.0167 289.928 74.7127 290.008 74.4461 290.168C74.1901 290.317 73.9714 290.525 73.7901 290.792C73.6087 291.059 73.4701 291.373 73.3741 291.736C73.2887 292.099 73.2461 292.483 73.2461 292.888V297H71.7421V288.84ZM87.3863 295.928V300.584H85.8823V288.84H87.3223V290.008H87.3543C87.5676 289.72 87.797 289.491 88.0423 289.32C88.2983 289.149 88.549 289.021 88.7943 288.936C89.0396 288.84 89.2743 288.781 89.4983 288.76C89.7223 288.728 89.9143 288.712 90.0743 288.712C90.6716 288.712 91.205 288.819 91.6743 289.032C92.1436 289.235 92.5383 289.523 92.8583 289.896C93.1783 290.269 93.4236 290.712 93.5943 291.224C93.765 291.725 93.8503 292.269 93.8503 292.856C93.8503 293.432 93.765 293.981 93.5943 294.504C93.4343 295.016 93.1943 295.469 92.8743 295.864C92.5543 296.248 92.165 296.557 91.7063 296.792C91.2476 297.016 90.7303 297.128 90.1543 297.128C89.493 297.128 88.933 297.005 88.4743 296.76C88.0263 296.504 87.685 296.227 87.4503 295.928H87.3863ZM89.8023 295.912C90.549 295.912 91.141 295.635 91.5783 295.08C92.0263 294.515 92.2503 293.757 92.2503 292.808C92.2503 291.933 92.0316 291.235 91.5943 290.712C91.1676 290.189 90.5863 289.928 89.8503 289.928C89.093 289.928 88.4903 290.2 88.0423 290.744C87.605 291.288 87.3863 292.019 87.3863 292.936C87.3863 293.843 87.605 294.568 88.0423 295.112C88.4796 295.645 89.0663 295.912 89.8023 295.912ZM100.072 290.056H98.0564V294.456C98.0564 294.947 98.1791 295.288 98.4244 295.48C98.6804 295.661 98.9791 295.752 99.3204 295.752C99.5764 295.752 99.8484 295.709 100.136 295.624V296.984C99.9338 297.037 99.7418 297.075 99.5604 297.096C99.3791 297.117 99.2138 297.128 99.0644 297.128C98.2538 297.128 97.6351 296.909 97.2084 296.472C96.7818 296.024 96.5684 295.4 96.5684 294.6V290.056H95.0804V288.84H96.5684V286.808L98.0564 286.264V288.84H100.072V290.056ZM104.119 297.128C103.575 297.128 103.105 297.085 102.711 297C102.327 296.904 101.985 296.797 101.687 296.68V295.352C102.231 295.597 102.7 295.752 103.095 295.816C103.5 295.869 103.793 295.896 103.975 295.896C104.593 295.896 105.041 295.789 105.319 295.576C105.596 295.352 105.735 295.101 105.735 294.824C105.735 294.653 105.687 294.509 105.591 294.392C105.505 294.264 105.388 294.147 105.239 294.04C105.089 293.933 104.913 293.837 104.711 293.752C104.508 293.656 104.295 293.56 104.071 293.464C103.761 293.325 103.457 293.187 103.159 293.048C102.871 292.899 102.615 292.733 102.391 292.552C102.167 292.36 101.985 292.136 101.847 291.88C101.708 291.624 101.639 291.315 101.639 290.952C101.639 290.28 101.905 289.741 102.439 289.336C102.983 288.92 103.772 288.712 104.807 288.712C105.34 288.712 105.809 288.755 106.215 288.84C106.62 288.925 106.881 288.989 106.999 289.032V290.312C106.689 290.184 106.359 290.093 106.007 290.04C105.665 289.987 105.324 289.96 104.983 289.96C104.375 289.96 103.937 290.045 103.671 290.216C103.404 290.376 103.271 290.595 103.271 290.872C103.271 291.032 103.313 291.176 103.399 291.304C103.484 291.421 103.596 291.533 103.735 291.64C103.884 291.736 104.055 291.832 104.247 291.928C104.439 292.013 104.641 292.104 104.855 292.2C105.143 292.328 105.436 292.461 105.735 292.6C106.044 292.728 106.321 292.888 106.567 293.08C106.823 293.272 107.025 293.501 107.175 293.768C107.335 294.035 107.415 294.365 107.415 294.76C107.415 295.464 107.127 296.035 106.551 296.472C105.985 296.909 105.175 297.128 104.119 297.128ZM112.33 288.84H113.898V287.864C113.898 286.723 114.111 285.912 114.538 285.432C114.975 284.952 115.642 284.712 116.538 284.712C116.804 284.712 117.055 284.728 117.29 284.76C117.524 284.792 117.695 284.819 117.802 284.84V286.056C117.631 286.035 117.476 286.019 117.338 286.008C117.199 285.997 117.066 285.992 116.938 285.992C116.639 285.992 116.388 286.029 116.186 286.104C115.994 286.168 115.839 286.275 115.722 286.424C115.604 286.573 115.519 286.771 115.466 287.016C115.423 287.251 115.402 287.533 115.402 287.864V288.84H117.69V290.056H115.402V297H113.898V290.056H112.33V288.84ZM122.655 297.128C122.037 297.128 121.471 297.027 120.959 296.824C120.447 296.621 120.005 296.333 119.631 295.96C119.269 295.587 118.986 295.144 118.783 294.632C118.581 294.12 118.479 293.549 118.479 292.92C118.479 292.301 118.581 291.736 118.783 291.224C118.986 290.701 119.269 290.253 119.631 289.88C120.005 289.507 120.447 289.219 120.959 289.016C121.471 288.813 122.037 288.712 122.655 288.712C123.274 288.712 123.839 288.813 124.351 289.016C124.863 289.219 125.301 289.507 125.663 289.88C126.037 290.253 126.325 290.701 126.527 291.224C126.73 291.736 126.831 292.301 126.831 292.92C126.831 293.549 126.73 294.12 126.527 294.632C126.325 295.144 126.037 295.587 125.663 295.96C125.301 296.333 124.863 296.621 124.351 296.824C123.839 297.027 123.274 297.128 122.655 297.128ZM122.655 295.912C123.007 295.912 123.338 295.843 123.647 295.704C123.967 295.565 124.239 295.368 124.463 295.112C124.698 294.845 124.885 294.531 125.023 294.168C125.162 293.795 125.231 293.379 125.231 292.92C125.231 292.461 125.162 292.051 125.023 291.688C124.885 291.315 124.698 291 124.463 290.744C124.229 290.477 123.957 290.275 123.647 290.136C123.338 289.997 123.007 289.928 122.655 289.928C122.303 289.928 121.967 289.997 121.647 290.136C121.338 290.275 121.066 290.477 120.831 290.744C120.607 291 120.426 291.315 120.287 291.688C120.149 292.051 120.079 292.461 120.079 292.92C120.079 293.379 120.149 293.795 120.287 294.168C120.426 294.531 120.607 294.845 120.831 295.112C121.066 295.368 121.338 295.565 121.647 295.704C121.967 295.843 122.303 295.912 122.655 295.912ZM128.945 288.84H130.353V290.168H130.385C130.652 289.645 130.972 289.272 131.345 289.048C131.729 288.824 132.188 288.712 132.721 288.712C132.871 288.712 133.02 288.723 133.169 288.744C133.329 288.755 133.495 288.771 133.665 288.792V290.104C133.505 290.083 133.351 290.067 133.201 290.056C133.052 290.035 132.908 290.024 132.769 290.024C131.948 290.024 131.356 290.307 130.993 290.872C130.631 291.437 130.449 292.264 130.449 293.352V297H128.945V288.84ZM143.213 290.056H141.197V294.456C141.197 294.947 141.32 295.288 141.565 295.48C141.821 295.661 142.12 295.752 142.461 295.752C142.717 295.752 142.989 295.709 143.277 295.624V296.984C143.074 297.037 142.882 297.075 142.701 297.096C142.52 297.117 142.354 297.128 142.205 297.128C141.394 297.128 140.776 296.909 140.349 296.472C139.922 296.024 139.709 295.4 139.709 294.6V290.056H138.221V288.84H139.709V286.808L141.197 286.264V288.84H143.213V290.056ZM145.195 284.84H146.699V288.84L146.683 290.008H146.731C147.041 289.571 147.425 289.245 147.883 289.032C148.342 288.819 148.865 288.712 149.451 288.712C150.411 288.712 151.169 289 151.723 289.576C152.278 290.141 152.555 291.016 152.555 292.2V297H151.051V292.68C151.051 292.157 151.003 291.72 150.907 291.368C150.822 291.005 150.694 290.723 150.523 290.52C150.363 290.307 150.161 290.157 149.915 290.072C149.681 289.976 149.419 289.928 149.131 289.928C148.395 289.928 147.803 290.195 147.355 290.728C146.918 291.251 146.699 292.061 146.699 293.16V297H145.195V284.84ZM155.969 293.256C156.054 294.099 156.342 294.749 156.833 295.208C157.323 295.656 157.985 295.88 158.817 295.88C159.307 295.88 159.787 295.821 160.257 295.704C160.737 295.576 161.131 295.421 161.441 295.24V296.712C161.185 296.797 160.833 296.888 160.385 296.984C159.937 297.08 159.382 297.128 158.721 297.128C157.334 297.128 156.267 296.744 155.521 295.976C154.785 295.208 154.417 294.141 154.417 292.776C154.417 292.157 154.513 291.597 154.705 291.096C154.907 290.595 155.179 290.168 155.521 289.816C155.873 289.464 156.283 289.192 156.753 289C157.222 288.808 157.729 288.712 158.273 288.712C159.435 288.712 160.347 289.053 161.009 289.736C161.67 290.419 162.001 291.453 162.001 292.84V293.256H155.969ZM158.257 289.928C157.627 289.928 157.11 290.131 156.705 290.536C156.31 290.931 156.065 291.464 155.969 292.136H160.401C160.401 291.432 160.198 290.888 159.793 290.504C159.387 290.12 158.875 289.928 158.257 289.928ZM168.091 288.84H169.595V297H168.091V288.84ZM168.011 285.48H169.707V287.176H168.011V285.48ZM172.492 288.84H173.996V290.008H174.028C174.337 289.571 174.721 289.245 175.18 289.032C175.649 288.819 176.172 288.712 176.748 288.712C177.708 288.712 178.465 289 179.02 289.576C179.575 290.141 179.852 291.016 179.852 292.2V297H178.348V292.68C178.348 292.157 178.3 291.72 178.204 291.368C178.119 291.005 177.991 290.723 177.82 290.52C177.66 290.307 177.457 290.157 177.212 290.072C176.977 289.976 176.716 289.928 176.428 289.928C175.692 289.928 175.1 290.195 174.652 290.728C174.215 291.251 173.996 292.061 173.996 293.16V297H172.492V288.84ZM186.354 290.056H184.338V294.456C184.338 294.947 184.46 295.288 184.706 295.48C184.962 295.661 185.26 295.752 185.602 295.752C185.858 295.752 186.13 295.709 186.418 295.624V296.984C186.215 297.037 186.023 297.075 185.842 297.096C185.66 297.117 185.495 297.128 185.346 297.128C184.535 297.128 183.916 296.909 183.49 296.472C183.063 296.024 182.85 295.4 182.85 294.6V290.056H181.362V288.84H182.85V286.808L184.338 286.264V288.84H186.354V290.056ZM189.266 293.256C189.351 294.099 189.639 294.749 190.13 295.208C190.62 295.656 191.282 295.88 192.114 295.88C192.604 295.88 193.084 295.821 193.554 295.704C194.034 295.576 194.428 295.421 194.738 295.24V296.712C194.482 296.797 194.13 296.888 193.682 296.984C193.234 297.08 192.679 297.128 192.018 297.128C190.631 297.128 189.564 296.744 188.818 295.976C188.082 295.208 187.714 294.141 187.714 292.776C187.714 292.157 187.81 291.597 188.002 291.096C188.204 290.595 188.476 290.168 188.818 289.816C189.17 289.464 189.58 289.192 190.05 289C190.519 288.808 191.026 288.712 191.57 288.712C192.732 288.712 193.644 289.053 194.306 289.736C194.967 290.419 195.298 291.453 195.298 292.84V293.256H189.266ZM191.554 289.928C190.924 289.928 190.407 290.131 190.002 290.536C189.607 290.931 189.362 291.464 189.266 292.136H193.698C193.698 291.432 193.495 290.888 193.09 290.504C192.684 290.12 192.172 289.928 191.554 289.928ZM197.461 288.84H198.869V290.168H198.901C199.167 289.645 199.487 289.272 199.861 289.048C200.245 288.824 200.703 288.712 201.237 288.712C201.386 288.712 201.535 288.723 201.685 288.744C201.845 288.755 202.01 288.771 202.181 288.792V290.104C202.021 290.083 201.866 290.067 201.717 290.056C201.567 290.035 201.423 290.024 201.285 290.024C200.463 290.024 199.871 290.307 199.509 290.872C199.146 291.437 198.965 292.264 198.965 293.352V297H197.461V288.84ZM203.945 288.84H205.449V290.008H205.481C205.791 289.571 206.175 289.245 206.633 289.032C207.103 288.819 207.625 288.712 208.201 288.712C209.161 288.712 209.919 289 210.473 289.576C211.028 290.141 211.305 291.016 211.305 292.2V297H209.801V292.68C209.801 292.157 209.753 291.72 209.657 291.368C209.572 291.005 209.444 290.723 209.273 290.52C209.113 290.307 208.911 290.157 208.665 290.072C208.431 289.976 208.169 289.928 207.881 289.928C207.145 289.928 206.553 290.195 206.105 290.728C205.668 291.251 205.449 292.061 205.449 293.16V297H203.945V288.84ZM214.719 293.256C214.804 294.099 215.092 294.749 215.583 295.208C216.073 295.656 216.735 295.88 217.567 295.88C218.057 295.88 218.537 295.821 219.007 295.704C219.487 295.576 219.881 295.421 220.191 295.24V296.712C219.935 296.797 219.583 296.888 219.135 296.984C218.687 297.08 218.132 297.128 217.471 297.128C216.084 297.128 215.017 296.744 214.271 295.976C213.535 295.208 213.167 294.141 213.167 292.776C213.167 292.157 213.263 291.597 213.455 291.096C213.657 290.595 213.929 290.168 214.271 289.816C214.623 289.464 215.033 289.192 215.503 289C215.972 288.808 216.479 288.712 217.023 288.712C218.185 288.712 219.097 289.053 219.759 289.736C220.42 290.419 220.751 291.453 220.751 292.84V293.256H214.719ZM217.007 289.928C216.377 289.928 215.86 290.131 215.455 290.536C215.06 290.931 214.815 291.464 214.719 292.136H219.151C219.151 291.432 218.948 290.888 218.543 290.504C218.137 290.12 217.625 289.928 217.007 289.928ZM227.01 290.056H224.994V294.456C224.994 294.947 225.117 295.288 225.362 295.48C225.618 295.661 225.917 295.752 226.258 295.752C226.514 295.752 226.786 295.709 227.074 295.624V296.984C226.871 297.037 226.679 297.075 226.498 297.096C226.317 297.117 226.151 297.128 226.002 297.128C225.191 297.128 224.573 296.909 224.146 296.472C223.719 296.024 223.506 295.4 223.506 294.6V290.056H222.018V288.84H223.506V286.808L224.994 286.264V288.84H227.01V290.056ZM236.856 297.128C236.237 297.128 235.709 297.021 235.272 296.808C234.845 296.595 234.466 296.28 234.136 295.864H234.104L233.992 297H232.68V284.84H234.184V289.928H234.216C234.514 289.597 234.877 289.315 235.304 289.08C235.741 288.835 236.269 288.712 236.888 288.712C237.442 288.712 237.949 288.819 238.408 289.032C238.877 289.235 239.277 289.523 239.608 289.896C239.938 290.259 240.194 290.691 240.376 291.192C240.557 291.693 240.648 292.237 240.648 292.824C240.648 293.443 240.557 294.019 240.376 294.552C240.205 295.075 239.954 295.528 239.624 295.912C239.293 296.296 238.893 296.595 238.424 296.808C237.954 297.021 237.432 297.128 236.856 297.128ZM236.6 295.912C236.952 295.912 237.277 295.837 237.576 295.688C237.874 295.539 238.13 295.331 238.344 295.064C238.568 294.787 238.738 294.467 238.856 294.104C238.984 293.731 239.048 293.325 239.048 292.888C239.048 292.461 238.984 292.067 238.856 291.704C238.738 291.341 238.568 291.032 238.344 290.776C238.13 290.509 237.874 290.301 237.576 290.152C237.288 290.003 236.973 289.928 236.632 289.928C236.269 289.928 235.938 290.003 235.64 290.152C235.341 290.301 235.08 290.509 234.856 290.776C234.642 291.043 234.477 291.363 234.36 291.736C234.242 292.099 234.184 292.499 234.184 292.936C234.184 293.373 234.242 293.773 234.36 294.136C234.477 294.499 234.642 294.813 234.856 295.08C235.069 295.336 235.325 295.539 235.624 295.688C235.922 295.837 236.248 295.912 236.6 295.912ZM244.776 297.128C243.922 297.128 243.245 296.915 242.744 296.488C242.242 296.051 241.992 295.448 241.992 294.68C241.992 293.784 242.333 293.101 243.016 292.632C243.709 292.152 244.77 291.912 246.2 291.912H247.704V291.64C247.704 291.053 247.501 290.627 247.096 290.36C246.69 290.093 246.152 289.96 245.48 289.96C245.042 289.96 244.6 290.013 244.152 290.12C243.704 290.216 243.234 290.397 242.744 290.664V289.256C243.149 289.075 243.613 288.941 244.136 288.856C244.658 288.76 245.17 288.712 245.672 288.712C246.792 288.712 247.661 288.968 248.28 289.48C248.898 289.981 249.208 290.797 249.208 291.928V297H247.672V295.752H247.64C247.298 296.253 246.861 296.611 246.328 296.824C245.805 297.027 245.288 297.128 244.776 297.128ZM245.144 295.848C245.517 295.848 245.858 295.789 246.168 295.672C246.488 295.555 246.76 295.395 246.984 295.192C247.208 294.979 247.384 294.733 247.512 294.456C247.64 294.179 247.704 293.885 247.704 293.576V293.064H246.264C245.762 293.064 245.341 293.101 245 293.176C244.669 293.251 244.397 293.357 244.184 293.496C243.97 293.635 243.816 293.795 243.72 293.976C243.634 294.157 243.592 294.36 243.592 294.584C243.592 294.989 243.73 295.304 244.008 295.528C244.285 295.741 244.664 295.848 245.144 295.848ZM251.601 288.84H253.105V290.008H253.137C253.447 289.571 253.831 289.245 254.289 289.032C254.759 288.819 255.281 288.712 255.857 288.712C256.817 288.712 257.575 289 258.129 289.576C258.684 290.141 258.961 291.016 258.961 292.2V297H257.457V292.68C257.457 292.157 257.409 291.72 257.313 291.368C257.228 291.005 257.1 290.723 256.929 290.52C256.769 290.307 256.567 290.157 256.321 290.072C256.087 289.976 255.825 289.928 255.537 289.928C254.801 289.928 254.209 290.195 253.761 290.728C253.324 291.251 253.105 292.061 253.105 293.16V297H251.601V288.84ZM261.367 284.84H262.871V292.648L266.823 288.84H268.695L265.063 292.232L268.743 297H266.903L264.007 293.16L262.871 294.232V297H261.367V284.84ZM270.482 288.84H271.986V297H270.482V288.84ZM270.402 285.48H272.098V287.176H270.402V285.48ZM274.883 288.84H276.387V290.008H276.419C276.728 289.571 277.112 289.245 277.571 289.032C278.04 288.819 278.563 288.712 279.139 288.712C280.099 288.712 280.856 289 281.411 289.576C281.965 290.141 282.243 291.016 282.243 292.2V297H280.739V292.68C280.739 292.157 280.691 291.72 280.595 291.368C280.509 291.005 280.381 290.723 280.211 290.52C280.051 290.307 279.848 290.157 279.603 290.072C279.368 289.976 279.107 289.928 278.819 289.928C278.083 289.928 277.491 290.195 277.043 290.728C276.605 291.251 276.387 292.061 276.387 293.16V297H274.883V288.84ZM287.736 300.648C287.31 300.648 286.915 300.621 286.552 300.568C286.19 300.515 285.87 300.451 285.592 300.376C285.272 300.301 284.979 300.211 284.712 300.104V298.664C284.979 298.803 285.272 298.931 285.592 299.048C285.87 299.144 286.19 299.229 286.552 299.304C286.915 299.389 287.31 299.432 287.736 299.432C289.624 299.432 290.568 298.483 290.568 296.584V295.736H290.52C290.254 296.131 289.88 296.44 289.4 296.664C288.931 296.888 288.414 297 287.848 297C287.315 297 286.819 296.904 286.36 296.712C285.912 296.52 285.518 296.248 285.176 295.896C284.846 295.533 284.584 295.101 284.392 294.6C284.2 294.088 284.104 293.512 284.104 292.872C284.104 292.211 284.206 291.624 284.408 291.112C284.611 290.589 284.883 290.152 285.224 289.8C285.576 289.448 285.987 289.181 286.456 289C286.926 288.808 287.427 288.712 287.96 288.712C288.579 288.712 289.102 288.84 289.528 289.096C289.955 289.352 290.318 289.656 290.616 290.008H290.664V288.84H292.072V296.584C292.072 297.949 291.72 298.968 291.016 299.64C290.323 300.312 289.23 300.648 287.736 300.648ZM288.168 295.784C288.499 295.784 288.808 295.72 289.096 295.592C289.395 295.464 289.651 295.277 289.864 295.032C290.078 294.776 290.243 294.472 290.36 294.12C290.488 293.757 290.552 293.341 290.552 292.872C290.552 292.392 290.488 291.971 290.36 291.608C290.232 291.235 290.056 290.925 289.832 290.68C289.608 290.424 289.347 290.237 289.048 290.12C288.75 289.992 288.424 289.928 288.072 289.928C287.742 289.928 287.432 289.987 287.144 290.104C286.856 290.221 286.606 290.403 286.392 290.648C286.179 290.883 286.008 291.181 285.88 291.544C285.763 291.896 285.704 292.307 285.704 292.776C285.704 293.245 285.768 293.667 285.896 294.04C286.035 294.403 286.216 294.717 286.44 294.984C286.664 295.24 286.926 295.437 287.224 295.576C287.523 295.715 287.838 295.784 288.168 295.784ZM294.742 295.208H296.534V297H294.742V295.208ZM303.058 285.8H306.642C308.029 285.8 309.053 286.109 309.714 286.728C310.376 287.336 310.706 288.205 310.706 289.336C310.706 290.467 310.376 291.341 309.714 291.96C309.053 292.568 308.029 292.872 306.642 292.872H304.626V297H303.058V285.8ZM306.642 291.464C307.464 291.464 308.066 291.288 308.45 290.936C308.845 290.573 309.042 290.04 309.042 289.336C309.042 288.632 308.845 288.104 308.45 287.752C308.066 287.389 307.464 287.208 306.642 287.208H304.626V291.464H306.642ZM312.732 284.808H314.236V297H312.732V284.808ZM318.141 293.256C318.226 294.099 318.514 294.749 319.005 295.208C319.495 295.656 320.157 295.88 320.989 295.88C321.479 295.88 321.959 295.821 322.429 295.704C322.909 295.576 323.303 295.421 323.613 295.24V296.712C323.357 296.797 323.005 296.888 322.557 296.984C322.109 297.08 321.554 297.128 320.893 297.128C319.506 297.128 318.439 296.744 317.693 295.976C316.957 295.208 316.589 294.141 316.589 292.776C316.589 292.157 316.685 291.597 316.877 291.096C317.079 290.595 317.351 290.168 317.693 289.816C318.045 289.464 318.455 289.192 318.925 289C319.394 288.808 319.901 288.712 320.445 288.712C321.607 288.712 322.519 289.053 323.181 289.736C323.842 290.419 324.173 291.453 324.173 292.84V293.256H318.141ZM320.429 289.928C319.799 289.928 319.282 290.131 318.877 290.536C318.482 290.931 318.237 291.464 318.141 292.136H322.573C322.573 291.432 322.37 290.888 321.965 290.504C321.559 290.12 321.047 289.928 320.429 289.928ZM328.432 297.128C327.578 297.128 326.901 296.915 326.4 296.488C325.898 296.051 325.648 295.448 325.648 294.68C325.648 293.784 325.989 293.101 326.672 292.632C327.365 292.152 328.426 291.912 329.856 291.912H331.36V291.64C331.36 291.053 331.157 290.627 330.752 290.36C330.346 290.093 329.808 289.96 329.136 289.96C328.698 289.96 328.256 290.013 327.808 290.12C327.36 290.216 326.89 290.397 326.4 290.664V289.256C326.805 289.075 327.269 288.941 327.792 288.856C328.314 288.76 328.826 288.712 329.328 288.712C330.448 288.712 331.317 288.968 331.936 289.48C332.554 289.981 332.864 290.797 332.864 291.928V297H331.328V295.752H331.296C330.954 296.253 330.517 296.611 329.984 296.824C329.461 297.027 328.944 297.128 328.432 297.128ZM328.8 295.848C329.173 295.848 329.514 295.789 329.824 295.672C330.144 295.555 330.416 295.395 330.64 295.192C330.864 294.979 331.04 294.733 331.168 294.456C331.296 294.179 331.36 293.885 331.36 293.576V293.064H329.92C329.418 293.064 328.997 293.101 328.656 293.176C328.325 293.251 328.053 293.357 327.84 293.496C327.626 293.635 327.472 293.795 327.376 293.976C327.29 294.157 327.248 294.36 327.248 294.584C327.248 294.989 327.386 295.304 327.664 295.528C327.941 295.741 328.32 295.848 328.8 295.848ZM337.322 297.128C336.778 297.128 336.308 297.085 335.914 297C335.53 296.904 335.188 296.797 334.89 296.68V295.352C335.434 295.597 335.903 295.752 336.298 295.816C336.703 295.869 336.996 295.896 337.178 295.896C337.796 295.896 338.244 295.789 338.522 295.576C338.799 295.352 338.938 295.101 338.938 294.824C338.938 294.653 338.89 294.509 338.794 294.392C338.708 294.264 338.591 294.147 338.442 294.04C338.292 293.933 338.116 293.837 337.914 293.752C337.711 293.656 337.498 293.56 337.274 293.464C336.964 293.325 336.66 293.187 336.362 293.048C336.074 292.899 335.818 292.733 335.594 292.552C335.37 292.36 335.188 292.136 335.05 291.88C334.911 291.624 334.842 291.315 334.842 290.952C334.842 290.28 335.108 289.741 335.642 289.336C336.186 288.92 336.975 288.712 338.01 288.712C338.543 288.712 339.012 288.755 339.418 288.84C339.823 288.925 340.084 288.989 340.202 289.032V290.312C339.892 290.184 339.562 290.093 339.21 290.04C338.868 289.987 338.527 289.96 338.186 289.96C337.578 289.96 337.14 290.045 336.874 290.216C336.607 290.376 336.474 290.595 336.474 290.872C336.474 291.032 336.516 291.176 336.602 291.304C336.687 291.421 336.799 291.533 336.938 291.64C337.087 291.736 337.258 291.832 337.45 291.928C337.642 292.013 337.844 292.104 338.058 292.2C338.346 292.328 338.639 292.461 338.938 292.6C339.247 292.728 339.524 292.888 339.77 293.08C340.026 293.272 340.228 293.501 340.378 293.768C340.538 294.035 340.618 294.365 340.618 294.76C340.618 295.464 340.33 296.035 339.754 296.472C339.188 296.909 338.378 297.128 337.322 297.128ZM343.781 293.256C343.867 294.099 344.155 294.749 344.645 295.208C345.136 295.656 345.797 295.88 346.629 295.88C347.12 295.88 347.6 295.821 348.069 295.704C348.549 295.576 348.944 295.421 349.253 295.24V296.712C348.997 296.797 348.645 296.888 348.197 296.984C347.749 297.08 347.195 297.128 346.533 297.128C345.147 297.128 344.08 296.744 343.333 295.976C342.597 295.208 342.229 294.141 342.229 292.776C342.229 292.157 342.325 291.597 342.517 291.096C342.72 290.595 342.992 290.168 343.333 289.816C343.685 289.464 344.096 289.192 344.565 289C345.035 288.808 345.541 288.712 346.085 288.712C347.248 288.712 348.16 289.053 348.821 289.736C349.483 290.419 349.813 291.453 349.813 292.84V293.256H343.781ZM346.069 289.928C345.44 289.928 344.923 290.131 344.517 290.536C344.123 290.931 343.877 291.464 343.781 292.136H348.213C348.213 291.432 348.011 290.888 347.605 290.504C347.2 290.12 346.688 289.928 346.069 289.928ZM359.76 290.056H357.744V294.456C357.744 294.947 357.867 295.288 358.112 295.48C358.368 295.661 358.667 295.752 359.008 295.752C359.264 295.752 359.536 295.709 359.824 295.624V296.984C359.621 297.037 359.429 297.075 359.248 297.096C359.067 297.117 358.901 297.128 358.752 297.128C357.941 297.128 357.323 296.909 356.896 296.472C356.469 296.024 356.256 295.4 356.256 294.6V290.056H354.768V288.84H356.256V286.808L357.744 286.264V288.84H359.76V290.056ZM361.742 288.84H363.15V290.168H363.182C363.449 289.645 363.769 289.272 364.142 289.048C364.526 288.824 364.985 288.712 365.518 288.712C365.667 288.712 365.817 288.723 365.966 288.744C366.126 288.755 366.291 288.771 366.462 288.792V290.104C366.302 290.083 366.147 290.067 365.998 290.056C365.849 290.035 365.705 290.024 365.566 290.024C364.745 290.024 364.153 290.307 363.79 290.872C363.427 291.437 363.246 292.264 363.246 293.352V297H361.742V288.84ZM368.913 300.584C368.806 300.584 368.71 300.579 368.625 300.568C368.539 300.568 368.47 300.563 368.417 300.552C368.342 300.541 368.278 300.525 368.225 300.504V299.272C368.278 299.283 368.337 299.293 368.401 299.304C368.454 299.315 368.513 299.32 368.577 299.32C368.651 299.32 368.731 299.32 368.817 299.32C369.275 299.32 369.611 299.192 369.825 298.936C370.049 298.68 370.251 298.301 370.433 297.8L370.577 297.4L367.233 288.84H368.881L371.361 295.528H371.473L374.001 288.84H375.521L372.129 297.32C371.883 297.917 371.659 298.424 371.457 298.84C371.265 299.256 371.051 299.592 370.817 299.848C370.582 300.104 370.315 300.291 370.017 300.408C369.718 300.525 369.35 300.584 368.913 300.584ZM382.885 297.128C382.032 297.128 381.354 296.915 380.853 296.488C380.352 296.051 380.101 295.448 380.101 294.68C380.101 293.784 380.442 293.101 381.125 292.632C381.818 292.152 382.88 291.912 384.309 291.912H385.813V291.64C385.813 291.053 385.61 290.627 385.205 290.36C384.8 290.093 384.261 289.96 383.589 289.96C383.152 289.96 382.709 290.013 382.261 290.12C381.813 290.216 381.344 290.397 380.853 290.664V289.256C381.258 289.075 381.722 288.941 382.245 288.856C382.768 288.76 383.28 288.712 383.781 288.712C384.901 288.712 385.77 288.968 386.389 289.48C387.008 289.981 387.317 290.797 387.317 291.928V297H385.781V295.752H385.749C385.408 296.253 384.97 296.611 384.437 296.824C383.914 297.027 383.397 297.128 382.885 297.128ZM383.253 295.848C383.626 295.848 383.968 295.789 384.277 295.672C384.597 295.555 384.869 295.395 385.093 295.192C385.317 294.979 385.493 294.733 385.621 294.456C385.749 294.179 385.813 293.885 385.813 293.576V293.064H384.373C383.872 293.064 383.45 293.101 383.109 293.176C382.778 293.251 382.506 293.357 382.293 293.496C382.08 293.635 381.925 293.795 381.829 293.976C381.744 294.157 381.701 294.36 381.701 294.584C381.701 294.989 381.84 295.304 382.117 295.528C382.394 295.741 382.773 295.848 383.253 295.848ZM392.799 300.648C392.372 300.648 391.977 300.621 391.615 300.568C391.252 300.515 390.932 300.451 390.655 300.376C390.335 300.301 390.041 300.211 389.775 300.104V298.664C390.041 298.803 390.335 298.931 390.655 299.048C390.932 299.144 391.252 299.229 391.615 299.304C391.977 299.389 392.372 299.432 392.799 299.432C394.687 299.432 395.631 298.483 395.631 296.584V295.736H395.583C395.316 296.131 394.943 296.44 394.463 296.664C393.993 296.888 393.476 297 392.911 297C392.377 297 391.881 296.904 391.423 296.712C390.975 296.52 390.58 296.248 390.239 295.896C389.908 295.533 389.647 295.101 389.455 294.6C389.263 294.088 389.167 293.512 389.167 292.872C389.167 292.211 389.268 291.624 389.471 291.112C389.673 290.589 389.945 290.152 390.287 289.8C390.639 289.448 391.049 289.181 391.519 289C391.988 288.808 392.489 288.712 393.023 288.712C393.641 288.712 394.164 288.84 394.591 289.096C395.017 289.352 395.38 289.656 395.679 290.008H395.727V288.84H397.135V296.584C397.135 297.949 396.783 298.968 396.079 299.64C395.385 300.312 394.292 300.648 392.799 300.648ZM393.231 295.784C393.561 295.784 393.871 295.72 394.159 295.592C394.457 295.464 394.713 295.277 394.927 295.032C395.14 294.776 395.305 294.472 395.423 294.12C395.551 293.757 395.615 293.341 395.615 292.872C395.615 292.392 395.551 291.971 395.423 291.608C395.295 291.235 395.119 290.925 394.895 290.68C394.671 290.424 394.409 290.237 394.111 290.12C393.812 289.992 393.487 289.928 393.135 289.928C392.804 289.928 392.495 289.987 392.207 290.104C391.919 290.221 391.668 290.403 391.455 290.648C391.241 290.883 391.071 291.181 390.943 291.544C390.825 291.896 390.767 292.307 390.767 292.776C390.767 293.245 390.831 293.667 390.959 294.04C391.097 294.403 391.279 294.717 391.503 294.984C391.727 295.24 391.988 295.437 392.287 295.576C392.585 295.715 392.9 295.784 393.231 295.784ZM401.885 297.128C401.032 297.128 400.354 296.915 399.853 296.488C399.352 296.051 399.101 295.448 399.101 294.68C399.101 293.784 399.442 293.101 400.125 292.632C400.818 292.152 401.88 291.912 403.309 291.912H404.813V291.64C404.813 291.053 404.61 290.627 404.205 290.36C403.8 290.093 403.261 289.96 402.589 289.96C402.152 289.96 401.709 290.013 401.261 290.12C400.813 290.216 400.344 290.397 399.853 290.664V289.256C400.258 289.075 400.722 288.941 401.245 288.856C401.768 288.76 402.28 288.712 402.781 288.712C403.901 288.712 404.77 288.968 405.389 289.48C406.008 289.981 406.317 290.797 406.317 291.928V297H404.781V295.752H404.749C404.408 296.253 403.97 296.611 403.437 296.824C402.914 297.027 402.397 297.128 401.885 297.128ZM402.253 295.848C402.626 295.848 402.968 295.789 403.277 295.672C403.597 295.555 403.869 295.395 404.093 295.192C404.317 294.979 404.493 294.733 404.621 294.456C404.749 294.179 404.813 293.885 404.813 293.576V293.064H403.373C402.872 293.064 402.45 293.101 402.109 293.176C401.778 293.251 401.506 293.357 401.293 293.496C401.08 293.635 400.925 293.795 400.829 293.976C400.744 294.157 400.701 294.36 400.701 294.584C400.701 294.989 400.84 295.304 401.117 295.528C401.394 295.741 401.773 295.848 402.253 295.848ZM408.951 288.84H410.455V297H408.951V288.84ZM408.871 285.48H410.567V287.176H408.871V285.48ZM413.351 288.84H414.855V290.008H414.887C415.197 289.571 415.581 289.245 416.039 289.032C416.509 288.819 417.031 288.712 417.607 288.712C418.567 288.712 419.325 289 419.879 289.576C420.434 290.141 420.711 291.016 420.711 292.2V297H419.207V292.68C419.207 292.157 419.159 291.72 419.063 291.368C418.978 291.005 418.85 290.723 418.679 290.52C418.519 290.307 418.317 290.157 418.071 290.072C417.837 289.976 417.575 289.928 417.287 289.928C416.551 289.928 415.959 290.195 415.511 290.728C415.074 291.251 414.855 292.061 414.855 293.16V297H413.351V288.84ZM170.424 321.128C169.571 321.128 168.893 320.915 168.392 320.488C167.891 320.051 167.64 319.448 167.64 318.68C167.64 317.784 167.981 317.101 168.664 316.632C169.357 316.152 170.419 315.912 171.848 315.912H173.352V315.64C173.352 315.053 173.149 314.627 172.744 314.36C172.339 314.093 171.8 313.96 171.128 313.96C170.691 313.96 170.248 314.013 169.8 314.12C169.352 314.216 168.883 314.397 168.392 314.664V313.256C168.797 313.075 169.261 312.941 169.784 312.856C170.307 312.76 170.819 312.712 171.32 312.712C172.44 312.712 173.309 312.968 173.928 313.48C174.547 313.981 174.856 314.797 174.856 315.928V321H173.32V319.752H173.288C172.947 320.253 172.509 320.611 171.976 320.824C171.453 321.027 170.936 321.128 170.424 321.128ZM170.792 319.848C171.165 319.848 171.507 319.789 171.816 319.672C172.136 319.555 172.408 319.395 172.632 319.192C172.856 318.979 173.032 318.733 173.16 318.456C173.288 318.179 173.352 317.885 173.352 317.576V317.064H171.912C171.411 317.064 170.989 317.101 170.648 317.176C170.317 317.251 170.045 317.357 169.832 317.496C169.619 317.635 169.464 317.795 169.368 317.976C169.283 318.157 169.24 318.36 169.24 318.584C169.24 318.989 169.379 319.304 169.656 319.528C169.933 319.741 170.312 319.848 170.792 319.848ZM176.322 312.84H177.89V311.864C177.89 310.723 178.103 309.912 178.53 309.432C178.967 308.952 179.634 308.712 180.53 308.712C180.797 308.712 181.047 308.728 181.282 308.76C181.517 308.792 181.687 308.819 181.794 308.84V310.056C181.623 310.035 181.469 310.019 181.33 310.008C181.191 309.997 181.058 309.992 180.93 309.992C180.631 309.992 180.381 310.029 180.178 310.104C179.986 310.168 179.831 310.275 179.714 310.424C179.597 310.573 179.511 310.771 179.458 311.016C179.415 311.251 179.394 311.533 179.394 311.864V312.84H181.682V314.056H179.394V321H177.89V314.056H176.322V312.84ZM187.424 314.056H185.408V318.456C185.408 318.947 185.531 319.288 185.776 319.48C186.032 319.661 186.331 319.752 186.672 319.752C186.928 319.752 187.2 319.709 187.488 319.624V320.984C187.285 321.037 187.093 321.075 186.912 321.096C186.731 321.117 186.565 321.128 186.416 321.128C185.605 321.128 184.987 320.909 184.56 320.472C184.133 320.024 183.92 319.4 183.92 318.6V314.056H182.432V312.84H183.92V310.808L185.408 310.264V312.84H187.424V314.056ZM190.336 317.256C190.421 318.099 190.709 318.749 191.2 319.208C191.691 319.656 192.352 319.88 193.184 319.88C193.675 319.88 194.155 319.821 194.624 319.704C195.104 319.576 195.499 319.421 195.808 319.24V320.712C195.552 320.797 195.2 320.888 194.752 320.984C194.304 321.08 193.749 321.128 193.088 321.128C191.701 321.128 190.635 320.744 189.888 319.976C189.152 319.208 188.784 318.141 188.784 316.776C188.784 316.157 188.88 315.597 189.072 315.096C189.275 314.595 189.547 314.168 189.888 313.816C190.24 313.464 190.651 313.192 191.12 313C191.589 312.808 192.096 312.712 192.64 312.712C193.803 312.712 194.715 313.053 195.376 313.736C196.037 314.419 196.368 315.453 196.368 316.84V317.256H190.336ZM192.624 313.928C191.995 313.928 191.477 314.131 191.072 314.536C190.677 314.931 190.432 315.464 190.336 316.136H194.768C194.768 315.432 194.565 314.888 194.16 314.504C193.755 314.12 193.243 313.928 192.624 313.928ZM198.531 312.84H199.939V314.168H199.971C200.238 313.645 200.558 313.272 200.931 313.048C201.315 312.824 201.774 312.712 202.307 312.712C202.456 312.712 202.606 312.723 202.755 312.744C202.915 312.755 203.08 312.771 203.251 312.792V314.104C203.091 314.083 202.936 314.067 202.787 314.056C202.638 314.035 202.494 314.024 202.355 314.024C201.534 314.024 200.942 314.307 200.579 314.872C200.216 315.437 200.035 316.264 200.035 317.352V321H198.531V312.84ZM211.375 321.128C210.852 321.128 210.335 321.085 209.823 321C209.311 320.915 208.799 320.781 208.287 320.6V319.128C208.692 319.309 209.146 319.453 209.647 319.56C210.148 319.667 210.687 319.72 211.263 319.72C212.17 319.72 212.863 319.555 213.343 319.224C213.823 318.883 214.063 318.408 214.063 317.8C214.063 317.16 213.807 316.675 213.295 316.344C212.794 316.003 212.074 315.832 211.135 315.832H209.775V314.52H211.055C211.546 314.52 211.962 314.477 212.303 314.392C212.655 314.296 212.932 314.168 213.135 314.008C213.348 313.848 213.503 313.661 213.599 313.448C213.695 313.235 213.743 313 213.743 312.744C213.743 312.2 213.524 311.789 213.087 311.512C212.66 311.224 212.031 311.08 211.199 311.08C210.655 311.08 210.154 311.133 209.695 311.24C209.236 311.336 208.831 311.464 208.479 311.624V310.168C208.895 310.008 209.332 309.885 209.791 309.8C210.26 309.715 210.804 309.672 211.423 309.672C212.628 309.672 213.572 309.917 214.255 310.408C214.938 310.888 215.279 311.587 215.279 312.504C215.279 313.187 215.066 313.768 214.639 314.248C214.212 314.717 213.62 315.011 212.863 315.128V315.16C213.354 315.224 213.77 315.341 214.111 315.512C214.463 315.683 214.746 315.891 214.959 316.136C215.183 316.371 215.343 316.637 215.439 316.936C215.546 317.235 215.599 317.549 215.599 317.88C215.599 318.477 215.471 318.984 215.215 319.4C214.97 319.816 214.644 320.152 214.239 320.408C213.834 320.664 213.38 320.851 212.879 320.968C212.378 321.075 211.876 321.128 211.375 321.128ZM221.296 321.128C220.72 321.128 220.198 321.016 219.728 320.792C219.27 320.568 218.875 320.221 218.544 319.752C218.214 319.283 217.958 318.691 217.776 317.976C217.606 317.251 217.52 316.392 217.52 315.4C217.52 314.408 217.611 313.549 217.792 312.824C217.974 312.099 218.23 311.507 218.56 311.048C218.891 310.579 219.286 310.232 219.744 310.008C220.203 309.784 220.71 309.672 221.264 309.672C221.851 309.672 222.379 309.784 222.848 310.008C223.318 310.232 223.718 310.579 224.048 311.048C224.379 311.507 224.63 312.099 224.8 312.824C224.982 313.549 225.072 314.408 225.072 315.4C225.072 316.424 224.976 317.299 224.784 318.024C224.603 318.749 224.342 319.341 224 319.8C223.67 320.259 223.27 320.595 222.8 320.808C222.342 321.021 221.84 321.128 221.296 321.128ZM221.296 319.784C221.648 319.784 221.963 319.709 222.24 319.56C222.518 319.4 222.752 319.149 222.944 318.808C223.136 318.456 223.28 318.003 223.376 317.448C223.483 316.883 223.536 316.2 223.536 315.4C223.536 314.568 223.483 313.875 223.376 313.32C223.27 312.755 223.115 312.301 222.912 311.96C222.72 311.619 222.486 311.379 222.208 311.24C221.931 311.091 221.616 311.016 221.264 311.016C220.944 311.016 220.646 311.091 220.368 311.24C220.102 311.379 219.867 311.619 219.664 311.96C219.472 312.291 219.323 312.739 219.216 313.304C219.11 313.869 219.056 314.568 219.056 315.4C219.056 316.221 219.115 316.915 219.232 317.48C219.35 318.035 219.504 318.483 219.696 318.824C219.899 319.165 220.134 319.411 220.4 319.56C220.678 319.709 220.976 319.784 221.296 319.784ZM230.953 312.84H232.361V314.024H232.393C232.67 313.576 233.044 313.245 233.513 313.032C233.993 312.819 234.473 312.712 234.953 312.712C235.529 312.712 236.014 312.851 236.409 313.128C236.814 313.405 237.118 313.795 237.321 314.296C237.598 313.773 237.966 313.379 238.425 313.112C238.884 312.845 239.417 312.712 240.025 312.712C240.473 312.712 240.862 312.792 241.193 312.952C241.534 313.101 241.817 313.315 242.041 313.592C242.265 313.859 242.43 314.179 242.537 314.552C242.654 314.925 242.713 315.331 242.713 315.768V321H241.209V316.136C241.209 315.496 241.097 314.968 240.873 314.552C240.649 314.136 240.254 313.928 239.689 313.928C239.326 313.928 239.012 314.013 238.745 314.184C238.478 314.355 238.26 314.579 238.089 314.856C237.918 315.133 237.79 315.448 237.705 315.8C237.62 316.152 237.577 316.515 237.577 316.888V321H236.089V316.136C236.089 315.475 235.972 314.941 235.737 314.536C235.502 314.131 235.113 313.928 234.569 313.928C234.228 313.928 233.924 314.008 233.657 314.168C233.401 314.317 233.182 314.525 233.001 314.792C232.82 315.059 232.681 315.373 232.585 315.736C232.5 316.099 232.457 316.483 232.457 316.888V321H230.953V312.84ZM245.349 312.84H246.853V321H245.349V312.84ZM245.269 309.48H246.965V311.176H245.269V309.48ZM249.75 312.84H251.254V314.008H251.286C251.595 313.571 251.979 313.245 252.438 313.032C252.907 312.819 253.43 312.712 254.006 312.712C254.966 312.712 255.723 313 256.278 313.576C256.833 314.141 257.11 315.016 257.11 316.2V321H255.606V316.68C255.606 316.157 255.558 315.72 255.462 315.368C255.377 315.005 255.249 314.723 255.078 314.52C254.918 314.307 254.715 314.157 254.47 314.072C254.235 313.976 253.974 313.928 253.686 313.928C252.95 313.928 252.358 314.195 251.91 314.728C251.473 315.251 251.254 316.061 251.254 317.16V321H249.75V312.84ZM266.62 321H265.116V319.832H265.084C264.774 320.269 264.385 320.595 263.916 320.808C263.457 321.021 262.94 321.128 262.364 321.128C261.404 321.128 260.646 320.845 260.092 320.28C259.537 319.704 259.26 318.824 259.26 317.64V312.84H260.764V317.16C260.764 317.693 260.806 318.136 260.892 318.488C260.988 318.84 261.116 319.123 261.276 319.336C261.446 319.539 261.649 319.688 261.884 319.784C262.129 319.869 262.396 319.912 262.684 319.912C263.42 319.912 264.006 319.651 264.444 319.128C264.892 318.595 265.116 317.779 265.116 316.68V312.84H266.62V321ZM273.377 314.056H271.361V318.456C271.361 318.947 271.484 319.288 271.729 319.48C271.985 319.661 272.284 319.752 272.625 319.752C272.881 319.752 273.153 319.709 273.441 319.624V320.984C273.238 321.037 273.046 321.075 272.865 321.096C272.684 321.117 272.518 321.128 272.369 321.128C271.558 321.128 270.94 320.909 270.513 320.472C270.086 320.024 269.873 319.4 269.873 318.6V314.056H268.385V312.84H269.873V310.808L271.361 310.264V312.84H273.377V314.056ZM276.289 317.256C276.374 318.099 276.662 318.749 277.153 319.208C277.644 319.656 278.305 319.88 279.137 319.88C279.628 319.88 280.108 319.821 280.577 319.704C281.057 319.576 281.452 319.421 281.761 319.24V320.712C281.505 320.797 281.153 320.888 280.705 320.984C280.257 321.08 279.702 321.128 279.041 321.128C277.654 321.128 276.588 320.744 275.841 319.976C275.105 319.208 274.737 318.141 274.737 316.776C274.737 316.157 274.833 315.597 275.025 315.096C275.228 314.595 275.5 314.168 275.841 313.816C276.193 313.464 276.604 313.192 277.073 313C277.542 312.808 278.049 312.712 278.593 312.712C279.756 312.712 280.668 313.053 281.329 313.736C281.99 314.419 282.321 315.453 282.321 316.84V317.256H276.289ZM278.577 313.928C277.948 313.928 277.43 314.131 277.025 314.536C276.63 314.931 276.385 315.464 276.289 316.136H280.721C280.721 315.432 280.518 314.888 280.113 314.504C279.708 314.12 279.196 313.928 278.577 313.928ZM286.548 321.128C286.004 321.128 285.535 321.085 285.14 321C284.756 320.904 284.415 320.797 284.116 320.68V319.352C284.66 319.597 285.13 319.752 285.524 319.816C285.93 319.869 286.223 319.896 286.404 319.896C287.023 319.896 287.471 319.789 287.748 319.576C288.026 319.352 288.164 319.101 288.164 318.824C288.164 318.653 288.116 318.509 288.02 318.392C287.935 318.264 287.818 318.147 287.668 318.04C287.519 317.933 287.343 317.837 287.14 317.752C286.938 317.656 286.724 317.56 286.5 317.464C286.191 317.325 285.887 317.187 285.588 317.048C285.3 316.899 285.044 316.733 284.82 316.552C284.596 316.36 284.415 316.136 284.276 315.88C284.138 315.624 284.068 315.315 284.068 314.952C284.068 314.28 284.335 313.741 284.868 313.336C285.412 312.92 286.202 312.712 287.236 312.712C287.77 312.712 288.239 312.755 288.644 312.84C289.05 312.925 289.311 312.989 289.428 313.032V314.312C289.119 314.184 288.788 314.093 288.436 314.04C288.095 313.987 287.754 313.96 287.412 313.96C286.804 313.96 286.367 314.045 286.1 314.216C285.834 314.376 285.7 314.595 285.7 314.872C285.7 315.032 285.743 315.176 285.828 315.304C285.914 315.421 286.026 315.533 286.164 315.64C286.314 315.736 286.484 315.832 286.676 315.928C286.868 316.013 287.071 316.104 287.284 316.2C287.572 316.328 287.866 316.461 288.164 316.6C288.474 316.728 288.751 316.888 288.996 317.08C289.252 317.272 289.455 317.501 289.604 317.768C289.764 318.035 289.844 318.365 289.844 318.76C289.844 319.464 289.556 320.035 288.98 320.472C288.415 320.909 287.604 321.128 286.548 321.128ZM291.86 319.208H293.652V321H291.86V319.208Z" fill="#22242A"/>
<rect x="85" y="327" width="292" height="96" fill="white"/>
</svg>
