<svg width="364" height="644" viewBox="0 0 364 644" fill="none" xmlns="http://www.w3.org/2000/svg">
<rect x="1" y="1" width="362" height="642" rx="17" fill="white"/>
<rect x="1" y="1" width="362" height="642" rx="17" stroke="black" stroke-width="2"/>
<g clip-path="url(#clip0_553_2991)">
<path d="M320.016 19.625H324.258C325.128 19.625 325.875 19.7552 326.5 20.0156C327.13 20.276 327.615 20.6615 327.953 21.1719C328.292 21.6823 328.461 22.3099 328.461 23.0547C328.461 23.6641 328.357 24.1875 328.148 24.625C327.945 25.0573 327.656 25.4193 327.281 25.7109C326.911 25.9974 326.477 26.2266 325.977 26.3984L325.234 26.7891H321.547L321.531 24.9609H324.273C324.685 24.9609 325.026 24.888 325.297 24.7422C325.568 24.5964 325.771 24.3932 325.906 24.1328C326.047 23.8724 326.117 23.5703 326.117 23.2266C326.117 22.862 326.049 22.5469 325.914 22.2812C325.779 22.0156 325.573 21.8125 325.297 21.6719C325.021 21.5312 324.674 21.4609 324.258 21.4609H322.359V31H320.016V19.625ZM326.375 31L323.781 25.9297L326.258 25.9141L328.883 30.8906V31H326.375ZM335.125 28.9766V22.5469H337.375V31H335.258L335.125 28.9766ZM335.375 27.2422L336.039 27.2266C336.039 27.7891 335.974 28.3125 335.844 28.7969C335.714 29.276 335.518 29.6927 335.258 30.0469C334.997 30.3958 334.669 30.6693 334.273 30.8672C333.878 31.0599 333.411 31.1562 332.875 31.1562C332.464 31.1562 332.083 31.099 331.734 30.9844C331.391 30.8646 331.094 30.6797 330.844 30.4297C330.599 30.1745 330.406 29.849 330.266 29.4531C330.13 29.0521 330.062 28.5703 330.062 28.0078V22.5469H332.312V28.0234C332.312 28.2734 332.341 28.4844 332.398 28.6562C332.461 28.8281 332.547 28.9688 332.656 29.0781C332.766 29.1875 332.893 29.2656 333.039 29.3125C333.19 29.3594 333.357 29.3828 333.539 29.3828C334.003 29.3828 334.367 29.2891 334.633 29.1016C334.904 28.9141 335.094 28.6589 335.203 28.3359C335.318 28.0078 335.375 27.6432 335.375 27.2422ZM343.664 28.6641C343.664 28.5026 343.617 28.3568 343.523 28.2266C343.43 28.0964 343.255 27.9766 343 27.8672C342.75 27.7526 342.388 27.6484 341.914 27.5547C341.487 27.4609 341.089 27.3438 340.719 27.2031C340.354 27.0573 340.036 26.8828 339.766 26.6797C339.5 26.4766 339.292 26.237 339.141 25.9609C338.99 25.6797 338.914 25.3594 338.914 25C338.914 24.6458 338.99 24.3125 339.141 24C339.297 23.6875 339.518 23.4115 339.805 23.1719C340.096 22.9271 340.451 22.737 340.867 22.6016C341.289 22.4609 341.763 22.3906 342.289 22.3906C343.023 22.3906 343.654 22.5078 344.18 22.7422C344.711 22.9766 345.117 23.2995 345.398 23.7109C345.685 24.1172 345.828 24.5807 345.828 25.1016H343.578C343.578 24.8828 343.531 24.6875 343.438 24.5156C343.349 24.3385 343.208 24.2005 343.016 24.1016C342.828 23.9974 342.583 23.9453 342.281 23.9453C342.031 23.9453 341.815 23.9896 341.633 24.0781C341.451 24.1615 341.31 24.276 341.211 24.4219C341.117 24.5625 341.07 24.7188 341.07 24.8906C341.07 25.0208 341.096 25.138 341.148 25.2422C341.206 25.3411 341.297 25.4323 341.422 25.5156C341.547 25.599 341.708 25.6771 341.906 25.75C342.109 25.8177 342.359 25.8802 342.656 25.9375C343.266 26.0625 343.81 26.2266 344.289 26.4297C344.768 26.6276 345.148 26.8984 345.43 27.2422C345.711 27.5807 345.852 28.026 345.852 28.5781C345.852 28.9531 345.768 29.2969 345.602 29.6094C345.435 29.9219 345.195 30.1953 344.883 30.4297C344.57 30.6589 344.195 30.8385 343.758 30.9688C343.326 31.0938 342.839 31.1562 342.297 31.1562C341.51 31.1562 340.844 31.0156 340.297 30.7344C339.755 30.4531 339.344 30.0964 339.062 29.6641C338.786 29.2266 338.648 28.7786 338.648 28.3203H340.781C340.792 28.6276 340.87 28.875 341.016 29.0625C341.167 29.25 341.357 29.3854 341.586 29.4688C341.82 29.5521 342.073 29.5938 342.344 29.5938C342.635 29.5938 342.878 29.5547 343.07 29.4766C343.263 29.3932 343.409 29.2839 343.508 29.1484C343.612 29.0078 343.664 28.8464 343.664 28.6641Z" fill="#1655F5"/>
<path d="M28.5017 20.0013H19.8108C18.8107 20.0013 18 20.818 18 21.8253V30.5797C18 31.5871 18.8107 32.4037 19.8108 32.4037H28.5017C29.5017 32.4037 30.3125 31.5871 30.3125 30.5797V21.8253C30.3125 20.818 29.5017 20.0013 28.5017 20.0013Z" fill="black"/>
<path d="M21.4477 28.4346C22.6717 28.4346 23.6639 27.4351 23.6639 26.2021C23.6639 24.9692 22.6717 23.9697 21.4477 23.9697C20.2237 23.9697 19.2314 24.9692 19.2314 26.2021C19.2314 27.4351 20.2237 28.4346 21.4477 28.4346Z" fill="#1655F5"/>
<path d="M26.8647 28.4346C28.0887 28.4346 29.0809 27.4351 29.0809 26.2021C29.0809 24.9692 28.0887 23.9697 26.8647 23.9697C25.6407 23.9697 24.6484 24.9692 24.6484 26.2021C24.6484 27.4351 25.6407 28.4346 26.8647 28.4346Z" fill="#F53410"/>
<g clip-path="url(#clip1_553_2991)">
<path d="M100.561 30.0862C101.017 30.0862 101.341 30.0416 101.53 29.9524C101.719 29.8633 101.814 29.6906 101.814 29.4343C101.814 29.2337 101.692 29.061 101.446 28.9162C101.201 28.7602 100.828 28.5874 100.327 28.398C99.9365 28.2532 99.58 28.1027 99.2568 27.9467C98.9448 27.7907 98.6774 27.6069 98.4546 27.3952C98.2317 27.1723 98.059 26.9104 97.9364 26.6096C97.8138 26.3087 97.7526 25.9466 97.7526 25.5232C97.7526 24.6986 98.059 24.0467 98.6718 23.5676C99.2847 23.0884 100.126 22.8489 101.196 22.8489C101.731 22.8489 102.243 22.899 102.733 22.9993C103.224 23.0884 103.614 23.1887 103.903 23.3002L103.469 25.239C103.179 25.1387 102.862 25.0496 102.516 24.9716C102.182 24.8936 101.803 24.8546 101.38 24.8546C100.6 24.8546 100.21 25.0719 100.21 25.5064C100.21 25.6067 100.226 25.6959 100.26 25.7739C100.293 25.8519 100.36 25.9299 100.46 26.0079C100.561 26.0747 100.694 26.1527 100.861 26.2419C101.04 26.3199 101.263 26.409 101.53 26.5093C102.076 26.7099 102.527 26.9104 102.884 27.111C103.24 27.3004 103.519 27.5122 103.72 27.7462C103.931 27.969 104.076 28.2197 104.154 28.4983C104.243 28.7769 104.288 29.1 104.288 29.4677C104.288 30.3369 103.959 30.9943 103.302 31.44C102.655 31.8857 101.736 32.1086 100.544 32.1086C99.7638 32.1086 99.112 32.0417 98.5883 31.908C98.0757 31.7743 97.7191 31.6629 97.5186 31.5737L97.9364 29.5513C98.3598 29.7184 98.7944 29.8522 99.2401 29.9524C99.6858 30.0416 100.126 30.0862 100.561 30.0862Z" fill="black"/>
<path d="M95.6986 31.5736C95.2752 31.6962 94.7292 31.8076 94.0606 31.9079C93.3921 32.0193 92.6901 32.075 91.9546 32.075C91.2081 32.075 90.5841 31.9748 90.0826 31.7742C89.5923 31.5736 89.2024 31.295 88.9126 30.9385C88.6229 30.5708 88.4168 30.1362 88.2942 29.6348C88.1716 29.1333 88.1104 28.5818 88.1104 27.98V23.0828H90.6008V27.6792C90.6008 28.4815 90.7066 29.0609 90.9183 29.4175C91.1301 29.774 91.5256 29.9523 92.1051 29.9523C92.2833 29.9523 92.4728 29.9468 92.6733 29.9356C92.8739 29.9133 93.0522 29.891 93.2082 29.8688V23.0828H95.6986V31.5736Z" fill="black"/>
<path d="M85.8537 31.8746H83.3633V23.0829H85.8537V31.8746Z" fill="black"/>
<path d="M81.61 25.2891C81.3871 25.2334 81.1252 25.1776 80.8244 25.1219C80.5235 25.0551 80.2004 25.0216 79.855 25.0216C79.699 25.0216 79.5095 25.0384 79.2867 25.0718C79.075 25.0941 78.9134 25.1219 78.802 25.1554V31.8745H76.3115V23.5508C76.7572 23.3948 77.281 23.2499 77.8827 23.1162C78.4955 22.9714 79.1752 22.8989 79.9218 22.8989C80.0555 22.8989 80.2171 22.9101 80.4065 22.9324C80.596 22.9435 80.7854 22.9658 80.9748 22.9992C81.1642 23.0215 81.3537 23.0549 81.5431 23.0995C81.7325 23.1329 81.8941 23.1775 82.0278 23.2332L81.61 25.2891Z" fill="black"/>
<path d="M66.1328 27.5456C66.1328 26.7656 66.2498 26.0859 66.4838 25.5064C66.729 24.9159 67.0465 24.4256 67.4365 24.0356C67.8265 23.6456 68.2722 23.3503 68.7737 23.1497C69.2862 22.9492 69.81 22.8489 70.3448 22.8489C71.5928 22.8489 72.579 23.2333 73.3032 24.0022C74.0275 24.7599 74.3897 25.8797 74.3897 27.3617C74.3897 27.5066 74.3841 27.6682 74.373 27.8464C74.3618 28.0136 74.3507 28.164 74.3395 28.2977H68.6901C68.7458 28.8103 68.9854 29.217 69.4088 29.5179C69.8322 29.8187 70.4005 29.9692 71.1137 29.9692C71.5705 29.9692 72.0162 29.9302 72.4508 29.8522C72.8965 29.763 73.2587 29.6572 73.5372 29.5346L73.8715 31.557C73.7378 31.6239 73.5595 31.6907 73.3367 31.7576C73.1138 31.8244 72.8631 31.8802 72.5845 31.9247C72.3171 31.9804 72.0274 32.025 71.7154 32.0584C71.4034 32.0919 71.0914 32.1086 70.7794 32.1086C69.9882 32.1086 69.2974 31.9916 68.7068 31.7576C68.1274 31.5236 67.6427 31.206 67.2527 30.8049C66.8738 30.3926 66.5897 29.9079 66.4002 29.3507C66.222 28.7936 66.1328 28.1919 66.1328 27.5456ZM71.9828 26.5929C71.9717 26.3812 71.9327 26.175 71.8658 25.9744C71.8101 25.7739 71.7154 25.5956 71.5817 25.4396C71.4591 25.2836 71.2975 25.1554 71.097 25.0552C70.9075 24.9549 70.668 24.9047 70.3782 24.9047C70.0997 24.9047 69.8601 24.9549 69.6595 25.0552C69.459 25.1443 69.2918 25.2669 69.1581 25.4229C69.0244 25.5789 68.9185 25.7627 68.8405 25.9744C68.7737 26.175 68.7235 26.3812 68.6901 26.5929H71.9828Z" fill="black"/>
<path d="M59.3662 20.8932L61.8566 20.4921V23.0828H64.8485V25.1554H61.8566V28.2475C61.8566 28.7712 61.9458 29.1891 62.1241 29.5011C62.3135 29.8131 62.6868 29.9691 63.2439 29.9691C63.5114 29.9691 63.7844 29.9468 64.0629 29.9022C64.3526 29.8465 64.6145 29.7741 64.8485 29.6849L65.1995 31.6238C64.8986 31.7464 64.5644 31.8522 64.1966 31.9414C63.8289 32.0305 63.3776 32.0751 62.8428 32.0751C62.1631 32.0751 61.6004 31.9859 61.1546 31.8076C60.7089 31.6182 60.3524 31.3619 60.0849 31.0388C59.8175 30.7045 59.6281 30.3034 59.5166 29.8354C59.4164 29.3674 59.3662 28.8492 59.3662 28.2809V20.8932Z" fill="black"/>
<path d="M53.5715 30.1363C53.8167 30.1363 54.0507 30.1307 54.2735 30.1196C54.4964 30.1084 54.6747 30.0917 54.8084 30.0694V28.1807C54.7081 28.1584 54.5577 28.1362 54.3571 28.1139C54.1565 28.0916 53.9727 28.0804 53.8055 28.0804C53.5715 28.0804 53.3487 28.0972 53.137 28.1306C52.9364 28.1529 52.7581 28.203 52.6021 28.281C52.4461 28.359 52.3235 28.4649 52.2344 28.5986C52.1452 28.7323 52.1007 28.8994 52.1007 29.1C52.1007 29.49 52.2288 29.763 52.4851 29.919C52.7525 30.0639 53.1147 30.1363 53.5715 30.1363ZM53.371 22.8489C54.1064 22.8489 54.7192 22.9324 55.2095 23.0996C55.6998 23.2667 56.0898 23.5063 56.3795 23.8183C56.6804 24.1303 56.8921 24.5092 57.0147 24.9549C57.1372 25.4006 57.1985 25.8964 57.1985 26.4424V31.6239C56.842 31.7019 56.3461 31.791 55.711 31.8913C55.0758 32.0027 54.307 32.0584 53.4044 32.0584C52.8361 32.0584 52.318 32.0083 51.85 31.908C51.3931 31.8077 50.9975 31.6462 50.6632 31.4233C50.329 31.1893 50.0727 30.8884 49.8944 30.5207C49.7161 30.153 49.627 29.7017 49.627 29.1669C49.627 28.6543 49.7272 28.2197 49.9278 27.8632C50.1395 27.5066 50.4181 27.2224 50.7635 27.0107C51.109 26.799 51.5045 26.6486 51.9502 26.5594C52.396 26.4592 52.8584 26.409 53.3375 26.409C53.6607 26.409 53.9448 26.4257 54.19 26.4592C54.4462 26.4814 54.6524 26.5149 54.8084 26.5594V26.3254C54.8084 25.902 54.6802 25.5622 54.424 25.3059C54.1677 25.0496 53.722 24.9214 53.0868 24.9214C52.6634 24.9214 52.2455 24.9549 51.8332 25.0217C51.421 25.0774 51.0644 25.161 50.7635 25.2724L50.446 23.2667C50.5908 23.2222 50.7691 23.1776 50.9808 23.133C51.2037 23.0773 51.4432 23.0327 51.6995 22.9993C51.9558 22.9547 52.2232 22.9213 52.5018 22.899C52.7915 22.8656 53.0812 22.8489 53.371 22.8489Z" fill="black"/>
<path d="M42.775 21.5284C42.9087 21.9852 43.0536 22.5034 43.2096 23.0828C43.3767 23.6511 43.5494 24.2416 43.7277 24.8545C43.9171 25.4674 44.1066 26.0802 44.296 26.6931C44.4854 27.3059 44.6693 27.8742 44.8476 28.3979C44.9924 27.8296 45.1373 27.2112 45.2821 26.5426C45.4381 25.8741 45.583 25.1832 45.7167 24.4701C45.8504 23.7569 45.9786 23.0494 46.1011 22.3474C46.2349 21.6342 46.3574 20.9489 46.4689 20.2915H49.1766C48.7866 22.2304 48.3353 24.1971 47.8227 26.1916C47.3213 28.1862 46.7753 30.0805 46.1847 31.8745H43.7946C43.4046 30.8048 43.0257 29.6849 42.658 28.5149C42.2903 27.3338 41.9281 26.1526 41.5716 24.9715C41.215 26.1526 40.8584 27.3338 40.5019 28.5149C40.1453 29.6849 39.772 30.8048 39.382 31.8745H36.9919C36.4013 30.0805 35.8497 28.1862 35.3371 26.1916C34.8357 24.1971 34.39 22.2304 34 20.2915H36.8247C36.9361 20.9489 37.0587 21.6342 37.1924 22.3474C37.3261 23.0494 37.4654 23.7569 37.6103 24.4701C37.7551 25.1832 37.9 25.8741 38.0449 26.5426C38.2009 27.2112 38.3569 27.8296 38.5129 28.3979C38.7134 27.8519 38.9084 27.2725 39.0979 26.6596C39.2873 26.0468 39.4711 25.4339 39.6494 24.8211C39.8277 24.2082 39.9893 23.6176 40.1341 23.0494C40.2901 22.4811 40.4294 21.9741 40.552 21.5284H42.775Z" fill="black"/>
</g>
</g>
<path d="M25.2188 58.0469V63.3438H35.3281V67.3438H25.2188V77H20.4375V54H36.7656V58.0469H25.2188ZM44.2188 59.9688V77H39.7031V59.9688H44.2188ZM44.2188 53.8281V57.9375H39.7031V53.8281H44.2188ZM57.6406 64.0938C57.4219 64.0833 57.2448 64.0781 57.1094 64.0781C55.3177 64.0781 54.1146 64.6615 53.5 65.8281C53.1562 66.4844 52.9844 67.4948 52.9844 68.8594V77H48.5V59.9688H52.75V62.9375C53.4375 61.8021 54.0365 61.026 54.5469 60.6094C55.3802 59.9115 56.4635 59.5625 57.7969 59.5625C57.8802 59.5625 57.9479 59.5677 58 59.5781C58.0625 59.5781 58.1927 59.5833 58.3906 59.5938V64.1562C58.1094 64.125 57.8594 64.1042 57.6406 64.0938ZM65.5469 63.3438C65.1302 63.6458 64.9219 64 64.9219 64.4062C64.9219 64.9167 65.1406 65.2865 65.5781 65.5156C66.0156 65.7552 67.5625 66.1667 70.2188 66.75C71.9896 67.1667 73.3177 67.7969 74.2031 68.6406C75.0781 69.4948 75.5156 70.5625 75.5156 71.8438C75.5156 73.5312 74.8854 74.9115 73.625 75.9844C72.375 77.0469 70.4375 77.5781 67.8125 77.5781C65.1354 77.5781 63.1562 77.0156 61.875 75.8906C60.6042 74.7552 59.9688 73.3125 59.9688 71.5625H64.4844C64.5781 72.3542 64.7812 72.9167 65.0938 73.25C65.6458 73.8438 66.6667 74.1406 68.1562 74.1406C69.0312 74.1406 69.724 74.0104 70.2344 73.75C70.7552 73.4896 71.0156 73.099 71.0156 72.5781C71.0156 72.0781 70.8073 71.6979 70.3906 71.4375C69.974 71.1771 68.4271 70.7292 65.75 70.0938C63.8229 69.6146 62.4635 69.0156 61.6719 68.2969C60.8802 67.5885 60.4844 66.5677 60.4844 65.2344C60.4844 63.6615 61.099 62.3125 62.3281 61.1875C63.5677 60.0521 65.3073 59.4844 67.5469 59.4844C69.6719 59.4844 71.401 59.9115 72.7344 60.7656C74.0781 61.6094 74.849 63.0729 75.0469 65.1562H70.5938C70.5312 64.5833 70.3698 64.1302 70.1094 63.7969C69.6198 63.1927 68.7865 62.8906 67.6094 62.8906C66.6406 62.8906 65.9531 63.0417 65.5469 63.3438ZM84.125 73.5938C84.3021 73.7708 84.8438 73.8594 85.75 73.8594C85.8854 73.8594 86.026 73.8594 86.1719 73.8594C86.3281 73.849 86.4792 73.8385 86.625 73.8281V77.1562L84.5156 77.2344C82.4115 77.3073 80.974 76.9427 80.2031 76.1406C79.7031 75.6302 79.4531 74.8438 79.4531 73.7812V63.2969H77.0781V60.125H79.4531V55.375H83.8594V60.125H86.625V63.2969H83.8594V72.2969C83.8594 72.9948 83.9479 73.4271 84.125 73.5938ZM102.922 63.3438C102.505 63.6458 102.297 64 102.297 64.4062C102.297 64.9167 102.516 65.2865 102.953 65.5156C103.391 65.7552 104.938 66.1667 107.594 66.75C109.365 67.1667 110.693 67.7969 111.578 68.6406C112.453 69.4948 112.891 70.5625 112.891 71.8438C112.891 73.5312 112.26 74.9115 111 75.9844C109.75 77.0469 107.812 77.5781 105.188 77.5781C102.51 77.5781 100.531 77.0156 99.25 75.8906C97.9792 74.7552 97.3438 73.3125 97.3438 71.5625H101.859C101.953 72.3542 102.156 72.9167 102.469 73.25C103.021 73.8438 104.042 74.1406 105.531 74.1406C106.406 74.1406 107.099 74.0104 107.609 73.75C108.13 73.4896 108.391 73.099 108.391 72.5781C108.391 72.0781 108.182 71.6979 107.766 71.4375C107.349 71.1771 105.802 70.7292 103.125 70.0938C101.198 69.6146 99.8385 69.0156 99.0469 68.2969C98.2552 67.5885 97.8594 66.5677 97.8594 65.2344C97.8594 63.6615 98.474 62.3125 99.7031 61.1875C100.943 60.0521 102.682 59.4844 104.922 59.4844C107.047 59.4844 108.776 59.9115 110.109 60.7656C111.453 61.6094 112.224 63.0729 112.422 65.1562H107.969C107.906 64.5833 107.745 64.1302 107.484 63.7969C106.995 63.1927 106.161 62.8906 104.984 62.8906C104.016 62.8906 103.328 63.0417 102.922 63.3438ZM123.078 77.5625C120.911 77.5625 119 76.8646 117.344 75.4688C115.688 74.0729 114.859 71.8021 114.859 68.6562C114.859 65.7083 115.604 63.4479 117.094 61.875C118.594 60.3021 120.536 59.5156 122.922 59.5156C124.339 59.5156 125.615 59.7812 126.75 60.3125C127.885 60.8438 128.823 61.6823 129.562 62.8281C130.229 63.8385 130.661 65.0104 130.859 66.3438C130.974 67.125 131.021 68.25 131 69.7188H119.344C119.406 71.4271 119.943 72.625 120.953 73.3125C121.568 73.7396 122.307 73.9531 123.172 73.9531C124.089 73.9531 124.833 73.6927 125.406 73.1719C125.719 72.8906 125.995 72.5 126.234 72H130.781C130.667 73.0104 130.141 74.0365 129.203 75.0781C127.745 76.7344 125.703 77.5625 123.078 77.5625ZM122.922 63.1875C121.891 63.1875 121.089 63.5104 120.516 64.1562C119.953 64.8021 119.599 65.6771 119.453 66.7812H126.375C126.302 65.6042 125.943 64.7135 125.297 64.1094C124.661 63.4948 123.87 63.1875 122.922 63.1875ZM139.312 73.5938C139.49 73.7708 140.031 73.8594 140.938 73.8594C141.073 73.8594 141.214 73.8594 141.359 73.8594C141.516 73.849 141.667 73.8385 141.812 73.8281V77.1562L139.703 77.2344C137.599 77.3073 136.161 76.9427 135.391 76.1406C134.891 75.6302 134.641 74.8438 134.641 73.7812V63.2969H132.266V60.125H134.641V55.375H139.047V60.125H141.812V63.2969H139.047V72.2969C139.047 72.9948 139.135 73.4271 139.312 73.5938ZM155.406 69.2344V59.9688H159.922V77H155.594V74.5938C155.552 74.6458 155.448 74.8021 155.281 75.0625C155.115 75.3229 154.917 75.5521 154.688 75.75C153.99 76.375 153.312 76.8021 152.656 77.0312C152.01 77.2604 151.25 77.375 150.375 77.375C147.854 77.375 146.156 76.4688 145.281 74.6562C144.792 73.6562 144.547 72.1823 144.547 70.2344V59.9688H149.109V70.2344C149.109 71.2031 149.224 71.9323 149.453 72.4219C149.859 73.2865 150.656 73.7188 151.844 73.7188C153.365 73.7188 154.406 73.1042 154.969 71.875C155.26 71.2083 155.406 70.3281 155.406 69.2344ZM169.953 76.4688C169.464 76.0938 168.984 75.5469 168.516 74.8281V83.7031H164.109V59.9688H168.375V62.4844C168.854 61.7448 169.365 61.1615 169.906 60.7344C170.896 59.974 172.073 59.5938 173.438 59.5938C175.427 59.5938 177.109 60.3281 178.484 61.7969C179.87 63.2656 180.562 65.4219 180.562 68.2656C180.562 71.2656 179.885 73.5521 178.531 75.125C177.188 76.6979 175.453 77.4844 173.328 77.4844C171.974 77.4844 170.849 77.1458 169.953 76.4688ZM172.156 73.75C173.396 73.75 174.339 73.2708 174.984 72.3125C175.641 71.3542 175.969 70.0781 175.969 68.4844C175.969 67.1719 175.667 66.0104 175.062 65C174.469 63.9896 173.5 63.4844 172.156 63.4844C170.542 63.4844 169.432 64.25 168.828 65.7812C168.516 66.5938 168.359 67.625 168.359 68.875C168.359 70.8542 168.885 72.2448 169.938 73.0469C170.562 73.5156 171.302 73.75 172.156 73.75Z" fill="black"/>
<path d="M19.2578 102.523H20.8281V107.266H26.7969V102.523H28.3672V114H26.7969V108.633H20.8281V114H19.2578V102.523ZM34.0781 105.445C34.6719 105.445 35.2474 105.586 35.8047 105.867C36.362 106.143 36.7865 106.503 37.0781 106.945C37.3594 107.367 37.5469 107.859 37.6406 108.422C37.724 108.807 37.7656 109.422 37.7656 110.266H31.6328C31.6589 111.115 31.8594 111.797 32.2344 112.312C32.6094 112.823 33.1901 113.078 33.9766 113.078C34.7109 113.078 35.2969 112.836 35.7344 112.352C35.9844 112.07 36.1615 111.745 36.2656 111.375H37.6484C37.612 111.682 37.4896 112.026 37.2812 112.406C37.0781 112.781 36.849 113.089 36.5938 113.328C36.1667 113.745 35.638 114.026 35.0078 114.172C34.6693 114.255 34.2865 114.297 33.8594 114.297C32.8177 114.297 31.9349 113.919 31.2109 113.164C30.487 112.404 30.125 111.341 30.125 109.977C30.125 108.633 30.4896 107.542 31.2188 106.703C31.9479 105.865 32.901 105.445 34.0781 105.445ZM36.3203 109.148C36.263 108.539 36.1302 108.052 35.9219 107.688C35.5365 107.01 34.8932 106.672 33.9922 106.672C33.3464 106.672 32.8047 106.906 32.3672 107.375C31.9297 107.839 31.6979 108.43 31.6719 109.148H36.3203ZM39.5391 102.523H40.9453V114H39.5391V102.523ZM43.1016 102.523H44.5078V114H43.1016V102.523ZM49.9453 113.094C50.8776 113.094 51.5156 112.742 51.8594 112.039C52.2083 111.331 52.3828 110.544 52.3828 109.68C52.3828 108.898 52.2578 108.263 52.0078 107.773C51.612 107.003 50.9297 106.617 49.9609 106.617C49.1016 106.617 48.4766 106.945 48.0859 107.602C47.6953 108.258 47.5 109.049 47.5 109.977C47.5 110.867 47.6953 111.609 48.0859 112.203C48.4766 112.797 49.0964 113.094 49.9453 113.094ZM50 105.391C51.0781 105.391 51.9896 105.75 52.7344 106.469C53.4792 107.188 53.8516 108.245 53.8516 109.641C53.8516 110.99 53.5234 112.104 52.8672 112.984C52.2109 113.865 51.1927 114.305 49.8125 114.305C48.6615 114.305 47.7474 113.917 47.0703 113.141C46.3932 112.359 46.0547 111.312 46.0547 110C46.0547 108.594 46.4115 107.474 47.125 106.641C47.8385 105.807 48.7969 105.391 50 105.391ZM55.8281 115.633C56.1875 115.57 56.4401 115.318 56.5859 114.875C56.6641 114.641 56.7031 114.414 56.7031 114.195C56.7031 114.159 56.7005 114.125 56.6953 114.094C56.6953 114.068 56.6901 114.036 56.6797 114H55.8281V112.297H57.5V113.875C57.5 114.495 57.375 115.039 57.125 115.508C56.875 115.977 56.4427 116.266 55.8281 116.375V115.633ZM64.7188 103.297H66.1406V105.633H67.4766V106.781H66.1406V112.242C66.1406 112.534 66.2396 112.729 66.4375 112.828C66.5469 112.885 66.7292 112.914 66.9844 112.914C67.0521 112.914 67.125 112.914 67.2031 112.914C67.2812 112.909 67.3724 112.901 67.4766 112.891V114C67.3151 114.047 67.1458 114.081 66.9688 114.102C66.7969 114.122 66.6094 114.133 66.4062 114.133C65.75 114.133 65.3047 113.966 65.0703 113.633C64.8359 113.294 64.7188 112.857 64.7188 112.32V106.781H63.5859V105.633H64.7188V103.297ZM68.8906 102.484H70.2969V106.766C70.6302 106.344 70.9297 106.047 71.1953 105.875C71.6484 105.578 72.2135 105.43 72.8906 105.43C74.1042 105.43 74.9271 105.854 75.3594 106.703C75.5938 107.167 75.7109 107.81 75.7109 108.633V114H74.2656V108.727C74.2656 108.112 74.1875 107.661 74.0312 107.375C73.776 106.917 73.2969 106.688 72.5938 106.688C72.0104 106.688 71.4818 106.888 71.0078 107.289C70.5339 107.69 70.2969 108.448 70.2969 109.562V114H68.8906V102.484ZM77.7969 105.672H79.2266V114H77.7969V105.672ZM77.7969 102.523H79.2266V104.117H77.7969V102.523ZM82.1953 111.375C82.237 111.844 82.3542 112.203 82.5469 112.453C82.901 112.906 83.5156 113.133 84.3906 113.133C84.9115 113.133 85.3698 113.021 85.7656 112.797C86.1615 112.568 86.3594 112.216 86.3594 111.742C86.3594 111.383 86.2005 111.109 85.8828 110.922C85.6797 110.807 85.2786 110.674 84.6797 110.523L83.5625 110.242C82.849 110.065 82.3229 109.867 81.9844 109.648C81.3802 109.268 81.0781 108.742 81.0781 108.07C81.0781 107.279 81.362 106.638 81.9297 106.148C82.5026 105.659 83.2708 105.414 84.2344 105.414C85.4948 105.414 86.4036 105.784 86.9609 106.523C87.3099 106.992 87.4792 107.497 87.4688 108.039H86.1406C86.1146 107.721 86.0026 107.432 85.8047 107.172C85.4818 106.802 84.9219 106.617 84.125 106.617C83.5938 106.617 83.1901 106.719 82.9141 106.922C82.6432 107.125 82.5078 107.393 82.5078 107.727C82.5078 108.091 82.6875 108.383 83.0469 108.602C83.2552 108.732 83.5625 108.846 83.9688 108.945L84.8984 109.172C85.9089 109.417 86.5859 109.654 86.9297 109.883C87.4766 110.242 87.75 110.807 87.75 111.578C87.75 112.323 87.4661 112.966 86.8984 113.508C86.3359 114.049 85.4766 114.32 84.3203 114.32C83.0755 114.32 82.1927 114.039 81.6719 113.477C81.1562 112.909 80.8802 112.208 80.8438 111.375H82.1953ZM93.8125 105.672H95.2422V114H93.8125V105.672ZM93.8125 102.523H95.2422V104.117H93.8125V102.523ZM98.2109 111.375C98.2526 111.844 98.3698 112.203 98.5625 112.453C98.9167 112.906 99.5312 113.133 100.406 113.133C100.927 113.133 101.385 113.021 101.781 112.797C102.177 112.568 102.375 112.216 102.375 111.742C102.375 111.383 102.216 111.109 101.898 110.922C101.695 110.807 101.294 110.674 100.695 110.523L99.5781 110.242C98.8646 110.065 98.3385 109.867 98 109.648C97.3958 109.268 97.0938 108.742 97.0938 108.07C97.0938 107.279 97.3776 106.638 97.9453 106.148C98.5182 105.659 99.2865 105.414 100.25 105.414C101.51 105.414 102.419 105.784 102.977 106.523C103.326 106.992 103.495 107.497 103.484 108.039H102.156C102.13 107.721 102.018 107.432 101.82 107.172C101.497 106.802 100.938 106.617 100.141 106.617C99.6094 106.617 99.2057 106.719 98.9297 106.922C98.6589 107.125 98.5234 107.393 98.5234 107.727C98.5234 108.091 98.7031 108.383 99.0625 108.602C99.2708 108.732 99.5781 108.846 99.9844 108.945L100.914 109.172C101.924 109.417 102.602 109.654 102.945 109.883C103.492 110.242 103.766 110.807 103.766 111.578C103.766 112.323 103.482 112.966 102.914 113.508C102.352 114.049 101.492 114.32 100.336 114.32C99.0911 114.32 98.2083 114.039 97.6875 113.477C97.1719 112.909 96.8958 112.208 96.8594 111.375H98.2109ZM110.773 102.523L112.938 111.859L115.531 102.523H117.219L119.812 111.859L121.977 102.523H123.68L120.664 114H119.031L116.383 104.484L113.719 114H112.086L109.086 102.523H110.773ZM125.422 111.773C125.422 112.18 125.57 112.5 125.867 112.734C126.164 112.969 126.516 113.086 126.922 113.086C127.417 113.086 127.896 112.971 128.359 112.742C129.141 112.362 129.531 111.74 129.531 110.875V109.742C129.359 109.852 129.138 109.943 128.867 110.016C128.596 110.089 128.331 110.141 128.07 110.172L127.219 110.281C126.708 110.349 126.326 110.456 126.07 110.602C125.638 110.846 125.422 111.237 125.422 111.773ZM128.828 108.93C129.151 108.888 129.367 108.753 129.477 108.523C129.539 108.398 129.57 108.219 129.57 107.984C129.57 107.505 129.398 107.159 129.055 106.945C128.716 106.727 128.229 106.617 127.594 106.617C126.859 106.617 126.339 106.815 126.031 107.211C125.859 107.43 125.747 107.755 125.695 108.188H124.383C124.409 107.156 124.742 106.44 125.383 106.039C126.029 105.633 126.776 105.43 127.625 105.43C128.609 105.43 129.409 105.617 130.023 105.992C130.633 106.367 130.938 106.951 130.938 107.742V112.562C130.938 112.708 130.966 112.826 131.023 112.914C131.086 113.003 131.214 113.047 131.406 113.047C131.469 113.047 131.539 113.044 131.617 113.039C131.695 113.029 131.779 113.016 131.867 113V114.039C131.648 114.102 131.482 114.141 131.367 114.156C131.253 114.172 131.096 114.18 130.898 114.18C130.414 114.18 130.062 114.008 129.844 113.664C129.729 113.482 129.648 113.224 129.602 112.891C129.315 113.266 128.904 113.591 128.367 113.867C127.831 114.143 127.24 114.281 126.594 114.281C125.818 114.281 125.182 114.047 124.688 113.578C124.198 113.104 123.953 112.513 123.953 111.805C123.953 111.029 124.195 110.427 124.68 110C125.164 109.573 125.799 109.31 126.586 109.211L128.828 108.93ZM133.531 103.297H134.953V105.633H136.289V106.781H134.953V112.242C134.953 112.534 135.052 112.729 135.25 112.828C135.359 112.885 135.542 112.914 135.797 112.914C135.865 112.914 135.938 112.914 136.016 112.914C136.094 112.909 136.185 112.901 136.289 112.891V114C136.128 114.047 135.958 114.081 135.781 114.102C135.609 114.122 135.422 114.133 135.219 114.133C134.562 114.133 134.117 113.966 133.883 113.633C133.648 113.294 133.531 112.857 133.531 112.32V106.781H132.398V105.633H133.531V103.297ZM141.188 105.445C141.781 105.445 142.357 105.586 142.914 105.867C143.471 106.143 143.896 106.503 144.188 106.945C144.469 107.367 144.656 107.859 144.75 108.422C144.833 108.807 144.875 109.422 144.875 110.266H138.742C138.768 111.115 138.969 111.797 139.344 112.312C139.719 112.823 140.299 113.078 141.086 113.078C141.82 113.078 142.406 112.836 142.844 112.352C143.094 112.07 143.271 111.745 143.375 111.375H144.758C144.721 111.682 144.599 112.026 144.391 112.406C144.188 112.781 143.958 113.089 143.703 113.328C143.276 113.745 142.747 114.026 142.117 114.172C141.779 114.255 141.396 114.297 140.969 114.297C139.927 114.297 139.044 113.919 138.32 113.164C137.596 112.404 137.234 111.341 137.234 109.977C137.234 108.633 137.599 107.542 138.328 106.703C139.057 105.865 140.01 105.445 141.188 105.445ZM143.43 109.148C143.372 108.539 143.24 108.052 143.031 107.688C142.646 107.01 142.003 106.672 141.102 106.672C140.456 106.672 139.914 106.906 139.477 107.375C139.039 107.839 138.807 108.43 138.781 109.148H143.43ZM146.648 105.633H147.984V107.078C148.094 106.797 148.362 106.456 148.789 106.055C149.216 105.648 149.708 105.445 150.266 105.445C150.292 105.445 150.336 105.448 150.398 105.453C150.461 105.458 150.568 105.469 150.719 105.484V106.969C150.635 106.953 150.557 106.943 150.484 106.938C150.417 106.932 150.341 106.93 150.258 106.93C149.549 106.93 149.005 107.159 148.625 107.617C148.245 108.07 148.055 108.594 148.055 109.188V114H146.648V105.633ZM151.938 105.672H153.367V114H151.938V105.672ZM151.938 102.523H153.367V104.117H151.938V102.523ZM156.906 105.633V111.188C156.906 111.615 156.974 111.964 157.109 112.234C157.359 112.734 157.826 112.984 158.508 112.984C159.487 112.984 160.154 112.547 160.508 111.672C160.701 111.203 160.797 110.56 160.797 109.742V105.633H162.203V114H160.875L160.891 112.766C160.708 113.083 160.482 113.352 160.211 113.57C159.674 114.008 159.023 114.227 158.258 114.227C157.065 114.227 156.253 113.828 155.82 113.031C155.586 112.604 155.469 112.034 155.469 111.32V105.633H156.906ZM165.242 111.375C165.284 111.844 165.401 112.203 165.594 112.453C165.948 112.906 166.562 113.133 167.438 113.133C167.958 113.133 168.417 113.021 168.812 112.797C169.208 112.568 169.406 112.216 169.406 111.742C169.406 111.383 169.247 111.109 168.93 110.922C168.727 110.807 168.326 110.674 167.727 110.523L166.609 110.242C165.896 110.065 165.37 109.867 165.031 109.648C164.427 109.268 164.125 108.742 164.125 108.07C164.125 107.279 164.409 106.638 164.977 106.148C165.549 105.659 166.318 105.414 167.281 105.414C168.542 105.414 169.451 105.784 170.008 106.523C170.357 106.992 170.526 107.497 170.516 108.039H169.188C169.161 107.721 169.049 107.432 168.852 107.172C168.529 106.802 167.969 106.617 167.172 106.617C166.641 106.617 166.237 106.719 165.961 106.922C165.69 107.125 165.555 107.393 165.555 107.727C165.555 108.091 165.734 108.383 166.094 108.602C166.302 108.732 166.609 108.846 167.016 108.945L167.945 109.172C168.956 109.417 169.633 109.654 169.977 109.883C170.523 110.242 170.797 110.807 170.797 111.578C170.797 112.323 170.513 112.966 169.945 113.508C169.383 114.049 168.523 114.32 167.367 114.32C166.122 114.32 165.24 114.039 164.719 113.477C164.203 112.909 163.927 112.208 163.891 111.375H165.242ZM172.742 112.297H174.375V114H172.742V112.297ZM181.852 102.523H183.422V114H181.852V102.523ZM185.766 105.633H187.102V106.82C187.497 106.331 187.917 105.979 188.359 105.766C188.802 105.552 189.294 105.445 189.836 105.445C191.023 105.445 191.826 105.859 192.242 106.688C192.471 107.141 192.586 107.789 192.586 108.633V114H191.156V108.727C191.156 108.216 191.081 107.805 190.93 107.492C190.68 106.971 190.227 106.711 189.57 106.711C189.237 106.711 188.964 106.745 188.75 106.812C188.365 106.927 188.026 107.156 187.734 107.5C187.5 107.776 187.346 108.062 187.273 108.359C187.206 108.651 187.172 109.07 187.172 109.617V114H185.766V105.633ZM199.125 105.633H200.461V106.82C200.857 106.331 201.276 105.979 201.719 105.766C202.161 105.552 202.654 105.445 203.195 105.445C204.383 105.445 205.185 105.859 205.602 106.688C205.831 107.141 205.945 107.789 205.945 108.633V114H204.516V108.727C204.516 108.216 204.44 107.805 204.289 107.492C204.039 106.971 203.586 106.711 202.93 106.711C202.596 106.711 202.323 106.745 202.109 106.812C201.724 106.927 201.385 107.156 201.094 107.5C200.859 107.776 200.706 108.062 200.633 108.359C200.565 108.651 200.531 109.07 200.531 109.617V114H199.125V105.633ZM211.516 105.445C212.109 105.445 212.685 105.586 213.242 105.867C213.799 106.143 214.224 106.503 214.516 106.945C214.797 107.367 214.984 107.859 215.078 108.422C215.161 108.807 215.203 109.422 215.203 110.266H209.07C209.096 111.115 209.297 111.797 209.672 112.312C210.047 112.823 210.628 113.078 211.414 113.078C212.148 113.078 212.734 112.836 213.172 112.352C213.422 112.07 213.599 111.745 213.703 111.375H215.086C215.049 111.682 214.927 112.026 214.719 112.406C214.516 112.781 214.286 113.089 214.031 113.328C213.604 113.745 213.076 114.026 212.445 114.172C212.107 114.255 211.724 114.297 211.297 114.297C210.255 114.297 209.372 113.919 208.648 113.164C207.924 112.404 207.562 111.341 207.562 109.977C207.562 108.633 207.927 107.542 208.656 106.703C209.385 105.865 210.339 105.445 211.516 105.445ZM213.758 109.148C213.701 108.539 213.568 108.052 213.359 107.688C212.974 107.01 212.331 106.672 211.43 106.672C210.784 106.672 210.242 106.906 209.805 107.375C209.367 107.839 209.135 108.43 209.109 109.148H213.758ZM216.141 105.633H217.961L219.883 108.578L221.828 105.633L223.539 105.672L220.719 109.711L223.664 114H221.867L219.789 110.859L217.773 114H215.992L218.938 109.711L216.141 105.633ZM225.219 103.297H226.641V105.633H227.977V106.781H226.641V112.242C226.641 112.534 226.74 112.729 226.938 112.828C227.047 112.885 227.229 112.914 227.484 112.914C227.552 112.914 227.625 112.914 227.703 112.914C227.781 112.909 227.872 112.901 227.977 112.891V114C227.815 114.047 227.646 114.081 227.469 114.102C227.297 114.122 227.109 114.133 226.906 114.133C226.25 114.133 225.805 113.966 225.57 113.633C225.336 113.294 225.219 112.857 225.219 112.32V106.781H224.086V105.633H225.219V103.297ZM234.195 104.359C234.216 103.776 234.318 103.349 234.5 103.078C234.828 102.599 235.461 102.359 236.398 102.359C236.487 102.359 236.578 102.362 236.672 102.367C236.766 102.372 236.872 102.38 236.992 102.391V103.672C236.846 103.661 236.74 103.656 236.672 103.656C236.609 103.651 236.549 103.648 236.492 103.648C236.065 103.648 235.81 103.76 235.727 103.984C235.643 104.203 235.602 104.766 235.602 105.672H236.992V106.781H235.586V114H234.195V106.781H233.031V105.672H234.195V104.359ZM241.781 105.445C242.375 105.445 242.951 105.586 243.508 105.867C244.065 106.143 244.49 106.503 244.781 106.945C245.062 107.367 245.25 107.859 245.344 108.422C245.427 108.807 245.469 109.422 245.469 110.266H239.336C239.362 111.115 239.562 111.797 239.938 112.312C240.312 112.823 240.893 113.078 241.68 113.078C242.414 113.078 243 112.836 243.438 112.352C243.688 112.07 243.865 111.745 243.969 111.375H245.352C245.315 111.682 245.193 112.026 244.984 112.406C244.781 112.781 244.552 113.089 244.297 113.328C243.87 113.745 243.341 114.026 242.711 114.172C242.372 114.255 241.99 114.297 241.562 114.297C240.521 114.297 239.638 113.919 238.914 113.164C238.19 112.404 237.828 111.341 237.828 109.977C237.828 108.633 238.193 107.542 238.922 106.703C239.651 105.865 240.604 105.445 241.781 105.445ZM244.023 109.148C243.966 108.539 243.833 108.052 243.625 107.688C243.24 107.01 242.596 106.672 241.695 106.672C241.049 106.672 240.508 106.906 240.07 107.375C239.633 107.839 239.401 108.43 239.375 109.148H244.023ZM247.852 105.633L249.461 112.227L251.094 105.633H252.672L254.312 112.188L256.023 105.633H257.43L255 114H253.539L251.836 107.523L250.188 114H248.727L246.312 105.633H247.852ZM264.055 111.375C264.096 111.844 264.214 112.203 264.406 112.453C264.76 112.906 265.375 113.133 266.25 113.133C266.771 113.133 267.229 113.021 267.625 112.797C268.021 112.568 268.219 112.216 268.219 111.742C268.219 111.383 268.06 111.109 267.742 110.922C267.539 110.807 267.138 110.674 266.539 110.523L265.422 110.242C264.708 110.065 264.182 109.867 263.844 109.648C263.24 109.268 262.938 108.742 262.938 108.07C262.938 107.279 263.221 106.638 263.789 106.148C264.362 105.659 265.13 105.414 266.094 105.414C267.354 105.414 268.263 105.784 268.82 106.523C269.169 106.992 269.339 107.497 269.328 108.039H268C267.974 107.721 267.862 107.432 267.664 107.172C267.341 106.802 266.781 106.617 265.984 106.617C265.453 106.617 265.049 106.719 264.773 106.922C264.503 107.125 264.367 107.393 264.367 107.727C264.367 108.091 264.547 108.383 264.906 108.602C265.115 108.732 265.422 108.846 265.828 108.945L266.758 109.172C267.768 109.417 268.445 109.654 268.789 109.883C269.336 110.242 269.609 110.807 269.609 111.578C269.609 112.323 269.326 112.966 268.758 113.508C268.195 114.049 267.336 114.32 266.18 114.32C264.935 114.32 264.052 114.039 263.531 113.477C263.016 112.909 262.74 112.208 262.703 111.375H264.055ZM271.5 103.297H272.922V105.633H274.258V106.781H272.922V112.242C272.922 112.534 273.021 112.729 273.219 112.828C273.328 112.885 273.51 112.914 273.766 112.914C273.833 112.914 273.906 112.914 273.984 112.914C274.062 112.909 274.154 112.901 274.258 112.891V114C274.096 114.047 273.927 114.081 273.75 114.102C273.578 114.122 273.391 114.133 273.188 114.133C272.531 114.133 272.086 113.966 271.852 113.633C271.617 113.294 271.5 112.857 271.5 112.32V106.781H270.367V105.633H271.5V103.297ZM279.156 105.445C279.75 105.445 280.326 105.586 280.883 105.867C281.44 106.143 281.865 106.503 282.156 106.945C282.438 107.367 282.625 107.859 282.719 108.422C282.802 108.807 282.844 109.422 282.844 110.266H276.711C276.737 111.115 276.938 111.797 277.312 112.312C277.688 112.823 278.268 113.078 279.055 113.078C279.789 113.078 280.375 112.836 280.812 112.352C281.062 112.07 281.24 111.745 281.344 111.375H282.727C282.69 111.682 282.568 112.026 282.359 112.406C282.156 112.781 281.927 113.089 281.672 113.328C281.245 113.745 280.716 114.026 280.086 114.172C279.747 114.255 279.365 114.297 278.938 114.297C277.896 114.297 277.013 113.919 276.289 113.164C275.565 112.404 275.203 111.341 275.203 109.977C275.203 108.633 275.568 107.542 276.297 106.703C277.026 105.865 277.979 105.445 279.156 105.445ZM281.398 109.148C281.341 108.539 281.208 108.052 281 107.688C280.615 107.01 279.971 106.672 279.07 106.672C278.424 106.672 277.883 106.906 277.445 107.375C277.008 107.839 276.776 108.43 276.75 109.148H281.398ZM288.109 113.055C288.766 113.055 289.31 112.781 289.742 112.234C290.18 111.682 290.398 110.859 290.398 109.766C290.398 109.099 290.302 108.526 290.109 108.047C289.745 107.125 289.078 106.664 288.109 106.664C287.135 106.664 286.469 107.151 286.109 108.125C285.917 108.646 285.82 109.307 285.82 110.109C285.82 110.755 285.917 111.305 286.109 111.758C286.474 112.622 287.141 113.055 288.109 113.055ZM284.469 105.672H285.836V106.781C286.117 106.401 286.424 106.107 286.758 105.898C287.232 105.586 287.789 105.43 288.43 105.43C289.378 105.43 290.182 105.794 290.844 106.523C291.505 107.247 291.836 108.284 291.836 109.633C291.836 111.456 291.359 112.758 290.406 113.539C289.802 114.034 289.099 114.281 288.297 114.281C287.667 114.281 287.138 114.143 286.711 113.867C286.461 113.711 286.182 113.443 285.875 113.062V117.336H284.469V105.672ZM294.32 111.375C294.362 111.844 294.479 112.203 294.672 112.453C295.026 112.906 295.641 113.133 296.516 113.133C297.036 113.133 297.495 113.021 297.891 112.797C298.286 112.568 298.484 112.216 298.484 111.742C298.484 111.383 298.326 111.109 298.008 110.922C297.805 110.807 297.404 110.674 296.805 110.523L295.688 110.242C294.974 110.065 294.448 109.867 294.109 109.648C293.505 109.268 293.203 108.742 293.203 108.07C293.203 107.279 293.487 106.638 294.055 106.148C294.628 105.659 295.396 105.414 296.359 105.414C297.62 105.414 298.529 105.784 299.086 106.523C299.435 106.992 299.604 107.497 299.594 108.039H298.266C298.24 107.721 298.128 107.432 297.93 107.172C297.607 106.802 297.047 106.617 296.25 106.617C295.719 106.617 295.315 106.719 295.039 106.922C294.768 107.125 294.633 107.393 294.633 107.727C294.633 108.091 294.812 108.383 295.172 108.602C295.38 108.732 295.688 108.846 296.094 108.945L297.023 109.172C298.034 109.417 298.711 109.654 299.055 109.883C299.602 110.242 299.875 110.807 299.875 111.578C299.875 112.323 299.591 112.966 299.023 113.508C298.461 114.049 297.602 114.32 296.445 114.32C295.201 114.32 294.318 114.039 293.797 113.477C293.281 112.909 293.005 112.208 292.969 111.375H294.32ZM311.164 105.633H312.719C312.521 106.169 312.081 107.393 311.398 109.305C310.888 110.742 310.461 111.914 310.117 112.82C309.305 114.956 308.732 116.258 308.398 116.727C308.065 117.195 307.492 117.43 306.68 117.43C306.482 117.43 306.328 117.422 306.219 117.406C306.115 117.391 305.984 117.362 305.828 117.32V116.039C306.073 116.107 306.25 116.148 306.359 116.164C306.469 116.18 306.565 116.188 306.648 116.188C306.909 116.188 307.099 116.143 307.219 116.055C307.344 115.971 307.448 115.867 307.531 115.742C307.557 115.701 307.651 115.487 307.812 115.102C307.974 114.716 308.091 114.43 308.164 114.242L305.07 105.633H306.664L308.906 112.445L311.164 105.633ZM317.258 113.094C318.19 113.094 318.828 112.742 319.172 112.039C319.521 111.331 319.695 110.544 319.695 109.68C319.695 108.898 319.57 108.263 319.32 107.773C318.924 107.003 318.242 106.617 317.273 106.617C316.414 106.617 315.789 106.945 315.398 107.602C315.008 108.258 314.812 109.049 314.812 109.977C314.812 110.867 315.008 111.609 315.398 112.203C315.789 112.797 316.409 113.094 317.258 113.094ZM317.312 105.391C318.391 105.391 319.302 105.75 320.047 106.469C320.792 107.188 321.164 108.245 321.164 109.641C321.164 110.99 320.836 112.104 320.18 112.984C319.523 113.865 318.505 114.305 317.125 114.305C315.974 114.305 315.06 113.917 314.383 113.141C313.706 112.359 313.367 111.312 313.367 110C313.367 108.594 313.724 107.474 314.438 106.641C315.151 105.807 316.109 105.391 317.312 105.391ZM324.25 105.633V111.188C324.25 111.615 324.318 111.964 324.453 112.234C324.703 112.734 325.169 112.984 325.852 112.984C326.831 112.984 327.497 112.547 327.852 111.672C328.044 111.203 328.141 110.56 328.141 109.742V105.633H329.547V114H328.219L328.234 112.766C328.052 113.083 327.826 113.352 327.555 113.57C327.018 114.008 326.367 114.227 325.602 114.227C324.409 114.227 323.596 113.828 323.164 113.031C322.93 112.604 322.812 112.034 322.812 111.32V105.633H324.25ZM19.6797 125.633L21.2891 132.227L22.9219 125.633H24.5L26.1406 132.188L27.8516 125.633H29.2578L26.8281 134H25.3672L23.6641 127.523L22.0156 134H20.5547L18.1406 125.633H19.6797ZM30.5938 125.672H32.0234V134H30.5938V125.672ZM30.5938 122.523H32.0234V124.117H30.5938V122.523ZM34.1953 122.523H35.6016V134H34.1953V122.523ZM37.7578 122.523H39.1641V134H37.7578V122.523ZM48.9609 125.391C49.9036 125.391 50.6693 125.62 51.2578 126.078C51.8516 126.536 52.2083 127.326 52.3281 128.445H50.9609C50.8776 127.93 50.6875 127.503 50.3906 127.164C50.0938 126.82 49.6172 126.648 48.9609 126.648C48.0651 126.648 47.4245 127.086 47.0391 127.961C46.7891 128.529 46.6641 129.229 46.6641 130.062C46.6641 130.901 46.8411 131.607 47.1953 132.18C47.5495 132.753 48.1068 133.039 48.8672 133.039C49.4505 133.039 49.9115 132.862 50.25 132.508C50.5938 132.148 50.8307 131.659 50.9609 131.039H52.3281C52.1719 132.148 51.7812 132.961 51.1562 133.477C50.5312 133.987 49.7318 134.242 48.7578 134.242C47.6641 134.242 46.7917 133.844 46.1406 133.047C45.4896 132.245 45.1641 131.245 45.1641 130.047C45.1641 128.578 45.5208 127.435 46.2344 126.617C46.9479 125.799 47.8568 125.391 48.9609 125.391ZM57.0547 133.094C57.987 133.094 58.625 132.742 58.9688 132.039C59.3177 131.331 59.4922 130.544 59.4922 129.68C59.4922 128.898 59.3672 128.263 59.1172 127.773C58.7214 127.003 58.0391 126.617 57.0703 126.617C56.2109 126.617 55.5859 126.945 55.1953 127.602C54.8047 128.258 54.6094 129.049 54.6094 129.977C54.6094 130.867 54.8047 131.609 55.1953 132.203C55.5859 132.797 56.2057 133.094 57.0547 133.094ZM57.1094 125.391C58.1875 125.391 59.099 125.75 59.8438 126.469C60.5885 127.188 60.9609 128.245 60.9609 129.641C60.9609 130.99 60.6328 132.104 59.9766 132.984C59.3203 133.865 58.3021 134.305 56.9219 134.305C55.7708 134.305 54.8568 133.917 54.1797 133.141C53.5026 132.359 53.1641 131.312 53.1641 130C53.1641 128.594 53.5208 127.474 54.2344 126.641C54.9479 125.807 55.9062 125.391 57.1094 125.391ZM62.6406 125.633H63.9766V126.82C64.3724 126.331 64.7917 125.979 65.2344 125.766C65.6771 125.552 66.1693 125.445 66.7109 125.445C67.8984 125.445 68.7005 125.859 69.1172 126.688C69.3464 127.141 69.4609 127.789 69.4609 128.633V134H68.0312V128.727C68.0312 128.216 67.9557 127.805 67.8047 127.492C67.5547 126.971 67.1016 126.711 66.4453 126.711C66.112 126.711 65.8385 126.745 65.625 126.812C65.2396 126.927 64.901 127.156 64.6094 127.5C64.375 127.776 64.2214 128.062 64.1484 128.359C64.0807 128.651 64.0469 129.07 64.0469 129.617V134H62.6406V125.633ZM71.5469 125.633H72.8828V126.82C73.2786 126.331 73.6979 125.979 74.1406 125.766C74.5833 125.552 75.0755 125.445 75.6172 125.445C76.8047 125.445 77.6068 125.859 78.0234 126.688C78.2526 127.141 78.3672 127.789 78.3672 128.633V134H76.9375V128.727C76.9375 128.216 76.862 127.805 76.7109 127.492C76.4609 126.971 76.0078 126.711 75.3516 126.711C75.0182 126.711 74.7448 126.745 74.5312 126.812C74.1458 126.927 73.8073 127.156 73.5156 127.5C73.2812 127.776 73.1276 128.062 73.0547 128.359C72.987 128.651 72.9531 129.07 72.9531 129.617V134H71.5469V125.633ZM83.9375 125.445C84.5312 125.445 85.1068 125.586 85.6641 125.867C86.2214 126.143 86.6458 126.503 86.9375 126.945C87.2188 127.367 87.4062 127.859 87.5 128.422C87.5833 128.807 87.625 129.422 87.625 130.266H81.4922C81.5182 131.115 81.7188 131.797 82.0938 132.312C82.4688 132.823 83.0495 133.078 83.8359 133.078C84.5703 133.078 85.1562 132.836 85.5938 132.352C85.8438 132.07 86.0208 131.745 86.125 131.375H87.5078C87.4714 131.682 87.349 132.026 87.1406 132.406C86.9375 132.781 86.7083 133.089 86.4531 133.328C86.026 133.745 85.4974 134.026 84.8672 134.172C84.5286 134.255 84.1458 134.297 83.7188 134.297C82.6771 134.297 81.7943 133.919 81.0703 133.164C80.3464 132.404 79.9844 131.341 79.9844 129.977C79.9844 128.633 80.349 127.542 81.0781 126.703C81.8073 125.865 82.7604 125.445 83.9375 125.445ZM86.1797 129.148C86.1224 128.539 85.9896 128.052 85.7812 127.688C85.3958 127.01 84.7526 126.672 83.8516 126.672C83.2057 126.672 82.6641 126.906 82.2266 127.375C81.7891 127.839 81.5573 128.43 81.5312 129.148H86.1797ZM92.5859 125.391C93.5286 125.391 94.2943 125.62 94.8828 126.078C95.4766 126.536 95.8333 127.326 95.9531 128.445H94.5859C94.5026 127.93 94.3125 127.503 94.0156 127.164C93.7188 126.82 93.2422 126.648 92.5859 126.648C91.6901 126.648 91.0495 127.086 90.6641 127.961C90.4141 128.529 90.2891 129.229 90.2891 130.062C90.2891 130.901 90.4661 131.607 90.8203 132.18C91.1745 132.753 91.7318 133.039 92.4922 133.039C93.0755 133.039 93.5365 132.862 93.875 132.508C94.2188 132.148 94.4557 131.659 94.5859 131.039H95.9531C95.7969 132.148 95.4062 132.961 94.7812 133.477C94.1562 133.987 93.3568 134.242 92.3828 134.242C91.2891 134.242 90.4167 133.844 89.7656 133.047C89.1146 132.245 88.7891 131.245 88.7891 130.047C88.7891 128.578 89.1458 127.435 89.8594 126.617C90.5729 125.799 91.4818 125.391 92.5859 125.391ZM97.6406 123.297H99.0625V125.633H100.398V126.781H99.0625V132.242C99.0625 132.534 99.1615 132.729 99.3594 132.828C99.4688 132.885 99.651 132.914 99.9062 132.914C99.974 132.914 100.047 132.914 100.125 132.914C100.203 132.909 100.294 132.901 100.398 132.891V134C100.237 134.047 100.068 134.081 99.8906 134.102C99.7188 134.122 99.5312 134.133 99.3281 134.133C98.6719 134.133 98.2266 133.966 97.9922 133.633C97.7578 133.294 97.6406 132.857 97.6406 132.32V126.781H96.5078V125.633H97.6406V123.297ZM106.547 123.297H107.969V125.633H109.305V126.781H107.969V132.242C107.969 132.534 108.068 132.729 108.266 132.828C108.375 132.885 108.557 132.914 108.812 132.914C108.88 132.914 108.953 132.914 109.031 132.914C109.109 132.909 109.201 132.901 109.305 132.891V134C109.143 134.047 108.974 134.081 108.797 134.102C108.625 134.122 108.438 134.133 108.234 134.133C107.578 134.133 107.133 133.966 106.898 133.633C106.664 133.294 106.547 132.857 106.547 132.32V126.781H105.414V125.633H106.547V123.297ZM110.719 122.484H112.125V126.766C112.458 126.344 112.758 126.047 113.023 125.875C113.477 125.578 114.042 125.43 114.719 125.43C115.932 125.43 116.755 125.854 117.188 126.703C117.422 127.167 117.539 127.81 117.539 128.633V134H116.094V128.727C116.094 128.112 116.016 127.661 115.859 127.375C115.604 126.917 115.125 126.688 114.422 126.688C113.839 126.688 113.31 126.888 112.836 127.289C112.362 127.69 112.125 128.448 112.125 129.562V134H110.719V122.484ZM123.109 125.445C123.703 125.445 124.279 125.586 124.836 125.867C125.393 126.143 125.818 126.503 126.109 126.945C126.391 127.367 126.578 127.859 126.672 128.422C126.755 128.807 126.797 129.422 126.797 130.266H120.664C120.69 131.115 120.891 131.797 121.266 132.312C121.641 132.823 122.221 133.078 123.008 133.078C123.742 133.078 124.328 132.836 124.766 132.352C125.016 132.07 125.193 131.745 125.297 131.375H126.68C126.643 131.682 126.521 132.026 126.312 132.406C126.109 132.781 125.88 133.089 125.625 133.328C125.198 133.745 124.669 134.026 124.039 134.172C123.701 134.255 123.318 134.297 122.891 134.297C121.849 134.297 120.966 133.919 120.242 133.164C119.518 132.404 119.156 131.341 119.156 129.977C119.156 128.633 119.521 127.542 120.25 126.703C120.979 125.865 121.932 125.445 123.109 125.445ZM125.352 129.148C125.294 128.539 125.161 128.052 124.953 127.688C124.568 127.01 123.924 126.672 123.023 126.672C122.378 126.672 121.836 126.906 121.398 127.375C120.961 127.839 120.729 128.43 120.703 129.148H125.352ZM133.875 129.914C133.875 130.81 134.065 131.56 134.445 132.164C134.826 132.768 135.435 133.07 136.273 133.07C136.924 133.07 137.458 132.792 137.875 132.234C138.297 131.672 138.508 130.867 138.508 129.82C138.508 128.763 138.292 127.982 137.859 127.477C137.427 126.966 136.893 126.711 136.258 126.711C135.549 126.711 134.974 126.982 134.531 127.523C134.094 128.065 133.875 128.862 133.875 129.914ZM135.992 125.484C136.633 125.484 137.169 125.62 137.602 125.891C137.852 126.047 138.135 126.32 138.453 126.711V122.484H139.805V134H138.539V132.836C138.211 133.352 137.823 133.724 137.375 133.953C136.927 134.182 136.414 134.297 135.836 134.297C134.904 134.297 134.096 133.906 133.414 133.125C132.732 132.339 132.391 131.294 132.391 129.992C132.391 128.773 132.701 127.719 133.32 126.828C133.945 125.932 134.836 125.484 135.992 125.484ZM145.375 125.445C145.969 125.445 146.544 125.586 147.102 125.867C147.659 126.143 148.083 126.503 148.375 126.945C148.656 127.367 148.844 127.859 148.938 128.422C149.021 128.807 149.062 129.422 149.062 130.266H142.93C142.956 131.115 143.156 131.797 143.531 132.312C143.906 132.823 144.487 133.078 145.273 133.078C146.008 133.078 146.594 132.836 147.031 132.352C147.281 132.07 147.458 131.745 147.562 131.375H148.945C148.909 131.682 148.786 132.026 148.578 132.406C148.375 132.781 148.146 133.089 147.891 133.328C147.464 133.745 146.935 134.026 146.305 134.172C145.966 134.255 145.583 134.297 145.156 134.297C144.115 134.297 143.232 133.919 142.508 133.164C141.784 132.404 141.422 131.341 141.422 129.977C141.422 128.633 141.786 127.542 142.516 126.703C143.245 125.865 144.198 125.445 145.375 125.445ZM147.617 129.148C147.56 128.539 147.427 128.052 147.219 127.688C146.833 127.01 146.19 126.672 145.289 126.672C144.643 126.672 144.102 126.906 143.664 127.375C143.227 127.839 142.995 128.43 142.969 129.148H147.617ZM151.484 125.633L153.719 132.445L156.055 125.633H157.594L154.438 134H152.938L149.852 125.633H151.484ZM158.797 125.672H160.227V134H158.797V125.672ZM158.797 122.523H160.227V124.117H158.797V122.523ZM165.586 125.391C166.529 125.391 167.294 125.62 167.883 126.078C168.477 126.536 168.833 127.326 168.953 128.445H167.586C167.503 127.93 167.312 127.503 167.016 127.164C166.719 126.82 166.242 126.648 165.586 126.648C164.69 126.648 164.049 127.086 163.664 127.961C163.414 128.529 163.289 129.229 163.289 130.062C163.289 130.901 163.466 131.607 163.82 132.18C164.174 132.753 164.732 133.039 165.492 133.039C166.076 133.039 166.536 132.862 166.875 132.508C167.219 132.148 167.456 131.659 167.586 131.039H168.953C168.797 132.148 168.406 132.961 167.781 133.477C167.156 133.987 166.357 134.242 165.383 134.242C164.289 134.242 163.417 133.844 162.766 133.047C162.115 132.245 161.789 131.245 161.789 130.047C161.789 128.578 162.146 127.435 162.859 126.617C163.573 125.799 164.482 125.391 165.586 125.391ZM173.844 125.445C174.438 125.445 175.013 125.586 175.57 125.867C176.128 126.143 176.552 126.503 176.844 126.945C177.125 127.367 177.312 127.859 177.406 128.422C177.49 128.807 177.531 129.422 177.531 130.266H171.398C171.424 131.115 171.625 131.797 172 132.312C172.375 132.823 172.956 133.078 173.742 133.078C174.477 133.078 175.062 132.836 175.5 132.352C175.75 132.07 175.927 131.745 176.031 131.375H177.414C177.378 131.682 177.255 132.026 177.047 132.406C176.844 132.781 176.615 133.089 176.359 133.328C175.932 133.745 175.404 134.026 174.773 134.172C174.435 134.255 174.052 134.297 173.625 134.297C172.583 134.297 171.701 133.919 170.977 133.164C170.253 132.404 169.891 131.341 169.891 129.977C169.891 128.633 170.255 127.542 170.984 126.703C171.714 125.865 172.667 125.445 173.844 125.445ZM176.086 129.148C176.029 128.539 175.896 128.052 175.688 127.688C175.302 127.01 174.659 126.672 173.758 126.672C173.112 126.672 172.57 126.906 172.133 127.375C171.695 127.839 171.464 128.43 171.438 129.148H176.086ZM184 123.297H185.422V125.633H186.758V126.781H185.422V132.242C185.422 132.534 185.521 132.729 185.719 132.828C185.828 132.885 186.01 132.914 186.266 132.914C186.333 132.914 186.406 132.914 186.484 132.914C186.562 132.909 186.654 132.901 186.758 132.891V134C186.596 134.047 186.427 134.081 186.25 134.102C186.078 134.122 185.891 134.133 185.688 134.133C185.031 134.133 184.586 133.966 184.352 133.633C184.117 133.294 184 132.857 184 132.32V126.781H182.867V125.633H184V123.297ZM191.492 133.094C192.424 133.094 193.062 132.742 193.406 132.039C193.755 131.331 193.93 130.544 193.93 129.68C193.93 128.898 193.805 128.263 193.555 127.773C193.159 127.003 192.477 126.617 191.508 126.617C190.648 126.617 190.023 126.945 189.633 127.602C189.242 128.258 189.047 129.049 189.047 129.977C189.047 130.867 189.242 131.609 189.633 132.203C190.023 132.797 190.643 133.094 191.492 133.094ZM191.547 125.391C192.625 125.391 193.536 125.75 194.281 126.469C195.026 127.188 195.398 128.245 195.398 129.641C195.398 130.99 195.07 132.104 194.414 132.984C193.758 133.865 192.74 134.305 191.359 134.305C190.208 134.305 189.294 133.917 188.617 133.141C187.94 132.359 187.602 131.312 187.602 130C187.602 128.594 187.958 127.474 188.672 126.641C189.385 125.807 190.344 125.391 191.547 125.391ZM206.758 125.633H208.312C208.115 126.169 207.674 127.393 206.992 129.305C206.482 130.742 206.055 131.914 205.711 132.82C204.898 134.956 204.326 136.258 203.992 136.727C203.659 137.195 203.086 137.43 202.273 137.43C202.076 137.43 201.922 137.422 201.812 137.406C201.708 137.391 201.578 137.362 201.422 137.32V136.039C201.667 136.107 201.844 136.148 201.953 136.164C202.062 136.18 202.159 136.188 202.242 136.188C202.503 136.188 202.693 136.143 202.812 136.055C202.938 135.971 203.042 135.867 203.125 135.742C203.151 135.701 203.245 135.487 203.406 135.102C203.568 134.716 203.685 134.43 203.758 134.242L200.664 125.633H202.258L204.5 132.445L206.758 125.633ZM212.852 133.094C213.784 133.094 214.422 132.742 214.766 132.039C215.115 131.331 215.289 130.544 215.289 129.68C215.289 128.898 215.164 128.263 214.914 127.773C214.518 127.003 213.836 126.617 212.867 126.617C212.008 126.617 211.383 126.945 210.992 127.602C210.602 128.258 210.406 129.049 210.406 129.977C210.406 130.867 210.602 131.609 210.992 132.203C211.383 132.797 212.003 133.094 212.852 133.094ZM212.906 125.391C213.984 125.391 214.896 125.75 215.641 126.469C216.385 127.188 216.758 128.245 216.758 129.641C216.758 130.99 216.43 132.104 215.773 132.984C215.117 133.865 214.099 134.305 212.719 134.305C211.568 134.305 210.654 133.917 209.977 133.141C209.299 132.359 208.961 131.312 208.961 130C208.961 128.594 209.318 127.474 210.031 126.641C210.745 125.807 211.703 125.391 212.906 125.391ZM219.844 125.633V131.188C219.844 131.615 219.911 131.964 220.047 132.234C220.297 132.734 220.763 132.984 221.445 132.984C222.424 132.984 223.091 132.547 223.445 131.672C223.638 131.203 223.734 130.56 223.734 129.742V125.633H225.141V134H223.812L223.828 132.766C223.646 133.083 223.419 133.352 223.148 133.57C222.612 134.008 221.961 134.227 221.195 134.227C220.003 134.227 219.19 133.828 218.758 133.031C218.523 132.604 218.406 132.034 218.406 131.32V125.633H219.844ZM227.383 125.633H228.719V127.078C228.828 126.797 229.096 126.456 229.523 126.055C229.951 125.648 230.443 125.445 231 125.445C231.026 125.445 231.07 125.448 231.133 125.453C231.195 125.458 231.302 125.469 231.453 125.484V126.969C231.37 126.953 231.292 126.943 231.219 126.938C231.151 126.932 231.076 126.93 230.992 126.93C230.284 126.93 229.74 127.159 229.359 127.617C228.979 128.07 228.789 128.594 228.789 129.188V134H227.383V125.633ZM237.125 122.484H238.531V126.766C238.865 126.344 239.164 126.047 239.43 125.875C239.883 125.578 240.448 125.43 241.125 125.43C242.339 125.43 243.161 125.854 243.594 126.703C243.828 127.167 243.945 127.81 243.945 128.633V134H242.5V128.727C242.5 128.112 242.422 127.661 242.266 127.375C242.01 126.917 241.531 126.688 240.828 126.688C240.245 126.688 239.716 126.888 239.242 127.289C238.768 127.69 238.531 128.448 238.531 129.562V134H237.125V122.484ZM249.352 133.094C250.284 133.094 250.922 132.742 251.266 132.039C251.615 131.331 251.789 130.544 251.789 129.68C251.789 128.898 251.664 128.263 251.414 127.773C251.018 127.003 250.336 126.617 249.367 126.617C248.508 126.617 247.883 126.945 247.492 127.602C247.102 128.258 246.906 129.049 246.906 129.977C246.906 130.867 247.102 131.609 247.492 132.203C247.883 132.797 248.503 133.094 249.352 133.094ZM249.406 125.391C250.484 125.391 251.396 125.75 252.141 126.469C252.885 127.188 253.258 128.245 253.258 129.641C253.258 130.99 252.93 132.104 252.273 132.984C251.617 133.865 250.599 134.305 249.219 134.305C248.068 134.305 247.154 133.917 246.477 133.141C245.799 132.359 245.461 131.312 245.461 130C245.461 128.594 245.818 127.474 246.531 126.641C247.245 125.807 248.203 125.391 249.406 125.391ZM254.938 125.633H256.328V126.82C256.661 126.409 256.964 126.109 257.234 125.922C257.698 125.604 258.224 125.445 258.812 125.445C259.479 125.445 260.016 125.609 260.422 125.938C260.651 126.125 260.859 126.401 261.047 126.766C261.359 126.318 261.727 125.987 262.148 125.773C262.57 125.555 263.044 125.445 263.57 125.445C264.695 125.445 265.461 125.852 265.867 126.664C266.086 127.102 266.195 127.69 266.195 128.43V134H264.734V128.188C264.734 127.63 264.594 127.247 264.312 127.039C264.036 126.831 263.698 126.727 263.297 126.727C262.745 126.727 262.268 126.911 261.867 127.281C261.471 127.651 261.273 128.268 261.273 129.133V134H259.844V128.539C259.844 127.971 259.776 127.557 259.641 127.297C259.427 126.906 259.029 126.711 258.445 126.711C257.914 126.711 257.43 126.917 256.992 127.328C256.56 127.74 256.344 128.484 256.344 129.562V134H254.938V125.633ZM271.75 125.445C272.344 125.445 272.919 125.586 273.477 125.867C274.034 126.143 274.458 126.503 274.75 126.945C275.031 127.367 275.219 127.859 275.312 128.422C275.396 128.807 275.438 129.422 275.438 130.266H269.305C269.331 131.115 269.531 131.797 269.906 132.312C270.281 132.823 270.862 133.078 271.648 133.078C272.383 133.078 272.969 132.836 273.406 132.352C273.656 132.07 273.833 131.745 273.938 131.375H275.32C275.284 131.682 275.161 132.026 274.953 132.406C274.75 132.781 274.521 133.089 274.266 133.328C273.839 133.745 273.31 134.026 272.68 134.172C272.341 134.255 271.958 134.297 271.531 134.297C270.49 134.297 269.607 133.919 268.883 133.164C268.159 132.404 267.797 131.341 267.797 129.977C267.797 128.633 268.161 127.542 268.891 126.703C269.62 125.865 270.573 125.445 271.75 125.445ZM273.992 129.148C273.935 128.539 273.802 128.052 273.594 127.688C273.208 127.01 272.565 126.672 271.664 126.672C271.018 126.672 270.477 126.906 270.039 127.375C269.602 127.839 269.37 128.43 269.344 129.148H273.992ZM281.664 125.633H283V127.078C283.109 126.797 283.378 126.456 283.805 126.055C284.232 125.648 284.724 125.445 285.281 125.445C285.307 125.445 285.352 125.448 285.414 125.453C285.477 125.458 285.583 125.469 285.734 125.484V126.969C285.651 126.953 285.573 126.943 285.5 126.938C285.432 126.932 285.357 126.93 285.273 126.93C284.565 126.93 284.021 127.159 283.641 127.617C283.26 128.07 283.07 128.594 283.07 129.188V134H281.664V125.633ZM290.273 133.094C291.206 133.094 291.844 132.742 292.188 132.039C292.536 131.331 292.711 130.544 292.711 129.68C292.711 128.898 292.586 128.263 292.336 127.773C291.94 127.003 291.258 126.617 290.289 126.617C289.43 126.617 288.805 126.945 288.414 127.602C288.023 128.258 287.828 129.049 287.828 129.977C287.828 130.867 288.023 131.609 288.414 132.203C288.805 132.797 289.424 133.094 290.273 133.094ZM290.328 125.391C291.406 125.391 292.318 125.75 293.062 126.469C293.807 127.188 294.18 128.245 294.18 129.641C294.18 130.99 293.852 132.104 293.195 132.984C292.539 133.865 291.521 134.305 290.141 134.305C288.99 134.305 288.076 133.917 287.398 133.141C286.721 132.359 286.383 131.312 286.383 130C286.383 128.594 286.74 127.474 287.453 126.641C288.167 125.807 289.125 125.391 290.328 125.391ZM297.266 125.633V131.188C297.266 131.615 297.333 131.964 297.469 132.234C297.719 132.734 298.185 132.984 298.867 132.984C299.846 132.984 300.513 132.547 300.867 131.672C301.06 131.203 301.156 130.56 301.156 129.742V125.633H302.562V134H301.234L301.25 132.766C301.068 133.083 300.841 133.352 300.57 133.57C300.034 134.008 299.383 134.227 298.617 134.227C297.424 134.227 296.612 133.828 296.18 133.031C295.945 132.604 295.828 132.034 295.828 131.32V125.633H297.266ZM305.047 123.297H306.469V125.633H307.805V126.781H306.469V132.242C306.469 132.534 306.568 132.729 306.766 132.828C306.875 132.885 307.057 132.914 307.312 132.914C307.38 132.914 307.453 132.914 307.531 132.914C307.609 132.909 307.701 132.901 307.805 132.891V134C307.643 134.047 307.474 134.081 307.297 134.102C307.125 134.122 306.938 134.133 306.734 134.133C306.078 134.133 305.633 133.966 305.398 133.633C305.164 133.294 305.047 132.857 305.047 132.32V126.781H303.914V125.633H305.047V123.297ZM312.703 125.445C313.297 125.445 313.872 125.586 314.43 125.867C314.987 126.143 315.411 126.503 315.703 126.945C315.984 127.367 316.172 127.859 316.266 128.422C316.349 128.807 316.391 129.422 316.391 130.266H310.258C310.284 131.115 310.484 131.797 310.859 132.312C311.234 132.823 311.815 133.078 312.602 133.078C313.336 133.078 313.922 132.836 314.359 132.352C314.609 132.07 314.786 131.745 314.891 131.375H316.273C316.237 131.682 316.115 132.026 315.906 132.406C315.703 132.781 315.474 133.089 315.219 133.328C314.792 133.745 314.263 134.026 313.633 134.172C313.294 134.255 312.911 134.297 312.484 134.297C311.443 134.297 310.56 133.919 309.836 133.164C309.112 132.404 308.75 131.341 308.75 129.977C308.75 128.633 309.115 127.542 309.844 126.703C310.573 125.865 311.526 125.445 312.703 125.445ZM314.945 129.148C314.888 128.539 314.755 128.052 314.547 127.688C314.161 127.01 313.518 126.672 312.617 126.672C311.971 126.672 311.43 126.906 310.992 127.375C310.555 127.839 310.323 128.43 310.297 129.148H314.945ZM318.164 125.633H319.5V127.078C319.609 126.797 319.878 126.456 320.305 126.055C320.732 125.648 321.224 125.445 321.781 125.445C321.807 125.445 321.852 125.448 321.914 125.453C321.977 125.458 322.083 125.469 322.234 125.484V126.969C322.151 126.953 322.073 126.943 322 126.938C321.932 126.932 321.857 126.93 321.773 126.93C321.065 126.93 320.521 127.159 320.141 127.617C319.76 128.07 319.57 128.594 319.57 129.188V134H318.164V125.633ZM20.1094 151.773C20.1094 152.18 20.2578 152.5 20.5547 152.734C20.8516 152.969 21.2031 153.086 21.6094 153.086C22.1042 153.086 22.5833 152.971 23.0469 152.742C23.8281 152.362 24.2188 151.74 24.2188 150.875V149.742C24.0469 149.852 23.8255 149.943 23.5547 150.016C23.2839 150.089 23.0182 150.141 22.7578 150.172L21.9062 150.281C21.3958 150.349 21.013 150.456 20.7578 150.602C20.3255 150.846 20.1094 151.237 20.1094 151.773ZM23.5156 148.93C23.8385 148.888 24.0547 148.753 24.1641 148.523C24.2266 148.398 24.2578 148.219 24.2578 147.984C24.2578 147.505 24.0859 147.159 23.7422 146.945C23.4036 146.727 22.9167 146.617 22.2812 146.617C21.5469 146.617 21.026 146.815 20.7188 147.211C20.5469 147.43 20.4349 147.755 20.3828 148.188H19.0703C19.0964 147.156 19.4297 146.44 20.0703 146.039C20.7161 145.633 21.4635 145.43 22.3125 145.43C23.2969 145.43 24.0964 145.617 24.7109 145.992C25.3203 146.367 25.625 146.951 25.625 147.742V152.562C25.625 152.708 25.6536 152.826 25.7109 152.914C25.7734 153.003 25.901 153.047 26.0938 153.047C26.1562 153.047 26.2266 153.044 26.3047 153.039C26.3828 153.029 26.4661 153.016 26.5547 153V154.039C26.3359 154.102 26.1693 154.141 26.0547 154.156C25.9401 154.172 25.7839 154.18 25.5859 154.18C25.1016 154.18 24.75 154.008 24.5312 153.664C24.4167 153.482 24.3359 153.224 24.2891 152.891C24.0026 153.266 23.5911 153.591 23.0547 153.867C22.5182 154.143 21.9271 154.281 21.2812 154.281C20.5052 154.281 19.8698 154.047 19.375 153.578C18.8854 153.104 18.6406 152.513 18.6406 151.805C18.6406 151.029 18.8828 150.427 19.3672 150C19.8516 149.573 20.487 149.31 21.2734 149.211L23.5156 148.93ZM27.9375 145.633H29.2734V146.82C29.6693 146.331 30.0885 145.979 30.5312 145.766C30.974 145.552 31.4661 145.445 32.0078 145.445C33.1953 145.445 33.9974 145.859 34.4141 146.688C34.6432 147.141 34.7578 147.789 34.7578 148.633V154H33.3281V148.727C33.3281 148.216 33.2526 147.805 33.1016 147.492C32.8516 146.971 32.3984 146.711 31.7422 146.711C31.4089 146.711 31.1354 146.745 30.9219 146.812C30.5365 146.927 30.1979 147.156 29.9062 147.5C29.6719 147.776 29.5182 148.062 29.4453 148.359C29.3776 148.651 29.3438 149.07 29.3438 149.617V154H27.9375V145.633ZM37.7344 149.914C37.7344 150.81 37.9245 151.56 38.3047 152.164C38.6849 152.768 39.2943 153.07 40.1328 153.07C40.7839 153.07 41.3177 152.792 41.7344 152.234C42.1562 151.672 42.3672 150.867 42.3672 149.82C42.3672 148.763 42.151 147.982 41.7188 147.477C41.2865 146.966 40.7526 146.711 40.1172 146.711C39.4089 146.711 38.8333 146.982 38.3906 147.523C37.9531 148.065 37.7344 148.862 37.7344 149.914ZM39.8516 145.484C40.4922 145.484 41.0286 145.62 41.4609 145.891C41.7109 146.047 41.9948 146.32 42.3125 146.711V142.484H43.6641V154H42.3984V152.836C42.0703 153.352 41.6823 153.724 41.2344 153.953C40.7865 154.182 40.2734 154.297 39.6953 154.297C38.763 154.297 37.9557 153.906 37.2734 153.125C36.5911 152.339 36.25 151.294 36.25 149.992C36.25 148.773 36.5599 147.719 37.1797 146.828C37.8047 145.932 38.6953 145.484 39.8516 145.484ZM50.8516 145.633L52.4609 152.227L54.0938 145.633H55.6719L57.3125 152.188L59.0234 145.633H60.4297L58 154H56.5391L54.8359 147.523L53.1875 154H51.7266L49.3125 145.633H50.8516ZM62.8438 151.773C62.8438 152.18 62.9922 152.5 63.2891 152.734C63.5859 152.969 63.9375 153.086 64.3438 153.086C64.8385 153.086 65.3177 152.971 65.7812 152.742C66.5625 152.362 66.9531 151.74 66.9531 150.875V149.742C66.7812 149.852 66.5599 149.943 66.2891 150.016C66.0182 150.089 65.7526 150.141 65.4922 150.172L64.6406 150.281C64.1302 150.349 63.7474 150.456 63.4922 150.602C63.0599 150.846 62.8438 151.237 62.8438 151.773ZM66.25 148.93C66.5729 148.888 66.7891 148.753 66.8984 148.523C66.9609 148.398 66.9922 148.219 66.9922 147.984C66.9922 147.505 66.8203 147.159 66.4766 146.945C66.138 146.727 65.651 146.617 65.0156 146.617C64.2812 146.617 63.7604 146.815 63.4531 147.211C63.2812 147.43 63.1693 147.755 63.1172 148.188H61.8047C61.8307 147.156 62.1641 146.44 62.8047 146.039C63.4505 145.633 64.1979 145.43 65.0469 145.43C66.0312 145.43 66.8307 145.617 67.4453 145.992C68.0547 146.367 68.3594 146.951 68.3594 147.742V152.562C68.3594 152.708 68.388 152.826 68.4453 152.914C68.5078 153.003 68.6354 153.047 68.8281 153.047C68.8906 153.047 68.9609 153.044 69.0391 153.039C69.1172 153.029 69.2005 153.016 69.2891 153V154.039C69.0703 154.102 68.9036 154.141 68.7891 154.156C68.6745 154.172 68.5182 154.18 68.3203 154.18C67.8359 154.18 67.4844 154.008 67.2656 153.664C67.151 153.482 67.0703 153.224 67.0234 152.891C66.737 153.266 66.3255 153.591 65.7891 153.867C65.2526 154.143 64.6615 154.281 64.0156 154.281C63.2396 154.281 62.6042 154.047 62.1094 153.578C61.6198 153.104 61.375 152.513 61.375 151.805C61.375 151.029 61.6172 150.427 62.1016 150C62.5859 149.573 63.2214 149.31 64.0078 149.211L66.25 148.93ZM70.9531 143.297H72.375V145.633H73.7109V146.781H72.375V152.242C72.375 152.534 72.474 152.729 72.6719 152.828C72.7812 152.885 72.9635 152.914 73.2188 152.914C73.2865 152.914 73.3594 152.914 73.4375 152.914C73.5156 152.909 73.6068 152.901 73.7109 152.891V154C73.5495 154.047 73.3802 154.081 73.2031 154.102C73.0312 154.122 72.8438 154.133 72.6406 154.133C71.9844 154.133 71.5391 153.966 71.3047 153.633C71.0703 153.294 70.9531 152.857 70.9531 152.32V146.781H69.8203V145.633H70.9531V143.297ZM78.6094 145.445C79.2031 145.445 79.7786 145.586 80.3359 145.867C80.8932 146.143 81.3177 146.503 81.6094 146.945C81.8906 147.367 82.0781 147.859 82.1719 148.422C82.2552 148.807 82.2969 149.422 82.2969 150.266H76.1641C76.1901 151.115 76.3906 151.797 76.7656 152.312C77.1406 152.823 77.7214 153.078 78.5078 153.078C79.2422 153.078 79.8281 152.836 80.2656 152.352C80.5156 152.07 80.6927 151.745 80.7969 151.375H82.1797C82.1432 151.682 82.0208 152.026 81.8125 152.406C81.6094 152.781 81.3802 153.089 81.125 153.328C80.6979 153.745 80.1693 154.026 79.5391 154.172C79.2005 154.255 78.8177 154.297 78.3906 154.297C77.349 154.297 76.4661 153.919 75.7422 153.164C75.0182 152.404 74.6562 151.341 74.6562 149.977C74.6562 148.633 75.0208 147.542 75.75 146.703C76.4792 145.865 77.4323 145.445 78.6094 145.445ZM80.8516 149.148C80.7943 148.539 80.6615 148.052 80.4531 147.688C80.0677 147.01 79.4245 146.672 78.5234 146.672C77.8776 146.672 77.3359 146.906 76.8984 147.375C76.4609 147.839 76.2292 148.43 76.2031 149.148H80.8516ZM84.0703 145.633H85.4062V147.078C85.5156 146.797 85.7839 146.456 86.2109 146.055C86.638 145.648 87.1302 145.445 87.6875 145.445C87.7135 145.445 87.7578 145.448 87.8203 145.453C87.8828 145.458 87.9896 145.469 88.1406 145.484V146.969C88.0573 146.953 87.9792 146.943 87.9062 146.938C87.8385 146.932 87.763 146.93 87.6797 146.93C86.9714 146.93 86.4271 147.159 86.0469 147.617C85.6667 148.07 85.4766 148.594 85.4766 149.188V154H84.0703V145.633ZM93.8125 145.633H95.2031V146.82C95.5365 146.409 95.8385 146.109 96.1094 145.922C96.5729 145.604 97.099 145.445 97.6875 145.445C98.3542 145.445 98.8906 145.609 99.2969 145.938C99.526 146.125 99.7344 146.401 99.9219 146.766C100.234 146.318 100.602 145.987 101.023 145.773C101.445 145.555 101.919 145.445 102.445 145.445C103.57 145.445 104.336 145.852 104.742 146.664C104.961 147.102 105.07 147.69 105.07 148.43V154H103.609V148.188C103.609 147.63 103.469 147.247 103.188 147.039C102.911 146.831 102.573 146.727 102.172 146.727C101.62 146.727 101.143 146.911 100.742 147.281C100.346 147.651 100.148 148.268 100.148 149.133V154H98.7188V148.539C98.7188 147.971 98.651 147.557 98.5156 147.297C98.3021 146.906 97.9036 146.711 97.3203 146.711C96.7891 146.711 96.3047 146.917 95.8672 147.328C95.4349 147.74 95.2188 148.484 95.2188 149.562V154H93.8125V145.633ZM110.625 145.445C111.219 145.445 111.794 145.586 112.352 145.867C112.909 146.143 113.333 146.503 113.625 146.945C113.906 147.367 114.094 147.859 114.188 148.422C114.271 148.807 114.312 149.422 114.312 150.266H108.18C108.206 151.115 108.406 151.797 108.781 152.312C109.156 152.823 109.737 153.078 110.523 153.078C111.258 153.078 111.844 152.836 112.281 152.352C112.531 152.07 112.708 151.745 112.812 151.375H114.195C114.159 151.682 114.036 152.026 113.828 152.406C113.625 152.781 113.396 153.089 113.141 153.328C112.714 153.745 112.185 154.026 111.555 154.172C111.216 154.255 110.833 154.297 110.406 154.297C109.365 154.297 108.482 153.919 107.758 153.164C107.034 152.404 106.672 151.341 106.672 149.977C106.672 148.633 107.036 147.542 107.766 146.703C108.495 145.865 109.448 145.445 110.625 145.445ZM112.867 149.148C112.81 148.539 112.677 148.052 112.469 147.688C112.083 147.01 111.44 146.672 110.539 146.672C109.893 146.672 109.352 146.906 108.914 147.375C108.477 147.839 108.245 148.43 108.219 149.148H112.867ZM116.328 143.297H117.75V145.633H119.086V146.781H117.75V152.242C117.75 152.534 117.849 152.729 118.047 152.828C118.156 152.885 118.339 152.914 118.594 152.914C118.661 152.914 118.734 152.914 118.812 152.914C118.891 152.909 118.982 152.901 119.086 152.891V154C118.924 154.047 118.755 154.081 118.578 154.102C118.406 154.122 118.219 154.133 118.016 154.133C117.359 154.133 116.914 153.966 116.68 153.633C116.445 153.294 116.328 152.857 116.328 152.32V146.781H115.195V145.633H116.328V143.297ZM123.984 145.445C124.578 145.445 125.154 145.586 125.711 145.867C126.268 146.143 126.693 146.503 126.984 146.945C127.266 147.367 127.453 147.859 127.547 148.422C127.63 148.807 127.672 149.422 127.672 150.266H121.539C121.565 151.115 121.766 151.797 122.141 152.312C122.516 152.823 123.096 153.078 123.883 153.078C124.617 153.078 125.203 152.836 125.641 152.352C125.891 152.07 126.068 151.745 126.172 151.375H127.555C127.518 151.682 127.396 152.026 127.188 152.406C126.984 152.781 126.755 153.089 126.5 153.328C126.073 153.745 125.544 154.026 124.914 154.172C124.576 154.255 124.193 154.297 123.766 154.297C122.724 154.297 121.841 153.919 121.117 153.164C120.393 152.404 120.031 151.341 120.031 149.977C120.031 148.633 120.396 147.542 121.125 146.703C121.854 145.865 122.807 145.445 123.984 145.445ZM126.227 149.148C126.169 148.539 126.036 148.052 125.828 147.688C125.443 147.01 124.799 146.672 123.898 146.672C123.253 146.672 122.711 146.906 122.273 147.375C121.836 147.839 121.604 148.43 121.578 149.148H126.227ZM129.445 145.633H130.781V147.078C130.891 146.797 131.159 146.456 131.586 146.055C132.013 145.648 132.505 145.445 133.062 145.445C133.089 145.445 133.133 145.448 133.195 145.453C133.258 145.458 133.365 145.469 133.516 145.484V146.969C133.432 146.953 133.354 146.943 133.281 146.938C133.214 146.932 133.138 146.93 133.055 146.93C132.346 146.93 131.802 147.159 131.422 147.617C131.042 148.07 130.852 148.594 130.852 149.188V154H129.445V145.633ZM135.57 151.375C135.612 151.844 135.729 152.203 135.922 152.453C136.276 152.906 136.891 153.133 137.766 153.133C138.286 153.133 138.745 153.021 139.141 152.797C139.536 152.568 139.734 152.216 139.734 151.742C139.734 151.383 139.576 151.109 139.258 150.922C139.055 150.807 138.654 150.674 138.055 150.523L136.938 150.242C136.224 150.065 135.698 149.867 135.359 149.648C134.755 149.268 134.453 148.742 134.453 148.07C134.453 147.279 134.737 146.638 135.305 146.148C135.878 145.659 136.646 145.414 137.609 145.414C138.87 145.414 139.779 145.784 140.336 146.523C140.685 146.992 140.854 147.497 140.844 148.039H139.516C139.49 147.721 139.378 147.432 139.18 147.172C138.857 146.802 138.297 146.617 137.5 146.617C136.969 146.617 136.565 146.719 136.289 146.922C136.018 147.125 135.883 147.393 135.883 147.727C135.883 148.091 136.062 148.383 136.422 148.602C136.63 148.732 136.938 148.846 137.344 148.945L138.273 149.172C139.284 149.417 139.961 149.654 140.305 149.883C140.852 150.242 141.125 150.807 141.125 151.578C141.125 152.323 140.841 152.966 140.273 153.508C139.711 154.049 138.852 154.32 137.695 154.32C136.451 154.32 135.568 154.039 135.047 153.477C134.531 152.909 134.255 152.208 134.219 151.375H135.57ZM146.438 142.523L146.203 147.117H145.258L145.016 142.523H146.438ZM143.758 142.523L143.531 147.117H142.586L142.344 142.523H143.758Z" fill="black"/>
<rect x="18" y="578" width="328" height="48" rx="8" fill="#1655F5"/>
<path d="M172.266 604.125C172.266 603.859 172.224 603.625 172.141 603.422C172.062 603.214 171.922 603.026 171.719 602.859C171.521 602.693 171.245 602.534 170.891 602.383C170.542 602.232 170.099 602.078 169.562 601.922C169 601.755 168.492 601.57 168.039 601.367C167.586 601.159 167.198 600.922 166.875 600.656C166.552 600.391 166.305 600.086 166.133 599.742C165.961 599.398 165.875 599.005 165.875 598.562C165.875 598.12 165.966 597.711 166.148 597.336C166.331 596.961 166.591 596.635 166.93 596.359C167.273 596.078 167.682 595.859 168.156 595.703C168.63 595.547 169.159 595.469 169.742 595.469C170.596 595.469 171.32 595.633 171.914 595.961C172.513 596.284 172.969 596.708 173.281 597.234C173.594 597.755 173.75 598.312 173.75 598.906H172.25C172.25 598.479 172.159 598.102 171.977 597.773C171.794 597.44 171.518 597.18 171.148 596.992C170.779 596.799 170.31 596.703 169.742 596.703C169.206 596.703 168.763 596.784 168.414 596.945C168.065 597.107 167.805 597.326 167.633 597.602C167.466 597.878 167.383 598.193 167.383 598.547C167.383 598.786 167.432 599.005 167.531 599.203C167.635 599.396 167.794 599.576 168.008 599.742C168.227 599.909 168.503 600.062 168.836 600.203C169.174 600.344 169.578 600.479 170.047 600.609C170.693 600.792 171.25 600.995 171.719 601.219C172.188 601.443 172.573 601.695 172.875 601.977C173.182 602.253 173.409 602.568 173.555 602.922C173.706 603.271 173.781 603.667 173.781 604.109C173.781 604.573 173.688 604.992 173.5 605.367C173.312 605.742 173.044 606.062 172.695 606.328C172.346 606.594 171.927 606.799 171.438 606.945C170.953 607.086 170.411 607.156 169.812 607.156C169.286 607.156 168.768 607.083 168.258 606.938C167.753 606.792 167.292 606.573 166.875 606.281C166.464 605.99 166.133 605.63 165.883 605.203C165.638 604.771 165.516 604.271 165.516 603.703H167.016C167.016 604.094 167.091 604.43 167.242 604.711C167.393 604.987 167.599 605.216 167.859 605.398C168.125 605.581 168.424 605.716 168.758 605.805C169.096 605.888 169.448 605.93 169.812 605.93C170.339 605.93 170.784 605.857 171.148 605.711C171.513 605.565 171.789 605.357 171.977 605.086C172.169 604.815 172.266 604.495 172.266 604.125ZM179.023 598.547V599.656H174.453V598.547H179.023ZM176 596.492H177.445V604.906C177.445 605.193 177.49 605.409 177.578 605.555C177.667 605.701 177.781 605.797 177.922 605.844C178.062 605.891 178.214 605.914 178.375 605.914C178.495 605.914 178.62 605.904 178.75 605.883C178.885 605.857 178.987 605.836 179.055 605.82L179.062 607C178.948 607.036 178.797 607.07 178.609 607.102C178.427 607.138 178.206 607.156 177.945 607.156C177.591 607.156 177.266 607.086 176.969 606.945C176.672 606.805 176.435 606.57 176.258 606.242C176.086 605.909 176 605.461 176 604.898V596.492ZM185.703 605.555V601.203C185.703 600.87 185.635 600.581 185.5 600.336C185.37 600.086 185.172 599.893 184.906 599.758C184.641 599.622 184.312 599.555 183.922 599.555C183.557 599.555 183.237 599.617 182.961 599.742C182.69 599.867 182.477 600.031 182.32 600.234C182.169 600.438 182.094 600.656 182.094 600.891H180.648C180.648 600.589 180.727 600.289 180.883 599.992C181.039 599.695 181.263 599.427 181.555 599.188C181.852 598.943 182.206 598.75 182.617 598.609C183.034 598.464 183.497 598.391 184.008 598.391C184.622 598.391 185.164 598.495 185.633 598.703C186.107 598.911 186.477 599.227 186.742 599.648C187.013 600.065 187.148 600.589 187.148 601.219V605.156C187.148 605.438 187.172 605.737 187.219 606.055C187.271 606.372 187.346 606.646 187.445 606.875V607H185.938C185.865 606.833 185.807 606.612 185.766 606.336C185.724 606.055 185.703 605.794 185.703 605.555ZM185.953 601.875L185.969 602.891H184.508C184.096 602.891 183.729 602.924 183.406 602.992C183.083 603.055 182.812 603.151 182.594 603.281C182.375 603.411 182.208 603.576 182.094 603.773C181.979 603.966 181.922 604.193 181.922 604.453C181.922 604.719 181.982 604.961 182.102 605.18C182.221 605.398 182.401 605.573 182.641 605.703C182.885 605.828 183.185 605.891 183.539 605.891C183.982 605.891 184.372 605.797 184.711 605.609C185.049 605.422 185.318 605.193 185.516 604.922C185.719 604.651 185.828 604.388 185.844 604.133L186.461 604.828C186.424 605.047 186.326 605.289 186.164 605.555C186.003 605.82 185.786 606.076 185.516 606.32C185.25 606.56 184.932 606.76 184.562 606.922C184.198 607.078 183.786 607.156 183.328 607.156C182.755 607.156 182.253 607.044 181.82 606.82C181.393 606.596 181.06 606.297 180.82 605.922C180.586 605.542 180.469 605.117 180.469 604.648C180.469 604.195 180.557 603.797 180.734 603.453C180.911 603.104 181.167 602.815 181.5 602.586C181.833 602.352 182.234 602.174 182.703 602.055C183.172 601.935 183.695 601.875 184.273 601.875H185.953ZM190.867 599.875V607H189.422V598.547H190.828L190.867 599.875ZM193.508 598.5L193.5 599.844C193.38 599.818 193.266 599.802 193.156 599.797C193.052 599.786 192.932 599.781 192.797 599.781C192.464 599.781 192.169 599.833 191.914 599.938C191.659 600.042 191.443 600.188 191.266 600.375C191.089 600.562 190.948 600.786 190.844 601.047C190.745 601.302 190.68 601.583 190.648 601.891L190.242 602.125C190.242 601.615 190.292 601.135 190.391 600.688C190.495 600.24 190.654 599.844 190.867 599.5C191.081 599.151 191.352 598.88 191.68 598.688C192.013 598.49 192.409 598.391 192.867 598.391C192.971 598.391 193.091 598.404 193.227 598.43C193.362 598.451 193.456 598.474 193.508 598.5ZM198.773 598.547V599.656H194.203V598.547H198.773ZM195.75 596.492H197.195V604.906C197.195 605.193 197.24 605.409 197.328 605.555C197.417 605.701 197.531 605.797 197.672 605.844C197.812 605.891 197.964 605.914 198.125 605.914C198.245 605.914 198.37 605.904 198.5 605.883C198.635 605.857 198.737 605.836 198.805 605.82L198.812 607C198.698 607.036 198.547 607.07 198.359 607.102C198.177 607.138 197.956 607.156 197.695 607.156C197.341 607.156 197.016 607.086 196.719 606.945C196.422 606.805 196.185 606.57 196.008 606.242C195.836 605.909 195.75 605.461 195.75 604.898V596.492Z" fill="#FBF3F3"/>
<defs>
<clipPath id="clip0_553_2991">
<rect width="328" height="16" fill="white" transform="translate(18 18)"/>
</clipPath>
<clipPath id="clip1_553_2991">
<rect width="70.5714" height="13" fill="white" transform="translate(34 20)"/>
</clipPath>
</defs>
</svg>
