<svg width="1424" height="1834" viewBox="0 0 1424 1834" fill="none" xmlns="http://www.w3.org/2000/svg">
<path d="M40 52C40 45.3725 45.3726 40 52 40H1372C1378.63 40 1384 45.3726 1384 52V1782C1384 1788.63 1378.63 1794 1372 1794H52C45.3726 1794 40 1788.63 40 1782V52Z" fill="#FBFBFB"/>
<path d="M52 41H1372V39H52V41ZM1383 52V1782H1385V52H1383ZM1372 1793H52V1795H1372V1793ZM41 1782V52H39V1782H41ZM52 1793C45.9249 1793 41 1788.08 41 1782H39C39 1789.18 44.8203 1795 52 1795V1793ZM1383 1782C1383 1788.08 1378.08 1793 1372 1793V1795C1379.18 1795 1385 1789.18 1385 1782H1383ZM1372 41C1378.08 41 1383 45.9249 1383 52H1385C1385 44.8203 1379.18 39 1372 39V41ZM52 39C44.8203 39 39 44.8203 39 52H41C41 45.9248 45.9249 41 52 41V39Z" fill="#E6E6E6"/>
<g filter="url(#filter0_ddd_312_4826)">
<rect width="240" height="240" transform="translate(104 1453)" fill="#E6E6E6"/>
<path d="M124.705 1480.88V1479.36H133.71V1480.88H130.08V1491H128.33V1480.88H124.705ZM145.132 1485.18C145.132 1486.42 144.905 1487.49 144.45 1488.39C143.996 1489.28 143.373 1489.96 142.581 1490.44C141.793 1490.92 140.897 1491.16 139.894 1491.16C138.886 1491.16 137.986 1490.92 137.195 1490.44C136.407 1489.96 135.786 1489.27 135.331 1488.38C134.877 1487.49 134.649 1486.42 134.649 1485.18C134.649 1483.94 134.877 1482.87 135.331 1481.98C135.786 1481.09 136.407 1480.4 137.195 1479.93C137.986 1479.45 138.886 1479.2 139.894 1479.2C140.897 1479.2 141.793 1479.45 142.581 1479.93C143.373 1480.4 143.996 1481.09 144.45 1481.98C144.905 1482.87 145.132 1483.94 145.132 1485.18ZM143.394 1485.18C143.394 1484.23 143.24 1483.44 142.933 1482.79C142.63 1482.14 142.214 1481.65 141.683 1481.31C141.157 1480.98 140.56 1480.81 139.894 1480.81C139.223 1480.81 138.625 1480.98 138.098 1481.31C137.572 1481.65 137.155 1482.14 136.848 1482.79C136.545 1483.44 136.394 1484.23 136.394 1485.18C136.394 1486.13 136.545 1486.93 136.848 1487.58C137.155 1488.23 137.572 1488.72 138.098 1489.06C138.625 1489.39 139.223 1489.56 139.894 1489.56C140.56 1489.56 141.157 1489.39 141.683 1489.06C142.214 1488.72 142.63 1488.23 142.933 1487.58C143.24 1486.93 143.394 1486.13 143.394 1485.18ZM154.971 1491H151.204V1479.36H155.09C156.23 1479.36 157.209 1479.6 158.027 1480.06C158.846 1480.52 159.472 1481.19 159.908 1482.06C160.347 1482.92 160.567 1483.96 160.567 1485.16C160.567 1486.38 160.346 1487.42 159.902 1488.29C159.463 1489.16 158.827 1489.83 157.993 1490.3C157.16 1490.77 156.152 1491 154.971 1491ZM152.959 1489.47H154.874C155.76 1489.47 156.497 1489.3 157.084 1488.97C157.671 1488.63 158.111 1488.14 158.402 1487.51C158.694 1486.87 158.84 1486.09 158.84 1485.16C158.84 1484.25 158.694 1483.48 158.402 1482.84C158.115 1482.2 157.685 1481.72 157.113 1481.39C156.541 1481.06 155.83 1480.9 154.982 1480.9H152.959V1489.47ZM172.682 1485.18C172.682 1486.42 172.455 1487.49 172.001 1488.39C171.546 1489.28 170.923 1489.96 170.131 1490.44C169.343 1490.92 168.448 1491.16 167.444 1491.16C166.436 1491.16 165.537 1490.92 164.745 1490.44C163.957 1489.96 163.336 1489.27 162.881 1488.38C162.427 1487.49 162.199 1486.42 162.199 1485.18C162.199 1483.94 162.427 1482.87 162.881 1481.98C163.336 1481.09 163.957 1480.4 164.745 1479.93C165.537 1479.45 166.436 1479.2 167.444 1479.2C168.448 1479.2 169.343 1479.45 170.131 1479.93C170.923 1480.4 171.546 1481.09 172.001 1481.98C172.455 1482.87 172.682 1483.94 172.682 1485.18ZM170.944 1485.18C170.944 1484.23 170.79 1483.44 170.484 1482.79C170.18 1482.14 169.764 1481.65 169.234 1481.31C168.707 1480.98 168.11 1480.81 167.444 1480.81C166.773 1480.81 166.175 1480.98 165.648 1481.31C165.122 1481.65 164.705 1482.14 164.398 1482.79C164.095 1483.44 163.944 1484.23 163.944 1485.18C163.944 1486.13 164.095 1486.93 164.398 1487.58C164.705 1488.23 165.122 1488.72 165.648 1489.06C166.175 1489.39 166.773 1489.56 167.444 1489.56C168.11 1489.56 168.707 1489.39 169.234 1489.06C169.764 1488.72 170.18 1488.23 170.484 1487.58C170.79 1486.93 170.944 1486.13 170.944 1485.18ZM183.759 1484.44V1485.92H178.6V1484.44H183.759ZM197.525 1479.36H199.287V1487.02C199.287 1487.83 199.095 1488.55 198.713 1489.18C198.33 1489.81 197.792 1490.3 197.099 1490.66C196.406 1491.02 195.593 1491.19 194.662 1491.19C193.734 1491.19 192.923 1491.02 192.23 1490.66C191.537 1490.3 190.999 1489.81 190.616 1489.18C190.234 1488.55 190.042 1487.83 190.042 1487.02V1479.36H191.798V1486.88C191.798 1487.4 191.913 1487.87 192.145 1488.28C192.379 1488.69 192.711 1489.01 193.139 1489.24C193.567 1489.48 194.074 1489.59 194.662 1489.59C195.253 1489.59 195.762 1489.48 196.19 1489.24C196.622 1489.01 196.951 1488.69 197.179 1488.28C197.41 1487.87 197.525 1487.4 197.525 1486.88V1479.36ZM208.067 1484.4L206.527 1484.68C206.462 1484.48 206.36 1484.29 206.22 1484.11C206.084 1483.94 205.898 1483.79 205.663 1483.68C205.428 1483.56 205.135 1483.51 204.782 1483.51C204.301 1483.51 203.9 1483.61 203.578 1483.83C203.256 1484.04 203.095 1484.32 203.095 1484.65C203.095 1484.95 203.203 1485.18 203.419 1485.36C203.635 1485.54 203.983 1485.68 204.464 1485.8L205.851 1486.11C206.654 1486.3 207.252 1486.59 207.646 1486.97C208.04 1487.36 208.237 1487.86 208.237 1488.48C208.237 1489 208.086 1489.47 207.782 1489.88C207.483 1490.28 207.065 1490.6 206.527 1490.83C205.993 1491.06 205.373 1491.18 204.669 1491.18C203.692 1491.18 202.894 1490.97 202.277 1490.55C201.659 1490.13 201.281 1489.53 201.14 1488.76L202.782 1488.51C202.885 1488.94 203.095 1489.26 203.413 1489.48C203.731 1489.7 204.146 1489.81 204.657 1489.81C205.214 1489.81 205.659 1489.69 205.993 1489.46C206.326 1489.23 206.493 1488.94 206.493 1488.6C206.493 1488.33 206.39 1488.1 206.186 1487.91C205.985 1487.73 205.676 1487.59 205.26 1487.49L203.782 1487.17C202.968 1486.98 202.366 1486.69 201.976 1486.28C201.589 1485.88 201.396 1485.37 201.396 1484.74C201.396 1484.23 201.54 1483.78 201.828 1483.39C202.116 1483.01 202.514 1482.7 203.021 1482.49C203.529 1482.27 204.11 1482.16 204.765 1482.16C205.709 1482.16 206.451 1482.36 206.993 1482.77C207.534 1483.18 207.892 1483.72 208.067 1484.4ZM213.69 1491.18C212.83 1491.18 212.09 1490.99 211.469 1490.62C210.851 1490.25 210.374 1489.73 210.037 1489.06C209.704 1488.39 209.537 1487.6 209.537 1486.69C209.537 1485.8 209.704 1485.01 210.037 1484.33C210.374 1483.65 210.844 1483.12 211.446 1482.73C212.052 1482.35 212.76 1482.16 213.571 1482.16C214.063 1482.16 214.541 1482.24 215.003 1482.4C215.465 1482.57 215.88 1482.82 216.247 1483.17C216.615 1483.52 216.904 1483.97 217.116 1484.53C217.329 1485.08 217.435 1485.75 217.435 1486.55V1487.15H210.497V1485.88H215.77C215.77 1485.43 215.679 1485.03 215.497 1484.69C215.315 1484.34 215.06 1484.06 214.73 1483.86C214.404 1483.66 214.022 1483.56 213.582 1483.56C213.105 1483.56 212.688 1483.68 212.332 1483.91C211.98 1484.15 211.707 1484.45 211.514 1484.82C211.325 1485.2 211.23 1485.6 211.23 1486.03V1487.03C211.23 1487.61 211.332 1488.11 211.537 1488.52C211.745 1488.93 212.035 1489.24 212.406 1489.45C212.777 1489.67 213.211 1489.77 213.707 1489.77C214.029 1489.77 214.323 1489.73 214.588 1489.64C214.853 1489.54 215.082 1489.4 215.276 1489.22C215.469 1489.03 215.616 1488.8 215.719 1488.53L217.327 1488.82C217.198 1489.29 216.967 1489.71 216.633 1490.06C216.304 1490.41 215.889 1490.69 215.389 1490.89C214.893 1491.08 214.327 1491.18 213.69 1491.18ZM219.144 1491V1482.27H220.786V1483.66H220.877C221.036 1483.19 221.316 1482.82 221.717 1482.55C222.123 1482.28 222.581 1482.14 223.092 1482.14C223.198 1482.14 223.323 1482.15 223.467 1482.15C223.615 1482.16 223.731 1482.17 223.814 1482.18V1483.81C223.746 1483.79 223.625 1483.77 223.45 1483.74C223.276 1483.72 223.102 1483.7 222.928 1483.7C222.526 1483.7 222.168 1483.79 221.854 1483.96C221.543 1484.13 221.297 1484.36 221.115 1484.66C220.933 1484.95 220.842 1485.29 220.842 1485.67V1491H219.144ZM232.843 1491.18C231.998 1491.18 231.271 1490.98 230.661 1490.6C230.055 1490.22 229.589 1489.68 229.263 1489.01C228.937 1488.33 228.774 1487.55 228.774 1486.68C228.774 1485.79 228.941 1485.01 229.274 1484.33C229.608 1483.65 230.078 1483.12 230.684 1482.73C231.29 1482.35 232.004 1482.16 232.826 1482.16C233.489 1482.16 234.079 1482.28 234.598 1482.53C235.117 1482.77 235.536 1483.11 235.854 1483.55C236.176 1483.99 236.367 1484.5 236.428 1485.09H234.774C234.684 1484.68 234.475 1484.33 234.149 1484.03C233.828 1483.74 233.396 1483.59 232.854 1483.59C232.381 1483.59 231.966 1483.72 231.61 1483.97C231.257 1484.21 230.983 1484.56 230.786 1485.02C230.589 1485.48 230.49 1486.02 230.49 1486.64C230.49 1487.27 230.587 1487.82 230.78 1488.28C230.973 1488.75 231.246 1489.1 231.598 1489.36C231.954 1489.61 232.373 1489.74 232.854 1489.74C233.176 1489.74 233.468 1489.68 233.729 1489.56C233.994 1489.44 234.216 1489.27 234.394 1489.05C234.576 1488.82 234.703 1488.55 234.774 1488.24H236.428C236.367 1488.8 236.184 1489.31 235.877 1489.75C235.57 1490.19 235.159 1490.54 234.644 1490.8C234.132 1491.05 233.532 1491.18 232.843 1491.18ZM240.608 1491.19C240.055 1491.19 239.555 1491.09 239.108 1490.89C238.661 1490.68 238.307 1490.38 238.046 1489.98C237.788 1489.59 237.66 1489.11 237.66 1488.53C237.66 1488.04 237.754 1487.64 237.944 1487.32C238.133 1487 238.389 1486.75 238.711 1486.56C239.033 1486.38 239.393 1486.24 239.79 1486.14C240.188 1486.05 240.593 1485.98 241.006 1485.93C241.529 1485.87 241.953 1485.82 242.279 1485.78C242.605 1485.74 242.841 1485.67 242.989 1485.58C243.137 1485.49 243.211 1485.34 243.211 1485.14V1485.1C243.211 1484.6 243.071 1484.22 242.79 1483.94C242.514 1483.67 242.101 1483.53 241.552 1483.53C240.98 1483.53 240.529 1483.66 240.199 1483.91C239.874 1484.16 239.648 1484.44 239.523 1484.75L237.927 1484.39C238.116 1483.86 238.393 1483.43 238.756 1483.1C239.124 1482.77 239.546 1482.53 240.023 1482.39C240.5 1482.23 241.002 1482.16 241.529 1482.16C241.877 1482.16 242.247 1482.2 242.637 1482.28C243.031 1482.36 243.398 1482.51 243.739 1482.73C244.084 1482.94 244.366 1483.25 244.586 1483.65C244.805 1484.05 244.915 1484.57 244.915 1485.2V1491H243.256V1489.81H243.188C243.078 1490.03 242.913 1490.24 242.694 1490.45C242.474 1490.67 242.192 1490.84 241.847 1490.98C241.502 1491.12 241.09 1491.19 240.608 1491.19ZM240.978 1489.83C241.447 1489.83 241.849 1489.74 242.182 1489.55C242.519 1489.37 242.775 1489.12 242.949 1488.82C243.127 1488.52 243.216 1488.2 243.216 1487.85V1486.73C243.156 1486.79 243.038 1486.84 242.864 1486.9C242.694 1486.95 242.499 1486.99 242.279 1487.03C242.059 1487.06 241.845 1487.09 241.637 1487.12C241.429 1487.15 241.254 1487.17 241.114 1487.19C240.785 1487.23 240.483 1487.3 240.211 1487.4C239.942 1487.5 239.726 1487.64 239.563 1487.83C239.404 1488.01 239.324 1488.25 239.324 1488.56C239.324 1488.98 239.48 1489.3 239.79 1489.51C240.101 1489.72 240.497 1489.83 240.978 1489.83ZM248.701 1485.82V1491H247.002V1482.27H248.633V1483.69H248.741C248.941 1483.23 249.256 1482.86 249.684 1482.58C250.116 1482.3 250.659 1482.16 251.315 1482.16C251.909 1482.16 252.43 1482.28 252.877 1482.53C253.324 1482.78 253.671 1483.15 253.917 1483.64C254.163 1484.12 254.286 1484.73 254.286 1485.45V1491H252.587V1485.65C252.587 1485.02 252.423 1484.53 252.093 1484.17C251.763 1483.81 251.311 1483.63 250.735 1483.63C250.341 1483.63 249.991 1483.72 249.684 1483.89C249.381 1484.06 249.14 1484.31 248.962 1484.64C248.788 1484.96 248.701 1485.36 248.701 1485.82ZM257.849 1479.36V1480.45C257.849 1480.78 257.788 1481.12 257.667 1481.47C257.55 1481.82 257.383 1482.16 257.167 1482.49C256.951 1482.81 256.697 1483.09 256.406 1483.33L255.565 1482.73C255.788 1482.4 255.981 1482.05 256.144 1481.69C256.311 1481.32 256.394 1480.91 256.394 1480.47V1479.36H257.849ZM263.724 1482.27V1483.64H258.957V1482.27H263.724ZM260.235 1480.18H261.934V1488.44C261.934 1488.77 261.983 1489.02 262.082 1489.18C262.18 1489.34 262.307 1489.46 262.463 1489.52C262.622 1489.57 262.794 1489.6 262.98 1489.6C263.116 1489.6 263.235 1489.59 263.338 1489.57C263.44 1489.55 263.519 1489.54 263.576 1489.53L263.883 1490.93C263.785 1490.97 263.644 1491.01 263.463 1491.05C263.281 1491.09 263.053 1491.11 262.781 1491.11C262.334 1491.12 261.917 1491.04 261.531 1490.88C261.144 1490.71 260.832 1490.45 260.593 1490.1C260.355 1489.75 260.235 1489.32 260.235 1488.79V1480.18ZM273.162 1491.18C272.344 1491.18 271.629 1490.99 271.02 1490.61C270.41 1490.24 269.936 1489.71 269.599 1489.04C269.262 1488.37 269.094 1487.58 269.094 1486.68C269.094 1485.77 269.262 1484.98 269.599 1484.3C269.936 1483.62 270.41 1483.1 271.02 1482.72C271.629 1482.35 272.344 1482.16 273.162 1482.16C273.98 1482.16 274.694 1482.35 275.304 1482.72C275.914 1483.1 276.387 1483.62 276.724 1484.3C277.061 1484.98 277.23 1485.77 277.23 1486.68C277.23 1487.58 277.061 1488.37 276.724 1489.04C276.387 1489.71 275.914 1490.24 275.304 1490.61C274.694 1490.99 273.98 1491.18 273.162 1491.18ZM273.167 1489.75C273.698 1489.75 274.137 1489.61 274.486 1489.33C274.834 1489.05 275.092 1488.68 275.258 1488.21C275.429 1487.74 275.514 1487.23 275.514 1486.67C275.514 1486.11 275.429 1485.6 275.258 1485.14C275.092 1484.67 274.834 1484.29 274.486 1484.01C274.137 1483.72 273.698 1483.58 273.167 1483.58C272.633 1483.58 272.19 1483.72 271.838 1484.01C271.489 1484.29 271.23 1484.67 271.059 1485.14C270.893 1485.6 270.809 1486.11 270.809 1486.67C270.809 1487.23 270.893 1487.74 271.059 1488.21C271.23 1488.68 271.489 1489.05 271.838 1489.33C272.19 1489.61 272.633 1489.75 273.167 1489.75ZM278.95 1494.27V1482.27H280.609V1483.69H280.751C280.85 1483.51 280.992 1483.3 281.177 1483.06C281.363 1482.82 281.621 1482.61 281.95 1482.43C282.28 1482.25 282.715 1482.16 283.257 1482.16C283.962 1482.16 284.59 1482.34 285.143 1482.69C285.696 1483.05 286.13 1483.56 286.444 1484.23C286.763 1484.9 286.922 1485.71 286.922 1486.65C286.922 1487.6 286.765 1488.41 286.45 1489.08C286.136 1489.75 285.704 1490.27 285.155 1490.63C284.605 1490.99 283.979 1491.17 283.274 1491.17C282.744 1491.17 282.31 1491.08 281.973 1490.9C281.64 1490.73 281.378 1490.52 281.189 1490.28C280.999 1490.04 280.854 1489.83 280.751 1489.64H280.649V1494.27H278.95ZM280.615 1486.64C280.615 1487.25 280.704 1487.79 280.882 1488.25C281.06 1488.71 281.318 1489.07 281.655 1489.34C281.992 1489.59 282.405 1489.72 282.893 1489.72C283.401 1489.72 283.825 1489.59 284.166 1489.32C284.507 1489.05 284.765 1488.68 284.939 1488.21C285.117 1487.74 285.206 1487.22 285.206 1486.64C285.206 1486.06 285.119 1485.54 284.944 1485.09C284.774 1484.63 284.516 1484.27 284.172 1484C283.831 1483.73 283.405 1483.6 282.893 1483.6C282.401 1483.6 281.984 1483.73 281.643 1483.98C281.306 1484.24 281.051 1484.59 280.876 1485.05C280.702 1485.5 280.615 1486.03 280.615 1486.64ZM292.411 1491.18C291.551 1491.18 290.81 1490.99 290.189 1490.62C289.572 1490.25 289.094 1489.73 288.757 1489.06C288.424 1488.39 288.257 1487.6 288.257 1486.69C288.257 1485.8 288.424 1485.01 288.757 1484.33C289.094 1483.65 289.564 1483.12 290.166 1482.73C290.772 1482.35 291.481 1482.16 292.291 1482.16C292.784 1482.16 293.261 1482.24 293.723 1482.4C294.185 1482.57 294.6 1482.82 294.967 1483.17C295.335 1483.52 295.625 1483.97 295.837 1484.53C296.049 1485.08 296.155 1485.75 296.155 1486.55V1487.15H289.217V1485.88H294.49C294.49 1485.43 294.399 1485.03 294.217 1484.69C294.036 1484.34 293.78 1484.06 293.45 1483.86C293.125 1483.66 292.742 1483.56 292.303 1483.56C291.825 1483.56 291.409 1483.68 291.053 1483.91C290.7 1484.15 290.428 1484.45 290.234 1484.82C290.045 1485.2 289.95 1485.6 289.95 1486.03V1487.03C289.95 1487.61 290.053 1488.11 290.257 1488.52C290.465 1488.93 290.755 1489.24 291.126 1489.45C291.498 1489.67 291.931 1489.77 292.428 1489.77C292.75 1489.77 293.043 1489.73 293.308 1489.64C293.573 1489.54 293.803 1489.4 293.996 1489.22C294.189 1489.03 294.337 1488.8 294.439 1488.53L296.047 1488.82C295.918 1489.29 295.687 1489.71 295.354 1490.06C295.024 1490.41 294.609 1490.69 294.109 1490.89C293.613 1491.08 293.047 1491.18 292.411 1491.18ZM299.563 1485.82V1491H297.864V1482.27H299.494V1483.69H299.602C299.803 1483.23 300.118 1482.86 300.546 1482.58C300.977 1482.3 301.521 1482.16 302.176 1482.16C302.771 1482.16 303.292 1482.28 303.739 1482.53C304.186 1482.78 304.532 1483.15 304.779 1483.64C305.025 1484.12 305.148 1484.73 305.148 1485.45V1491H303.449V1485.65C303.449 1485.02 303.284 1484.53 302.955 1484.17C302.625 1483.81 302.173 1483.63 301.597 1483.63C301.203 1483.63 300.852 1483.72 300.546 1483.89C300.243 1484.06 300.002 1484.31 299.824 1484.64C299.65 1484.96 299.563 1485.36 299.563 1485.82ZM125.142 1518.27V1506.27H126.801V1507.69H126.943C127.042 1507.51 127.184 1507.3 127.369 1507.06C127.555 1506.82 127.813 1506.61 128.142 1506.43C128.472 1506.25 128.907 1506.16 129.449 1506.16C130.153 1506.16 130.782 1506.34 131.335 1506.69C131.888 1507.05 132.322 1507.56 132.636 1508.23C132.955 1508.9 133.114 1509.71 133.114 1510.65C133.114 1511.6 132.956 1512.41 132.642 1513.08C132.328 1513.75 131.896 1514.27 131.347 1514.63C130.797 1514.99 130.17 1515.17 129.466 1515.17C128.936 1515.17 128.502 1515.08 128.165 1514.9C127.831 1514.73 127.57 1514.52 127.381 1514.28C127.191 1514.04 127.045 1513.83 126.943 1513.64H126.841V1518.27H125.142ZM126.807 1510.64C126.807 1511.25 126.896 1511.79 127.074 1512.25C127.252 1512.71 127.509 1513.07 127.847 1513.34C128.184 1513.59 128.597 1513.72 129.085 1513.72C129.593 1513.72 130.017 1513.59 130.358 1513.32C130.699 1513.05 130.956 1512.68 131.131 1512.21C131.309 1511.74 131.398 1511.22 131.398 1510.64C131.398 1510.06 131.311 1509.54 131.136 1509.09C130.966 1508.63 130.708 1508.27 130.364 1508C130.023 1507.73 129.597 1507.6 129.085 1507.6C128.593 1507.6 128.176 1507.73 127.835 1507.98C127.498 1508.24 127.242 1508.59 127.068 1509.05C126.894 1509.5 126.807 1510.03 126.807 1510.64ZM137.381 1515.19C136.828 1515.19 136.328 1515.09 135.881 1514.89C135.434 1514.68 135.08 1514.38 134.818 1513.98C134.561 1513.59 134.432 1513.11 134.432 1512.53C134.432 1512.04 134.527 1511.64 134.716 1511.32C134.905 1511 135.161 1510.75 135.483 1510.56C135.805 1510.38 136.165 1510.24 136.563 1510.14C136.96 1510.05 137.366 1509.98 137.779 1509.93C138.301 1509.87 138.726 1509.82 139.051 1509.78C139.377 1509.74 139.614 1509.67 139.762 1509.58C139.909 1509.49 139.983 1509.34 139.983 1509.14V1509.1C139.983 1508.6 139.843 1508.22 139.563 1507.94C139.286 1507.67 138.873 1507.53 138.324 1507.53C137.752 1507.53 137.301 1507.66 136.972 1507.91C136.646 1508.16 136.421 1508.44 136.296 1508.75L134.699 1508.39C134.888 1507.86 135.165 1507.43 135.529 1507.1C135.896 1506.77 136.318 1506.53 136.796 1506.39C137.273 1506.23 137.775 1506.16 138.301 1506.16C138.65 1506.16 139.019 1506.2 139.409 1506.28C139.803 1506.36 140.171 1506.51 140.512 1506.73C140.856 1506.94 141.138 1507.25 141.358 1507.65C141.578 1508.05 141.688 1508.57 141.688 1509.2V1515H140.029V1513.81H139.96C139.851 1514.03 139.686 1514.24 139.466 1514.45C139.246 1514.67 138.964 1514.84 138.619 1514.98C138.275 1515.12 137.862 1515.19 137.381 1515.19ZM137.75 1513.83C138.22 1513.83 138.621 1513.74 138.955 1513.55C139.292 1513.37 139.547 1513.12 139.722 1512.82C139.9 1512.52 139.989 1512.2 139.989 1511.85V1510.73C139.928 1510.79 139.811 1510.84 139.637 1510.9C139.466 1510.95 139.271 1510.99 139.051 1511.03C138.832 1511.06 138.618 1511.09 138.409 1511.12C138.201 1511.15 138.027 1511.17 137.887 1511.19C137.557 1511.23 137.256 1511.3 136.983 1511.4C136.714 1511.5 136.498 1511.64 136.335 1511.83C136.176 1512.01 136.097 1512.25 136.097 1512.56C136.097 1512.98 136.252 1513.3 136.563 1513.51C136.873 1513.72 137.269 1513.83 137.75 1513.83ZM147.434 1518.45C146.74 1518.45 146.144 1518.36 145.644 1518.18C145.148 1518 144.742 1517.76 144.428 1517.46C144.113 1517.16 143.879 1516.83 143.723 1516.48L145.184 1515.88C145.286 1516.04 145.422 1516.22 145.593 1516.4C145.767 1516.59 146.002 1516.75 146.297 1516.89C146.596 1517.02 146.981 1517.09 147.451 1517.09C148.094 1517.09 148.627 1516.93 149.047 1516.61C149.468 1516.3 149.678 1515.81 149.678 1515.12V1513.41H149.57C149.468 1513.59 149.32 1513.8 149.127 1514.03C148.937 1514.26 148.676 1514.45 148.343 1514.62C148.009 1514.79 147.576 1514.87 147.041 1514.87C146.352 1514.87 145.731 1514.71 145.178 1514.39C144.629 1514.06 144.193 1513.58 143.871 1512.95C143.553 1512.31 143.394 1511.53 143.394 1510.6C143.394 1509.67 143.551 1508.88 143.865 1508.22C144.184 1507.55 144.619 1507.05 145.172 1506.69C145.725 1506.34 146.352 1506.16 147.053 1506.16C147.594 1506.16 148.032 1506.25 148.365 1506.43C148.699 1506.61 148.958 1506.82 149.144 1507.06C149.333 1507.3 149.479 1507.51 149.581 1507.69H149.706V1506.27H151.371V1515.19C151.371 1515.94 151.197 1516.56 150.848 1517.04C150.5 1517.52 150.028 1517.88 149.434 1518.11C148.843 1518.34 148.176 1518.45 147.434 1518.45ZM147.416 1513.46C147.905 1513.46 148.318 1513.35 148.655 1513.12C148.996 1512.89 149.254 1512.56 149.428 1512.13C149.606 1511.7 149.695 1511.18 149.695 1510.58C149.695 1509.99 149.608 1509.48 149.434 1509.03C149.259 1508.58 149.004 1508.23 148.666 1507.98C148.329 1507.73 147.913 1507.6 147.416 1507.6C146.905 1507.6 146.479 1507.73 146.138 1508C145.797 1508.26 145.54 1508.62 145.365 1509.07C145.195 1509.52 145.11 1510.02 145.11 1510.58C145.11 1511.15 145.197 1511.65 145.371 1512.09C145.545 1512.52 145.803 1512.85 146.144 1513.1C146.488 1513.34 146.913 1513.46 147.416 1513.46ZM157.235 1515.18C156.375 1515.18 155.634 1514.99 155.013 1514.62C154.396 1514.25 153.918 1513.73 153.581 1513.06C153.248 1512.39 153.081 1511.6 153.081 1510.69C153.081 1509.8 153.248 1509.01 153.581 1508.33C153.918 1507.65 154.388 1507.12 154.99 1506.73C155.597 1506.35 156.305 1506.16 157.115 1506.16C157.608 1506.16 158.085 1506.24 158.547 1506.4C159.009 1506.57 159.424 1506.82 159.792 1507.17C160.159 1507.52 160.449 1507.97 160.661 1508.53C160.873 1509.08 160.979 1509.75 160.979 1510.55V1511.15H154.042V1509.88H159.314C159.314 1509.43 159.223 1509.03 159.042 1508.69C158.86 1508.34 158.604 1508.06 158.275 1507.86C157.949 1507.66 157.566 1507.56 157.127 1507.56C156.65 1507.56 156.233 1507.68 155.877 1507.91C155.525 1508.15 155.252 1508.45 155.059 1508.82C154.869 1509.2 154.775 1509.6 154.775 1510.03V1511.03C154.775 1511.61 154.877 1512.11 155.081 1512.52C155.29 1512.93 155.579 1513.24 155.951 1513.45C156.322 1513.67 156.756 1513.77 157.252 1513.77C157.574 1513.77 157.867 1513.73 158.133 1513.64C158.398 1513.54 158.627 1513.4 158.82 1513.22C159.013 1513.03 159.161 1512.8 159.263 1512.53L160.871 1512.82C160.742 1513.29 160.511 1513.71 160.178 1514.06C159.848 1514.41 159.434 1514.69 158.934 1514.89C158.437 1515.08 157.871 1515.18 157.235 1515.18Z" fill="black" fill-opacity="0.8"/>
<path d="M127.784 1669H124.959V1660.27H127.874C128.729 1660.27 129.463 1660.45 130.077 1660.8C130.69 1661.14 131.161 1661.64 131.487 1662.29C131.817 1662.94 131.982 1663.72 131.982 1664.62C131.982 1665.53 131.815 1666.31 131.483 1666.97C131.153 1667.62 130.676 1668.12 130.051 1668.48C129.426 1668.83 128.67 1669 127.784 1669ZM126.276 1667.85H127.712C128.376 1667.85 128.929 1667.72 129.369 1667.47C129.81 1667.22 130.139 1666.86 130.358 1666.38C130.577 1665.9 130.686 1665.31 130.686 1664.62C130.686 1663.94 130.577 1663.36 130.358 1662.88C130.142 1662.4 129.82 1662.04 129.391 1661.79C128.962 1661.55 128.429 1661.42 127.793 1661.42H126.276V1667.85ZM135.29 1669.14C134.875 1669.14 134.5 1669.07 134.165 1668.91C133.829 1668.76 133.564 1668.53 133.368 1668.24C133.174 1667.94 133.078 1667.58 133.078 1667.15C133.078 1666.78 133.149 1666.48 133.291 1666.24C133.433 1666 133.625 1665.81 133.866 1665.67C134.108 1665.53 134.378 1665.43 134.676 1665.36C134.974 1665.29 135.278 1665.23 135.588 1665.19C135.98 1665.15 136.298 1665.11 136.542 1665.08C136.787 1665.05 136.964 1665 137.075 1664.93C137.186 1664.87 137.241 1664.76 137.241 1664.6V1664.57C137.241 1664.2 137.136 1663.91 136.926 1663.71C136.718 1663.5 136.409 1663.4 135.997 1663.4C135.568 1663.4 135.23 1663.5 134.983 1663.69C134.738 1663.87 134.569 1664.08 134.476 1664.31L133.278 1664.04C133.42 1663.64 133.628 1663.32 133.9 1663.08C134.176 1662.83 134.493 1662.65 134.851 1662.54C135.209 1662.43 135.585 1662.37 135.98 1662.37C136.241 1662.37 136.518 1662.4 136.811 1662.46C137.106 1662.52 137.382 1662.63 137.638 1662.8C137.896 1662.96 138.108 1663.19 138.272 1663.49C138.437 1663.79 138.52 1664.18 138.52 1664.65V1669H137.275V1668.11H137.224C137.142 1668.27 137.018 1668.43 136.853 1668.59C136.689 1668.75 136.477 1668.88 136.218 1668.99C135.96 1669.09 135.65 1669.14 135.29 1669.14ZM135.567 1668.12C135.919 1668.12 136.22 1668.05 136.47 1667.91C136.723 1667.77 136.915 1667.59 137.045 1667.37C137.179 1667.14 137.245 1666.9 137.245 1666.64V1665.8C137.2 1665.84 137.112 1665.88 136.981 1665.92C136.853 1665.96 136.707 1665.99 136.542 1666.02C136.378 1666.05 136.217 1666.07 136.061 1666.09C135.905 1666.11 135.774 1666.13 135.669 1666.14C135.422 1666.18 135.196 1666.23 134.991 1666.3C134.79 1666.38 134.628 1666.48 134.505 1666.62C134.386 1666.76 134.326 1666.94 134.326 1667.17C134.326 1667.48 134.443 1667.72 134.676 1667.88C134.909 1668.04 135.206 1668.12 135.567 1668.12ZM141.359 1665.11V1669H140.085V1662.45H141.308V1663.52H141.389C141.539 1663.17 141.775 1662.89 142.096 1662.68C142.42 1662.47 142.828 1662.37 143.319 1662.37C143.765 1662.37 144.156 1662.46 144.491 1662.65C144.826 1662.84 145.086 1663.11 145.271 1663.48C145.455 1663.84 145.548 1664.3 145.548 1664.84V1669H144.274V1664.99C144.274 1664.52 144.15 1664.14 143.903 1663.88C143.656 1663.61 143.316 1663.47 142.884 1663.47C142.589 1663.47 142.326 1663.54 142.096 1663.66C141.869 1663.79 141.688 1663.98 141.555 1664.23C141.424 1664.47 141.359 1664.77 141.359 1665.11ZM147.125 1669V1662.45H148.399V1669H147.125ZM147.768 1661.44C147.546 1661.44 147.356 1661.37 147.197 1661.22C147.041 1661.07 146.963 1660.89 146.963 1660.69C146.963 1660.48 147.041 1660.3 147.197 1660.15C147.356 1660 147.546 1659.92 147.768 1659.92C147.99 1659.92 148.179 1660 148.335 1660.15C148.494 1660.3 148.573 1660.48 148.573 1660.69C148.573 1660.89 148.494 1661.07 148.335 1661.22C148.179 1661.37 147.99 1661.44 147.768 1661.44ZM151.886 1669.14C151.471 1669.14 151.096 1669.07 150.761 1668.91C150.425 1668.76 150.16 1668.53 149.964 1668.24C149.771 1667.94 149.674 1667.58 149.674 1667.15C149.674 1666.78 149.745 1666.48 149.887 1666.24C150.029 1666 150.221 1665.81 150.462 1665.67C150.704 1665.53 150.974 1665.43 151.272 1665.36C151.57 1665.29 151.874 1665.23 152.184 1665.19C152.576 1665.15 152.894 1665.11 153.139 1665.08C153.383 1665.05 153.56 1665 153.671 1664.93C153.782 1664.87 153.837 1664.76 153.837 1664.6V1664.57C153.837 1664.2 153.732 1663.91 153.522 1663.71C153.315 1663.5 153.005 1663.4 152.593 1663.4C152.164 1663.4 151.826 1663.5 151.579 1663.69C151.335 1663.87 151.166 1664.08 151.072 1664.31L149.874 1664.04C150.016 1663.64 150.224 1663.32 150.497 1663.08C150.772 1662.83 151.089 1662.65 151.447 1662.54C151.805 1662.43 152.181 1662.37 152.576 1662.37C152.837 1662.37 153.114 1662.4 153.407 1662.46C153.702 1662.52 153.978 1662.63 154.234 1662.8C154.492 1662.96 154.704 1663.19 154.869 1663.49C155.033 1663.79 155.116 1664.18 155.116 1664.65V1669H153.872V1668.11H153.82C153.738 1668.27 153.614 1668.43 153.45 1668.59C153.285 1668.75 153.073 1668.88 152.815 1668.99C152.556 1669.09 152.247 1669.14 151.886 1669.14ZM152.163 1668.12C152.515 1668.12 152.816 1668.05 153.066 1667.91C153.319 1667.77 153.511 1667.59 153.641 1667.37C153.775 1667.14 153.842 1666.9 153.842 1666.64V1665.8C153.796 1665.84 153.708 1665.88 153.577 1665.92C153.45 1665.96 153.303 1665.99 153.139 1666.02C152.974 1666.05 152.813 1666.07 152.657 1666.09C152.501 1666.11 152.37 1666.13 152.265 1666.14C152.018 1666.18 151.792 1666.23 151.587 1666.3C151.386 1666.38 151.224 1666.48 151.102 1666.62C150.982 1666.76 150.923 1666.94 150.923 1667.17C150.923 1667.48 151.039 1667.72 151.272 1667.88C151.505 1668.04 151.802 1668.12 152.163 1668.12ZM157.955 1660.27V1669H156.681V1660.27H157.955ZM162.683 1660.27H164.281L167.06 1667.06H167.162L169.94 1660.27H171.538V1669H170.286V1662.68H170.205L167.631 1668.99H166.591L164.017 1662.68H163.936V1669H162.683V1660.27ZM175.123 1669.14C174.709 1669.14 174.334 1669.07 173.998 1668.91C173.663 1668.76 173.397 1668.53 173.201 1668.24C173.008 1667.94 172.912 1667.58 172.912 1667.15C172.912 1666.78 172.983 1666.48 173.125 1666.24C173.267 1666 173.459 1665.81 173.7 1665.67C173.942 1665.53 174.211 1665.43 174.51 1665.36C174.808 1665.29 175.112 1665.23 175.422 1665.19C175.814 1665.15 176.132 1665.11 176.376 1665.08C176.62 1665.05 176.798 1665 176.909 1664.93C177.02 1664.87 177.075 1664.76 177.075 1664.6V1664.57C177.075 1664.2 176.97 1663.91 176.76 1663.71C176.552 1663.5 176.243 1663.4 175.831 1663.4C175.402 1663.4 175.064 1663.5 174.817 1663.69C174.572 1663.87 174.403 1664.08 174.309 1664.31L173.112 1664.04C173.254 1663.64 173.461 1663.32 173.734 1663.08C174.01 1662.83 174.326 1662.65 174.684 1662.54C175.042 1662.43 175.419 1662.37 175.814 1662.37C176.075 1662.37 176.352 1662.4 176.645 1662.46C176.94 1662.52 177.216 1662.63 177.471 1662.8C177.73 1662.96 177.942 1663.19 178.106 1663.49C178.271 1663.79 178.353 1664.18 178.353 1664.65V1669H177.109V1668.11H177.058C176.976 1668.27 176.852 1668.43 176.687 1668.59C176.522 1668.75 176.311 1668.88 176.052 1668.99C175.794 1669.09 175.484 1669.14 175.123 1669.14ZM175.4 1668.12C175.753 1668.12 176.054 1668.05 176.304 1667.91C176.557 1667.77 176.748 1667.59 176.879 1667.37C177.013 1667.14 177.079 1666.9 177.079 1666.64V1665.8C177.034 1665.84 176.946 1665.88 176.815 1665.92C176.687 1665.96 176.541 1665.99 176.376 1666.02C176.211 1666.05 176.051 1666.07 175.895 1666.09C175.738 1666.11 175.608 1666.13 175.503 1666.14C175.255 1666.18 175.03 1666.23 174.825 1666.3C174.623 1666.38 174.461 1666.48 174.339 1666.62C174.22 1666.76 174.16 1666.94 174.16 1667.17C174.16 1667.48 174.277 1667.72 174.51 1667.88C174.743 1668.04 175.04 1668.12 175.4 1668.12ZM181.09 1666.78L181.082 1665.22H181.303L183.911 1662.45H185.437L182.463 1665.61H182.262L181.09 1666.78ZM179.919 1669V1660.27H181.193V1669H179.919ZM184.052 1669L181.708 1665.89L182.586 1665L185.616 1669H184.052ZM188.371 1669.14C187.956 1669.14 187.581 1669.07 187.246 1668.91C186.911 1668.76 186.645 1668.53 186.449 1668.24C186.256 1667.94 186.159 1667.58 186.159 1667.15C186.159 1666.78 186.23 1666.48 186.372 1666.24C186.515 1666 186.706 1665.81 186.948 1665.67C187.189 1665.53 187.459 1665.43 187.757 1665.36C188.056 1665.29 188.36 1665.23 188.669 1665.19C189.061 1665.15 189.38 1665.11 189.624 1665.08C189.868 1665.05 190.046 1665 190.157 1664.93C190.267 1664.87 190.323 1664.76 190.323 1664.6V1664.57C190.323 1664.2 190.218 1663.91 190.007 1663.71C189.8 1663.5 189.49 1663.4 189.078 1663.4C188.649 1663.4 188.311 1663.5 188.064 1663.69C187.82 1663.87 187.651 1664.08 187.557 1664.31L186.36 1664.04C186.502 1663.64 186.709 1663.32 186.982 1663.08C187.257 1662.83 187.574 1662.65 187.932 1662.54C188.29 1662.43 188.667 1662.37 189.061 1662.37C189.323 1662.37 189.6 1662.4 189.892 1662.46C190.188 1662.52 190.463 1662.63 190.719 1662.8C190.978 1662.96 191.189 1663.19 191.354 1663.49C191.519 1663.79 191.601 1664.18 191.601 1664.65V1669H190.357V1668.11H190.306C190.223 1668.27 190.1 1668.43 189.935 1668.59C189.77 1668.75 189.559 1668.88 189.3 1668.99C189.042 1669.09 188.732 1669.14 188.371 1669.14ZM188.648 1668.12C189 1668.12 189.301 1668.05 189.551 1667.91C189.804 1667.77 189.996 1667.59 190.127 1667.37C190.26 1667.14 190.327 1666.9 190.327 1666.64V1665.8C190.282 1665.84 190.193 1665.88 190.063 1665.92C189.935 1665.96 189.789 1665.99 189.624 1666.02C189.459 1666.05 189.299 1666.07 189.142 1666.09C188.986 1666.11 188.855 1666.13 188.75 1666.14C188.503 1666.18 188.277 1666.23 188.073 1666.3C187.871 1666.38 187.709 1666.48 187.587 1666.62C187.468 1666.76 187.408 1666.94 187.408 1667.17C187.408 1667.48 187.524 1667.72 187.757 1667.88C187.99 1668.04 188.287 1668.12 188.648 1668.12ZM193.166 1669V1662.45H194.398V1663.49H194.466C194.585 1663.14 194.796 1662.87 195.097 1662.66C195.401 1662.46 195.744 1662.36 196.128 1662.36C196.207 1662.36 196.301 1662.36 196.409 1662.37C196.52 1662.37 196.607 1662.38 196.669 1662.39V1663.61C196.618 1663.59 196.527 1663.58 196.396 1663.56C196.266 1663.54 196.135 1663.53 196.004 1663.53C195.703 1663.53 195.435 1663.59 195.199 1663.72C194.966 1663.85 194.781 1664.02 194.645 1664.24C194.509 1664.47 194.44 1664.72 194.44 1665V1669H193.166ZM200.162 1669.13C199.549 1669.13 199.013 1668.99 198.556 1668.71C198.099 1668.43 197.743 1668.04 197.491 1667.53C197.238 1667.02 197.111 1666.43 197.111 1665.76C197.111 1665.08 197.238 1664.48 197.491 1663.98C197.743 1663.47 198.099 1663.07 198.556 1662.79C199.013 1662.51 199.549 1662.37 200.162 1662.37C200.776 1662.37 201.312 1662.51 201.769 1662.79C202.226 1663.07 202.581 1663.47 202.834 1663.98C203.087 1664.48 203.214 1665.08 203.214 1665.76C203.214 1666.43 203.087 1667.02 202.834 1667.53C202.581 1668.04 202.226 1668.43 201.769 1668.71C201.312 1668.99 200.776 1669.13 200.162 1669.13ZM200.167 1668.06C200.564 1668.06 200.894 1667.96 201.155 1667.75C201.417 1667.54 201.61 1667.26 201.735 1666.91C201.863 1666.56 201.927 1666.17 201.927 1665.75C201.927 1665.34 201.863 1664.95 201.735 1664.6C201.61 1664.25 201.417 1663.97 201.155 1663.75C200.894 1663.54 200.564 1663.43 200.167 1663.43C199.766 1663.43 199.434 1663.54 199.17 1663.75C198.908 1663.97 198.714 1664.25 198.586 1664.6C198.461 1664.95 198.398 1665.34 198.398 1665.75C198.398 1666.17 198.461 1666.56 198.586 1666.91C198.714 1667.26 198.908 1667.54 199.17 1667.75C199.434 1667.96 199.766 1668.06 200.167 1668.06ZM209.881 1662.45L207.507 1669H206.143L203.766 1662.45H205.133L206.791 1667.49H206.859L208.513 1662.45H209.881Z" fill="black" fill-opacity="0.4"/>
</g>
<rect x="376" y="1343.73" width="992" height="16" rx="3" stroke="#757575" stroke-width="4" stroke-linecap="round"/>
<path d="M89.9176 1361V1343.55H100.861V1345.81H92.5511V1351.13H100.29V1353.39H92.5511V1358.73H100.963V1361H89.9176ZM109.573 1361H103.923V1343.55H109.752C111.462 1343.55 112.931 1343.89 114.158 1344.59C115.386 1345.29 116.326 1346.28 116.979 1347.59C117.638 1348.88 117.968 1350.43 117.968 1352.25C117.968 1354.07 117.636 1355.63 116.971 1356.93C116.312 1358.24 115.357 1359.25 114.107 1359.95C112.857 1360.65 111.346 1361 109.573 1361ZM106.556 1358.7H109.428C110.758 1358.7 111.863 1358.45 112.744 1357.95C113.624 1357.44 114.283 1356.71 114.721 1355.76C115.158 1354.8 115.377 1353.63 115.377 1352.25C115.377 1350.88 115.158 1349.72 114.721 1348.76C114.289 1347.81 113.644 1347.08 112.786 1346.59C111.928 1346.09 110.863 1345.85 109.59 1345.85H106.556V1358.7ZM132.599 1349.06C132.435 1348.54 132.213 1348.08 131.935 1347.67C131.662 1347.26 131.335 1346.9 130.954 1346.61C130.574 1346.32 130.139 1346.09 129.65 1345.94C129.168 1345.79 128.636 1345.71 128.057 1345.71C127.074 1345.71 126.187 1345.96 125.398 1346.47C124.608 1346.97 123.983 1347.72 123.523 1348.69C123.068 1349.66 122.841 1350.86 122.841 1352.26C122.841 1353.68 123.071 1354.87 123.531 1355.85C123.991 1356.83 124.622 1357.57 125.423 1358.08C126.224 1358.58 127.136 1358.84 128.159 1358.84C129.108 1358.84 129.935 1358.64 130.639 1358.26C131.349 1357.87 131.898 1357.32 132.284 1356.62C132.676 1355.91 132.872 1355.07 132.872 1354.11L133.554 1354.24H128.56V1352.07H135.42V1354.05C135.42 1355.52 135.108 1356.79 134.483 1357.87C133.864 1358.95 133.006 1359.78 131.909 1360.36C130.818 1360.95 129.568 1361.24 128.159 1361.24C126.579 1361.24 125.193 1360.88 124 1360.15C122.812 1359.42 121.886 1358.39 121.222 1357.05C120.557 1355.71 120.224 1354.12 120.224 1352.28C120.224 1350.89 120.418 1349.64 120.804 1348.53C121.19 1347.42 121.733 1346.48 122.432 1345.71C123.136 1344.93 123.963 1344.34 124.912 1343.93C125.866 1343.51 126.909 1343.31 128.04 1343.31C128.983 1343.31 129.861 1343.45 130.673 1343.72C131.491 1344 132.219 1344.4 132.855 1344.91C133.497 1345.42 134.028 1346.03 134.449 1346.73C134.869 1347.43 135.153 1348.21 135.301 1349.06H132.599ZM138.307 1361V1343.55H149.251V1345.81H140.941V1351.13H148.68V1353.39H140.941V1358.73H149.353V1361H138.307ZM172.705 1349.22H170.046C169.944 1348.65 169.753 1348.15 169.475 1347.72C169.197 1347.29 168.856 1346.92 168.452 1346.62C168.049 1346.32 167.597 1346.09 167.097 1345.94C166.603 1345.79 166.077 1345.71 165.52 1345.71C164.515 1345.71 163.614 1345.96 162.819 1346.47C162.029 1346.97 161.404 1347.72 160.944 1348.69C160.489 1349.67 160.262 1350.86 160.262 1352.27C160.262 1353.69 160.489 1354.89 160.944 1355.87C161.404 1356.85 162.032 1357.59 162.827 1358.09C163.623 1358.59 164.518 1358.84 165.512 1358.84C166.063 1358.84 166.586 1358.76 167.08 1358.61C167.58 1358.46 168.032 1358.24 168.435 1357.94C168.839 1357.64 169.18 1357.28 169.458 1356.86C169.742 1356.43 169.938 1355.93 170.046 1355.38L172.705 1355.38C172.563 1356.24 172.287 1357.03 171.878 1357.75C171.475 1358.47 170.955 1359.09 170.319 1359.61C169.688 1360.13 168.966 1360.53 168.154 1360.81C167.341 1361.1 166.455 1361.24 165.495 1361.24C163.983 1361.24 162.637 1360.88 161.455 1360.16C160.273 1359.44 159.341 1358.41 158.66 1357.07C157.983 1355.73 157.645 1354.13 157.645 1352.27C157.645 1350.41 157.986 1348.81 158.668 1347.47C159.35 1346.13 160.282 1345.11 161.464 1344.39C162.645 1343.67 163.989 1343.31 165.495 1343.31C166.421 1343.31 167.285 1343.44 168.086 1343.71C168.893 1343.97 169.617 1344.36 170.259 1344.87C170.901 1345.37 171.432 1345.99 171.853 1346.72C172.273 1347.45 172.557 1348.28 172.705 1349.22ZM176.758 1361H173.962L180.243 1343.55H183.286L189.567 1361H186.772L181.837 1346.72H181.701L176.758 1361ZM177.226 1354.16H186.295V1356.38H177.226V1354.16ZM201.011 1348.13C200.92 1347.32 200.545 1346.7 199.886 1346.26C199.227 1345.81 198.397 1345.58 197.397 1345.58C196.682 1345.58 196.062 1345.7 195.54 1345.92C195.017 1346.14 194.611 1346.45 194.321 1346.84C194.037 1347.23 193.895 1347.67 193.895 1348.16C193.895 1348.58 193.991 1348.94 194.184 1349.24C194.383 1349.54 194.642 1349.79 194.96 1350C195.284 1350.2 195.63 1350.36 196 1350.5C196.369 1350.63 196.724 1350.74 197.065 1350.82L198.77 1351.27C199.326 1351.4 199.897 1351.59 200.483 1351.82C201.068 1352.05 201.611 1352.36 202.111 1352.74C202.611 1353.12 203.014 1353.59 203.321 1354.16C203.633 1354.72 203.79 1355.39 203.79 1356.18C203.79 1357.16 203.534 1358.04 203.022 1358.81C202.517 1359.58 201.781 1360.18 200.815 1360.62C199.855 1361.07 198.693 1361.29 197.329 1361.29C196.022 1361.29 194.892 1361.08 193.937 1360.67C192.983 1360.25 192.236 1359.66 191.696 1358.9C191.156 1358.14 190.858 1357.23 190.801 1356.18H193.443C193.494 1356.81 193.699 1357.33 194.057 1357.75C194.42 1358.17 194.883 1358.48 195.446 1358.68C196.014 1358.88 196.636 1358.98 197.312 1358.98C198.057 1358.98 198.719 1358.86 199.298 1358.63C199.883 1358.39 200.344 1358.06 200.679 1357.64C201.014 1357.22 201.182 1356.72 201.182 1356.15C201.182 1355.63 201.034 1355.21 200.738 1354.88C200.449 1354.55 200.054 1354.28 199.554 1354.06C199.059 1353.85 198.5 1353.66 197.875 1353.49L195.812 1352.93C194.415 1352.55 193.307 1351.99 192.488 1351.25C191.676 1350.51 191.27 1349.53 191.27 1348.32C191.27 1347.31 191.542 1346.43 192.088 1345.68C192.633 1344.93 193.372 1344.35 194.304 1343.94C195.236 1343.52 196.287 1343.31 197.457 1343.31C198.639 1343.31 199.682 1343.51 200.585 1343.93C201.494 1344.34 202.21 1344.91 202.733 1345.64C203.255 1346.36 203.528 1347.19 203.551 1348.13H201.011ZM206.481 1361V1343.55H217.424V1345.81H209.114V1351.13H216.853V1353.39H209.114V1358.73H217.526V1361H206.481ZM230.005 1348.13C229.914 1347.32 229.539 1346.7 228.88 1346.26C228.221 1345.81 227.392 1345.58 226.392 1345.58C225.676 1345.58 225.057 1345.7 224.534 1345.92C224.011 1346.14 223.605 1346.45 223.315 1346.84C223.031 1347.23 222.889 1347.67 222.889 1348.16C222.889 1348.58 222.985 1348.94 223.179 1349.24C223.378 1349.54 223.636 1349.79 223.954 1350C224.278 1350.2 224.625 1350.36 224.994 1350.5C225.363 1350.63 225.718 1350.74 226.059 1350.82L227.764 1351.27C228.321 1351.4 228.892 1351.59 229.477 1351.82C230.062 1352.05 230.605 1352.36 231.105 1352.74C231.605 1353.12 232.008 1353.59 232.315 1354.16C232.628 1354.72 232.784 1355.39 232.784 1356.18C232.784 1357.16 232.528 1358.04 232.017 1358.81C231.511 1359.58 230.775 1360.18 229.809 1360.62C228.849 1361.07 227.687 1361.29 226.324 1361.29C225.017 1361.29 223.886 1361.08 222.932 1360.67C221.977 1360.25 221.23 1359.66 220.69 1358.9C220.15 1358.14 219.852 1357.23 219.795 1356.18H222.437C222.488 1356.81 222.693 1357.33 223.051 1357.75C223.414 1358.17 223.878 1358.48 224.44 1358.68C225.008 1358.88 225.63 1358.98 226.307 1358.98C227.051 1358.98 227.713 1358.86 228.292 1358.63C228.878 1358.39 229.338 1358.06 229.673 1357.64C230.008 1357.22 230.176 1356.72 230.176 1356.15C230.176 1355.63 230.028 1355.21 229.733 1354.88C229.443 1354.55 229.048 1354.28 228.548 1354.06C228.054 1353.85 227.494 1353.66 226.869 1353.49L224.807 1352.93C223.409 1352.55 222.301 1351.99 221.483 1351.25C220.67 1350.51 220.264 1349.53 220.264 1348.32C220.264 1347.31 220.537 1346.43 221.082 1345.68C221.628 1344.93 222.366 1344.35 223.298 1343.94C224.23 1343.52 225.281 1343.31 226.451 1343.31C227.633 1343.31 228.676 1343.51 229.579 1343.93C230.488 1344.34 231.204 1344.91 231.727 1345.64C232.25 1346.36 232.522 1347.19 232.545 1348.13H230.005Z" fill="#757575"/>
<path d="M154.867 308.941C154.867 287.46 151.997 351.835 149.248 373.14C147.431 387.223 147.375 429.896 147.375 415.697" stroke="#14AE5C" stroke-width="8" stroke-linecap="round" stroke-linejoin="round"/>
<path d="M164.231 307.068C157.333 302.633 203.734 299.577 207.412 299.577C239.728 299.577 271.508 306.486 303.763 300.513C332.231 295.241 362.119 297.625 390.854 295.415C410.23 293.924 429.035 292.085 448.498 292.085C456.869 292.085 461.678 293.688 469.1 297.704C476.495 301.704 483.017 301.45 491.159 301.45C494.915 301.45 507.371 297.226 510.304 299.369C514.444 302.394 512.826 314.895 512.489 319.45C510.976 339.88 506.228 360.186 503.645 380.528C501.692 395.907 503.284 409.856 499.483 425.062" stroke="#14AE5C" stroke-width="8" stroke-linecap="round" stroke-linejoin="round"/>
<path d="M151.121 425.062C157.109 414.882 179.087 416.262 188.996 415.801C208.903 414.875 228.516 413.824 248.513 413.824C288.324 413.824 328.336 415.322 367.963 411.015C379.117 409.802 390.256 410.078 401.467 410.078C413.241 410.078 423.46 412.799 434.971 413.72C455.923 415.396 479.216 407.069 499.483 413.824" stroke="#14AE5C" stroke-width="8" stroke-linecap="round" stroke-linejoin="round"/>
<path d="M151.12 475.63C140.766 475.63 171.773 473.757 182.127 473.757C203.083 473.757 223.847 473.757 244.766 473.757C278.387 473.757 312.218 475.63 346.007 475.63C374.552 475.63 403.096 475.63 431.641 475.63C446.765 475.63 461.357 471.885 476.591 471.885C482.348 471.885 488.106 471.885 493.863 471.885C497.834 471.885 507.268 469.815 501.355 473.757" stroke="#14AE5C" stroke-width="8" stroke-linecap="round" stroke-linejoin="round"/>
<path d="M147.375 529.945C175.249 529.945 203.204 524.326 231.032 524.326C260.984 524.326 292.628 524.225 322.284 529.008C347.131 533.016 371.222 526.199 395.848 526.199C417.907 526.199 439.965 526.199 462.024 526.199" stroke="#14AE5C" stroke-width="8" stroke-linecap="round" stroke-linejoin="round"/>
<path d="M143.629 582.386C149.664 577.357 165.882 583.868 173.804 584.363C191.895 585.494 209.735 586.132 227.91 586.132C249.357 586.132 270.78 587.523 292.005 588.005C311.82 588.455 331.701 588.005 351.522 588.005C370.569 588.005 388.797 584.259 407.709 584.259" stroke="#14AE5C" stroke-width="8" stroke-linecap="round" stroke-linejoin="round"/>
<rect x="88" y="184" width="480" height="1072" rx="6" stroke="#14AE5C" stroke-width="4" stroke-linecap="round"/>
<rect x="120" y="1112" width="416" height="80" rx="6" fill="#9747FF"/>
<path d="M625.968 193.818V211.273H623.326V196.46H623.224L619.048 199.187V196.665L623.403 193.818H625.968ZM634.621 211.435C634.155 211.435 633.754 211.27 633.419 210.94C633.084 210.605 632.916 210.202 632.916 209.73C632.916 209.264 633.084 208.866 633.419 208.537C633.754 208.202 634.155 208.034 634.621 208.034C635.087 208.034 635.487 208.202 635.823 208.537C636.158 208.866 636.325 209.264 636.325 209.73C636.325 210.043 636.246 210.33 636.087 210.591C635.933 210.847 635.729 211.051 635.473 211.205C635.217 211.358 634.933 211.435 634.621 211.435ZM651.335 211.273L646.494 193.818H649.264L652.665 207.335H652.827L656.364 193.818H659.108L662.645 207.344H662.807L666.199 193.818H668.977L664.128 211.273H661.477L657.804 198.199H657.668L653.994 211.273H651.335ZM675.071 211.537C673.781 211.537 672.67 211.261 671.739 210.71C670.812 210.153 670.097 209.372 669.591 208.366C669.091 207.355 668.841 206.17 668.841 204.812C668.841 203.472 669.091 202.29 669.591 201.267C670.097 200.244 670.801 199.446 671.705 198.872C672.614 198.298 673.676 198.011 674.892 198.011C675.631 198.011 676.347 198.134 677.04 198.378C677.733 198.622 678.355 199.006 678.906 199.528C679.457 200.051 679.892 200.73 680.21 201.565C680.528 202.395 680.687 203.403 680.687 204.591V205.494H670.281V203.585H678.19C678.19 202.915 678.054 202.321 677.781 201.804C677.508 201.281 677.125 200.869 676.631 200.568C676.142 200.267 675.568 200.116 674.909 200.116C674.193 200.116 673.568 200.293 673.034 200.645C672.506 200.991 672.097 201.446 671.807 202.009C671.523 202.565 671.381 203.17 671.381 203.824V205.315C671.381 206.19 671.534 206.935 671.841 207.548C672.153 208.162 672.588 208.631 673.145 208.955C673.702 209.273 674.352 209.432 675.097 209.432C675.58 209.432 676.02 209.364 676.418 209.227C676.815 209.085 677.159 208.875 677.449 208.597C677.739 208.318 677.96 207.974 678.114 207.565L680.526 208C680.332 208.71 679.986 209.332 679.486 209.866C678.991 210.395 678.369 210.807 677.619 211.102C676.875 211.392 676.026 211.537 675.071 211.537ZM685.607 193.818V211.273H683.059V193.818H685.607ZM694.094 211.537C692.827 211.537 691.736 211.25 690.821 210.676C689.912 210.097 689.213 209.298 688.724 208.281C688.236 207.264 687.991 206.099 687.991 204.787C687.991 203.457 688.241 202.284 688.741 201.267C689.241 200.244 689.946 199.446 690.855 198.872C691.764 198.298 692.835 198.011 694.068 198.011C695.062 198.011 695.949 198.196 696.727 198.565C697.506 198.929 698.133 199.44 698.611 200.099C699.094 200.759 699.381 201.528 699.471 202.409H696.991C696.855 201.795 696.543 201.267 696.054 200.824C695.571 200.381 694.923 200.159 694.111 200.159C693.4 200.159 692.778 200.347 692.244 200.722C691.716 201.091 691.304 201.619 691.008 202.307C690.713 202.989 690.565 203.795 690.565 204.727C690.565 205.682 690.71 206.506 691 207.199C691.29 207.892 691.699 208.429 692.227 208.81C692.761 209.19 693.389 209.381 694.111 209.381C694.594 209.381 695.031 209.293 695.423 209.116C695.821 208.935 696.153 208.676 696.42 208.341C696.693 208.006 696.883 207.602 696.991 207.131H699.471C699.381 207.977 699.105 208.733 698.645 209.398C698.185 210.062 697.568 210.585 696.795 210.966C696.028 211.347 695.128 211.537 694.094 211.537ZM707.255 211.537C706.028 211.537 704.957 211.256 704.042 210.693C703.127 210.131 702.417 209.344 701.911 208.332C701.405 207.321 701.153 206.139 701.153 204.787C701.153 203.429 701.405 202.241 701.911 201.224C702.417 200.207 703.127 199.418 704.042 198.855C704.957 198.293 706.028 198.011 707.255 198.011C708.482 198.011 709.553 198.293 710.468 198.855C711.383 199.418 712.093 200.207 712.599 201.224C713.104 202.241 713.357 203.429 713.357 204.787C713.357 206.139 713.104 207.321 712.599 208.332C712.093 209.344 711.383 210.131 710.468 210.693C709.553 211.256 708.482 211.537 707.255 211.537ZM707.263 209.398C708.059 209.398 708.718 209.187 709.241 208.767C709.763 208.347 710.15 207.787 710.4 207.088C710.655 206.389 710.783 205.619 710.783 204.778C710.783 203.943 710.655 203.176 710.4 202.477C710.15 201.773 709.763 201.207 709.241 200.781C708.718 200.355 708.059 200.142 707.263 200.142C706.462 200.142 705.797 200.355 705.269 200.781C704.746 201.207 704.357 201.773 704.101 202.477C703.851 203.176 703.726 203.943 703.726 204.778C703.726 205.619 703.851 206.389 704.101 207.088C704.357 207.787 704.746 208.347 705.269 208.767C705.797 209.187 706.462 209.398 707.263 209.398ZM715.746 211.273V198.182H718.192V200.312H718.354C718.626 199.591 719.072 199.028 719.692 198.625C720.311 198.216 721.052 198.011 721.916 198.011C722.791 198.011 723.524 198.216 724.115 198.625C724.711 199.034 725.152 199.597 725.436 200.312H725.572C725.885 199.614 726.382 199.057 727.064 198.642C727.746 198.222 728.558 198.011 729.501 198.011C730.689 198.011 731.658 198.384 732.408 199.128C733.163 199.872 733.541 200.994 733.541 202.494V211.273H730.993V202.733C730.993 201.847 730.751 201.205 730.268 200.807C729.785 200.409 729.209 200.21 728.538 200.21C727.709 200.21 727.064 200.466 726.604 200.977C726.143 201.483 725.913 202.134 725.913 202.929V211.273H723.373V202.571C723.373 201.861 723.152 201.29 722.709 200.858C722.265 200.426 721.689 200.21 720.979 200.21C720.496 200.21 720.05 200.338 719.64 200.594C719.237 200.844 718.91 201.193 718.66 201.642C718.416 202.091 718.294 202.611 718.294 203.202V211.273H715.746ZM742.143 211.537C740.853 211.537 739.742 211.261 738.81 210.71C737.884 210.153 737.168 209.372 736.662 208.366C736.162 207.355 735.912 206.17 735.912 204.812C735.912 203.472 736.162 202.29 736.662 201.267C737.168 200.244 737.873 199.446 738.776 198.872C739.685 198.298 740.748 198.011 741.964 198.011C742.702 198.011 743.418 198.134 744.111 198.378C744.804 198.622 745.427 199.006 745.978 199.528C746.529 200.051 746.964 200.73 747.282 201.565C747.6 202.395 747.759 203.403 747.759 204.591V205.494H737.353V203.585H745.262C745.262 202.915 745.126 202.321 744.853 201.804C744.58 201.281 744.197 200.869 743.702 200.568C743.214 200.267 742.64 200.116 741.981 200.116C741.265 200.116 740.64 200.293 740.106 200.645C739.577 200.991 739.168 201.446 738.878 202.009C738.594 202.565 738.452 203.17 738.452 203.824V205.315C738.452 206.19 738.606 206.935 738.912 207.548C739.225 208.162 739.66 208.631 740.216 208.955C740.773 209.273 741.424 209.432 742.168 209.432C742.651 209.432 743.091 209.364 743.489 209.227C743.887 209.085 744.231 208.875 744.52 208.597C744.81 208.318 745.032 207.974 745.185 207.565L747.597 208C747.404 208.71 747.057 209.332 746.557 209.866C746.063 210.395 745.441 210.807 744.691 211.102C743.947 211.392 743.097 211.537 742.143 211.537ZM765.836 201.378L763.526 201.787C763.429 201.491 763.276 201.21 763.066 200.943C762.861 200.676 762.583 200.457 762.231 200.287C761.878 200.116 761.438 200.031 760.91 200.031C760.188 200.031 759.586 200.193 759.103 200.517C758.62 200.835 758.378 201.247 758.378 201.753C758.378 202.19 758.54 202.543 758.864 202.81C759.188 203.077 759.711 203.295 760.432 203.466L762.512 203.943C763.716 204.222 764.614 204.651 765.205 205.23C765.796 205.81 766.091 206.562 766.091 207.489C766.091 208.273 765.864 208.972 765.41 209.585C764.961 210.193 764.333 210.67 763.526 211.017C762.725 211.364 761.796 211.537 760.739 211.537C759.273 211.537 758.077 211.224 757.151 210.599C756.225 209.969 755.657 209.074 755.446 207.915L757.91 207.54C758.063 208.182 758.378 208.668 758.856 208.997C759.333 209.321 759.955 209.483 760.722 209.483C761.557 209.483 762.225 209.31 762.725 208.963C763.225 208.611 763.475 208.182 763.475 207.676C763.475 207.267 763.321 206.923 763.015 206.645C762.714 206.366 762.25 206.156 761.625 206.014L759.41 205.528C758.188 205.25 757.285 204.807 756.699 204.199C756.12 203.591 755.83 202.821 755.83 201.889C755.83 201.116 756.046 200.44 756.478 199.861C756.91 199.281 757.506 198.83 758.267 198.506C759.029 198.176 759.901 198.011 760.884 198.011C762.299 198.011 763.412 198.318 764.225 198.932C765.037 199.54 765.574 200.355 765.836 201.378ZM773.951 211.537C772.684 211.537 771.593 211.25 770.679 210.676C769.77 210.097 769.071 209.298 768.582 208.281C768.093 207.264 767.849 206.099 767.849 204.787C767.849 203.457 768.099 202.284 768.599 201.267C769.099 200.244 769.804 199.446 770.713 198.872C771.622 198.298 772.693 198.011 773.926 198.011C774.92 198.011 775.807 198.196 776.585 198.565C777.363 198.929 777.991 199.44 778.468 200.099C778.951 200.759 779.238 201.528 779.329 202.409H776.849C776.713 201.795 776.4 201.267 775.912 200.824C775.429 200.381 774.781 200.159 773.968 200.159C773.258 200.159 772.636 200.347 772.102 200.722C771.574 201.091 771.162 201.619 770.866 202.307C770.571 202.989 770.423 203.795 770.423 204.727C770.423 205.682 770.568 206.506 770.858 207.199C771.147 207.892 771.557 208.429 772.085 208.81C772.619 209.19 773.247 209.381 773.968 209.381C774.451 209.381 774.889 209.293 775.281 209.116C775.679 208.935 776.011 208.676 776.278 208.341C776.551 208.006 776.741 207.602 776.849 207.131H779.329C779.238 207.977 778.963 208.733 778.503 209.398C778.042 210.062 777.426 210.585 776.653 210.966C775.886 211.347 774.985 211.537 773.951 211.537ZM781.598 211.273V198.182H784.061V200.261H784.198C784.436 199.557 784.857 199.003 785.459 198.599C786.067 198.19 786.755 197.986 787.522 197.986C787.681 197.986 787.868 197.991 788.084 198.003C788.306 198.014 788.479 198.028 788.604 198.045V200.483C788.502 200.455 788.32 200.423 788.059 200.389C787.797 200.349 787.536 200.33 787.275 200.33C786.672 200.33 786.135 200.457 785.664 200.713C785.198 200.963 784.828 201.312 784.556 201.761C784.283 202.205 784.147 202.71 784.147 203.278V211.273H781.598ZM795.527 211.537C794.237 211.537 793.126 211.261 792.194 210.71C791.268 210.153 790.552 209.372 790.046 208.366C789.546 207.355 789.296 206.17 789.296 204.812C789.296 203.472 789.546 202.29 790.046 201.267C790.552 200.244 791.257 199.446 792.16 198.872C793.069 198.298 794.132 198.011 795.348 198.011C796.086 198.011 796.802 198.134 797.495 198.378C798.189 198.622 798.811 199.006 799.362 199.528C799.913 200.051 800.348 200.73 800.666 201.565C800.984 202.395 801.143 203.403 801.143 204.591V205.494H790.737V203.585H798.646C798.646 202.915 798.51 202.321 798.237 201.804C797.964 201.281 797.581 200.869 797.086 200.568C796.598 200.267 796.024 200.116 795.365 200.116C794.649 200.116 794.024 200.293 793.49 200.645C792.961 200.991 792.552 201.446 792.262 202.009C791.978 202.565 791.836 203.17 791.836 203.824V205.315C791.836 206.19 791.99 206.935 792.296 207.548C792.609 208.162 793.044 208.631 793.6 208.955C794.157 209.273 794.808 209.432 795.552 209.432C796.035 209.432 796.475 209.364 796.873 209.227C797.271 209.085 797.615 208.875 797.904 208.597C798.194 208.318 798.416 207.974 798.569 207.565L800.981 208C800.788 208.71 800.441 209.332 799.941 209.866C799.447 210.395 798.825 210.807 798.075 211.102C797.331 211.392 796.481 211.537 795.527 211.537ZM809.157 211.537C807.867 211.537 806.756 211.261 805.824 210.71C804.898 210.153 804.182 209.372 803.676 208.366C803.176 207.355 802.926 206.17 802.926 204.812C802.926 203.472 803.176 202.29 803.676 201.267C804.182 200.244 804.887 199.446 805.79 198.872C806.699 198.298 807.762 198.011 808.978 198.011C809.716 198.011 810.432 198.134 811.125 198.378C811.818 198.622 812.441 199.006 812.992 199.528C813.543 200.051 813.978 200.73 814.296 201.565C814.614 202.395 814.773 203.403 814.773 204.591V205.494H804.367V203.585H812.276C812.276 202.915 812.14 202.321 811.867 201.804C811.594 201.281 811.211 200.869 810.716 200.568C810.228 200.267 809.654 200.116 808.995 200.116C808.279 200.116 807.654 200.293 807.12 200.645C806.591 200.991 806.182 201.446 805.892 202.009C805.608 202.565 805.466 203.17 805.466 203.824V205.315C805.466 206.19 805.62 206.935 805.926 207.548C806.239 208.162 806.674 208.631 807.23 208.955C807.787 209.273 808.438 209.432 809.182 209.432C809.665 209.432 810.105 209.364 810.503 209.227C810.901 209.085 811.245 208.875 811.534 208.597C811.824 208.318 812.046 207.974 812.199 207.565L814.611 208C814.418 208.71 814.071 209.332 813.571 209.866C813.077 210.395 812.455 210.807 811.705 211.102C810.961 211.392 810.111 211.537 809.157 211.537ZM819.693 203.5V211.273H817.144V198.182H819.59V200.312H819.752C820.054 199.619 820.525 199.062 821.167 198.642C821.815 198.222 822.63 198.011 823.613 198.011C824.505 198.011 825.286 198.199 825.957 198.574C826.627 198.943 827.147 199.494 827.517 200.227C827.886 200.96 828.071 201.866 828.071 202.946V211.273H825.522V203.253C825.522 202.304 825.275 201.562 824.781 201.028C824.286 200.489 823.608 200.219 822.744 200.219C822.153 200.219 821.627 200.347 821.167 200.602C820.713 200.858 820.352 201.233 820.085 201.727C819.823 202.216 819.693 202.807 819.693 203.5ZM839.766 211.273L835.914 198.182H838.547L841.112 207.795H841.24L843.814 198.182H846.448L849.004 207.753H849.132L851.681 198.182H854.314L850.47 211.273H847.871L845.212 201.821H845.016L842.357 211.273H839.766ZM856.276 211.273V198.182H858.825V211.273H856.276ZM857.563 196.162C857.12 196.162 856.74 196.014 856.421 195.719C856.109 195.418 855.953 195.06 855.953 194.645C855.953 194.224 856.109 193.866 856.421 193.571C856.74 193.27 857.12 193.119 857.563 193.119C858.007 193.119 858.384 193.27 858.697 193.571C859.015 193.866 859.174 194.224 859.174 194.645C859.174 195.06 859.015 195.418 858.697 195.719C858.384 196.014 858.007 196.162 857.563 196.162ZM867.908 198.182V200.227H860.757V198.182H867.908ZM862.675 195.045H865.223V207.429C865.223 207.923 865.297 208.295 865.445 208.545C865.592 208.79 865.783 208.957 866.016 209.048C866.254 209.134 866.513 209.176 866.791 209.176C866.996 209.176 867.175 209.162 867.328 209.134C867.482 209.105 867.601 209.082 867.686 209.065L868.146 211.17C867.999 211.227 867.788 211.284 867.516 211.341C867.243 211.403 866.902 211.437 866.493 211.443C865.823 211.455 865.198 211.335 864.618 211.085C864.038 210.835 863.57 210.449 863.212 209.926C862.854 209.403 862.675 208.747 862.675 207.957V195.045ZM873.1 203.5V211.273H870.552V193.818H873.066V200.312H873.228C873.535 199.608 874.004 199.048 874.634 198.633C875.265 198.219 876.089 198.011 877.106 198.011C878.004 198.011 878.788 198.196 879.458 198.565C880.134 198.935 880.657 199.486 881.026 200.219C881.401 200.946 881.589 201.855 881.589 202.946V211.273H879.041V203.253C879.041 202.293 878.793 201.548 878.299 201.02C877.805 200.486 877.117 200.219 876.237 200.219C875.634 200.219 875.095 200.347 874.617 200.602C874.146 200.858 873.774 201.233 873.501 201.727C873.234 202.216 873.1 202.807 873.1 203.5ZM647.713 247.273V234.182H650.261V247.273H647.713ZM649 232.162C648.557 232.162 648.176 232.014 647.858 231.719C647.545 231.418 647.389 231.06 647.389 230.645C647.389 230.224 647.545 229.866 647.858 229.571C648.176 229.27 648.557 229.119 649 229.119C649.443 229.119 649.821 229.27 650.134 229.571C650.452 229.866 650.611 230.224 650.611 230.645C650.611 231.06 650.452 231.418 650.134 231.719C649.821 232.014 649.443 232.162 649 232.162ZM655.782 239.5V247.273H653.234V234.182H655.68V236.312H655.842C656.143 235.619 656.614 235.062 657.256 234.642C657.904 234.222 658.719 234.011 659.702 234.011C660.594 234.011 661.376 234.199 662.046 234.574C662.717 234.943 663.236 235.494 663.606 236.227C663.975 236.96 664.16 237.866 664.16 238.946V247.273H661.611V239.253C661.611 238.304 661.364 237.562 660.87 237.028C660.376 236.489 659.697 236.219 658.833 236.219C658.242 236.219 657.717 236.347 657.256 236.602C656.802 236.858 656.441 237.233 656.174 237.727C655.913 238.216 655.782 238.807 655.782 239.5ZM673.351 234.182V236.227H665.954V234.182H673.351ZM667.982 247.273V232.665C667.982 231.847 668.161 231.168 668.519 230.628C668.877 230.082 669.351 229.676 669.942 229.409C670.533 229.136 671.175 229 671.869 229C672.38 229 672.817 229.043 673.181 229.128C673.545 229.207 673.815 229.281 673.991 229.349L673.394 231.412C673.275 231.378 673.121 231.338 672.934 231.293C672.746 231.241 672.519 231.216 672.252 231.216C671.633 231.216 671.19 231.369 670.923 231.676C670.661 231.983 670.53 232.426 670.53 233.006V247.273H667.982ZM680.523 247.537C679.296 247.537 678.225 247.256 677.31 246.693C676.395 246.131 675.685 245.344 675.18 244.332C674.674 243.321 674.421 242.139 674.421 240.787C674.421 239.429 674.674 238.241 675.18 237.224C675.685 236.207 676.395 235.418 677.31 234.855C678.225 234.293 679.296 234.011 680.523 234.011C681.751 234.011 682.822 234.293 683.736 234.855C684.651 235.418 685.361 236.207 685.867 237.224C686.373 238.241 686.626 239.429 686.626 240.787C686.626 242.139 686.373 243.321 685.867 244.332C685.361 245.344 684.651 246.131 683.736 246.693C682.822 247.256 681.751 247.537 680.523 247.537ZM680.532 245.398C681.327 245.398 681.986 245.187 682.509 244.767C683.032 244.347 683.418 243.787 683.668 243.088C683.924 242.389 684.052 241.619 684.052 240.778C684.052 239.943 683.924 239.176 683.668 238.477C683.418 237.773 683.032 237.207 682.509 236.781C681.986 236.355 681.327 236.142 680.532 236.142C679.731 236.142 679.066 236.355 678.538 236.781C678.015 237.207 677.626 237.773 677.37 238.477C677.12 239.176 676.995 239.943 676.995 240.778C676.995 241.619 677.12 242.389 677.37 243.088C677.626 243.787 678.015 244.347 678.538 244.767C679.066 245.187 679.731 245.398 680.532 245.398ZM689.014 247.273V234.182H691.477V236.261H691.614C691.852 235.557 692.273 235.003 692.875 234.599C693.483 234.19 694.17 233.986 694.937 233.986C695.096 233.986 695.284 233.991 695.5 234.003C695.721 234.014 695.895 234.028 696.02 234.045V236.483C695.917 236.455 695.736 236.423 695.474 236.389C695.213 236.349 694.952 236.33 694.69 236.33C694.088 236.33 693.551 236.457 693.079 236.713C692.614 236.963 692.244 237.312 691.971 237.761C691.699 238.205 691.562 238.71 691.562 239.278V247.273H689.014ZM697.769 247.273V234.182H700.215V236.312H700.377C700.65 235.591 701.096 235.028 701.715 234.625C702.334 234.216 703.076 234.011 703.939 234.011C704.814 234.011 705.547 234.216 706.138 234.625C706.735 235.034 707.175 235.597 707.459 236.312H707.596C707.908 235.614 708.405 235.057 709.087 234.642C709.769 234.222 710.582 234.011 711.525 234.011C712.712 234.011 713.681 234.384 714.431 235.128C715.187 235.872 715.564 236.994 715.564 238.494V247.273H713.016V238.733C713.016 237.847 712.775 237.205 712.292 236.807C711.809 236.409 711.232 236.21 710.562 236.21C709.732 236.21 709.087 236.466 708.627 236.977C708.167 237.483 707.937 238.134 707.937 238.929V247.273H705.397V238.571C705.397 237.861 705.175 237.29 704.732 236.858C704.289 236.426 703.712 236.21 703.002 236.21C702.519 236.21 702.073 236.338 701.664 236.594C701.26 236.844 700.934 237.193 700.684 237.642C700.439 238.091 700.317 238.611 700.317 239.202V247.273H697.769ZM722.334 247.562C721.504 247.562 720.754 247.409 720.084 247.102C719.413 246.79 718.882 246.338 718.49 245.747C718.103 245.156 717.91 244.432 717.91 243.574C717.91 242.835 718.052 242.227 718.336 241.75C718.621 241.273 719.004 240.895 719.487 240.616C719.97 240.338 720.51 240.128 721.106 239.986C721.703 239.844 722.311 239.736 722.93 239.662C723.714 239.571 724.351 239.497 724.839 239.44C725.328 239.378 725.683 239.278 725.905 239.142C726.126 239.006 726.237 238.784 726.237 238.477V238.418C726.237 237.673 726.027 237.097 725.606 236.687C725.192 236.278 724.572 236.074 723.748 236.074C722.89 236.074 722.214 236.264 721.72 236.645C721.231 237.02 720.893 237.437 720.706 237.898L718.311 237.352C718.595 236.557 719.01 235.915 719.555 235.426C720.106 234.932 720.74 234.574 721.456 234.352C722.172 234.125 722.925 234.011 723.714 234.011C724.237 234.011 724.791 234.074 725.376 234.199C725.967 234.318 726.518 234.54 727.03 234.864C727.547 235.187 727.97 235.651 728.3 236.253C728.629 236.849 728.794 237.625 728.794 238.58V247.273H726.305V245.483H726.203C726.038 245.812 725.791 246.136 725.461 246.455C725.132 246.773 724.709 247.037 724.192 247.247C723.675 247.457 723.055 247.562 722.334 247.562ZM722.888 245.517C723.592 245.517 724.194 245.378 724.694 245.099C725.2 244.821 725.584 244.457 725.845 244.009C726.112 243.554 726.246 243.068 726.246 242.551V240.864C726.155 240.955 725.978 241.04 725.717 241.119C725.461 241.193 725.169 241.259 724.839 241.315C724.51 241.366 724.189 241.415 723.876 241.46C723.564 241.5 723.302 241.534 723.092 241.562C722.598 241.625 722.146 241.73 721.737 241.878C721.334 242.026 721.01 242.239 720.765 242.517C720.527 242.79 720.407 243.153 720.407 243.608C720.407 244.239 720.64 244.716 721.106 245.04C721.572 245.358 722.166 245.517 722.888 245.517ZM737.843 234.182V236.227H730.692V234.182H737.843ZM732.61 231.045H735.158V243.429C735.158 243.923 735.232 244.295 735.38 244.545C735.527 244.79 735.718 244.957 735.951 245.048C736.189 245.134 736.448 245.176 736.726 245.176C736.931 245.176 737.11 245.162 737.263 245.134C737.417 245.105 737.536 245.082 737.621 245.065L738.081 247.17C737.934 247.227 737.723 247.284 737.451 247.341C737.178 247.403 736.837 247.437 736.428 247.443C735.758 247.455 735.133 247.335 734.553 247.085C733.973 246.835 733.505 246.449 733.147 245.926C732.789 245.403 732.61 244.747 732.61 243.957V231.045ZM740.206 247.273V234.182H742.754V247.273H740.206ZM741.493 232.162C741.049 232.162 740.669 232.014 740.351 231.719C740.038 231.418 739.882 231.06 739.882 230.645C739.882 230.224 740.038 229.866 740.351 229.571C740.669 229.27 741.049 229.119 741.493 229.119C741.936 229.119 742.314 229.27 742.626 229.571C742.944 229.866 743.103 230.224 743.103 230.645C743.103 231.06 742.944 231.418 742.626 231.719C742.314 232.014 741.936 232.162 741.493 232.162ZM751.24 247.537C750.013 247.537 748.942 247.256 748.027 246.693C747.113 246.131 746.402 245.344 745.897 244.332C745.391 243.321 745.138 242.139 745.138 240.787C745.138 239.429 745.391 238.241 745.897 237.224C746.402 236.207 747.113 235.418 748.027 234.855C748.942 234.293 750.013 234.011 751.24 234.011C752.468 234.011 753.539 234.293 754.454 234.855C755.368 235.418 756.079 236.207 756.584 237.224C757.09 238.241 757.343 239.429 757.343 240.787C757.343 242.139 757.09 243.321 756.584 244.332C756.079 245.344 755.368 246.131 754.454 246.693C753.539 247.256 752.468 247.537 751.24 247.537ZM751.249 245.398C752.044 245.398 752.704 245.187 753.226 244.767C753.749 244.347 754.135 243.787 754.385 243.088C754.641 242.389 754.769 241.619 754.769 240.778C754.769 239.943 754.641 239.176 754.385 238.477C754.135 237.773 753.749 237.207 753.226 236.781C752.704 236.355 752.044 236.142 751.249 236.142C750.448 236.142 749.783 236.355 749.255 236.781C748.732 237.207 748.343 237.773 748.087 238.477C747.837 239.176 747.712 239.943 747.712 240.778C747.712 241.619 747.837 242.389 748.087 243.088C748.343 243.787 748.732 244.347 749.255 244.767C749.783 245.187 750.448 245.398 751.249 245.398ZM762.279 239.5V247.273H759.731V234.182H762.177V236.312H762.339C762.64 235.619 763.112 235.062 763.754 234.642C764.402 234.222 765.217 234.011 766.2 234.011C767.092 234.011 767.873 234.199 768.544 234.574C769.214 234.943 769.734 235.494 770.103 236.227C770.473 236.96 770.657 237.866 770.657 238.946V247.273H768.109V239.253C768.109 238.304 767.862 237.562 767.368 237.028C766.873 236.489 766.194 236.219 765.331 236.219C764.74 236.219 764.214 236.347 763.754 236.602C763.299 236.858 762.939 237.233 762.672 237.727C762.41 238.216 762.279 238.807 762.279 239.5ZM783.324 247.562C782.495 247.562 781.745 247.409 781.074 247.102C780.404 246.79 779.872 246.338 779.48 245.747C779.094 245.156 778.901 244.432 778.901 243.574C778.901 242.835 779.043 242.227 779.327 241.75C779.611 241.273 779.995 240.895 780.478 240.616C780.961 240.338 781.5 240.128 782.097 239.986C782.693 239.844 783.301 239.736 783.921 239.662C784.705 239.571 785.341 239.497 785.83 239.44C786.318 239.378 786.674 239.278 786.895 239.142C787.117 239.006 787.228 238.784 787.228 238.477V238.418C787.228 237.673 787.017 237.097 786.597 236.687C786.182 236.278 785.563 236.074 784.739 236.074C783.881 236.074 783.205 236.264 782.711 236.645C782.222 237.02 781.884 237.437 781.696 237.898L779.301 237.352C779.586 236.557 780 235.915 780.546 235.426C781.097 234.932 781.73 234.574 782.446 234.352C783.162 234.125 783.915 234.011 784.705 234.011C785.228 234.011 785.782 234.074 786.367 234.199C786.958 234.318 787.509 234.54 788.02 234.864C788.537 235.187 788.961 235.651 789.29 236.253C789.62 236.849 789.784 237.625 789.784 238.58V247.273H787.296V245.483H787.193C787.029 245.812 786.782 246.136 786.452 246.455C786.122 246.773 785.699 247.037 785.182 247.247C784.665 247.457 784.046 247.562 783.324 247.562ZM783.878 245.517C784.583 245.517 785.185 245.378 785.685 245.099C786.191 244.821 786.574 244.457 786.836 244.009C787.103 243.554 787.236 243.068 787.236 242.551V240.864C787.145 240.955 786.969 241.04 786.708 241.119C786.452 241.193 786.159 241.259 785.83 241.315C785.5 241.366 785.179 241.415 784.867 241.46C784.554 241.5 784.293 241.534 784.083 241.562C783.588 241.625 783.137 241.73 782.728 241.878C782.324 242.026 782 242.239 781.756 242.517C781.517 242.79 781.398 243.153 781.398 243.608C781.398 244.239 781.631 244.716 782.097 245.04C782.563 245.358 783.157 245.517 783.878 245.517ZM792.927 247.273V229.818H795.475V236.304H795.629C795.777 236.031 795.99 235.716 796.268 235.358C796.546 235 796.933 234.687 797.427 234.42C797.921 234.148 798.575 234.011 799.387 234.011C800.444 234.011 801.387 234.278 802.217 234.812C803.046 235.347 803.697 236.116 804.169 237.122C804.646 238.128 804.885 239.338 804.885 240.753C804.885 242.168 804.649 243.381 804.177 244.392C803.706 245.398 803.058 246.173 802.234 246.719C801.41 247.259 800.47 247.528 799.413 247.528C798.617 247.528 797.967 247.395 797.461 247.128C796.961 246.861 796.569 246.548 796.285 246.19C796.001 245.832 795.782 245.514 795.629 245.236H795.416V247.273H792.927ZM795.424 240.727C795.424 241.648 795.558 242.455 795.825 243.148C796.092 243.841 796.478 244.384 796.984 244.776C797.49 245.162 798.109 245.355 798.842 245.355C799.603 245.355 800.24 245.153 800.751 244.75C801.262 244.341 801.649 243.787 801.91 243.088C802.177 242.389 802.311 241.602 802.311 240.727C802.311 239.864 802.18 239.088 801.919 238.401C801.663 237.713 801.277 237.17 800.76 236.773C800.248 236.375 799.609 236.176 798.842 236.176C798.103 236.176 797.478 236.366 796.967 236.747C796.461 237.128 796.078 237.659 795.816 238.341C795.555 239.023 795.424 239.818 795.424 240.727ZM812.804 247.537C811.577 247.537 810.506 247.256 809.591 246.693C808.676 246.131 807.966 245.344 807.46 244.332C806.955 243.321 806.702 242.139 806.702 240.787C806.702 239.429 806.955 238.241 807.46 237.224C807.966 236.207 808.676 235.418 809.591 234.855C810.506 234.293 811.577 234.011 812.804 234.011C814.031 234.011 815.103 234.293 816.017 234.855C816.932 235.418 817.642 236.207 818.148 237.224C818.654 238.241 818.906 239.429 818.906 240.787C818.906 242.139 818.654 243.321 818.148 244.332C817.642 245.344 816.932 246.131 816.017 246.693C815.103 247.256 814.031 247.537 812.804 247.537ZM812.813 245.398C813.608 245.398 814.267 245.187 814.79 244.767C815.313 244.347 815.699 243.787 815.949 243.088C816.205 242.389 816.333 241.619 816.333 240.778C816.333 239.943 816.205 239.176 815.949 238.477C815.699 237.773 815.313 237.207 814.79 236.781C814.267 236.355 813.608 236.142 812.813 236.142C812.012 236.142 811.347 236.355 810.818 236.781C810.296 237.207 809.906 237.773 809.651 238.477C809.401 239.176 809.276 239.943 809.276 240.778C809.276 241.619 809.401 242.389 809.651 243.088C809.906 243.787 810.296 244.347 810.818 244.767C811.347 245.187 812.012 245.398 812.813 245.398ZM829.588 241.844V234.182H832.144V247.273H829.639V245.006H829.502C829.201 245.705 828.718 246.287 828.053 246.753C827.394 247.213 826.573 247.443 825.59 247.443C824.749 247.443 824.005 247.259 823.357 246.889C822.715 246.514 822.21 245.96 821.84 245.227C821.477 244.494 821.295 243.588 821.295 242.509V234.182H823.843V242.202C823.843 243.094 824.09 243.804 824.585 244.332C825.079 244.861 825.721 245.125 826.511 245.125C826.988 245.125 827.463 245.006 827.934 244.767C828.411 244.528 828.806 244.168 829.119 243.685C829.437 243.202 829.593 242.588 829.588 241.844ZM841.223 234.182V236.227H834.073V234.182H841.223ZM835.99 231.045H838.539V243.429C838.539 243.923 838.612 244.295 838.76 244.545C838.908 244.79 839.098 244.957 839.331 245.048C839.57 245.134 839.828 245.176 840.107 245.176C840.311 245.176 840.49 245.162 840.644 245.134C840.797 245.105 840.916 245.082 841.002 245.065L841.462 247.17C841.314 247.227 841.104 247.284 840.831 247.341C840.558 247.403 840.217 247.437 839.808 247.443C839.138 247.455 838.513 247.335 837.933 247.085C837.354 246.835 836.885 246.449 836.527 245.926C836.169 245.403 835.99 244.747 835.99 243.957V231.045ZM863.774 229.818V247.273H861.354L852.482 234.472H852.32V247.273H849.686V229.818H852.124L861.004 242.636H861.166V229.818H863.774ZM872.597 247.537C871.308 247.537 870.197 247.261 869.265 246.71C868.339 246.153 867.623 245.372 867.117 244.366C866.617 243.355 866.367 242.17 866.367 240.812C866.367 239.472 866.617 238.29 867.117 237.267C867.623 236.244 868.327 235.446 869.231 234.872C870.14 234.298 871.202 234.011 872.418 234.011C873.157 234.011 873.873 234.134 874.566 234.378C875.259 234.622 875.881 235.006 876.433 235.528C876.984 236.051 877.418 236.73 877.737 237.565C878.055 238.395 878.214 239.403 878.214 240.591V241.494H867.808V239.585H875.717C875.717 238.915 875.58 238.321 875.308 237.804C875.035 237.281 874.651 236.869 874.157 236.568C873.668 236.267 873.095 236.116 872.435 236.116C871.72 236.116 871.095 236.293 870.56 236.645C870.032 236.991 869.623 237.446 869.333 238.009C869.049 238.565 868.907 239.17 868.907 239.824V241.315C868.907 242.19 869.06 242.935 869.367 243.548C869.68 244.162 870.114 244.631 870.671 244.955C871.228 245.273 871.879 245.432 872.623 245.432C873.106 245.432 873.546 245.364 873.944 245.227C874.342 245.085 874.685 244.875 874.975 244.597C875.265 244.318 875.487 243.974 875.64 243.565L878.052 244C877.859 244.71 877.512 245.332 877.012 245.866C876.518 246.395 875.896 246.807 875.146 247.102C874.401 247.392 873.552 247.537 872.597 247.537ZM882.292 234.182L885.181 239.278L888.096 234.182H890.883L886.8 240.727L890.917 247.273H888.13L885.181 242.381L882.241 247.273H879.445L883.519 240.727L879.496 234.182H882.292ZM899.154 234.182V236.227H892.004V234.182H899.154ZM893.921 231.045H896.469V243.429C896.469 243.923 896.543 244.295 896.691 244.545C896.839 244.79 897.029 244.957 897.262 245.048C897.501 245.134 897.759 245.176 898.038 245.176C898.242 245.176 898.421 245.162 898.575 245.134C898.728 245.105 898.847 245.082 898.933 245.065L899.393 247.17C899.245 247.227 899.035 247.284 898.762 247.341C898.489 247.403 898.148 247.437 897.739 247.443C897.069 247.455 896.444 247.335 895.864 247.085C895.285 246.835 894.816 246.449 894.458 245.926C894.1 245.403 893.921 244.747 893.921 243.957V231.045ZM657.523 273.378L655.213 273.787C655.116 273.491 654.963 273.21 654.753 272.943C654.548 272.676 654.27 272.457 653.918 272.287C653.565 272.116 653.125 272.031 652.597 272.031C651.875 272.031 651.273 272.193 650.79 272.517C650.307 272.835 650.065 273.247 650.065 273.753C650.065 274.19 650.227 274.543 650.551 274.81C650.875 275.077 651.398 275.295 652.119 275.466L654.199 275.943C655.403 276.222 656.301 276.651 656.892 277.23C657.483 277.81 657.778 278.562 657.778 279.489C657.778 280.273 657.551 280.972 657.097 281.585C656.648 282.193 656.02 282.67 655.213 283.017C654.412 283.364 653.483 283.537 652.426 283.537C650.96 283.537 649.764 283.224 648.838 282.599C647.912 281.969 647.344 281.074 647.134 279.915L649.597 279.54C649.75 280.182 650.065 280.668 650.543 280.997C651.02 281.321 651.642 281.483 652.409 281.483C653.244 281.483 653.912 281.31 654.412 280.963C654.912 280.611 655.162 280.182 655.162 279.676C655.162 279.267 655.009 278.923 654.702 278.645C654.401 278.366 653.938 278.156 653.312 278.014L651.097 277.528C649.875 277.25 648.972 276.807 648.386 276.199C647.807 275.591 647.517 274.821 647.517 273.889C647.517 273.116 647.733 272.44 648.165 271.861C648.597 271.281 649.193 270.83 649.955 270.506C650.716 270.176 651.588 270.011 652.571 270.011C653.986 270.011 655.099 270.318 655.912 270.932C656.724 271.54 657.261 272.355 657.523 273.378ZM666.235 270.182V272.227H659.084V270.182H666.235ZM661.002 267.045H663.55V279.429C663.55 279.923 663.624 280.295 663.772 280.545C663.92 280.79 664.11 280.957 664.343 281.048C664.582 281.134 664.84 281.176 665.119 281.176C665.323 281.176 665.502 281.162 665.656 281.134C665.809 281.105 665.928 281.082 666.013 281.065L666.474 283.17C666.326 283.227 666.116 283.284 665.843 283.341C665.57 283.403 665.229 283.437 664.82 283.443C664.15 283.455 663.525 283.335 662.945 283.085C662.366 282.835 661.897 282.449 661.539 281.926C661.181 281.403 661.002 280.747 661.002 279.957V267.045ZM674.099 283.537C672.81 283.537 671.699 283.261 670.767 282.71C669.841 282.153 669.125 281.372 668.619 280.366C668.119 279.355 667.869 278.17 667.869 276.812C667.869 275.472 668.119 274.29 668.619 273.267C669.125 272.244 669.829 271.446 670.733 270.872C671.642 270.298 672.704 270.011 673.92 270.011C674.659 270.011 675.375 270.134 676.068 270.378C676.761 270.622 677.383 271.006 677.935 271.528C678.486 272.051 678.92 272.73 679.239 273.565C679.557 274.395 679.716 275.403 679.716 276.591V277.494H669.31V275.585H677.219C677.219 274.915 677.082 274.321 676.81 273.804C676.537 273.281 676.153 272.869 675.659 272.568C675.17 272.267 674.597 272.116 673.937 272.116C673.222 272.116 672.597 272.293 672.062 272.645C671.534 272.991 671.125 273.446 670.835 274.009C670.551 274.565 670.409 275.17 670.409 275.824V277.315C670.409 278.19 670.562 278.935 670.869 279.548C671.182 280.162 671.616 280.631 672.173 280.955C672.73 281.273 673.381 281.432 674.125 281.432C674.608 281.432 675.048 281.364 675.446 281.227C675.844 281.085 676.187 280.875 676.477 280.597C676.767 280.318 676.989 279.974 677.142 279.565L679.554 280C679.361 280.71 679.014 281.332 678.514 281.866C678.02 282.395 677.398 282.807 676.648 283.102C675.903 283.392 675.054 283.537 674.099 283.537ZM682.087 288.182V270.182H684.576V272.304H684.789C684.937 272.031 685.15 271.716 685.428 271.358C685.707 271 686.093 270.687 686.587 270.42C687.082 270.148 687.735 270.011 688.547 270.011C689.604 270.011 690.547 270.278 691.377 270.812C692.207 271.347 692.857 272.116 693.329 273.122C693.806 274.128 694.045 275.338 694.045 276.753C694.045 278.168 693.809 279.381 693.337 280.392C692.866 281.398 692.218 282.173 691.394 282.719C690.57 283.259 689.63 283.528 688.573 283.528C687.778 283.528 687.127 283.395 686.621 283.128C686.121 282.861 685.729 282.548 685.445 282.19C685.161 281.832 684.942 281.514 684.789 281.236H684.636V288.182H682.087ZM684.584 276.727C684.584 277.648 684.718 278.455 684.985 279.148C685.252 279.841 685.638 280.384 686.144 280.776C686.65 281.162 687.269 281.355 688.002 281.355C688.763 281.355 689.4 281.153 689.911 280.75C690.422 280.341 690.809 279.787 691.07 279.088C691.337 278.389 691.471 277.602 691.471 276.727C691.471 275.864 691.34 275.088 691.079 274.401C690.823 273.713 690.437 273.17 689.92 272.773C689.408 272.375 688.769 272.176 688.002 272.176C687.263 272.176 686.638 272.366 686.127 272.747C685.621 273.128 685.238 273.659 684.976 274.341C684.715 275.023 684.584 275.818 684.584 276.727ZM706.253 273.378L703.944 273.787C703.847 273.491 703.694 273.21 703.484 272.943C703.279 272.676 703.001 272.457 702.648 272.287C702.296 272.116 701.856 272.031 701.327 272.031C700.606 272.031 700.003 272.193 699.52 272.517C699.038 272.835 698.796 273.247 698.796 273.753C698.796 274.19 698.958 274.543 699.282 274.81C699.606 275.077 700.128 275.295 700.85 275.466L702.93 275.943C704.134 276.222 705.032 276.651 705.623 277.23C706.214 277.81 706.509 278.562 706.509 279.489C706.509 280.273 706.282 280.972 705.827 281.585C705.378 282.193 704.751 282.67 703.944 283.017C703.143 283.364 702.214 283.537 701.157 283.537C699.691 283.537 698.495 283.224 697.569 282.599C696.643 281.969 696.074 281.074 695.864 279.915L698.327 279.54C698.481 280.182 698.796 280.668 699.273 280.997C699.751 281.321 700.373 281.483 701.14 281.483C701.975 281.483 702.643 281.31 703.143 280.963C703.643 280.611 703.893 280.182 703.893 279.676C703.893 279.267 703.739 278.923 703.432 278.645C703.131 278.366 702.668 278.156 702.043 278.014L699.827 277.528C698.606 277.25 697.702 276.807 697.117 276.199C696.538 275.591 696.248 274.821 696.248 273.889C696.248 273.116 696.464 272.44 696.895 271.861C697.327 271.281 697.924 270.83 698.685 270.506C699.447 270.176 700.319 270.011 701.302 270.011C702.716 270.011 703.83 270.318 704.643 270.932C705.455 271.54 705.992 272.355 706.253 273.378Z" fill="#1E1E1E"/>
<path d="M285.194 213.413C285.194 218.941 284.962 224.47 284.266 229.951C284.058 231.587 283.593 240.793 282.156 241.512" stroke="#14AE5C" stroke-width="8" stroke-linecap="round" stroke-linejoin="round"/>
<path d="M284.434 215.691C284.434 210.961 300.682 211.894 304.179 211.894" stroke="#14AE5C" stroke-width="8" stroke-linecap="round" stroke-linejoin="round"/>
<path d="M287.472 232.398C287.104 229.454 301.106 228.601 304.179 228.601" stroke="#14AE5C" stroke-width="8" stroke-linecap="round" stroke-linejoin="round"/>
<path d="M282.916 243.79C290.286 243.79 297.548 243.03 304.939 243.03" stroke="#14AE5C" stroke-width="8" stroke-linecap="round" stroke-linejoin="round"/>
<path d="M320.128 211.894C320.128 203.011 321.217 230.109 318.23 238.474C317.354 240.926 315.639 247.491 318.272 241.849C319.891 238.379 322.092 235.07 324.094 231.808C326.131 228.488 327.477 224.943 329.41 221.598C332.009 217.1 333.538 213.337 335.148 208.687C337.55 201.747 336.541 209.909 335.696 212.611C333.712 218.96 335.514 226.812 334.178 233.495C333.769 235.538 332.468 245.691 333.038 244.549" stroke="#14AE5C" stroke-width="8" stroke-linecap="round" stroke-linejoin="round"/>
<path d="M370.25 215.691C375.744 215.691 366.515 213.496 364.934 213.413C360.038 213.155 357.436 219.349 355.821 223.117C355.065 224.881 347.432 242.626 354.302 243.03C358.035 243.25 362.472 241.013 365.694 239.402C367.196 238.651 373.413 233.668 370.25 231.808C368.95 231.043 362.452 229.805 363.584 230.711C365.764 232.455 371.592 230.12 374.047 230.12" stroke="#14AE5C" stroke-width="8" stroke-linecap="round" stroke-linejoin="round"/>
<rect x="40" y="4" width="108.469" height="30" rx="3" fill="#FBFBFB"/>
<rect x="40.5" y="4.5" width="107.469" height="29" rx="2.5" stroke="black" stroke-opacity="0.2"/>
<path d="M49.6406 14V22H48.6719V15.0156H48.625L46.6719 16.3125V15.3281L48.6719 14H49.6406ZM52.1563 22.0625C51.9635 22.0625 51.7982 21.9935 51.6602 21.8555C51.5221 21.7174 51.4531 21.5521 51.4531 21.3594C51.4531 21.1667 51.5221 21.0013 51.6602 20.8633C51.7982 20.7253 51.9635 20.6562 52.1563 20.6562C52.349 20.6562 52.5143 20.7253 52.6523 20.8633C52.7904 21.0013 52.8594 21.1667 52.8594 21.3594C52.8594 21.487 52.8268 21.6042 52.7617 21.7109C52.6992 21.8177 52.6146 21.9036 52.5078 21.9687C52.4036 22.0313 52.2865 22.0625 52.1563 22.0625ZM59.1855 22L56.998 14H57.9824L59.6543 20.5156H59.7324L61.4355 14H62.5293L64.2324 20.5156H64.3105L65.9824 14H66.9668L64.7793 22H63.7793L62.0137 15.625H61.9512L60.1855 22H59.1855ZM70.0059 22.125C69.4277 22.125 68.929 21.9974 68.5098 21.7422C68.0931 21.4844 67.7715 21.125 67.5449 20.6641C67.321 20.2005 67.209 19.6615 67.209 19.0469C67.209 18.4323 67.321 17.8906 67.5449 17.4219C67.7715 16.9505 68.0866 16.5833 68.4902 16.3203C68.8965 16.0547 69.3704 15.9219 69.9121 15.9219C70.2246 15.9219 70.5332 15.974 70.8379 16.0781C71.1426 16.1823 71.4199 16.3516 71.6699 16.5859C71.9199 16.8177 72.1191 17.125 72.2676 17.5078C72.416 17.8906 72.4902 18.362 72.4902 18.9219V19.3125H67.8652V18.5156H71.5527C71.5527 18.1771 71.485 17.875 71.3496 17.6094C71.2168 17.3437 71.0267 17.1341 70.7793 16.9805C70.5345 16.8268 70.2454 16.75 69.9121 16.75C69.5449 16.75 69.2272 16.8411 68.959 17.0234C68.6934 17.2031 68.4889 17.4375 68.3457 17.7266C68.2025 18.0156 68.1309 18.3255 68.1309 18.6562V19.1875C68.1309 19.6406 68.209 20.0247 68.3652 20.3398C68.5241 20.6523 68.7441 20.8906 69.0254 21.0547C69.3066 21.2161 69.6335 21.2969 70.0059 21.2969C70.248 21.2969 70.4668 21.263 70.6621 21.1953C70.86 21.125 71.0306 21.0208 71.1738 20.8828C71.3171 20.7422 71.4277 20.5677 71.5059 20.3594L72.3965 20.6094C72.3027 20.9115 72.1452 21.1771 71.9238 21.4062C71.7025 21.6328 71.429 21.8099 71.1035 21.9375C70.778 22.0625 70.4121 22.125 70.0059 22.125ZM74.8145 14V22H73.8926V14H74.8145ZM78.9404 22.125C78.3779 22.125 77.8936 21.9922 77.4873 21.7266C77.0811 21.4609 76.7686 21.0951 76.5498 20.6289C76.3311 20.1628 76.2217 19.6302 76.2217 19.0312C76.2217 18.4219 76.3337 17.8841 76.5576 17.418C76.7842 16.9492 77.0993 16.5833 77.5029 16.3203C77.9092 16.0547 78.3831 15.9219 78.9248 15.9219C79.3467 15.9219 79.7269 16 80.0654 16.1562C80.404 16.3125 80.6813 16.5312 80.8975 16.8125C81.1136 17.0937 81.2477 17.4219 81.2998 17.7969H80.3779C80.3076 17.5234 80.1514 17.2812 79.9092 17.0703C79.6696 16.8568 79.3467 16.75 78.9404 16.75C78.5811 16.75 78.266 16.8437 77.9951 17.0312C77.7269 17.2161 77.5173 17.4779 77.3662 17.8164C77.2178 18.1523 77.1436 18.5469 77.1436 19C77.1436 19.4635 77.2165 19.8672 77.3623 20.2109C77.5107 20.5547 77.7191 20.8216 77.9873 21.0117C78.2581 21.2018 78.5758 21.2969 78.9404 21.2969C79.18 21.2969 79.3975 21.2552 79.5928 21.1719C79.7881 21.0885 79.9535 20.9688 80.0889 20.8125C80.2243 20.6562 80.3206 20.4687 80.3779 20.25H81.2998C81.2477 20.6042 81.1188 20.9232 80.9131 21.207C80.71 21.4883 80.4404 21.7122 80.1045 21.8789C79.7712 22.043 79.3831 22.125 78.9404 22.125ZM85.085 22.125C84.5433 22.125 84.068 21.9961 83.6592 21.7383C83.2529 21.4805 82.9352 21.1198 82.7061 20.6562C82.4795 20.1927 82.3662 19.651 82.3662 19.0312C82.3662 18.4062 82.4795 17.8607 82.7061 17.3945C82.9352 16.9284 83.2529 16.5664 83.6592 16.3086C84.068 16.0508 84.5433 15.9219 85.085 15.9219C85.6266 15.9219 86.1006 16.0508 86.5068 16.3086C86.9157 16.5664 87.2334 16.9284 87.46 17.3945C87.6891 17.8607 87.8037 18.4062 87.8037 19.0312C87.8037 19.651 87.6891 20.1927 87.46 20.6562C87.2334 21.1198 86.9157 21.4805 86.5068 21.7383C86.1006 21.9961 85.6266 22.125 85.085 22.125ZM85.085 21.2969C85.4964 21.2969 85.835 21.1914 86.1006 20.9805C86.3662 20.7695 86.5628 20.4922 86.6904 20.1484C86.818 19.8047 86.8818 19.4323 86.8818 19.0312C86.8818 18.6302 86.818 18.2565 86.6904 17.9102C86.5628 17.5638 86.3662 17.2839 86.1006 17.0703C85.835 16.8568 85.4964 16.75 85.085 16.75C84.6735 16.75 84.335 16.8568 84.0693 17.0703C83.8037 17.2839 83.6071 17.5638 83.4795 17.9102C83.3519 18.2565 83.2881 18.6302 83.2881 19.0312C83.2881 19.4323 83.3519 19.8047 83.4795 20.1484C83.6071 20.4922 83.8037 20.7695 84.0693 20.9805C84.335 21.1914 84.6735 21.2969 85.085 21.2969ZM89.2109 22V16H90.1016V16.9375H90.1797C90.3047 16.6172 90.5065 16.3685 90.7852 16.1914C91.0638 16.0117 91.3984 15.9219 91.7891 15.9219C92.1849 15.9219 92.5143 16.0117 92.7773 16.1914C93.043 16.3685 93.25 16.6172 93.3984 16.9375H93.4609C93.6146 16.6276 93.8451 16.3815 94.1523 16.1992C94.4596 16.0143 94.8281 15.9219 95.2578 15.9219C95.7943 15.9219 96.2331 16.0898 96.5742 16.4258C96.9154 16.7591 97.0859 17.2786 97.0859 17.9844V22H96.1641V17.9844C96.1641 17.5417 96.043 17.2253 95.8008 17.0352C95.5586 16.8451 95.2734 16.75 94.9453 16.75C94.5234 16.75 94.1966 16.8776 93.9648 17.1328C93.7331 17.3854 93.6172 17.7057 93.6172 18.0937V22H92.6797V17.8906C92.6797 17.5495 92.569 17.2747 92.3477 17.0664C92.1263 16.8555 91.8411 16.75 91.4922 16.75C91.2526 16.75 91.0286 16.8138 90.8203 16.9414C90.6146 17.069 90.4479 17.2461 90.3203 17.4727C90.1953 17.6966 90.1328 17.9557 90.1328 18.25V22H89.2109ZM101.287 22.125C100.709 22.125 100.21 21.9974 99.791 21.7422C99.3743 21.4844 99.0527 21.125 98.8262 20.6641C98.6022 20.2005 98.4902 19.6615 98.4902 19.0469C98.4902 18.4323 98.6022 17.8906 98.8262 17.4219C99.0527 16.9505 99.3678 16.5833 99.7715 16.3203C100.178 16.0547 100.652 15.9219 101.193 15.9219C101.506 15.9219 101.814 15.974 102.119 16.0781C102.424 16.1823 102.701 16.3516 102.951 16.5859C103.201 16.8177 103.4 17.125 103.549 17.5078C103.697 17.8906 103.771 18.362 103.771 18.9219V19.3125H99.1465V18.5156H102.834C102.834 18.1771 102.766 17.875 102.631 17.6094C102.498 17.3437 102.308 17.1341 102.061 16.9805C101.816 16.8268 101.527 16.75 101.193 16.75C100.826 16.75 100.508 16.8411 100.24 17.0234C99.9746 17.2031 99.7702 17.4375 99.627 17.7266C99.4837 18.0156 99.4121 18.3255 99.4121 18.6562V19.1875C99.4121 19.6406 99.4902 20.0247 99.6465 20.3398C99.8053 20.6523 100.025 20.8906 100.307 21.0547C100.588 21.2161 100.915 21.2969 101.287 21.2969C101.529 21.2969 101.748 21.263 101.943 21.1953C102.141 21.125 102.312 21.0208 102.455 20.8828C102.598 20.7422 102.709 20.5677 102.787 20.3594L103.678 20.6094C103.584 20.9115 103.426 21.1771 103.205 21.4062C102.984 21.6328 102.71 21.8099 102.385 21.9375C102.059 22.0625 101.693 22.125 101.287 22.125ZM112.518 17.3437L111.689 17.5781C111.637 17.4401 111.561 17.306 111.459 17.1758C111.36 17.043 111.225 16.9336 111.053 16.8477C110.881 16.7617 110.661 16.7187 110.393 16.7187C110.025 16.7187 109.719 16.8034 109.475 16.9727C109.232 17.1393 109.111 17.3516 109.111 17.6094C109.111 17.8385 109.195 18.0195 109.361 18.1523C109.528 18.2852 109.788 18.3958 110.143 18.4844L111.033 18.7031C111.57 18.8333 111.969 19.0326 112.232 19.3008C112.495 19.5664 112.627 19.9089 112.627 20.3281C112.627 20.6719 112.528 20.9792 112.33 21.25C112.135 21.5208 111.861 21.7344 111.51 21.8906C111.158 22.0469 110.749 22.125 110.283 22.125C109.671 22.125 109.165 21.9922 108.764 21.7266C108.363 21.4609 108.109 21.0729 108.002 20.5625L108.877 20.3437C108.96 20.6667 109.118 20.9089 109.35 21.0703C109.584 21.2318 109.89 21.3125 110.268 21.3125C110.697 21.3125 111.038 21.2214 111.291 21.0391C111.546 20.8542 111.674 20.6328 111.674 20.375C111.674 20.1667 111.601 19.9922 111.455 19.8516C111.309 19.7083 111.085 19.6016 110.783 19.5312L109.783 19.2969C109.234 19.1667 108.83 18.9648 108.572 18.6914C108.317 18.4154 108.189 18.0703 108.189 17.6562C108.189 17.3177 108.285 17.0182 108.475 16.7578C108.667 16.4974 108.929 16.293 109.26 16.1445C109.593 15.9961 109.971 15.9219 110.393 15.9219C110.986 15.9219 111.452 16.0521 111.791 16.3125C112.132 16.5729 112.374 16.9167 112.518 17.3437ZM116.452 22.125C115.89 22.125 115.405 21.9922 114.999 21.7266C114.593 21.4609 114.28 21.0951 114.062 20.6289C113.843 20.1628 113.733 19.6302 113.733 19.0312C113.733 18.4219 113.845 17.8841 114.069 17.418C114.296 16.9492 114.611 16.5833 115.015 16.3203C115.421 16.0547 115.895 15.9219 116.437 15.9219C116.858 15.9219 117.239 16 117.577 16.1562C117.916 16.3125 118.193 16.5312 118.409 16.8125C118.625 17.0937 118.759 17.4219 118.812 17.7969H117.89C117.819 17.5234 117.663 17.2812 117.421 17.0703C117.181 16.8568 116.858 16.75 116.452 16.75C116.093 16.75 115.778 16.8437 115.507 17.0312C115.239 17.2161 115.029 17.4779 114.878 17.8164C114.729 18.1523 114.655 18.5469 114.655 19C114.655 19.4635 114.728 19.8672 114.874 20.2109C115.022 20.5547 115.231 20.8216 115.499 21.0117C115.77 21.2018 116.088 21.2969 116.452 21.2969C116.692 21.2969 116.909 21.2552 117.104 21.1719C117.3 21.0885 117.465 20.9688 117.601 20.8125C117.736 20.6562 117.832 20.4687 117.89 20.25H118.812C118.759 20.6042 118.631 20.9232 118.425 21.207C118.222 21.4883 117.952 21.7122 117.616 21.8789C117.283 22.043 116.895 22.125 116.452 22.125ZM120.159 22V16H121.05V16.9062H121.112C121.222 16.6094 121.42 16.3685 121.706 16.1836C121.993 15.9987 122.315 15.9062 122.675 15.9062C122.743 15.9062 122.827 15.9076 122.929 15.9102C123.03 15.9128 123.107 15.9167 123.159 15.9219V16.8594C123.128 16.8516 123.056 16.8398 122.944 16.8242C122.835 16.806 122.719 16.7969 122.597 16.7969C122.305 16.7969 122.045 16.8581 121.815 16.9805C121.589 17.1003 121.409 17.2669 121.276 17.4805C121.146 17.6914 121.081 17.9323 121.081 18.2031V22H120.159ZM126.585 22.125C126.007 22.125 125.508 21.9974 125.089 21.7422C124.672 21.4844 124.351 21.125 124.124 20.6641C123.9 20.2005 123.788 19.6615 123.788 19.0469C123.788 18.4323 123.9 17.8906 124.124 17.4219C124.351 16.9505 124.666 16.5833 125.069 16.3203C125.476 16.0547 125.95 15.9219 126.491 15.9219C126.804 15.9219 127.112 15.974 127.417 16.0781C127.722 16.1823 127.999 16.3516 128.249 16.5859C128.499 16.8177 128.698 17.125 128.847 17.5078C128.995 17.8906 129.069 18.362 129.069 18.9219V19.3125H124.444V18.5156H128.132C128.132 18.1771 128.064 17.875 127.929 17.6094C127.796 17.3437 127.606 17.1341 127.358 16.9805C127.114 16.8268 126.825 16.75 126.491 16.75C126.124 16.75 125.806 16.8411 125.538 17.0234C125.272 17.2031 125.068 17.4375 124.925 17.7266C124.782 18.0156 124.71 18.3255 124.71 18.6562V19.1875C124.71 19.6406 124.788 20.0247 124.944 20.3398C125.103 20.6523 125.323 20.8906 125.604 21.0547C125.886 21.2161 126.213 21.2969 126.585 21.2969C126.827 21.2969 127.046 21.263 127.241 21.1953C127.439 21.125 127.61 21.0208 127.753 20.8828C127.896 20.7422 128.007 20.5677 128.085 20.3594L128.976 20.6094C128.882 20.9115 128.724 21.1771 128.503 21.4062C128.282 21.6328 128.008 21.8099 127.683 21.9375C127.357 22.0625 126.991 22.125 126.585 22.125ZM132.987 22.125C132.409 22.125 131.91 21.9974 131.491 21.7422C131.075 21.4844 130.753 21.125 130.526 20.6641C130.302 20.2005 130.19 19.6615 130.19 19.0469C130.19 18.4323 130.302 17.8906 130.526 17.4219C130.753 16.9505 131.068 16.5833 131.472 16.3203C131.878 16.0547 132.352 15.9219 132.894 15.9219C133.206 15.9219 133.515 15.974 133.819 16.0781C134.124 16.1823 134.401 16.3516 134.651 16.5859C134.901 16.8177 135.101 17.125 135.249 17.5078C135.397 17.8906 135.472 18.362 135.472 18.9219V19.3125H130.847V18.5156H134.534C134.534 18.1771 134.466 17.875 134.331 17.6094C134.198 17.3437 134.008 17.1341 133.761 16.9805C133.516 16.8268 133.227 16.75 132.894 16.75C132.526 16.75 132.209 16.8411 131.94 17.0234C131.675 17.2031 131.47 17.4375 131.327 17.7266C131.184 18.0156 131.112 18.3255 131.112 18.6562V19.1875C131.112 19.6406 131.19 20.0247 131.347 20.3398C131.506 20.6523 131.726 20.8906 132.007 21.0547C132.288 21.2161 132.615 21.2969 132.987 21.2969C133.229 21.2969 133.448 21.263 133.644 21.1953C133.841 21.125 134.012 21.0208 134.155 20.8828C134.299 20.7422 134.409 20.5677 134.487 20.3594L135.378 20.6094C135.284 20.9115 135.127 21.1771 134.905 21.4062C134.684 21.6328 134.41 21.8099 134.085 21.9375C133.759 22.0625 133.394 22.125 132.987 22.125ZM137.796 18.3906V22H136.874V16H137.765V16.9375H137.843C137.983 16.6328 138.197 16.388 138.483 16.2031C138.77 16.0156 139.14 15.9219 139.593 15.9219C139.999 15.9219 140.354 16.0052 140.659 16.1719C140.964 16.3359 141.201 16.5859 141.37 16.9219C141.539 17.2552 141.624 17.6771 141.624 18.1875V22H140.702V18.25C140.702 17.7786 140.58 17.4115 140.335 17.1484C140.09 16.8828 139.754 16.75 139.327 16.75C139.033 16.75 138.77 16.8138 138.538 16.9414C138.309 17.069 138.128 17.2552 137.995 17.5C137.862 17.7448 137.796 18.0417 137.796 18.3906Z" fill="black"/>
<defs>
<filter id="filter0_ddd_312_4826" x="94" y="1451" width="260" height="260" filterUnits="userSpaceOnUse" color-interpolation-filters="sRGB">
<feFlood flood-opacity="0" result="BackgroundImageFix"/>
<feColorMatrix in="SourceAlpha" type="matrix" values="0 0 0 0 0 0 0 0 0 0 0 0 0 0 0 0 0 0 127 0" result="hardAlpha"/>
<feOffset dy="2.5"/>
<feGaussianBlur stdDeviation="1"/>
<feColorMatrix type="matrix" values="0 0 0 0 0 0 0 0 0 0 0 0 0 0 0 0 0 0 0.02 0"/>
<feBlend mode="normal" in2="BackgroundImageFix" result="effect1_dropShadow_312_4826"/>
<feColorMatrix in="SourceAlpha" type="matrix" values="0 0 0 0 0 0 0 0 0 0 0 0 0 0 0 0 0 0 127 0" result="hardAlpha"/>
<feOffset dy="3"/>
<feGaussianBlur stdDeviation="2.5"/>
<feColorMatrix type="matrix" values="0 0 0 0 0 0 0 0 0 0 0 0 0 0 0 0 0 0 0.04 0"/>
<feBlend mode="normal" in2="effect1_dropShadow_312_4826" result="effect2_dropShadow_312_4826"/>
<feColorMatrix in="SourceAlpha" type="matrix" values="0 0 0 0 0 0 0 0 0 0 0 0 0 0 0 0 0 0 127 0" result="hardAlpha"/>
<feOffset dy="8"/>
<feGaussianBlur stdDeviation="5"/>
<feColorMatrix type="matrix" values="0 0 0 0 0 0 0 0 0 0 0 0 0 0 0 0 0 0 0.08 0"/>
<feBlend mode="normal" in2="effect2_dropShadow_312_4826" result="effect3_dropShadow_312_4826"/>
<feBlend mode="normal" in="SourceGraphic" in2="effect3_dropShadow_312_4826" result="shape"/>
</filter>
</defs>
</svg>
