<svg width="842" height="1072" viewBox="0 0 842 1072" fill="none" xmlns="http://www.w3.org/2000/svg">
<g clip-path="url(#clip0_552_2983)">
<path d="M66.8666 124.941C66.8666 103.459 63.9969 167.835 61.2479 189.14C59.4308 203.223 59.375 245.896 59.375 231.697" stroke="#1E1E1E" stroke-width="8" stroke-linecap="round" stroke-linejoin="round"/>
<path d="M76.2315 123.068C69.3329 118.633 115.734 115.577 119.412 115.577C151.728 115.577 183.508 122.486 215.763 116.513C244.231 111.241 274.119 113.625 302.854 111.415C322.23 109.924 341.035 108.085 360.498 108.085C368.869 108.085 373.678 109.688 381.1 113.704C388.495 117.704 395.017 117.45 403.159 117.45C406.915 117.45 419.371 113.226 422.304 115.369C426.444 118.394 424.826 130.895 424.489 135.45C422.976 155.88 418.228 176.186 415.645 196.528C413.692 211.907 415.284 225.856 411.483 241.062" stroke="#1E1E1E" stroke-width="8" stroke-linecap="round" stroke-linejoin="round"/>
<path d="M63.1211 241.062C69.1093 230.882 91.087 232.262 100.996 231.802C120.903 230.876 140.516 229.825 160.513 229.825C200.324 229.825 240.336 231.322 279.963 227.015C291.117 225.803 302.256 226.079 313.467 226.079C325.241 226.079 335.46 228.8 346.971 229.721C367.923 231.397 391.216 223.069 411.483 229.825" stroke="#1E1E1E" stroke-width="8" stroke-linecap="round" stroke-linejoin="round"/>
<path d="M63.1202 291.63C52.7657 291.63 83.7728 289.757 94.1273 289.757C115.083 289.757 135.847 289.757 156.766 289.757C190.387 289.757 224.218 291.63 258.007 291.63C286.552 291.63 315.096 291.63 343.641 291.63C358.765 291.63 373.357 287.885 388.591 287.885C394.348 287.885 400.106 287.885 405.863 287.885C409.834 287.885 419.268 285.815 413.355 289.757" stroke="#1E1E1E" stroke-width="8" stroke-linecap="round" stroke-linejoin="round"/>
<path d="M59.375 345.945C87.2489 345.945 115.204 340.326 143.032 340.326C172.984 340.326 204.628 340.225 234.284 345.009C259.131 349.016 283.222 342.199 307.848 342.199C329.907 342.199 351.965 342.199 374.024 342.199" stroke="#1E1E1E" stroke-width="8" stroke-linecap="round" stroke-linejoin="round"/>
<path d="M55.6289 398.386C61.6637 393.357 77.8816 399.868 85.8036 400.363C103.895 401.494 121.735 402.132 139.91 402.132C161.357 402.132 182.78 403.523 204.005 404.005C223.82 404.455 243.701 404.005 263.522 404.005C282.569 404.005 300.797 400.259 319.709 400.259" stroke="#1E1E1E" stroke-width="8" stroke-linecap="round" stroke-linejoin="round"/>
<rect width="480" height="1072" rx="6" stroke="#1E1E1E" stroke-width="4" stroke-linecap="round"/>
<rect x="32" y="928" width="416" height="80" rx="6" fill="#9747FF"/>
<path d="M537.968 9.81791V27.2725H535.326V12.46H535.224L531.048 15.1872V12.6645L535.403 9.81791H537.968ZM546.621 27.4344C546.155 27.4344 545.754 27.2696 545.419 26.9401C545.084 26.6048 544.916 26.2014 544.916 25.7298C544.916 25.2639 545.084 24.8662 545.419 24.5367C545.754 24.2014 546.155 24.0338 546.621 24.0338C547.087 24.0338 547.487 24.2014 547.823 24.5367C548.158 24.8662 548.325 25.2639 548.325 25.7298C548.325 26.0423 548.246 26.3293 548.087 26.5906C547.933 26.8463 547.729 27.0509 547.473 27.2043C547.217 27.3577 546.933 27.4344 546.621 27.4344ZM563.335 27.2725L558.494 9.81791H561.264L564.665 23.335H564.827L568.364 9.81791H571.108L574.645 23.3435H574.807L578.199 9.81791H580.977L576.128 27.2725H573.477L569.804 14.1986H569.668L565.994 27.2725H563.335ZM587.071 27.5367C585.781 27.5367 584.67 27.2611 583.739 26.71C582.812 26.1531 582.097 25.3719 581.591 24.3662C581.091 23.3548 580.841 22.1702 580.841 20.8122C580.841 19.4713 581.091 18.2895 581.591 17.2668C582.097 16.2441 582.801 15.4458 583.705 14.8719C584.614 14.298 585.676 14.0111 586.892 14.0111C587.631 14.0111 588.347 14.1333 589.04 14.3776C589.733 14.6219 590.355 15.0054 590.906 15.5281C591.457 16.0509 591.892 16.7298 592.21 17.5651C592.528 18.3946 592.687 19.4031 592.687 20.5906V21.4941H582.281V19.585H590.19C590.19 18.9145 590.054 18.3208 589.781 17.8037C589.508 17.281 589.125 16.8691 588.631 16.5679C588.142 16.2668 587.568 16.1162 586.909 16.1162C586.193 16.1162 585.568 16.2923 585.034 16.6446C584.506 16.9912 584.097 17.4458 583.807 18.0083C583.523 18.5651 583.381 19.1702 583.381 19.8236V21.3151C583.381 22.1901 583.534 22.9344 583.841 23.548C584.153 24.1617 584.588 24.6304 585.145 24.9543C585.702 25.2725 586.352 25.4316 587.097 25.4316C587.58 25.4316 588.02 25.3634 588.418 25.227C588.815 25.085 589.159 24.8747 589.449 24.5963C589.739 24.3179 589.96 23.9742 590.114 23.5651L592.526 23.9997C592.332 24.71 591.986 25.3321 591.486 25.8662C590.991 26.3946 590.369 26.8066 589.619 27.102C588.875 27.3918 588.026 27.5367 587.071 27.5367ZM597.607 9.81791V27.2725H595.059V9.81791H597.607ZM606.094 27.5367C604.827 27.5367 603.736 27.2497 602.821 26.6759C601.912 26.0963 601.213 25.298 600.724 24.281C600.236 23.2639 599.991 22.0992 599.991 20.7867C599.991 19.4571 600.241 18.2838 600.741 17.2668C601.241 16.2441 601.946 15.4458 602.855 14.8719C603.764 14.298 604.835 14.0111 606.068 14.0111C607.062 14.0111 607.949 14.1958 608.727 14.5651C609.506 14.9287 610.133 15.4401 610.611 16.0992C611.094 16.7583 611.381 17.5281 611.471 18.4088H608.991C608.855 17.7952 608.543 17.2668 608.054 16.8236C607.571 16.3804 606.923 16.1588 606.111 16.1588C605.4 16.1588 604.778 16.3463 604.244 16.7213C603.716 17.0906 603.304 17.6191 603.008 18.3066C602.713 18.9884 602.565 19.7952 602.565 20.727C602.565 21.6816 602.71 22.5054 603 23.1986C603.29 23.8918 603.699 24.4287 604.227 24.8094C604.761 25.1901 605.389 25.3804 606.111 25.3804C606.594 25.3804 607.031 25.2923 607.423 25.1162C607.821 24.9344 608.153 24.6759 608.42 24.3406C608.693 24.0054 608.883 23.602 608.991 23.1304H611.471C611.381 23.977 611.105 24.7327 610.645 25.3975C610.185 26.0622 609.568 26.585 608.795 26.9656C608.028 27.3463 607.128 27.5367 606.094 27.5367ZM619.255 27.5367C618.028 27.5367 616.957 27.2554 616.042 26.6929C615.127 26.1304 614.417 25.3435 613.911 24.3321C613.405 23.3208 613.153 22.1389 613.153 20.7867C613.153 19.4287 613.405 18.2412 613.911 17.2242C614.417 16.2071 615.127 15.4173 616.042 14.8548C616.957 14.2923 618.028 14.0111 619.255 14.0111C620.482 14.0111 621.553 14.2923 622.468 14.8548C623.383 15.4173 624.093 16.2071 624.599 17.2242C625.104 18.2412 625.357 19.4287 625.357 20.7867C625.357 22.1389 625.104 23.3208 624.599 24.3321C624.093 25.3435 623.383 26.1304 622.468 26.6929C621.553 27.2554 620.482 27.5367 619.255 27.5367ZM619.263 25.3975C620.059 25.3975 620.718 25.1872 621.241 24.7668C621.763 24.3463 622.15 23.7867 622.4 23.0878C622.655 22.3889 622.783 21.6191 622.783 20.7781C622.783 19.9429 622.655 19.1759 622.4 18.477C622.15 17.7725 621.763 17.2071 621.241 16.781C620.718 16.3548 620.059 16.1418 619.263 16.1418C618.462 16.1418 617.797 16.3548 617.269 16.781C616.746 17.2071 616.357 17.7725 616.101 18.477C615.851 19.1759 615.726 19.9429 615.726 20.7781C615.726 21.6191 615.851 22.3889 616.101 23.0878C616.357 23.7867 616.746 24.3463 617.269 24.7668C617.797 25.1872 618.462 25.3975 619.263 25.3975ZM627.746 27.2725V14.1816H630.192V16.3122H630.354C630.626 15.5906 631.072 15.0281 631.692 14.6247C632.311 14.2156 633.052 14.0111 633.916 14.0111C634.791 14.0111 635.524 14.2156 636.115 14.6247C636.711 15.0338 637.152 15.5963 637.436 16.3122H637.572C637.885 15.6134 638.382 15.0566 639.064 14.6418C639.746 14.2213 640.558 14.0111 641.501 14.0111C642.689 14.0111 643.658 14.3833 644.408 15.1276C645.163 15.8719 645.541 16.9941 645.541 18.4941V27.2725H642.993V18.7327C642.993 17.8463 642.751 17.2043 642.268 16.8066C641.785 16.4088 641.209 16.21 640.538 16.21C639.709 16.21 639.064 16.4656 638.604 16.977C638.143 17.4827 637.913 18.1333 637.913 18.9287V27.2725H635.373V18.5708C635.373 17.8605 635.152 17.2895 634.709 16.8577C634.265 16.4259 633.689 16.21 632.979 16.21C632.496 16.21 632.05 16.3378 631.64 16.5935C631.237 16.8435 630.91 17.1929 630.66 17.6418C630.416 18.0906 630.294 18.6105 630.294 19.2014V27.2725H627.746ZM654.143 27.5367C652.853 27.5367 651.742 27.2611 650.81 26.71C649.884 26.1531 649.168 25.3719 648.662 24.3662C648.162 23.3548 647.912 22.1702 647.912 20.8122C647.912 19.4713 648.162 18.2895 648.662 17.2668C649.168 16.2441 649.873 15.4458 650.776 14.8719C651.685 14.298 652.748 14.0111 653.964 14.0111C654.702 14.0111 655.418 14.1333 656.111 14.3776C656.804 14.6219 657.427 15.0054 657.978 15.5281C658.529 16.0509 658.964 16.7298 659.282 17.5651C659.6 18.3946 659.759 19.4031 659.759 20.5906V21.4941H649.353V19.585H657.262C657.262 18.9145 657.126 18.3208 656.853 17.8037C656.58 17.281 656.197 16.8691 655.702 16.5679C655.214 16.2668 654.64 16.1162 653.981 16.1162C653.265 16.1162 652.64 16.2923 652.106 16.6446C651.577 16.9912 651.168 17.4458 650.878 18.0083C650.594 18.5651 650.452 19.1702 650.452 19.8236V21.3151C650.452 22.1901 650.606 22.9344 650.912 23.548C651.225 24.1617 651.66 24.6304 652.216 24.9543C652.773 25.2725 653.424 25.4316 654.168 25.4316C654.651 25.4316 655.091 25.3634 655.489 25.227C655.887 25.085 656.231 24.8747 656.52 24.5963C656.81 24.3179 657.032 23.9742 657.185 23.5651L659.597 23.9997C659.404 24.71 659.057 25.3321 658.557 25.8662C658.063 26.3946 657.441 26.8066 656.691 27.102C655.947 27.3918 655.097 27.5367 654.143 27.5367ZM677.836 17.3776L675.526 17.7867C675.429 17.4912 675.276 17.21 675.066 16.9429C674.861 16.6759 674.583 16.4571 674.231 16.2867C673.878 16.1162 673.438 16.031 672.91 16.031C672.188 16.031 671.586 16.1929 671.103 16.5168C670.62 16.835 670.378 17.2469 670.378 17.7526C670.378 18.1901 670.54 18.5423 670.864 18.8094C671.188 19.0764 671.711 19.2952 672.432 19.4656L674.512 19.9429C675.716 20.2213 676.614 20.6503 677.205 21.2298C677.796 21.8094 678.091 22.5622 678.091 23.4884C678.091 24.2725 677.864 24.9713 677.41 25.585C676.961 26.1929 676.333 26.6702 675.526 27.0168C674.725 27.3634 673.796 27.5367 672.739 27.5367C671.273 27.5367 670.077 27.2242 669.151 26.5992C668.225 25.9685 667.657 25.0736 667.446 23.9145L669.91 23.5395C670.063 24.1816 670.378 24.6673 670.856 24.9969C671.333 25.3208 671.955 25.4827 672.722 25.4827C673.557 25.4827 674.225 25.3094 674.725 24.9628C675.225 24.6105 675.475 24.1816 675.475 23.6759C675.475 23.2668 675.321 22.923 675.015 22.6446C674.714 22.3662 674.25 22.156 673.625 22.0139L671.41 21.5281C670.188 21.2497 669.285 20.8066 668.699 20.1986C668.12 19.5906 667.83 18.8208 667.83 17.8889C667.83 17.1162 668.046 16.4401 668.478 15.8605C668.91 15.281 669.506 14.8293 670.267 14.5054C671.029 14.1759 671.901 14.0111 672.884 14.0111C674.299 14.0111 675.412 14.3179 676.225 14.9316C677.037 15.5395 677.574 16.3548 677.836 17.3776ZM685.951 27.5367C684.684 27.5367 683.593 27.2497 682.679 26.6759C681.77 26.0963 681.071 25.298 680.582 24.281C680.093 23.2639 679.849 22.0992 679.849 20.7867C679.849 19.4571 680.099 18.2838 680.599 17.2668C681.099 16.2441 681.804 15.4458 682.713 14.8719C683.622 14.298 684.693 14.0111 685.926 14.0111C686.92 14.0111 687.807 14.1958 688.585 14.5651C689.363 14.9287 689.991 15.4401 690.468 16.0992C690.951 16.7583 691.238 17.5281 691.329 18.4088H688.849C688.713 17.7952 688.4 17.2668 687.912 16.8236C687.429 16.3804 686.781 16.1588 685.968 16.1588C685.258 16.1588 684.636 16.3463 684.102 16.7213C683.574 17.0906 683.162 17.6191 682.866 18.3066C682.571 18.9884 682.423 19.7952 682.423 20.727C682.423 21.6816 682.568 22.5054 682.858 23.1986C683.147 23.8918 683.557 24.4287 684.085 24.8094C684.619 25.1901 685.247 25.3804 685.968 25.3804C686.451 25.3804 686.889 25.2923 687.281 25.1162C687.679 24.9344 688.011 24.6759 688.278 24.3406C688.551 24.0054 688.741 23.602 688.849 23.1304H691.329C691.238 23.977 690.963 24.7327 690.503 25.3975C690.042 26.0622 689.426 26.585 688.653 26.9656C687.886 27.3463 686.985 27.5367 685.951 27.5367ZM693.598 27.2725V14.1816H696.061V16.2611H696.198C696.436 15.5566 696.857 15.0026 697.459 14.5992C698.067 14.1901 698.755 13.9855 699.522 13.9855C699.681 13.9855 699.868 13.9912 700.084 14.0026C700.306 14.0139 700.479 14.0281 700.604 14.0452V16.4827C700.502 16.4543 700.32 16.423 700.059 16.3889C699.797 16.3492 699.536 16.3293 699.275 16.3293C698.672 16.3293 698.135 16.4571 697.664 16.7128C697.198 16.9628 696.828 17.3122 696.556 17.7611C696.283 18.2043 696.147 18.71 696.147 19.2781V27.2725H693.598ZM707.527 27.5367C706.237 27.5367 705.126 27.2611 704.194 26.71C703.268 26.1531 702.552 25.3719 702.046 24.3662C701.546 23.3548 701.296 22.1702 701.296 20.8122C701.296 19.4713 701.546 18.2895 702.046 17.2668C702.552 16.2441 703.257 15.4458 704.16 14.8719C705.069 14.298 706.132 14.0111 707.348 14.0111C708.086 14.0111 708.802 14.1333 709.495 14.3776C710.189 14.6219 710.811 15.0054 711.362 15.5281C711.913 16.0509 712.348 16.7298 712.666 17.5651C712.984 18.3946 713.143 19.4031 713.143 20.5906V21.4941H702.737V19.585H710.646C710.646 18.9145 710.51 18.3208 710.237 17.8037C709.964 17.281 709.581 16.8691 709.086 16.5679C708.598 16.2668 708.024 16.1162 707.365 16.1162C706.649 16.1162 706.024 16.2923 705.49 16.6446C704.961 16.9912 704.552 17.4458 704.262 18.0083C703.978 18.5651 703.836 19.1702 703.836 19.8236V21.3151C703.836 22.1901 703.99 22.9344 704.296 23.548C704.609 24.1617 705.044 24.6304 705.6 24.9543C706.157 25.2725 706.808 25.4316 707.552 25.4316C708.035 25.4316 708.475 25.3634 708.873 25.227C709.271 25.085 709.615 24.8747 709.904 24.5963C710.194 24.3179 710.416 23.9742 710.569 23.5651L712.981 23.9997C712.788 24.71 712.441 25.3321 711.941 25.8662C711.447 26.3946 710.825 26.8066 710.075 27.102C709.331 27.3918 708.481 27.5367 707.527 27.5367ZM721.157 27.5367C719.867 27.5367 718.756 27.2611 717.824 26.71C716.898 26.1531 716.182 25.3719 715.676 24.3662C715.176 23.3548 714.926 22.1702 714.926 20.8122C714.926 19.4713 715.176 18.2895 715.676 17.2668C716.182 16.2441 716.887 15.4458 717.79 14.8719C718.699 14.298 719.762 14.0111 720.978 14.0111C721.716 14.0111 722.432 14.1333 723.125 14.3776C723.818 14.6219 724.441 15.0054 724.992 15.5281C725.543 16.0509 725.978 16.7298 726.296 17.5651C726.614 18.3946 726.773 19.4031 726.773 20.5906V21.4941H716.367V19.585H724.276C724.276 18.9145 724.14 18.3208 723.867 17.8037C723.594 17.281 723.211 16.8691 722.716 16.5679C722.228 16.2668 721.654 16.1162 720.995 16.1162C720.279 16.1162 719.654 16.2923 719.12 16.6446C718.591 16.9912 718.182 17.4458 717.892 18.0083C717.608 18.5651 717.466 19.1702 717.466 19.8236V21.3151C717.466 22.1901 717.62 22.9344 717.926 23.548C718.239 24.1617 718.674 24.6304 719.23 24.9543C719.787 25.2725 720.438 25.4316 721.182 25.4316C721.665 25.4316 722.105 25.3634 722.503 25.227C722.901 25.085 723.245 24.8747 723.534 24.5963C723.824 24.3179 724.046 23.9742 724.199 23.5651L726.611 23.9997C726.418 24.71 726.071 25.3321 725.571 25.8662C725.077 26.3946 724.455 26.8066 723.705 27.102C722.961 27.3918 722.111 27.5367 721.157 27.5367ZM731.693 19.4997V27.2725H729.144V14.1816H731.59V16.3122H731.752C732.054 15.6191 732.525 15.0622 733.167 14.6418C733.815 14.2213 734.63 14.0111 735.613 14.0111C736.505 14.0111 737.286 14.1986 737.957 14.5736C738.627 14.9429 739.147 15.4941 739.517 16.227C739.886 16.96 740.071 17.8662 740.071 18.9458V27.2725H737.522V19.2526C737.522 18.3037 737.275 17.5622 736.781 17.0281C736.286 16.4884 735.608 16.2185 734.744 16.2185C734.153 16.2185 733.627 16.3463 733.167 16.602C732.713 16.8577 732.352 17.2327 732.085 17.727C731.823 18.2156 731.693 18.8066 731.693 19.4997ZM751.766 27.2725L747.914 14.1816H750.547L753.112 23.7952H753.24L755.814 14.1816H758.448L761.004 23.7526H761.132L763.681 14.1816H766.314L762.47 27.2725H759.871L757.212 17.8208H757.016L754.357 27.2725H751.766ZM768.276 27.2725V14.1816H770.825V27.2725H768.276ZM769.563 12.1617C769.12 12.1617 768.74 12.0139 768.421 11.7185C768.109 11.4173 767.953 11.0594 767.953 10.6446C767.953 10.2242 768.109 9.86621 768.421 9.57076C768.74 9.26962 769.12 9.11905 769.563 9.11905C770.007 9.11905 770.384 9.26962 770.697 9.57076C771.015 9.86621 771.174 10.2242 771.174 10.6446C771.174 11.0594 771.015 11.4173 770.697 11.7185C770.384 12.0139 770.007 12.1617 769.563 12.1617ZM779.908 14.1816V16.227H772.757V14.1816H779.908ZM774.675 11.0452H777.223V23.4287C777.223 23.923 777.297 24.2952 777.445 24.5452C777.592 24.7895 777.783 24.9571 778.016 25.048C778.254 25.1333 778.513 25.1759 778.791 25.1759C778.996 25.1759 779.175 25.1617 779.328 25.1333C779.482 25.1048 779.601 25.0821 779.686 25.0651L780.146 27.1702C779.999 27.227 779.788 27.2838 779.516 27.3406C779.243 27.4031 778.902 27.4372 778.493 27.4429C777.823 27.4543 777.198 27.335 776.618 27.085C776.038 26.835 775.57 26.4486 775.212 25.9259C774.854 25.4031 774.675 24.7469 774.675 23.9571V11.0452ZM785.1 19.4997V27.2725H782.552V9.81791H785.066V16.3122H785.228C785.535 15.6077 786.004 15.048 786.634 14.6333C787.265 14.2185 788.089 14.0111 789.106 14.0111C790.004 14.0111 790.788 14.1958 791.458 14.5651C792.134 14.9344 792.657 15.4855 793.026 16.2185C793.401 16.9458 793.589 17.8548 793.589 18.9458V27.2725H791.041V19.2526C791.041 18.2923 790.793 17.548 790.299 17.0196C789.805 16.4855 789.117 16.2185 788.237 16.2185C787.634 16.2185 787.095 16.3463 786.617 16.602C786.146 16.8577 785.774 17.2327 785.501 17.727C785.234 18.2156 785.1 18.8066 785.1 19.4997ZM559.713 63.2725V50.1816H562.261V63.2725H559.713ZM561 48.1617C560.557 48.1617 560.176 48.0139 559.858 47.7185C559.545 47.4173 559.389 47.0594 559.389 46.6446C559.389 46.2242 559.545 45.8662 559.858 45.5708C560.176 45.2696 560.557 45.1191 561 45.1191C561.443 45.1191 561.821 45.2696 562.134 45.5708C562.452 45.8662 562.611 46.2242 562.611 46.6446C562.611 47.0594 562.452 47.4173 562.134 47.7185C561.821 48.0139 561.443 48.1617 561 48.1617ZM567.782 55.4997V63.2725H565.234V50.1816H567.68V52.3122H567.842C568.143 51.6191 568.614 51.0622 569.256 50.6418C569.904 50.2213 570.719 50.0111 571.702 50.0111C572.594 50.0111 573.376 50.1986 574.046 50.5736C574.717 50.9429 575.236 51.4941 575.606 52.227C575.975 52.96 576.16 53.8662 576.16 54.9458V63.2725H573.611V55.2526C573.611 54.3037 573.364 53.5622 572.87 53.0281C572.376 52.4884 571.697 52.2185 570.833 52.2185C570.242 52.2185 569.717 52.3463 569.256 52.602C568.802 52.8577 568.441 53.2327 568.174 53.727C567.913 54.2156 567.782 54.8066 567.782 55.4997ZM585.351 50.1816V52.227H577.954V50.1816H585.351ZM579.982 63.2725V48.6645C579.982 47.8463 580.161 47.1673 580.519 46.6276C580.877 46.0821 581.351 45.6759 581.942 45.4088C582.533 45.1361 583.175 44.9997 583.869 44.9997C584.38 44.9997 584.817 45.0423 585.181 45.1276C585.545 45.2071 585.815 45.281 585.991 45.3492L585.394 47.4117C585.275 47.3776 585.121 47.3378 584.934 47.2923C584.746 47.2412 584.519 47.2156 584.252 47.2156C583.633 47.2156 583.19 47.3691 582.923 47.6759C582.661 47.9827 582.53 48.4259 582.53 49.0054V63.2725H579.982ZM592.523 63.5367C591.296 63.5367 590.225 63.2554 589.31 62.6929C588.395 62.1304 587.685 61.3435 587.18 60.3321C586.674 59.3208 586.421 58.1389 586.421 56.7867C586.421 55.4287 586.674 54.2412 587.18 53.2242C587.685 52.2071 588.395 51.4173 589.31 50.8548C590.225 50.2923 591.296 50.0111 592.523 50.0111C593.751 50.0111 594.822 50.2923 595.736 50.8548C596.651 51.4173 597.361 52.2071 597.867 53.2242C598.373 54.2412 598.626 55.4287 598.626 56.7867C598.626 58.1389 598.373 59.3208 597.867 60.3321C597.361 61.3435 596.651 62.1304 595.736 62.6929C594.822 63.2554 593.751 63.5367 592.523 63.5367ZM592.532 61.3975C593.327 61.3975 593.986 61.1872 594.509 60.7668C595.032 60.3463 595.418 59.7867 595.668 59.0878C595.924 58.3889 596.052 57.6191 596.052 56.7781C596.052 55.9429 595.924 55.1759 595.668 54.477C595.418 53.7725 595.032 53.2071 594.509 52.781C593.986 52.3548 593.327 52.1418 592.532 52.1418C591.731 52.1418 591.066 52.3548 590.538 52.781C590.015 53.2071 589.626 53.7725 589.37 54.477C589.12 55.1759 588.995 55.9429 588.995 56.7781C588.995 57.6191 589.12 58.3889 589.37 59.0878C589.626 59.7867 590.015 60.3463 590.538 60.7668C591.066 61.1872 591.731 61.3975 592.532 61.3975ZM601.014 63.2725V50.1816H603.477V52.2611H603.614C603.852 51.5566 604.273 51.0026 604.875 50.5992C605.483 50.1901 606.17 49.9855 606.937 49.9855C607.096 49.9855 607.284 49.9912 607.5 50.0026C607.721 50.0139 607.895 50.0281 608.02 50.0452V52.4827C607.917 52.4543 607.736 52.423 607.474 52.3889C607.213 52.3492 606.952 52.3293 606.69 52.3293C606.088 52.3293 605.551 52.4571 605.079 52.7128C604.614 52.9628 604.244 53.3122 603.971 53.7611C603.699 54.2043 603.562 54.71 603.562 55.2781V63.2725H601.014ZM609.769 63.2725V50.1816H612.215V52.3122H612.377C612.65 51.5906 613.096 51.0281 613.715 50.6247C614.334 50.2156 615.076 50.0111 615.939 50.0111C616.814 50.0111 617.547 50.2156 618.138 50.6247C618.735 51.0338 619.175 51.5963 619.459 52.3122H619.596C619.908 51.6134 620.405 51.0566 621.087 50.6418C621.769 50.2213 622.582 50.0111 623.525 50.0111C624.712 50.0111 625.681 50.3833 626.431 51.1276C627.187 51.8719 627.564 52.9941 627.564 54.4941V63.2725H625.016V54.7327C625.016 53.8463 624.775 53.2043 624.292 52.8066C623.809 52.4088 623.232 52.21 622.562 52.21C621.732 52.21 621.087 52.4656 620.627 52.977C620.167 53.4827 619.937 54.1333 619.937 54.9287V63.2725H617.397V54.5708C617.397 53.8605 617.175 53.2895 616.732 52.8577C616.289 52.4259 615.712 52.21 615.002 52.21C614.519 52.21 614.073 52.3378 613.664 52.5935C613.26 52.8435 612.934 53.1929 612.684 53.6418C612.439 54.0906 612.317 54.6105 612.317 55.2014V63.2725H609.769ZM634.334 63.5622C633.504 63.5622 632.754 63.4088 632.084 63.102C631.413 62.7895 630.882 62.3378 630.49 61.7469C630.103 61.156 629.91 60.4316 629.91 59.5736C629.91 58.835 630.052 58.227 630.336 57.7497C630.621 57.2725 631.004 56.8946 631.487 56.6162C631.97 56.3378 632.51 56.1276 633.106 55.9855C633.703 55.8435 634.311 55.7355 634.93 55.6617C635.714 55.5708 636.351 55.4969 636.839 55.4401C637.328 55.3776 637.683 55.2781 637.905 55.1418C638.126 55.0054 638.237 54.7838 638.237 54.477V54.4173C638.237 53.673 638.027 53.0963 637.606 52.6872C637.192 52.2781 636.572 52.0736 635.748 52.0736C634.89 52.0736 634.214 52.2639 633.72 52.6446C633.231 53.0196 632.893 53.4372 632.706 53.8975L630.311 53.352C630.595 52.5566 631.01 51.9145 631.555 51.4259C632.106 50.9316 632.74 50.5736 633.456 50.352C634.172 50.1247 634.925 50.0111 635.714 50.0111C636.237 50.0111 636.791 50.0736 637.376 50.1986C637.967 50.3179 638.518 50.5395 639.03 50.8634C639.547 51.1872 639.97 51.6503 640.3 52.2526C640.629 52.8492 640.794 53.6247 640.794 54.5793V63.2725H638.305V61.4827H638.203C638.038 61.8122 637.791 62.1361 637.461 62.4543C637.132 62.7725 636.709 63.0367 636.192 63.2469C635.675 63.4571 635.055 63.5622 634.334 63.5622ZM634.888 61.5168C635.592 61.5168 636.194 61.3776 636.694 61.0992C637.2 60.8208 637.584 60.4571 637.845 60.0083C638.112 59.5537 638.246 59.0679 638.246 58.5509V56.8634C638.155 56.9543 637.978 57.0395 637.717 57.1191C637.461 57.1929 637.169 57.2583 636.839 57.3151C636.51 57.3662 636.189 57.4145 635.876 57.46C635.564 57.4997 635.302 57.5338 635.092 57.5622C634.598 57.6247 634.146 57.7298 633.737 57.8776C633.334 58.0253 633.01 58.2384 632.765 58.5168C632.527 58.7895 632.407 59.1531 632.407 59.6077C632.407 60.2384 632.64 60.7156 633.106 61.0395C633.572 61.3577 634.166 61.5168 634.888 61.5168ZM649.843 50.1816V52.227H642.692V50.1816H649.843ZM644.61 47.0452H647.158V59.4287C647.158 59.923 647.232 60.2952 647.38 60.5452C647.527 60.7895 647.718 60.9571 647.951 61.048C648.189 61.1333 648.448 61.1759 648.726 61.1759C648.931 61.1759 649.11 61.1617 649.263 61.1333C649.417 61.1048 649.536 61.0821 649.621 61.0651L650.081 63.1702C649.934 63.227 649.723 63.2838 649.451 63.3406C649.178 63.4031 648.837 63.4372 648.428 63.4429C647.758 63.4543 647.133 63.335 646.553 63.085C645.973 62.835 645.505 62.4486 645.147 61.9259C644.789 61.4031 644.61 60.7469 644.61 59.9571V47.0452ZM652.206 63.2725V50.1816H654.754V63.2725H652.206ZM653.493 48.1617C653.049 48.1617 652.669 48.0139 652.351 47.7185C652.038 47.4173 651.882 47.0594 651.882 46.6446C651.882 46.2242 652.038 45.8662 652.351 45.5708C652.669 45.2696 653.049 45.1191 653.493 45.1191C653.936 45.1191 654.314 45.2696 654.626 45.5708C654.944 45.8662 655.103 46.2242 655.103 46.6446C655.103 47.0594 654.944 47.4173 654.626 47.7185C654.314 48.0139 653.936 48.1617 653.493 48.1617ZM663.24 63.5367C662.013 63.5367 660.942 63.2554 660.027 62.6929C659.113 62.1304 658.402 61.3435 657.897 60.3321C657.391 59.3208 657.138 58.1389 657.138 56.7867C657.138 55.4287 657.391 54.2412 657.897 53.2242C658.402 52.2071 659.113 51.4173 660.027 50.8548C660.942 50.2923 662.013 50.0111 663.24 50.0111C664.468 50.0111 665.539 50.2923 666.454 50.8548C667.368 51.4173 668.079 52.2071 668.584 53.2242C669.09 54.2412 669.343 55.4287 669.343 56.7867C669.343 58.1389 669.09 59.3208 668.584 60.3321C668.079 61.3435 667.368 62.1304 666.454 62.6929C665.539 63.2554 664.468 63.5367 663.24 63.5367ZM663.249 61.3975C664.044 61.3975 664.704 61.1872 665.226 60.7668C665.749 60.3463 666.135 59.7867 666.385 59.0878C666.641 58.3889 666.769 57.6191 666.769 56.7781C666.769 55.9429 666.641 55.1759 666.385 54.477C666.135 53.7725 665.749 53.2071 665.226 52.781C664.704 52.3548 664.044 52.1418 663.249 52.1418C662.448 52.1418 661.783 52.3548 661.255 52.781C660.732 53.2071 660.343 53.7725 660.087 54.477C659.837 55.1759 659.712 55.9429 659.712 56.7781C659.712 57.6191 659.837 58.3889 660.087 59.0878C660.343 59.7867 660.732 60.3463 661.255 60.7668C661.783 61.1872 662.448 61.3975 663.249 61.3975ZM674.279 55.4997V63.2725H671.731V50.1816H674.177V52.3122H674.339C674.64 51.6191 675.112 51.0622 675.754 50.6418C676.402 50.2213 677.217 50.0111 678.2 50.0111C679.092 50.0111 679.873 50.1986 680.544 50.5736C681.214 50.9429 681.734 51.4941 682.103 52.227C682.473 52.96 682.657 53.8662 682.657 54.9458V63.2725H680.109V55.2526C680.109 54.3037 679.862 53.5622 679.368 53.0281C678.873 52.4884 678.194 52.2185 677.331 52.2185C676.74 52.2185 676.214 52.3463 675.754 52.602C675.299 52.8577 674.939 53.2327 674.672 53.727C674.41 54.2156 674.279 54.8066 674.279 55.4997ZM695.324 63.5622C694.495 63.5622 693.745 63.4088 693.074 63.102C692.404 62.7895 691.872 62.3378 691.48 61.7469C691.094 61.156 690.901 60.4316 690.901 59.5736C690.901 58.835 691.043 58.227 691.327 57.7497C691.611 57.2725 691.995 56.8946 692.478 56.6162C692.961 56.3378 693.5 56.1276 694.097 55.9855C694.693 55.8435 695.301 55.7355 695.921 55.6617C696.705 55.5708 697.341 55.4969 697.83 55.4401C698.318 55.3776 698.674 55.2781 698.895 55.1418C699.117 55.0054 699.228 54.7838 699.228 54.477V54.4173C699.228 53.673 699.017 53.0963 698.597 52.6872C698.182 52.2781 697.563 52.0736 696.739 52.0736C695.881 52.0736 695.205 52.2639 694.711 52.6446C694.222 53.0196 693.884 53.4372 693.696 53.8975L691.301 53.352C691.586 52.5566 692 51.9145 692.546 51.4259C693.097 50.9316 693.73 50.5736 694.446 50.352C695.162 50.1247 695.915 50.0111 696.705 50.0111C697.228 50.0111 697.782 50.0736 698.367 50.1986C698.958 50.3179 699.509 50.5395 700.02 50.8634C700.537 51.1872 700.961 51.6503 701.29 52.2526C701.62 52.8492 701.784 53.6247 701.784 54.5793V63.2725H699.296V61.4827H699.193C699.029 61.8122 698.782 62.1361 698.452 62.4543C698.122 62.7725 697.699 63.0367 697.182 63.2469C696.665 63.4571 696.046 63.5622 695.324 63.5622ZM695.878 61.5168C696.583 61.5168 697.185 61.3776 697.685 61.0992C698.191 60.8208 698.574 60.4571 698.836 60.0083C699.103 59.5537 699.236 59.0679 699.236 58.5509V56.8634C699.145 56.9543 698.969 57.0395 698.708 57.1191C698.452 57.1929 698.159 57.2583 697.83 57.3151C697.5 57.3662 697.179 57.4145 696.867 57.46C696.554 57.4997 696.293 57.5338 696.083 57.5622C695.588 57.6247 695.137 57.7298 694.728 57.8776C694.324 58.0253 694 58.2384 693.756 58.5168C693.517 58.7895 693.398 59.1531 693.398 59.6077C693.398 60.2384 693.631 60.7156 694.097 61.0395C694.563 61.3577 695.157 61.5168 695.878 61.5168ZM704.927 63.2725V45.8179H707.475V52.3037H707.629C707.777 52.031 707.99 51.7156 708.268 51.3577C708.546 50.9997 708.933 50.6872 709.427 50.4202C709.921 50.1475 710.575 50.0111 711.387 50.0111C712.444 50.0111 713.387 50.2781 714.217 50.8122C715.046 51.3463 715.697 52.1162 716.169 53.1219C716.646 54.1276 716.885 55.3378 716.885 56.7526C716.885 58.1673 716.649 59.3804 716.177 60.3918C715.706 61.3975 715.058 62.173 714.234 62.7185C713.41 63.2583 712.47 63.5281 711.413 63.5281C710.617 63.5281 709.967 63.3946 709.461 63.1276C708.961 62.8605 708.569 62.548 708.285 62.1901C708.001 61.8321 707.782 61.5139 707.629 61.2355H707.416V63.2725H704.927ZM707.424 56.727C707.424 57.6475 707.558 58.4543 707.825 59.1475C708.092 59.8406 708.478 60.3833 708.984 60.7753C709.49 61.1617 710.109 61.3548 710.842 61.3548C711.603 61.3548 712.24 61.1531 712.751 60.7497C713.262 60.3406 713.649 59.7867 713.91 59.0878C714.177 58.3889 714.311 57.602 714.311 56.727C714.311 55.8634 714.18 55.0878 713.919 54.4003C713.663 53.7128 713.277 53.1702 712.76 52.7725C712.248 52.3747 711.609 52.1759 710.842 52.1759C710.103 52.1759 709.478 52.3662 708.967 52.7469C708.461 53.1276 708.078 53.6588 707.816 54.3406C707.555 55.0225 707.424 55.8179 707.424 56.727ZM724.804 63.5367C723.577 63.5367 722.506 63.2554 721.591 62.6929C720.676 62.1304 719.966 61.3435 719.46 60.3321C718.955 59.3208 718.702 58.1389 718.702 56.7867C718.702 55.4287 718.955 54.2412 719.46 53.2242C719.966 52.2071 720.676 51.4173 721.591 50.8548C722.506 50.2923 723.577 50.0111 724.804 50.0111C726.031 50.0111 727.103 50.2923 728.017 50.8548C728.932 51.4173 729.642 52.2071 730.148 53.2242C730.654 54.2412 730.906 55.4287 730.906 56.7867C730.906 58.1389 730.654 59.3208 730.148 60.3321C729.642 61.3435 728.932 62.1304 728.017 62.6929C727.103 63.2554 726.031 63.5367 724.804 63.5367ZM724.813 61.3975C725.608 61.3975 726.267 61.1872 726.79 60.7668C727.313 60.3463 727.699 59.7867 727.949 59.0878C728.205 58.3889 728.333 57.6191 728.333 56.7781C728.333 55.9429 728.205 55.1759 727.949 54.477C727.699 53.7725 727.313 53.2071 726.79 52.781C726.267 52.3548 725.608 52.1418 724.813 52.1418C724.012 52.1418 723.347 52.3548 722.818 52.781C722.296 53.2071 721.906 53.7725 721.651 54.477C721.401 55.1759 721.276 55.9429 721.276 56.7781C721.276 57.6191 721.401 58.3889 721.651 59.0878C721.906 59.7867 722.296 60.3463 722.818 60.7668C723.347 61.1872 724.012 61.3975 724.813 61.3975ZM741.588 57.8435V50.1816H744.144V63.2725H741.639V61.0054H741.502C741.201 61.7043 740.718 62.2867 740.053 62.7526C739.394 63.2128 738.573 63.4429 737.59 63.4429C736.749 63.4429 736.005 63.2583 735.357 62.8889C734.715 62.5139 734.21 61.96 733.84 61.227C733.477 60.4941 733.295 59.5878 733.295 58.5083V50.1816H735.843V58.2014C735.843 59.0935 736.09 59.8037 736.585 60.3321C737.079 60.8605 737.721 61.1247 738.511 61.1247C738.988 61.1247 739.463 61.0054 739.934 60.7668C740.411 60.5281 740.806 60.1673 741.119 59.6844C741.437 59.2014 741.593 58.5878 741.588 57.8435ZM753.223 50.1816V52.227H746.073V50.1816H753.223ZM747.99 47.0452H750.539V59.4287C750.539 59.923 750.612 60.2952 750.76 60.5452C750.908 60.7895 751.098 60.9571 751.331 61.048C751.57 61.1333 751.828 61.1759 752.107 61.1759C752.311 61.1759 752.49 61.1617 752.644 61.1333C752.797 61.1048 752.916 61.0821 753.002 61.0651L753.462 63.1702C753.314 63.227 753.104 63.2838 752.831 63.3406C752.558 63.4031 752.217 63.4372 751.808 63.4429C751.138 63.4543 750.513 63.335 749.933 63.085C749.354 62.835 748.885 62.4486 748.527 61.9259C748.169 61.4031 747.99 60.7469 747.99 59.9571V47.0452ZM775.774 45.8179V63.2725H773.354L764.482 50.4713H764.32V63.2725H761.686V45.8179H764.124L773.004 58.6361H773.166V45.8179H775.774ZM784.597 63.5367C783.308 63.5367 782.197 63.2611 781.265 62.71C780.339 62.1531 779.623 61.3719 779.117 60.3662C778.617 59.3548 778.367 58.1702 778.367 56.8122C778.367 55.4713 778.617 54.2895 779.117 53.2668C779.623 52.2441 780.327 51.4458 781.231 50.8719C782.14 50.298 783.202 50.0111 784.418 50.0111C785.157 50.0111 785.873 50.1333 786.566 50.3776C787.259 50.6219 787.881 51.0054 788.433 51.5281C788.984 52.0509 789.418 52.7298 789.737 53.5651C790.055 54.3946 790.214 55.4031 790.214 56.5906V57.4941H779.808V55.585H787.717C787.717 54.9145 787.58 54.3208 787.308 53.8037C787.035 53.281 786.651 52.8691 786.157 52.5679C785.668 52.2668 785.095 52.1162 784.435 52.1162C783.72 52.1162 783.095 52.2923 782.56 52.6446C782.032 52.9912 781.623 53.4458 781.333 54.0083C781.049 54.5651 780.907 55.1702 780.907 55.8236V57.3151C780.907 58.1901 781.06 58.9344 781.367 59.548C781.68 60.1617 782.114 60.6304 782.671 60.9543C783.228 61.2725 783.879 61.4316 784.623 61.4316C785.106 61.4316 785.546 61.3634 785.944 61.227C786.342 61.085 786.685 60.8747 786.975 60.5963C787.265 60.3179 787.487 59.9742 787.64 59.5651L790.052 59.9997C789.859 60.71 789.512 61.3321 789.012 61.8662C788.518 62.3946 787.896 62.8066 787.146 63.102C786.401 63.3918 785.552 63.5367 784.597 63.5367ZM794.292 50.1816L797.181 55.2781L800.096 50.1816H802.883L798.8 56.727L802.917 63.2725H800.13L797.181 58.3804L794.241 63.2725H791.445L795.519 56.727L791.496 50.1816H794.292ZM811.154 50.1816V52.227H804.004V50.1816H811.154ZM805.921 47.0452H808.469V59.4287C808.469 59.923 808.543 60.2952 808.691 60.5452C808.839 60.7895 809.029 60.9571 809.262 61.048C809.501 61.1333 809.759 61.1759 810.038 61.1759C810.242 61.1759 810.421 61.1617 810.575 61.1333C810.728 61.1048 810.847 61.0821 810.933 61.0651L811.393 63.1702C811.245 63.227 811.035 63.2838 810.762 63.3406C810.489 63.4031 810.148 63.4372 809.739 63.4429C809.069 63.4543 808.444 63.335 807.864 63.085C807.285 62.835 806.816 62.4486 806.458 61.9259C806.1 61.4031 805.921 60.7469 805.921 59.9571V47.0452ZM569.523 89.3776L567.213 89.7867C567.116 89.4912 566.963 89.21 566.753 88.9429C566.548 88.6759 566.27 88.4571 565.918 88.2867C565.565 88.1162 565.125 88.031 564.597 88.031C563.875 88.031 563.273 88.1929 562.79 88.5168C562.307 88.835 562.065 89.2469 562.065 89.7526C562.065 90.1901 562.227 90.5423 562.551 90.8094C562.875 91.0764 563.398 91.2952 564.119 91.4656L566.199 91.9429C567.403 92.2213 568.301 92.6503 568.892 93.2298C569.483 93.8094 569.778 94.5622 569.778 95.4884C569.778 96.2725 569.551 96.9713 569.097 97.585C568.648 98.1929 568.02 98.6702 567.213 99.0168C566.412 99.3634 565.483 99.5367 564.426 99.5367C562.96 99.5367 561.764 99.2242 560.838 98.5992C559.912 97.9685 559.344 97.0736 559.134 95.9145L561.597 95.5395C561.75 96.1816 562.065 96.6673 562.543 96.9969C563.02 97.3208 563.642 97.4827 564.409 97.4827C565.244 97.4827 565.912 97.3094 566.412 96.9628C566.912 96.6105 567.162 96.1816 567.162 95.6759C567.162 95.2668 567.009 94.923 566.702 94.6446C566.401 94.3662 565.938 94.156 565.312 94.0139L563.097 93.5281C561.875 93.2497 560.972 92.8066 560.386 92.1986C559.807 91.5906 559.517 90.8208 559.517 89.8889C559.517 89.1162 559.733 88.4401 560.165 87.8605C560.597 87.281 561.193 86.8293 561.955 86.5054C562.716 86.1759 563.588 86.0111 564.571 86.0111C565.986 86.0111 567.099 86.3179 567.912 86.9316C568.724 87.5395 569.261 88.3548 569.523 89.3776ZM578.235 86.1816V88.227H571.084V86.1816H578.235ZM573.002 83.0452H575.55V95.4287C575.55 95.923 575.624 96.2952 575.772 96.5452C575.92 96.7895 576.11 96.9571 576.343 97.048C576.582 97.1333 576.84 97.1759 577.119 97.1759C577.323 97.1759 577.502 97.1617 577.656 97.1333C577.809 97.1048 577.928 97.0821 578.013 97.0651L578.474 99.1702C578.326 99.227 578.116 99.2838 577.843 99.3406C577.57 99.4031 577.229 99.4372 576.82 99.4429C576.15 99.4543 575.525 99.335 574.945 99.085C574.366 98.835 573.897 98.4486 573.539 97.9259C573.181 97.4031 573.002 96.7469 573.002 95.9571V83.0452ZM586.099 99.5367C584.81 99.5367 583.699 99.2611 582.767 98.71C581.841 98.1531 581.125 97.3719 580.619 96.3662C580.119 95.3548 579.869 94.1702 579.869 92.8122C579.869 91.4713 580.119 90.2895 580.619 89.2668C581.125 88.2441 581.829 87.4458 582.733 86.8719C583.642 86.298 584.704 86.0111 585.92 86.0111C586.659 86.0111 587.375 86.1333 588.068 86.3776C588.761 86.6219 589.383 87.0054 589.935 87.5281C590.486 88.0509 590.92 88.7298 591.239 89.5651C591.557 90.3946 591.716 91.4031 591.716 92.5906V93.4941H581.31V91.585H589.219C589.219 90.9145 589.082 90.3208 588.81 89.8037C588.537 89.281 588.153 88.8691 587.659 88.5679C587.17 88.2668 586.597 88.1162 585.937 88.1162C585.222 88.1162 584.597 88.2923 584.062 88.6446C583.534 88.9912 583.125 89.4458 582.835 90.0083C582.551 90.5651 582.409 91.1702 582.409 91.8236V93.3151C582.409 94.1901 582.562 94.9344 582.869 95.548C583.182 96.1617 583.616 96.6304 584.173 96.9543C584.73 97.2725 585.381 97.4316 586.125 97.4316C586.608 97.4316 587.048 97.3634 587.446 97.227C587.844 97.085 588.187 96.8747 588.477 96.5963C588.767 96.3179 588.989 95.9742 589.142 95.5651L591.554 95.9997C591.361 96.71 591.014 97.3321 590.514 97.8662C590.02 98.3946 589.398 98.8066 588.648 99.102C587.903 99.3918 587.054 99.5367 586.099 99.5367ZM594.087 104.182V86.1816H596.576V88.3037H596.789C596.937 88.031 597.15 87.7156 597.428 87.3577C597.707 86.9997 598.093 86.6872 598.587 86.4202C599.082 86.1475 599.735 86.0111 600.547 86.0111C601.604 86.0111 602.547 86.2781 603.377 86.8122C604.207 87.3463 604.857 88.1162 605.329 89.1219C605.806 90.1276 606.045 91.3378 606.045 92.7526C606.045 94.1673 605.809 95.3804 605.337 96.3918C604.866 97.3975 604.218 98.173 603.394 98.7185C602.57 99.2583 601.63 99.5281 600.573 99.5281C599.778 99.5281 599.127 99.3946 598.621 99.1276C598.121 98.8605 597.729 98.548 597.445 98.1901C597.161 97.8321 596.942 97.5139 596.789 97.2355H596.636V104.182H594.087ZM596.584 92.727C596.584 93.6475 596.718 94.4543 596.985 95.1475C597.252 95.8406 597.638 96.3833 598.144 96.7753C598.65 97.1617 599.269 97.3548 600.002 97.3548C600.763 97.3548 601.4 97.1531 601.911 96.7497C602.422 96.3406 602.809 95.7867 603.07 95.0878C603.337 94.3889 603.471 93.602 603.471 92.727C603.471 91.8634 603.34 91.0878 603.079 90.4003C602.823 89.7128 602.437 89.1702 601.92 88.7725C601.408 88.3747 600.769 88.1759 600.002 88.1759C599.263 88.1759 598.638 88.3662 598.127 88.7469C597.621 89.1276 597.238 89.6588 596.976 90.3406C596.715 91.0225 596.584 91.8179 596.584 92.727ZM618.253 89.3776L615.944 89.7867C615.847 89.4912 615.694 89.21 615.484 88.9429C615.279 88.6759 615.001 88.4571 614.648 88.2867C614.296 88.1162 613.856 88.031 613.327 88.031C612.606 88.031 612.003 88.1929 611.52 88.5168C611.038 88.835 610.796 89.2469 610.796 89.7526C610.796 90.1901 610.958 90.5423 611.282 90.8094C611.606 91.0764 612.128 91.2952 612.85 91.4656L614.93 91.9429C616.134 92.2213 617.032 92.6503 617.623 93.2298C618.214 93.8094 618.509 94.5622 618.509 95.4884C618.509 96.2725 618.282 96.9713 617.827 97.585C617.378 98.1929 616.751 98.6702 615.944 99.0168C615.143 99.3634 614.214 99.5367 613.157 99.5367C611.691 99.5367 610.495 99.2242 609.569 98.5992C608.643 97.9685 608.074 97.0736 607.864 95.9145L610.327 95.5395C610.481 96.1816 610.796 96.6673 611.273 96.9969C611.751 97.3208 612.373 97.4827 613.14 97.4827C613.975 97.4827 614.643 97.3094 615.143 96.9628C615.643 96.6105 615.893 96.1816 615.893 95.6759C615.893 95.2668 615.739 94.923 615.432 94.6446C615.131 94.3662 614.668 94.156 614.043 94.0139L611.827 93.5281C610.606 93.2497 609.702 92.8066 609.117 92.1986C608.538 91.5906 608.248 90.8208 608.248 89.8889C608.248 89.1162 608.464 88.4401 608.895 87.8605C609.327 87.281 609.924 86.8293 610.685 86.5054C611.447 86.1759 612.319 86.0111 613.302 86.0111C614.716 86.0111 615.83 86.3179 616.643 86.9316C617.455 87.5395 617.992 88.3548 618.253 89.3776Z" fill="#1E1E1E"/>
<path d="M197.194 29.4131C197.194 34.9408 196.962 40.4705 196.266 45.9517C196.058 47.5876 195.593 56.7932 194.156 57.5118" stroke="#1E1E1E" stroke-width="8" stroke-linecap="round" stroke-linejoin="round"/>
<path d="M196.434 31.6911C196.434 26.9612 212.682 27.894 216.179 27.894" stroke="#1E1E1E" stroke-width="8" stroke-linecap="round" stroke-linejoin="round"/>
<path d="M199.472 48.3987C199.104 45.4546 213.106 44.6016 216.179 44.6016" stroke="#1E1E1E" stroke-width="8" stroke-linecap="round" stroke-linejoin="round"/>
<path d="M194.916 59.7897C202.286 59.7897 209.548 59.0303 216.939 59.0303" stroke="#1E1E1E" stroke-width="8" stroke-linecap="round" stroke-linejoin="round"/>
<path d="M232.128 27.8943C232.128 19.0118 233.217 46.1091 230.23 54.4742C229.354 56.9262 227.639 63.4919 230.272 57.8494C231.891 54.3792 234.092 51.0701 236.094 47.8081C238.131 44.4885 239.477 40.9435 241.41 37.5981C244.009 33.1002 245.538 29.3375 247.148 24.6878C249.55 17.7477 248.541 25.9095 247.696 28.6115C245.712 34.9603 247.514 42.8127 246.178 49.4957C245.769 51.5382 244.468 61.6913 245.038 60.5496" stroke="#1E1E1E" stroke-width="8" stroke-linecap="round" stroke-linejoin="round"/>
<path d="M282.25 31.6913C287.744 31.6913 278.515 29.4963 276.934 29.4131C272.038 29.1554 269.436 35.3495 267.821 39.1168C267.065 40.8815 259.432 58.6265 266.302 59.0306C270.035 59.2502 274.472 57.0132 277.694 55.4023C279.196 54.6511 285.413 49.6683 282.25 47.808C280.95 47.0429 274.452 45.8051 275.584 46.7111C277.764 48.4547 283.592 46.1204 286.047 46.1204" stroke="#1E1E1E" stroke-width="8" stroke-linecap="round" stroke-linejoin="round"/>
</g>
<defs>
<clipPath id="clip0_552_2983">
<rect width="842" height="1072" fill="white"/>
</clipPath>
</defs>
</svg>
