<svg width="842" height="1072" viewBox="0 0 842 1072" fill="none" xmlns="http://www.w3.org/2000/svg">
<g clip-path="url(#clip0_552_2984)">
<path d="M75.1655 124.82C75.1655 103.338 72.2958 167.714 69.5467 189.019C67.7296 203.102 67.6738 245.775 67.6738 231.576" stroke="#1E1E1E" stroke-width="8" stroke-linecap="round" stroke-linejoin="round"/>
<path d="M84.5303 122.947C77.6318 118.512 124.033 115.456 127.711 115.456C160.027 115.456 191.806 122.365 224.062 116.392C252.53 111.12 282.418 113.504 311.153 111.293C330.529 109.803 349.334 107.964 368.797 107.964C377.167 107.964 381.977 109.567 389.399 113.583C396.794 117.583 403.316 117.328 411.457 117.328C415.214 117.328 427.67 113.104 430.603 115.247C434.743 118.273 433.125 130.774 432.788 135.329C431.275 155.759 426.527 176.065 423.944 196.407C421.991 211.786 423.583 225.734 419.781 240.941" stroke="#1E1E1E" stroke-width="8" stroke-linecap="round" stroke-linejoin="round"/>
<path d="M71.4199 240.941C77.4081 230.761 99.3859 232.141 109.294 231.68C129.202 230.755 148.814 229.703 168.811 229.703C208.623 229.703 248.635 231.201 288.261 226.894C299.416 225.682 310.555 225.958 321.766 225.958C333.54 225.958 343.759 228.679 355.27 229.599C376.222 231.276 399.515 222.948 419.782 229.703" stroke="#1E1E1E" stroke-width="8" stroke-linecap="round" stroke-linejoin="round"/>
<path d="M71.419 291.509C61.0645 291.509 92.0716 289.636 102.426 289.636C123.381 289.636 144.146 289.636 165.065 289.636C198.686 289.636 232.517 291.509 266.306 291.509C294.85 291.509 323.395 291.509 351.94 291.509C367.063 291.509 381.656 287.763 396.889 287.763C402.647 287.763 408.404 287.763 414.162 287.763C418.133 287.763 427.567 285.694 421.654 289.636" stroke="#1E1E1E" stroke-width="8" stroke-linecap="round" stroke-linejoin="round"/>
<path d="M67.6738 345.824C95.5478 345.824 123.503 340.205 151.331 340.205C181.282 340.205 212.927 340.104 242.583 344.888C267.43 348.895 291.521 342.078 316.147 342.078C338.206 342.078 360.264 342.078 382.323 342.078" stroke="#1E1E1E" stroke-width="8" stroke-linecap="round" stroke-linejoin="round"/>
<path d="M63.9277 398.265C69.9626 393.236 86.1804 399.747 94.1024 400.242C112.194 401.373 130.034 402.011 148.209 402.011C169.656 402.011 191.079 403.401 212.304 403.884C232.119 404.334 252 403.884 271.821 403.884C290.868 403.884 309.096 400.138 328.008 400.138" stroke="#1E1E1E" stroke-width="8" stroke-linecap="round" stroke-linejoin="round"/>
<rect width="480" height="1072" rx="6" stroke="#1E1E1E" stroke-width="4" stroke-linecap="round"/>
<path d="M68.2578 486.303C117.144 486.303 165.907 484.663 214.592 484.663C262.096 484.663 309.699 481.383 356.916 481.383" stroke="#1E1E1E" stroke-width="8" stroke-linecap="round" stroke-linejoin="round"/>
<path d="M66.6173 487.944C60.1728 485.527 66.9681 502.79 67.8929 505.985C70.1617 513.823 79.6776 512.545 86.2074 512.545C100.586 512.545 114.65 510.905 128.941 510.905C158.463 510.905 187.985 510.905 217.507 510.905C232.231 510.905 244.472 512.837 259.33 510.085C275.041 507.176 292.653 509.265 308.624 509.265C323.811 509.265 338.352 504.345 353.636 504.345C362.626 504.345 363.811 504.208 361.107 495.324C359.852 491.201 360.843 479.312 355.276 483.024" stroke="#1E1E1E" stroke-width="8" stroke-linecap="round" stroke-linejoin="round"/>
<path d="M25.6152 560.108C26.6003 551.242 40.9328 547.194 48.5767 546.987C59.7793 546.685 66.3253 551.859 76.4585 553.548" stroke="#1E1E1E" stroke-width="8" stroke-linecap="round" stroke-linejoin="round"/>
<path d="M32.1758 574.869C32.8855 568.837 44.884 565.712 50.2169 565.12C56.5744 564.414 64.2058 567.509 69.8982 569.949" stroke="#1E1E1E" stroke-width="8" stroke-linecap="round" stroke-linejoin="round"/>
<path d="M40.377 592.911C44.2577 586.701 57.4171 589.297 63.3384 591.271" stroke="#1E1E1E" stroke-width="8" stroke-linecap="round" stroke-linejoin="round"/>
<path d="M110.9 574.869C120.032 570.811 132.407 573.711 142.154 573.138C156.224 572.31 169.932 567.973 183.885 566.76C204.639 564.955 226.896 568.229 247.394 564.664C266.32 561.373 288.362 559.914 307.622 561.84C318.741 562.952 329.582 563.64 340.88 563.389C350.172 563.182 358.998 560.108 368.397 560.108" stroke="#1E1E1E" stroke-width="8" stroke-linecap="round" stroke-linejoin="round"/>
<path d="M412.68 546.987C410.468 545.758 406.484 543.745 406.484 540.7C406.484 538.053 415.005 545.428 415.869 546.076C424.58 552.609 433.319 551.853 442.476 556.19C446.474 558.084 428.262 566.896 425.801 568.673C419.403 573.294 412.713 576.878 407.76 583.07" stroke="#1E1E1E" stroke-width="8" stroke-linecap="round" stroke-linejoin="round"/>
<path d="M27.2559 651.954C35.1529 634.186 53.0781 638.007 66.6184 647.034" stroke="#B7B7B7" stroke-width="8" stroke-linecap="round" stroke-linejoin="round"/>
<path d="M37.7578 753.822C45.6548 736.054 63.58 739.875 77.1203 748.902" stroke="#B7B7B7" stroke-width="8" stroke-linecap="round" stroke-linejoin="round"/>
<path d="M30.5352 671.636C39.6491 663.028 48.7059 661.04 60.057 666.715" stroke="#1E1E1E" stroke-width="8" stroke-linecap="round" stroke-linejoin="round"/>
<path d="M41.0391 773.504C50.153 764.896 59.2098 762.908 70.561 768.583" stroke="#1E1E1E" stroke-width="8" stroke-linecap="round" stroke-linejoin="round"/>
<path d="M35.4551 694.597C37.0317 680.408 53.5687 683.261 58.4165 692.957" stroke="#1E1E1E" stroke-width="8" stroke-linecap="round" stroke-linejoin="round"/>
<path d="M45.959 796.465C47.5356 782.276 64.0726 785.129 68.9205 794.825" stroke="#1E1E1E" stroke-width="8" stroke-linecap="round" stroke-linejoin="round"/>
<path d="M114.181 674.915C108.878 674.621 107.901 674.376 114.181 674.824C119.846 675.229 125.636 674.915 131.311 674.915C146.103 674.915 160.894 674.915 175.685 674.915C202.54 674.915 228.553 669.717 255.231 668.446C274.908 667.509 300.214 678.668 318.83 671.635C337.302 664.657 354.121 668.355 373.318 668.355" stroke="#1E1E1E" stroke-width="8" stroke-linecap="round" stroke-linejoin="round"/>
<path d="M124.683 776.784C119.38 776.489 118.403 776.244 124.683 776.693C130.348 777.097 136.138 776.784 141.813 776.784C156.605 776.784 171.396 776.784 186.187 776.784C213.042 776.784 239.055 771.585 265.732 770.314C285.41 769.377 310.716 780.536 329.332 773.503C347.804 766.525 364.623 770.223 383.82 770.223" stroke="#1E1E1E" stroke-width="8" stroke-linecap="round" stroke-linejoin="round"/>
<path d="M409.399 648.674C409.636 645.348 420.125 655.217 422.52 656.875C424.62 658.329 439.559 666.533 438.465 667.717C432.143 674.566 424.007 679.392 416.961 685.394C413.812 688.077 402.006 695.001 404.478 696.237" stroke="#1E1E1E" stroke-width="8" stroke-linecap="round" stroke-linejoin="round"/>
<path d="M419.903 750.542C420.14 747.217 430.629 757.085 433.023 758.743C435.124 760.197 450.063 768.401 448.969 769.586C442.647 776.434 434.511 781.26 427.465 787.262C424.316 789.945 412.51 796.869 414.982 798.105" stroke="#1E1E1E" stroke-width="8" stroke-linecap="round" stroke-linejoin="round"/>
<path d="M38.7363 859.02C44.4395 842.544 73.565 838.858 79.739 857.38" stroke="#B7B7B7" stroke-width="8" stroke-linecap="round" stroke-linejoin="round"/>
<path d="M40.377 883.621C41.3048 866.919 71.5702 857.567 74.8192 877.061" stroke="#B7B7B7" stroke-width="8" stroke-linecap="round" stroke-linejoin="round"/>
<path d="M50.2163 898.382C42.1701 897.376 53.5614 889.62 56.7767 888.906C62.577 887.617 68.3404 892.745 71.5376 896.742" stroke="#1E1E1E" stroke-width="8" stroke-linecap="round" stroke-linejoin="round"/>
<path d="M125.661 880.341C123.584 873.692 149.975 880.276 153.543 880.341C168.336 880.61 183.163 879.483 197.826 881.616C220.274 884.881 245.338 893.021 268.35 888.177C280.309 885.659 291.64 888.541 303.704 888.541C312.882 888.541 321.558 887.147 330.674 886.901C341.521 886.608 352.512 885.557 363.477 885.261C369.154 885.107 374.2 882.13 379.878 881.981C381.438 881.94 392.711 881.981 388.078 881.981" stroke="#1E1E1E" stroke-width="8" stroke-linecap="round" stroke-linejoin="round"/>
<path d="M417.6 857.379C412.161 846.501 420.054 859.832 423.431 863.21C430.919 870.698 439.4 881.914 449.582 885.898C451.528 886.66 455.586 886.299 452.042 887.265C447.399 888.531 442.907 890.804 438.921 893.461C429.202 899.94 421.493 908.868 412.68 916.422" stroke="#1E1E1E" stroke-width="8" stroke-linecap="round" stroke-linejoin="round"/>
<path d="M529.607 27.2725V25.3634L535.514 19.2441C536.144 18.5793 536.664 17.9969 537.073 17.4969C537.488 16.9912 537.798 16.5111 538.002 16.0566C538.207 15.602 538.309 15.1191 538.309 14.6077C538.309 14.0281 538.173 13.5281 537.9 13.1077C537.627 12.6816 537.255 12.3548 536.783 12.1276C536.312 11.8946 535.781 11.7781 535.19 11.7781C534.565 11.7781 534.019 11.906 533.553 12.1617C533.087 12.4173 532.729 12.7781 532.479 13.2441C532.229 13.71 532.104 14.2554 532.104 14.8804H529.59C529.59 13.8179 529.835 12.8889 530.323 12.0935C530.812 11.298 531.482 10.6816 532.335 10.2441C533.187 9.80087 534.156 9.57928 535.241 9.57928C536.337 9.57928 537.303 9.79803 538.139 10.2355C538.979 10.6673 539.636 11.2583 540.107 12.0083C540.579 12.7526 540.815 13.5935 540.815 14.531C540.815 15.1787 540.693 15.8122 540.448 16.4316C540.21 17.0509 539.792 17.7412 539.195 18.5026C538.599 19.2583 537.769 20.1759 536.707 21.2554L533.238 24.8861V25.0139H541.096V27.2725H529.607ZM546.621 27.4344C546.155 27.4344 545.754 27.2696 545.419 26.9401C545.084 26.6048 544.916 26.2014 544.916 25.7298C544.916 25.2639 545.084 24.8662 545.419 24.5367C545.754 24.2014 546.155 24.0338 546.621 24.0338C547.087 24.0338 547.487 24.2014 547.823 24.5367C548.158 24.8662 548.325 25.2639 548.325 25.7298C548.325 26.0423 548.246 26.3293 548.087 26.5906C547.933 26.8463 547.729 27.0509 547.473 27.2043C547.217 27.3577 546.933 27.4344 546.621 27.4344ZM574.415 15.4941H571.756C571.653 14.9259 571.463 14.4259 571.185 13.9941C570.906 13.5622 570.565 13.1958 570.162 12.8946C569.759 12.5935 569.307 12.3662 568.807 12.2128C568.313 12.0594 567.787 11.9827 567.23 11.9827C566.224 11.9827 565.324 12.2355 564.528 12.7412C563.739 13.2469 563.114 13.9884 562.653 14.9656C562.199 15.9429 561.972 17.1361 561.972 18.5452C561.972 19.9656 562.199 21.1645 562.653 22.1418C563.114 23.1191 563.741 23.8577 564.537 24.3577C565.332 24.8577 566.227 25.1077 567.222 25.1077C567.773 25.1077 568.295 25.0338 568.79 24.8861C569.29 24.7327 569.741 24.5083 570.145 24.2128C570.548 23.9173 570.889 23.5566 571.168 23.1304C571.452 22.6986 571.648 22.2043 571.756 21.6475L574.415 21.656C574.273 22.5139 573.997 23.3037 573.588 24.0253C573.185 24.7412 572.665 25.3605 572.028 25.8833C571.398 26.4003 570.676 26.8009 569.864 27.085C569.051 27.3691 568.165 27.5111 567.205 27.5111C565.693 27.5111 564.347 27.1531 563.165 26.4372C561.983 25.7156 561.051 24.6844 560.369 23.3435C559.693 22.0026 559.355 20.4031 559.355 18.5452C559.355 16.6816 559.696 15.0821 560.378 13.7469C561.06 12.406 561.991 11.3776 563.173 10.6617C564.355 9.94007 565.699 9.57928 567.205 9.57928C568.131 9.57928 568.994 9.7128 569.795 9.97985C570.602 10.2412 571.327 10.6276 571.969 11.1389C572.611 11.6446 573.142 12.2639 573.562 12.9969C573.983 13.7242 574.267 14.5566 574.415 15.4941ZM579.454 19.4997V27.2725H576.906V9.81791H579.42V16.3122H579.582C579.888 15.6077 580.357 15.048 580.988 14.6333C581.619 14.2185 582.442 14.0111 583.459 14.0111C584.357 14.0111 585.141 14.1958 585.812 14.5651C586.488 14.9344 587.011 15.4855 587.38 16.2185C587.755 16.9458 587.942 17.8548 587.942 18.9458V27.2725H585.394V19.2526C585.394 18.2923 585.147 17.548 584.653 17.0196C584.158 16.4855 583.471 16.2185 582.59 16.2185C581.988 16.2185 581.448 16.3463 580.971 16.602C580.499 16.8577 580.127 17.2327 579.854 17.727C579.587 18.2156 579.454 18.8066 579.454 19.4997ZM596.401 27.5367C595.174 27.5367 594.103 27.2554 593.188 26.6929C592.273 26.1304 591.563 25.3435 591.057 24.3321C590.552 23.3208 590.299 22.1389 590.299 20.7867C590.299 19.4287 590.552 18.2412 591.057 17.2242C591.563 16.2071 592.273 15.4173 593.188 14.8548C594.103 14.2923 595.174 14.0111 596.401 14.0111C597.628 14.0111 598.7 14.2923 599.614 14.8548C600.529 15.4173 601.239 16.2071 601.745 17.2242C602.251 18.2412 602.503 19.4287 602.503 20.7867C602.503 22.1389 602.251 23.3208 601.745 24.3321C601.239 25.3435 600.529 26.1304 599.614 26.6929C598.7 27.2554 597.628 27.5367 596.401 27.5367ZM596.41 25.3975C597.205 25.3975 597.864 25.1872 598.387 24.7668C598.91 24.3463 599.296 23.7867 599.546 23.0878C599.802 22.3889 599.93 21.6191 599.93 20.7781C599.93 19.9429 599.802 19.1759 599.546 18.477C599.296 17.7725 598.91 17.2071 598.387 16.781C597.864 16.3548 597.205 16.1418 596.41 16.1418C595.609 16.1418 594.944 16.3548 594.415 16.781C593.893 17.2071 593.503 17.7725 593.248 18.477C592.998 19.1759 592.873 19.9429 592.873 20.7781C592.873 21.6191 592.998 22.3889 593.248 23.0878C593.503 23.7867 593.893 24.3463 594.415 24.7668C594.944 25.1872 595.609 25.3975 596.41 25.3975ZM610.406 27.5367C609.179 27.5367 608.108 27.2554 607.193 26.6929C606.278 26.1304 605.568 25.3435 605.062 24.3321C604.557 23.3208 604.304 22.1389 604.304 20.7867C604.304 19.4287 604.557 18.2412 605.062 17.2242C605.568 16.2071 606.278 15.4173 607.193 14.8548C608.108 14.2923 609.179 14.0111 610.406 14.0111C611.633 14.0111 612.704 14.2923 613.619 14.8548C614.534 15.4173 615.244 16.2071 615.75 17.2242C616.256 18.2412 616.508 19.4287 616.508 20.7867C616.508 22.1389 616.256 23.3208 615.75 24.3321C615.244 25.3435 614.534 26.1304 613.619 26.6929C612.704 27.2554 611.633 27.5367 610.406 27.5367ZM610.415 25.3975C611.21 25.3975 611.869 25.1872 612.392 24.7668C612.915 24.3463 613.301 23.7867 613.551 23.0878C613.807 22.3889 613.935 21.6191 613.935 20.7781C613.935 19.9429 613.807 19.1759 613.551 18.477C613.301 17.7725 612.915 17.2071 612.392 16.781C611.869 16.3548 611.21 16.1418 610.415 16.1418C609.614 16.1418 608.949 16.3548 608.42 16.781C607.898 17.2071 607.508 17.7725 607.253 18.477C607.003 19.1759 606.878 19.9429 606.878 20.7781C606.878 21.6191 607.003 22.3889 607.253 23.0878C607.508 23.7867 607.898 24.3463 608.42 24.7668C608.949 25.1872 609.614 25.3975 610.415 25.3975ZM628.707 17.3776L626.397 17.7867C626.3 17.4912 626.147 17.21 625.937 16.9429C625.732 16.6759 625.454 16.4571 625.101 16.2867C624.749 16.1162 624.309 16.031 623.78 16.031C623.059 16.031 622.457 16.1929 621.974 16.5168C621.491 16.835 621.249 17.2469 621.249 17.7526C621.249 18.1901 621.411 18.5423 621.735 18.8094C622.059 19.0764 622.582 19.2952 623.303 19.4656L625.383 19.9429C626.587 20.2213 627.485 20.6503 628.076 21.2298C628.667 21.8094 628.962 22.5622 628.962 23.4884C628.962 24.2725 628.735 24.9713 628.28 25.585C627.832 26.1929 627.204 26.6702 626.397 27.0168C625.596 27.3634 624.667 27.5367 623.61 27.5367C622.144 27.5367 620.948 27.2242 620.022 26.5992C619.096 25.9685 618.528 25.0736 618.317 23.9145L620.78 23.5395C620.934 24.1816 621.249 24.6673 621.726 24.9969C622.204 25.3208 622.826 25.4827 623.593 25.4827C624.428 25.4827 625.096 25.3094 625.596 24.9628C626.096 24.6105 626.346 24.1816 626.346 23.6759C626.346 23.2668 626.192 22.923 625.886 22.6446C625.584 22.3662 625.121 22.156 624.496 22.0139L622.28 21.5281C621.059 21.2497 620.155 20.8066 619.57 20.1986C618.991 19.5906 618.701 18.8208 618.701 17.8889C618.701 17.1162 618.917 16.4401 619.349 15.8605C619.78 15.281 620.377 14.8293 621.138 14.5054C621.9 14.1759 622.772 14.0111 623.755 14.0111C625.17 14.0111 626.283 14.3179 627.096 14.9316C627.908 15.5395 628.445 16.3548 628.707 17.3776ZM636.95 27.5367C635.66 27.5367 634.55 27.2611 633.618 26.71C632.692 26.1531 631.976 25.3719 631.47 24.3662C630.97 23.3548 630.72 22.1702 630.72 20.8122C630.72 19.4713 630.97 18.2895 631.47 17.2668C631.976 16.2441 632.68 15.4458 633.584 14.8719C634.493 14.298 635.555 14.0111 636.771 14.0111C637.51 14.0111 638.226 14.1333 638.919 14.3776C639.612 14.6219 640.234 15.0054 640.785 15.5281C641.336 16.0509 641.771 16.7298 642.089 17.5651C642.408 18.3946 642.567 19.4031 642.567 20.5906V21.4941H632.16V19.585H640.069C640.069 18.9145 639.933 18.3208 639.66 17.8037C639.388 17.281 639.004 16.8691 638.51 16.5679C638.021 16.2668 637.447 16.1162 636.788 16.1162C636.072 16.1162 635.447 16.2923 634.913 16.6446C634.385 16.9912 633.976 17.4458 633.686 18.0083C633.402 18.5651 633.26 19.1702 633.26 19.8236V21.3151C633.26 22.1901 633.413 22.9344 633.72 23.548C634.033 24.1617 634.467 24.6304 635.024 24.9543C635.581 25.2725 636.231 25.4316 636.976 25.4316C637.459 25.4316 637.899 25.3634 638.297 25.227C638.694 25.085 639.038 24.8747 639.328 24.5963C639.618 24.3179 639.839 23.9742 639.993 23.5651L642.405 23.9997C642.211 24.71 641.865 25.3321 641.365 25.8662C640.871 26.3946 640.248 26.8066 639.498 27.102C638.754 27.3918 637.905 27.5367 636.95 27.5367ZM654.456 27.2725L649.615 9.81791H652.385L655.785 23.335H655.947L659.484 9.81791H662.228L665.765 23.3435H665.927L669.319 9.81791H672.098L667.248 27.2725H664.598L660.924 14.1986H660.788L657.115 27.2725H654.456ZM673.839 27.2725V14.1816H676.387V27.2725H673.839ZM675.125 12.1617C674.682 12.1617 674.302 12.0139 673.983 11.7185C673.671 11.4173 673.515 11.0594 673.515 10.6446C673.515 10.2242 673.671 9.86621 673.983 9.57076C674.302 9.26962 674.682 9.11905 675.125 9.11905C675.569 9.11905 675.946 9.26962 676.259 9.57076C676.577 9.86621 676.736 10.2242 676.736 10.6446C676.736 11.0594 676.577 11.4173 676.259 11.7185C675.946 12.0139 675.569 12.1617 675.125 12.1617ZM679.564 27.2725V9.81791H690.387V12.085H682.197V17.4031H689.612V19.6617H682.197V27.2725H679.564ZM692.966 27.2725V14.1816H695.514V27.2725H692.966ZM694.253 12.1617C693.809 12.1617 693.429 12.0139 693.11 11.7185C692.798 11.4173 692.642 11.0594 692.642 10.6446C692.642 10.2242 692.798 9.86621 693.11 9.57076C693.429 9.26962 693.809 9.11905 694.253 9.11905C694.696 9.11905 695.074 9.26962 695.386 9.57076C695.704 9.86621 695.863 10.2242 695.863 10.6446C695.863 11.0594 695.704 11.4173 695.386 11.7185C695.074 12.0139 694.696 12.1617 694.253 12.1617ZM525.392 99.2725H522.597L528.878 81.8179H531.92L538.202 99.2725H535.406L530.472 84.9884H530.335L525.392 99.2725ZM525.861 92.4372H534.929V94.6531H525.861V92.4372ZM545.365 99.5367C544.098 99.5367 543.007 99.2497 542.092 98.6759C541.183 98.0963 540.484 97.298 539.996 96.281C539.507 95.2639 539.263 94.0992 539.263 92.7867C539.263 91.4571 539.513 90.2838 540.013 89.2668C540.513 88.2441 541.217 87.4458 542.126 86.8719C543.035 86.298 544.107 86.0111 545.339 86.0111C546.334 86.0111 547.22 86.1958 547.999 86.5651C548.777 86.9287 549.405 87.4401 549.882 88.0992C550.365 88.7583 550.652 89.5281 550.743 90.4088H548.263C548.126 89.7952 547.814 89.2668 547.325 88.8236C546.842 88.3804 546.195 88.1588 545.382 88.1588C544.672 88.1588 544.05 88.3463 543.516 88.7213C542.987 89.0906 542.575 89.6191 542.28 90.3066C541.984 90.9884 541.837 91.7952 541.837 92.727C541.837 93.6816 541.982 94.5054 542.271 95.1986C542.561 95.8918 542.97 96.4287 543.499 96.8094C544.033 97.1901 544.66 97.3804 545.382 97.3804C545.865 97.3804 546.303 97.2923 546.695 97.1162C547.092 96.9344 547.425 96.6759 547.692 96.3406C547.964 96.0054 548.155 95.602 548.263 95.1304H550.743C550.652 95.977 550.376 96.7327 549.916 97.3975C549.456 98.0622 548.839 98.585 548.067 98.9656C547.3 99.3463 546.399 99.5367 545.365 99.5367ZM559.123 86.1816V88.227H551.972V86.1816H559.123ZM553.89 83.0452H556.438V95.4287C556.438 95.923 556.512 96.2952 556.66 96.5452C556.807 96.7895 556.998 96.9571 557.231 97.048C557.469 97.1333 557.728 97.1759 558.006 97.1759C558.211 97.1759 558.39 97.1617 558.543 97.1333C558.697 97.1048 558.816 97.0821 558.901 97.0651L559.361 99.1702C559.214 99.227 559.003 99.2838 558.731 99.3406C558.458 99.4031 558.117 99.4372 557.708 99.4429C557.038 99.4543 556.413 99.335 555.833 99.085C555.253 98.835 554.785 98.4486 554.427 97.9259C554.069 97.4031 553.89 96.7469 553.89 95.9571V83.0452ZM561.486 99.2725V86.1816H564.034V99.2725H561.486ZM562.773 84.1617C562.329 84.1617 561.949 84.0139 561.631 83.7185C561.318 83.4173 561.162 83.0594 561.162 82.6446C561.162 82.2242 561.318 81.8662 561.631 81.5708C561.949 81.2696 562.329 81.1191 562.773 81.1191C563.216 81.1191 563.594 81.2696 563.906 81.5708C564.224 81.8662 564.383 82.2242 564.383 82.6446C564.383 83.0594 564.224 83.4173 563.906 83.7185C563.594 84.0139 563.216 84.1617 562.773 84.1617ZM572.52 99.5367C571.293 99.5367 570.222 99.2554 569.307 98.6929C568.393 98.1304 567.682 97.3435 567.177 96.3321C566.671 95.3208 566.418 94.1389 566.418 92.7867C566.418 91.4287 566.671 90.2412 567.177 89.2242C567.682 88.2071 568.393 87.4173 569.307 86.8548C570.222 86.2923 571.293 86.0111 572.52 86.0111C573.748 86.0111 574.819 86.2923 575.734 86.8548C576.648 87.4173 577.359 88.2071 577.864 89.2242C578.37 90.2412 578.623 91.4287 578.623 92.7867C578.623 94.1389 578.37 95.3208 577.864 96.3321C577.359 97.3435 576.648 98.1304 575.734 98.6929C574.819 99.2554 573.748 99.5367 572.52 99.5367ZM572.529 97.3975C573.324 97.3975 573.984 97.1872 574.506 96.7668C575.029 96.3463 575.415 95.7867 575.665 95.0878C575.921 94.3889 576.049 93.6191 576.049 92.7781C576.049 91.9429 575.921 91.1759 575.665 90.477C575.415 89.7725 575.029 89.2071 574.506 88.781C573.984 88.3548 573.324 88.1418 572.529 88.1418C571.728 88.1418 571.063 88.3548 570.535 88.781C570.012 89.2071 569.623 89.7725 569.367 90.477C569.117 91.1759 568.992 91.9429 568.992 92.7781C568.992 93.6191 569.117 94.3889 569.367 95.0878C569.623 95.7867 570.012 96.3463 570.535 96.7668C571.063 97.1872 571.728 97.3975 572.529 97.3975ZM583.559 91.4997V99.2725H581.011V86.1816H583.457V88.3122H583.619C583.92 87.6191 584.392 87.0622 585.034 86.6418C585.682 86.2213 586.497 86.0111 587.48 86.0111C588.372 86.0111 589.153 86.1986 589.824 86.5736C590.494 86.9429 591.014 87.4941 591.383 88.227C591.753 88.96 591.937 89.8662 591.937 90.9458V99.2725H589.389V91.2526C589.389 90.3037 589.142 89.5622 588.648 89.0281C588.153 88.4884 587.474 88.2185 586.611 88.2185C586.02 88.2185 585.494 88.3463 585.034 88.602C584.579 88.8577 584.219 89.2327 583.952 89.727C583.69 90.2156 583.559 90.8066 583.559 91.4997ZM600.999 99.2725V81.8179H603.547V88.3037H603.701C603.848 88.031 604.062 87.7156 604.34 87.3577C604.618 86.9997 605.005 86.6872 605.499 86.4202C605.993 86.1475 606.647 86.0111 607.459 86.0111C608.516 86.0111 609.459 86.2781 610.289 86.8122C611.118 87.3463 611.769 88.1162 612.241 89.1219C612.718 90.1276 612.956 91.3378 612.956 92.7526C612.956 94.1673 612.721 95.3804 612.249 96.3918C611.777 97.3975 611.13 98.173 610.306 98.7185C609.482 99.2583 608.542 99.5281 607.485 99.5281C606.689 99.5281 606.039 99.3946 605.533 99.1276C605.033 98.8605 604.641 98.548 604.357 98.1901C604.073 97.8321 603.854 97.5139 603.701 97.2355H603.488V99.2725H600.999ZM603.496 92.727C603.496 93.6475 603.63 94.4543 603.897 95.1475C604.164 95.8406 604.55 96.3833 605.056 96.7753C605.562 97.1617 606.181 97.3548 606.914 97.3548C607.675 97.3548 608.312 97.1531 608.823 96.7497C609.334 96.3406 609.721 95.7867 609.982 95.0878C610.249 94.3889 610.383 93.602 610.383 92.727C610.383 91.8634 610.252 91.0878 609.991 90.4003C609.735 89.7128 609.348 89.1702 608.831 88.7725C608.32 88.3747 607.681 88.1759 606.914 88.1759C606.175 88.1759 605.55 88.3662 605.039 88.7469C604.533 89.1276 604.15 89.6588 603.888 90.3406C603.627 91.0225 603.496 91.8179 603.496 92.727ZM623.655 93.8435V86.1816H626.211V99.2725H623.706V97.0054H623.569C623.268 97.7043 622.785 98.2867 622.12 98.7526C621.461 99.2128 620.64 99.4429 619.657 99.4429C618.816 99.4429 618.072 99.2583 617.424 98.8889C616.782 98.5139 616.277 97.96 615.907 97.227C615.544 96.4941 615.362 95.5878 615.362 94.5083V86.1816H617.91V94.2014C617.91 95.0935 618.157 95.8037 618.652 96.3321C619.146 96.8605 619.788 97.1247 620.578 97.1247C621.055 97.1247 621.53 97.0054 622.001 96.7668C622.478 96.5281 622.873 96.1673 623.186 95.6844C623.504 95.2014 623.66 94.5878 623.655 93.8435ZM635.29 86.1816V88.227H628.14V86.1816H635.29ZM630.057 83.0452H632.606V95.4287C632.606 95.923 632.679 96.2952 632.827 96.5452C632.975 96.7895 633.165 96.9571 633.398 97.048C633.637 97.1333 633.895 97.1759 634.174 97.1759C634.378 97.1759 634.557 97.1617 634.711 97.1333C634.864 97.1048 634.983 97.0821 635.069 97.0651L635.529 99.1702C635.381 99.227 635.171 99.2838 634.898 99.3406C634.625 99.4031 634.284 99.4372 633.875 99.4429C633.205 99.4543 632.58 99.335 632 99.085C631.421 98.835 630.952 98.4486 630.594 97.9259C630.236 97.4031 630.057 96.7469 630.057 95.9571V83.0452ZM643.764 86.1816V88.227H636.613V86.1816H643.764ZM638.531 83.0452H641.079V95.4287C641.079 95.923 641.153 96.2952 641.301 96.5452C641.449 96.7895 641.639 96.9571 641.872 97.048C642.11 97.1333 642.369 97.1759 642.647 97.1759C642.852 97.1759 643.031 97.1617 643.184 97.1333C643.338 97.1048 643.457 97.0821 643.542 97.0651L644.003 99.1702C643.855 99.227 643.645 99.2838 643.372 99.3406C643.099 99.4031 642.758 99.4372 642.349 99.4429C641.679 99.4543 641.054 99.335 640.474 99.085C639.895 98.835 639.426 98.4486 639.068 97.9259C638.71 97.4031 638.531 96.7469 638.531 95.9571V83.0452ZM651.5 99.5367C650.273 99.5367 649.202 99.2554 648.287 98.6929C647.372 98.1304 646.662 97.3435 646.157 96.3321C645.651 95.3208 645.398 94.1389 645.398 92.7867C645.398 91.4287 645.651 90.2412 646.157 89.2242C646.662 88.2071 647.372 87.4173 648.287 86.8548C649.202 86.2923 650.273 86.0111 651.5 86.0111C652.728 86.0111 653.799 86.2923 654.713 86.8548C655.628 87.4173 656.338 88.2071 656.844 89.2242C657.35 90.2412 657.603 91.4287 657.603 92.7867C657.603 94.1389 657.35 95.3208 656.844 96.3321C656.338 97.3435 655.628 98.1304 654.713 98.6929C653.799 99.2554 652.728 99.5367 651.5 99.5367ZM651.509 97.3975C652.304 97.3975 652.963 97.1872 653.486 96.7668C654.009 96.3463 654.395 95.7867 654.645 95.0878C654.901 94.3889 655.029 93.6191 655.029 92.7781C655.029 91.9429 654.901 91.1759 654.645 90.477C654.395 89.7725 654.009 89.2071 653.486 88.781C652.963 88.3548 652.304 88.1418 651.509 88.1418C650.708 88.1418 650.043 88.3548 649.515 88.781C648.992 89.2071 648.603 89.7725 648.347 90.477C648.097 91.1759 647.972 91.9429 647.972 92.7781C647.972 93.6191 648.097 94.3889 648.347 95.0878C648.603 95.7867 648.992 96.3463 649.515 96.7668C650.043 97.1872 650.708 97.3975 651.509 97.3975ZM662.539 91.4997V99.2725H659.991V86.1816H662.437V88.3122H662.599C662.9 87.6191 663.372 87.0622 664.014 86.6418C664.662 86.2213 665.477 86.0111 666.46 86.0111C667.352 86.0111 668.133 86.1986 668.804 86.5736C669.474 86.9429 669.994 87.4941 670.363 88.227C670.733 88.96 670.917 89.8662 670.917 90.9458V99.2725H668.369V91.2526C668.369 90.3037 668.122 89.5622 667.627 89.0281C667.133 88.4884 666.454 88.2185 665.59 88.2185C665 88.2185 664.474 88.3463 664.014 88.602C663.559 88.8577 663.198 89.2327 662.931 89.727C662.67 90.2156 662.539 90.8066 662.539 91.4997ZM687.487 90.7923V92.9997H679.749V90.7923H687.487ZM701.965 99.5367C700.676 99.5367 699.565 99.2611 698.633 98.71C697.707 98.1531 696.991 97.3719 696.485 96.3662C695.985 95.3548 695.735 94.1702 695.735 92.8122C695.735 91.4713 695.985 90.2895 696.485 89.2668C696.991 88.2441 697.695 87.4458 698.599 86.8719C699.508 86.298 700.57 86.0111 701.786 86.0111C702.525 86.0111 703.241 86.1333 703.934 86.3776C704.627 86.6219 705.249 87.0054 705.801 87.5281C706.352 88.0509 706.786 88.7298 707.105 89.5651C707.423 90.3946 707.582 91.4031 707.582 92.5906V93.4941H697.176V91.585H705.085C705.085 90.9145 704.948 90.3208 704.676 89.8037C704.403 89.281 704.019 88.8691 703.525 88.5679C703.036 88.2668 702.463 88.1162 701.803 88.1162C701.088 88.1162 700.463 88.2923 699.928 88.6446C699.4 88.9912 698.991 89.4458 698.701 90.0083C698.417 90.5651 698.275 91.1702 698.275 91.8236V93.3151C698.275 94.1901 698.428 94.9344 698.735 95.548C699.048 96.1617 699.482 96.6304 700.039 96.9543C700.596 97.2725 701.247 97.4316 701.991 97.4316C702.474 97.4316 702.914 97.3634 703.312 97.227C703.71 97.085 704.053 96.8747 704.343 96.5963C704.633 96.3179 704.855 95.9742 705.008 95.5651L707.42 95.9997C707.227 96.71 706.88 97.3321 706.38 97.8662C705.886 98.3946 705.264 98.8066 704.514 99.102C703.769 99.3918 702.92 99.5367 701.965 99.5367ZM712.502 91.4997V99.2725H709.953V86.1816H712.399V88.3122H712.561C712.862 87.6191 713.334 87.0622 713.976 86.6418C714.624 86.2213 715.439 86.0111 716.422 86.0111C717.314 86.0111 718.095 86.1986 718.766 86.5736C719.436 86.9429 719.956 87.4941 720.325 88.227C720.695 88.96 720.879 89.8662 720.879 90.9458V99.2725H718.331V91.2526C718.331 90.3037 718.084 89.5622 717.59 89.0281C717.095 88.4884 716.416 88.2185 715.553 88.2185C714.962 88.2185 714.436 88.3463 713.976 88.602C713.521 88.8577 713.161 89.2327 712.894 89.727C712.632 90.2156 712.502 90.8066 712.502 91.4997ZM729.952 86.1816V88.227H722.801V86.1816H729.952ZM724.719 83.0452H727.267V95.4287C727.267 95.923 727.341 96.2952 727.489 96.5452C727.636 96.7895 727.827 96.9571 728.06 97.048C728.298 97.1333 728.557 97.1759 728.835 97.1759C729.04 97.1759 729.219 97.1617 729.372 97.1333C729.526 97.1048 729.645 97.0821 729.73 97.0651L730.19 99.1702C730.043 99.227 729.832 99.2838 729.56 99.3406C729.287 99.4031 728.946 99.4372 728.537 99.4429C727.867 99.4543 727.242 99.335 726.662 99.085C726.082 98.835 725.614 98.4486 725.256 97.9259C724.898 97.4031 724.719 96.7469 724.719 95.9571V83.0452ZM737.816 99.5367C736.526 99.5367 735.416 99.2611 734.484 98.71C733.558 98.1531 732.842 97.3719 732.336 96.3662C731.836 95.3548 731.586 94.1702 731.586 92.8122C731.586 91.4713 731.836 90.2895 732.336 89.2668C732.842 88.2441 733.546 87.4458 734.45 86.8719C735.359 86.298 736.421 86.0111 737.637 86.0111C738.376 86.0111 739.092 86.1333 739.785 86.3776C740.478 86.6219 741.1 87.0054 741.651 87.5281C742.202 88.0509 742.637 88.7298 742.955 89.5651C743.273 90.3946 743.433 91.4031 743.433 92.5906V93.4941H733.026V91.585H740.935C740.935 90.9145 740.799 90.3208 740.526 89.8037C740.254 89.281 739.87 88.8691 739.376 88.5679C738.887 88.2668 738.313 88.1162 737.654 88.1162C736.938 88.1162 736.313 88.2923 735.779 88.6446C735.251 88.9912 734.842 89.4458 734.552 90.0083C734.268 90.5651 734.126 91.1702 734.126 91.8236V93.3151C734.126 94.1901 734.279 94.9344 734.586 95.548C734.898 96.1617 735.333 96.6304 735.89 96.9543C736.447 97.2725 737.097 97.4316 737.842 97.4316C738.325 97.4316 738.765 97.3634 739.163 97.227C739.56 97.085 739.904 96.8747 740.194 96.5963C740.484 96.3179 740.705 95.9742 740.859 95.5651L743.271 95.9997C743.077 96.71 742.731 97.3321 742.231 97.8662C741.737 98.3946 741.114 98.8066 740.364 99.102C739.62 99.3918 738.771 99.5367 737.816 99.5367ZM745.804 99.2725V86.1816H748.267V88.2611H748.403C748.642 87.5566 749.063 87.0026 749.665 86.5992C750.273 86.1901 750.96 85.9855 751.727 85.9855C751.886 85.9855 752.074 85.9912 752.29 86.0026C752.511 86.0139 752.685 86.0281 752.81 86.0452V88.4827C752.707 88.4543 752.526 88.423 752.264 88.3889C752.003 88.3492 751.742 88.3293 751.48 88.3293C750.878 88.3293 750.341 88.4571 749.869 88.7128C749.403 88.9628 749.034 89.3122 748.761 89.7611C748.489 90.2043 748.352 90.71 748.352 91.2781V99.2725H745.804ZM770.179 86.4031C770.088 85.5963 769.713 84.9713 769.054 84.5281C768.395 84.0793 767.565 83.8548 766.565 83.8548C765.849 83.8548 765.23 83.9685 764.707 84.1958C764.185 84.4173 763.778 84.7242 763.489 85.1162C763.205 85.5026 763.062 85.9429 763.062 86.4372C763.062 86.852 763.159 87.21 763.352 87.5111C763.551 87.8122 763.81 88.0651 764.128 88.2696C764.452 88.4685 764.798 88.6361 765.168 88.7725C765.537 88.9031 765.892 89.0111 766.233 89.0963L767.937 89.5395C768.494 89.6759 769.065 89.8605 769.651 90.0935C770.236 90.3264 770.778 90.6333 771.278 91.0139C771.778 91.3946 772.182 91.8662 772.489 92.4287C772.801 92.9912 772.957 93.6645 772.957 94.4486C772.957 95.4372 772.702 96.3151 772.19 97.0821C771.685 97.8492 770.949 98.4543 769.983 98.8975C769.023 99.3406 767.861 99.5622 766.497 99.5622C765.19 99.5622 764.06 99.3548 763.105 98.9401C762.151 98.5253 761.403 97.9372 760.864 97.1759C760.324 96.4088 760.026 95.4997 759.969 94.4486H762.611C762.662 95.0793 762.866 95.6048 763.224 96.0253C763.588 96.4401 764.051 96.7497 764.614 96.9543C765.182 97.1531 765.804 97.2526 766.48 97.2526C767.224 97.2526 767.886 97.1361 768.466 96.9031C769.051 96.6645 769.511 96.335 769.847 95.9145C770.182 95.4884 770.349 94.9912 770.349 94.423C770.349 93.906 770.202 93.4827 769.906 93.1531C769.616 92.8236 769.222 92.5509 768.722 92.335C768.227 92.1191 767.668 91.9287 767.043 91.7639L764.98 91.2014C763.582 90.8208 762.474 90.2611 761.656 89.5225C760.844 88.7838 760.437 87.8066 760.437 86.5906C760.437 85.585 760.71 84.7071 761.256 83.9571C761.801 83.2071 762.54 82.6247 763.472 82.21C764.403 81.7895 765.455 81.5793 766.625 81.5793C767.807 81.5793 768.849 81.7867 769.753 82.2014C770.662 82.6162 771.378 83.1872 771.901 83.9145C772.423 84.6361 772.696 85.4656 772.719 86.4031H770.179ZM785.168 86.4031C785.077 85.5963 784.702 84.9713 784.043 84.5281C783.384 84.0793 782.555 83.8548 781.555 83.8548C780.839 83.8548 780.219 83.9685 779.697 84.1958C779.174 84.4173 778.768 84.7242 778.478 85.1162C778.194 85.5026 778.052 85.9429 778.052 86.4372C778.052 86.852 778.148 87.21 778.342 87.5111C778.54 87.8122 778.799 88.0651 779.117 88.2696C779.441 88.4685 779.788 88.6361 780.157 88.7725C780.526 88.9031 780.881 89.0111 781.222 89.0963L782.927 89.5395C783.484 89.6759 784.055 89.8605 784.64 90.0935C785.225 90.3264 785.768 90.6333 786.268 91.0139C786.768 91.3946 787.171 91.8662 787.478 92.4287C787.79 92.9912 787.947 93.6645 787.947 94.4486C787.947 95.4372 787.691 96.3151 787.18 97.0821C786.674 97.8492 785.938 98.4543 784.972 98.8975C784.012 99.3406 782.85 99.5622 781.486 99.5622C780.18 99.5622 779.049 99.3548 778.094 98.9401C777.14 98.5253 776.393 97.9372 775.853 97.1759C775.313 96.4088 775.015 95.4997 774.958 94.4486H777.6C777.651 95.0793 777.856 95.6048 778.214 96.0253C778.577 96.4401 779.04 96.7497 779.603 96.9543C780.171 97.1531 780.793 97.2526 781.469 97.2526C782.214 97.2526 782.876 97.1361 783.455 96.9031C784.04 96.6645 784.501 96.335 784.836 95.9145C785.171 95.4884 785.339 94.9912 785.339 94.423C785.339 93.906 785.191 93.4827 784.896 93.1531C784.606 92.8236 784.211 92.5509 783.711 92.335C783.217 92.1191 782.657 91.9287 782.032 91.7639L779.969 91.2014C778.572 90.8208 777.464 90.2611 776.646 89.5225C775.833 88.7838 775.427 87.8066 775.427 86.5906C775.427 85.585 775.699 84.7071 776.245 83.9571C776.79 83.2071 777.529 82.6247 778.461 82.21C779.393 81.7895 780.444 81.5793 781.614 81.5793C782.796 81.5793 783.839 81.7867 784.742 82.2014C785.651 82.6162 786.367 83.1872 786.89 83.9145C787.413 84.6361 787.685 85.4656 787.708 86.4031H785.168ZM793.271 81.8179V99.2725H790.638V81.8179H793.271ZM802.301 99.2725H796.65V81.8179H802.48C804.19 81.8179 805.659 82.1673 806.886 82.8662C808.114 83.5594 809.054 84.5566 809.707 85.8577C810.366 87.1531 810.696 88.7071 810.696 90.5196C810.696 92.3378 810.364 93.9003 809.699 95.2071C809.04 96.5139 808.085 97.5196 806.835 98.2242C805.585 98.923 804.074 99.2725 802.301 99.2725ZM799.284 96.9713H802.156C803.486 96.9713 804.591 96.7213 805.471 96.2213C806.352 95.7156 807.011 94.9855 807.449 94.031C807.886 93.0708 808.105 91.9003 808.105 90.5196C808.105 89.1503 807.886 87.9884 807.449 87.0338C807.017 86.0793 806.372 85.3548 805.514 84.8605C804.656 84.3662 803.591 84.1191 802.318 84.1191H799.284V96.9713ZM526.261 127.5V135.272H523.713V122.182H526.159V124.312H526.321C526.622 123.619 527.094 123.062 527.736 122.642C528.384 122.221 529.199 122.011 530.182 122.011C531.074 122.011 531.855 122.199 532.526 122.574C533.196 122.943 533.716 123.494 534.085 124.227C534.455 124.96 534.639 125.866 534.639 126.946V135.272H532.091V127.253C532.091 126.304 531.844 125.562 531.349 125.028C530.855 124.488 530.176 124.218 529.312 124.218C528.722 124.218 528.196 124.346 527.736 124.602C527.281 124.858 526.92 125.233 526.653 125.727C526.392 126.216 526.261 126.807 526.261 127.5ZM541.41 135.562C540.581 135.562 539.831 135.409 539.16 135.102C538.49 134.79 537.959 134.338 537.567 133.747C537.18 133.156 536.987 132.432 536.987 131.574C536.987 130.835 537.129 130.227 537.413 129.75C537.697 129.272 538.081 128.895 538.564 128.616C539.047 128.338 539.587 128.128 540.183 127.986C540.78 127.843 541.388 127.736 542.007 127.662C542.791 127.571 543.428 127.497 543.916 127.44C544.405 127.378 544.76 127.278 544.981 127.142C545.203 127.005 545.314 126.784 545.314 126.477V126.417C545.314 125.673 545.104 125.096 544.683 124.687C544.268 124.278 543.649 124.074 542.825 124.074C541.967 124.074 541.291 124.264 540.797 124.645C540.308 125.02 539.97 125.437 539.783 125.897L537.388 125.352C537.672 124.557 538.087 123.915 538.632 123.426C539.183 122.932 539.817 122.574 540.533 122.352C541.249 122.125 542.001 122.011 542.791 122.011C543.314 122.011 543.868 122.074 544.453 122.199C545.044 122.318 545.595 122.54 546.106 122.863C546.624 123.187 547.047 123.65 547.376 124.253C547.706 124.849 547.871 125.625 547.871 126.579V135.272H545.382V133.483H545.28C545.115 133.812 544.868 134.136 544.538 134.454C544.209 134.772 543.785 135.037 543.268 135.247C542.751 135.457 542.132 135.562 541.41 135.562ZM541.964 133.517C542.669 133.517 543.271 133.378 543.771 133.099C544.277 132.821 544.66 132.457 544.922 132.008C545.189 131.554 545.322 131.068 545.322 130.551V128.863C545.232 128.954 545.055 129.04 544.794 129.119C544.538 129.193 544.246 129.258 543.916 129.315C543.587 129.366 543.266 129.415 542.953 129.46C542.641 129.5 542.379 129.534 542.169 129.562C541.675 129.625 541.223 129.73 540.814 129.878C540.41 130.025 540.087 130.238 539.842 130.517C539.604 130.79 539.484 131.153 539.484 131.608C539.484 132.238 539.717 132.716 540.183 133.04C540.649 133.358 541.243 133.517 541.964 133.517ZM550.809 135.272V122.182H553.255V124.312H553.417C553.69 123.591 554.136 123.028 554.755 122.625C555.374 122.216 556.116 122.011 556.979 122.011C557.854 122.011 558.587 122.216 559.178 122.625C559.775 123.034 560.215 123.596 560.499 124.312H560.636C560.948 123.613 561.445 123.057 562.127 122.642C562.809 122.221 563.621 122.011 564.565 122.011C565.752 122.011 566.721 122.383 567.471 123.128C568.226 123.872 568.604 124.994 568.604 126.494V135.272H566.056V126.733C566.056 125.846 565.815 125.204 565.332 124.807C564.849 124.409 564.272 124.21 563.601 124.21C562.772 124.21 562.127 124.466 561.667 124.977C561.207 125.483 560.976 126.133 560.976 126.929V135.272H558.437V126.571C558.437 125.861 558.215 125.29 557.772 124.858C557.329 124.426 556.752 124.21 556.042 124.21C555.559 124.21 555.113 124.338 554.704 124.593C554.3 124.843 553.974 125.193 553.724 125.642C553.479 126.091 553.357 126.611 553.357 127.201V135.272H550.809ZM577.206 135.537C575.916 135.537 574.805 135.261 573.873 134.71C572.947 134.153 572.231 133.372 571.726 132.366C571.226 131.355 570.976 130.17 570.976 128.812C570.976 127.471 571.226 126.29 571.726 125.267C572.231 124.244 572.936 123.446 573.839 122.872C574.748 122.298 575.811 122.011 577.027 122.011C577.766 122.011 578.481 122.133 579.175 122.378C579.868 122.622 580.49 123.005 581.041 123.528C581.592 124.051 582.027 124.73 582.345 125.565C582.663 126.395 582.822 127.403 582.822 128.591V129.494H572.416V127.585H580.325C580.325 126.915 580.189 126.321 579.916 125.804C579.643 125.281 579.26 124.869 578.766 124.568C578.277 124.267 577.703 124.116 577.044 124.116C576.328 124.116 575.703 124.292 575.169 124.645C574.641 124.991 574.231 125.446 573.942 126.008C573.658 126.565 573.516 127.17 573.516 127.824V129.315C573.516 130.19 573.669 130.934 573.976 131.548C574.288 132.162 574.723 132.63 575.28 132.954C575.837 133.272 576.487 133.432 577.231 133.432C577.714 133.432 578.155 133.363 578.552 133.227C578.95 133.085 579.294 132.875 579.584 132.596C579.873 132.318 580.095 131.974 580.248 131.565L582.66 132C582.467 132.71 582.121 133.332 581.621 133.866C581.126 134.395 580.504 134.807 579.754 135.102C579.01 135.392 578.16 135.537 577.206 135.537Z" fill="#1E1E1E"/>
<path d="M42.4382 46.4721C46.1153 40.5887 42.9415 44.3071 41.0644 47.1228C38.6942 50.678 34.5879 53.533 32.0261 57.1734C29.5376 60.7096 20.4463 64.8004 23.5662 67.2963C27.7924 70.6772 33.1189 76.6034 36.5091 80.9622C39.4505 84.7441 43.7397 85.5669 43.7397 90.7236" stroke="#1E1E1E" stroke-width="8" stroke-linecap="round" stroke-linejoin="round"/>
<path d="M61.9615 68.5974C60.7753 67.2418 79.7514 67.4947 82.4965 67.0067C92.2922 65.2653 102.475 65.9944 112.431 65.9944C119.491 65.9944 133.635 63.4362 138.751 65.9944" stroke="#1E1E1E" stroke-width="8" stroke-linecap="round" stroke-linejoin="round"/>
<path d="M346.914 63.7602C343.476 63.7602 340.921 62.0791 346.073 62.0791C351.272 62.0791 356.471 62.0791 361.67 62.0791C369.639 62.0791 377.608 62.0791 385.578 62.0791" stroke="#1E1E1E" stroke-width="8" stroke-linecap="round" stroke-linejoin="round"/>
<path d="M422.561 35.1824C426.717 34.7207 422.919 34.8075 419.946 39.4785C415.188 46.9561 411.514 54.6342 408.272 62.92C404.74 71.9468 399.762 80.781 395.664 88.9765" stroke="#1E1E1E" stroke-width="8" stroke-linecap="round" stroke-linejoin="round"/>
<path d="M425.924 65.4411C426.44 61.3155 452.444 63.76 456.183 63.76" stroke="#1E1E1E" stroke-width="8" stroke-linecap="round" stroke-linejoin="round"/>
<rect x="32" y="959" width="416" height="80" rx="6" stroke="#9747FF" stroke-width="4" stroke-linecap="round"/>
</g>
<defs>
<clipPath id="clip0_552_2984">
<rect width="842" height="1072" fill="white"/>
</clipPath>
</defs>
</svg>
