<svg width="1424" height="1900" viewBox="0 0 1424 1900" fill="none" xmlns="http://www.w3.org/2000/svg">
<path d="M40 52C40 45.3726 45.3726 40 52 40H1372C1378.63 40 1384 45.3726 1384 52V1848C1384 1854.63 1378.63 1860 1372 1860H52C45.3726 1860 40 1854.63 40 1848V52Z" fill="#FBFBFB"/>
<path d="M52 41H1372V39H52V41ZM1383 52V1848H1385V52H1383ZM1372 1859H52V1861H1372V1859ZM41 1848V52H39V1848H41ZM52 1859C45.9249 1859 41 1854.08 41 1848H39C39 1855.18 44.8203 1861 52 1861V1859ZM1383 1848C1383 1854.08 1378.08 1859 1372 1859V1861C1379.18 1861 1385 1855.18 1385 1848H1383ZM1372 41C1378.08 41 1383 45.9249 1383 52H1385C1385 44.8203 1379.18 39 1372 39V41ZM52 39C44.8203 39 39 44.8203 39 52H41C41 45.9249 45.9249 41 52 41V39Z" fill="#E6E6E6"/>
<path d="M165.781 288.993C165.781 267.511 162.911 331.887 160.162 353.192C158.345 367.274 158.289 409.948 158.289 395.749" stroke="#1E1E1E" stroke-width="8" stroke-linecap="round" stroke-linejoin="round"/>
<path d="M175.144 287.12C168.245 282.685 214.646 279.628 218.325 279.628C250.64 279.628 282.42 286.538 314.676 280.564C343.144 275.292 373.032 277.676 401.766 275.466C421.142 273.975 439.947 272.136 459.41 272.136C467.781 272.136 472.59 273.74 480.012 277.755C487.407 281.756 493.929 281.501 502.071 281.501C505.827 281.501 518.284 277.277 521.216 279.42C525.356 282.445 523.739 294.946 523.401 299.502C521.888 319.931 517.14 340.237 514.557 360.579C512.604 375.958 514.196 389.907 510.395 405.113" stroke="#1E1E1E" stroke-width="8" stroke-linecap="round" stroke-linejoin="round"/>
<path d="M162.031 405.113C168.019 394.933 189.997 396.313 199.906 395.853C219.813 394.927 239.426 393.876 259.423 393.876C299.234 393.876 339.246 395.373 378.873 391.066C390.027 389.854 401.166 390.13 412.377 390.13C424.151 390.13 434.37 392.851 445.881 393.772C466.833 395.448 490.126 387.12 510.393 393.876" stroke="#1E1E1E" stroke-width="8" stroke-linecap="round" stroke-linejoin="round"/>
<path d="M150.966 615.444C140.611 615.444 171.618 613.571 181.973 613.571C202.928 613.571 223.693 613.571 244.612 613.571C278.233 613.571 312.063 615.444 345.853 615.444C374.397 615.444 402.942 615.444 431.486 615.444C446.61 615.444 461.203 611.698 476.436 611.698C482.194 611.698 487.951 611.698 493.709 611.698C497.68 611.698 507.113 609.629 501.2 613.571" stroke="#1E1E1E" stroke-width="8" stroke-linecap="round" stroke-linejoin="round"/>
<path d="M147.219 669.758C175.093 669.758 203.048 664.139 230.875 664.139C260.827 664.139 292.472 664.038 322.128 668.822C346.975 672.829 371.066 666.012 395.692 666.012C417.75 666.012 439.809 666.012 461.868 666.012" stroke="#1E1E1E" stroke-width="8" stroke-linecap="round" stroke-linejoin="round"/>
<path d="M175.691 1207.01C203.565 1207.01 231.521 1201.39 259.348 1201.39C289.3 1201.39 320.944 1201.29 350.601 1206.07C375.447 1210.08 399.539 1203.26 424.164 1203.26C446.223 1203.26 468.282 1203.26 490.341 1203.26" stroke="#1E1E1E" stroke-width="8" stroke-linecap="round" stroke-linejoin="round"/>
<path d="M175.691 1272.61C203.565 1272.61 231.521 1267 259.348 1267C289.3 1267 320.944 1266.89 350.601 1271.68C375.447 1275.69 399.539 1268.87 424.164 1268.87C446.223 1268.87 468.282 1268.87 490.341 1268.87" stroke="#1E1E1E" stroke-width="8" stroke-linecap="round" stroke-linejoin="round"/>
<path d="M175.691 1338.22C203.565 1338.22 231.521 1332.6 259.348 1332.6C289.3 1332.6 320.944 1332.5 350.601 1337.29C375.447 1341.29 399.539 1334.48 424.164 1334.48C446.223 1334.48 468.282 1334.48 490.341 1334.48" stroke="#1E1E1E" stroke-width="8" stroke-linecap="round" stroke-linejoin="round"/>
<path d="M175.691 1403.83C203.565 1403.83 231.521 1398.21 259.348 1398.21C289.3 1398.21 320.944 1398.11 350.601 1402.9C375.447 1406.9 399.539 1400.09 424.164 1400.09C446.223 1400.09 468.282 1400.09 490.341 1400.09" stroke="#1E1E1E" stroke-width="8" stroke-linecap="round" stroke-linejoin="round"/>
<path d="M143.473 722.2C149.507 717.171 165.725 723.681 173.647 724.177C191.739 725.307 209.579 725.945 227.754 725.945C249.201 725.945 270.624 727.336 291.849 727.818C311.664 728.269 331.545 727.818 351.366 727.818C370.412 727.818 388.641 724.073 407.553 724.073" stroke="#1E1E1E" stroke-width="8" stroke-linecap="round" stroke-linejoin="round"/>
<rect x="88" y="166" width="480" height="1568" rx="6" stroke="#1E1E1E" stroke-width="4" stroke-linecap="round"/>
<rect x="115" y="1462" width="416" height="80" rx="6" fill="#9747FF"/>
<path d="M130.426 866.316C153.527 863.429 176.919 862.112 200.118 860.256C209.273 859.524 220.239 857.574 229.77 858.633C237.185 859.457 240.575 857.992 247.301 854.629" stroke="#1E1E1E" stroke-width="8" stroke-linecap="round" stroke-linejoin="round"/>
<path d="M130.426 1015.34C153.527 1012.45 176.919 1011.14 200.118 1009.28C209.273 1008.55 220.239 1006.6 229.77 1007.66C237.185 1008.48 240.575 1007.02 247.301 1003.65" stroke="#1E1E1E" stroke-width="8" stroke-linecap="round" stroke-linejoin="round"/>
<path d="M130.426 1157.16C153.527 1154.27 176.919 1152.95 200.118 1151.1C209.273 1150.37 220.239 1148.42 229.77 1149.47C237.185 1150.3 240.575 1148.83 247.301 1145.47" stroke="#1E1E1E" stroke-width="8" stroke-linecap="round" stroke-linejoin="round"/>
<path d="M145.178 896.452C149.065 894.724 153.279 895.225 157.447 895.225C164.989 895.225 172.618 893.44 180.144 892.771C201.71 890.854 223.205 888.573 244.826 886.909C291.574 883.313 338.254 883.251 384.96 879.276C422.838 876.052 460.421 873.141 498.513 873.141C504.644 873.141 507.746 874.075 508.396 880.571C509.043 887.037 510.153 892.973 508.941 899.519C507.842 905.454 508.538 910.847 509.555 916.695C510.46 921.899 516.21 925.498 515.621 930.804C514.945 936.887 509.215 930.531 506.147 929.849C498.691 928.193 488.824 929.22 481.337 929.849C455.363 932.034 429.38 934.323 403.363 936.324C347.336 940.634 291.083 939.541 235.011 944.026C217.967 945.39 199.546 945.259 182.597 943.072C169.304 941.357 156.032 941.874 142.793 940.55C136.07 939.878 137.648 939.698 138.771 934.757C139.926 929.677 137.93 925.015 137.817 920.035C137.71 915.322 136.59 910.61 136.59 905.994C136.59 900.064 138.144 897.105 135.363 891.544" stroke="#1E1E1E" stroke-width="8" stroke-linecap="round" stroke-linejoin="round"/>
<path d="M145.178 1045.48C149.065 1043.75 153.279 1044.25 157.447 1044.25C164.989 1044.25 172.618 1042.47 180.144 1041.8C201.71 1039.88 223.205 1037.6 244.826 1035.94C291.574 1032.34 338.254 1032.28 384.96 1028.3C422.838 1025.08 460.421 1022.17 498.513 1022.17C504.644 1022.17 507.746 1023.1 508.396 1029.6C509.043 1036.06 510.153 1042 508.941 1048.54C507.842 1054.48 508.538 1059.87 509.555 1065.72C510.46 1070.92 516.21 1074.52 515.621 1079.83C514.945 1085.91 509.215 1079.56 506.147 1078.88C498.691 1077.22 488.824 1078.25 481.337 1078.88C455.363 1081.06 429.38 1083.35 403.363 1085.35C347.336 1089.66 291.083 1088.57 235.011 1093.05C217.967 1094.42 199.546 1094.29 182.597 1092.1C169.304 1090.38 156.032 1090.9 142.793 1089.58C136.07 1088.9 137.648 1088.72 138.771 1083.78C139.926 1078.7 137.93 1074.04 137.817 1069.06C137.71 1064.35 136.59 1059.64 136.59 1055.02C136.59 1049.09 138.144 1046.13 135.363 1040.57" stroke="#1E1E1E" stroke-width="8" stroke-linecap="round" stroke-linejoin="round"/>
<path d="M132.837 201.017C136.514 195.133 133.34 198.852 131.463 201.667C129.093 205.223 124.986 208.078 122.425 211.718C119.936 215.254 110.845 219.345 113.965 221.841C118.191 225.222 123.517 231.148 126.908 235.507C129.849 239.289 134.138 240.112 134.138 245.268" stroke="#1E1E1E" stroke-width="8" stroke-linecap="round" stroke-linejoin="round"/>
<path d="M152.358 223.142C151.172 221.787 170.148 222.04 172.893 221.552C182.689 219.81 192.871 220.539 202.828 220.539C209.887 220.539 224.031 217.981 229.147 220.539" stroke="#1E1E1E" stroke-width="8" stroke-linecap="round" stroke-linejoin="round"/>
<path d="M437.312 218.306C433.875 218.306 431.32 216.625 436.471 216.625C441.67 216.625 446.869 216.625 452.068 216.625C460.037 216.625 468.007 216.625 475.976 216.625" stroke="#1E1E1E" stroke-width="8" stroke-linecap="round" stroke-linejoin="round"/>
<path d="M512.96 189.727C517.115 189.266 513.317 189.352 510.345 194.023C505.586 201.501 501.913 209.179 498.67 217.465C495.138 226.492 490.16 235.326 486.062 243.521" stroke="#1E1E1E" stroke-width="8" stroke-linecap="round" stroke-linejoin="round"/>
<path d="M516.32 219.987C516.836 215.861 542.841 218.305 546.579 218.305" stroke="#1E1E1E" stroke-width="8" stroke-linecap="round" stroke-linejoin="round"/>
<path d="M166.563 455.6C150.64 460.695 158.762 459.421 158.762 472.175C158.762 486.151 158.762 500.127 158.762 514.103C158.762 523.239 158.762 532.376 158.762 541.512C158.762 547.498 157.699 551.597 155.295 557.005C152.676 562.898 152.459 558.659 154.862 555.055" stroke="#1E1E1E" stroke-width="8" stroke-linecap="round" stroke-linejoin="round"/>
<path d="M154.859 560.905C174.026 557.838 193.226 556.32 212.496 554.08C238.862 551.014 264.4 543.678 290.933 540.971C334.308 536.545 376.847 535.554 420.506 535.554C452.599 535.554 483.776 539.454 515.628 539.454" stroke="#1E1E1E" stroke-width="8" stroke-linecap="round" stroke-linejoin="round"/>
<path d="M158.76 463.4C140.889 463.4 155.506 460.794 162.768 458.525C168.418 456.759 175.728 459.025 181.294 460.583C191.627 463.476 202.152 465.217 212.929 465.35C235.972 465.635 258.639 461.45 281.724 461.45C309.279 461.45 336.833 461.45 364.387 461.45C388.005 461.45 411.623 461.45 435.241 461.45C446.96 461.45 462.431 457.104 473.701 459.608C480.804 461.187 486.999 461.45 494.61 461.45C500.738 461.45 512.79 461.45 500.027 461.45" stroke="#1E1E1E" stroke-width="8" stroke-linecap="round" stroke-linejoin="round"/>
<path d="M519.53 465.35C510.955 461.315 517.58 459.666 517.58 469.359C517.58 484.129 517.58 498.899 517.58 513.669C517.58 519.354 515.655 529.359 518.555 534.578C522.082 540.927 515.436 543.934 513.68 549.204" stroke="#1E1E1E" stroke-width="8" stroke-linecap="round" stroke-linejoin="round"/>
<path d="M147.059 560.905C147.059 555.355 162.643 554.083 167.535 552.996C190.715 547.845 213.451 536.82 236.655 530.678C257.095 525.268 276.735 519.223 297.216 514.103C319.286 508.585 341.462 503.783 363.52 498.502C382.857 493.872 403.096 491.74 422.022 485.718C436.002 481.27 452.38 476.603 466.875 474.992C478.435 473.708 490.092 467.926 501.977 467.3C504.849 467.149 511.419 458.166 509.777 461.45" stroke="#1E1E1E" stroke-width="8" stroke-linecap="round" stroke-linejoin="round"/>
<path d="M145.109 471.2C145.989 464.162 170.148 477.15 172.519 477.917C196.11 485.55 220.497 490.617 244.564 496.552C289.749 507.693 336.937 516.477 383.021 522.878C401.874 525.496 420.398 528.197 439.141 531.22C454.292 533.664 469.008 538.031 484.318 539.562C494.492 540.58 506.26 542.833 516.061 545.738C529.974 549.86 516.643 547.254 509.778 547.254" stroke="#1E1E1E" stroke-width="8" stroke-linecap="round" stroke-linejoin="round"/>
<path d="M154.862 785.166C152.944 783.008 153.183 777.541 149.011 779.749C145.804 781.447 145.925 786.26 144.678 789.066C141.289 796.692 143.317 803.228 150.962 807.051C165.504 814.322 180.475 782.812 166.562 781.266C162.423 780.806 151.36 772.145 150.962 779.316C150.735 783.392 147.065 796.321 150.962 798.384C157.096 801.631 164.612 799.463 164.612 792.967C164.612 787.047 156.285 779.925 152.478 787.116C141.21 808.401 173.747 798.518 163.095 786.683C157.695 780.682 149.611 780.231 149.011 791.017C148.626 797.949 158.327 802.738 158.762 794.917C159.462 782.319 149.208 794.247 151.395 796.433C158.422 803.461 161.146 783.865 156.378 788.633C149.416 795.595 157.283 799.027 156.812 791.017C156.516 785.992 146.174 800.709 154.862 794.917" stroke="#CDCDCD" stroke-width="8" stroke-linecap="round" stroke-linejoin="round"/>
<path d="M207.512 796.867C215.257 796.867 222.217 794.917 229.938 794.917C239.343 794.917 247.982 796.867 257.239 796.867C271.215 796.867 285.191 796.867 299.166 796.867C324.275 796.867 349.585 792.967 375.22 792.967" stroke="#CDCDCD" stroke-width="8" stroke-linecap="round" stroke-linejoin="round"/>
<rect x="115" y="1574" width="416" height="80" rx="6" stroke="#9747FF" stroke-width="4" stroke-linecap="round"/>
<circle cx="131" cy="1206" r="16" stroke="#1E1E1E" stroke-width="4" stroke-linecap="round"/>
<circle cx="131" cy="1270" r="16" stroke="#1E1E1E" stroke-width="4" stroke-linecap="round"/>
<circle cx="131" cy="1334" r="16" stroke="#1E1E1E" stroke-width="4" stroke-linecap="round"/>
<circle cx="131" cy="1398" r="16" stroke="#1E1E1E" stroke-width="4" stroke-linecap="round"/>
<path d="M616.438 1610.4C616.347 1609.6 615.972 1608.97 615.312 1608.53C614.653 1608.08 613.824 1607.86 612.824 1607.86C612.108 1607.86 611.489 1607.97 610.966 1608.2C610.443 1608.42 610.037 1608.72 609.747 1609.12C609.463 1609.5 609.321 1609.94 609.321 1610.44C609.321 1610.85 609.418 1611.21 609.611 1611.51C609.81 1611.81 610.068 1612.07 610.386 1612.27C610.71 1612.47 611.057 1612.64 611.426 1612.77C611.795 1612.9 612.151 1613.01 612.491 1613.1L614.196 1613.54C614.753 1613.68 615.324 1613.86 615.909 1614.09C616.494 1614.33 617.037 1614.63 617.537 1615.01C618.037 1615.39 618.44 1615.87 618.747 1616.43C619.06 1616.99 619.216 1617.66 619.216 1618.45C619.216 1619.44 618.96 1620.32 618.449 1621.08C617.943 1621.85 617.207 1622.45 616.241 1622.9C615.281 1623.34 614.119 1623.56 612.756 1623.56C611.449 1623.56 610.318 1623.36 609.364 1622.94C608.409 1622.53 607.662 1621.94 607.122 1621.18C606.582 1620.41 606.284 1619.5 606.227 1618.45H608.869C608.92 1619.08 609.125 1619.61 609.483 1620.03C609.847 1620.44 610.31 1620.75 610.872 1620.95C611.44 1621.15 612.062 1621.25 612.739 1621.25C613.483 1621.25 614.145 1621.14 614.724 1620.9C615.31 1620.66 615.77 1620.34 616.105 1619.91C616.44 1619.49 616.608 1618.99 616.608 1618.42C616.608 1617.91 616.46 1617.48 616.165 1617.15C615.875 1616.82 615.48 1616.55 614.98 1616.34C614.486 1616.12 613.926 1615.93 613.301 1615.76L611.239 1615.2C609.841 1614.82 608.733 1614.26 607.915 1613.52C607.102 1612.78 606.696 1611.81 606.696 1610.59C606.696 1609.59 606.969 1608.71 607.514 1607.96C608.06 1607.21 608.798 1606.62 609.73 1606.21C610.662 1605.79 611.713 1605.58 612.884 1605.58C614.065 1605.58 615.108 1605.79 616.011 1606.2C616.92 1606.62 617.636 1607.19 618.159 1607.91C618.682 1608.64 618.955 1609.47 618.977 1610.4H616.438ZM624.046 1618.83L624.029 1615.72H624.472L629.688 1610.18H632.739L626.79 1616.49H626.39L624.046 1618.83ZM621.702 1623.27V1605.82H624.251V1623.27H621.702ZM629.969 1623.27L625.282 1617.05L627.038 1615.27L633.097 1623.27H629.969ZM634.606 1623.27V1610.18H637.154V1623.27H634.606ZM635.893 1608.16C635.45 1608.16 635.069 1608.01 634.751 1607.72C634.438 1607.42 634.282 1607.06 634.282 1606.64C634.282 1606.22 634.438 1605.87 634.751 1605.57C635.069 1605.27 635.45 1605.12 635.893 1605.12C636.336 1605.12 636.714 1605.27 637.026 1605.57C637.344 1605.87 637.503 1606.22 637.503 1606.64C637.503 1607.06 637.344 1607.42 637.026 1607.72C636.714 1608.01 636.336 1608.16 635.893 1608.16ZM640.126 1628.18V1610.18H642.615V1612.3H642.828C642.976 1612.03 643.189 1611.72 643.467 1611.36C643.746 1611 644.132 1610.69 644.626 1610.42C645.121 1610.15 645.774 1610.01 646.587 1610.01C647.643 1610.01 648.587 1610.28 649.416 1610.81C650.246 1611.35 650.896 1612.12 651.368 1613.12C651.845 1614.13 652.084 1615.34 652.084 1616.75C652.084 1618.17 651.848 1619.38 651.376 1620.39C650.905 1621.4 650.257 1622.17 649.433 1622.72C648.609 1623.26 647.669 1623.53 646.612 1623.53C645.817 1623.53 645.166 1623.39 644.66 1623.13C644.16 1622.86 643.768 1622.55 643.484 1622.19C643.2 1621.83 642.981 1621.51 642.828 1621.24H642.675V1628.18H640.126ZM642.623 1616.73C642.623 1617.65 642.757 1618.45 643.024 1619.15C643.291 1619.84 643.677 1620.38 644.183 1620.78C644.689 1621.16 645.308 1621.36 646.041 1621.36C646.802 1621.36 647.439 1621.15 647.95 1620.75C648.462 1620.34 648.848 1619.79 649.109 1619.09C649.376 1618.39 649.51 1617.6 649.51 1616.73C649.51 1615.86 649.379 1615.09 649.118 1614.4C648.862 1613.71 648.476 1613.17 647.959 1612.77C647.447 1612.37 646.808 1612.18 646.041 1612.18C645.302 1612.18 644.677 1612.37 644.166 1612.75C643.66 1613.13 643.277 1613.66 643.016 1614.34C642.754 1615.02 642.623 1615.82 642.623 1616.73Z" fill="#1E1E1E"/>
<path d="M616.438 1498.4C616.347 1497.6 615.972 1496.97 615.312 1496.53C614.653 1496.08 613.824 1495.86 612.824 1495.86C612.108 1495.86 611.489 1495.97 610.966 1496.2C610.443 1496.42 610.037 1496.72 609.747 1497.12C609.463 1497.5 609.321 1497.94 609.321 1498.44C609.321 1498.85 609.418 1499.21 609.611 1499.51C609.81 1499.81 610.068 1500.07 610.386 1500.27C610.71 1500.47 611.057 1500.64 611.426 1500.77C611.795 1500.9 612.151 1501.01 612.491 1501.1L614.196 1501.54C614.753 1501.68 615.324 1501.86 615.909 1502.09C616.494 1502.33 617.037 1502.63 617.537 1503.01C618.037 1503.39 618.44 1503.87 618.747 1504.43C619.06 1504.99 619.216 1505.66 619.216 1506.45C619.216 1507.44 618.96 1508.32 618.449 1509.08C617.943 1509.85 617.207 1510.45 616.241 1510.9C615.281 1511.34 614.119 1511.56 612.756 1511.56C611.449 1511.56 610.318 1511.36 609.364 1510.94C608.409 1510.53 607.662 1509.94 607.122 1509.18C606.582 1508.41 606.284 1507.5 606.227 1506.45H608.869C608.92 1507.08 609.125 1507.61 609.483 1508.03C609.847 1508.44 610.31 1508.75 610.872 1508.95C611.44 1509.15 612.062 1509.25 612.739 1509.25C613.483 1509.25 614.145 1509.14 614.724 1508.9C615.31 1508.66 615.77 1508.34 616.105 1507.91C616.44 1507.49 616.608 1506.99 616.608 1506.42C616.608 1505.91 616.46 1505.48 616.165 1505.15C615.875 1504.82 615.48 1504.55 614.98 1504.34C614.486 1504.12 613.926 1503.93 613.301 1503.76L611.239 1503.2C609.841 1502.82 608.733 1502.26 607.915 1501.52C607.102 1500.78 606.696 1499.81 606.696 1498.59C606.696 1497.59 606.969 1496.71 607.514 1495.96C608.06 1495.21 608.798 1494.62 609.73 1494.21C610.662 1493.79 611.713 1493.58 612.884 1493.58C614.065 1493.58 615.108 1493.79 616.011 1494.2C616.92 1494.62 617.636 1495.19 618.159 1495.91C618.682 1496.64 618.955 1497.47 618.977 1498.4H616.438ZM625.512 1511.56C624.682 1511.56 623.932 1511.41 623.262 1511.1C622.592 1510.79 622.06 1510.34 621.668 1509.75C621.282 1509.16 621.089 1508.43 621.089 1507.57C621.089 1506.84 621.231 1506.23 621.515 1505.75C621.799 1505.27 622.182 1504.89 622.665 1504.62C623.148 1504.34 623.688 1504.13 624.285 1503.99C624.881 1503.84 625.489 1503.74 626.109 1503.66C626.893 1503.57 627.529 1503.5 628.018 1503.44C628.506 1503.38 628.861 1503.28 629.083 1503.14C629.305 1503.01 629.415 1502.78 629.415 1502.48V1502.42C629.415 1501.67 629.205 1501.1 628.785 1500.69C628.37 1500.28 627.751 1500.07 626.927 1500.07C626.069 1500.07 625.393 1500.26 624.898 1500.64C624.41 1501.02 624.072 1501.44 623.884 1501.9L621.489 1501.35C621.773 1500.56 622.188 1499.91 622.734 1499.43C623.285 1498.93 623.918 1498.57 624.634 1498.35C625.35 1498.12 626.103 1498.01 626.893 1498.01C627.415 1498.01 627.969 1498.07 628.555 1498.2C629.146 1498.32 629.697 1498.54 630.208 1498.86C630.725 1499.19 631.148 1499.65 631.478 1500.25C631.807 1500.85 631.972 1501.62 631.972 1502.58V1511.27H629.484V1509.48H629.381C629.217 1509.81 628.969 1510.14 628.64 1510.45C628.31 1510.77 627.887 1511.04 627.37 1511.25C626.853 1511.46 626.234 1511.56 625.512 1511.56ZM626.066 1509.52C626.771 1509.52 627.373 1509.38 627.873 1509.1C628.379 1508.82 628.762 1508.46 629.023 1508.01C629.29 1507.55 629.424 1507.07 629.424 1506.55V1504.86C629.333 1504.95 629.157 1505.04 628.896 1505.12C628.64 1505.19 628.347 1505.26 628.018 1505.32C627.688 1505.37 627.367 1505.41 627.055 1505.46C626.742 1505.5 626.481 1505.53 626.271 1505.56C625.776 1505.62 625.325 1505.73 624.915 1505.88C624.512 1506.03 624.188 1506.24 623.944 1506.52C623.705 1506.79 623.586 1507.15 623.586 1507.61C623.586 1508.24 623.819 1508.72 624.285 1509.04C624.751 1509.36 625.344 1509.52 626.066 1509.52ZM645.641 1498.18L640.893 1511.27H638.166L633.41 1498.18H636.146L639.462 1508.26H639.598L642.905 1498.18H645.641ZM652.776 1511.54C651.486 1511.54 650.376 1511.26 649.444 1510.71C648.518 1510.15 647.802 1509.37 647.296 1508.37C646.796 1507.36 646.546 1506.17 646.546 1504.81C646.546 1503.47 646.796 1502.29 647.296 1501.27C647.802 1500.24 648.506 1499.45 649.41 1498.87C650.319 1498.3 651.381 1498.01 652.597 1498.01C653.336 1498.01 654.052 1498.13 654.745 1498.38C655.438 1498.62 656.06 1499.01 656.611 1499.53C657.163 1500.05 657.597 1500.73 657.915 1501.57C658.234 1502.39 658.393 1503.4 658.393 1504.59V1505.49H647.986V1503.59H655.895C655.895 1502.91 655.759 1502.32 655.486 1501.8C655.214 1501.28 654.83 1500.87 654.336 1500.57C653.847 1500.27 653.273 1500.12 652.614 1500.12C651.898 1500.12 651.273 1500.29 650.739 1500.64C650.211 1500.99 649.802 1501.45 649.512 1502.01C649.228 1502.57 649.086 1503.17 649.086 1503.82V1505.32C649.086 1506.19 649.239 1506.93 649.546 1507.55C649.859 1508.16 650.293 1508.63 650.85 1508.95C651.407 1509.27 652.057 1509.43 652.802 1509.43C653.285 1509.43 653.725 1509.36 654.123 1509.23C654.52 1509.09 654.864 1508.87 655.154 1508.6C655.444 1508.32 655.665 1507.97 655.819 1507.57L658.231 1508C658.038 1508.71 657.691 1509.33 657.191 1509.87C656.697 1510.39 656.074 1510.81 655.324 1511.1C654.58 1511.39 653.731 1511.54 652.776 1511.54Z" fill="#1E1E1E"/>
<path d="M606.918 1130.55H610.114L615.67 1144.11H615.875L621.432 1130.55H624.628V1148H622.122V1135.37H621.96L616.812 1147.97H614.733L609.585 1135.36H609.423V1148H606.918V1130.55ZM633.438 1148.26C632.148 1148.26 631.038 1147.99 630.106 1147.44C629.18 1146.88 628.464 1146.1 627.958 1145.09C627.458 1144.08 627.208 1142.9 627.208 1141.54C627.208 1140.2 627.458 1139.02 627.958 1137.99C628.464 1136.97 629.168 1136.17 630.072 1135.6C630.981 1135.03 632.043 1134.74 633.259 1134.74C633.998 1134.74 634.714 1134.86 635.407 1135.11C636.1 1135.35 636.722 1135.73 637.273 1136.26C637.825 1136.78 638.259 1137.46 638.577 1138.29C638.896 1139.12 639.055 1140.13 639.055 1141.32V1142.22H628.648V1140.31H636.557C636.557 1139.64 636.421 1139.05 636.148 1138.53C635.876 1138.01 635.492 1137.6 634.998 1137.3C634.509 1136.99 633.935 1136.84 633.276 1136.84C632.56 1136.84 631.935 1137.02 631.401 1137.37C630.873 1137.72 630.464 1138.17 630.174 1138.74C629.89 1139.29 629.748 1139.9 629.748 1140.55V1142.04C629.748 1142.92 629.901 1143.66 630.208 1144.28C630.521 1144.89 630.955 1145.36 631.512 1145.68C632.069 1146 632.719 1146.16 633.464 1146.16C633.947 1146.16 634.387 1146.09 634.785 1145.95C635.182 1145.81 635.526 1145.6 635.816 1145.32C636.106 1145.05 636.327 1144.7 636.481 1144.29L638.893 1144.73C638.7 1145.44 638.353 1146.06 637.853 1146.59C637.359 1147.12 636.736 1147.53 635.986 1147.83C635.242 1148.12 634.393 1148.26 633.438 1148.26ZM647.537 1134.91V1136.95H640.386V1134.91H647.537ZM642.304 1131.77H644.852V1144.16C644.852 1144.65 644.926 1145.02 645.074 1145.27C645.222 1145.52 645.412 1145.68 645.645 1145.78C645.883 1145.86 646.142 1145.9 646.42 1145.9C646.625 1145.9 646.804 1145.89 646.957 1145.86C647.111 1145.83 647.23 1145.81 647.315 1145.79L647.776 1147.9C647.628 1147.95 647.418 1148.01 647.145 1148.07C646.872 1148.13 646.531 1148.16 646.122 1148.17C645.452 1148.18 644.827 1148.06 644.247 1147.81C643.668 1147.56 643.199 1147.18 642.841 1146.65C642.483 1146.13 642.304 1145.47 642.304 1144.68V1131.77ZM655.401 1148.26C654.111 1148.26 653.001 1147.99 652.069 1147.44C651.143 1146.88 650.427 1146.1 649.921 1145.09C649.421 1144.08 649.171 1142.9 649.171 1141.54C649.171 1140.2 649.421 1139.02 649.921 1137.99C650.427 1136.97 651.131 1136.17 652.035 1135.6C652.944 1135.03 654.006 1134.74 655.222 1134.74C655.961 1134.74 656.677 1134.86 657.37 1135.11C658.063 1135.35 658.685 1135.73 659.236 1136.26C659.788 1136.78 660.222 1137.46 660.54 1138.29C660.859 1139.12 661.018 1140.13 661.018 1141.32V1142.22H650.611V1140.31H658.52C658.52 1139.64 658.384 1139.05 658.111 1138.53C657.839 1138.01 657.455 1137.6 656.961 1137.3C656.472 1136.99 655.898 1136.84 655.239 1136.84C654.523 1136.84 653.898 1137.02 653.364 1137.37C652.836 1137.72 652.427 1138.17 652.137 1138.74C651.853 1139.29 651.711 1139.9 651.711 1140.55V1142.04C651.711 1142.92 651.864 1143.66 652.171 1144.28C652.484 1144.89 652.918 1145.36 653.475 1145.68C654.032 1146 654.682 1146.16 655.427 1146.16C655.91 1146.16 656.35 1146.09 656.748 1145.95C657.145 1145.81 657.489 1145.6 657.779 1145.32C658.069 1145.05 658.29 1144.7 658.444 1144.29L660.856 1144.73C660.663 1145.44 660.316 1146.06 659.816 1146.59C659.322 1147.12 658.699 1147.53 657.949 1147.83C657.205 1148.12 656.356 1148.26 655.401 1148.26ZM663.389 1148V1134.91H665.852V1136.99H665.988C666.227 1136.28 666.648 1135.73 667.25 1135.33C667.858 1134.92 668.545 1134.71 669.312 1134.71C669.471 1134.71 669.659 1134.72 669.875 1134.73C670.096 1134.74 670.27 1134.76 670.395 1134.77V1137.21C670.292 1137.18 670.111 1137.15 669.849 1137.12C669.588 1137.08 669.327 1137.06 669.065 1137.06C668.463 1137.06 667.926 1137.18 667.454 1137.44C666.988 1137.69 666.619 1138.04 666.346 1138.49C666.074 1138.93 665.937 1139.44 665.937 1140.01V1148H663.389ZM680.878 1148L677.025 1134.91H679.659L682.224 1144.52H682.352L684.926 1134.91H687.559L690.116 1144.48H690.244L692.792 1134.91H695.426L691.582 1148H688.983L686.324 1138.55H686.128L683.469 1148H680.878ZM702.632 1148.26C701.342 1148.26 700.231 1147.99 699.299 1147.44C698.373 1146.88 697.657 1146.1 697.152 1145.09C696.652 1144.08 696.402 1142.9 696.402 1141.54C696.402 1140.2 696.652 1139.02 697.152 1137.99C697.657 1136.97 698.362 1136.17 699.265 1135.6C700.174 1135.03 701.237 1134.74 702.453 1134.74C703.192 1134.74 703.907 1134.86 704.601 1135.11C705.294 1135.35 705.916 1135.73 706.467 1136.26C707.018 1136.78 707.453 1137.46 707.771 1138.29C708.089 1139.12 708.248 1140.13 708.248 1141.32V1142.22H697.842V1140.31H705.751C705.751 1139.64 705.615 1139.05 705.342 1138.53C705.069 1138.01 704.686 1137.6 704.192 1137.3C703.703 1136.99 703.129 1136.84 702.47 1136.84C701.754 1136.84 701.129 1137.02 700.595 1137.37C700.067 1137.72 699.657 1138.17 699.368 1138.74C699.084 1139.29 698.942 1139.9 698.942 1140.55V1142.04C698.942 1142.92 699.095 1143.66 699.402 1144.28C699.714 1144.89 700.149 1145.36 700.706 1145.68C701.263 1146 701.913 1146.16 702.657 1146.16C703.14 1146.16 703.581 1146.09 703.978 1145.95C704.376 1145.81 704.72 1145.6 705.01 1145.32C705.299 1145.05 705.521 1144.7 705.674 1144.29L708.086 1144.73C707.893 1145.44 707.547 1146.06 707.047 1146.59C706.552 1147.12 705.93 1147.53 705.18 1147.83C704.436 1148.12 703.586 1148.26 702.632 1148.26ZM710.62 1148V1134.91H713.168V1148H710.62ZM711.907 1132.89C711.464 1132.89 711.083 1132.74 710.765 1132.45C710.452 1132.14 710.296 1131.79 710.296 1131.37C710.296 1130.95 710.452 1130.59 710.765 1130.3C711.083 1130 711.464 1129.85 711.907 1129.85C712.35 1129.85 712.728 1130 713.04 1130.3C713.358 1130.59 713.517 1130.95 713.517 1131.37C713.517 1131.79 713.358 1132.14 713.04 1132.45C712.728 1132.74 712.35 1132.89 711.907 1132.89ZM721.629 1153.18C720.589 1153.18 719.694 1153.05 718.944 1152.77C718.2 1152.5 717.592 1152.14 717.12 1151.69C716.649 1151.24 716.297 1150.75 716.064 1150.22L718.254 1149.31C718.407 1149.56 718.612 1149.83 718.868 1150.11C719.129 1150.39 719.481 1150.63 719.924 1150.83C720.373 1151.03 720.95 1151.13 721.655 1151.13C722.62 1151.13 723.419 1150.89 724.049 1150.42C724.68 1149.95 724.995 1149.21 724.995 1148.19V1145.61H724.834C724.68 1145.89 724.459 1146.2 724.169 1146.54C723.885 1146.88 723.493 1147.18 722.993 1147.43C722.493 1147.68 721.842 1147.8 721.041 1147.8C720.007 1147.8 719.075 1147.56 718.245 1147.08C717.422 1146.59 716.768 1145.87 716.285 1144.92C715.808 1143.97 715.569 1142.8 715.569 1141.4C715.569 1140.01 715.805 1138.82 716.277 1137.82C716.754 1136.83 717.407 1136.07 718.237 1135.54C719.066 1135.01 720.007 1134.74 721.058 1134.74C721.87 1134.74 722.527 1134.88 723.027 1135.15C723.527 1135.41 723.916 1135.73 724.194 1136.09C724.478 1136.44 724.697 1136.76 724.851 1137.03H725.038V1134.91H727.535V1148.29C727.535 1149.41 727.274 1150.34 726.751 1151.06C726.228 1151.78 725.521 1152.32 724.629 1152.66C723.743 1153.01 722.743 1153.18 721.629 1153.18ZM721.603 1145.69C722.336 1145.69 722.956 1145.52 723.461 1145.18C723.973 1144.83 724.359 1144.34 724.62 1143.7C724.887 1143.05 725.021 1142.27 725.021 1141.37C725.021 1140.49 724.89 1139.71 724.629 1139.04C724.368 1138.37 723.984 1137.85 723.478 1137.47C722.973 1137.09 722.348 1136.9 721.603 1136.9C720.836 1136.9 720.197 1137.1 719.686 1137.5C719.174 1137.89 718.788 1138.43 718.527 1139.1C718.271 1139.78 718.143 1140.53 718.143 1141.37C718.143 1142.23 718.274 1142.98 718.535 1143.63C718.797 1144.28 719.183 1144.78 719.694 1145.14C720.211 1145.51 720.848 1145.69 721.603 1145.69ZM733.045 1140.23V1148H730.497V1130.55H733.011V1137.04H733.173C733.48 1136.34 733.949 1135.78 734.579 1135.36C735.21 1134.95 736.034 1134.74 737.051 1134.74C737.949 1134.74 738.733 1134.92 739.403 1135.29C740.079 1135.66 740.602 1136.21 740.971 1136.95C741.346 1137.67 741.534 1138.58 741.534 1139.67V1148H738.985V1139.98C738.985 1139.02 738.738 1138.28 738.244 1137.75C737.75 1137.21 737.062 1136.95 736.181 1136.95C735.579 1136.95 735.039 1137.07 734.562 1137.33C734.091 1137.59 733.718 1137.96 733.446 1138.45C733.179 1138.94 733.045 1139.53 733.045 1140.23ZM750.589 1134.91V1136.95H743.439V1134.91H750.589ZM745.356 1131.77H747.904V1144.16C747.904 1144.65 747.978 1145.02 748.126 1145.27C748.274 1145.52 748.464 1145.68 748.697 1145.78C748.936 1145.86 749.194 1145.9 749.473 1145.9C749.677 1145.9 749.856 1145.89 750.01 1145.86C750.163 1145.83 750.282 1145.81 750.368 1145.79L750.828 1147.9C750.68 1147.95 750.47 1148.01 750.197 1148.07C749.924 1148.13 749.583 1148.16 749.174 1148.17C748.504 1148.18 747.879 1148.06 747.299 1147.81C746.72 1147.56 746.251 1147.18 745.893 1146.65C745.535 1146.13 745.356 1145.47 745.356 1144.68V1131.77ZM762.551 1138.11L760.241 1138.51C760.144 1138.22 759.991 1137.94 759.781 1137.67C759.576 1137.4 759.298 1137.18 758.946 1137.01C758.593 1136.84 758.153 1136.76 757.625 1136.76C756.903 1136.76 756.301 1136.92 755.818 1137.24C755.335 1137.56 755.093 1137.97 755.093 1138.48C755.093 1138.92 755.255 1139.27 755.579 1139.54C755.903 1139.8 756.426 1140.02 757.147 1140.19L759.227 1140.67C760.431 1140.95 761.329 1141.38 761.92 1141.96C762.511 1142.54 762.806 1143.29 762.806 1144.22C762.806 1145 762.579 1145.7 762.125 1146.31C761.676 1146.92 761.048 1147.4 760.241 1147.74C759.44 1148.09 758.511 1148.26 757.454 1148.26C755.988 1148.26 754.792 1147.95 753.866 1147.33C752.94 1146.7 752.372 1145.8 752.162 1144.64L754.625 1144.27C754.778 1144.91 755.093 1145.39 755.571 1145.72C756.048 1146.05 756.67 1146.21 757.437 1146.21C758.272 1146.21 758.94 1146.04 759.44 1145.69C759.94 1145.34 760.19 1144.91 760.19 1144.4C760.19 1143.99 760.037 1143.65 759.73 1143.37C759.429 1143.09 758.965 1142.88 758.34 1142.74L756.125 1142.26C754.903 1141.98 754 1141.53 753.414 1140.93C752.835 1140.32 752.545 1139.55 752.545 1138.62C752.545 1137.84 752.761 1137.17 753.193 1136.59C753.625 1136.01 754.221 1135.56 754.983 1135.23C755.744 1134.9 756.616 1134.74 757.599 1134.74C759.014 1134.74 760.127 1135.05 760.94 1135.66C761.752 1136.27 762.289 1137.08 762.551 1138.11Z" fill="#1E1E1E"/>
<path d="M606.918 1018.55H610.114L615.67 1032.11H615.875L621.432 1018.55H624.628V1036H622.122V1023.37H621.96L616.812 1035.97H614.733L609.585 1023.36H609.423V1036H606.918V1018.55ZM633.438 1036.26C632.148 1036.26 631.038 1035.99 630.106 1035.44C629.18 1034.88 628.464 1034.1 627.958 1033.09C627.458 1032.08 627.208 1030.9 627.208 1029.54C627.208 1028.2 627.458 1027.02 627.958 1025.99C628.464 1024.97 629.168 1024.17 630.072 1023.6C630.981 1023.03 632.043 1022.74 633.259 1022.74C633.998 1022.74 634.714 1022.86 635.407 1023.11C636.1 1023.35 636.722 1023.73 637.273 1024.26C637.825 1024.78 638.259 1025.46 638.577 1026.29C638.896 1027.12 639.055 1028.13 639.055 1029.32V1030.22H628.648V1028.31H636.557C636.557 1027.64 636.421 1027.05 636.148 1026.53C635.876 1026.01 635.492 1025.6 634.998 1025.3C634.509 1024.99 633.935 1024.84 633.276 1024.84C632.56 1024.84 631.935 1025.02 631.401 1025.37C630.873 1025.72 630.464 1026.17 630.174 1026.74C629.89 1027.29 629.748 1027.9 629.748 1028.55V1030.04C629.748 1030.92 629.901 1031.66 630.208 1032.28C630.521 1032.89 630.955 1033.36 631.512 1033.68C632.069 1034 632.719 1034.16 633.464 1034.16C633.947 1034.16 634.387 1034.09 634.785 1033.95C635.182 1033.81 635.526 1033.6 635.816 1033.32C636.106 1033.05 636.327 1032.7 636.481 1032.29L638.893 1032.73C638.7 1033.44 638.353 1034.06 637.853 1034.59C637.359 1035.12 636.736 1035.53 635.986 1035.83C635.242 1036.12 634.393 1036.26 633.438 1036.26ZM647.537 1022.91V1024.95H640.386V1022.91H647.537ZM642.304 1019.77H644.852V1032.16C644.852 1032.65 644.926 1033.02 645.074 1033.27C645.222 1033.52 645.412 1033.68 645.645 1033.78C645.883 1033.86 646.142 1033.9 646.42 1033.9C646.625 1033.9 646.804 1033.89 646.957 1033.86C647.111 1033.83 647.23 1033.81 647.315 1033.79L647.776 1035.9C647.628 1035.95 647.418 1036.01 647.145 1036.07C646.872 1036.13 646.531 1036.16 646.122 1036.17C645.452 1036.18 644.827 1036.06 644.247 1035.81C643.668 1035.56 643.199 1035.18 642.841 1034.65C642.483 1034.13 642.304 1033.47 642.304 1032.68V1019.77ZM655.401 1036.26C654.111 1036.26 653.001 1035.99 652.069 1035.44C651.143 1034.88 650.427 1034.1 649.921 1033.09C649.421 1032.08 649.171 1030.9 649.171 1029.54C649.171 1028.2 649.421 1027.02 649.921 1025.99C650.427 1024.97 651.131 1024.17 652.035 1023.6C652.944 1023.03 654.006 1022.74 655.222 1022.74C655.961 1022.74 656.677 1022.86 657.37 1023.11C658.063 1023.35 658.685 1023.73 659.236 1024.26C659.788 1024.78 660.222 1025.46 660.54 1026.29C660.859 1027.12 661.018 1028.13 661.018 1029.32V1030.22H650.611V1028.31H658.52C658.52 1027.64 658.384 1027.05 658.111 1026.53C657.839 1026.01 657.455 1025.6 656.961 1025.3C656.472 1024.99 655.898 1024.84 655.239 1024.84C654.523 1024.84 653.898 1025.02 653.364 1025.37C652.836 1025.72 652.427 1026.17 652.137 1026.74C651.853 1027.29 651.711 1027.9 651.711 1028.55V1030.04C651.711 1030.92 651.864 1031.66 652.171 1032.28C652.484 1032.89 652.918 1033.36 653.475 1033.68C654.032 1034 654.682 1034.16 655.427 1034.16C655.91 1034.16 656.35 1034.09 656.748 1033.95C657.145 1033.81 657.489 1033.6 657.779 1033.32C658.069 1033.05 658.29 1032.7 658.444 1032.29L660.856 1032.73C660.663 1033.44 660.316 1034.06 659.816 1034.59C659.322 1035.12 658.699 1035.53 657.949 1035.83C657.205 1036.12 656.356 1036.26 655.401 1036.26ZM663.389 1036V1022.91H665.852V1024.99H665.988C666.227 1024.28 666.648 1023.73 667.25 1023.33C667.858 1022.92 668.545 1022.71 669.312 1022.71C669.471 1022.71 669.659 1022.72 669.875 1022.73C670.096 1022.74 670.27 1022.76 670.395 1022.77V1025.21C670.292 1025.18 670.111 1025.15 669.849 1025.12C669.588 1025.08 669.327 1025.06 669.065 1025.06C668.463 1025.06 667.926 1025.18 667.454 1025.44C666.988 1025.69 666.619 1026.04 666.346 1026.49C666.074 1026.93 665.937 1027.44 665.937 1028.01V1036H663.389ZM678.04 1036V1022.91H680.503V1024.99H680.639C680.878 1024.28 681.298 1023.73 681.9 1023.33C682.508 1022.92 683.196 1022.71 683.963 1022.71C684.122 1022.71 684.309 1022.72 684.525 1022.73C684.747 1022.74 684.92 1022.76 685.045 1022.77V1025.21C684.943 1025.18 684.761 1025.15 684.5 1025.12C684.238 1025.08 683.977 1025.06 683.716 1025.06C683.113 1025.06 682.577 1025.18 682.105 1025.44C681.639 1025.69 681.27 1026.04 680.997 1026.49C680.724 1026.93 680.588 1027.44 680.588 1028.01V1036H678.04ZM691.968 1036.26C690.678 1036.26 689.567 1035.99 688.635 1035.44C687.709 1034.88 686.993 1034.1 686.488 1033.09C685.988 1032.08 685.738 1030.9 685.738 1029.54C685.738 1028.2 685.988 1027.02 686.488 1025.99C686.993 1024.97 687.698 1024.17 688.601 1023.6C689.51 1023.03 690.573 1022.74 691.789 1022.74C692.527 1022.74 693.243 1022.86 693.937 1023.11C694.63 1023.35 695.252 1023.73 695.803 1024.26C696.354 1024.78 696.789 1025.46 697.107 1026.29C697.425 1027.12 697.584 1028.13 697.584 1029.32V1030.22H687.178V1028.31H695.087C695.087 1027.64 694.951 1027.05 694.678 1026.53C694.405 1026.01 694.022 1025.6 693.527 1025.3C693.039 1024.99 692.465 1024.84 691.806 1024.84C691.09 1024.84 690.465 1025.02 689.931 1025.37C689.402 1025.72 688.993 1026.17 688.704 1026.74C688.42 1027.29 688.277 1027.9 688.277 1028.55V1030.04C688.277 1030.92 688.431 1031.66 688.738 1032.28C689.05 1032.89 689.485 1033.36 690.042 1033.68C690.598 1034 691.249 1034.16 691.993 1034.16C692.476 1034.16 692.917 1034.09 693.314 1033.95C693.712 1033.81 694.056 1033.6 694.346 1033.32C694.635 1033.05 694.857 1032.7 695.01 1032.29L697.422 1032.73C697.229 1033.44 696.883 1034.06 696.383 1034.59C695.888 1035.12 695.266 1035.53 694.516 1035.83C693.772 1036.12 692.922 1036.26 691.968 1036.26ZM703.765 1036.29C702.936 1036.29 702.186 1036.14 701.515 1035.83C700.845 1035.52 700.314 1035.07 699.922 1034.47C699.535 1033.88 699.342 1033.16 699.342 1032.3C699.342 1031.56 699.484 1030.95 699.768 1030.48C700.052 1030 700.436 1029.62 700.919 1029.34C701.402 1029.07 701.941 1028.86 702.538 1028.71C703.135 1028.57 703.743 1028.46 704.362 1028.39C705.146 1028.3 705.782 1028.22 706.271 1028.17C706.76 1028.11 707.115 1028.01 707.336 1027.87C707.558 1027.73 707.669 1027.51 707.669 1027.2V1027.14C707.669 1026.4 707.459 1025.82 707.038 1025.41C706.623 1025.01 706.004 1024.8 705.18 1024.8C704.322 1024.8 703.646 1024.99 703.152 1025.37C702.663 1025.75 702.325 1026.16 702.138 1026.62L699.743 1026.08C700.027 1025.28 700.441 1024.64 700.987 1024.15C701.538 1023.66 702.172 1023.3 702.888 1023.08C703.603 1022.85 704.356 1022.74 705.146 1022.74C705.669 1022.74 706.223 1022.8 706.808 1022.93C707.399 1023.05 707.95 1023.27 708.461 1023.59C708.978 1023.91 709.402 1024.38 709.731 1024.98C710.061 1025.58 710.226 1026.35 710.226 1027.31V1036H707.737V1034.21H707.635C707.47 1034.54 707.223 1034.86 706.893 1035.18C706.564 1035.5 706.14 1035.76 705.623 1035.97C705.106 1036.18 704.487 1036.29 703.765 1036.29ZM704.319 1034.24C705.024 1034.24 705.626 1034.11 706.126 1033.83C706.632 1033.55 707.015 1033.18 707.277 1032.74C707.544 1032.28 707.677 1031.8 707.677 1031.28V1029.59C707.586 1029.68 707.41 1029.77 707.149 1029.85C706.893 1029.92 706.601 1029.99 706.271 1030.04C705.941 1030.09 705.62 1030.14 705.308 1030.19C704.995 1030.23 704.734 1030.26 704.524 1030.29C704.03 1030.35 703.578 1030.46 703.169 1030.61C702.765 1030.75 702.441 1030.97 702.197 1031.24C701.959 1031.52 701.839 1031.88 701.839 1032.34C701.839 1032.97 702.072 1033.44 702.538 1033.77C703.004 1034.09 703.598 1034.24 704.319 1034.24ZM718.064 1036.26C717.008 1036.26 716.064 1035.99 715.235 1035.45C714.411 1034.9 713.763 1034.12 713.292 1033.12C712.826 1032.11 712.593 1030.89 712.593 1029.48C712.593 1028.07 712.829 1026.86 713.3 1025.85C713.777 1024.84 714.431 1024.07 715.26 1023.54C716.09 1023.01 717.03 1022.74 718.081 1022.74C718.894 1022.74 719.547 1022.88 720.042 1023.15C720.542 1023.41 720.928 1023.73 721.201 1024.09C721.479 1024.44 721.695 1024.76 721.848 1025.03H722.002V1018.55H724.55V1036H722.061V1033.96H721.848C721.695 1034.24 721.473 1034.56 721.184 1034.92C720.9 1035.28 720.508 1035.59 720.008 1035.86C719.508 1036.12 718.86 1036.26 718.064 1036.26ZM718.627 1034.08C719.36 1034.08 719.979 1033.89 720.485 1033.5C720.996 1033.11 721.383 1032.57 721.644 1031.88C721.911 1031.18 722.044 1030.37 722.044 1029.45C722.044 1028.55 721.914 1027.75 721.652 1027.07C721.391 1026.39 721.008 1025.86 720.502 1025.47C719.996 1025.09 719.371 1024.9 718.627 1024.9C717.86 1024.9 717.221 1025.1 716.709 1025.5C716.198 1025.9 715.811 1026.44 715.55 1027.13C715.294 1027.82 715.167 1028.59 715.167 1029.45C715.167 1030.33 715.297 1031.12 715.559 1031.82C715.82 1032.51 716.206 1033.07 716.718 1033.48C717.235 1033.88 717.871 1034.08 718.627 1034.08ZM727.731 1036V1022.91H730.279V1036H727.731ZM729.018 1020.89C728.575 1020.89 728.194 1020.74 727.876 1020.45C727.564 1020.14 727.407 1019.79 727.407 1019.37C727.407 1018.95 727.564 1018.59 727.876 1018.3C728.194 1018 728.575 1017.85 729.018 1017.85C729.461 1017.85 729.839 1018 730.152 1018.3C730.47 1018.59 730.629 1018.95 730.629 1019.37C730.629 1019.79 730.47 1020.14 730.152 1020.45C729.839 1020.74 729.461 1020.89 729.018 1020.89ZM735.8 1028.23V1036H733.252V1022.91H735.698V1025.04H735.86C736.161 1024.35 736.632 1023.79 737.274 1023.37C737.922 1022.95 738.738 1022.74 739.721 1022.74C740.613 1022.74 741.394 1022.93 742.064 1023.3C742.735 1023.67 743.255 1024.22 743.624 1024.95C743.993 1025.69 744.178 1026.59 744.178 1027.67V1036H741.63V1027.98C741.63 1027.03 741.382 1026.29 740.888 1025.76C740.394 1025.22 739.715 1024.95 738.851 1024.95C738.26 1024.95 737.735 1025.07 737.274 1025.33C736.82 1025.59 736.459 1025.96 736.192 1026.45C735.931 1026.94 735.8 1027.53 735.8 1028.23ZM752.628 1041.18C751.588 1041.18 750.693 1041.05 749.943 1040.77C749.199 1040.5 748.591 1040.14 748.12 1039.69C747.648 1039.24 747.296 1038.75 747.063 1038.22L749.253 1037.31C749.407 1037.56 749.611 1037.83 749.867 1038.11C750.128 1038.39 750.48 1038.63 750.924 1038.83C751.372 1039.03 751.949 1039.13 752.654 1039.13C753.62 1039.13 754.418 1038.89 755.049 1038.42C755.679 1037.95 755.995 1037.21 755.995 1036.19V1033.61H755.833C755.679 1033.89 755.458 1034.2 755.168 1034.54C754.884 1034.88 754.492 1035.18 753.992 1035.43C753.492 1035.68 752.841 1035.8 752.04 1035.8C751.006 1035.8 750.074 1035.56 749.245 1035.08C748.421 1034.59 747.767 1033.87 747.284 1032.92C746.807 1031.97 746.568 1030.8 746.568 1029.4C746.568 1028.01 746.804 1026.82 747.276 1025.82C747.753 1024.83 748.407 1024.07 749.236 1023.54C750.066 1023.01 751.006 1022.74 752.057 1022.74C752.87 1022.74 753.526 1022.88 754.026 1023.15C754.526 1023.41 754.915 1023.73 755.193 1024.09C755.478 1024.44 755.696 1024.76 755.85 1025.03H756.037V1022.91H758.534V1036.29C758.534 1037.41 758.273 1038.34 757.75 1039.06C757.228 1039.78 756.52 1040.32 755.628 1040.66C754.742 1041.01 753.742 1041.18 752.628 1041.18ZM752.603 1033.69C753.336 1033.69 753.955 1033.52 754.461 1033.18C754.972 1032.83 755.358 1032.34 755.62 1031.7C755.887 1031.05 756.02 1030.27 756.02 1029.37C756.02 1028.49 755.89 1027.71 755.628 1027.04C755.367 1026.37 754.983 1025.85 754.478 1025.47C753.972 1025.09 753.347 1024.9 752.603 1024.9C751.836 1024.9 751.196 1025.1 750.685 1025.5C750.174 1025.89 749.787 1026.43 749.526 1027.1C749.27 1027.78 749.142 1028.53 749.142 1029.37C749.142 1030.23 749.273 1030.98 749.534 1031.63C749.796 1032.28 750.182 1032.78 750.693 1033.14C751.211 1033.51 751.847 1033.69 752.603 1033.69ZM771.306 1026.11L768.996 1026.51C768.899 1026.22 768.746 1025.94 768.536 1025.67C768.331 1025.4 768.053 1025.18 767.701 1025.01C767.348 1024.84 766.908 1024.76 766.38 1024.76C765.658 1024.76 765.056 1024.92 764.573 1025.24C764.09 1025.56 763.848 1025.97 763.848 1026.48C763.848 1026.92 764.01 1027.27 764.334 1027.54C764.658 1027.8 765.181 1028.02 765.902 1028.19L767.982 1028.67C769.186 1028.95 770.084 1029.38 770.675 1029.96C771.266 1030.54 771.561 1031.29 771.561 1032.22C771.561 1033 771.334 1033.7 770.88 1034.31C770.431 1034.92 769.803 1035.4 768.996 1035.74C768.195 1036.09 767.266 1036.26 766.209 1036.26C764.743 1036.26 763.547 1035.95 762.621 1035.33C761.695 1034.7 761.127 1033.8 760.916 1032.64L763.38 1032.27C763.533 1032.91 763.848 1033.39 764.326 1033.72C764.803 1034.05 765.425 1034.21 766.192 1034.21C767.027 1034.21 767.695 1034.04 768.195 1033.69C768.695 1033.34 768.945 1032.91 768.945 1032.4C768.945 1031.99 768.791 1031.65 768.485 1031.37C768.184 1031.09 767.72 1030.88 767.095 1030.74L764.88 1030.26C763.658 1029.98 762.755 1029.53 762.169 1028.93C761.59 1028.32 761.3 1027.55 761.3 1026.62C761.3 1025.84 761.516 1025.17 761.948 1024.59C762.38 1024.01 762.976 1023.56 763.737 1023.23C764.499 1022.9 765.371 1022.74 766.354 1022.74C767.769 1022.74 768.882 1023.05 769.695 1023.66C770.507 1024.27 771.044 1025.08 771.306 1026.11Z" fill="#1E1E1E"/>
<path d="M616.438 879.131C616.347 878.324 615.972 877.699 615.312 877.256C614.653 876.807 613.824 876.582 612.824 876.582C612.108 876.582 611.489 876.696 610.966 876.923C610.443 877.145 610.037 877.452 609.747 877.844C609.463 878.23 609.321 878.67 609.321 879.165C609.321 879.58 609.418 879.937 609.611 880.239C609.81 880.54 610.068 880.793 610.386 880.997C610.71 881.196 611.057 881.364 611.426 881.5C611.795 881.631 612.151 881.739 612.491 881.824L614.196 882.267C614.753 882.403 615.324 882.588 615.909 882.821C616.494 883.054 617.037 883.361 617.537 883.741C618.037 884.122 618.44 884.594 618.747 885.156C619.06 885.719 619.216 886.392 619.216 887.176C619.216 888.165 618.96 889.043 618.449 889.81C617.943 890.577 617.207 891.182 616.241 891.625C615.281 892.068 614.119 892.29 612.756 892.29C611.449 892.29 610.318 892.082 609.364 891.668C608.409 891.253 607.662 890.665 607.122 889.903C606.582 889.136 606.284 888.227 606.227 887.176H608.869C608.92 887.807 609.125 888.332 609.483 888.753C609.847 889.168 610.31 889.477 610.872 889.682C611.44 889.881 612.062 889.98 612.739 889.98C613.483 889.98 614.145 889.864 614.724 889.631C615.31 889.392 615.77 889.062 616.105 888.642C616.44 888.216 616.608 887.719 616.608 887.151C616.608 886.634 616.46 886.21 616.165 885.881C615.875 885.551 615.48 885.278 614.98 885.062C614.486 884.847 613.926 884.656 613.301 884.491L611.239 883.929C609.841 883.548 608.733 882.989 607.915 882.25C607.102 881.511 606.696 880.534 606.696 879.318C606.696 878.312 606.969 877.435 607.514 876.685C608.06 875.935 608.798 875.352 609.73 874.938C610.662 874.517 611.713 874.307 612.884 874.307C614.065 874.307 615.108 874.514 616.011 874.929C616.92 875.344 617.636 875.915 618.159 876.642C618.682 877.364 618.955 878.193 618.977 879.131H616.438ZM635.995 874.545V892H633.575L624.702 879.199H624.54V892H621.907V874.545H624.344L633.225 887.364H633.387V874.545H635.995Z" fill="#1E1E1E"/>
<path d="M621.415 779.222H618.756C618.653 778.653 618.463 778.153 618.185 777.722C617.906 777.29 617.565 776.923 617.162 776.622C616.759 776.321 616.307 776.094 615.807 775.94C615.313 775.787 614.787 775.71 614.23 775.71C613.224 775.71 612.324 775.963 611.528 776.469C610.739 776.974 610.114 777.716 609.653 778.693C609.199 779.67 608.972 780.864 608.972 782.273C608.972 783.693 609.199 784.892 609.653 785.869C610.114 786.847 610.741 787.585 611.537 788.085C612.332 788.585 613.227 788.835 614.222 788.835C614.773 788.835 615.295 788.761 615.79 788.614C616.29 788.46 616.741 788.236 617.145 787.94C617.548 787.645 617.889 787.284 618.168 786.858C618.452 786.426 618.648 785.932 618.756 785.375L621.415 785.384C621.273 786.241 620.997 787.031 620.588 787.753C620.185 788.469 619.665 789.088 619.028 789.611C618.398 790.128 617.676 790.528 616.864 790.812C616.051 791.097 615.165 791.239 614.205 791.239C612.693 791.239 611.347 790.881 610.165 790.165C608.983 789.443 608.051 788.412 607.369 787.071C606.693 785.73 606.355 784.131 606.355 782.273C606.355 780.409 606.696 778.81 607.378 777.474C608.06 776.134 608.991 775.105 610.173 774.389C611.355 773.668 612.699 773.307 614.205 773.307C615.131 773.307 615.994 773.44 616.795 773.707C617.602 773.969 618.327 774.355 618.969 774.866C619.611 775.372 620.142 775.991 620.562 776.724C620.983 777.452 621.267 778.284 621.415 779.222ZM629.42 791.264C628.192 791.264 627.121 790.983 626.207 790.42C625.292 789.858 624.582 789.071 624.076 788.06C623.57 787.048 623.317 785.866 623.317 784.514C623.317 783.156 623.57 781.969 624.076 780.952C624.582 779.935 625.292 779.145 626.207 778.582C627.121 778.02 628.192 777.739 629.42 777.739C630.647 777.739 631.718 778.02 632.633 778.582C633.548 779.145 634.258 779.935 634.763 780.952C635.269 781.969 635.522 783.156 635.522 784.514C635.522 785.866 635.269 787.048 634.763 788.06C634.258 789.071 633.548 789.858 632.633 790.42C631.718 790.983 630.647 791.264 629.42 791.264ZM629.428 789.125C630.224 789.125 630.883 788.915 631.406 788.494C631.928 788.074 632.315 787.514 632.565 786.815C632.82 786.116 632.948 785.347 632.948 784.506C632.948 783.67 632.82 782.903 632.565 782.205C632.315 781.5 631.928 780.935 631.406 780.509C630.883 780.082 630.224 779.869 629.428 779.869C628.627 779.869 627.962 780.082 627.434 780.509C626.911 780.935 626.522 781.5 626.266 782.205C626.016 782.903 625.891 783.67 625.891 784.506C625.891 785.347 626.016 786.116 626.266 786.815C626.522 787.514 626.911 788.074 627.434 788.494C627.962 788.915 628.627 789.125 629.428 789.125ZM640.459 783.227V791H637.91V777.909H640.356V780.04H640.518C640.82 779.347 641.291 778.79 641.933 778.369C642.581 777.949 643.396 777.739 644.379 777.739C645.271 777.739 646.052 777.926 646.723 778.301C647.393 778.67 647.913 779.222 648.283 779.955C648.652 780.687 648.837 781.594 648.837 782.673V791H646.288V782.98C646.288 782.031 646.041 781.29 645.547 780.756C645.052 780.216 644.374 779.946 643.51 779.946C642.919 779.946 642.393 780.074 641.933 780.33C641.479 780.585 641.118 780.96 640.851 781.455C640.589 781.943 640.459 782.534 640.459 783.227ZM654.346 783.227V791H651.798V777.909H654.244V780.04H654.406C654.707 779.347 655.179 778.79 655.821 778.369C656.469 777.949 657.284 777.739 658.267 777.739C659.159 777.739 659.94 777.926 660.611 778.301C661.281 778.67 661.801 779.222 662.17 779.955C662.54 780.687 662.724 781.594 662.724 782.673V791H660.176V782.98C660.176 782.031 659.929 781.29 659.435 780.756C658.94 780.216 658.261 779.946 657.398 779.946C656.807 779.946 656.281 780.074 655.821 780.33C655.366 780.585 655.006 780.96 654.739 781.455C654.477 781.943 654.346 782.534 654.346 783.227ZM671.328 791.264C670.038 791.264 668.927 790.989 667.996 790.438C667.069 789.881 666.354 789.099 665.848 788.094C665.348 787.082 665.098 785.898 665.098 784.54C665.098 783.199 665.348 782.017 665.848 780.994C666.354 779.972 667.058 779.173 667.962 778.599C668.871 778.026 669.933 777.739 671.149 777.739C671.888 777.739 672.604 777.861 673.297 778.105C673.99 778.349 674.612 778.733 675.163 779.256C675.714 779.778 676.149 780.457 676.467 781.293C676.785 782.122 676.944 783.131 676.944 784.318V785.222H666.538V783.312H674.447C674.447 782.642 674.311 782.048 674.038 781.531C673.765 781.009 673.382 780.597 672.888 780.295C672.399 779.994 671.825 779.844 671.166 779.844C670.45 779.844 669.825 780.02 669.291 780.372C668.763 780.719 668.354 781.173 668.064 781.736C667.78 782.293 667.638 782.898 667.638 783.551V785.043C667.638 785.918 667.791 786.662 668.098 787.276C668.41 787.889 668.845 788.358 669.402 788.682C669.959 789 670.609 789.159 671.354 789.159C671.837 789.159 672.277 789.091 672.675 788.955C673.072 788.812 673.416 788.602 673.706 788.324C673.996 788.045 674.217 787.702 674.371 787.293L676.783 787.727C676.589 788.437 676.243 789.06 675.743 789.594C675.248 790.122 674.626 790.534 673.876 790.83C673.132 791.119 672.283 791.264 671.328 791.264ZM684.83 791.264C683.563 791.264 682.472 790.977 681.557 790.403C680.648 789.824 679.949 789.026 679.461 788.009C678.972 786.991 678.728 785.827 678.728 784.514C678.728 783.185 678.978 782.011 679.478 780.994C679.978 779.972 680.682 779.173 681.591 778.599C682.501 778.026 683.572 777.739 684.805 777.739C685.799 777.739 686.685 777.923 687.464 778.293C688.242 778.656 688.87 779.168 689.347 779.827C689.83 780.486 690.117 781.256 690.208 782.136H687.728C687.591 781.523 687.279 780.994 686.79 780.551C686.307 780.108 685.66 779.886 684.847 779.886C684.137 779.886 683.515 780.074 682.981 780.449C682.452 780.818 682.04 781.347 681.745 782.034C681.449 782.716 681.302 783.523 681.302 784.455C681.302 785.409 681.447 786.233 681.736 786.926C682.026 787.619 682.435 788.156 682.964 788.537C683.498 788.918 684.126 789.108 684.847 789.108C685.33 789.108 685.768 789.02 686.16 788.844C686.557 788.662 686.89 788.403 687.157 788.068C687.43 787.733 687.62 787.33 687.728 786.858H690.208C690.117 787.705 689.841 788.46 689.381 789.125C688.921 789.79 688.305 790.312 687.532 790.693C686.765 791.074 685.864 791.264 684.83 791.264ZM698.588 777.909V779.955H691.437V777.909H698.588ZM693.355 774.773H695.903V787.156C695.903 787.651 695.977 788.023 696.125 788.273C696.273 788.517 696.463 788.685 696.696 788.776C696.934 788.861 697.193 788.903 697.471 788.903C697.676 788.903 697.855 788.889 698.008 788.861C698.162 788.832 698.281 788.81 698.366 788.793L698.826 790.898C698.679 790.955 698.469 791.011 698.196 791.068C697.923 791.131 697.582 791.165 697.173 791.17C696.503 791.182 695.878 791.062 695.298 790.812C694.719 790.562 694.25 790.176 693.892 789.653C693.534 789.131 693.355 788.474 693.355 787.685V774.773ZM700.951 791V777.909H703.499V791H700.951ZM702.238 775.889C701.795 775.889 701.414 775.741 701.096 775.446C700.783 775.145 700.627 774.787 700.627 774.372C700.627 773.952 700.783 773.594 701.096 773.298C701.414 772.997 701.795 772.847 702.238 772.847C702.681 772.847 703.059 772.997 703.371 773.298C703.689 773.594 703.848 773.952 703.848 774.372C703.848 774.787 703.689 775.145 703.371 775.446C703.059 775.741 702.681 775.889 702.238 775.889ZM711.986 791.264C710.758 791.264 709.687 790.983 708.772 790.42C707.858 789.858 707.147 789.071 706.642 788.06C706.136 787.048 705.883 785.866 705.883 784.514C705.883 783.156 706.136 781.969 706.642 780.952C707.147 779.935 707.858 779.145 708.772 778.582C709.687 778.02 710.758 777.739 711.986 777.739C713.213 777.739 714.284 778.02 715.199 778.582C716.113 779.145 716.824 779.935 717.329 780.952C717.835 781.969 718.088 783.156 718.088 784.514C718.088 785.866 717.835 787.048 717.329 788.06C716.824 789.071 716.113 789.858 715.199 790.42C714.284 790.983 713.213 791.264 711.986 791.264ZM711.994 789.125C712.789 789.125 713.449 788.915 713.971 788.494C714.494 788.074 714.88 787.514 715.13 786.815C715.386 786.116 715.514 785.347 715.514 784.506C715.514 783.67 715.386 782.903 715.13 782.205C714.88 781.5 714.494 780.935 713.971 780.509C713.449 780.082 712.789 779.869 711.994 779.869C711.193 779.869 710.528 780.082 710 780.509C709.477 780.935 709.088 781.5 708.832 782.205C708.582 782.903 708.457 783.67 708.457 784.506C708.457 785.347 708.582 786.116 708.832 786.815C709.088 787.514 709.477 788.074 710 788.494C710.528 788.915 711.193 789.125 711.994 789.125ZM723.025 783.227V791H720.476V777.909H722.922V780.04H723.084C723.385 779.347 723.857 778.79 724.499 778.369C725.147 777.949 725.962 777.739 726.945 777.739C727.837 777.739 728.618 777.926 729.289 778.301C729.959 778.67 730.479 779.222 730.848 779.955C731.218 780.687 731.402 781.594 731.402 782.673V791H728.854V782.98C728.854 782.031 728.607 781.29 728.113 780.756C727.618 780.216 726.939 779.946 726.076 779.946C725.485 779.946 724.959 780.074 724.499 780.33C724.044 780.585 723.684 780.96 723.417 781.455C723.155 781.943 723.025 782.534 723.025 783.227ZM750.069 781.105L747.76 781.514C747.663 781.219 747.51 780.937 747.299 780.67C747.095 780.403 746.816 780.185 746.464 780.014C746.112 779.844 745.671 779.759 745.143 779.759C744.421 779.759 743.819 779.92 743.336 780.244C742.853 780.562 742.612 780.974 742.612 781.48C742.612 781.918 742.774 782.27 743.098 782.537C743.421 782.804 743.944 783.023 744.666 783.193L746.745 783.67C747.95 783.949 748.848 784.378 749.439 784.957C750.029 785.537 750.325 786.29 750.325 787.216C750.325 788 750.098 788.699 749.643 789.312C749.194 789.92 748.566 790.398 747.76 790.744C746.958 791.091 746.029 791.264 744.973 791.264C743.507 791.264 742.311 790.952 741.385 790.327C740.458 789.696 739.89 788.801 739.68 787.642L742.143 787.267C742.296 787.909 742.612 788.395 743.089 788.724C743.566 789.048 744.189 789.21 744.956 789.21C745.791 789.21 746.458 789.037 746.958 788.69C747.458 788.338 747.708 787.909 747.708 787.403C747.708 786.994 747.555 786.651 747.248 786.372C746.947 786.094 746.484 785.884 745.859 785.741L743.643 785.256C742.421 784.977 741.518 784.534 740.933 783.926C740.353 783.318 740.064 782.548 740.064 781.616C740.064 780.844 740.279 780.168 740.711 779.588C741.143 779.009 741.74 778.557 742.501 778.233C743.262 777.903 744.135 777.739 745.118 777.739C746.532 777.739 747.646 778.045 748.458 778.659C749.271 779.267 749.808 780.082 750.069 781.105ZM758.782 777.909V779.955H751.631V777.909H758.782ZM753.549 774.773H756.097V787.156C756.097 787.651 756.171 788.023 756.318 788.273C756.466 788.517 756.657 788.685 756.89 788.776C757.128 788.861 757.387 788.903 757.665 788.903C757.87 788.903 758.049 788.889 758.202 788.861C758.355 788.832 758.475 788.81 758.56 788.793L759.02 790.898C758.872 790.955 758.662 791.011 758.39 791.068C758.117 791.131 757.776 791.165 757.367 791.17C756.696 791.182 756.071 791.062 755.492 790.812C754.912 790.562 754.443 790.176 754.086 789.653C753.728 789.131 753.549 788.474 753.549 787.685V774.773ZM764.954 791.29C764.125 791.29 763.375 791.136 762.704 790.83C762.034 790.517 761.502 790.065 761.11 789.474C760.724 788.884 760.531 788.159 760.531 787.301C760.531 786.562 760.673 785.955 760.957 785.477C761.241 785 761.625 784.622 762.108 784.344C762.59 784.065 763.13 783.855 763.727 783.713C764.323 783.571 764.931 783.463 765.551 783.389C766.335 783.298 766.971 783.224 767.46 783.168C767.948 783.105 768.304 783.006 768.525 782.869C768.747 782.733 768.858 782.511 768.858 782.205V782.145C768.858 781.401 768.647 780.824 768.227 780.415C767.812 780.006 767.193 779.801 766.369 779.801C765.511 779.801 764.835 779.991 764.34 780.372C763.852 780.747 763.514 781.165 763.326 781.625L760.931 781.08C761.215 780.284 761.63 779.642 762.176 779.153C762.727 778.659 763.36 778.301 764.076 778.08C764.792 777.852 765.545 777.739 766.335 777.739C766.858 777.739 767.411 777.801 767.997 777.926C768.588 778.045 769.139 778.267 769.65 778.591C770.167 778.915 770.59 779.378 770.92 779.98C771.25 780.577 771.414 781.352 771.414 782.307V791H768.926V789.21H768.823C768.659 789.54 768.411 789.864 768.082 790.182C767.752 790.5 767.329 790.764 766.812 790.974C766.295 791.185 765.676 791.29 764.954 791.29ZM765.508 789.244C766.213 789.244 766.815 789.105 767.315 788.827C767.821 788.548 768.204 788.185 768.465 787.736C768.733 787.281 768.866 786.795 768.866 786.278V784.591C768.775 784.682 768.599 784.767 768.338 784.847C768.082 784.92 767.789 784.986 767.46 785.043C767.13 785.094 766.809 785.142 766.497 785.188C766.184 785.227 765.923 785.261 765.713 785.29C765.218 785.352 764.767 785.457 764.358 785.605C763.954 785.753 763.63 785.966 763.386 786.244C763.147 786.517 763.028 786.881 763.028 787.335C763.028 787.966 763.261 788.443 763.727 788.767C764.193 789.085 764.786 789.244 765.508 789.244ZM780.463 777.909V779.955H773.313V777.909H780.463ZM775.23 774.773H777.779V787.156C777.779 787.651 777.853 788.023 778 788.273C778.148 788.517 778.338 788.685 778.571 788.776C778.81 788.861 779.068 788.903 779.347 788.903C779.551 788.903 779.73 788.889 779.884 788.861C780.037 788.832 780.156 788.81 780.242 788.793L780.702 790.898C780.554 790.955 780.344 791.011 780.071 791.068C779.799 791.131 779.458 791.165 779.049 791.17C778.378 791.182 777.753 791.062 777.174 790.812C776.594 790.562 776.125 790.176 775.767 789.653C775.409 789.131 775.23 788.474 775.23 787.685V774.773ZM791.119 785.571V777.909H793.676V791H791.17V788.733H791.034C790.732 789.432 790.249 790.014 789.585 790.48C788.926 790.94 788.105 791.17 787.122 791.17C786.281 791.17 785.536 790.986 784.889 790.616C784.247 790.241 783.741 789.688 783.372 788.955C783.008 788.222 782.826 787.315 782.826 786.236V777.909H785.374V785.929C785.374 786.821 785.622 787.531 786.116 788.06C786.61 788.588 787.252 788.852 788.042 788.852C788.519 788.852 788.994 788.733 789.465 788.494C789.943 788.256 790.338 787.895 790.65 787.412C790.968 786.929 791.124 786.315 791.119 785.571ZM806.453 781.105L804.144 781.514C804.047 781.219 803.894 780.937 803.683 780.67C803.479 780.403 803.2 780.185 802.848 780.014C802.496 779.844 802.056 779.759 801.527 779.759C800.806 779.759 800.203 779.92 799.72 780.244C799.237 780.562 798.996 780.974 798.996 781.48C798.996 781.918 799.158 782.27 799.482 782.537C799.806 782.804 800.328 783.023 801.05 783.193L803.129 783.67C804.334 783.949 805.232 784.378 805.823 784.957C806.414 785.537 806.709 786.29 806.709 787.216C806.709 788 806.482 788.699 806.027 789.312C805.578 789.92 804.95 790.398 804.144 790.744C803.342 791.091 802.414 791.264 801.357 791.264C799.891 791.264 798.695 790.952 797.769 790.327C796.842 789.696 796.274 788.801 796.064 787.642L798.527 787.267C798.681 787.909 798.996 788.395 799.473 788.724C799.95 789.048 800.573 789.21 801.34 789.21C802.175 789.21 802.842 789.037 803.342 788.69C803.842 788.338 804.092 787.909 804.092 787.403C804.092 786.994 803.939 786.651 803.632 786.372C803.331 786.094 802.868 785.884 802.243 785.741L800.027 785.256C798.806 784.977 797.902 784.534 797.317 783.926C796.737 783.318 796.448 782.548 796.448 781.616C796.448 780.844 796.664 780.168 797.095 779.588C797.527 779.009 798.124 778.557 798.885 778.233C799.646 777.903 800.519 777.739 801.502 777.739C802.916 777.739 804.03 778.045 804.842 778.659C805.655 779.267 806.192 780.082 806.453 781.105Z" fill="#1E1E1E"/>
<rect x="40" y="4" width="93.5938" height="30" rx="3" fill="#FBFBFB"/>
<rect x="40.5" y="4.5" width="92.5938" height="29" rx="2.5" stroke="black" stroke-opacity="0.2"/>
<path d="M49.5313 22.1094C49.0156 22.1094 48.556 22.0208 48.1523 21.8437C47.7513 21.6667 47.4323 21.4206 47.1953 21.1055C46.9609 20.7878 46.8333 20.4193 46.8125 20H47.7969C47.8177 20.2578 47.9063 20.4805 48.0625 20.668C48.2188 20.8529 48.4232 20.9961 48.6758 21.0977C48.9284 21.1992 49.2083 21.25 49.5156 21.25C49.8594 21.25 50.1641 21.1901 50.4297 21.0703C50.6953 20.9505 50.9036 20.7839 51.0547 20.5703C51.2057 20.3568 51.2813 20.1094 51.2813 19.8281C51.2813 19.5339 51.2083 19.2747 51.0625 19.0508C50.9167 18.8242 50.7031 18.6471 50.4219 18.5195C50.1406 18.3919 49.7969 18.3281 49.3906 18.3281H48.75V17.4687H49.3906C49.7083 17.4687 49.987 17.4115 50.2266 17.2969C50.4688 17.1823 50.6576 17.0208 50.793 16.8125C50.931 16.6042 51 16.3594 51 16.0781C51 15.8073 50.9401 15.5716 50.8203 15.3711C50.7005 15.1706 50.5313 15.0143 50.3125 14.9023C50.0964 14.7904 49.8411 14.7344 49.5469 14.7344C49.2708 14.7344 49.0104 14.7852 48.7656 14.8867C48.5234 14.9857 48.3255 15.1302 48.1719 15.3203C48.0182 15.5078 47.9349 15.7344 47.9219 16H46.9844C47 15.5807 47.1263 15.2135 47.3633 14.8984C47.6003 14.5807 47.9102 14.3333 48.293 14.1562C48.6784 13.9792 49.1016 13.8906 49.5625 13.8906C50.0573 13.8906 50.4818 13.9909 50.8359 14.1914C51.1901 14.3893 51.4622 14.651 51.6523 14.9766C51.8424 15.3021 51.9375 15.6536 51.9375 16.0313C51.9375 16.4818 51.819 16.8659 51.582 17.1836C51.3477 17.5013 51.0286 17.7214 50.625 17.8438V17.9062C51.1302 17.9896 51.5247 18.2044 51.8086 18.5508C52.0924 18.8945 52.2344 19.3203 52.2344 19.8281C52.2344 20.263 52.1159 20.6536 51.8789 21C51.6445 21.3437 51.3242 21.6146 50.918 21.8125C50.5117 22.0104 50.0495 22.1094 49.5313 22.1094ZM54.2725 22.0625C54.0798 22.0625 53.9144 21.9935 53.7764 21.8555C53.6383 21.7174 53.5693 21.5521 53.5693 21.3594C53.5693 21.1667 53.6383 21.0013 53.7764 20.8633C53.9144 20.7253 54.0798 20.6562 54.2725 20.6562C54.4652 20.6562 54.6305 20.7253 54.7686 20.8633C54.9066 21.0013 54.9756 21.1667 54.9756 21.3594C54.9756 21.487 54.943 21.6042 54.8779 21.7109C54.8154 21.8177 54.7308 21.9036 54.624 21.9687C54.5199 22.0313 54.4027 22.0625 54.2725 22.0625ZM59.8486 14H61.0049L63.7236 20.6406H63.8174L66.5361 14H67.6924V22H66.7861V15.9219H66.708L64.208 22H63.333L60.833 15.9219H60.7549V22H59.8486V14ZM72.0254 22.125C71.4473 22.125 70.9486 21.9974 70.5293 21.7422C70.1126 21.4844 69.791 21.125 69.5645 20.6641C69.3405 20.2005 69.2285 19.6615 69.2285 19.0469C69.2285 18.4323 69.3405 17.8906 69.5645 17.4219C69.791 16.9505 70.1061 16.5833 70.5098 16.3203C70.916 16.0547 71.39 15.9219 71.9316 15.9219C72.2441 15.9219 72.5527 15.974 72.8574 16.0781C73.1621 16.1823 73.4395 16.3516 73.6895 16.5859C73.9395 16.8177 74.1387 17.125 74.2871 17.5078C74.4355 17.8906 74.5098 18.362 74.5098 18.9219V19.3125H69.8848V18.5156H73.5723C73.5723 18.1771 73.5046 17.875 73.3691 17.6094C73.2363 17.3437 73.0462 17.1341 72.7988 16.9805C72.554 16.8268 72.265 16.75 71.9316 16.75C71.5645 16.75 71.2467 16.8411 70.9785 17.0234C70.7129 17.2031 70.5085 17.4375 70.3652 17.7266C70.222 18.0156 70.1504 18.3255 70.1504 18.6562V19.1875C70.1504 19.6406 70.2285 20.0247 70.3848 20.3398C70.5436 20.6523 70.7637 20.8906 71.0449 21.0547C71.3262 21.2161 71.653 21.2969 72.0254 21.2969C72.2676 21.2969 72.4863 21.263 72.6816 21.1953C72.8796 21.125 73.0501 21.0208 73.1934 20.8828C73.3366 20.7422 73.4473 20.5677 73.5254 20.3594L74.416 20.6094C74.3223 20.9115 74.1647 21.1771 73.9434 21.4062C73.722 21.6328 73.4486 21.8099 73.123 21.9375C72.7975 22.0625 72.4316 22.125 72.0254 22.125ZM78.5215 16V16.7812H75.4121V16H78.5215ZM76.3184 14.5625H77.2402V20.2812C77.2402 20.5417 77.278 20.737 77.3535 20.8672C77.4316 20.9948 77.5306 21.0807 77.6504 21.125C77.7728 21.1667 77.9017 21.1875 78.0371 21.1875C78.1387 21.1875 78.222 21.1823 78.2871 21.1719C78.3522 21.1589 78.4043 21.1484 78.4434 21.1406L78.6309 21.9687C78.5684 21.9922 78.4811 22.0156 78.3691 22.0391C78.2572 22.0651 78.1152 22.0781 77.9434 22.0781C77.6829 22.0781 77.4277 22.0221 77.1777 21.9102C76.9303 21.7982 76.7246 21.6276 76.5605 21.3984C76.3991 21.1693 76.3184 20.8802 76.3184 20.5312V14.5625ZM82.3594 22.125C81.7813 22.125 81.2826 21.9974 80.8633 21.7422C80.4466 21.4844 80.125 21.125 79.8984 20.6641C79.6745 20.2005 79.5625 19.6615 79.5625 19.0469C79.5625 18.4323 79.6745 17.8906 79.8984 17.4219C80.125 16.9505 80.4401 16.5833 80.8438 16.3203C81.25 16.0547 81.724 15.9219 82.2656 15.9219C82.5781 15.9219 82.8867 15.974 83.1914 16.0781C83.4961 16.1823 83.7734 16.3516 84.0234 16.5859C84.2734 16.8177 84.4727 17.125 84.6211 17.5078C84.7695 17.8906 84.8438 18.362 84.8438 18.9219V19.3125H80.2188V18.5156H83.9063C83.9063 18.1771 83.8385 17.875 83.7031 17.6094C83.5703 17.3437 83.3802 17.1341 83.1328 16.9805C82.888 16.8268 82.599 16.75 82.2656 16.75C81.8984 16.75 81.5807 16.8411 81.3125 17.0234C81.0469 17.2031 80.8424 17.4375 80.6992 17.7266C80.556 18.0156 80.4844 18.3255 80.4844 18.6562V19.1875C80.4844 19.6406 80.5625 20.0247 80.7188 20.3398C80.8776 20.6523 81.0977 20.8906 81.3789 21.0547C81.6602 21.2161 81.987 21.2969 82.3594 21.2969C82.6016 21.2969 82.8203 21.263 83.0156 21.1953C83.2135 21.125 83.3841 21.0208 83.5273 20.8828C83.6706 20.7422 83.7813 20.5677 83.8594 20.3594L84.75 20.6094C84.6563 20.9115 84.4987 21.1771 84.2773 21.4062C84.056 21.6328 83.7826 21.8099 83.457 21.9375C83.1315 22.0625 82.7656 22.125 82.3594 22.125ZM86.2461 22V16H87.1367V16.9062H87.1992C87.3086 16.6094 87.5065 16.3685 87.793 16.1836C88.0794 15.9987 88.4023 15.9062 88.7617 15.9062C88.8294 15.9062 88.9141 15.9076 89.0156 15.9102C89.1172 15.9128 89.194 15.9167 89.2461 15.9219V16.8594C89.2148 16.8516 89.1432 16.8398 89.0313 16.8242C88.9219 16.806 88.806 16.7969 88.6836 16.7969C88.3919 16.7969 88.1315 16.8581 87.9023 16.9805C87.6758 17.1003 87.4961 17.2669 87.3633 17.4805C87.2331 17.6914 87.168 17.9323 87.168 18.2031V22H86.2461ZM94.5889 17.3437L93.7607 17.5781C93.7087 17.4401 93.6318 17.306 93.5303 17.1758C93.4313 17.043 93.2959 16.9336 93.124 16.8477C92.9521 16.7617 92.7321 16.7187 92.4639 16.7187C92.0967 16.7187 91.7907 16.8034 91.5459 16.9727C91.3037 17.1393 91.1826 17.3516 91.1826 17.6094C91.1826 17.8385 91.266 18.0195 91.4326 18.1523C91.5993 18.2852 91.8597 18.3958 92.2139 18.4844L93.1045 18.7031C93.641 18.8333 94.0407 19.0326 94.3037 19.3008C94.5667 19.5664 94.6982 19.9089 94.6982 20.3281C94.6982 20.6719 94.5993 20.9792 94.4014 21.25C94.2061 21.5208 93.9326 21.7344 93.5811 21.8906C93.2295 22.0469 92.8206 22.125 92.3545 22.125C91.7425 22.125 91.236 21.9922 90.835 21.7266C90.4339 21.4609 90.18 21.0729 90.0732 20.5625L90.9482 20.3437C91.0316 20.6667 91.1891 20.9089 91.4209 21.0703C91.6553 21.2318 91.9613 21.3125 92.3389 21.3125C92.7686 21.3125 93.1097 21.2214 93.3623 21.0391C93.6175 20.8542 93.7451 20.6328 93.7451 20.375C93.7451 20.1667 93.6722 19.9922 93.5264 19.8516C93.3805 19.7083 93.1566 19.6016 92.8545 19.5312L91.8545 19.2969C91.305 19.1667 90.9014 18.9648 90.6436 18.6914C90.3883 18.4154 90.2607 18.0703 90.2607 17.6562C90.2607 17.3177 90.3558 17.0182 90.5459 16.7578C90.7386 16.4974 91.0003 16.293 91.3311 16.1445C91.6644 15.9961 92.042 15.9219 92.4639 15.9219C93.0576 15.9219 93.5238 16.0521 93.8623 16.3125C94.2035 16.5729 94.4456 16.9167 94.5889 17.3437ZM103.43 17.3437L102.602 17.5781C102.549 17.4401 102.473 17.306 102.371 17.1758C102.272 17.043 102.137 16.9336 101.965 16.8477C101.793 16.7617 101.573 16.7187 101.305 16.7187C100.938 16.7187 100.632 16.8034 100.387 16.9727C100.145 17.1393 100.023 17.3516 100.023 17.6094C100.023 17.8385 100.107 18.0195 100.273 18.1523C100.44 18.2852 100.701 18.3958 101.055 18.4844L101.945 18.7031C102.482 18.8333 102.882 19.0326 103.145 19.3008C103.408 19.5664 103.539 19.9089 103.539 20.3281C103.539 20.6719 103.44 20.9792 103.242 21.25C103.047 21.5208 102.773 21.7344 102.422 21.8906C102.07 22.0469 101.661 22.125 101.195 22.125C100.583 22.125 100.077 21.9922 99.6758 21.7266C99.2747 21.4609 99.0208 21.0729 98.9141 20.5625L99.7891 20.3437C99.8724 20.6667 100.03 20.9089 100.262 21.0703C100.496 21.2318 100.802 21.3125 101.18 21.3125C101.609 21.3125 101.951 21.2214 102.203 21.0391C102.458 20.8542 102.586 20.6328 102.586 20.375C102.586 20.1667 102.513 19.9922 102.367 19.8516C102.221 19.7083 101.997 19.6016 101.695 19.5312L100.695 19.2969C100.146 19.1667 99.7422 18.9648 99.4844 18.6914C99.2292 18.4154 99.1016 18.0703 99.1016 17.6562C99.1016 17.3177 99.1966 17.0182 99.3867 16.7578C99.5794 16.4974 99.8411 16.293 100.172 16.1445C100.505 15.9961 100.883 15.9219 101.305 15.9219C101.898 15.9219 102.365 16.0521 102.703 16.3125C103.044 16.5729 103.286 16.9167 103.43 17.3437ZM107.442 22.125C106.864 22.125 106.366 21.9974 105.946 21.7422C105.53 21.4844 105.208 21.125 104.981 20.6641C104.757 20.2005 104.646 19.6615 104.646 19.0469C104.646 18.4323 104.757 17.8906 104.981 17.4219C105.208 16.9505 105.523 16.5833 105.927 16.3203C106.333 16.0547 106.807 15.9219 107.349 15.9219C107.661 15.9219 107.97 15.974 108.274 16.0781C108.579 16.1823 108.856 16.3516 109.106 16.5859C109.356 16.8177 109.556 17.125 109.704 17.5078C109.853 17.8906 109.927 18.362 109.927 18.9219V19.3125H105.302V18.5156H108.989C108.989 18.1771 108.922 17.875 108.786 17.6094C108.653 17.3437 108.463 17.1341 108.216 16.9805C107.971 16.8268 107.682 16.75 107.349 16.75C106.981 16.75 106.664 16.8411 106.396 17.0234C106.13 17.2031 105.925 17.4375 105.782 17.7266C105.639 18.0156 105.567 18.3255 105.567 18.6562V19.1875C105.567 19.6406 105.646 20.0247 105.802 20.3398C105.961 20.6523 106.181 20.8906 106.462 21.0547C106.743 21.2161 107.07 21.2969 107.442 21.2969C107.685 21.2969 107.903 21.263 108.099 21.1953C108.297 21.125 108.467 21.0208 108.61 20.8828C108.754 20.7422 108.864 20.5677 108.942 20.3594L109.833 20.6094C109.739 20.9115 109.582 21.1771 109.36 21.4062C109.139 21.6328 108.866 21.8099 108.54 21.9375C108.215 22.0625 107.849 22.125 107.442 22.125ZM113.938 16V16.7812H110.829V16H113.938ZM111.735 14.5625H112.657V20.2812C112.657 20.5417 112.695 20.737 112.771 20.8672C112.849 20.9948 112.948 21.0807 113.067 21.125C113.19 21.1667 113.319 21.1875 113.454 21.1875C113.556 21.1875 113.639 21.1823 113.704 21.1719C113.769 21.1589 113.821 21.1484 113.86 21.1406L114.048 21.9687C113.985 21.9922 113.898 22.0156 113.786 22.0391C113.674 22.0651 113.532 22.0781 113.36 22.0781C113.1 22.0781 112.845 22.0221 112.595 21.9102C112.347 21.7982 112.142 21.6276 111.978 21.3984C111.816 21.1693 111.735 20.8802 111.735 20.5312V14.5625ZM119.106 19.5469V16H120.028V22H119.106V20.9844H119.044C118.903 21.2891 118.685 21.5482 118.388 21.7617C118.091 21.9727 117.716 22.0781 117.263 22.0781C116.888 22.0781 116.554 21.9961 116.263 21.832C115.971 21.6654 115.742 21.4154 115.575 21.082C115.409 20.7461 115.325 20.3229 115.325 19.8125V16H116.247V19.75C116.247 20.1875 116.369 20.5365 116.614 20.7969C116.862 21.0573 117.177 21.1875 117.56 21.1875C117.789 21.1875 118.022 21.1289 118.259 21.0117C118.498 20.8945 118.699 20.7148 118.86 20.4727C119.024 20.2305 119.106 19.9219 119.106 19.5469ZM121.717 24.25V16H122.607V16.9531H122.717C122.785 16.849 122.878 16.7161 122.998 16.5547C123.12 16.3906 123.295 16.2448 123.521 16.1172C123.751 15.987 124.061 15.9219 124.451 15.9219C124.956 15.9219 125.402 16.0482 125.787 16.3008C126.173 16.5534 126.473 16.9115 126.689 17.375C126.906 17.8385 127.014 18.3854 127.014 19.0156C127.014 19.651 126.906 20.2018 126.689 20.668C126.473 21.1315 126.174 21.4909 125.791 21.7461C125.408 21.9987 124.967 22.125 124.467 22.125C124.081 22.125 123.773 22.0612 123.541 21.9336C123.309 21.8034 123.131 21.6562 123.006 21.4922C122.881 21.3255 122.785 21.1875 122.717 21.0781H122.639V24.25H121.717ZM122.623 19C122.623 19.4531 122.689 19.8529 122.822 20.1992C122.955 20.543 123.149 20.8125 123.404 21.0078C123.66 21.2005 123.972 21.2969 124.342 21.2969C124.727 21.2969 125.049 21.1953 125.307 20.9922C125.567 20.7865 125.762 20.5104 125.893 20.1641C126.025 19.8151 126.092 19.4271 126.092 19C126.092 18.5781 126.027 18.1979 125.896 17.8594C125.769 17.5182 125.575 17.2487 125.314 17.0508C125.057 16.8503 124.732 16.75 124.342 16.75C123.967 16.75 123.652 16.8451 123.396 17.0352C123.141 17.2227 122.949 17.4857 122.818 17.8242C122.688 18.1602 122.623 18.5521 122.623 19Z" fill="black"/>
</svg>
