<svg width="364" height="644" viewBox="0 0 364 644" fill="none" xmlns="http://www.w3.org/2000/svg">
<rect x="1" y="1" width="362" height="642" rx="17" fill="white"/>
<rect x="1" y="1" width="362" height="642" rx="17" stroke="black" stroke-width="2"/>
<g clip-path="url(#clip0_553_3148)">
<path d="M41.375 25.6797H38.4922L38.4766 24.4688H41.0938C41.526 24.4688 41.9036 24.3958 42.2266 24.25C42.5495 24.1042 42.7995 23.8958 42.9766 23.625C43.1589 23.349 43.25 23.0208 43.25 22.6406C43.25 22.224 43.1693 21.8854 43.0078 21.625C42.8516 21.3594 42.6094 21.1667 42.2812 21.0469C41.9583 20.9219 41.5469 20.8594 41.0469 20.8594H38.8281V31H37.3203V19.625H41.0469C41.6302 19.625 42.151 19.6849 42.6094 19.8047C43.0677 19.9193 43.4557 20.1016 43.7734 20.3516C44.0964 20.5964 44.3411 20.9089 44.5078 21.2891C44.6745 21.6693 44.7578 22.125 44.7578 22.6562C44.7578 23.125 44.638 23.5495 44.3984 23.9297C44.1589 24.3047 43.8255 24.612 43.3984 24.8516C42.9766 25.0911 42.4818 25.2448 41.9141 25.3125L41.375 25.6797ZM41.3047 31H37.8984L38.75 29.7734H41.3047C41.7839 29.7734 42.1901 29.6901 42.5234 29.5234C42.862 29.3568 43.1198 29.1224 43.2969 28.8203C43.474 28.513 43.5625 28.151 43.5625 27.7344C43.5625 27.3125 43.487 26.9479 43.3359 26.6406C43.1849 26.3333 42.9479 26.0964 42.625 25.9297C42.3021 25.763 41.8854 25.6797 41.375 25.6797H39.2266L39.2422 24.4688H42.1797L42.5 24.9062C43.0469 24.9531 43.5104 25.1094 43.8906 25.375C44.2708 25.6354 44.5599 25.9688 44.7578 26.375C44.9609 26.7812 45.0625 27.2292 45.0625 27.7188C45.0625 28.4271 44.9062 29.026 44.5938 29.5156C44.2865 30 43.8516 30.3698 43.2891 30.625C42.7266 30.875 42.0651 31 41.3047 31ZM52.0547 29.5547V25.2031C52.0547 24.8698 51.987 24.5807 51.8516 24.3359C51.7214 24.0859 51.5234 23.8932 51.2578 23.7578C50.9922 23.6224 50.6641 23.5547 50.2734 23.5547C49.9089 23.5547 49.5885 23.6172 49.3125 23.7422C49.0417 23.8672 48.8281 24.0312 48.6719 24.2344C48.5208 24.4375 48.4453 24.6562 48.4453 24.8906H47C47 24.5885 47.0781 24.2891 47.2344 23.9922C47.3906 23.6953 47.6146 23.4271 47.9062 23.1875C48.2031 22.9427 48.5573 22.75 48.9688 22.6094C49.3854 22.4635 49.849 22.3906 50.3594 22.3906C50.974 22.3906 51.5156 22.4948 51.9844 22.7031C52.4583 22.9115 52.8281 23.2266 53.0938 23.6484C53.3646 24.0651 53.5 24.5885 53.5 25.2188V29.1562C53.5 29.4375 53.5234 29.737 53.5703 30.0547C53.6224 30.3724 53.6979 30.6458 53.7969 30.875V31H52.2891C52.2161 30.8333 52.1589 30.612 52.1172 30.3359C52.0755 30.0547 52.0547 29.7943 52.0547 29.5547ZM52.3047 25.875L52.3203 26.8906H50.8594C50.4479 26.8906 50.0807 26.9245 49.7578 26.9922C49.4349 27.0547 49.1641 27.151 48.9453 27.2812C48.7266 27.4115 48.5599 27.5755 48.4453 27.7734C48.3307 27.9661 48.2734 28.1927 48.2734 28.4531C48.2734 28.7188 48.3333 28.9609 48.4531 29.1797C48.5729 29.3984 48.7526 29.5729 48.9922 29.7031C49.237 29.8281 49.5365 29.8906 49.8906 29.8906C50.3333 29.8906 50.724 29.7969 51.0625 29.6094C51.401 29.4219 51.6693 29.1927 51.8672 28.9219C52.0703 28.651 52.1797 28.388 52.1953 28.1328L52.8125 28.8281C52.776 29.0469 52.6771 29.2891 52.5156 29.5547C52.3542 29.8203 52.138 30.0755 51.8672 30.3203C51.6016 30.5599 51.2839 30.7604 50.9141 30.9219C50.5495 31.0781 50.138 31.1562 49.6797 31.1562C49.1068 31.1562 48.6042 31.0443 48.1719 30.8203C47.7448 30.5964 47.4115 30.2969 47.1719 29.9219C46.9375 29.5417 46.8203 29.1172 46.8203 28.6484C46.8203 28.1953 46.9089 27.7969 47.0859 27.4531C47.263 27.1042 47.5182 26.8151 47.8516 26.5859C48.1849 26.3516 48.5859 26.1745 49.0547 26.0547C49.5234 25.9349 50.0469 25.875 50.625 25.875H52.3047ZM59.1562 29.9688C59.5 29.9688 59.8177 29.8984 60.1094 29.7578C60.401 29.6172 60.6406 29.4245 60.8281 29.1797C61.0156 28.9297 61.1224 28.6458 61.1484 28.3281H62.5234C62.4974 28.8281 62.3281 29.2943 62.0156 29.7266C61.7083 30.1536 61.3047 30.5 60.8047 30.7656C60.3047 31.026 59.7552 31.1562 59.1562 31.1562C58.5208 31.1562 57.9661 31.0443 57.4922 30.8203C57.0234 30.5964 56.6328 30.2891 56.3203 29.8984C56.013 29.5078 55.7812 29.0599 55.625 28.5547C55.474 28.0443 55.3984 27.5052 55.3984 26.9375V26.6094C55.3984 26.0417 55.474 25.5052 55.625 25C55.7812 24.4896 56.013 24.0391 56.3203 23.6484C56.6328 23.2578 57.0234 22.9505 57.4922 22.7266C57.9661 22.5026 58.5208 22.3906 59.1562 22.3906C59.8177 22.3906 60.3958 22.526 60.8906 22.7969C61.3854 23.0625 61.7734 23.4271 62.0547 23.8906C62.3411 24.349 62.4974 24.8698 62.5234 25.4531H61.1484C61.1224 25.1042 61.0234 24.7891 60.8516 24.5078C60.6849 24.2266 60.4557 24.0026 60.1641 23.8359C59.8776 23.6641 59.5417 23.5781 59.1562 23.5781C58.7135 23.5781 58.3411 23.6667 58.0391 23.8438C57.7422 24.0156 57.5052 24.25 57.3281 24.5469C57.1562 24.8385 57.0312 25.1641 56.9531 25.5234C56.8802 25.8776 56.8438 26.2396 56.8438 26.6094V26.9375C56.8438 27.3073 56.8802 27.6719 56.9531 28.0312C57.026 28.3906 57.1484 28.7161 57.3203 29.0078C57.4974 29.2995 57.7344 29.5339 58.0312 29.7109C58.3333 29.8828 58.7083 29.9688 59.1562 29.9688ZM65.6016 19V31H64.1484V19H65.6016ZM70.7656 22.5469L67.0781 26.4922L65.0156 28.6328L64.8984 27.0938L66.375 25.3281L69 22.5469H70.7656ZM69.4453 31L66.4297 26.9688L67.1797 25.6797L71.1484 31H69.4453Z" fill="#272323"/>
<path d="M292.477 28.7578C292.477 28.5495 292.43 28.3568 292.336 28.1797C292.247 27.9974 292.062 27.8333 291.781 27.6875C291.505 27.5365 291.089 27.4062 290.531 27.2969C290.062 27.1979 289.638 27.0807 289.258 26.9453C288.883 26.8099 288.562 26.6458 288.297 26.4531C288.036 26.2604 287.836 26.0339 287.695 25.7734C287.555 25.513 287.484 25.2083 287.484 24.8594C287.484 24.526 287.557 24.2109 287.703 23.9141C287.854 23.6172 288.065 23.3542 288.336 23.125C288.612 22.8958 288.943 22.7161 289.328 22.5859C289.714 22.4557 290.143 22.3906 290.617 22.3906C291.294 22.3906 291.872 22.5104 292.352 22.75C292.831 22.9896 293.198 23.3099 293.453 23.7109C293.708 24.1068 293.836 24.5469 293.836 25.0312H292.391C292.391 24.7969 292.32 24.5703 292.18 24.3516C292.044 24.1276 291.844 23.9427 291.578 23.7969C291.318 23.651 290.997 23.5781 290.617 23.5781C290.216 23.5781 289.891 23.6406 289.641 23.7656C289.396 23.8854 289.216 24.0391 289.102 24.2266C288.992 24.4141 288.938 24.612 288.938 24.8203C288.938 24.9766 288.964 25.1172 289.016 25.2422C289.073 25.362 289.172 25.474 289.312 25.5781C289.453 25.6771 289.651 25.7708 289.906 25.8594C290.161 25.9479 290.487 26.0365 290.883 26.125C291.576 26.2812 292.146 26.4688 292.594 26.6875C293.042 26.9062 293.375 27.1745 293.594 27.4922C293.812 27.8099 293.922 28.1953 293.922 28.6484C293.922 29.0182 293.844 29.3568 293.688 29.6641C293.536 29.9714 293.315 30.237 293.023 30.4609C292.737 30.6797 292.393 30.8516 291.992 30.9766C291.596 31.0964 291.151 31.1562 290.656 31.1562C289.911 31.1562 289.281 31.0234 288.766 30.7578C288.25 30.4922 287.859 30.1484 287.594 29.7266C287.328 29.3047 287.195 28.8594 287.195 28.3906H288.648C288.669 28.7865 288.784 29.1016 288.992 29.3359C289.201 29.5651 289.456 29.7292 289.758 29.8281C290.06 29.9219 290.359 29.9688 290.656 29.9688C291.052 29.9688 291.383 29.9167 291.648 29.8125C291.919 29.7083 292.125 29.5651 292.266 29.3828C292.406 29.2005 292.477 28.9922 292.477 28.7578ZM299.359 22.5469V23.6562H294.789V22.5469H299.359ZM296.336 20.4922H297.781V28.9062C297.781 29.1927 297.826 29.4089 297.914 29.5547C298.003 29.7005 298.117 29.7969 298.258 29.8438C298.398 29.8906 298.549 29.9141 298.711 29.9141C298.831 29.9141 298.956 29.9036 299.086 29.8828C299.221 29.8568 299.323 29.8359 299.391 29.8203L299.398 31C299.284 31.0365 299.133 31.0703 298.945 31.1016C298.763 31.138 298.542 31.1562 298.281 31.1562C297.927 31.1562 297.602 31.0859 297.305 30.9453C297.008 30.8047 296.771 30.5703 296.594 30.2422C296.422 29.9089 296.336 29.4609 296.336 28.8984V20.4922ZM304.562 31.1562C303.974 31.1562 303.44 31.0573 302.961 30.8594C302.487 30.6562 302.078 30.3724 301.734 30.0078C301.396 29.6432 301.135 29.2109 300.953 28.7109C300.771 28.2109 300.68 27.6641 300.68 27.0703V26.7422C300.68 26.0547 300.781 25.4427 300.984 24.9062C301.188 24.3646 301.464 23.9062 301.812 23.5312C302.161 23.1562 302.557 22.8724 303 22.6797C303.443 22.487 303.901 22.3906 304.375 22.3906C304.979 22.3906 305.5 22.4948 305.938 22.7031C306.38 22.9115 306.742 23.2031 307.023 23.5781C307.305 23.9479 307.513 24.3854 307.648 24.8906C307.784 25.3906 307.852 25.9375 307.852 26.5312V27.1797H301.539V26H306.406V25.8906C306.385 25.5156 306.307 25.151 306.172 24.7969C306.042 24.4427 305.833 24.151 305.547 23.9219C305.26 23.6927 304.87 23.5781 304.375 23.5781C304.047 23.5781 303.745 23.6484 303.469 23.7891C303.193 23.9245 302.956 24.1276 302.758 24.3984C302.56 24.6693 302.406 25 302.297 25.3906C302.188 25.7812 302.133 26.2318 302.133 26.7422V27.0703C302.133 27.4714 302.188 27.849 302.297 28.2031C302.411 28.5521 302.576 28.8594 302.789 29.125C303.008 29.3906 303.271 29.599 303.578 29.75C303.891 29.901 304.245 29.9766 304.641 29.9766C305.151 29.9766 305.583 29.8724 305.938 29.6641C306.292 29.4557 306.602 29.1771 306.867 28.8281L307.742 29.5234C307.56 29.7995 307.328 30.0625 307.047 30.3125C306.766 30.5625 306.419 30.7656 306.008 30.9219C305.602 31.0781 305.12 31.1562 304.562 31.1562ZM310.984 24.1719V34.25H309.531V22.5469H310.859L310.984 24.1719ZM316.68 26.7031V26.8672C316.68 27.4818 316.607 28.0521 316.461 28.5781C316.315 29.099 316.102 29.5521 315.82 29.9375C315.544 30.3229 315.203 30.6224 314.797 30.8359C314.391 31.0495 313.924 31.1562 313.398 31.1562C312.862 31.1562 312.388 31.0677 311.977 30.8906C311.565 30.7135 311.216 30.4557 310.93 30.1172C310.643 29.7786 310.414 29.3724 310.242 28.8984C310.076 28.4245 309.961 27.8906 309.898 27.2969V26.4219C309.961 25.7969 310.078 25.237 310.25 24.7422C310.422 24.2474 310.648 23.8255 310.93 23.4766C311.216 23.1224 311.562 22.8542 311.969 22.6719C312.375 22.4844 312.844 22.3906 313.375 22.3906C313.906 22.3906 314.378 22.4948 314.789 22.7031C315.201 22.9062 315.547 23.1979 315.828 23.5781C316.109 23.9583 316.32 24.4141 316.461 24.9453C316.607 25.4714 316.68 26.0573 316.68 26.7031ZM315.227 26.8672V26.7031C315.227 26.2812 315.182 25.8854 315.094 25.5156C315.005 25.1406 314.867 24.8125 314.68 24.5312C314.497 24.2448 314.263 24.0208 313.977 23.8594C313.69 23.6927 313.349 23.6094 312.953 23.6094C312.589 23.6094 312.271 23.6719 312 23.7969C311.734 23.9219 311.508 24.0911 311.32 24.3047C311.133 24.513 310.979 24.7526 310.859 25.0234C310.745 25.2891 310.659 25.5651 310.602 25.8516V27.875C310.706 28.2396 310.852 28.5833 311.039 28.9062C311.227 29.224 311.477 29.4818 311.789 29.6797C312.102 29.8724 312.495 29.9688 312.969 29.9688C313.359 29.9688 313.695 29.888 313.977 29.7266C314.263 29.5599 314.497 29.3333 314.68 29.0469C314.867 28.7604 315.005 28.4323 315.094 28.0625C315.182 27.6875 315.227 27.2891 315.227 26.8672ZM329.789 29.8125V31H322.344V29.9609L326.07 25.8125C326.529 25.3021 326.883 24.8698 327.133 24.5156C327.388 24.1562 327.565 23.8359 327.664 23.5547C327.768 23.2682 327.82 22.9766 327.82 22.6797C327.82 22.3047 327.742 21.9661 327.586 21.6641C327.435 21.3568 327.211 21.112 326.914 20.9297C326.617 20.7474 326.258 20.6562 325.836 20.6562C325.331 20.6562 324.909 20.7552 324.57 20.9531C324.237 21.1458 323.987 21.4167 323.82 21.7656C323.654 22.1146 323.57 22.5156 323.57 22.9688H322.125C322.125 22.3281 322.266 21.7422 322.547 21.2109C322.828 20.6797 323.245 20.2578 323.797 19.9453C324.349 19.6276 325.029 19.4688 325.836 19.4688C326.555 19.4688 327.169 19.5964 327.68 19.8516C328.19 20.1016 328.581 20.4557 328.852 20.9141C329.128 21.3672 329.266 21.8984 329.266 22.5078C329.266 22.8411 329.208 23.1797 329.094 23.5234C328.984 23.862 328.831 24.2005 328.633 24.5391C328.44 24.8776 328.214 25.2109 327.953 25.5391C327.698 25.8672 327.424 26.1901 327.133 26.5078L324.086 29.8125H329.789ZM336.523 19.625L331.781 31.9766H330.539L335.289 19.625H336.523ZM339.383 29.7891H339.531C340.365 29.7891 341.042 29.6719 341.562 29.4375C342.083 29.2031 342.484 28.888 342.766 28.4922C343.047 28.0964 343.24 27.651 343.344 27.1562C343.448 26.6562 343.5 26.1432 343.5 25.6172V23.875C343.5 23.3594 343.44 22.901 343.32 22.5C343.206 22.099 343.044 21.763 342.836 21.4922C342.633 21.2214 342.401 21.0156 342.141 20.875C341.88 20.7344 341.604 20.6641 341.312 20.6641C340.979 20.6641 340.68 20.7318 340.414 20.8672C340.154 20.9974 339.932 21.1823 339.75 21.4219C339.573 21.6615 339.438 21.9427 339.344 22.2656C339.25 22.5885 339.203 22.9401 339.203 23.3203C339.203 23.6589 339.245 23.987 339.328 24.3047C339.411 24.6224 339.539 24.9089 339.711 25.1641C339.883 25.4193 340.096 25.6224 340.352 25.7734C340.612 25.9193 340.917 25.9922 341.266 25.9922C341.589 25.9922 341.891 25.9297 342.172 25.8047C342.458 25.6745 342.711 25.5 342.93 25.2812C343.154 25.0573 343.331 24.8047 343.461 24.5234C343.596 24.2422 343.674 23.9479 343.695 23.6406H344.383C344.383 24.0729 344.297 24.5 344.125 24.9219C343.958 25.3385 343.724 25.7188 343.422 26.0625C343.12 26.4062 342.766 26.6823 342.359 26.8906C341.953 27.0938 341.51 27.1953 341.031 27.1953C340.469 27.1953 339.982 27.0859 339.57 26.8672C339.159 26.6484 338.82 26.3568 338.555 25.9922C338.294 25.6276 338.099 25.2214 337.969 24.7734C337.844 24.3203 337.781 23.862 337.781 23.3984C337.781 22.8568 337.857 22.349 338.008 21.875C338.159 21.401 338.383 20.9844 338.68 20.625C338.977 20.2604 339.344 19.9766 339.781 19.7734C340.224 19.5703 340.734 19.4688 341.312 19.4688C341.964 19.4688 342.518 19.599 342.977 19.8594C343.435 20.1198 343.807 20.4688 344.094 20.9062C344.385 21.3438 344.599 21.8359 344.734 22.3828C344.87 22.9297 344.938 23.4922 344.938 24.0703V24.5938C344.938 25.1823 344.898 25.7812 344.82 26.3906C344.747 26.9948 344.604 27.5729 344.391 28.125C344.182 28.6771 343.878 29.1719 343.477 29.6094C343.076 30.0417 342.552 30.3854 341.906 30.6406C341.266 30.8906 340.474 31.0156 339.531 31.0156H339.383V29.7891Z" fill="#272323"/>
<path d="M186.647 18H175.353C174.054 18 173 19.0535 173 20.3531V31.6469C173 32.9465 174.054 34 175.353 34H186.647C187.946 34 189 32.9465 189 31.6469V20.3531C189 19.0535 187.946 18 186.647 18Z" fill="black"/>
<path d="M177.48 28.8795C179.07 28.8795 180.36 27.5901 180.36 25.9995C180.36 24.4089 179.07 23.1195 177.48 23.1195C175.889 23.1195 174.6 24.4089 174.6 25.9995C174.6 27.5901 175.889 28.8795 177.48 28.8795Z" fill="#1655F5"/>
<path d="M184.52 28.8795C186.11 28.8795 187.4 27.5901 187.4 25.9995C187.4 24.4089 186.11 23.1195 184.52 23.1195C182.929 23.1195 181.64 24.4089 181.64 25.9995C181.64 27.5901 182.929 28.8795 184.52 28.8795Z" fill="#F53410"/>
<path d="M28.5302 30.4693C28.6711 30.6102 28.7502 30.8013 28.7502 31.0006C28.7502 31.1998 28.6711 31.3909 28.5302 31.5318C28.3893 31.6727 28.1982 31.7519 27.9989 31.7519C27.7997 31.7519 27.6086 31.6727 27.4677 31.5318L22.4677 26.5318C22.3977 26.4621 22.3423 26.3793 22.3044 26.2882C22.2666 26.197 22.2471 26.0993 22.2471 26.0006C22.2471 25.9019 22.2666 25.8041 22.3044 25.713C22.3423 25.6218 22.3977 25.539 22.4677 25.4693L27.4677 20.4693C27.6086 20.3284 27.7997 20.2493 27.9989 20.2493C28.1982 20.2493 28.3893 20.3284 28.5302 20.4693C28.6711 20.6102 28.7502 20.8013 28.7502 21.0006C28.7502 21.1998 28.6711 21.3909 28.5302 21.5318L24.062 25.9999L28.5302 30.4693Z" fill="black"/>
</g>
<path d="M20.0227 82V58.7273H35.7045V62.7841H24.9432V68.3295H34.8977V72.3864H24.9432V77.9432H35.75V82H20.0227ZM44.3665 71.9091V82H39.5256V64.5455H44.1392V67.625H44.3438C44.7301 66.6098 45.3778 65.8068 46.2869 65.2159C47.196 64.6174 48.2983 64.3182 49.5938 64.3182C50.8059 64.3182 51.8627 64.5833 52.7642 65.1136C53.6657 65.6439 54.3665 66.4015 54.8665 67.3864C55.3665 68.3636 55.6165 69.5303 55.6165 70.8864V82H50.7756V71.75C50.7831 70.6818 50.5104 69.8485 49.9574 69.25C49.4044 68.6439 48.643 68.3409 47.6733 68.3409C47.0218 68.3409 46.446 68.4811 45.946 68.7614C45.4536 69.0417 45.0672 69.4508 44.7869 69.9886C44.5142 70.5189 44.3741 71.1591 44.3665 71.9091ZM68.7159 64.5455V68.1818H58.2045V64.5455H68.7159ZM60.5909 60.3636H65.4318V76.6364C65.4318 77.0833 65.5 77.4318 65.6364 77.6818C65.7727 77.9242 65.9621 78.0947 66.2045 78.1932C66.4545 78.2917 66.7424 78.3409 67.0682 78.3409C67.2955 78.3409 67.5227 78.322 67.75 78.2841C67.9773 78.2386 68.1515 78.2045 68.2727 78.1818L69.0341 81.7841C68.7917 81.8598 68.4508 81.947 68.0114 82.0455C67.572 82.1515 67.0379 82.2159 66.4091 82.2386C65.2424 82.2841 64.2197 82.1288 63.3409 81.7727C62.4697 81.4167 61.7917 80.8636 61.3068 80.1136C60.822 79.3636 60.5833 78.4167 60.5909 77.2727V60.3636ZM79.6364 82.3409C77.8409 82.3409 76.2955 81.9773 75 81.25C73.7121 80.5152 72.7197 79.4773 72.0227 78.1364C71.3258 76.7879 70.9773 75.1932 70.9773 73.3523C70.9773 71.5568 71.3258 69.9811 72.0227 68.625C72.7197 67.2689 73.7008 66.2121 74.9659 65.4545C76.2386 64.697 77.7311 64.3182 79.4432 64.3182C80.5947 64.3182 81.6667 64.5038 82.6591 64.875C83.6591 65.2386 84.5303 65.7879 85.2727 66.5227C86.0227 67.2576 86.6061 68.1818 87.0227 69.2955C87.4394 70.4015 87.6477 71.697 87.6477 73.1818V74.5114H72.9091V71.5114H83.0909C83.0909 70.8144 82.9394 70.197 82.6364 69.6591C82.3333 69.1212 81.9129 68.7008 81.375 68.3977C80.8447 68.0871 80.2273 67.9318 79.5227 67.9318C78.7879 67.9318 78.1364 68.1023 77.5682 68.4432C77.0076 68.7765 76.5682 69.2273 76.25 69.7955C75.9318 70.3561 75.7689 70.9811 75.7614 71.6705V74.5227C75.7614 75.3864 75.9205 76.1326 76.2386 76.7614C76.5644 77.3902 77.0227 77.875 77.6136 78.2159C78.2045 78.5568 78.9053 78.7273 79.7159 78.7273C80.2538 78.7273 80.7462 78.6515 81.1932 78.5C81.6402 78.3485 82.0227 78.1212 82.3409 77.8182C82.6591 77.5152 82.9015 77.1439 83.0682 76.7045L87.5455 77C87.3182 78.0758 86.8523 79.0152 86.1477 79.8182C85.4508 80.6136 84.5492 81.2348 83.4432 81.6818C82.3447 82.1212 81.0758 82.3409 79.6364 82.3409ZM90.8068 82V64.5455H95.5V67.5909H95.6818C96 66.5076 96.5341 65.6894 97.2841 65.1364C98.0341 64.5758 98.8977 64.2955 99.875 64.2955C100.117 64.2955 100.379 64.3106 100.659 64.3409C100.939 64.3712 101.186 64.4129 101.398 64.4659V68.7614C101.17 68.6932 100.856 68.6326 100.455 68.5795C100.053 68.5265 99.6856 68.5 99.3523 68.5C98.6402 68.5 98.0038 68.6553 97.4432 68.9659C96.8902 69.2689 96.4508 69.6932 96.125 70.2386C95.8068 70.7841 95.6477 71.4129 95.6477 72.125V82H90.8068ZM111.307 88.5455V64.5455H116.08V67.4773H116.295C116.508 67.0076 116.814 66.5303 117.216 66.0455C117.625 65.553 118.155 65.1439 118.807 64.8182C119.466 64.4848 120.284 64.3182 121.261 64.3182C122.534 64.3182 123.708 64.6515 124.784 65.3182C125.86 65.9773 126.72 66.9735 127.364 68.3068C128.008 69.6326 128.33 71.2955 128.33 73.2955C128.33 75.2424 128.015 76.8864 127.386 78.2273C126.765 79.5606 125.917 80.572 124.841 81.2614C123.773 81.9432 122.576 82.2841 121.25 82.2841C120.311 82.2841 119.511 82.1288 118.852 81.8182C118.201 81.5076 117.667 81.1174 117.25 80.6477C116.833 80.1705 116.515 79.6894 116.295 79.2045H116.148V88.5455H111.307ZM116.045 73.2727C116.045 74.3106 116.189 75.2159 116.477 75.9886C116.765 76.7614 117.182 77.3636 117.727 77.7955C118.273 78.2197 118.936 78.4318 119.716 78.4318C120.504 78.4318 121.17 78.2159 121.716 77.7841C122.261 77.3447 122.674 76.7386 122.955 75.9659C123.242 75.1856 123.386 74.2879 123.386 73.2727C123.386 72.2652 123.246 71.3788 122.966 70.6136C122.686 69.8485 122.273 69.25 121.727 68.8182C121.182 68.3864 120.511 68.1705 119.716 68.1705C118.928 68.1705 118.261 68.3788 117.716 68.7955C117.178 69.2121 116.765 69.803 116.477 70.5682C116.189 71.3333 116.045 72.2348 116.045 73.2727ZM136.534 82.3295C135.42 82.3295 134.428 82.1364 133.557 81.75C132.686 81.3561 131.996 80.7765 131.489 80.0114C130.989 79.2386 130.739 78.2765 130.739 77.125C130.739 76.1553 130.917 75.3409 131.273 74.6818C131.629 74.0227 132.114 73.4924 132.727 73.0909C133.341 72.6894 134.038 72.3864 134.818 72.1818C135.606 71.9773 136.432 71.8333 137.295 71.75C138.311 71.6439 139.129 71.5455 139.75 71.4545C140.371 71.3561 140.822 71.2121 141.102 71.0227C141.383 70.8333 141.523 70.553 141.523 70.1818V70.1136C141.523 69.3939 141.295 68.8371 140.841 68.4432C140.394 68.0492 139.758 67.8523 138.932 67.8523C138.061 67.8523 137.367 68.0455 136.852 68.4318C136.337 68.8106 135.996 69.2879 135.83 69.8636L131.352 69.5C131.58 68.4394 132.027 67.5227 132.693 66.75C133.36 65.9697 134.22 65.3712 135.273 64.9545C136.333 64.5303 137.561 64.3182 138.955 64.3182C139.924 64.3182 140.852 64.4318 141.739 64.6591C142.633 64.8864 143.424 65.2386 144.114 65.7159C144.811 66.1932 145.36 66.8068 145.761 67.5568C146.163 68.2992 146.364 69.1894 146.364 70.2273V82H141.773V79.5795H141.636C141.356 80.125 140.981 80.6061 140.511 81.0227C140.042 81.4318 139.477 81.7538 138.818 81.9886C138.159 82.2159 137.398 82.3295 136.534 82.3295ZM137.92 78.9886C138.633 78.9886 139.261 78.8485 139.807 78.5682C140.352 78.2803 140.78 77.8939 141.091 77.4091C141.402 76.9242 141.557 76.375 141.557 75.7614V73.9091C141.405 74.0076 141.197 74.0985 140.932 74.1818C140.674 74.2576 140.383 74.3295 140.057 74.3977C139.731 74.4583 139.405 74.5152 139.08 74.5682C138.754 74.6136 138.458 74.6553 138.193 74.6932C137.625 74.7765 137.129 74.9091 136.705 75.0909C136.28 75.2727 135.951 75.5189 135.716 75.8295C135.481 76.1326 135.364 76.5114 135.364 76.9659C135.364 77.625 135.602 78.1288 136.08 78.4773C136.564 78.8182 137.178 78.9886 137.92 78.9886ZM164.642 69.5227L160.21 69.7955C160.134 69.4167 159.972 69.0758 159.722 68.7727C159.472 68.4621 159.142 68.2159 158.733 68.0341C158.331 67.8447 157.85 67.75 157.29 67.75C156.54 67.75 155.907 67.9091 155.392 68.2273C154.877 68.5379 154.619 68.9545 154.619 69.4773C154.619 69.8939 154.786 70.2462 155.119 70.5341C155.453 70.822 156.025 71.053 156.835 71.2273L159.994 71.8636C161.691 72.2121 162.956 72.7727 163.79 73.5455C164.623 74.3182 165.04 75.3333 165.04 76.5909C165.04 77.7348 164.703 78.7386 164.028 79.6023C163.362 80.4659 162.445 81.1402 161.278 81.625C160.119 82.1023 158.782 82.3409 157.267 82.3409C154.956 82.3409 153.116 81.8598 151.744 80.8977C150.381 79.928 149.581 78.6098 149.347 76.9432L154.108 76.6932C154.252 77.3977 154.6 77.9356 155.153 78.3068C155.706 78.6705 156.415 78.8523 157.278 78.8523C158.127 78.8523 158.809 78.6894 159.324 78.3636C159.847 78.0303 160.112 77.6023 160.119 77.0795C160.112 76.6402 159.926 76.2803 159.562 76C159.199 75.7121 158.638 75.4924 157.881 75.3409L154.858 74.7386C153.153 74.3977 151.884 73.8068 151.051 72.9659C150.225 72.125 149.812 71.053 149.812 69.75C149.812 68.6288 150.116 67.6629 150.722 66.8523C151.335 66.0417 152.195 65.4167 153.301 64.9773C154.415 64.5379 155.718 64.3182 157.21 64.3182C159.415 64.3182 161.15 64.7841 162.415 65.7159C163.688 66.6477 164.43 67.9167 164.642 69.5227ZM182.611 69.5227L178.179 69.7955C178.103 69.4167 177.94 69.0758 177.69 68.7727C177.44 68.4621 177.111 68.2159 176.702 68.0341C176.3 67.8447 175.819 67.75 175.259 67.75C174.509 67.75 173.876 67.9091 173.361 68.2273C172.846 68.5379 172.588 68.9545 172.588 69.4773C172.588 69.8939 172.755 70.2462 173.088 70.5341C173.421 70.822 173.993 71.053 174.804 71.2273L177.963 71.8636C179.66 72.2121 180.925 72.7727 181.759 73.5455C182.592 74.3182 183.009 75.3333 183.009 76.5909C183.009 77.7348 182.671 78.7386 181.997 79.6023C181.33 80.4659 180.414 81.1402 179.247 81.625C178.088 82.1023 176.751 82.3409 175.236 82.3409C172.925 82.3409 171.084 81.8598 169.713 80.8977C168.349 79.928 167.55 78.6098 167.315 76.9432L172.077 76.6932C172.221 77.3977 172.569 77.9356 173.122 78.3068C173.675 78.6705 174.384 78.8523 175.247 78.8523C176.096 78.8523 176.777 78.6894 177.293 78.3636C177.815 78.0303 178.08 77.6023 178.088 77.0795C178.08 76.6402 177.895 76.2803 177.531 76C177.168 75.7121 176.607 75.4924 175.849 75.3409L172.827 74.7386C171.122 74.3977 169.853 73.8068 169.02 72.9659C168.194 72.125 167.781 71.053 167.781 69.75C167.781 68.6288 168.084 67.6629 168.69 66.8523C169.304 66.0417 170.164 65.4167 171.27 64.9773C172.384 64.5379 173.687 64.3182 175.179 64.3182C177.384 64.3182 179.118 64.7841 180.384 65.7159C181.656 66.6477 182.399 67.9167 182.611 69.5227ZM189.5 82L184.75 64.5455H189.648L192.352 76.2727H192.511L195.33 64.5455H200.136L203 76.2045H203.148L205.807 64.5455H210.693L205.955 82H200.83L197.83 71.0227H197.614L194.614 82H189.5ZM220.724 82.3409C218.959 82.3409 217.433 81.9659 216.145 81.2159C214.865 80.4583 213.876 79.4053 213.179 78.0568C212.482 76.7008 212.134 75.1288 212.134 73.3409C212.134 71.5379 212.482 69.9621 213.179 68.6136C213.876 67.2576 214.865 66.2045 216.145 65.4545C217.433 64.697 218.959 64.3182 220.724 64.3182C222.49 64.3182 224.012 64.697 225.293 65.4545C226.58 66.2045 227.573 67.2576 228.27 68.6136C228.967 69.9621 229.315 71.5379 229.315 73.3409C229.315 75.1288 228.967 76.7008 228.27 78.0568C227.573 79.4053 226.58 80.4583 225.293 81.2159C224.012 81.9659 222.49 82.3409 220.724 82.3409ZM220.747 78.5909C221.55 78.5909 222.221 78.3636 222.759 77.9091C223.296 77.447 223.702 76.8182 223.974 76.0227C224.255 75.2273 224.395 74.322 224.395 73.3068C224.395 72.2917 224.255 71.3864 223.974 70.5909C223.702 69.7955 223.296 69.1667 222.759 68.7045C222.221 68.2424 221.55 68.0114 220.747 68.0114C219.937 68.0114 219.255 68.2424 218.702 68.7045C218.156 69.1667 217.743 69.7955 217.463 70.5909C217.19 71.3864 217.054 72.2917 217.054 73.3068C217.054 74.322 217.19 75.2273 217.463 76.0227C217.743 76.8182 218.156 77.447 218.702 77.9091C219.255 78.3636 219.937 78.5909 220.747 78.5909ZM232.463 82V64.5455H237.156V67.5909H237.338C237.656 66.5076 238.19 65.6894 238.94 65.1364C239.69 64.5758 240.554 64.2955 241.531 64.2955C241.774 64.2955 242.035 64.3106 242.315 64.3409C242.596 64.3712 242.842 64.4129 243.054 64.4659V68.7614C242.827 68.6932 242.512 68.6326 242.111 68.5795C241.709 68.5265 241.342 68.5 241.009 68.5C240.296 68.5 239.66 68.6553 239.099 68.9659C238.546 69.2689 238.107 69.6932 237.781 70.2386C237.463 70.7841 237.304 71.4129 237.304 72.125V82H232.463ZM251.176 82.2841C249.85 82.2841 248.65 81.9432 247.574 81.2614C246.506 80.572 245.657 79.5606 245.028 78.2273C244.407 76.8864 244.097 75.2424 244.097 73.2955C244.097 71.2955 244.419 69.6326 245.062 68.3068C245.706 66.9735 246.563 65.9773 247.631 65.3182C248.706 64.6515 249.884 64.3182 251.165 64.3182C252.142 64.3182 252.956 64.4848 253.608 64.8182C254.267 65.1439 254.797 65.553 255.199 66.0455C255.608 66.5303 255.919 67.0076 256.131 67.4773H256.278V58.7273H261.108V82H256.335V79.2045H256.131C255.903 79.6894 255.581 80.1705 255.165 80.6477C254.756 81.1174 254.222 81.5076 253.562 81.8182C252.911 82.1288 252.116 82.2841 251.176 82.2841ZM252.71 78.4318C253.491 78.4318 254.15 78.2197 254.688 77.7955C255.233 77.3636 255.65 76.7614 255.938 75.9886C256.233 75.2159 256.381 74.3106 256.381 73.2727C256.381 72.2348 256.237 71.3333 255.949 70.5682C255.661 69.803 255.244 69.2121 254.699 68.7955C254.153 68.3788 253.491 68.1705 252.71 68.1705C251.915 68.1705 251.244 68.3864 250.699 68.8182C250.153 69.25 249.741 69.8485 249.46 70.6136C249.18 71.3788 249.04 72.2652 249.04 73.2727C249.04 74.2879 249.18 75.1856 249.46 75.9659C249.748 76.7386 250.161 77.3447 250.699 77.7841C251.244 78.2159 251.915 78.4318 252.71 78.4318Z" fill="black"/>
<g clip-path="url(#clip1_553_3148)">
<path d="M31.3746 129C31.3746 129.297 31.2866 129.587 31.1218 129.834C30.957 130.08 30.7227 130.273 30.4486 130.386C30.1745 130.5 29.8729 130.529 29.5819 130.472C29.291 130.414 29.0237 130.271 28.8139 130.061C28.6041 129.851 28.4613 129.584 28.4034 129.293C28.3455 129.002 28.3752 128.701 28.4888 128.426C28.6023 128.152 28.7946 127.918 29.0412 127.753C29.2879 127.588 29.5779 127.5 29.8746 127.5C30.2724 127.5 30.6539 127.658 30.9352 127.94C31.2165 128.221 31.3746 128.603 31.3746 129ZM40.338 117.742C37.3878 115.322 33.6901 114 29.8746 114C26.059 114 22.3614 115.322 19.4111 117.742C19.297 117.836 19.2024 117.951 19.1327 118.081C19.0631 118.212 19.0198 118.354 19.0054 118.501C18.9909 118.649 19.0056 118.797 19.0485 118.938C19.0914 119.08 19.1618 119.211 19.2555 119.325C19.3493 119.44 19.4646 119.534 19.5949 119.604C19.7252 119.673 19.868 119.717 20.015 119.731C20.162 119.746 20.3105 119.731 20.4519 119.688C20.5932 119.645 20.7248 119.575 20.839 119.481C23.3867 117.392 26.5798 116.25 29.8746 116.25C33.1694 116.25 36.3624 117.392 38.9102 119.481C39.0244 119.575 39.1559 119.645 39.2973 119.688C39.4387 119.731 39.5871 119.746 39.7342 119.731C39.8812 119.717 40.0239 119.673 40.1543 119.604C40.2846 119.534 40.3999 119.44 40.4936 119.325C40.5874 119.211 40.6577 119.08 40.7007 118.938C40.7436 118.797 40.7582 118.649 40.7438 118.501C40.7293 118.354 40.6861 118.212 40.6164 118.081C40.5468 117.951 40.4522 117.836 40.338 117.742ZM37.323 121.092C35.2031 119.413 32.5784 118.5 29.8746 118.5C27.1707 118.5 24.5461 119.413 22.4261 121.092C22.1981 121.279 22.0528 121.548 22.0213 121.841C21.9899 122.135 22.0749 122.429 22.2581 122.66C22.4412 122.891 22.7079 123.041 23.0006 123.078C23.2933 123.114 23.5886 123.034 23.823 122.855C25.5454 121.492 27.6778 120.75 29.8746 120.75C32.0713 120.75 34.2037 121.492 35.9261 122.855C36.1605 123.034 36.4559 123.114 36.7486 123.078C37.0413 123.041 37.308 122.891 37.4911 122.66C37.6743 122.429 37.7593 122.135 37.7279 121.841C37.6964 121.548 37.551 121.279 37.323 121.092ZM34.2874 124.435C33.0049 123.503 31.4601 123 29.8746 123C28.289 123 26.7442 123.503 25.4618 124.435C25.2206 124.611 25.0591 124.875 25.0129 125.17C24.9666 125.465 25.0394 125.766 25.2152 126.007C25.391 126.248 25.6554 126.41 25.9502 126.456C26.2451 126.502 26.5462 126.429 26.7874 126.254C27.6846 125.601 28.7653 125.25 29.8746 125.25C30.9838 125.25 32.0646 125.601 32.9618 126.254C33.0812 126.341 33.2166 126.403 33.3602 126.438C33.5039 126.473 33.6529 126.479 33.7989 126.456C33.9449 126.433 34.085 126.382 34.2111 126.305C34.3372 126.228 34.4469 126.126 34.534 126.007C34.621 125.888 34.6837 125.752 34.7184 125.609C34.7531 125.465 34.7592 125.316 34.7363 125.17C34.7134 125.024 34.662 124.884 34.5849 124.758C34.5079 124.632 34.4068 124.522 34.2874 124.435Z" fill="#1655F5"/>
</g>
<path d="M56.75 120.516V121.742H50.5938V120.516H56.75ZM50.8281 115.625V127H49.3203V115.625H50.8281ZM58.0625 115.625V127H56.5625V115.625H58.0625ZM65.0938 116.633L61.3281 127H59.7891L64.125 115.625H65.1172L65.0938 116.633ZM68.25 127L64.4766 116.633L64.4531 115.625H65.4453L69.7969 127H68.25ZM68.0547 122.789V124.023H61.6641V122.789H68.0547ZM77.6875 115.625H79.1875V123.32C79.1875 124.174 78.9974 124.885 78.6172 125.453C78.237 126.021 77.7318 126.448 77.1016 126.734C76.4766 127.016 75.7969 127.156 75.0625 127.156C74.2917 127.156 73.5938 127.016 72.9688 126.734C72.349 126.448 71.8568 126.021 71.4922 125.453C71.1328 124.885 70.9531 124.174 70.9531 123.32V115.625H72.4453V123.32C72.4453 123.914 72.5547 124.404 72.7734 124.789C72.9922 125.174 73.2969 125.461 73.6875 125.648C74.0833 125.836 74.5417 125.93 75.0625 125.93C75.5885 125.93 76.0469 125.836 76.4375 125.648C76.8333 125.461 77.1406 125.174 77.3594 124.789C77.5781 124.404 77.6875 123.914 77.6875 123.32V115.625ZM84.5469 123.562L86.8047 115.625H87.8984L87.2656 118.711L84.8359 127H83.75L84.5469 123.562ZM82.2109 115.625L84.0078 123.406L84.5469 127H83.4688L80.7109 115.625H82.2109ZM90.8203 123.398L92.5781 115.625H94.0859L91.3359 127H90.2578L90.8203 123.398ZM88.0625 115.625L90.2578 123.562L91.0547 127H89.9688L87.625 118.711L86.9844 115.625H88.0625ZM102.984 125.773V127H96.9609V125.773H102.984ZM97.2656 115.625V127H95.7578V115.625H97.2656ZM102.188 120.516V121.742H96.9609V120.516H102.188ZM102.906 115.625V116.859H96.9609V115.625H102.906ZM106.469 115.625V127H104.961V115.625H106.469ZM112 121.57V122.758H108.188V121.57H112ZM117.688 121.68H114.805L114.789 120.469H117.406C117.839 120.469 118.216 120.396 118.539 120.25C118.862 120.104 119.112 119.896 119.289 119.625C119.471 119.349 119.562 119.021 119.562 118.641C119.562 118.224 119.482 117.885 119.32 117.625C119.164 117.359 118.922 117.167 118.594 117.047C118.271 116.922 117.859 116.859 117.359 116.859H115.141V127H113.633V115.625H117.359C117.943 115.625 118.464 115.685 118.922 115.805C119.38 115.919 119.768 116.102 120.086 116.352C120.409 116.596 120.654 116.909 120.82 117.289C120.987 117.669 121.07 118.125 121.07 118.656C121.07 119.125 120.951 119.549 120.711 119.93C120.471 120.305 120.138 120.612 119.711 120.852C119.289 121.091 118.794 121.245 118.227 121.312L117.688 121.68ZM117.617 127H114.211L115.062 125.773H117.617C118.096 125.773 118.503 125.69 118.836 125.523C119.174 125.357 119.432 125.122 119.609 124.82C119.786 124.513 119.875 124.151 119.875 123.734C119.875 123.312 119.799 122.948 119.648 122.641C119.497 122.333 119.26 122.096 118.938 121.93C118.615 121.763 118.198 121.68 117.688 121.68H115.539L115.555 120.469H118.492L118.812 120.906C119.359 120.953 119.823 121.109 120.203 121.375C120.583 121.635 120.872 121.969 121.07 122.375C121.273 122.781 121.375 123.229 121.375 123.719C121.375 124.427 121.219 125.026 120.906 125.516C120.599 126 120.164 126.37 119.602 126.625C119.039 126.875 118.378 127 117.617 127ZM125.336 120.602H126.367C126.872 120.602 127.289 120.518 127.617 120.352C127.951 120.18 128.198 119.948 128.359 119.656C128.526 119.359 128.609 119.026 128.609 118.656C128.609 118.219 128.536 117.852 128.391 117.555C128.245 117.258 128.026 117.034 127.734 116.883C127.443 116.732 127.073 116.656 126.625 116.656C126.219 116.656 125.859 116.737 125.547 116.898C125.24 117.055 124.997 117.279 124.82 117.57C124.648 117.862 124.562 118.206 124.562 118.602H123.117C123.117 118.023 123.263 117.497 123.555 117.023C123.846 116.549 124.255 116.172 124.781 115.891C125.312 115.609 125.927 115.469 126.625 115.469C127.312 115.469 127.914 115.591 128.43 115.836C128.945 116.076 129.346 116.435 129.633 116.914C129.919 117.388 130.062 117.979 130.062 118.688C130.062 118.974 129.995 119.281 129.859 119.609C129.729 119.932 129.523 120.234 129.242 120.516C128.966 120.797 128.607 121.029 128.164 121.211C127.721 121.388 127.19 121.477 126.57 121.477H125.336V120.602ZM125.336 121.789V120.922H126.57C127.294 120.922 127.893 121.008 128.367 121.18C128.841 121.352 129.214 121.581 129.484 121.867C129.76 122.154 129.953 122.469 130.062 122.812C130.177 123.151 130.234 123.49 130.234 123.828C130.234 124.359 130.143 124.831 129.961 125.242C129.784 125.654 129.531 126.003 129.203 126.289C128.88 126.576 128.5 126.792 128.062 126.938C127.625 127.083 127.148 127.156 126.633 127.156C126.138 127.156 125.672 127.086 125.234 126.945C124.802 126.805 124.419 126.602 124.086 126.336C123.753 126.065 123.492 125.734 123.305 125.344C123.117 124.948 123.023 124.497 123.023 123.992H124.469C124.469 124.388 124.555 124.734 124.727 125.031C124.904 125.328 125.154 125.56 125.477 125.727C125.805 125.888 126.19 125.969 126.633 125.969C127.076 125.969 127.456 125.893 127.773 125.742C128.096 125.586 128.344 125.352 128.516 125.039C128.693 124.727 128.781 124.333 128.781 123.859C128.781 123.385 128.682 122.997 128.484 122.695C128.286 122.388 128.005 122.161 127.641 122.016C127.281 121.865 126.857 121.789 126.367 121.789H125.336ZM136.977 115.562V127H135.531V117.367L132.617 118.43V117.125L136.75 115.562H136.977ZM145.977 115.562V127H144.531V117.367L141.617 118.43V117.125L145.75 115.562H145.977ZM156.477 127V128.188H149.312V127H156.477ZM159.328 115.625V127H157.82V115.625H159.328ZM164.094 120.742V121.977H159V120.742H164.094ZM164.867 115.625V116.859H159V115.625H164.867ZM167.727 125.789H167.875C168.708 125.789 169.385 125.672 169.906 125.438C170.427 125.203 170.828 124.888 171.109 124.492C171.391 124.096 171.583 123.651 171.688 123.156C171.792 122.656 171.844 122.143 171.844 121.617V119.875C171.844 119.359 171.784 118.901 171.664 118.5C171.549 118.099 171.388 117.763 171.18 117.492C170.977 117.221 170.745 117.016 170.484 116.875C170.224 116.734 169.948 116.664 169.656 116.664C169.323 116.664 169.023 116.732 168.758 116.867C168.497 116.997 168.276 117.182 168.094 117.422C167.917 117.661 167.781 117.943 167.688 118.266C167.594 118.589 167.547 118.94 167.547 119.32C167.547 119.659 167.589 119.987 167.672 120.305C167.755 120.622 167.883 120.909 168.055 121.164C168.227 121.419 168.44 121.622 168.695 121.773C168.956 121.919 169.26 121.992 169.609 121.992C169.932 121.992 170.234 121.93 170.516 121.805C170.802 121.674 171.055 121.5 171.273 121.281C171.497 121.057 171.674 120.805 171.805 120.523C171.94 120.242 172.018 119.948 172.039 119.641H172.727C172.727 120.073 172.641 120.5 172.469 120.922C172.302 121.339 172.068 121.719 171.766 122.062C171.464 122.406 171.109 122.682 170.703 122.891C170.297 123.094 169.854 123.195 169.375 123.195C168.812 123.195 168.326 123.086 167.914 122.867C167.503 122.648 167.164 122.357 166.898 121.992C166.638 121.628 166.443 121.221 166.312 120.773C166.188 120.32 166.125 119.862 166.125 119.398C166.125 118.857 166.201 118.349 166.352 117.875C166.503 117.401 166.727 116.984 167.023 116.625C167.32 116.26 167.688 115.977 168.125 115.773C168.568 115.57 169.078 115.469 169.656 115.469C170.307 115.469 170.862 115.599 171.32 115.859C171.779 116.12 172.151 116.469 172.438 116.906C172.729 117.344 172.943 117.836 173.078 118.383C173.214 118.93 173.281 119.492 173.281 120.07V120.594C173.281 121.182 173.242 121.781 173.164 122.391C173.091 122.995 172.948 123.573 172.734 124.125C172.526 124.677 172.221 125.172 171.82 125.609C171.419 126.042 170.896 126.385 170.25 126.641C169.609 126.891 168.818 127.016 167.875 127.016H167.727V125.789ZM182.891 125.773V127H176.867V125.773H182.891ZM177.172 115.625V127H175.664V115.625H177.172ZM182.094 120.516V121.742H176.867V120.516H182.094ZM182.812 115.625V116.859H176.867V115.625H182.812ZM189.133 115.562V127H187.688V117.367L184.773 118.43V117.125L188.906 115.562H189.133Z" fill="#232323"/>
<path d="M23.4453 170.945H20.5469V169.117H23.4453C23.8932 169.117 24.2578 169.044 24.5391 168.898C24.8203 168.747 25.026 168.539 25.1562 168.273C25.2865 168.008 25.3516 167.708 25.3516 167.375C25.3516 167.036 25.2865 166.721 25.1562 166.43C25.026 166.138 24.8203 165.904 24.5391 165.727C24.2578 165.549 23.8932 165.461 23.4453 165.461H21.3594V175H19.0156V163.625H23.4453C24.3359 163.625 25.099 163.786 25.7344 164.109C26.375 164.427 26.8646 164.867 27.2031 165.43C27.5417 165.992 27.7109 166.635 27.7109 167.359C27.7109 168.094 27.5417 168.729 27.2031 169.266C26.8646 169.802 26.375 170.216 25.7344 170.508C25.099 170.799 24.3359 170.945 23.4453 170.945ZM33.6562 173.094V169.328C33.6562 169.057 33.612 168.826 33.5234 168.633C33.4349 168.435 33.2969 168.281 33.1094 168.172C32.9271 168.062 32.6901 168.008 32.3984 168.008C32.1484 168.008 31.9323 168.052 31.75 168.141C31.5677 168.224 31.4271 168.346 31.3281 168.508C31.2292 168.664 31.1797 168.849 31.1797 169.062H28.9297C28.9297 168.703 29.013 168.362 29.1797 168.039C29.3464 167.716 29.5885 167.432 29.9062 167.188C30.224 166.938 30.6016 166.742 31.0391 166.602C31.4818 166.461 31.9766 166.391 32.5234 166.391C33.1797 166.391 33.763 166.5 34.2734 166.719C34.7839 166.938 35.1849 167.266 35.4766 167.703C35.7734 168.141 35.9219 168.688 35.9219 169.344V172.961C35.9219 173.424 35.9505 173.805 36.0078 174.102C36.0651 174.393 36.1484 174.648 36.2578 174.867V175H33.9844C33.875 174.771 33.7917 174.484 33.7344 174.141C33.6823 173.792 33.6562 173.443 33.6562 173.094ZM33.9531 169.852L33.9688 171.125H32.7109C32.4141 171.125 32.1562 171.159 31.9375 171.227C31.7188 171.294 31.5391 171.391 31.3984 171.516C31.2578 171.635 31.1536 171.776 31.0859 171.938C31.0234 172.099 30.9922 172.276 30.9922 172.469C30.9922 172.661 31.0365 172.836 31.125 172.992C31.2135 173.143 31.3411 173.263 31.5078 173.352C31.6745 173.435 31.8698 173.477 32.0938 173.477C32.4323 173.477 32.7266 173.409 32.9766 173.273C33.2266 173.138 33.4193 172.971 33.5547 172.773C33.6953 172.576 33.7682 172.388 33.7734 172.211L34.3672 173.164C34.2839 173.378 34.1693 173.599 34.0234 173.828C33.8828 174.057 33.7031 174.273 33.4844 174.477C33.2656 174.674 33.0026 174.839 32.6953 174.969C32.388 175.094 32.0234 175.156 31.6016 175.156C31.0651 175.156 30.5781 175.049 30.1406 174.836C29.7083 174.617 29.3646 174.318 29.1094 173.938C28.8594 173.552 28.7344 173.115 28.7344 172.625C28.7344 172.182 28.8177 171.789 28.9844 171.445C29.151 171.102 29.3958 170.812 29.7188 170.578C30.0469 170.339 30.4557 170.159 30.9453 170.039C31.4349 169.914 32.0026 169.852 32.6484 169.852H33.9531ZM42.2266 172.664C42.2266 172.503 42.1797 172.357 42.0859 172.227C41.9922 172.096 41.8177 171.977 41.5625 171.867C41.3125 171.753 40.9505 171.648 40.4766 171.555C40.0495 171.461 39.651 171.344 39.2812 171.203C38.9167 171.057 38.599 170.883 38.3281 170.68C38.0625 170.477 37.8542 170.237 37.7031 169.961C37.5521 169.68 37.4766 169.359 37.4766 169C37.4766 168.646 37.5521 168.312 37.7031 168C37.8594 167.688 38.0807 167.411 38.3672 167.172C38.6589 166.927 39.013 166.737 39.4297 166.602C39.8516 166.461 40.3255 166.391 40.8516 166.391C41.5859 166.391 42.2161 166.508 42.7422 166.742C43.2734 166.977 43.6797 167.299 43.9609 167.711C44.2474 168.117 44.3906 168.581 44.3906 169.102H42.1406C42.1406 168.883 42.0938 168.688 42 168.516C41.9115 168.339 41.7708 168.201 41.5781 168.102C41.3906 167.997 41.1458 167.945 40.8438 167.945C40.5938 167.945 40.3776 167.99 40.1953 168.078C40.013 168.161 39.8724 168.276 39.7734 168.422C39.6797 168.562 39.6328 168.719 39.6328 168.891C39.6328 169.021 39.6589 169.138 39.7109 169.242C39.7682 169.341 39.8594 169.432 39.9844 169.516C40.1094 169.599 40.2708 169.677 40.4688 169.75C40.6719 169.818 40.9219 169.88 41.2188 169.938C41.8281 170.062 42.3724 170.227 42.8516 170.43C43.3307 170.628 43.7109 170.898 43.9922 171.242C44.2734 171.581 44.4141 172.026 44.4141 172.578C44.4141 172.953 44.3307 173.297 44.1641 173.609C43.9974 173.922 43.7578 174.195 43.4453 174.43C43.1328 174.659 42.7578 174.839 42.3203 174.969C41.888 175.094 41.401 175.156 40.8594 175.156C40.0729 175.156 39.4062 175.016 38.8594 174.734C38.3177 174.453 37.9062 174.096 37.625 173.664C37.349 173.227 37.2109 172.779 37.2109 172.32H39.3438C39.3542 172.628 39.4323 172.875 39.5781 173.062C39.7292 173.25 39.9193 173.385 40.1484 173.469C40.3828 173.552 40.6354 173.594 40.9062 173.594C41.1979 173.594 41.4401 173.555 41.6328 173.477C41.8255 173.393 41.9714 173.284 42.0703 173.148C42.1745 173.008 42.2266 172.846 42.2266 172.664ZM50.4453 172.664C50.4453 172.503 50.3984 172.357 50.3047 172.227C50.2109 172.096 50.0365 171.977 49.7812 171.867C49.5312 171.753 49.1693 171.648 48.6953 171.555C48.2682 171.461 47.8698 171.344 47.5 171.203C47.1354 171.057 46.8177 170.883 46.5469 170.68C46.2812 170.477 46.0729 170.237 45.9219 169.961C45.7708 169.68 45.6953 169.359 45.6953 169C45.6953 168.646 45.7708 168.312 45.9219 168C46.0781 167.688 46.2995 167.411 46.5859 167.172C46.8776 166.927 47.2318 166.737 47.6484 166.602C48.0703 166.461 48.5443 166.391 49.0703 166.391C49.8047 166.391 50.4349 166.508 50.9609 166.742C51.4922 166.977 51.8984 167.299 52.1797 167.711C52.4661 168.117 52.6094 168.581 52.6094 169.102H50.3594C50.3594 168.883 50.3125 168.688 50.2188 168.516C50.1302 168.339 49.9896 168.201 49.7969 168.102C49.6094 167.997 49.3646 167.945 49.0625 167.945C48.8125 167.945 48.5964 167.99 48.4141 168.078C48.2318 168.161 48.0911 168.276 47.9922 168.422C47.8984 168.562 47.8516 168.719 47.8516 168.891C47.8516 169.021 47.8776 169.138 47.9297 169.242C47.987 169.341 48.0781 169.432 48.2031 169.516C48.3281 169.599 48.4896 169.677 48.6875 169.75C48.8906 169.818 49.1406 169.88 49.4375 169.938C50.0469 170.062 50.5911 170.227 51.0703 170.43C51.5495 170.628 51.9297 170.898 52.2109 171.242C52.4922 171.581 52.6328 172.026 52.6328 172.578C52.6328 172.953 52.5495 173.297 52.3828 173.609C52.2161 173.922 51.9766 174.195 51.6641 174.43C51.3516 174.659 50.9766 174.839 50.5391 174.969C50.1068 175.094 49.6198 175.156 49.0781 175.156C48.2917 175.156 47.625 175.016 47.0781 174.734C46.5365 174.453 46.125 174.096 45.8438 173.664C45.5677 173.227 45.4297 172.779 45.4297 172.32H47.5625C47.5729 172.628 47.651 172.875 47.7969 173.062C47.9479 173.25 48.138 173.385 48.3672 173.469C48.6016 173.552 48.8542 173.594 49.125 173.594C49.4167 173.594 49.6589 173.555 49.8516 173.477C50.0443 173.393 50.1901 173.284 50.2891 173.148C50.3932 173.008 50.4453 172.846 50.4453 172.664ZM56.5078 172.812L58.2656 166.547H59.6953L59.2344 169.008L57.4766 175H56.2812L56.5078 172.812ZM55.6172 166.547L56.875 172.805L56.9922 175H55.5859L53.4453 166.547H55.6172ZM61.3047 172.703L62.5312 166.547H64.7109L62.5703 175H61.1719L61.3047 172.703ZM59.8906 166.547L61.6406 172.766L61.8828 175H60.6797L58.9219 169.016L58.4766 166.547H59.8906ZM65.4844 170.859V170.695C65.4844 170.076 65.5729 169.505 65.75 168.984C65.9271 168.458 66.1849 168.003 66.5234 167.617C66.862 167.232 67.2786 166.932 67.7734 166.719C68.2682 166.5 68.8359 166.391 69.4766 166.391C70.1172 166.391 70.6875 166.5 71.1875 166.719C71.6875 166.932 72.1068 167.232 72.4453 167.617C72.7891 168.003 73.0495 168.458 73.2266 168.984C73.4036 169.505 73.4922 170.076 73.4922 170.695V170.859C73.4922 171.474 73.4036 172.044 73.2266 172.57C73.0495 173.091 72.7891 173.547 72.4453 173.938C72.1068 174.323 71.6901 174.622 71.1953 174.836C70.7005 175.049 70.1328 175.156 69.4922 175.156C68.8516 175.156 68.2812 175.049 67.7812 174.836C67.2865 174.622 66.8672 174.323 66.5234 173.938C66.1849 173.547 65.9271 173.091 65.75 172.57C65.5729 172.044 65.4844 171.474 65.4844 170.859ZM67.7344 170.695V170.859C67.7344 171.214 67.7656 171.544 67.8281 171.852C67.8906 172.159 67.9896 172.43 68.125 172.664C68.2656 172.893 68.4479 173.073 68.6719 173.203C68.8958 173.333 69.1693 173.398 69.4922 173.398C69.8047 173.398 70.0729 173.333 70.2969 173.203C70.5208 173.073 70.7005 172.893 70.8359 172.664C70.9714 172.43 71.0703 172.159 71.1328 171.852C71.2005 171.544 71.2344 171.214 71.2344 170.859V170.695C71.2344 170.352 71.2005 170.029 71.1328 169.727C71.0703 169.419 70.9688 169.148 70.8281 168.914C70.6927 168.674 70.513 168.487 70.2891 168.352C70.0651 168.216 69.7943 168.148 69.4766 168.148C69.1589 168.148 68.888 168.216 68.6641 168.352C68.4453 168.487 68.2656 168.674 68.125 168.914C67.9896 169.148 67.8906 169.419 67.8281 169.727C67.7656 170.029 67.7344 170.352 67.7344 170.695ZM77.125 168.391V175H74.875V166.547H76.9922L77.125 168.391ZM79.6719 166.492L79.6328 168.578C79.5234 168.562 79.3906 168.549 79.2344 168.539C79.0833 168.523 78.9453 168.516 78.8203 168.516C78.5026 168.516 78.2266 168.557 77.9922 168.641C77.763 168.719 77.5703 168.836 77.4141 168.992C77.263 169.148 77.1484 169.339 77.0703 169.562C76.9974 169.786 76.9557 170.042 76.9453 170.328L76.4922 170.188C76.4922 169.641 76.5469 169.138 76.6562 168.68C76.7656 168.216 76.9245 167.812 77.1328 167.469C77.3464 167.125 77.6068 166.859 77.9141 166.672C78.2214 166.484 78.5729 166.391 78.9688 166.391C79.0938 166.391 79.2214 166.401 79.3516 166.422C79.4818 166.438 79.5885 166.461 79.6719 166.492ZM85.5703 173.156V163H87.8359V175H85.7969L85.5703 173.156ZM80.2266 170.875V170.711C80.2266 170.065 80.2995 169.479 80.4453 168.953C80.5911 168.422 80.8047 167.966 81.0859 167.586C81.3672 167.206 81.7135 166.911 82.125 166.703C82.5365 166.495 83.0052 166.391 83.5312 166.391C84.026 166.391 84.4583 166.495 84.8281 166.703C85.2031 166.911 85.5208 167.208 85.7812 167.594C86.0469 167.974 86.2604 168.424 86.4219 168.945C86.5833 169.461 86.7005 170.026 86.7734 170.641V171C86.7005 171.589 86.5833 172.135 86.4219 172.641C86.2604 173.146 86.0469 173.589 85.7812 173.969C85.5208 174.344 85.2031 174.635 84.8281 174.844C84.4531 175.052 84.0156 175.156 83.5156 175.156C82.9896 175.156 82.5208 175.049 82.1094 174.836C81.7031 174.622 81.3594 174.323 81.0781 173.938C80.8021 173.552 80.5911 173.099 80.4453 172.578C80.2995 172.057 80.2266 171.49 80.2266 170.875ZM82.4766 170.711V170.875C82.4766 171.224 82.5026 171.549 82.5547 171.852C82.612 172.154 82.7031 172.422 82.8281 172.656C82.9583 172.885 83.125 173.065 83.3281 173.195C83.5365 173.32 83.7891 173.383 84.0859 173.383C84.4714 173.383 84.7891 173.297 85.0391 173.125C85.2891 172.948 85.4792 172.706 85.6094 172.398C85.7448 172.091 85.8229 171.737 85.8438 171.336V170.312C85.8281 169.984 85.7812 169.69 85.7031 169.43C85.6302 169.164 85.5208 168.938 85.375 168.75C85.2344 168.562 85.0573 168.417 84.8438 168.312C84.6354 168.208 84.388 168.156 84.1016 168.156C83.8099 168.156 83.5599 168.224 83.3516 168.359C83.1432 168.49 82.974 168.669 82.8438 168.898C82.7188 169.128 82.625 169.398 82.5625 169.711C82.5052 170.018 82.4766 170.352 82.4766 170.711Z" fill="black"/>
<rect x="18.5" y="186.5" width="255" height="47" rx="7.5" fill="#F3F6FE" stroke="#E6E9F1"/>
<path d="M28.7148 209.703V208.902C28.7148 207.783 29.0664 206.858 29.7695 206.129C30.4857 205.4 31.4557 205.035 32.6797 205.035C33.9167 205.035 34.8932 205.4 35.6094 206.129C36.3255 206.858 36.6836 207.783 36.6836 208.902V209.703C36.6836 210.81 36.3255 211.728 35.6094 212.457C34.9062 213.173 33.9362 213.531 32.6992 213.531C31.4753 213.531 30.5052 213.173 29.7891 212.457C29.0729 211.728 28.7148 210.81 28.7148 209.703ZM42.2305 209.703V208.902C42.2305 207.783 42.582 206.858 43.2852 206.129C44.0013 205.4 44.9714 205.035 46.1953 205.035C47.4323 205.035 48.4089 205.4 49.125 206.129C49.8411 206.858 50.1992 207.783 50.1992 208.902V209.703C50.1992 210.81 49.8411 211.728 49.125 212.457C48.4219 213.173 47.4518 213.531 46.2148 213.531C44.9909 213.531 44.0208 213.173 43.3047 212.457C42.5885 211.728 42.2305 210.81 42.2305 209.703ZM55.7461 209.703V208.902C55.7461 207.783 56.0977 206.858 56.8008 206.129C57.5169 205.4 58.487 205.035 59.7109 205.035C60.9479 205.035 61.9245 205.4 62.6406 206.129C63.3568 206.858 63.7148 207.783 63.7148 208.902V209.703C63.7148 210.81 63.3568 211.728 62.6406 212.457C61.9375 213.173 60.9674 213.531 59.7305 213.531C58.5065 213.531 57.5365 213.173 56.8203 212.457C56.1042 211.728 55.7461 210.81 55.7461 209.703ZM69.2617 209.703V208.902C69.2617 207.783 69.6133 206.858 70.3164 206.129C71.0326 205.4 72.0026 205.035 73.2266 205.035C74.4635 205.035 75.4401 205.4 76.1562 206.129C76.8724 206.858 77.2305 207.783 77.2305 208.902V209.703C77.2305 210.81 76.8724 211.728 76.1562 212.457C75.4531 213.173 74.4831 213.531 73.2461 213.531C72.0221 213.531 71.0521 213.173 70.3359 212.457C69.6198 211.728 69.2617 210.81 69.2617 209.703ZM82.7773 209.703V208.902C82.7773 207.783 83.1289 206.858 83.832 206.129C84.5482 205.4 85.5182 205.035 86.7422 205.035C87.9792 205.035 88.9557 205.4 89.6719 206.129C90.388 206.858 90.7461 207.783 90.7461 208.902V209.703C90.7461 210.81 90.388 211.728 89.6719 212.457C88.9688 213.173 87.9987 213.531 86.7617 213.531C85.5378 213.531 84.5677 213.173 83.8516 212.457C83.1354 211.728 82.7773 210.81 82.7773 209.703ZM96.293 209.703V208.902C96.293 207.783 96.6445 206.858 97.3477 206.129C98.0638 205.4 99.0339 205.035 100.258 205.035C101.495 205.035 102.471 205.4 103.188 206.129C103.904 206.858 104.262 207.783 104.262 208.902V209.703C104.262 210.81 103.904 211.728 103.188 212.457C102.484 213.173 101.514 213.531 100.277 213.531C99.0534 213.531 98.0833 213.173 97.3672 212.457C96.651 211.728 96.293 210.81 96.293 209.703Z" fill="#C3BDBD"/>
<g clip-path="url(#clip2_553_3148)">
<path d="M265.531 209.543C265.496 209.467 264.675 207.644 262.861 205.83C260.434 203.407 257.375 202.125 254 202.125C250.625 202.125 247.566 203.407 245.141 205.83C243.327 207.644 242.506 209.467 242.468 209.543C242.405 209.687 242.372 209.843 242.372 210C242.372 210.158 242.405 210.314 242.468 210.458C242.503 210.534 243.324 212.357 245.139 214.171C247.566 216.594 250.625 217.875 254 217.875C257.375 217.875 260.434 216.594 262.857 214.171C264.672 212.357 265.493 210.534 265.528 210.458C265.592 210.314 265.625 210.158 265.626 210.001C265.626 209.843 265.594 209.688 265.531 209.543ZM261.213 212.637C259.2 214.619 256.774 215.625 254 215.625C251.226 215.625 248.799 214.619 246.789 212.636C245.998 211.854 245.318 210.967 244.767 210C245.318 209.034 245.999 208.147 246.789 207.365C248.8 205.381 251.226 204.375 254 204.375C256.774 204.375 259.199 205.381 261.21 207.365C262.001 208.147 262.681 209.034 263.232 210C262.681 210.967 262.001 211.854 261.21 212.636L261.213 212.637ZM254 205.875C253.184 205.875 252.386 206.117 251.708 206.57C251.03 207.023 250.501 207.668 250.189 208.421C249.876 209.175 249.795 210.005 249.954 210.805C250.113 211.605 250.506 212.34 251.083 212.917C251.66 213.494 252.395 213.887 253.195 214.046C253.995 214.205 254.824 214.123 255.578 213.811C256.332 213.499 256.976 212.97 257.429 212.292C257.883 211.613 258.125 210.816 258.125 210C258.123 208.906 257.688 207.858 256.915 207.085C256.142 206.311 255.093 205.876 254 205.875ZM254 211.875C253.629 211.875 253.266 211.765 252.958 211.559C252.65 211.353 252.409 211.06 252.267 210.718C252.125 210.375 252.088 209.998 252.161 209.634C252.233 209.27 252.412 208.936 252.674 208.674C252.936 208.412 253.27 208.233 253.634 208.161C253.998 208.089 254.375 208.126 254.717 208.268C255.06 208.41 255.353 208.65 255.559 208.958C255.765 209.267 255.875 209.629 255.875 210C255.875 210.497 255.677 210.974 255.325 211.326C254.974 211.677 254.497 211.875 254 211.875Z" fill="black"/>
</g>
<rect x="18" y="578" width="328" height="48" rx="8" fill="#1655F5"/>
<path d="M160.148 603.383H161.648C161.57 604.102 161.365 604.745 161.031 605.312C160.698 605.88 160.227 606.331 159.617 606.664C159.008 606.992 158.247 607.156 157.336 607.156C156.669 607.156 156.062 607.031 155.516 606.781C154.974 606.531 154.508 606.177 154.117 605.719C153.727 605.255 153.424 604.701 153.211 604.055C153.003 603.404 152.898 602.68 152.898 601.883V600.75C152.898 599.953 153.003 599.232 153.211 598.586C153.424 597.935 153.729 597.378 154.125 596.914C154.526 596.451 155.008 596.094 155.57 595.844C156.133 595.594 156.766 595.469 157.469 595.469C158.328 595.469 159.055 595.63 159.648 595.953C160.242 596.276 160.703 596.724 161.031 597.297C161.365 597.865 161.57 598.523 161.648 599.273H160.148C160.076 598.742 159.94 598.286 159.742 597.906C159.544 597.521 159.263 597.224 158.898 597.016C158.534 596.807 158.057 596.703 157.469 596.703C156.964 596.703 156.518 596.799 156.133 596.992C155.753 597.185 155.432 597.458 155.172 597.812C154.917 598.167 154.724 598.591 154.594 599.086C154.464 599.581 154.398 600.13 154.398 600.734V601.883C154.398 602.44 154.456 602.964 154.57 603.453C154.69 603.943 154.87 604.372 155.109 604.742C155.349 605.112 155.654 605.404 156.023 605.617C156.393 605.826 156.831 605.93 157.336 605.93C157.977 605.93 158.487 605.828 158.867 605.625C159.247 605.422 159.534 605.13 159.727 604.75C159.924 604.37 160.065 603.914 160.148 603.383ZM163.102 602.867V602.688C163.102 602.078 163.19 601.513 163.367 600.992C163.544 600.466 163.799 600.01 164.133 599.625C164.466 599.234 164.87 598.932 165.344 598.719C165.818 598.5 166.349 598.391 166.938 598.391C167.531 598.391 168.065 598.5 168.539 598.719C169.018 598.932 169.424 599.234 169.758 599.625C170.096 600.01 170.354 600.466 170.531 600.992C170.708 601.513 170.797 602.078 170.797 602.688V602.867C170.797 603.477 170.708 604.042 170.531 604.562C170.354 605.083 170.096 605.539 169.758 605.93C169.424 606.315 169.021 606.617 168.547 606.836C168.078 607.049 167.547 607.156 166.953 607.156C166.359 607.156 165.826 607.049 165.352 606.836C164.878 606.617 164.471 606.315 164.133 605.93C163.799 605.539 163.544 605.083 163.367 604.562C163.19 604.042 163.102 603.477 163.102 602.867ZM164.547 602.688V602.867C164.547 603.289 164.596 603.688 164.695 604.062C164.794 604.432 164.943 604.76 165.141 605.047C165.344 605.333 165.596 605.56 165.898 605.727C166.201 605.888 166.552 605.969 166.953 605.969C167.349 605.969 167.695 605.888 167.992 605.727C168.294 605.56 168.544 605.333 168.742 605.047C168.94 604.76 169.089 604.432 169.188 604.062C169.292 603.688 169.344 603.289 169.344 602.867V602.688C169.344 602.271 169.292 601.878 169.188 601.508C169.089 601.133 168.938 600.802 168.734 600.516C168.536 600.224 168.286 599.995 167.984 599.828C167.688 599.661 167.339 599.578 166.938 599.578C166.542 599.578 166.193 599.661 165.891 599.828C165.594 599.995 165.344 600.224 165.141 600.516C164.943 600.802 164.794 601.133 164.695 601.508C164.596 601.878 164.547 602.271 164.547 602.688ZM174.055 600.352V607H172.609V598.547H173.977L174.055 600.352ZM173.711 602.453L173.109 602.43C173.115 601.852 173.201 601.318 173.367 600.828C173.534 600.333 173.768 599.904 174.07 599.539C174.372 599.174 174.732 598.893 175.148 598.695C175.57 598.492 176.036 598.391 176.547 598.391C176.964 598.391 177.339 598.448 177.672 598.562C178.005 598.672 178.289 598.849 178.523 599.094C178.763 599.339 178.945 599.656 179.07 600.047C179.195 600.432 179.258 600.904 179.258 601.461V607H177.805V601.445C177.805 601.003 177.74 600.648 177.609 600.383C177.479 600.112 177.289 599.917 177.039 599.797C176.789 599.672 176.482 599.609 176.117 599.609C175.758 599.609 175.43 599.685 175.133 599.836C174.841 599.987 174.589 600.195 174.375 600.461C174.167 600.727 174.003 601.031 173.883 601.375C173.768 601.714 173.711 602.073 173.711 602.453ZM182.898 600.352V607H181.453V598.547H182.82L182.898 600.352ZM182.555 602.453L181.953 602.43C181.958 601.852 182.044 601.318 182.211 600.828C182.378 600.333 182.612 599.904 182.914 599.539C183.216 599.174 183.576 598.893 183.992 598.695C184.414 598.492 184.88 598.391 185.391 598.391C185.807 598.391 186.182 598.448 186.516 598.562C186.849 598.672 187.133 598.849 187.367 599.094C187.607 599.339 187.789 599.656 187.914 600.047C188.039 600.432 188.102 600.904 188.102 601.461V607H186.648V601.445C186.648 601.003 186.583 600.648 186.453 600.383C186.323 600.112 186.133 599.917 185.883 599.797C185.633 599.672 185.326 599.609 184.961 599.609C184.602 599.609 184.273 599.685 183.977 599.836C183.685 599.987 183.432 600.195 183.219 600.461C183.01 600.727 182.846 601.031 182.727 601.375C182.612 601.714 182.555 602.073 182.555 602.453ZM193.805 607.156C193.216 607.156 192.682 607.057 192.203 606.859C191.729 606.656 191.32 606.372 190.977 606.008C190.638 605.643 190.378 605.211 190.195 604.711C190.013 604.211 189.922 603.664 189.922 603.07V602.742C189.922 602.055 190.023 601.443 190.227 600.906C190.43 600.365 190.706 599.906 191.055 599.531C191.404 599.156 191.799 598.872 192.242 598.68C192.685 598.487 193.143 598.391 193.617 598.391C194.221 598.391 194.742 598.495 195.18 598.703C195.622 598.911 195.984 599.203 196.266 599.578C196.547 599.948 196.755 600.385 196.891 600.891C197.026 601.391 197.094 601.938 197.094 602.531V603.18H190.781V602H195.648V601.891C195.628 601.516 195.549 601.151 195.414 600.797C195.284 600.443 195.076 600.151 194.789 599.922C194.503 599.693 194.112 599.578 193.617 599.578C193.289 599.578 192.987 599.648 192.711 599.789C192.435 599.924 192.198 600.128 192 600.398C191.802 600.669 191.648 601 191.539 601.391C191.43 601.781 191.375 602.232 191.375 602.742V603.07C191.375 603.471 191.43 603.849 191.539 604.203C191.654 604.552 191.818 604.859 192.031 605.125C192.25 605.391 192.513 605.599 192.82 605.75C193.133 605.901 193.487 605.977 193.883 605.977C194.393 605.977 194.826 605.872 195.18 605.664C195.534 605.456 195.844 605.177 196.109 604.828L196.984 605.523C196.802 605.799 196.57 606.062 196.289 606.312C196.008 606.562 195.661 606.766 195.25 606.922C194.844 607.078 194.362 607.156 193.805 607.156ZM202.164 605.969C202.508 605.969 202.826 605.898 203.117 605.758C203.409 605.617 203.648 605.424 203.836 605.18C204.023 604.93 204.13 604.646 204.156 604.328H205.531C205.505 604.828 205.336 605.294 205.023 605.727C204.716 606.154 204.312 606.5 203.812 606.766C203.312 607.026 202.763 607.156 202.164 607.156C201.529 607.156 200.974 607.044 200.5 606.82C200.031 606.596 199.641 606.289 199.328 605.898C199.021 605.508 198.789 605.06 198.633 604.555C198.482 604.044 198.406 603.505 198.406 602.938V602.609C198.406 602.042 198.482 601.505 198.633 601C198.789 600.49 199.021 600.039 199.328 599.648C199.641 599.258 200.031 598.951 200.5 598.727C200.974 598.503 201.529 598.391 202.164 598.391C202.826 598.391 203.404 598.526 203.898 598.797C204.393 599.062 204.781 599.427 205.062 599.891C205.349 600.349 205.505 600.87 205.531 601.453H204.156C204.13 601.104 204.031 600.789 203.859 600.508C203.693 600.227 203.464 600.003 203.172 599.836C202.885 599.664 202.549 599.578 202.164 599.578C201.721 599.578 201.349 599.667 201.047 599.844C200.75 600.016 200.513 600.25 200.336 600.547C200.164 600.839 200.039 601.164 199.961 601.523C199.888 601.878 199.852 602.24 199.852 602.609V602.938C199.852 603.307 199.888 603.672 199.961 604.031C200.034 604.391 200.156 604.716 200.328 605.008C200.505 605.299 200.742 605.534 201.039 605.711C201.341 605.883 201.716 605.969 202.164 605.969ZM210.695 598.547V599.656H206.125V598.547H210.695ZM207.672 596.492H209.117V604.906C209.117 605.193 209.161 605.409 209.25 605.555C209.339 605.701 209.453 605.797 209.594 605.844C209.734 605.891 209.885 605.914 210.047 605.914C210.167 605.914 210.292 605.904 210.422 605.883C210.557 605.857 210.659 605.836 210.727 605.82L210.734 607C210.62 607.036 210.469 607.07 210.281 607.102C210.099 607.138 209.878 607.156 209.617 607.156C209.263 607.156 208.938 607.086 208.641 606.945C208.344 606.805 208.107 606.57 207.93 606.242C207.758 605.909 207.672 605.461 207.672 604.898V596.492Z" fill="#FBF3F3"/>
<defs>
<clipPath id="clip0_553_3148">
<rect width="328" height="16" fill="white" transform="translate(18 18)"/>
</clipPath>
<clipPath id="clip1_553_3148">
<rect width="24" height="24" fill="white" transform="translate(18 110)"/>
</clipPath>
<clipPath id="clip2_553_3148">
<rect width="24" height="24" fill="white" transform="translate(242 198)"/>
</clipPath>
</defs>
</svg>
