<svg width="842" height="1072" viewBox="0 0 842 1072" fill="none" xmlns="http://www.w3.org/2000/svg">
<g clip-path="url(#clip0_552_2985)">
<path d="M82.7807 122.993C82.7807 101.511 79.911 165.887 77.162 187.192C75.3449 201.274 75.2891 243.948 75.2891 229.749" stroke="#1E1E1E" stroke-width="8" stroke-linecap="round" stroke-linejoin="round"/>
<path d="M92.1436 121.12C85.245 116.685 131.646 113.628 135.325 113.628C167.64 113.628 199.42 120.538 231.676 114.565C260.144 109.293 290.032 111.677 318.766 109.466C338.142 107.976 356.947 106.137 376.41 106.137C384.781 106.137 389.59 107.74 397.012 111.755C404.407 115.756 410.929 115.501 419.071 115.501C422.827 115.501 435.284 111.277 438.216 113.42C442.356 116.446 440.739 128.947 440.401 133.502C438.888 153.932 434.14 174.238 431.557 194.58C429.604 209.959 431.196 223.907 427.395 239.113" stroke="#1E1E1E" stroke-width="8" stroke-linecap="round" stroke-linejoin="round"/>
<path d="M79.0352 239.114C85.0233 228.934 107.001 230.314 116.91 229.853C136.817 228.927 156.43 227.876 176.427 227.876C216.238 227.876 256.25 229.374 295.877 225.067C307.031 223.855 318.17 224.131 329.381 224.131C341.155 224.131 351.374 226.851 362.885 227.772C383.837 229.448 407.13 221.121 427.397 227.876" stroke="#1E1E1E" stroke-width="8" stroke-linecap="round" stroke-linejoin="round"/>
<path d="M79.0362 289.682C68.6817 289.682 99.6888 287.809 110.043 287.809C130.999 287.809 151.763 287.809 172.682 287.809C206.303 287.809 240.134 289.682 273.923 289.682C302.468 289.682 331.012 289.682 359.557 289.682C374.681 289.682 389.273 285.936 404.507 285.936C410.264 285.936 416.022 285.936 421.779 285.936C425.75 285.936 435.184 283.867 429.271 287.809" stroke="#1E1E1E" stroke-width="8" stroke-linecap="round" stroke-linejoin="round"/>
<path d="M75.2891 343.997C103.163 343.997 131.118 338.378 158.946 338.378C188.898 338.378 220.542 338.277 250.198 343.06C275.045 347.068 299.136 340.251 323.762 340.251C345.821 340.251 367.879 340.251 389.938 340.251" stroke="#1E1E1E" stroke-width="8" stroke-linecap="round" stroke-linejoin="round"/>
<path d="M71.543 396.438C77.5778 391.409 93.7956 397.92 101.718 398.415C119.809 399.546 137.649 400.184 155.824 400.184C177.272 400.184 198.694 401.574 219.919 402.057C239.734 402.507 259.615 402.057 279.436 402.057C298.483 402.057 316.711 398.311 335.624 398.311" stroke="#1E1E1E" stroke-width="8" stroke-linecap="round" stroke-linejoin="round"/>
<rect width="480" height="1072" rx="6" stroke="#1E1E1E" stroke-width="4" stroke-linecap="round"/>
<rect x="32" y="928" width="416" height="80" rx="6" fill="#9747FF"/>
<path d="M39.8289 482.181C35.8856 472.041 58.0762 463.741 65.5028 463.191C77.9691 462.267 85.3008 470.435 92.6439 479.247" stroke="#1E1E1E" stroke-width="8" stroke-linecap="round" stroke-linejoin="round"/>
<path d="M47.1641 492.451C56.6411 487.962 84.0768 479.194 86.7753 495.385" stroke="#1E1E1E" stroke-width="8" stroke-linecap="round" stroke-linejoin="round"/>
<path d="M51.5654 521.792C49.3639 516.131 55.4486 513.618 60.3679 513.071C65.7776 512.47 70.6066 517.793 75.0387 520.325" stroke="#1E1E1E" stroke-width="8" stroke-linecap="round" stroke-linejoin="round"/>
<path d="M132.258 501.254C147.723 486.602 171.865 493.918 190.941 493.918C220.048 493.918 249.046 489.183 278.233 491.066C298.179 492.352 317.573 493.918 337.65 493.918C355.043 493.918 372.842 492.451 390.465 492.451" stroke="#1E1E1E" stroke-width="8" stroke-linecap="round" stroke-linejoin="round"/>
<path d="M54.5 577.541C63.3706 573.806 77.2289 574.607 86.8574 574.607C96.7424 574.607 106.505 577.812 116.118 574.607" stroke="#1E1E1E" stroke-width="8" stroke-linecap="round" stroke-linejoin="round"/>
<path d="M41.2976 615.685C41.2976 630.813 39.2624 649.545 45.6989 663.773C49.9479 673.166 88.0533 661.779 96.3133 661.246C142.022 658.298 187.585 658.231 233.486 658.231C271.599 658.231 309.171 650.895 347.266 650.895C373.853 650.895 400.801 649.428 427.141 649.428C437.971 649.428 435.263 629.366 434.395 621.554C433.907 617.16 428.466 608.133 430.727 604.275C432.035 602.044 437.14 600.179 434.15 596.939C431.869 594.468 427.505 595.146 424.533 595.146C407.866 595.146 391.226 597.806 374.326 596.287C341.622 593.348 306.939 593.598 274.483 598.814C246.842 603.256 218.969 606.883 190.94 606.883C171.4 606.883 152.11 610.242 132.583 609.817C115.693 609.45 98.4928 605.937 81.724 610.632C74.528 612.647 67.7206 615.845 60.3697 617.478C54.0942 618.873 49.0451 615.059 42.7647 617.152" stroke="#1E1E1E" stroke-width="8" stroke-linecap="round" stroke-linejoin="round"/>
<path d="M417.246 619.711C411.624 616.236 404.632 614.021 398.32 612.159C396.449 611.606 394.55 611.761 392.623 611.761C390.361 611.761 388.437 612.519 386.263 612.954C382.206 613.765 377.838 617.452 375.728 620.904C374.849 622.342 374.315 624.386 374.315 626.072C374.315 628.156 374.156 628.908 376.325 629.45C378.254 629.933 380.478 629.649 382.464 629.649C384.352 629.649 386.136 630.047 388.029 630.047C395.243 630.047 402.444 629.975 409.605 629.649C412.322 629.526 419.594 629.034 420.338 625.762C420.81 623.686 419.434 621.861 418.041 620.506C416.229 618.743 414.44 618.916 412.079 618.916" stroke="#1E1E1E" stroke-width="3" stroke-linecap="round" stroke-linejoin="round"/>
<path d="M395.384 619.314C392.813 617.028 390.665 621.747 391.85 623.863C393.562 626.919 399.372 625.598 399.69 622.096C399.955 619.181 396.873 618.077 394.589 618.121C391.577 618.179 391.534 622.333 394.589 622.494C395.47 622.54 397.07 622.815 397.526 621.854C398.244 620.338 396.052 620.091 395.008 620.352C390.904 621.378 394.78 625.488 397.548 623.642C400.322 621.793 395.714 617.963 393.882 620.992C392.907 622.604 394.107 623.338 395.384 622.096C396.883 620.639 396.417 619.821 394.589 620.506" stroke="#1E1E1E" stroke-width="3" stroke-linecap="round" stroke-linejoin="round"/>
<path d="M68.1532 637.675C67.41 637.675 69.0333 645.197 71.2862 643.709C72.7474 642.744 73.2293 640.225 72.5046 638.72C71.2091 636.029 67.7195 631.756 65.0492 635.094C63.3853 637.174 61.2329 640.92 64.0049 642.839C65.8124 644.09 70.2154 645.543 71.5763 642.897C73.1171 639.901 67.7933 637.817 65.6584 638.314C63.6516 638.78 63.234 644.317 64.8462 645.392C67.4731 647.143 70.2515 642.723 70.9961 640.808C72.0719 638.042 68.4348 634.462 65.7744 636.457C63.1409 638.432 64.4347 642.837 67.631 642.897C71.2688 642.966 71.4338 639.13 68.3563 637.792C65.8116 636.685 63.657 642.195 64.0339 644.174C64.812 648.259 70.4838 641.193 71.1702 639.88C72.5827 637.178 67.1782 636.194 66.0645 639.242C65.6368 640.413 64.6306 642.466 65.2523 643.709C66.1427 645.49 68.0248 642.618 68.3563 641.882C69.5284 639.277 65.3424 637.176 65.0492 640.547C64.9615 641.556 65.1598 643.104 66.5867 642.549C68.2037 641.92 68.1532 640.158 68.1532 638.72" stroke="#1E1E1E" stroke-width="3" stroke-linecap="round" stroke-linejoin="round"/>
<path d="M92.6944 635.587C90.5365 632.448 88.7653 638.977 89.1552 640.693C90.028 644.533 94.1882 642.448 95.8274 640.809C97.6244 639.012 99.6046 635.767 97.3648 633.528C95.1564 631.319 91.5511 631.384 89.7934 634.021C88.659 635.722 87.7535 640.101 89.1552 641.853C91.5701 644.872 95.315 640.776 97.1038 639.242C99.7818 636.947 98.8697 633.143 95.1891 632.57C91.7557 632.036 90.4998 637.002 89.8514 639.503C87.4983 648.58 105.404 635.088 94.783 634.543C91.9718 634.399 89.3185 636.016 91.2439 639.126C92.9133 641.823 96.4252 639.284 95.7693 636.661C94.9827 633.514 90.6405 637.774 91.1859 640.229C91.6294 642.225 97.8757 639.003 93.3326 636.515C90.0633 634.725 92.5565 642.268 94.4929 638.923C96.5818 635.315 89.608 636.156 92.6944 639.242" stroke="#1E1E1E" stroke-width="3" stroke-linecap="round" stroke-linejoin="round"/>
<path d="M120.37 632.454C118.592 628.898 115.974 628.894 114.394 632.773C112.909 636.418 113.038 640.749 117.237 642.085C120.183 643.023 124.819 640.618 126.52 638.198C129.059 634.585 120.618 633.015 118.803 632.454C115.927 631.565 111.74 632.278 113.408 636.37C114.988 640.25 119.299 640.248 122.226 638.14C126.468 635.086 122.28 629.92 119.877 632.773C119.028 633.78 116.019 639.288 118.629 639.91C121.885 640.685 125.613 633.97 121.414 632.57C118.869 631.722 113.3 633.315 114.858 637.038C115.954 639.656 121.301 637.519 122.052 635.587C122.878 633.463 113.901 630.692 116.773 635.819C118.522 638.942 124.319 637.907 121.82 634.543C118.822 630.507 117.479 640.864 121.414 637.154C124.104 634.617 120.274 631.395 118.397 634.427C116.181 638.007 124.1 636.065 120.892 633.499" stroke="#1E1E1E" stroke-width="3" stroke-linecap="round" stroke-linejoin="round"/>
<path d="M151.177 632.454C148.438 627.524 145.326 633.672 144.679 636.631C143.622 641.462 148.447 643.664 152.222 641.331C154.429 639.966 161.849 635.303 156.109 633.237C154.725 632.739 144.743 630.082 145.259 633.527C145.882 637.677 150.584 640.184 153.788 637.153C155.7 635.345 158.075 630.904 153.266 631.438C150.393 631.758 146.238 637.331 150.249 639.01C153.536 640.386 158.025 634.507 152.222 633.614C149.914 633.259 142.164 633.862 145.491 638.14C147.946 641.295 152.807 638.712 154.078 635.703C155.506 632.32 149.608 631.694 147.812 633.063C143.507 636.343 149.42 641.921 152.164 637.414C154.409 633.725 149.23 630.893 147.754 636.109C146.139 641.816 157.099 634.631 150.916 633.556C145.855 632.676 146.932 641.041 151.467 636.631C152.977 635.163 152.422 633.498 150.249 633.498C148.161 633.498 147.602 635.547 147 637.153" stroke="#1E1E1E" stroke-width="3" stroke-linecap="round" stroke-linejoin="round"/>
<path d="M178.853 632.454C178.853 629.223 175.274 628.78 173.138 630.916C171.244 632.81 168.326 638.48 171.571 640.228C178.127 643.758 186.848 630.598 176.358 630.365C166.895 630.155 174.151 643.823 180.1 635.587C182.536 632.213 179.112 628.303 176.039 631.699C174.181 633.753 173.477 640.141 177.547 636.602C180.593 633.953 178.019 628.818 174.153 630.713C170.869 632.323 172.571 639.101 176.648 637.965C179.541 637.159 180.819 631.304 177.025 630.974C174.001 630.711 169.823 638.442 173.138 638.11C175.623 637.862 179.37 631.552 175.604 631.641C172.745 631.709 171.662 639.652 175.72 636.921C176.354 636.494 179.655 633.491 177.982 632.802C176.382 632.142 174.612 634.099 174.269 635.47C173.329 639.233 179.099 636.355 176.242 633.498" stroke="#1E1E1E" stroke-width="3" stroke-linecap="round" stroke-linejoin="round"/>
<path d="M535.326 27.5111C534.156 27.5111 533.11 27.3094 532.19 26.906C531.275 26.5026 530.551 25.9429 530.016 25.227C529.488 24.5054 529.204 23.6702 529.164 22.7213H531.84C531.874 23.2384 532.048 23.6872 532.36 24.0679C532.678 24.4429 533.093 24.7327 533.604 24.9372C534.116 25.1418 534.684 25.2441 535.309 25.2441C535.997 25.2441 536.604 25.1247 537.133 24.8861C537.667 24.6475 538.085 24.3151 538.386 23.8889C538.687 23.4571 538.837 22.96 538.837 22.3975C538.837 21.8122 538.687 21.298 538.386 20.8548C538.09 20.406 537.656 20.0537 537.082 19.798C536.514 19.5423 535.826 19.4145 535.019 19.4145H533.545V17.2668H535.019C535.667 17.2668 536.235 17.1503 536.724 16.9173C537.218 16.6844 537.604 16.3605 537.883 15.9458C538.161 15.5253 538.301 15.0338 538.301 14.4713C538.301 13.9316 538.178 13.4628 537.934 13.0651C537.695 12.6617 537.354 12.3463 536.911 12.1191C536.474 11.8918 535.957 11.7781 535.36 11.7781C534.792 11.7781 534.261 11.8833 533.766 12.0935C533.278 12.298 532.88 12.5935 532.573 12.9798C532.266 13.3605 532.102 13.8179 532.079 14.352H529.531C529.559 13.4088 529.837 12.5793 530.366 11.8634C530.9 11.1475 531.604 10.5878 532.479 10.1844C533.354 9.78098 534.326 9.57928 535.394 9.57928C536.514 9.57928 537.479 9.79803 538.292 10.2355C539.11 10.6673 539.741 11.2441 540.184 11.9656C540.633 12.6872 540.854 13.477 540.849 14.335C540.854 15.3122 540.582 16.1418 540.031 16.8236C539.485 17.5054 538.758 17.9628 537.849 18.1958V18.3321C539.008 18.5083 539.906 18.9685 540.542 19.7128C541.184 20.4571 541.502 21.3804 541.497 22.4827C541.502 23.4429 541.235 24.3037 540.695 25.0651C540.161 25.8264 539.431 26.4259 538.505 26.8634C537.579 27.2952 536.519 27.5111 535.326 27.5111ZM546.621 27.4344C546.155 27.4344 545.754 27.2696 545.419 26.9401C545.084 26.6048 544.916 26.2014 544.916 25.7298C544.916 25.2639 545.084 24.8662 545.419 24.5367C545.754 24.2014 546.155 24.0338 546.621 24.0338C547.087 24.0338 547.487 24.2014 547.823 24.5367C548.158 24.8662 548.325 25.2639 548.325 25.7298C548.325 26.0423 548.246 26.3293 548.087 26.5906C547.933 26.8463 547.729 27.0509 547.473 27.2043C547.217 27.3577 546.933 27.4344 546.621 27.4344ZM559.918 27.2725V9.81791H570.861V12.085H562.551V17.4031H570.29V19.6617H562.551V25.0054H570.963V27.2725H559.918ZM576.266 19.4997V27.2725H573.718V14.1816H576.164V16.3122H576.326C576.627 15.6191 577.099 15.0622 577.741 14.6418C578.388 14.2213 579.204 14.0111 580.187 14.0111C581.079 14.0111 581.86 14.1986 582.531 14.5736C583.201 14.9429 583.721 15.4941 584.09 16.227C584.459 16.96 584.644 17.8662 584.644 18.9458V27.2725H582.096V19.2526C582.096 18.3037 581.849 17.5622 581.354 17.0281C580.86 16.4884 580.181 16.2185 579.317 16.2185C578.727 16.2185 578.201 16.3463 577.741 16.602C577.286 16.8577 576.925 17.2327 576.658 17.727C576.397 18.2156 576.266 18.8066 576.266 19.4997ZM593.717 14.1816V16.227H586.566V14.1816H593.717ZM588.484 11.0452H591.032V23.4287C591.032 23.923 591.106 24.2952 591.253 24.5452C591.401 24.7895 591.592 24.9571 591.825 25.048C592.063 25.1333 592.322 25.1759 592.6 25.1759C592.805 25.1759 592.984 25.1617 593.137 25.1333C593.29 25.1048 593.41 25.0821 593.495 25.0651L593.955 27.1702C593.807 27.227 593.597 27.2838 593.325 27.3406C593.052 27.4031 592.711 27.4372 592.302 27.4429C591.631 27.4543 591.006 27.335 590.427 27.085C589.847 26.835 589.378 26.4486 589.021 25.9259C588.663 25.4031 588.484 24.7469 588.484 23.9571V11.0452ZM601.581 27.5367C600.291 27.5367 599.18 27.2611 598.248 26.71C597.322 26.1531 596.606 25.3719 596.101 24.3662C595.601 23.3548 595.351 22.1702 595.351 20.8122C595.351 19.4713 595.601 18.2895 596.101 17.2668C596.606 16.2441 597.311 15.4458 598.214 14.8719C599.123 14.298 600.186 14.0111 601.402 14.0111C602.141 14.0111 602.856 14.1333 603.55 14.3776C604.243 14.6219 604.865 15.0054 605.416 15.5281C605.967 16.0509 606.402 16.7298 606.72 17.5651C607.038 18.3946 607.197 19.4031 607.197 20.5906V21.4941H596.791V19.585H604.7C604.7 18.9145 604.564 18.3208 604.291 17.8037C604.018 17.281 603.635 16.8691 603.141 16.5679C602.652 16.2668 602.078 16.1162 601.419 16.1162C600.703 16.1162 600.078 16.2923 599.544 16.6446C599.016 16.9912 598.606 17.4458 598.317 18.0083C598.033 18.5651 597.891 19.1702 597.891 19.8236V21.3151C597.891 22.1901 598.044 22.9344 598.351 23.548C598.663 24.1617 599.098 24.6304 599.655 24.9543C600.212 25.2725 600.862 25.4316 601.606 25.4316C602.089 25.4316 602.53 25.3634 602.927 25.227C603.325 25.085 603.669 24.8747 603.959 24.5963C604.248 24.3179 604.47 23.9742 604.623 23.5651L607.035 23.9997C606.842 24.71 606.496 25.3321 605.996 25.8662C605.501 26.3946 604.879 26.8066 604.129 27.102C603.385 27.3918 602.535 27.5367 601.581 27.5367ZM609.569 27.2725V14.1816H612.032V16.2611H612.168C612.407 15.5566 612.827 15.0026 613.43 14.5992C614.038 14.1901 614.725 13.9855 615.492 13.9855C615.651 13.9855 615.839 13.9912 616.055 14.0026C616.276 14.0139 616.449 14.0281 616.574 14.0452V16.4827C616.472 16.4543 616.29 16.423 616.029 16.3889C615.768 16.3492 615.506 16.3293 615.245 16.3293C614.643 16.3293 614.106 16.4571 613.634 16.7128C613.168 16.9628 612.799 17.3122 612.526 17.7611C612.253 18.2043 612.117 18.71 612.117 19.2781V27.2725H609.569ZM627.841 27.2725L623.001 9.81791H625.77L629.171 23.335H629.333L632.87 9.81791H635.614L639.151 23.3435H639.313L642.705 9.81791H645.483L640.634 27.2725H637.983L634.31 14.1986H634.174L630.501 27.2725H627.841ZM647.224 27.2725V14.1816H649.772V27.2725H647.224ZM648.511 12.1617C648.068 12.1617 647.687 12.0139 647.369 11.7185C647.057 11.4173 646.9 11.0594 646.9 10.6446C646.9 10.2242 647.057 9.86621 647.369 9.57076C647.687 9.26962 648.068 9.11905 648.511 9.11905C648.954 9.11905 649.332 9.26962 649.645 9.57076C649.963 9.86621 650.122 10.2242 650.122 10.6446C650.122 11.0594 649.963 11.4173 649.645 11.7185C649.332 12.0139 648.954 12.1617 648.511 12.1617ZM652.949 27.2725V9.81791H663.773V12.085H655.583V17.4031H662.998V19.6617H655.583V27.2725H652.949ZM666.351 27.2725V14.1816H668.9V27.2725H666.351ZM667.638 12.1617C667.195 12.1617 666.814 12.0139 666.496 11.7185C666.184 11.4173 666.027 11.0594 666.027 10.6446C666.027 10.2242 666.184 9.86621 666.496 9.57076C666.814 9.26962 667.195 9.11905 667.638 9.11905C668.081 9.11905 668.459 9.26962 668.772 9.57076C669.09 9.86621 669.249 10.2242 669.249 10.6446C669.249 11.0594 669.09 11.4173 668.772 11.7185C668.459 12.0139 668.081 12.1617 667.638 12.1617ZM677.767 32.1816V14.1816H680.256V16.3037H680.469C680.617 16.031 680.83 15.7156 681.108 15.3577C681.387 14.9997 681.773 14.6872 682.267 14.4202C682.762 14.1475 683.415 14.0111 684.228 14.0111C685.284 14.0111 686.228 14.2781 687.057 14.8122C687.887 15.3463 688.537 16.1162 689.009 17.1219C689.486 18.1276 689.725 19.3378 689.725 20.7526C689.725 22.1673 689.489 23.3804 689.017 24.3918C688.546 25.3975 687.898 26.173 687.074 26.7185C686.25 27.2583 685.31 27.5281 684.253 27.5281C683.458 27.5281 682.807 27.3946 682.301 27.1276C681.801 26.8605 681.409 26.548 681.125 26.1901C680.841 25.8321 680.622 25.5139 680.469 25.2355H680.316V32.1816H677.767ZM680.265 20.727C680.265 21.6475 680.398 22.4543 680.665 23.1475C680.932 23.8406 681.319 24.3833 681.824 24.7753C682.33 25.1617 682.949 25.3548 683.682 25.3548C684.444 25.3548 685.08 25.1531 685.591 24.7497C686.103 24.3406 686.489 23.7867 686.75 23.0878C687.017 22.3889 687.151 21.602 687.151 20.727C687.151 19.8634 687.02 19.0878 686.759 18.4003C686.503 17.7128 686.117 17.1702 685.6 16.7725C685.088 16.3747 684.449 16.1759 683.682 16.1759C682.944 16.1759 682.319 16.3662 681.807 16.7469C681.301 17.1276 680.918 17.6588 680.657 18.3406C680.395 19.0225 680.265 19.8179 680.265 20.727ZM695.934 27.5622C695.104 27.5622 694.354 27.4088 693.684 27.102C693.013 26.7895 692.482 26.3378 692.09 25.7469C691.703 25.156 691.51 24.4316 691.51 23.5736C691.51 22.835 691.652 22.227 691.936 21.7497C692.22 21.2725 692.604 20.8946 693.087 20.6162C693.57 20.3378 694.11 20.1276 694.706 19.9855C695.303 19.8435 695.911 19.7355 696.53 19.6617C697.314 19.5708 697.951 19.4969 698.439 19.4401C698.928 19.3776 699.283 19.2781 699.505 19.1418C699.726 19.0054 699.837 18.7838 699.837 18.477V18.4173C699.837 17.673 699.627 17.0963 699.206 16.6872C698.791 16.2781 698.172 16.0736 697.348 16.0736C696.49 16.0736 695.814 16.2639 695.32 16.6446C694.831 17.0196 694.493 17.4372 694.306 17.8975L691.911 17.352C692.195 16.5566 692.61 15.9145 693.155 15.4259C693.706 14.9316 694.34 14.5736 695.056 14.352C695.772 14.1247 696.524 14.0111 697.314 14.0111C697.837 14.0111 698.391 14.0736 698.976 14.1986C699.567 14.3179 700.118 14.5395 700.63 14.8634C701.147 15.1872 701.57 15.6503 701.899 16.2526C702.229 16.8492 702.394 17.6247 702.394 18.5793V27.2725H699.905V25.4827H699.803C699.638 25.8122 699.391 26.1361 699.061 26.4543C698.732 26.7725 698.309 27.0367 697.791 27.2469C697.274 27.4571 696.655 27.5622 695.934 27.5622ZM696.488 25.5168C697.192 25.5168 697.794 25.3776 698.294 25.0992C698.8 24.8208 699.184 24.4571 699.445 24.0083C699.712 23.5537 699.845 23.0679 699.845 22.5509V20.8634C699.755 20.9543 699.578 21.0395 699.317 21.1191C699.061 21.1929 698.769 21.2583 698.439 21.3151C698.11 21.3662 697.789 21.4145 697.476 21.46C697.164 21.4997 696.902 21.5338 696.692 21.5622C696.198 21.6247 695.746 21.7298 695.337 21.8776C694.934 22.0253 694.61 22.2384 694.365 22.5168C694.127 22.7895 694.007 23.1531 694.007 23.6077C694.007 24.2384 694.24 24.7156 694.706 25.0395C695.172 25.3577 695.766 25.5168 696.488 25.5168ZM715.142 17.3776L712.832 17.7867C712.735 17.4912 712.582 17.21 712.372 16.9429C712.167 16.6759 711.889 16.4571 711.536 16.2867C711.184 16.1162 710.744 16.031 710.215 16.031C709.494 16.031 708.892 16.1929 708.409 16.5168C707.926 16.835 707.684 17.2469 707.684 17.7526C707.684 18.1901 707.846 18.5423 708.17 18.8094C708.494 19.0764 709.017 19.2952 709.738 19.4656L711.818 19.9429C713.022 20.2213 713.92 20.6503 714.511 21.2298C715.102 21.8094 715.397 22.5622 715.397 23.4884C715.397 24.2725 715.17 24.9713 714.715 25.585C714.267 26.1929 713.639 26.6702 712.832 27.0168C712.031 27.3634 711.102 27.5367 710.045 27.5367C708.579 27.5367 707.383 27.2242 706.457 26.5992C705.531 25.9685 704.963 25.0736 704.752 23.9145L707.215 23.5395C707.369 24.1816 707.684 24.6673 708.161 24.9969C708.639 25.3208 709.261 25.4827 710.028 25.4827C710.863 25.4827 711.531 25.3094 712.031 24.9628C712.531 24.6105 712.781 24.1816 712.781 23.6759C712.781 23.2668 712.627 22.923 712.321 22.6446C712.019 22.3662 711.556 22.156 710.931 22.0139L708.715 21.5281C707.494 21.2497 706.59 20.8066 706.005 20.1986C705.426 19.5906 705.136 18.8208 705.136 17.8889C705.136 17.1162 705.352 16.4401 705.784 15.8605C706.215 15.281 706.812 14.8293 707.573 14.5054C708.335 14.1759 709.207 14.0111 710.19 14.0111C711.605 14.0111 712.718 14.3179 713.531 14.9316C714.343 15.5395 714.88 16.3548 715.142 17.3776ZM727.553 17.3776L725.243 17.7867C725.147 17.4912 724.993 17.21 724.783 16.9429C724.578 16.6759 724.3 16.4571 723.948 16.2867C723.595 16.1162 723.155 16.031 722.627 16.031C721.905 16.031 721.303 16.1929 720.82 16.5168C720.337 16.835 720.095 17.2469 720.095 17.7526C720.095 18.1901 720.257 18.5423 720.581 18.8094C720.905 19.0764 721.428 19.2952 722.149 19.4656L724.229 19.9429C725.433 20.2213 726.331 20.6503 726.922 21.2298C727.513 21.8094 727.808 22.5622 727.808 23.4884C727.808 24.2725 727.581 24.9713 727.127 25.585C726.678 26.1929 726.05 26.6702 725.243 27.0168C724.442 27.3634 723.513 27.5367 722.456 27.5367C720.99 27.5367 719.794 27.2242 718.868 26.5992C717.942 25.9685 717.374 25.0736 717.164 23.9145L719.627 23.5395C719.78 24.1816 720.095 24.6673 720.573 24.9969C721.05 25.3208 721.672 25.4827 722.439 25.4827C723.274 25.4827 723.942 25.3094 724.442 24.9628C724.942 24.6105 725.192 24.1816 725.192 23.6759C725.192 23.2668 725.039 22.923 724.732 22.6446C724.431 22.3662 723.968 22.156 723.343 22.0139L721.127 21.5281C719.905 21.2497 719.002 20.8066 718.416 20.1986C717.837 19.5906 717.547 18.8208 717.547 17.8889C717.547 17.1162 717.763 16.4401 718.195 15.8605C718.627 15.281 719.223 14.8293 719.985 14.5054C720.746 14.1759 721.618 14.0111 722.601 14.0111C724.016 14.0111 725.129 14.3179 725.942 14.9316C726.754 15.5395 727.291 16.3548 727.553 17.3776ZM732.992 27.2725L729.14 14.1816H731.774L734.339 23.7952H734.467L737.041 14.1816H739.674L742.231 23.7526H742.359L744.907 14.1816H747.541L743.697 27.2725H741.098L738.438 17.8208H738.242L735.583 27.2725H732.992ZM754.619 27.5367C753.391 27.5367 752.32 27.2554 751.406 26.6929C750.491 26.1304 749.781 25.3435 749.275 24.3321C748.769 23.3208 748.516 22.1389 748.516 20.7867C748.516 19.4287 748.769 18.2412 749.275 17.2242C749.781 16.2071 750.491 15.4173 751.406 14.8548C752.32 14.2923 753.391 14.0111 754.619 14.0111C755.846 14.0111 756.917 14.2923 757.832 14.8548C758.747 15.4173 759.457 16.2071 759.963 17.2242C760.468 18.2412 760.721 19.4287 760.721 20.7867C760.721 22.1389 760.468 23.3208 759.963 24.3321C759.457 25.3435 758.747 26.1304 757.832 26.6929C756.917 27.2554 755.846 27.5367 754.619 27.5367ZM754.627 25.3975C755.423 25.3975 756.082 25.1872 756.605 24.7668C757.127 24.3463 757.514 23.7867 757.764 23.0878C758.019 22.3889 758.147 21.6191 758.147 20.7781C758.147 19.9429 758.019 19.1759 757.764 18.477C757.514 17.7725 757.127 17.2071 756.605 16.781C756.082 16.3548 755.423 16.1418 754.627 16.1418C753.826 16.1418 753.161 16.3548 752.633 16.781C752.11 17.2071 751.721 17.7725 751.465 18.477C751.215 19.1759 751.09 19.9429 751.09 20.7781C751.09 21.6191 751.215 22.3889 751.465 23.0878C751.721 23.7867 752.11 24.3463 752.633 24.7668C753.161 25.1872 753.826 25.3975 754.627 25.3975ZM763.11 27.2725V14.1816H765.573V16.2611H765.709C765.948 15.5566 766.368 15.0026 766.97 14.5992C767.578 14.1901 768.266 13.9855 769.033 13.9855C769.192 13.9855 769.379 13.9912 769.595 14.0026C769.817 14.0139 769.99 14.0281 770.115 14.0452V16.4827C770.013 16.4543 769.831 16.423 769.57 16.3889C769.308 16.3492 769.047 16.3293 768.786 16.3293C768.183 16.3293 767.646 16.4571 767.175 16.7128C766.709 16.9628 766.34 17.3122 766.067 17.7611C765.794 18.2043 765.658 18.71 765.658 19.2781V27.2725H763.11ZM776.296 27.5281C775.239 27.5281 774.296 27.2583 773.467 26.7185C772.643 26.173 771.995 25.3975 771.524 24.3918C771.058 23.3804 770.825 22.1673 770.825 20.7526C770.825 19.3378 771.06 18.1276 771.532 17.1219C772.009 16.1162 772.663 15.3463 773.492 14.8122C774.322 14.2781 775.262 14.0111 776.313 14.0111C777.126 14.0111 777.779 14.1475 778.274 14.4202C778.774 14.6872 779.16 14.9997 779.433 15.3577C779.711 15.7156 779.927 16.031 780.08 16.3037H780.234V9.81791H782.782V27.2725H780.293V25.2355H780.08C779.927 25.5139 779.705 25.8321 779.416 26.1901C779.131 26.548 778.739 26.8605 778.239 27.1276C777.739 27.3946 777.092 27.5281 776.296 27.5281ZM776.859 25.3548C777.592 25.3548 778.211 25.1617 778.717 24.7753C779.228 24.3833 779.614 23.8406 779.876 23.1475C780.143 22.4543 780.276 21.6475 780.276 20.727C780.276 19.8179 780.146 19.0225 779.884 18.3406C779.623 17.6588 779.239 17.1276 778.734 16.7469C778.228 16.3662 777.603 16.1759 776.859 16.1759C776.092 16.1759 775.453 16.3747 774.941 16.7725C774.43 17.1702 774.043 17.7128 773.782 18.4003C773.526 19.0878 773.399 19.8634 773.399 20.727C773.399 21.602 773.529 22.3889 773.791 23.0878C774.052 23.7867 774.438 24.3406 774.95 24.7497C775.467 25.1531 776.103 25.3548 776.859 25.3548Z" fill="#1E1E1E"/>
<path d="M49.8366 35.017C53.5137 29.1336 50.34 32.852 48.4628 35.6677C46.0927 39.223 41.9863 42.0779 39.4245 45.7183C36.9361 49.2545 27.8448 53.3453 30.9647 55.8412C35.1908 59.2222 40.5173 65.1483 43.9075 69.5072C46.849 73.289 51.1382 74.1118 51.1382 79.2685" stroke="#1E1E1E" stroke-width="8" stroke-linecap="round" stroke-linejoin="round"/>
<path d="M69.358 57.1424C68.1718 55.7867 87.1479 56.0396 89.893 55.5516C99.6886 53.8102 109.871 54.5393 119.828 54.5393C126.887 54.5393 141.031 51.9811 146.147 54.5393" stroke="#1E1E1E" stroke-width="8" stroke-linecap="round" stroke-linejoin="round"/>
<path d="M354.312 52.3051C350.875 52.3051 348.32 50.624 353.471 50.624C358.67 50.624 363.869 50.624 369.068 50.624C377.037 50.624 385.007 50.624 392.976 50.624" stroke="#1E1E1E" stroke-width="8" stroke-linecap="round" stroke-linejoin="round"/>
<path d="M429.96 23.7274C434.115 23.2656 430.317 23.3524 427.345 28.0234C422.586 35.501 418.913 43.1792 415.67 51.4649C412.138 60.4917 407.16 69.3259 403.062 77.5214" stroke="#1E1E1E" stroke-width="8" stroke-linecap="round" stroke-linejoin="round"/>
<path d="M433.32 53.986C433.836 49.8605 459.841 52.305 463.579 52.305" stroke="#1E1E1E" stroke-width="8" stroke-linecap="round" stroke-linejoin="round"/>
</g>
<defs>
<clipPath id="clip0_552_2985">
<rect width="842" height="1072" fill="white"/>
</clipPath>
</defs>
</svg>
