<svg width="1424" height="3096" viewBox="0 0 1424 3096" fill="none" xmlns="http://www.w3.org/2000/svg">
<path d="M40 52C40 45.3726 45.3726 40 52 40H1372C1378.63 40 1384 45.3726 1384 52V3044C1384 3050.63 1378.63 3056 1372 3056H52C45.3726 3056 40 3050.63 40 3044V52Z" fill="#FBFBFB"/>
<path d="M52 41H1372V39H52V41ZM1383 52V3044H1385V52H1383ZM1372 3055H52V3057H1372V3055ZM41 3044V52H39V3044H41ZM52 3055C45.9249 3055 41 3050.08 41 3044H39C39 3051.18 44.8203 3057 52 3057V3055ZM1383 3044C1383 3050.08 1378.08 3055 1372 3055V3057C1379.18 3057 1385 3051.18 1385 3044H1383ZM1372 41C1378.08 41 1383 45.9249 1383 52H1385C1385 44.8203 1379.18 39 1372 39V41ZM52 39C44.8203 39 39 44.8203 39 52H41C41 45.9249 45.9249 41 52 41V39Z" fill="#E6E6E6"/>
<path d="M173.984 282.495C173.984 261.013 171.114 325.389 168.365 346.694C166.548 360.777 166.492 403.45 166.492 389.251" stroke="#1E1E1E" stroke-width="8" stroke-linecap="round" stroke-linejoin="round"/>
<path d="M183.347 280.622C176.448 276.187 222.849 273.13 226.528 273.13C258.843 273.13 290.623 280.04 322.879 274.067C351.347 268.795 381.235 271.179 409.969 268.968C429.345 267.478 448.15 265.639 467.613 265.639C475.984 265.639 480.793 267.242 488.215 271.257C495.61 275.258 502.132 275.003 510.274 275.003C514.03 275.003 526.487 270.779 529.419 272.922C533.559 275.947 531.942 288.449 531.604 293.004C530.091 313.433 525.343 333.74 522.76 354.082C520.807 369.461 522.399 383.409 518.598 398.615" stroke="#1E1E1E" stroke-width="8" stroke-linecap="round" stroke-linejoin="round"/>
<path d="M170.238 398.615C176.226 388.435 198.204 389.816 208.113 389.355C228.02 388.429 247.633 387.378 267.63 387.378C307.441 387.378 347.453 388.876 387.08 384.568C398.234 383.356 409.373 383.632 420.584 383.632C432.358 383.632 442.577 386.353 454.088 387.274C475.04 388.95 498.333 380.622 518.6 387.378" stroke="#1E1E1E" stroke-width="8" stroke-linecap="round" stroke-linejoin="round"/>
<path d="M170.239 449.184C159.885 449.184 190.892 447.311 201.246 447.311C222.202 447.311 242.966 447.311 263.885 447.311C297.506 447.311 331.337 449.184 365.126 449.184C393.671 449.184 422.215 449.184 450.76 449.184C465.884 449.184 480.476 445.438 495.71 445.438C501.467 445.438 507.225 445.438 512.982 445.438C516.953 445.438 526.387 443.369 520.474 447.311" stroke="#1E1E1E" stroke-width="8" stroke-linecap="round" stroke-linejoin="round"/>
<path d="M166.492 503.498C194.366 503.498 222.322 497.88 250.149 497.88C280.101 497.88 311.745 497.779 341.401 502.562C366.248 506.569 390.339 499.752 414.965 499.752C437.024 499.752 459.083 499.752 481.141 499.752" stroke="#1E1E1E" stroke-width="8" stroke-linecap="round" stroke-linejoin="round"/>
<path d="M162.746 555.94C168.781 550.911 184.999 557.422 192.921 557.917C211.012 559.048 228.852 559.686 247.027 559.686C268.475 559.686 289.897 561.076 311.122 561.559C330.938 562.009 350.818 561.559 370.639 561.559C389.686 561.559 407.914 557.813 426.827 557.813" stroke="#1E1E1E" stroke-width="8" stroke-linecap="round" stroke-linejoin="round"/>
<rect x="104" y="152" width="480" height="1072" rx="6" stroke="#1E1E1E" stroke-width="4" stroke-linecap="round"/>
<path d="M144.07 707.324C167.078 704.448 190.376 703.137 213.481 701.288C222.598 700.559 233.52 698.617 243.012 699.672C250.398 700.492 253.774 699.033 260.473 695.684" stroke="#1E1E1E" stroke-width="8" stroke-linecap="round" stroke-linejoin="round"/>
<path d="M158.759 737.337C162.63 735.617 166.827 736.115 170.978 736.115C178.49 736.115 186.088 734.338 193.583 733.672C215.063 731.762 236.471 729.49 258.004 727.834C304.563 724.252 351.053 724.19 397.571 720.231C435.295 717.02 472.727 714.121 510.664 714.121C516.77 714.121 519.86 715.051 520.507 721.521C521.151 727.961 522.257 733.873 521.05 740.392C519.955 746.303 520.648 751.675 521.661 757.498C522.562 762.681 528.29 766.266 527.703 771.55C527.029 777.609 521.323 771.279 518.267 770.6C510.842 768.95 501.014 769.973 493.557 770.6C467.689 772.776 441.811 775.056 415.9 777.049C360.099 781.341 304.073 780.252 248.229 784.719C231.254 786.077 212.907 785.947 196.027 783.769C182.788 782.061 169.569 782.576 156.384 781.257C149.689 780.588 151.26 780.409 152.379 775.487C153.528 770.428 151.541 765.785 151.428 760.825C151.321 756.131 150.206 751.438 150.206 746.841C150.206 740.935 151.754 737.988 148.984 732.45" stroke="#1E1E1E" stroke-width="8" stroke-linecap="round" stroke-linejoin="round"/>
<path d="M621.335 625.273L616.494 607.818H619.264L622.665 621.335H622.827L626.364 607.818H629.108L632.645 621.344H632.807L636.199 607.818H638.977L634.128 625.273H631.477L627.804 612.199H627.668L623.994 625.273H621.335ZM643.239 625.562C642.409 625.562 641.659 625.409 640.989 625.102C640.318 624.79 639.787 624.338 639.395 623.747C639.008 623.156 638.815 622.432 638.815 621.574C638.815 620.835 638.957 620.227 639.241 619.75C639.526 619.273 639.909 618.895 640.392 618.616C640.875 618.338 641.415 618.128 642.011 617.986C642.608 617.844 643.216 617.736 643.835 617.662C644.619 617.571 645.256 617.497 645.744 617.44C646.233 617.378 646.588 617.278 646.81 617.142C647.031 617.006 647.142 616.784 647.142 616.477V616.418C647.142 615.673 646.932 615.097 646.511 614.687C646.097 614.278 645.477 614.074 644.653 614.074C643.795 614.074 643.119 614.264 642.625 614.645C642.136 615.02 641.798 615.437 641.611 615.898L639.216 615.352C639.5 614.557 639.915 613.915 640.46 613.426C641.011 612.932 641.645 612.574 642.361 612.352C643.077 612.125 643.83 612.011 644.619 612.011C645.142 612.011 645.696 612.074 646.281 612.199C646.872 612.318 647.423 612.54 647.935 612.864C648.452 613.187 648.875 613.651 649.205 614.253C649.534 614.849 649.699 615.625 649.699 616.58V625.273H647.21V623.483H647.108C646.943 623.812 646.696 624.136 646.366 624.455C646.037 624.773 645.614 625.037 645.097 625.247C644.58 625.457 643.96 625.562 643.239 625.562ZM643.793 623.517C644.497 623.517 645.099 623.378 645.599 623.099C646.105 622.821 646.489 622.457 646.75 622.009C647.017 621.554 647.151 621.068 647.151 620.551V618.864C647.06 618.955 646.883 619.04 646.622 619.119C646.366 619.193 646.074 619.259 645.744 619.315C645.415 619.366 645.094 619.415 644.781 619.46C644.469 619.5 644.207 619.534 643.997 619.562C643.503 619.625 643.051 619.73 642.642 619.878C642.239 620.026 641.915 620.239 641.67 620.517C641.432 620.79 641.312 621.153 641.312 621.608C641.312 622.239 641.545 622.716 642.011 623.04C642.477 623.358 643.071 623.517 643.793 623.517ZM658.748 612.182V614.227H651.597V612.182H658.748ZM653.515 609.045H656.063V621.429C656.063 621.923 656.137 622.295 656.285 622.545C656.432 622.79 656.623 622.957 656.856 623.048C657.094 623.134 657.353 623.176 657.631 623.176C657.836 623.176 658.015 623.162 658.168 623.134C658.322 623.105 658.441 623.082 658.526 623.065L658.986 625.17C658.839 625.227 658.628 625.284 658.356 625.341C658.083 625.403 657.742 625.437 657.333 625.443C656.663 625.455 656.038 625.335 655.458 625.085C654.878 624.835 654.41 624.449 654.052 623.926C653.694 623.403 653.515 622.747 653.515 621.957V609.045ZM666.612 625.537C665.322 625.537 664.212 625.261 663.28 624.71C662.354 624.153 661.638 623.372 661.132 622.366C660.632 621.355 660.382 620.17 660.382 618.812C660.382 617.472 660.632 616.29 661.132 615.267C661.638 614.244 662.342 613.446 663.246 612.872C664.155 612.298 665.217 612.011 666.433 612.011C667.172 612.011 667.888 612.134 668.581 612.378C669.274 612.622 669.896 613.006 670.447 613.528C670.998 614.051 671.433 614.73 671.751 615.565C672.07 616.395 672.229 617.403 672.229 618.591V619.494H661.822V617.585H669.731C669.731 616.915 669.595 616.321 669.322 615.804C669.05 615.281 668.666 614.869 668.172 614.568C667.683 614.267 667.109 614.116 666.45 614.116C665.734 614.116 665.109 614.293 664.575 614.645C664.047 614.991 663.638 615.446 663.348 616.009C663.064 616.565 662.922 617.17 662.922 617.824V619.315C662.922 620.19 663.075 620.935 663.382 621.548C663.694 622.162 664.129 622.631 664.686 622.955C665.243 623.273 665.893 623.432 666.638 623.432C667.121 623.432 667.561 623.364 667.959 623.227C668.356 623.085 668.7 622.875 668.99 622.597C669.28 622.318 669.501 621.974 669.655 621.565L672.067 622C671.873 622.71 671.527 623.332 671.027 623.866C670.533 624.395 669.91 624.807 669.16 625.102C668.416 625.392 667.567 625.537 666.612 625.537ZM674.6 625.273V612.182H677.063V614.261H677.199C677.438 613.557 677.859 613.003 678.461 612.599C679.069 612.19 679.756 611.986 680.523 611.986C680.682 611.986 680.87 611.991 681.086 612.003C681.307 612.014 681.481 612.028 681.606 612.045V614.483C681.503 614.455 681.322 614.423 681.06 614.389C680.799 614.349 680.538 614.33 680.276 614.33C679.674 614.33 679.137 614.457 678.665 614.713C678.199 614.963 677.83 615.312 677.557 615.761C677.285 616.205 677.148 616.71 677.148 617.278V625.273H674.6ZM683.355 625.273V612.182H685.903V625.273H683.355ZM684.642 610.162C684.199 610.162 683.818 610.014 683.5 609.719C683.187 609.418 683.031 609.06 683.031 608.645C683.031 608.224 683.187 607.866 683.5 607.571C683.818 607.27 684.199 607.119 684.642 607.119C685.085 607.119 685.463 607.27 685.775 607.571C686.094 607.866 686.253 608.224 686.253 608.645C686.253 609.06 686.094 609.418 685.775 609.719C685.463 610.014 685.085 610.162 684.642 610.162ZM697.168 619.844V612.182H699.725V625.273H697.219V623.006H697.083C696.782 623.705 696.299 624.287 695.634 624.753C694.975 625.213 694.154 625.443 693.171 625.443C692.33 625.443 691.586 625.259 690.938 624.889C690.296 624.514 689.79 623.96 689.421 623.227C689.057 622.494 688.876 621.588 688.876 620.509V612.182H691.424V620.202C691.424 621.094 691.671 621.804 692.165 622.332C692.66 622.861 693.302 623.125 694.091 623.125C694.569 623.125 695.043 623.006 695.515 622.767C695.992 622.528 696.387 622.168 696.699 621.685C697.018 621.202 697.174 620.588 697.168 619.844ZM712.503 615.378L710.193 615.787C710.096 615.491 709.943 615.21 709.733 614.943C709.528 614.676 709.25 614.457 708.897 614.287C708.545 614.116 708.105 614.031 707.576 614.031C706.855 614.031 706.253 614.193 705.77 614.517C705.287 614.835 705.045 615.247 705.045 615.753C705.045 616.19 705.207 616.543 705.531 616.81C705.855 617.077 706.378 617.295 707.099 617.466L709.179 617.943C710.383 618.222 711.281 618.651 711.872 619.23C712.463 619.81 712.758 620.562 712.758 621.489C712.758 622.273 712.531 622.972 712.076 623.585C711.628 624.193 711 624.67 710.193 625.017C709.392 625.364 708.463 625.537 707.406 625.537C705.94 625.537 704.744 625.224 703.818 624.599C702.892 623.969 702.324 623.074 702.113 621.915L704.576 621.54C704.73 622.182 705.045 622.668 705.522 622.997C706 623.321 706.622 623.483 707.389 623.483C708.224 623.483 708.892 623.31 709.392 622.963C709.892 622.611 710.142 622.182 710.142 621.676C710.142 621.267 709.988 620.923 709.682 620.645C709.38 620.366 708.917 620.156 708.292 620.014L706.076 619.528C704.855 619.25 703.951 618.807 703.366 618.199C702.787 617.591 702.497 616.821 702.497 615.889C702.497 615.116 702.713 614.44 703.145 613.861C703.576 613.281 704.173 612.83 704.934 612.506C705.696 612.176 706.568 612.011 707.551 612.011C708.966 612.011 710.079 612.318 710.892 612.932C711.704 613.54 712.241 614.355 712.503 615.378ZM724.537 602.193V630.898H722.253V602.193H724.537ZM744.39 612.403C744.299 611.597 743.924 610.972 743.265 610.528C742.606 610.08 741.777 609.855 740.777 609.855C740.061 609.855 739.441 609.969 738.919 610.196C738.396 610.418 737.99 610.724 737.7 611.116C737.416 611.503 737.274 611.943 737.274 612.437C737.274 612.852 737.37 613.21 737.564 613.511C737.762 613.812 738.021 614.065 738.339 614.27C738.663 614.469 739.01 614.636 739.379 614.773C739.748 614.903 740.103 615.011 740.444 615.097L742.149 615.54C742.706 615.676 743.277 615.861 743.862 616.094C744.447 616.327 744.99 616.634 745.49 617.014C745.99 617.395 746.393 617.866 746.7 618.429C747.012 618.991 747.169 619.665 747.169 620.449C747.169 621.437 746.913 622.315 746.402 623.082C745.896 623.849 745.16 624.455 744.194 624.898C743.234 625.341 742.072 625.562 740.708 625.562C739.402 625.562 738.271 625.355 737.316 624.94C736.362 624.526 735.615 623.937 735.075 623.176C734.535 622.409 734.237 621.5 734.18 620.449H736.822C736.873 621.08 737.078 621.605 737.436 622.026C737.799 622.44 738.262 622.75 738.825 622.955C739.393 623.153 740.015 623.253 740.691 623.253C741.436 623.253 742.098 623.136 742.677 622.903C743.262 622.665 743.723 622.335 744.058 621.915C744.393 621.489 744.561 620.991 744.561 620.423C744.561 619.906 744.413 619.483 744.118 619.153C743.828 618.824 743.433 618.551 742.933 618.335C742.439 618.119 741.879 617.929 741.254 617.764L739.191 617.202C737.794 616.821 736.686 616.261 735.868 615.523C735.055 614.784 734.649 613.807 734.649 612.591C734.649 611.585 734.922 610.707 735.467 609.957C736.012 609.207 736.751 608.625 737.683 608.21C738.615 607.79 739.666 607.58 740.836 607.58C742.018 607.58 743.061 607.787 743.964 608.202C744.873 608.616 745.589 609.187 746.112 609.915C746.635 610.636 746.907 611.466 746.93 612.403H744.39ZM755.297 625.537C754.007 625.537 752.897 625.261 751.965 624.71C751.039 624.153 750.323 623.372 749.817 622.366C749.317 621.355 749.067 620.17 749.067 618.812C749.067 617.472 749.317 616.29 749.817 615.267C750.323 614.244 751.027 613.446 751.931 612.872C752.84 612.298 753.902 612.011 755.118 612.011C755.857 612.011 756.573 612.134 757.266 612.378C757.959 612.622 758.581 613.006 759.132 613.528C759.684 614.051 760.118 614.73 760.436 615.565C760.755 616.395 760.914 617.403 760.914 618.591V619.494H750.507V617.585H758.416C758.416 616.915 758.28 616.321 758.007 615.804C757.735 615.281 757.351 614.869 756.857 614.568C756.368 614.267 755.794 614.116 755.135 614.116C754.419 614.116 753.794 614.293 753.26 614.645C752.732 614.991 752.323 615.446 752.033 616.009C751.749 616.565 751.607 617.17 751.607 617.824V619.315C751.607 620.19 751.76 620.935 752.067 621.548C752.38 622.162 752.814 622.631 753.371 622.955C753.928 623.273 754.578 623.432 755.323 623.432C755.806 623.432 756.246 623.364 756.644 623.227C757.041 623.085 757.385 622.875 757.675 622.597C757.965 622.318 758.186 621.974 758.34 621.565L760.752 622C760.559 622.71 760.212 623.332 759.712 623.866C759.218 624.395 758.595 624.807 757.845 625.102C757.101 625.392 756.252 625.537 755.297 625.537ZM763.285 625.273V612.182H765.748V614.261H765.885C766.123 613.557 766.544 613.003 767.146 612.599C767.754 612.19 768.441 611.986 769.208 611.986C769.367 611.986 769.555 611.991 769.771 612.003C769.992 612.014 770.166 612.028 770.291 612.045V614.483C770.188 614.455 770.007 614.423 769.745 614.389C769.484 614.349 769.223 614.33 768.961 614.33C768.359 614.33 767.822 614.457 767.35 614.713C766.885 614.963 766.515 615.312 766.242 615.761C765.97 616.205 765.833 616.71 765.833 617.278V625.273H763.285ZM783.637 612.182L778.89 625.273H776.163L771.407 612.182H774.143L777.458 622.256H777.595L780.902 612.182H783.637ZM790.773 625.537C789.483 625.537 788.372 625.261 787.441 624.71C786.514 624.153 785.798 623.372 785.293 622.366C784.793 621.355 784.543 620.17 784.543 618.812C784.543 617.472 784.793 616.29 785.293 615.267C785.798 614.244 786.503 613.446 787.406 612.872C788.316 612.298 789.378 612.011 790.594 612.011C791.333 612.011 792.048 612.134 792.742 612.378C793.435 612.622 794.057 613.006 794.608 613.528C795.159 614.051 795.594 614.73 795.912 615.565C796.23 616.395 796.389 617.403 796.389 618.591V619.494H785.983V617.585H793.892C793.892 616.915 793.756 616.321 793.483 615.804C793.21 615.281 792.827 614.869 792.333 614.568C791.844 614.267 791.27 614.116 790.611 614.116C789.895 614.116 789.27 614.293 788.736 614.645C788.208 614.991 787.798 615.446 787.509 616.009C787.225 616.565 787.083 617.17 787.083 617.824V619.315C787.083 620.19 787.236 620.935 787.543 621.548C787.855 622.162 788.29 622.631 788.847 622.955C789.404 623.273 790.054 623.432 790.798 623.432C791.281 623.432 791.722 623.364 792.12 623.227C792.517 623.085 792.861 622.875 793.151 622.597C793.441 622.318 793.662 621.974 793.816 621.565L796.227 622C796.034 622.71 795.688 623.332 795.188 623.866C794.693 624.395 794.071 624.807 793.321 625.102C792.577 625.392 791.727 625.537 790.773 625.537ZM798.761 625.273V612.182H801.224V614.261H801.36C801.599 613.557 802.019 613.003 802.622 612.599C803.23 612.19 803.917 611.986 804.684 611.986C804.843 611.986 805.031 611.991 805.247 612.003C805.468 612.014 805.641 612.028 805.766 612.045V614.483C805.664 614.455 805.482 614.423 805.221 614.389C804.96 614.349 804.698 614.33 804.437 614.33C803.835 614.33 803.298 614.457 802.826 614.713C802.36 614.963 801.991 615.312 801.718 615.761C801.445 616.205 801.309 616.71 801.309 617.278V625.273H798.761ZM816.948 602.193V630.898H814.664V602.193H816.948ZM827.282 607.818H830.478L836.035 621.386H836.239L841.796 607.818H844.992V625.273H842.487V612.642H842.325L837.177 625.247H835.097L829.95 612.633H829.788V625.273H827.282V607.818ZM854.783 619.614H857.374L859.197 621.991L860.058 623.048L862.964 626.841H860.271L858.328 624.31L857.663 623.389L854.783 619.614ZM863.527 616.545C863.527 618.409 863.186 620.011 862.504 621.352C861.822 622.687 860.888 623.716 859.7 624.437C858.518 625.153 857.175 625.511 855.669 625.511C854.158 625.511 852.808 625.153 851.621 624.437C850.439 623.716 849.507 622.685 848.825 621.344C848.143 620.003 847.803 618.403 847.803 616.545C847.803 614.682 848.143 613.082 848.825 611.747C849.507 610.406 850.439 609.378 851.621 608.662C852.808 607.94 854.158 607.58 855.669 607.58C857.175 607.58 858.518 607.94 859.7 608.662C860.888 609.378 861.822 610.406 862.504 611.747C863.186 613.082 863.527 614.682 863.527 616.545ZM860.919 616.545C860.919 615.125 860.689 613.929 860.229 612.957C859.774 611.98 859.149 611.241 858.354 610.741C857.564 610.236 856.669 609.983 855.669 609.983C854.663 609.983 853.766 610.236 852.976 610.741C852.186 611.241 851.561 611.98 851.101 612.957C850.646 613.929 850.419 615.125 850.419 616.545C850.419 617.966 850.646 619.165 851.101 620.142C851.561 621.114 852.186 621.852 852.976 622.358C853.766 622.858 854.663 623.108 855.669 623.108C856.669 623.108 857.564 622.858 858.354 622.358C859.149 621.852 859.774 621.114 860.229 620.142C860.689 619.165 860.919 617.966 860.919 616.545ZM864.744 610.085V607.818H878.252V610.085H872.806V625.273H870.181V610.085H864.744ZM879.92 610.085V607.818H893.429V610.085H887.983V625.273H885.358V610.085H879.92Z" fill="#1E1E1E"/>
<path d="M147.009 190.624C150.686 184.741 147.512 188.459 145.635 191.275C143.265 194.83 139.158 197.685 136.596 201.325C134.108 204.861 125.017 208.952 128.137 211.448C132.363 214.829 137.689 220.755 141.079 225.114C144.021 228.896 148.31 229.719 148.31 234.875" stroke="#1E1E1E" stroke-width="8" stroke-linecap="round" stroke-linejoin="round"/>
<path d="M166.53 212.75C165.344 211.394 184.32 211.647 187.065 211.159C196.861 209.418 207.043 210.147 217 210.147C224.059 210.147 238.203 207.589 243.319 210.147" stroke="#1E1E1E" stroke-width="8" stroke-linecap="round" stroke-linejoin="round"/>
<path d="M451.484 207.913C448.046 207.913 445.491 206.231 450.643 206.231C455.842 206.231 461.041 206.231 466.24 206.231C474.209 206.231 482.179 206.231 490.148 206.231" stroke="#1E1E1E" stroke-width="8" stroke-linecap="round" stroke-linejoin="round"/>
<path d="M527.131 179.335C531.287 178.873 527.489 178.96 524.516 183.631C519.758 191.108 516.085 198.786 512.842 207.072C509.31 216.099 504.332 224.933 500.234 233.129" stroke="#1E1E1E" stroke-width="8" stroke-linecap="round" stroke-linejoin="round"/>
<path d="M530.492 209.594C531.008 205.468 557.012 207.913 560.751 207.913" stroke="#1E1E1E" stroke-width="8" stroke-linecap="round" stroke-linejoin="round"/>
<rect x="136" y="1096" width="416" height="80" rx="6" fill="#9747FF"/>
<path d="M410.305 613.639C410.305 613.039 410.8 609.61 410.8 611.03C410.8 619.837 408.652 628.553 410.314 637.304C411.073 641.297 409.132 643.251 408.636 646.836C408.57 647.311 408.609 649.185 409.272 649.185" stroke="#1E1E1E" stroke-width="8" stroke-linecap="round" stroke-linejoin="round"/>
<path d="M238.646 653.238C238.646 651.15 238.212 650.905 240.498 649.905C241.623 649.413 241.522 648.29 240.174 648.371C237.326 648.542 240.523 647.766 238.591 648.592C236.02 649.69 233.495 651.641 230.798 652.369C228.511 652.986 234.441 649.336 236.173 647.719C236.624 647.298 239.302 645.038 237.743 645.038C233.728 645.038 228.597 649.357 224.876 650.797C223.468 651.342 222.675 651.777 224.432 650.708C226.814 649.259 229.211 647.84 231.633 646.457C234.06 645.072 236.873 642.762 239.59 641.994C240.388 641.768 230.591 647.12 234.807 647.019C236.682 646.974 246.382 641.461 240.509 642.568C236.16 643.387 231.715 644.971 227.949 647.287C227.813 647.37 223.912 650.008 225.155 648.347C227.293 645.488 231.67 643.911 234.477 641.774C237.297 639.627 233.184 640.758 231.941 641.365C225.277 644.62 219.255 648.982 212.772 652.549C208.552 654.872 213.703 649.83 214.604 649.024C218.766 645.299 223.367 641.725 228.323 639.114C229.034 638.739 235.267 635.893 231.987 637.752C226.883 640.643 221.453 642.926 216.336 645.802C209.11 649.863 218.715 645.05 220.846 643.982C225.972 641.414 231.237 639.147 236.342 636.533C236.911 636.241 239.532 634.954 238.151 636.615C237.15 637.82 231.743 644.357 236.354 640.839C238.726 639.028 241.434 637.575 241.434 634.404C241.434 631.474 242.671 638.314 242.778 638.981C243.108 641.042 242.889 640.085 242.877 638.504C242.857 635.894 242.503 633.286 241.7 630.8C241.602 630.497 239.205 625.897 238.269 627.417C237.972 627.899 237.98 632.022 238.753 632.022C239.553 632.022 238.915 624.971 238.915 624.129C238.915 620.697 242.191 620.078 236.083 620.078C233.5 620.078 230.97 621.27 228.444 621.747C226.292 622.153 224.128 621.927 221.958 622.074C215.196 622.53 208.818 624.187 202.126 624.992C197.734 625.521 193.384 625.281 189.021 626.208C184.628 627.141 180.402 628.596 175.864 628.596C166.768 628.596 193.49 624.084 202.367 622.103C207.668 620.92 212.992 619.34 218.413 618.824C219.66 618.705 222.613 618.098 223.719 619.001C224.865 619.937 227.191 620.258 228.562 620.258C233.016 620.258 238.138 617.342 242.305 620.238C244.023 621.432 243.683 626.818 243.683 629.23C243.683 629.926 241.763 633.768 241.272 632.717C239.021 627.902 232.261 630.356 229.058 632.669C226.626 634.426 224.923 636.986 222.459 638.684C219.914 640.438 225.444 637.404 225.95 637.113C229.303 635.193 233.947 633.542 236.584 630.637C237.722 629.383 232.63 629.397 232.178 629.402C227.245 629.461 221.86 632.811 217.439 634.765C213.442 636.532 221.295 632.01 222.203 631.379C224.614 629.703 232.56 626.019 233.246 622.886C233.318 622.557 227.381 625.826 226.84 626.119C220.564 629.519 214.115 632.34 207.57 635.173C206.968 635.433 201.696 637.971 202.691 637.963C206.358 637.933 210.503 635.087 214.017 634.034C217.234 633.071 217.971 633.844 215.939 636.727C213.167 640.658 208.781 643.577 204.796 646.134C204.012 646.637 197.424 650.833 201.409 648.727C205.39 646.624 209.307 644.299 213.489 642.609C215.14 641.941 217.778 641.109 215.226 643.157C211.677 646.005 199.278 651.831 203.514 650.17C208.034 648.397 201.858 650.597 200.399 651.202C198.198 652.116 195.874 652.968 193.739 654.001C192.667 654.521 191.526 655.264 190.305 655.264C190.248 655.264 192.474 655.147 193.067 655.059C196.162 654.601 199.016 653.101 201.927 652.051C204.839 651.001 208.148 651.363 210.843 650.352C212.038 649.904 205.81 650.225 204.843 650.446C198.426 651.909 191.55 656.053 185.032 653.914C179.831 652.207 174.649 654.988 169.4 654.988C167.651 654.988 167.654 654.56 166.335 653.686C164.402 652.404 169.596 654.09 170.686 654.204C175.736 654.729 181.963 655.374 186.853 654.001C187.488 653.823 189.91 653.833 189.22 653.574C185.466 652.167 179.707 652.586 175.753 653.057C173.126 653.371 171.159 653.238 168.657 653.238C165.936 653.238 163.33 653.959 160.643 653.959C158.575 653.959 157.841 652.439 155.939 651.413C153.457 650.073 149.323 649.678 146.541 649.313C140.033 648.461 138.964 640.931 139.345 635.714C139.896 628.181 152.34 625.015 158.504 623.408C166.865 621.227 175.706 620.38 184.21 618.553C188.424 617.648 191.67 618.355 195.804 619.139C199.639 619.867 203.406 619.314 207.264 619.314C208.171 619.314 209.021 620.189 209.168 621.04C209.541 623.196 190.325 624.589 188.048 625.064C181.676 626.391 175.659 629.342 169.173 630.079C165.347 630.514 161.365 630.824 157.694 632.065C154.777 633.05 157.772 633.101 157.169 635.263C156.383 638.081 152.39 639.337 149.906 639.991C146.691 640.838 142.634 641.152 146.977 637.719C154.54 631.738 163.66 627.603 172.947 625.275C175.276 624.691 175.115 625.711 173.313 625.711C167.008 625.711 158.288 626.011 152.925 629.832C150.355 631.663 148.655 634.14 145.966 635.882C144.327 636.944 141.5 637.901 141.739 640.286C141.888 641.773 156.496 640.084 157.919 640.084C159.879 640.084 161.239 641.527 163.205 641.527C164.633 641.527 168.916 641.388 167.489 641.431C162.433 641.586 157.405 643.638 152.207 643.638C151.17 643.638 151.991 643.506 150.776 643.054C149.72 642.661 145.875 643.538 146.502 643.7C151.281 644.935 156.555 644.988 161.455 645.759C164.21 646.193 167.208 646.379 169.962 645.847C171.916 645.47 173.96 645.135 175.775 646.12C179.967 648.394 172.932 645.784 171.759 645.373C170.092 644.788 166.034 643.471 164.459 644.836C162.906 646.183 167.752 646.893 168.298 646.977C175.228 648.042 182.731 648.736 189.578 647.067C192.715 646.302 195.667 647.219 198.806 645.994C203.697 644.085 194.212 645.573 193.347 645.669C188.196 646.239 182.917 645.37 177.8 646.085C174.187 646.589 170.807 647.833 167.137 648.168C162.718 648.571 160.367 646.866 156.211 648.848C154.718 649.561 159.45 648.083 160.957 647.401C165.751 645.228 170.276 642.481 175.129 640.445C178.885 638.869 182.558 638.143 186.616 638.143C189.433 638.143 191.729 638.557 194.553 637.749C198.696 636.565 205.844 634.789 207.899 640.499C209.09 643.806 196.968 639.638 195.987 639.343C192.657 638.345 189.923 641.028 186.594 641.028C182.046 641.028 178.401 639.798 174.011 638.912C168.843 637.869 163.876 638.579 158.889 639.925C158.025 640.158 154.601 640.311 156.846 639.018C162.595 635.706 173.562 630.348 180.347 633.102C186.279 635.51 190.194 631.679 195.556 629.455C201.643 626.931 209.519 629.358 215.133 625.659C220.59 622.063 213.885 628.325 211.53 629.284C206.038 631.521 198.692 634.409 192.617 634.409C190.965 634.409 189.71 635.145 188.302 635.946C186.666 636.877 192.103 636.282 193.95 635.915C197.117 635.287 200.04 634.385 203.131 633.463C205.529 632.747 212.92 631.662 210.418 631.662" stroke="#9747FF" stroke-width="8" stroke-linecap="round" stroke-linejoin="round"/>
<path d="M150.368 617.787C150.368 614.46 157.415 615.803 159.589 615.803C177.222 615.803 194.589 613.491 212.173 612.707C230.372 611.895 248.427 614.192 266.551 611.751C286.55 609.058 306.149 607.349 326.34 607.381C344.218 607.409 362.023 609.521 379.937 609.259C388.014 609.142 396.053 608.064 404.127 607.808C411.65 607.57 419.191 607.642 426.71 607.288C438.582 606.728 450.289 603.997 462.18 603.997C475.683 603.997 488.825 603.959 502.265 602.519C509.217 601.775 516.105 600.358 523.105 600.358C530.125 600.358 534.966 602.7 541.268 605.466C543.443 606.421 547.301 607.417 548.306 609.812C549.234 612.024 549.532 614.321 550.84 616.392C552.84 619.556 552.907 624.145 550.954 627.237C548.48 631.152 546.693 633.213 542.739 635.849C537.72 639.196 529.696 640.592 523.804 641.208C514.909 642.139 506.407 644.147 497.652 645.982C485.279 648.576 472.191 648.881 459.598 649.7C445.04 650.647 430.524 648.655 416.008 650.485C399.045 652.623 381.796 653.779 364.694 653.779C341.265 653.779 317.909 655.402 294.492 655.402C278.21 655.402 262.173 656.199 245.924 656.865C234.736 657.323 223.805 656.287 212.654 657.268C201.806 658.223 191.826 662.063 180.822 662.063C173.676 662.063 167.61 661.268 160.926 658.99C156.71 657.553 152.22 657.597 148.98 654.353C146.529 651.898 143.588 651.107 140.326 650.533C134.175 649.45 133.105 644.95 133.105 639.092C133.105 625.231 148.945 616.608 161.249 616.164" stroke="#1E1E1E" stroke-width="8" stroke-linecap="round" stroke-linejoin="round"/>
<path d="M246.695 616.705C248.343 616.668 247.825 614.559 247.639 617.712C247.232 624.584 246.823 631.496 246.823 638.38C246.823 642.627 246.942 647.084 246.391 651.302C246.339 651.703 245.46 654.695 246.554 654.001" stroke="#1E1E1E" stroke-width="8" stroke-linecap="round" stroke-linejoin="round"/>
<path d="M417.056 1830.76C417.056 1833.48 417.62 1833.8 414.65 1835.09C413.19 1835.73 413.32 1837.19 415.071 1837.09C418.77 1836.86 414.619 1837.87 417.127 1836.8C420.467 1835.37 423.746 1832.84 427.249 1831.89C430.22 1831.09 422.517 1835.83 420.269 1837.93C419.682 1838.48 416.204 1841.41 418.229 1841.41C423.444 1841.41 430.108 1835.81 434.941 1833.94C436.77 1833.23 437.8 1832.66 435.518 1834.05C432.424 1835.93 429.311 1837.78 426.165 1839.57C423.013 1841.37 419.359 1844.37 415.831 1845.37C414.793 1845.66 427.517 1838.71 422.042 1838.84C419.607 1838.9 407.009 1846.06 414.636 1844.62C420.285 1843.56 426.059 1841.5 430.949 1838.49C431.126 1838.39 436.192 1834.96 434.579 1837.12C431.801 1840.83 426.117 1842.88 422.471 1845.65C418.808 1848.44 424.15 1846.97 425.765 1846.18C434.42 1841.96 442.242 1836.29 450.662 1831.66C456.143 1828.64 449.452 1835.19 448.282 1836.24C442.876 1841.08 436.9 1845.72 430.464 1849.11C429.54 1849.6 421.445 1853.29 425.705 1850.88C432.334 1847.12 439.387 1844.16 446.033 1840.42C455.418 1835.15 442.943 1841.4 440.175 1842.79C433.517 1846.12 426.678 1849.07 420.049 1852.46C419.309 1852.84 415.905 1854.51 417.699 1852.35C418.999 1850.79 426.022 1842.3 420.033 1846.87C416.952 1849.22 413.435 1851.11 413.435 1855.23C413.435 1859.03 411.828 1850.15 411.689 1849.28C411.261 1846.61 411.545 1847.85 411.561 1849.9C411.587 1853.29 412.047 1856.68 413.089 1859.91C413.216 1860.3 416.329 1866.28 417.546 1864.3C417.931 1863.68 417.921 1858.32 416.917 1858.32C415.878 1858.32 416.707 1867.48 416.707 1868.57C416.707 1873.03 412.451 1873.83 420.385 1873.83C423.74 1873.83 427.026 1872.29 430.307 1871.67C433.101 1871.14 435.912 1871.43 438.731 1871.24C447.513 1870.65 455.797 1868.5 464.489 1867.45C470.194 1866.76 475.843 1867.08 481.51 1865.87C487.215 1864.66 492.704 1862.77 498.599 1862.77C510.412 1862.77 475.706 1868.63 464.176 1871.2C457.291 1872.74 450.376 1874.79 443.335 1875.46C441.716 1875.62 437.88 1876.41 436.443 1875.23C434.955 1874.02 431.934 1873.6 430.153 1873.6C424.369 1873.6 417.716 1877.39 412.304 1873.63C410.073 1872.08 410.513 1865.08 410.513 1861.95C410.513 1861.04 413.008 1856.05 413.646 1857.42C416.569 1863.67 425.349 1860.48 429.509 1857.48C432.668 1855.2 434.879 1851.87 438.08 1849.67C441.385 1847.39 434.203 1851.33 433.545 1851.71C429.19 1854.2 423.159 1856.35 419.735 1860.12C418.256 1861.75 424.87 1861.73 425.456 1861.72C431.864 1861.65 438.858 1857.3 444.599 1854.76C449.791 1852.46 439.592 1858.34 438.412 1859.16C435.281 1861.33 424.96 1866.12 424.07 1870.19C423.976 1870.61 431.688 1866.37 432.39 1865.99C440.542 1861.57 448.917 1857.91 457.418 1854.23C458.199 1853.89 465.047 1850.59 463.755 1850.6C458.992 1850.64 453.609 1854.34 449.045 1855.71C444.866 1856.96 443.909 1855.95 446.549 1852.21C450.148 1847.1 455.845 1843.31 461.021 1839.99C462.039 1839.34 470.596 1833.89 465.42 1836.62C460.25 1839.36 455.162 1842.37 449.731 1844.57C447.586 1845.44 444.16 1846.52 447.475 1843.86C452.084 1840.16 468.188 1832.59 462.686 1834.75C456.816 1837.05 464.837 1834.19 466.732 1833.41C469.591 1832.22 472.609 1831.12 475.382 1829.77C476.774 1829.1 478.256 1828.13 479.842 1828.13C479.916 1828.13 477.025 1828.29 476.255 1828.4C472.235 1828.99 468.528 1830.94 464.747 1832.31C460.965 1833.67 456.667 1833.2 453.167 1834.51C451.615 1835.09 459.704 1834.68 460.96 1834.39C469.294 1832.49 478.225 1827.11 486.69 1829.89C493.446 1832.1 500.176 1828.49 506.994 1828.49C509.266 1828.49 509.262 1829.05 510.975 1830.18C513.485 1831.85 506.739 1829.66 505.324 1829.51C498.764 1828.83 490.677 1827.99 484.325 1829.77C483.501 1830 480.355 1829.99 481.251 1830.33C486.127 1832.16 493.607 1831.61 498.742 1831C502.154 1830.59 504.708 1830.76 507.959 1830.76C511.492 1830.76 514.878 1829.83 518.368 1829.83C521.053 1829.83 522.007 1831.8 524.476 1833.13C527.7 1834.87 533.069 1835.39 536.683 1835.86C545.136 1836.97 546.524 1846.75 546.029 1853.53C545.314 1863.31 529.151 1867.42 521.146 1869.51C510.286 1872.34 498.803 1873.44 487.758 1875.81C482.285 1876.99 478.069 1876.07 472.7 1875.05C467.719 1874.11 462.826 1874.82 457.815 1874.82C456.637 1874.82 455.534 1873.69 455.342 1872.58C454.857 1869.78 479.816 1867.97 482.774 1867.36C491.049 1865.63 498.865 1861.8 507.288 1860.84C512.258 1860.28 517.429 1859.88 522.197 1858.26C525.986 1856.98 522.096 1856.92 522.879 1854.11C523.901 1850.45 529.087 1848.82 532.313 1847.97C536.489 1846.87 541.757 1846.46 536.117 1850.92C526.293 1858.69 514.448 1864.06 502.386 1867.08C499.362 1867.84 499.57 1866.52 501.911 1866.52C510.1 1866.52 521.425 1866.13 528.392 1861.16C531.729 1858.79 533.937 1855.57 537.43 1853.31C539.559 1851.93 543.23 1850.68 542.92 1847.59C542.727 1845.66 523.753 1847.85 521.905 1847.85C519.359 1847.85 517.593 1845.98 515.039 1845.98C513.184 1845.98 507.622 1846.16 509.476 1846.1C516.042 1845.9 522.572 1843.23 529.324 1843.23C530.67 1843.23 529.605 1843.4 531.182 1843.99C532.554 1844.5 537.548 1843.36 536.734 1843.15C530.527 1841.55 523.677 1841.48 517.313 1840.48C513.734 1839.91 509.841 1839.67 506.264 1840.36C503.726 1840.85 501.07 1841.29 498.713 1840.01C493.269 1837.06 502.406 1840.45 503.93 1840.98C506.095 1841.74 511.365 1843.45 513.411 1841.68C515.428 1839.93 509.134 1839.01 508.424 1838.9C499.425 1837.51 489.679 1836.61 480.786 1838.78C476.712 1839.77 472.877 1838.58 468.801 1840.17C462.449 1842.65 474.767 1840.72 475.891 1840.6C482.581 1839.86 489.437 1840.98 496.083 1840.06C500.777 1839.4 505.166 1837.78 509.932 1837.35C515.672 1836.83 518.726 1839.04 524.124 1836.47C526.063 1835.54 519.916 1837.46 517.959 1838.35C511.733 1841.17 505.856 1844.74 499.552 1847.38C494.674 1849.43 489.904 1850.37 484.633 1850.37C480.975 1850.37 477.993 1849.83 474.324 1850.88C468.944 1852.42 459.66 1854.73 456.99 1847.31C455.444 1843.02 471.188 1848.43 472.462 1848.81C476.787 1850.11 480.337 1846.62 484.662 1846.62C490.569 1846.62 495.302 1848.22 501.005 1849.37C507.716 1850.73 514.168 1849.8 520.646 1848.06C521.768 1847.75 526.214 1847.55 523.299 1849.23C515.832 1853.54 501.588 1860.49 492.775 1856.92C485.071 1853.79 479.986 1858.77 473.021 1861.65C465.116 1864.93 454.887 1861.78 447.595 1866.58C440.507 1871.25 449.216 1863.12 452.275 1861.88C459.408 1858.97 468.949 1855.22 476.839 1855.22C478.984 1855.22 480.614 1854.26 482.443 1853.22C484.568 1852.01 477.506 1852.79 475.108 1853.26C470.994 1854.08 467.197 1855.25 463.183 1856.45C460.069 1857.38 450.469 1858.79 453.719 1858.79" stroke="#9747FF" stroke-width="8" stroke-linecap="round" stroke-linejoin="round"/>
<path d="M246.695 1842.66C248.343 1842.62 247.825 1840.51 247.639 1843.66C247.232 1850.53 246.823 1857.45 246.823 1864.33C246.823 1868.58 246.942 1873.04 246.391 1877.25C246.339 1877.65 245.46 1880.65 246.554 1879.95" stroke="#1E1E1E" stroke-width="8" stroke-linecap="round" stroke-linejoin="round"/>
<path d="M175.351 1499.74C175.351 1478.25 172.481 1542.63 169.732 1563.94C167.915 1578.02 167.859 1620.69 167.859 1606.49" stroke="#1E1E1E" stroke-width="8" stroke-linecap="round" stroke-linejoin="round"/>
<path d="M184.714 1497.86C177.815 1493.43 224.216 1490.37 227.895 1490.37C260.21 1490.37 291.99 1497.28 324.246 1491.31C352.714 1486.04 382.602 1488.42 411.336 1486.21C430.712 1484.72 449.517 1482.88 468.98 1482.88C477.351 1482.88 482.16 1484.48 489.582 1488.5C496.977 1492.5 503.499 1492.24 511.641 1492.24C515.397 1492.24 527.854 1488.02 530.786 1490.16C534.926 1493.19 533.309 1505.69 532.971 1510.25C531.458 1530.67 526.71 1550.98 524.127 1571.32C522.174 1586.7 523.767 1600.65 519.965 1615.86" stroke="#1E1E1E" stroke-width="8" stroke-linecap="round" stroke-linejoin="round"/>
<path d="M171.605 1615.86C177.594 1605.68 199.571 1607.06 209.48 1606.6C229.387 1605.67 249 1604.62 268.997 1604.62C308.808 1604.62 348.821 1606.12 388.447 1601.81C399.601 1600.6 410.741 1600.87 421.951 1600.87C433.725 1600.87 443.945 1603.59 455.456 1604.51C476.408 1606.19 499.7 1597.86 519.967 1604.62" stroke="#1E1E1E" stroke-width="8" stroke-linecap="round" stroke-linejoin="round"/>
<path d="M171.607 1666.43C161.252 1666.43 192.259 1664.55 202.614 1664.55C223.569 1664.55 244.333 1664.55 265.252 1664.55C298.873 1664.55 332.704 1666.43 366.493 1666.43C395.038 1666.43 423.583 1666.43 452.127 1666.43C467.251 1666.43 481.844 1662.68 497.077 1662.68C502.834 1662.68 508.592 1662.68 514.349 1662.68C518.32 1662.68 527.754 1660.61 521.841 1664.55" stroke="#1E1E1E" stroke-width="8" stroke-linecap="round" stroke-linejoin="round"/>
<path d="M167.859 1720.74C195.733 1720.74 223.689 1715.12 251.516 1715.12C281.468 1715.12 313.112 1715.02 342.769 1719.8C367.615 1723.81 391.707 1716.99 416.332 1716.99C438.391 1716.99 460.45 1716.99 482.509 1716.99" stroke="#1E1E1E" stroke-width="8" stroke-linecap="round" stroke-linejoin="round"/>
<path d="M164.113 1773.18C170.148 1768.15 186.366 1774.66 194.288 1775.16C212.379 1776.29 230.219 1776.93 248.394 1776.93C269.842 1776.93 291.265 1778.32 312.49 1778.8C332.305 1779.25 352.185 1778.8 372.006 1778.8C391.053 1778.8 409.281 1775.05 428.194 1775.05" stroke="#1E1E1E" stroke-width="8" stroke-linecap="round" stroke-linejoin="round"/>
<rect x="104" y="1344" width="480" height="1600" rx="6" stroke="#1E1E1E" stroke-width="4" stroke-linecap="round"/>
<rect x="136" y="2817" width="416" height="80" rx="6" fill="#9747FF"/>
<path d="M160.746 2509.11C169.617 2505.38 183.475 2506.18 193.103 2506.18C202.988 2506.18 212.751 2509.38 222.364 2506.18" stroke="#1E1E1E" stroke-width="8" stroke-linecap="round" stroke-linejoin="round"/>
<path d="M147.544 2547.26C147.544 2562.39 145.509 2581.12 151.945 2595.35C156.194 2604.74 194.299 2593.35 202.559 2592.82C248.268 2589.87 293.831 2589.8 339.732 2589.8C377.845 2589.8 415.417 2582.47 453.512 2582.47C480.1 2582.47 507.047 2581 533.387 2581C544.217 2581 541.509 2560.94 540.641 2553.13C540.153 2548.73 534.712 2539.71 536.973 2535.85C538.281 2533.62 543.386 2531.75 540.396 2528.51C538.115 2526.04 533.751 2526.72 530.779 2526.72C514.112 2526.72 497.472 2529.38 480.572 2527.86C447.868 2524.92 413.185 2525.17 380.729 2530.39C353.088 2534.83 325.215 2538.46 297.186 2538.46C277.646 2538.46 258.356 2541.81 238.829 2541.39C221.939 2541.02 204.739 2537.51 187.97 2542.2C180.774 2544.22 173.967 2547.42 166.616 2549.05C160.34 2550.45 155.291 2546.63 149.011 2548.73" stroke="#1E1E1E" stroke-width="8" stroke-linecap="round" stroke-linejoin="round"/>
<path d="M523.492 2551.28C517.871 2547.81 510.878 2545.59 504.566 2543.73C502.695 2543.18 500.796 2543.33 498.869 2543.33C496.607 2543.33 494.683 2544.09 492.509 2544.53C488.452 2545.34 484.084 2549.02 481.975 2552.48C481.095 2553.91 480.561 2555.96 480.561 2557.64C480.561 2559.73 480.402 2560.48 482.571 2561.02C484.5 2561.5 486.724 2561.22 488.71 2561.22C490.598 2561.22 492.382 2561.62 494.275 2561.62C501.489 2561.62 508.69 2561.55 515.851 2561.22C518.568 2561.1 525.841 2560.61 526.584 2557.33C527.056 2555.26 525.68 2553.43 524.287 2552.08C522.475 2550.32 520.686 2550.49 518.325 2550.49" stroke="#1E1E1E" stroke-width="3" stroke-linecap="round" stroke-linejoin="round"/>
<path d="M501.63 2550.89C499.059 2548.6 496.911 2553.32 498.096 2555.44C499.808 2558.49 505.618 2557.17 505.936 2553.67C506.201 2550.75 503.119 2549.65 500.835 2549.69C497.823 2549.75 497.781 2553.91 500.835 2554.07C501.716 2554.11 503.316 2554.39 503.772 2553.43C504.49 2551.91 502.298 2551.66 501.254 2551.92C497.15 2552.95 501.026 2557.06 503.794 2555.21C506.568 2553.37 501.96 2549.54 500.128 2552.56C499.153 2554.18 500.353 2554.91 501.63 2553.67C503.129 2552.21 502.663 2551.39 500.835 2552.08" stroke="#1E1E1E" stroke-width="3" stroke-linecap="round" stroke-linejoin="round"/>
<path d="M174.399 2569.25C173.656 2569.25 175.279 2576.77 177.532 2575.28C178.993 2574.32 179.475 2571.8 178.751 2570.29C177.455 2567.6 173.966 2563.33 171.295 2566.67C169.631 2568.75 167.479 2572.49 170.251 2574.41C172.059 2575.66 176.462 2577.12 177.822 2574.47C179.363 2571.47 174.039 2569.39 171.905 2569.89C169.898 2570.35 169.48 2575.89 171.092 2576.96C173.719 2578.72 176.498 2574.3 177.242 2572.38C178.318 2569.61 174.681 2566.03 172.021 2568.03C169.387 2570 170.681 2574.41 173.877 2574.47C177.515 2574.54 177.68 2570.7 174.602 2569.36C172.058 2568.26 169.903 2573.77 170.28 2575.75C171.058 2579.83 176.73 2572.77 177.416 2571.45C178.829 2568.75 173.424 2567.77 172.311 2570.81C171.883 2571.98 170.877 2574.04 171.498 2575.28C172.389 2577.06 174.271 2574.19 174.602 2573.45C175.775 2570.85 171.589 2568.75 171.295 2572.12C171.208 2573.13 171.406 2574.68 172.833 2574.12C174.45 2573.49 174.399 2571.73 174.399 2570.29" stroke="#1E1E1E" stroke-width="3" stroke-linecap="round" stroke-linejoin="round"/>
<path d="M198.94 2567.16C196.783 2564.02 195.011 2570.55 195.401 2572.27C196.274 2576.11 200.434 2574.02 202.073 2572.38C203.871 2570.58 205.851 2567.34 203.611 2565.1C201.402 2562.89 197.797 2562.96 196.04 2565.59C194.905 2567.29 194 2571.67 195.401 2573.43C197.816 2576.44 201.561 2572.35 203.35 2570.81C206.028 2568.52 205.116 2564.72 201.435 2564.14C198.002 2563.61 196.746 2568.57 196.098 2571.08C193.744 2580.15 211.651 2566.66 201.029 2566.12C198.218 2565.97 195.565 2567.59 197.49 2570.7C199.159 2573.4 202.671 2570.86 202.015 2568.23C201.229 2565.09 196.887 2569.35 197.432 2571.8C197.875 2573.8 204.122 2570.58 199.579 2568.09C196.309 2566.3 198.803 2573.84 200.739 2570.5C202.828 2566.89 195.854 2567.73 198.94 2570.81" stroke="#1E1E1E" stroke-width="3" stroke-linecap="round" stroke-linejoin="round"/>
<path d="M226.616 2564.03C224.838 2560.47 222.221 2560.47 220.64 2564.35C219.155 2567.99 219.284 2572.32 223.483 2573.66C226.429 2574.6 231.066 2572.19 232.766 2569.77C235.305 2566.16 226.864 2564.59 225.049 2564.03C222.174 2563.14 217.986 2563.85 219.654 2567.94C221.234 2571.82 225.545 2571.82 228.472 2569.71C232.714 2566.66 228.526 2561.49 226.123 2564.35C225.275 2565.35 222.265 2570.86 224.875 2571.48C228.131 2572.26 231.86 2565.54 227.66 2564.14C225.115 2563.29 219.546 2564.89 221.104 2568.61C222.2 2571.23 227.547 2569.09 228.298 2567.16C229.125 2565.03 220.147 2562.26 223.019 2567.39C224.768 2570.51 230.565 2569.48 228.066 2566.12C225.069 2562.08 223.725 2572.44 227.66 2568.73C230.35 2566.19 226.52 2562.97 224.643 2566C222.427 2569.58 230.346 2567.64 227.138 2565.07" stroke="#1E1E1E" stroke-width="3" stroke-linecap="round" stroke-linejoin="round"/>
<path d="M257.423 2564.03C254.685 2559.1 251.572 2565.24 250.925 2568.2C249.868 2573.03 254.694 2575.24 258.468 2572.9C260.676 2571.54 268.095 2566.88 262.355 2564.81C260.971 2564.31 250.989 2561.65 251.505 2565.1C252.128 2569.25 256.83 2571.76 260.034 2568.73C261.946 2566.92 264.321 2562.48 259.512 2563.01C256.639 2563.33 252.484 2568.9 256.495 2570.58C259.782 2571.96 264.271 2566.08 258.468 2565.19C256.16 2564.83 248.41 2565.43 251.737 2569.71C254.192 2572.87 259.054 2570.28 260.324 2567.28C261.753 2563.89 255.855 2563.27 254.058 2564.64C249.754 2567.91 255.666 2573.49 258.41 2568.99C260.655 2565.3 255.476 2562.47 254 2567.68C252.385 2573.39 263.345 2566.2 257.162 2565.13C252.101 2564.25 253.178 2572.61 257.713 2568.2C259.223 2566.74 258.668 2565.07 256.495 2565.07C254.407 2565.07 253.848 2567.12 253.246 2568.73" stroke="#1E1E1E" stroke-width="3" stroke-linecap="round" stroke-linejoin="round"/>
<path d="M285.099 2564.03C285.099 2560.8 281.52 2560.35 279.384 2562.49C277.49 2564.38 274.572 2570.05 277.818 2571.8C284.373 2575.33 293.094 2562.17 282.604 2561.94C273.141 2561.73 280.398 2575.4 286.346 2567.16C288.782 2563.79 285.358 2559.88 282.285 2563.27C280.427 2565.33 279.724 2571.71 283.793 2568.17C286.84 2565.53 284.265 2560.39 280.399 2562.29C277.115 2563.9 278.818 2570.67 282.894 2569.54C285.788 2568.73 287.066 2562.88 283.271 2562.55C280.247 2562.28 276.069 2570.01 279.384 2569.68C281.87 2569.43 285.616 2563.12 281.85 2563.21C278.991 2563.28 277.909 2571.22 281.966 2568.49C282.6 2568.07 285.902 2565.06 284.229 2564.37C282.628 2563.72 280.858 2565.67 280.515 2567.04C279.575 2570.81 285.345 2567.93 282.488 2565.07" stroke="#1E1E1E" stroke-width="3" stroke-linecap="round" stroke-linejoin="round"/>
<path d="M627.517 1353.82H632.068L636.875 1365.55H637.08L641.886 1353.82H646.438V1371.27H642.858V1359.91H642.713L638.196 1371.19H635.759L631.241 1359.87H631.097V1371.27H627.517V1353.82ZM657.604 1376.18V1369.18H657.494C657.323 1369.54 657.082 1369.9 656.769 1370.26C656.462 1370.61 656.062 1370.9 655.567 1371.14C655.079 1371.37 654.482 1371.49 653.778 1371.49C652.783 1371.49 651.883 1371.23 651.076 1370.72C650.275 1370.2 649.638 1369.44 649.167 1368.44C648.701 1367.44 648.468 1366.2 648.468 1364.74C648.468 1363.24 648.709 1362 649.192 1361C649.675 1360 650.317 1359.26 651.119 1358.76C651.925 1358.26 652.809 1358.01 653.769 1358.01C654.502 1358.01 655.113 1358.14 655.602 1358.39C656.096 1358.63 656.494 1358.94 656.795 1359.31C657.102 1359.67 657.334 1360.03 657.494 1360.38H657.647V1358.18H661.227V1376.18H657.604ZM654.928 1368.6C655.513 1368.6 656.008 1368.44 656.411 1368.12C656.82 1367.8 657.133 1367.34 657.349 1366.76C657.57 1366.18 657.681 1365.51 657.681 1364.73C657.681 1363.95 657.573 1363.27 657.357 1362.7C657.141 1362.12 656.829 1361.68 656.42 1361.37C656.011 1361.06 655.513 1360.9 654.928 1360.9C654.332 1360.9 653.829 1361.06 653.42 1361.39C653.011 1361.71 652.701 1362.16 652.491 1362.73C652.281 1363.31 652.175 1363.97 652.175 1364.73C652.175 1365.49 652.281 1366.16 652.491 1366.75C652.707 1367.33 653.016 1367.78 653.42 1368.11C653.829 1368.43 654.332 1368.6 654.928 1368.6ZM670.648 1358.18V1360.91H662.765V1358.18H670.648ZM664.555 1355.05H668.185V1367.25C668.185 1367.58 668.236 1367.85 668.339 1368.03C668.441 1368.22 668.583 1368.34 668.765 1368.42C668.952 1368.49 669.168 1368.53 669.413 1368.53C669.583 1368.53 669.753 1368.51 669.924 1368.49C670.094 1368.45 670.225 1368.43 670.316 1368.41L670.887 1371.11C670.705 1371.17 670.45 1371.23 670.12 1371.31C669.79 1371.39 669.39 1371.43 668.918 1371.45C668.043 1371.49 667.276 1371.37 666.617 1371.1C665.964 1370.83 665.455 1370.42 665.092 1369.86C664.728 1369.3 664.549 1368.58 664.555 1367.73V1355.05ZM679.52 1358.18V1360.91H671.637V1358.18H679.52ZM673.427 1355.05H677.057V1367.25C677.057 1367.58 677.109 1367.85 677.211 1368.03C677.313 1368.22 677.455 1368.34 677.637 1368.42C677.824 1368.49 678.04 1368.53 678.285 1368.53C678.455 1368.53 678.626 1368.51 678.796 1368.49C678.967 1368.45 679.097 1368.43 679.188 1368.41L679.759 1371.11C679.577 1371.17 679.322 1371.23 678.992 1371.31C678.663 1371.39 678.262 1371.43 677.79 1371.45C676.915 1371.49 676.148 1371.37 675.489 1371.1C674.836 1370.83 674.327 1370.42 673.964 1369.86C673.6 1369.3 673.421 1368.58 673.427 1367.73V1355.05ZM697.42 1361.91L694.096 1362.12C694.04 1361.83 693.917 1361.58 693.73 1361.35C693.542 1361.12 693.295 1360.93 692.988 1360.8C692.687 1360.66 692.327 1360.58 691.906 1360.58C691.344 1360.58 690.869 1360.7 690.483 1360.94C690.096 1361.18 689.903 1361.49 689.903 1361.88C689.903 1362.19 690.028 1362.46 690.278 1362.67C690.528 1362.89 690.957 1363.06 691.565 1363.19L693.934 1363.67C695.207 1363.93 696.156 1364.35 696.781 1364.93C697.406 1365.51 697.719 1366.27 697.719 1367.22C697.719 1368.07 697.466 1368.83 696.96 1369.47C696.46 1370.12 695.773 1370.63 694.898 1370.99C694.028 1371.35 693.025 1371.53 691.889 1371.53C690.156 1371.53 688.775 1371.17 687.747 1370.45C686.724 1369.72 686.125 1368.73 685.949 1367.48L689.52 1367.29C689.628 1367.82 689.889 1368.22 690.304 1368.5C690.719 1368.78 691.25 1368.91 691.898 1368.91C692.534 1368.91 693.045 1368.79 693.432 1368.55C693.824 1368.3 694.023 1367.97 694.028 1367.58C694.023 1367.25 693.883 1366.98 693.611 1366.77C693.338 1366.56 692.917 1366.39 692.349 1366.28L690.082 1365.83C688.804 1365.57 687.852 1365.13 687.227 1364.5C686.608 1363.87 686.298 1363.06 686.298 1362.08C686.298 1361.24 686.525 1360.52 686.98 1359.91C687.44 1359.3 688.085 1358.83 688.915 1358.51C689.75 1358.18 690.727 1358.01 691.846 1358.01C693.5 1358.01 694.801 1358.36 695.75 1359.06C696.704 1359.76 697.261 1360.71 697.42 1361.91ZM705.515 1371.53C704.168 1371.53 703.009 1371.26 702.037 1370.71C701.072 1370.16 700.327 1369.38 699.804 1368.37C699.282 1367.36 699.02 1366.17 699.02 1364.79C699.02 1363.44 699.282 1362.26 699.804 1361.24C700.327 1360.22 701.063 1359.43 702.012 1358.86C702.966 1358.3 704.086 1358.01 705.37 1358.01C706.233 1358.01 707.037 1358.15 707.782 1358.43C708.532 1358.7 709.185 1359.11 709.742 1359.66C710.304 1360.22 710.742 1360.91 711.054 1361.74C711.367 1362.57 711.523 1363.55 711.523 1364.66V1365.66H700.469V1363.41H708.106C708.106 1362.88 707.992 1362.42 707.765 1362.02C707.537 1361.61 707.222 1361.3 706.819 1361.07C706.421 1360.84 705.958 1360.72 705.429 1360.72C704.878 1360.72 704.39 1360.85 703.964 1361.1C703.543 1361.35 703.214 1361.69 702.975 1362.12C702.736 1362.54 702.614 1363.01 702.608 1363.53V1365.66C702.608 1366.31 702.728 1366.87 702.966 1367.34C703.211 1367.82 703.554 1368.18 703.998 1368.43C704.441 1368.69 704.966 1368.82 705.574 1368.82C705.978 1368.82 706.347 1368.76 706.682 1368.65C707.018 1368.53 707.304 1368.36 707.543 1368.14C707.782 1367.91 707.964 1367.63 708.089 1367.3L711.447 1367.52C711.276 1368.33 710.927 1369.03 710.398 1369.64C709.876 1370.23 709.199 1370.7 708.37 1371.03C707.546 1371.36 706.594 1371.53 705.515 1371.53ZM720.4 1358.18V1360.91H712.516V1358.18H720.4ZM714.306 1355.05H717.937V1367.25C717.937 1367.58 717.988 1367.85 718.09 1368.03C718.192 1368.22 718.334 1368.34 718.516 1368.42C718.704 1368.49 718.92 1368.53 719.164 1368.53C719.334 1368.53 719.505 1368.51 719.675 1368.49C719.846 1368.45 719.976 1368.43 720.067 1368.41L720.638 1371.11C720.456 1371.17 720.201 1371.23 719.871 1371.31C719.542 1371.39 719.141 1371.43 718.67 1371.45C717.795 1371.49 717.027 1371.37 716.368 1371.1C715.715 1370.83 715.206 1370.42 714.843 1369.86C714.479 1369.3 714.3 1368.58 714.306 1367.73V1355.05ZM729.272 1358.18V1360.91H721.388V1358.18H729.272ZM723.178 1355.05H726.809V1367.25C726.809 1367.58 726.86 1367.85 726.962 1368.03C727.064 1368.22 727.206 1368.34 727.388 1368.42C727.576 1368.49 727.792 1368.53 728.036 1368.53C728.206 1368.53 728.377 1368.51 728.547 1368.49C728.718 1368.45 728.848 1368.43 728.939 1368.41L729.51 1371.11C729.329 1371.17 729.073 1371.23 728.743 1371.31C728.414 1371.39 728.013 1371.43 727.542 1371.45C726.667 1371.49 725.9 1371.37 725.24 1371.1C724.587 1370.83 724.079 1370.42 723.715 1369.86C723.351 1369.3 723.172 1368.58 723.178 1367.73V1355.05ZM731.181 1371.27V1358.18H734.811V1371.27H731.181ZM733.005 1356.49C732.465 1356.49 732.002 1356.32 731.615 1355.96C731.235 1355.59 731.044 1355.16 731.044 1354.65C731.044 1354.15 731.235 1353.72 731.615 1353.37C732.002 1353 732.465 1352.82 733.005 1352.82C733.544 1352.82 734.005 1353 734.385 1353.37C734.772 1353.72 734.965 1354.15 734.965 1354.65C734.965 1355.16 734.772 1355.59 734.385 1355.96C734.005 1356.32 733.544 1356.49 733.005 1356.49ZM740.895 1363.7V1371.27H737.264V1358.18H740.724V1360.49H740.878C741.167 1359.73 741.653 1359.13 742.335 1358.68C743.017 1358.24 743.843 1358.01 744.815 1358.01C745.724 1358.01 746.517 1358.21 747.193 1358.61C747.869 1359.01 748.395 1359.57 748.77 1360.31C749.145 1361.05 749.332 1361.92 749.332 1362.94V1371.27H745.701V1363.58C745.707 1362.78 745.503 1362.16 745.088 1361.71C744.673 1361.26 744.102 1361.03 743.375 1361.03C742.886 1361.03 742.454 1361.13 742.079 1361.34C741.71 1361.55 741.42 1361.86 741.21 1362.26C741.005 1362.66 740.9 1363.14 740.895 1363.7ZM757.635 1376.45C756.459 1376.45 755.451 1376.29 754.61 1375.97C753.774 1375.65 753.11 1375.22 752.615 1374.66C752.121 1374.11 751.8 1373.49 751.652 1372.81L755.01 1372.35C755.113 1372.62 755.274 1372.86 755.496 1373.09C755.718 1373.32 756.01 1373.5 756.374 1373.63C756.743 1373.78 757.192 1373.85 757.721 1373.85C758.51 1373.85 759.161 1373.65 759.672 1373.27C760.189 1372.89 760.448 1372.25 760.448 1371.35V1368.95H760.294C760.135 1369.32 759.897 1369.66 759.578 1369.99C759.26 1370.31 758.851 1370.57 758.351 1370.78C757.851 1370.98 757.255 1371.08 756.561 1371.08C755.578 1371.08 754.684 1370.86 753.877 1370.4C753.076 1369.94 752.436 1369.24 751.959 1368.3C751.488 1367.35 751.252 1366.15 751.252 1364.7C751.252 1363.22 751.493 1361.98 751.976 1360.99C752.459 1359.99 753.101 1359.25 753.902 1358.75C754.709 1358.26 755.593 1358.01 756.553 1358.01C757.286 1358.01 757.899 1358.14 758.394 1358.39C758.888 1358.63 759.286 1358.94 759.587 1359.31C759.894 1359.67 760.13 1360.03 760.294 1360.38H760.431V1358.18H764.036V1371.4C764.036 1372.51 763.763 1373.45 763.218 1374.2C762.672 1374.95 761.917 1375.51 760.951 1375.88C759.99 1376.26 758.885 1376.45 757.635 1376.45ZM757.712 1368.36C758.297 1368.36 758.792 1368.21 759.195 1367.92C759.604 1367.63 759.917 1367.21 760.132 1366.66C760.354 1366.11 760.465 1365.45 760.465 1364.68C760.465 1363.92 760.357 1363.25 760.141 1362.69C759.925 1362.12 759.613 1361.68 759.203 1361.37C758.794 1361.06 758.297 1360.9 757.712 1360.9C757.115 1360.9 756.613 1361.06 756.203 1361.39C755.794 1361.7 755.485 1362.15 755.274 1362.72C755.064 1363.28 754.959 1363.94 754.959 1364.68C754.959 1365.44 755.064 1366.09 755.274 1366.64C755.49 1367.19 755.8 1367.61 756.203 1367.91C756.613 1368.21 757.115 1368.36 757.712 1368.36ZM777.361 1361.91L774.037 1362.12C773.98 1361.83 773.858 1361.58 773.671 1361.35C773.483 1361.12 773.236 1360.93 772.929 1360.8C772.628 1360.66 772.267 1360.58 771.847 1360.58C771.284 1360.58 770.81 1360.7 770.424 1360.94C770.037 1361.18 769.844 1361.49 769.844 1361.88C769.844 1362.19 769.969 1362.46 770.219 1362.67C770.469 1362.89 770.898 1363.06 771.506 1363.19L773.875 1363.67C775.148 1363.93 776.097 1364.35 776.722 1364.93C777.347 1365.51 777.659 1366.27 777.659 1367.22C777.659 1368.07 777.407 1368.83 776.901 1369.47C776.401 1370.12 775.713 1370.63 774.838 1370.99C773.969 1371.35 772.966 1371.53 771.83 1371.53C770.097 1371.53 768.716 1371.17 767.688 1370.45C766.665 1369.72 766.066 1368.73 765.89 1367.48L769.461 1367.29C769.568 1367.82 769.83 1368.22 770.245 1368.5C770.659 1368.78 771.191 1368.91 771.838 1368.91C772.475 1368.91 772.986 1368.79 773.372 1368.55C773.765 1368.3 773.963 1367.97 773.969 1367.58C773.963 1367.25 773.824 1366.98 773.551 1366.77C773.279 1366.56 772.858 1366.39 772.29 1366.28L770.023 1365.83C768.745 1365.57 767.793 1365.13 767.168 1364.5C766.549 1363.87 766.239 1363.06 766.239 1362.08C766.239 1361.24 766.466 1360.52 766.921 1359.91C767.381 1359.3 768.026 1358.83 768.855 1358.51C769.691 1358.18 770.668 1358.01 771.787 1358.01C773.441 1358.01 774.742 1358.36 775.691 1359.06C776.645 1359.76 777.202 1360.71 777.361 1361.91Z" fill="#1E1E1E"/>
<path d="M146.915 1391.6C150.592 1385.72 147.418 1389.44 145.541 1392.25C143.171 1395.81 139.064 1398.66 136.503 1402.31C134.014 1405.84 124.923 1409.93 128.043 1412.43C132.269 1415.81 137.595 1421.73 140.986 1426.09C143.927 1429.88 148.216 1430.7 148.216 1435.86" stroke="#1E1E1E" stroke-width="8" stroke-linecap="round" stroke-linejoin="round"/>
<path d="M166.436 1413.73C165.25 1412.37 184.226 1412.63 186.971 1412.14C196.767 1410.4 206.95 1411.13 216.906 1411.13C223.966 1411.13 238.109 1408.57 243.226 1411.13" stroke="#1E1E1E" stroke-width="8" stroke-linecap="round" stroke-linejoin="round"/>
<path d="M451.39 1408.89C447.953 1408.89 445.398 1407.21 450.55 1407.21C455.748 1407.21 460.947 1407.21 466.146 1407.21C474.116 1407.21 482.085 1407.21 490.055 1407.21" stroke="#1E1E1E" stroke-width="8" stroke-linecap="round" stroke-linejoin="round"/>
<path d="M527.038 1380.31C531.193 1379.85 527.395 1379.94 524.423 1384.61C519.664 1392.09 515.991 1399.77 512.749 1408.05C509.216 1417.08 504.238 1425.91 500.141 1434.11" stroke="#1E1E1E" stroke-width="8" stroke-linecap="round" stroke-linejoin="round"/>
<path d="M530.398 1410.57C530.914 1406.45 556.919 1408.89 560.658 1408.89" stroke="#1E1E1E" stroke-width="8" stroke-linecap="round" stroke-linejoin="round"/>
<path d="M151.535 2082.47C174.543 2079.6 197.84 2078.28 220.945 2076.44C230.063 2075.71 240.985 2073.76 250.477 2074.82C257.862 2075.64 261.239 2074.18 267.938 2070.83" stroke="#1E1E1E" stroke-width="8" stroke-linecap="round" stroke-linejoin="round"/>
<path d="M152.438 1945.65C175.445 1942.77 198.743 1941.46 221.848 1939.61C230.965 1938.88 241.887 1936.94 251.379 1938C258.765 1938.82 262.141 1937.36 268.84 1934.01" stroke="#1E1E1E" stroke-width="8" stroke-linecap="round" stroke-linejoin="round"/>
<path d="M152.496 2658.81C175.504 2655.94 198.801 2654.62 221.906 2652.78C231.024 2652.05 241.946 2650.11 251.438 2651.16C258.823 2651.98 262.2 2650.52 268.898 2647.17" stroke="#1E1E1E" stroke-width="8" stroke-linecap="round" stroke-linejoin="round"/>
<path d="M151.695 2233.29C174.703 2230.41 198.001 2229.1 221.106 2227.25C230.223 2226.52 241.145 2224.58 250.637 2225.63C258.023 2226.45 261.399 2225 268.098 2221.65" stroke="#1E1E1E" stroke-width="8" stroke-linecap="round" stroke-linejoin="round"/>
<path d="M151.855 2384.1C174.863 2381.23 198.161 2379.92 221.266 2378.07C230.383 2377.34 241.305 2375.4 250.797 2376.45C258.183 2377.27 261.559 2375.81 268.258 2372.46" stroke="#1E1E1E" stroke-width="8" stroke-linecap="round" stroke-linejoin="round"/>
<path d="M166.224 2112.48C170.095 2110.76 174.292 2111.26 178.443 2111.26C185.955 2111.26 193.553 2109.49 201.048 2108.82C222.527 2106.91 243.935 2104.64 265.469 2102.98C312.028 2099.4 358.518 2099.34 405.036 2095.38C442.76 2092.17 480.191 2089.27 518.129 2089.27C524.235 2089.27 527.325 2090.2 527.972 2096.67C528.616 2103.11 529.722 2109.02 528.515 2115.54C527.42 2121.45 528.113 2126.82 529.126 2132.65C530.027 2137.83 535.754 2141.41 535.167 2146.7C534.494 2152.76 528.787 2146.43 525.732 2145.75C518.307 2144.1 508.479 2145.12 501.022 2145.75C475.154 2147.92 449.276 2150.2 423.364 2152.2C367.564 2156.49 311.538 2155.4 255.694 2159.87C238.719 2161.22 220.372 2161.09 203.492 2158.92C190.252 2157.21 177.034 2157.72 163.848 2156.4C157.154 2155.74 158.725 2155.56 159.843 2150.63C160.993 2145.58 159.006 2140.93 158.893 2135.97C158.786 2131.28 157.671 2126.59 157.671 2121.99C157.671 2116.08 159.219 2113.14 156.449 2107.6" stroke="#1E1E1E" stroke-width="8" stroke-linecap="round" stroke-linejoin="round"/>
<path d="M167.127 1975.66C170.997 1973.94 175.195 1974.44 179.346 1974.44C186.857 1974.44 194.455 1972.66 201.951 1972C223.43 1970.09 244.838 1967.81 266.371 1966.16C312.93 1962.58 359.421 1962.51 405.938 1958.55C443.662 1955.34 481.094 1952.45 519.031 1952.45C525.138 1952.45 528.227 1953.38 528.874 1959.84C529.518 1966.29 530.624 1972.2 529.417 1978.72C528.323 1984.63 529.015 1990 530.028 1995.82C530.93 2001.01 536.657 2004.59 536.07 2009.87C535.397 2015.93 529.69 2009.6 526.634 2008.92C519.209 2007.27 509.381 2008.3 501.925 2008.92C476.056 2011.1 450.178 2013.38 424.267 2015.37C368.467 2019.66 312.441 2018.58 256.596 2023.04C239.621 2024.4 221.275 2024.27 204.394 2022.09C191.155 2020.38 177.936 2020.9 164.751 2019.58C158.056 2018.91 159.627 2018.73 160.746 2013.81C161.896 2008.75 159.908 2004.11 159.795 1999.15C159.689 1994.45 158.573 1989.76 158.573 1985.16C158.573 1979.26 160.121 1976.31 157.352 1970.77" stroke="#1E1E1E" stroke-width="8" stroke-linecap="round" stroke-linejoin="round"/>
<path d="M167.185 2688.83C171.056 2687.1 175.253 2687.6 179.404 2687.6C186.916 2687.6 194.514 2685.83 202.009 2685.16C223.488 2683.25 244.896 2680.98 266.43 2679.32C312.989 2675.74 359.479 2675.68 405.997 2671.72C443.721 2668.51 481.152 2665.61 519.09 2665.61C525.196 2665.61 528.286 2666.54 528.933 2673.01C529.577 2679.45 530.683 2685.36 529.476 2691.88C528.381 2697.79 529.074 2703.16 530.087 2708.99C530.988 2714.17 536.715 2717.75 536.128 2723.04C535.455 2729.1 529.748 2722.77 526.693 2722.09C519.268 2720.44 509.44 2721.46 501.983 2722.09C476.115 2724.26 450.237 2726.54 424.325 2728.54C368.525 2732.83 312.499 2731.74 256.655 2736.21C239.68 2737.57 221.333 2737.44 204.453 2735.26C191.213 2733.55 177.995 2734.06 164.809 2732.75C158.114 2732.08 159.686 2731.9 160.804 2726.98C161.954 2721.92 159.967 2717.27 159.854 2712.31C159.747 2707.62 158.632 2702.93 158.632 2698.33C158.632 2692.42 160.179 2689.48 157.41 2683.94" stroke="#1E1E1E" stroke-width="8" stroke-linecap="round" stroke-linejoin="round"/>
<path d="M166.384 2263.3C170.255 2261.58 174.452 2262.08 178.603 2262.08C186.115 2262.08 193.713 2260.3 201.208 2259.63C222.688 2257.72 244.096 2255.45 265.629 2253.8C312.188 2250.21 358.678 2250.15 405.196 2246.19C442.92 2242.98 480.352 2240.08 518.289 2240.08C524.395 2240.08 527.485 2241.01 528.132 2247.48C528.776 2253.92 529.882 2259.84 528.675 2266.35C527.58 2272.27 528.273 2277.64 529.286 2283.46C530.187 2288.64 535.915 2292.23 535.328 2297.51C534.654 2303.57 528.948 2297.24 525.892 2296.56C518.467 2294.91 508.639 2295.94 501.182 2296.56C475.314 2298.74 449.436 2301.02 423.525 2303.01C367.724 2307.3 311.698 2306.21 255.854 2310.68C238.879 2312.04 220.532 2311.91 203.652 2309.73C190.413 2308.02 177.194 2308.54 164.009 2307.22C157.314 2306.55 158.885 2306.37 160.004 2301.45C161.153 2296.39 159.166 2291.75 159.053 2286.79C158.946 2282.09 157.831 2277.4 157.831 2272.8C157.831 2266.9 159.379 2263.95 156.609 2258.41" stroke="#1E1E1E" stroke-width="8" stroke-linecap="round" stroke-linejoin="round"/>
<path d="M166.549 2414.12C170.419 2412.4 174.616 2412.89 178.767 2412.89C186.279 2412.89 193.877 2411.12 201.372 2410.45C222.852 2408.54 244.26 2406.27 265.793 2404.61C312.352 2401.03 358.842 2400.97 405.36 2397.01C443.084 2393.8 480.516 2390.9 518.453 2390.9C524.559 2390.9 527.649 2391.83 528.296 2398.3C528.94 2404.74 530.046 2410.65 528.839 2417.17C527.744 2423.08 528.437 2428.45 529.45 2434.28C530.351 2439.46 536.079 2443.05 535.492 2448.33C534.818 2454.39 529.112 2448.06 526.056 2447.38C518.631 2445.73 508.803 2446.75 501.347 2447.38C475.478 2449.55 449.6 2451.83 423.689 2453.83C367.888 2458.12 311.862 2457.03 256.018 2461.5C239.043 2462.86 220.696 2462.73 203.816 2460.55C190.577 2458.84 177.358 2459.36 164.173 2458.04C157.478 2457.37 159.049 2457.19 160.168 2452.27C161.317 2447.21 159.33 2442.56 159.217 2437.6C159.111 2432.91 157.995 2428.22 157.995 2423.62C157.995 2417.71 159.543 2414.77 156.773 2409.23" stroke="#1E1E1E" stroke-width="8" stroke-linecap="round" stroke-linejoin="round"/>
<path d="M150.364 1843.74C150.364 1840.41 157.411 1841.75 159.585 1841.75C177.218 1841.75 194.585 1839.44 212.169 1838.66C230.368 1837.85 248.423 1840.14 266.547 1837.7C286.546 1835.01 306.145 1833.3 326.336 1833.33C344.214 1833.36 362.019 1835.47 379.933 1835.21C388.01 1835.09 396.049 1834.01 404.123 1833.76C411.646 1833.52 419.188 1833.59 426.706 1833.24C438.578 1832.68 450.285 1829.95 462.176 1829.95C475.679 1829.95 488.821 1829.91 502.261 1828.47C509.213 1827.73 516.101 1826.31 523.101 1826.31C530.121 1826.31 534.962 1828.65 541.264 1831.42C543.44 1832.37 547.297 1833.37 548.302 1835.76C549.23 1837.98 549.528 1840.27 550.836 1842.34C552.836 1845.51 552.903 1850.1 550.95 1853.19C548.477 1857.1 546.689 1859.16 542.735 1861.8C537.716 1865.15 529.692 1866.54 523.8 1867.16C514.905 1868.09 506.403 1870.1 497.649 1871.93C485.276 1874.53 472.187 1874.83 459.594 1875.65C445.036 1876.6 430.52 1874.61 416.005 1876.44C399.041 1878.57 381.792 1879.73 364.69 1879.73C341.261 1879.73 317.905 1881.35 294.488 1881.35C278.206 1881.35 262.169 1882.15 245.92 1882.82C234.732 1883.27 223.801 1882.24 212.65 1883.22C201.802 1884.17 191.822 1888.01 180.818 1888.01C173.672 1888.01 167.606 1887.22 160.923 1884.94C156.706 1883.5 152.216 1883.55 148.976 1880.3C146.525 1877.85 143.584 1877.06 140.323 1876.48C134.171 1875.4 133.102 1870.9 133.102 1865.04C133.102 1851.18 148.941 1842.56 161.245 1842.11" stroke="#1E1E1E" stroke-width="8" stroke-linecap="round" stroke-linejoin="round"/>
<path d="M410.305 1839.59C410.305 1838.99 410.8 1835.56 410.8 1836.98C410.8 1845.79 408.652 1854.5 410.314 1863.25C411.073 1867.25 409.132 1869.2 408.636 1872.79C408.57 1873.26 408.609 1875.14 409.272 1875.14" stroke="#1E1E1E" stroke-width="8" stroke-linecap="round" stroke-linejoin="round"/>
<rect x="40" y="4" width="131.781" height="30" rx="3" fill="#FBFBFB"/>
<rect x="40.5" y="4.5" width="130.781" height="29" rx="2.5" stroke="black" stroke-opacity="0.2"/>
<path d="M46.6406 20.3594V19.5625L50.1562 14H50.7344V15.2344H50.3438L47.6875 19.4375V19.5H52.4219V20.3594H46.6406ZM50.4063 22V20.1172V19.7461V14H51.3281V22H50.4063ZM54.1973 22.0625C54.0046 22.0625 53.8392 21.9935 53.7012 21.8555C53.5632 21.7174 53.4941 21.5521 53.4941 21.3594C53.4941 21.1667 53.5632 21.0013 53.7012 20.8633C53.8392 20.7253 54.0046 20.6562 54.1973 20.6562C54.39 20.6562 54.5553 20.7253 54.6934 20.8633C54.8314 21.0013 54.9004 21.1667 54.9004 21.3594C54.9004 21.487 54.8678 21.6042 54.8027 21.7109C54.7402 21.8177 54.6556 21.9036 54.5488 21.9687C54.4447 22.0313 54.3275 22.0625 54.1973 22.0625ZM59.7734 14H60.9297L63.6484 20.6406H63.7422L66.4609 14H67.6172V22H66.7109V15.9219H66.6328L64.1328 22H63.2578L60.7578 15.9219H60.6797V22H59.7734V14ZM71.9502 22.125C71.3721 22.125 70.8734 21.9974 70.4541 21.7422C70.0374 21.4844 69.7158 21.125 69.4893 20.6641C69.2653 20.2005 69.1533 19.6615 69.1533 19.0469C69.1533 18.4323 69.2653 17.8906 69.4893 17.4219C69.7158 16.9505 70.0309 16.5833 70.4346 16.3203C70.8408 16.0547 71.3148 15.9219 71.8564 15.9219C72.1689 15.9219 72.4775 15.974 72.7822 16.0781C73.0869 16.1823 73.3643 16.3516 73.6143 16.5859C73.8643 16.8177 74.0635 17.125 74.2119 17.5078C74.3604 17.8906 74.4346 18.362 74.4346 18.9219V19.3125H69.8096V18.5156H73.4971C73.4971 18.1771 73.4294 17.875 73.2939 17.6094C73.1611 17.3437 72.971 17.1341 72.7236 16.9805C72.4788 16.8268 72.1898 16.75 71.8564 16.75C71.4893 16.75 71.1715 16.8411 70.9033 17.0234C70.6377 17.2031 70.4333 17.4375 70.29 17.7266C70.1468 18.0156 70.0752 18.3255 70.0752 18.6562V19.1875C70.0752 19.6406 70.1533 20.0247 70.3096 20.3398C70.4684 20.6523 70.6885 20.8906 70.9697 21.0547C71.251 21.2161 71.5778 21.2969 71.9502 21.2969C72.1924 21.2969 72.4111 21.263 72.6064 21.1953C72.8044 21.125 72.9749 21.0208 73.1182 20.8828C73.2614 20.7422 73.3721 20.5677 73.4502 20.3594L74.3408 20.6094C74.2471 20.9115 74.0895 21.1771 73.8682 21.4062C73.6468 21.6328 73.3734 21.8099 73.0479 21.9375C72.7223 22.0625 72.3564 22.125 71.9502 22.125ZM78.4463 16V16.7812H75.3369V16H78.4463ZM76.2432 14.5625H77.165V20.2812C77.165 20.5417 77.2028 20.737 77.2783 20.8672C77.3564 20.9948 77.4554 21.0807 77.5752 21.125C77.6976 21.1667 77.8265 21.1875 77.9619 21.1875C78.0635 21.1875 78.1468 21.1823 78.2119 21.1719C78.277 21.1589 78.3291 21.1484 78.3682 21.1406L78.5557 21.9687C78.4932 21.9922 78.4059 22.0156 78.2939 22.0391C78.182 22.0651 78.04 22.0781 77.8682 22.0781C77.6077 22.0781 77.3525 22.0221 77.1025 21.9102C76.8551 21.7982 76.6494 21.6276 76.4854 21.3984C76.3239 21.1693 76.2432 20.8802 76.2432 20.5312V14.5625ZM82.2842 22.125C81.7061 22.125 81.2074 21.9974 80.7881 21.7422C80.3714 21.4844 80.0498 21.125 79.8232 20.6641C79.5993 20.2005 79.4873 19.6615 79.4873 19.0469C79.4873 18.4323 79.5993 17.8906 79.8232 17.4219C80.0498 16.9505 80.3649 16.5833 80.7686 16.3203C81.1748 16.0547 81.6488 15.9219 82.1904 15.9219C82.5029 15.9219 82.8115 15.974 83.1162 16.0781C83.4209 16.1823 83.6982 16.3516 83.9482 16.5859C84.1982 16.8177 84.3975 17.125 84.5459 17.5078C84.6943 17.8906 84.7686 18.362 84.7686 18.9219V19.3125H80.1436V18.5156H83.8311C83.8311 18.1771 83.7633 17.875 83.6279 17.6094C83.4951 17.3437 83.305 17.1341 83.0576 16.9805C82.8128 16.8268 82.5238 16.75 82.1904 16.75C81.8232 16.75 81.5055 16.8411 81.2373 17.0234C80.9717 17.2031 80.7673 17.4375 80.624 17.7266C80.4808 18.0156 80.4092 18.3255 80.4092 18.6562V19.1875C80.4092 19.6406 80.4873 20.0247 80.6436 20.3398C80.8024 20.6523 81.0225 20.8906 81.3037 21.0547C81.585 21.2161 81.9118 21.2969 82.2842 21.2969C82.5264 21.2969 82.7451 21.263 82.9404 21.1953C83.1383 21.125 83.3089 21.0208 83.4521 20.8828C83.5954 20.7422 83.7061 20.5677 83.7842 20.3594L84.6748 20.6094C84.5811 20.9115 84.4235 21.1771 84.2021 21.4062C83.9808 21.6328 83.7074 21.8099 83.3818 21.9375C83.0563 22.0625 82.6904 22.125 82.2842 22.125ZM86.1709 22V16H87.0615V16.9062H87.124C87.2334 16.6094 87.4313 16.3685 87.7178 16.1836C88.0042 15.9987 88.3271 15.9062 88.6865 15.9062C88.7542 15.9062 88.8389 15.9076 88.9404 15.9102C89.042 15.9128 89.1188 15.9167 89.1709 15.9219V16.8594C89.1396 16.8516 89.068 16.8398 88.9561 16.8242C88.8467 16.806 88.7308 16.7969 88.6084 16.7969C88.3167 16.7969 88.0563 16.8581 87.8271 16.9805C87.6006 17.1003 87.4209 17.2669 87.2881 17.4805C87.1579 17.6914 87.0928 17.9323 87.0928 18.2031V22H86.1709ZM94.5137 17.3437L93.6855 17.5781C93.6335 17.4401 93.5566 17.306 93.4551 17.1758C93.3561 17.043 93.2207 16.9336 93.0488 16.8477C92.877 16.7617 92.6569 16.7187 92.3887 16.7187C92.0215 16.7187 91.7155 16.8034 91.4707 16.9727C91.2285 17.1393 91.1074 17.3516 91.1074 17.6094C91.1074 17.8385 91.1908 18.0195 91.3574 18.1523C91.5241 18.2852 91.7845 18.3958 92.1387 18.4844L93.0293 18.7031C93.5658 18.8333 93.9655 19.0326 94.2285 19.3008C94.4915 19.5664 94.623 19.9089 94.623 20.3281C94.623 20.6719 94.5241 20.9792 94.3262 21.25C94.1309 21.5208 93.8574 21.7344 93.5059 21.8906C93.1543 22.0469 92.7454 22.125 92.2793 22.125C91.6673 22.125 91.1608 21.9922 90.7598 21.7266C90.3587 21.4609 90.1048 21.0729 89.998 20.5625L90.873 20.3437C90.9564 20.6667 91.1139 20.9089 91.3457 21.0703C91.5801 21.2318 91.8861 21.3125 92.2637 21.3125C92.6934 21.3125 93.0345 21.2214 93.2871 21.0391C93.5423 20.8542 93.6699 20.6328 93.6699 20.375C93.6699 20.1667 93.597 19.9922 93.4512 19.8516C93.3053 19.7083 93.0814 19.6016 92.7793 19.5312L91.7793 19.2969C91.2298 19.1667 90.8262 18.9648 90.5684 18.6914C90.3132 18.4154 90.1855 18.0703 90.1855 17.6562C90.1855 17.3177 90.2806 17.0182 90.4707 16.7578C90.6634 16.4974 90.9251 16.293 91.2559 16.1445C91.5892 15.9961 91.9668 15.9219 92.3887 15.9219C92.9824 15.9219 93.4486 16.0521 93.7871 16.3125C94.1283 16.5729 94.3704 16.9167 94.5137 17.3437ZM101.37 22.125C100.87 22.125 100.429 21.9987 100.046 21.7461C99.6631 21.4909 99.3636 21.1315 99.1475 20.668C98.9313 20.2018 98.8232 19.651 98.8232 19.0156C98.8232 18.3854 98.9313 17.8385 99.1475 17.375C99.3636 16.9115 99.6644 16.5534 100.05 16.3008C100.435 16.0482 100.881 15.9219 101.386 15.9219C101.776 15.9219 102.085 15.987 102.312 16.1172C102.541 16.2448 102.715 16.3906 102.835 16.5547C102.957 16.7161 103.052 16.849 103.12 16.9531H103.198V14H104.12V22H103.229V21.0781H103.12C103.052 21.1875 102.956 21.3255 102.831 21.4922C102.706 21.6562 102.528 21.8034 102.296 21.9336C102.064 22.0612 101.756 22.125 101.37 22.125ZM101.495 21.2969C101.865 21.2969 102.177 21.2005 102.433 21.0078C102.688 20.8125 102.882 20.543 103.015 20.1992C103.147 19.8529 103.214 19.4531 103.214 19C103.214 18.5521 103.149 18.1602 103.019 17.8242C102.888 17.4857 102.696 17.2227 102.44 17.0352C102.185 16.8451 101.87 16.75 101.495 16.75C101.104 16.75 100.779 16.8503 100.519 17.0508C100.261 17.2487 100.067 17.5182 99.9365 17.8594C99.8089 18.1979 99.7451 18.5781 99.7451 19C99.7451 19.4271 99.8102 19.8151 99.9404 20.1641C100.073 20.5104 100.269 20.7865 100.526 20.9922C100.787 21.1953 101.11 21.2969 101.495 21.2969ZM107.702 22.1406C107.322 22.1406 106.977 22.069 106.667 21.9258C106.357 21.7799 106.111 21.5703 105.929 21.2969C105.746 21.0208 105.655 20.6875 105.655 20.2969C105.655 19.9531 105.723 19.6745 105.858 19.4609C105.994 19.2448 106.175 19.0755 106.401 18.9531C106.628 18.8307 106.878 18.7396 107.151 18.6797C107.427 18.6172 107.705 18.5677 107.983 18.5313C108.348 18.4844 108.644 18.4492 108.87 18.4258C109.099 18.3997 109.266 18.3568 109.37 18.2969C109.477 18.237 109.53 18.1328 109.53 17.9844V17.9531C109.53 17.5677 109.425 17.2682 109.214 17.0547C109.006 16.8411 108.689 16.7344 108.265 16.7344C107.825 16.7344 107.479 16.8307 107.229 17.0234C106.979 17.2161 106.804 17.4219 106.702 17.6406L105.827 17.3281C105.983 16.9635 106.192 16.6797 106.452 16.4766C106.715 16.2708 107.002 16.1276 107.312 16.0469C107.624 15.9635 107.931 15.9219 108.233 15.9219C108.426 15.9219 108.647 15.9453 108.897 15.9922C109.15 16.0365 109.394 16.1289 109.628 16.2695C109.865 16.4102 110.062 16.6224 110.218 16.9062C110.374 17.1901 110.452 17.5703 110.452 18.0469V22H109.53V21.1875H109.483C109.421 21.3177 109.317 21.457 109.171 21.6055C109.025 21.7539 108.831 21.8802 108.589 21.9844C108.347 22.0885 108.051 22.1406 107.702 22.1406ZM107.843 21.3125C108.207 21.3125 108.515 21.2409 108.765 21.0977C109.017 20.9544 109.207 20.7695 109.335 20.543C109.465 20.3164 109.53 20.0781 109.53 19.8281V18.9844C109.491 19.0312 109.405 19.0742 109.272 19.1133C109.142 19.1497 108.991 19.1823 108.819 19.2109C108.65 19.237 108.485 19.2604 108.323 19.2812C108.164 19.2995 108.035 19.3151 107.937 19.3281C107.697 19.3594 107.473 19.4102 107.265 19.4805C107.059 19.5482 106.892 19.651 106.765 19.7891C106.64 19.9245 106.577 20.1094 106.577 20.3437C106.577 20.6641 106.696 20.9062 106.933 21.0703C107.172 21.2318 107.476 21.3125 107.843 21.3125ZM114.744 16V16.7812H111.635V16H114.744ZM112.541 14.5625H113.463V20.2812C113.463 20.5417 113.501 20.737 113.576 20.8672C113.654 20.9948 113.753 21.0807 113.873 21.125C113.995 21.1667 114.124 21.1875 114.26 21.1875C114.361 21.1875 114.445 21.1823 114.51 21.1719C114.575 21.1589 114.627 21.1484 114.666 21.1406L114.854 21.9687C114.791 21.9922 114.704 22.0156 114.592 22.0391C114.48 22.0651 114.338 22.0781 114.166 22.0781C113.906 22.0781 113.65 22.0221 113.4 21.9102C113.153 21.7982 112.947 21.6276 112.783 21.3984C112.622 21.1693 112.541 20.8802 112.541 20.5312V14.5625ZM117.896 22.1406C117.516 22.1406 117.171 22.069 116.861 21.9258C116.551 21.7799 116.305 21.5703 116.123 21.2969C115.941 21.0208 115.85 20.6875 115.85 20.2969C115.85 19.9531 115.917 19.6745 116.053 19.4609C116.188 19.2448 116.369 19.0755 116.596 18.9531C116.822 18.8307 117.072 18.7396 117.346 18.6797C117.622 18.6172 117.899 18.5677 118.178 18.5313C118.542 18.4844 118.838 18.4492 119.064 18.4258C119.294 18.3997 119.46 18.3568 119.564 18.2969C119.671 18.237 119.725 18.1328 119.725 17.9844V17.9531C119.725 17.5677 119.619 17.2682 119.408 17.0547C119.2 16.8411 118.883 16.7344 118.459 16.7344C118.019 16.7344 117.674 16.8307 117.424 17.0234C117.174 17.2161 116.998 17.4219 116.896 17.6406L116.021 17.3281C116.178 16.9635 116.386 16.6797 116.646 16.4766C116.91 16.2708 117.196 16.1276 117.506 16.0469C117.818 15.9635 118.126 15.9219 118.428 15.9219C118.62 15.9219 118.842 15.9453 119.092 15.9922C119.344 16.0365 119.588 16.1289 119.822 16.2695C120.059 16.4102 120.256 16.6224 120.412 16.9062C120.568 17.1901 120.646 17.5703 120.646 18.0469V22H119.725V21.1875H119.678C119.615 21.3177 119.511 21.457 119.365 21.6055C119.219 21.7539 119.025 21.8802 118.783 21.9844C118.541 22.0885 118.245 22.1406 117.896 22.1406ZM118.037 21.3125C118.402 21.3125 118.709 21.2409 118.959 21.0977C119.212 20.9544 119.402 20.7695 119.529 20.543C119.66 20.3164 119.725 20.0781 119.725 19.8281V18.9844C119.686 19.0312 119.6 19.0742 119.467 19.1133C119.337 19.1497 119.186 19.1823 119.014 19.2109C118.844 19.237 118.679 19.2604 118.518 19.2812C118.359 19.2995 118.23 19.3151 118.131 19.3281C117.891 19.3594 117.667 19.4102 117.459 19.4805C117.253 19.5482 117.087 19.651 116.959 19.7891C116.834 19.9245 116.771 20.1094 116.771 20.3437C116.771 20.6641 116.89 20.9062 117.127 21.0703C117.367 21.2318 117.67 21.3125 118.037 21.3125ZM129.673 17.3437L128.845 17.5781C128.793 17.4401 128.716 17.306 128.614 17.1758C128.515 17.043 128.38 16.9336 128.208 16.8477C128.036 16.7617 127.816 16.7187 127.548 16.7187C127.181 16.7187 126.875 16.8034 126.63 16.9727C126.388 17.1393 126.267 17.3516 126.267 17.6094C126.267 17.8385 126.35 18.0195 126.517 18.1523C126.683 18.2852 126.944 18.3958 127.298 18.4844L128.188 18.7031C128.725 18.8333 129.125 19.0326 129.388 19.3008C129.651 19.5664 129.782 19.9089 129.782 20.3281C129.782 20.6719 129.683 20.9792 129.485 21.25C129.29 21.5208 129.017 21.7344 128.665 21.8906C128.313 22.0469 127.905 22.125 127.438 22.125C126.826 22.125 126.32 21.9922 125.919 21.7266C125.518 21.4609 125.264 21.0729 125.157 20.5625L126.032 20.3437C126.116 20.6667 126.273 20.9089 126.505 21.0703C126.739 21.2318 127.045 21.3125 127.423 21.3125C127.853 21.3125 128.194 21.2214 128.446 21.0391C128.701 20.8542 128.829 20.6328 128.829 20.375C128.829 20.1667 128.756 19.9922 128.61 19.8516C128.465 19.7083 128.241 19.6016 127.938 19.5312L126.938 19.2969C126.389 19.1667 125.985 18.9648 125.728 18.6914C125.472 18.4154 125.345 18.0703 125.345 17.6562C125.345 17.3177 125.44 17.0182 125.63 16.7578C125.823 16.4974 126.084 16.293 126.415 16.1445C126.748 15.9961 127.126 15.9219 127.548 15.9219C128.142 15.9219 128.608 16.0521 128.946 16.3125C129.287 16.5729 129.53 16.9167 129.673 17.3437ZM133.686 22.125C133.107 22.125 132.609 21.9974 132.189 21.7422C131.773 21.4844 131.451 21.125 131.225 20.6641C131.001 20.2005 130.889 19.6615 130.889 19.0469C130.889 18.4323 131.001 17.8906 131.225 17.4219C131.451 16.9505 131.766 16.5833 132.17 16.3203C132.576 16.0547 133.05 15.9219 133.592 15.9219C133.904 15.9219 134.213 15.974 134.518 16.0781C134.822 16.1823 135.1 16.3516 135.35 16.5859C135.6 16.8177 135.799 17.125 135.947 17.5078C136.096 17.8906 136.17 18.362 136.17 18.9219V19.3125H131.545V18.5156H135.232C135.232 18.1771 135.165 17.875 135.029 17.6094C134.896 17.3437 134.706 17.1341 134.459 16.9805C134.214 16.8268 133.925 16.75 133.592 16.75C133.225 16.75 132.907 16.8411 132.639 17.0234C132.373 17.2031 132.169 17.4375 132.025 17.7266C131.882 18.0156 131.811 18.3255 131.811 18.6562V19.1875C131.811 19.6406 131.889 20.0247 132.045 20.3398C132.204 20.6523 132.424 20.8906 132.705 21.0547C132.986 21.2161 133.313 21.2969 133.686 21.2969C133.928 21.2969 134.146 21.263 134.342 21.1953C134.54 21.125 134.71 21.0208 134.854 20.8828C134.997 20.7422 135.107 20.5677 135.186 20.3594L136.076 20.6094C135.982 20.9115 135.825 21.1771 135.604 21.4062C135.382 21.6328 135.109 21.8099 134.783 21.9375C134.458 22.0625 134.092 22.125 133.686 22.125ZM138.494 18.3906V22H137.572V16H138.463V16.9375H138.541C138.682 16.6328 138.895 16.388 139.182 16.2031C139.468 16.0156 139.838 15.9219 140.291 15.9219C140.697 15.9219 141.053 16.0052 141.357 16.1719C141.662 16.3359 141.899 16.5859 142.068 16.9219C142.238 17.2552 142.322 17.6771 142.322 18.1875V22H141.4V18.25C141.4 17.7786 141.278 17.4115 141.033 17.1484C140.788 16.8828 140.452 16.75 140.025 16.75C139.731 16.75 139.468 16.8138 139.236 16.9414C139.007 17.069 138.826 17.2552 138.693 17.5C138.561 17.7448 138.494 18.0417 138.494 18.3906ZM146.272 22.125C145.772 22.125 145.331 21.9987 144.948 21.7461C144.565 21.4909 144.266 21.1315 144.05 20.668C143.834 20.2018 143.726 19.651 143.726 19.0156C143.726 18.3854 143.834 17.8385 144.05 17.375C144.266 16.9115 144.567 16.5534 144.952 16.3008C145.338 16.0482 145.783 15.9219 146.288 15.9219C146.679 15.9219 146.987 15.987 147.214 16.1172C147.443 16.2448 147.618 16.3906 147.737 16.5547C147.86 16.7161 147.955 16.849 148.022 16.9531H148.101V14H149.022V22H148.132V21.0781H148.022C147.955 21.1875 147.858 21.3255 147.733 21.4922C147.608 21.6562 147.43 21.8034 147.198 21.9336C146.966 22.0612 146.658 22.125 146.272 22.125ZM146.397 21.2969C146.767 21.2969 147.08 21.2005 147.335 21.0078C147.59 20.8125 147.784 20.543 147.917 20.1992C148.05 19.8529 148.116 19.4531 148.116 19C148.116 18.5521 148.051 18.1602 147.921 17.8242C147.791 17.4857 147.598 17.2227 147.343 17.0352C147.088 16.8451 146.772 16.75 146.397 16.75C146.007 16.75 145.681 16.8503 145.421 17.0508C145.163 17.2487 144.969 17.5182 144.839 17.8594C144.711 18.1979 144.647 18.5781 144.647 19C144.647 19.4271 144.713 19.8151 144.843 20.1641C144.976 20.5104 145.171 20.7865 145.429 20.9922C145.689 21.1953 146.012 21.2969 146.397 21.2969ZM150.839 22V16H151.761V22H150.839ZM151.308 15C151.128 15 150.973 14.9388 150.843 14.8164C150.715 14.694 150.651 14.5469 150.651 14.375C150.651 14.2031 150.715 14.056 150.843 13.9336C150.973 13.8112 151.128 13.75 151.308 13.75C151.487 13.75 151.641 13.8112 151.769 13.9336C151.899 14.056 151.964 14.2031 151.964 14.375C151.964 14.5469 151.899 14.694 151.769 14.8164C151.641 14.9388 151.487 15 151.308 15ZM154.371 18.3906V22H153.449V16H154.34V16.9375H154.418C154.559 16.6328 154.772 16.388 155.059 16.2031C155.345 16.0156 155.715 15.9219 156.168 15.9219C156.574 15.9219 156.93 16.0052 157.234 16.1719C157.539 16.3359 157.776 16.5859 157.945 16.9219C158.115 17.2552 158.199 17.6771 158.199 18.1875V22H157.277V18.25C157.277 17.7786 157.155 17.4115 156.91 17.1484C156.665 16.8828 156.329 16.75 155.902 16.75C155.608 16.75 155.345 16.8138 155.113 16.9414C154.884 17.069 154.703 17.2552 154.57 17.5C154.438 17.7448 154.371 18.0417 154.371 18.3906ZM162.306 24.375C161.86 24.375 161.478 24.3177 161.157 24.2031C160.837 24.0911 160.57 23.9427 160.356 23.7578C160.146 23.5755 159.978 23.3802 159.853 23.1719L160.587 22.6563C160.67 22.7656 160.776 22.8906 160.903 23.0312C161.031 23.1745 161.205 23.2982 161.427 23.4023C161.651 23.5091 161.944 23.5625 162.306 23.5625C162.79 23.5625 163.19 23.4453 163.505 23.2109C163.82 22.9766 163.978 22.6094 163.978 22.1094V20.8906H163.899C163.832 21 163.735 21.1354 163.61 21.2969C163.488 21.4557 163.311 21.5977 163.079 21.7227C162.85 21.8451 162.54 21.9062 162.149 21.9062C161.665 21.9062 161.23 21.7917 160.845 21.5625C160.462 21.3333 160.159 21 159.935 20.5625C159.713 20.125 159.603 19.5937 159.603 18.9687C159.603 18.3542 159.711 17.819 159.927 17.3633C160.143 16.9049 160.444 16.5508 160.829 16.3008C161.215 16.0482 161.66 15.9219 162.165 15.9219C162.556 15.9219 162.866 15.987 163.095 16.1172C163.326 16.2448 163.504 16.3906 163.626 16.5547C163.751 16.7161 163.847 16.849 163.915 16.9531H164.009V16H164.899V22.1719C164.899 22.6875 164.782 23.1068 164.548 23.4297C164.316 23.7552 164.004 23.9935 163.61 24.1445C163.22 24.2982 162.785 24.375 162.306 24.375ZM162.274 21.0781C162.644 21.0781 162.957 20.9935 163.212 20.8242C163.467 20.6549 163.661 20.4115 163.794 20.0938C163.927 19.776 163.993 19.3958 163.993 18.9531C163.993 18.5208 163.928 18.1393 163.798 17.8086C163.668 17.4779 163.475 17.2187 163.22 17.0312C162.965 16.8437 162.649 16.75 162.274 16.75C161.884 16.75 161.558 16.849 161.298 17.0469C161.04 17.2448 160.846 17.5104 160.716 17.8438C160.588 18.1771 160.524 18.5469 160.524 18.9531C160.524 19.3698 160.59 19.7383 160.72 20.0586C160.853 20.3763 161.048 20.6263 161.306 20.8086C161.566 20.9883 161.889 21.0781 162.274 21.0781Z" fill="black"/>
</svg>
