<svg width="837" height="1072" viewBox="0 0 837 1072" fill="none" xmlns="http://www.w3.org/2000/svg">
<g clip-path="url(#clip0_552_2986)">
<path d="M77.7807 122.993C77.7807 101.511 74.911 165.887 72.162 187.192C70.3449 201.274 70.2891 243.948 70.2891 229.749" stroke="#1E1E1E" stroke-width="8" stroke-linecap="round" stroke-linejoin="round"/>
<path d="M87.1436 121.12C80.245 116.685 126.646 113.628 130.325 113.628C162.64 113.628 194.42 120.538 226.676 114.565C255.144 109.293 285.032 111.677 313.766 109.466C333.142 107.976 351.947 106.137 371.41 106.137C379.781 106.137 384.59 107.74 392.012 111.755C399.407 115.756 405.929 115.501 414.071 115.501C417.827 115.501 430.284 111.277 433.216 113.42C437.356 116.446 435.739 128.947 435.401 133.502C433.888 153.932 429.14 174.238 426.557 194.58C424.604 209.959 426.196 223.907 422.395 239.113" stroke="#1E1E1E" stroke-width="8" stroke-linecap="round" stroke-linejoin="round"/>
<path d="M74.0312 239.113C80.0194 228.933 101.997 230.313 111.906 229.852C131.813 228.926 151.426 227.875 171.423 227.875C211.234 227.875 251.246 229.373 290.873 225.066C302.027 223.854 313.166 224.13 324.377 224.13C336.151 224.13 346.37 226.85 357.881 227.771C378.833 229.447 402.126 221.12 422.393 227.875" stroke="#1E1E1E" stroke-width="8" stroke-linecap="round" stroke-linejoin="round"/>
<path d="M62.9659 449.444C52.6114 449.444 83.6185 447.571 93.973 447.571C114.928 447.571 135.693 447.571 156.612 447.571C190.233 447.571 224.063 449.444 257.853 449.444C286.397 449.444 314.942 449.444 343.486 449.444C358.61 449.444 373.203 445.698 388.436 445.698C394.194 445.698 399.951 445.698 405.709 445.698C409.68 445.698 419.113 443.629 413.2 447.571" stroke="#1E1E1E" stroke-width="8" stroke-linecap="round" stroke-linejoin="round"/>
<path d="M59.2188 503.758C87.0927 503.758 115.048 498.139 142.875 498.139C172.827 498.139 204.472 498.038 234.128 502.821C258.975 506.829 283.066 500.012 307.692 500.012C329.75 500.012 351.809 500.012 373.868 500.012" stroke="#1E1E1E" stroke-width="8" stroke-linecap="round" stroke-linejoin="round"/>
<path d="M55.4727 556.2C61.5075 551.171 77.7253 557.681 85.6473 558.177C103.739 559.307 121.579 559.945 139.754 559.945C161.201 559.945 182.624 561.336 203.849 561.818C223.664 562.269 243.545 561.818 263.366 561.818C282.412 561.818 300.641 558.073 319.553 558.073" stroke="#1E1E1E" stroke-width="8" stroke-linecap="round" stroke-linejoin="round"/>
<rect width="480" height="1072" rx="6" stroke="#1E1E1E" stroke-width="4" stroke-linecap="round"/>
<rect x="27" y="847" width="416" height="80" rx="6" fill="#9747FF"/>
<path d="M523.719 23.8634V21.7327L531.261 9.81791H532.94V12.9543H531.875L526.48 21.4941V21.6304H536.818V23.8634H523.719ZM531.994 27.2725V23.2156L532.011 22.2441V9.81791H534.509V27.2725H531.994ZM541.621 27.4344C541.155 27.4344 540.754 27.2696 540.419 26.9401C540.084 26.6048 539.916 26.2014 539.916 25.7298C539.916 25.2639 540.084 24.8662 540.419 24.5367C540.754 24.2014 541.155 24.0338 541.621 24.0338C542.087 24.0338 542.487 24.2014 542.823 24.5367C543.158 24.8662 543.325 25.2639 543.325 25.7298C543.325 26.0423 543.246 26.3293 543.087 26.5906C542.933 26.8463 542.729 27.0509 542.473 27.2043C542.217 27.3577 541.933 27.4344 541.621 27.4344ZM558.335 27.2725L553.494 9.81791H556.264L559.665 23.335H559.827L563.364 9.81791H566.108L569.645 23.3435H569.807L573.199 9.81791H575.977L571.128 27.2725H568.477L564.804 14.1986H564.668L560.994 27.2725H558.335ZM580.239 27.5622C579.409 27.5622 578.659 27.4088 577.989 27.102C577.318 26.7895 576.787 26.3378 576.395 25.7469C576.008 25.156 575.815 24.4316 575.815 23.5736C575.815 22.835 575.957 22.227 576.241 21.7497C576.526 21.2725 576.909 20.8946 577.392 20.6162C577.875 20.3378 578.415 20.1276 579.011 19.9855C579.608 19.8435 580.216 19.7355 580.835 19.6617C581.619 19.5708 582.256 19.4969 582.744 19.4401C583.233 19.3776 583.588 19.2781 583.81 19.1418C584.031 19.0054 584.142 18.7838 584.142 18.477V18.4173C584.142 17.673 583.932 17.0963 583.511 16.6872C583.097 16.2781 582.477 16.0736 581.653 16.0736C580.795 16.0736 580.119 16.2639 579.625 16.6446C579.136 17.0196 578.798 17.4372 578.611 17.8975L576.216 17.352C576.5 16.5566 576.915 15.9145 577.46 15.4259C578.011 14.9316 578.645 14.5736 579.361 14.352C580.077 14.1247 580.83 14.0111 581.619 14.0111C582.142 14.0111 582.696 14.0736 583.281 14.1986C583.872 14.3179 584.423 14.5395 584.935 14.8634C585.452 15.1872 585.875 15.6503 586.205 16.2526C586.534 16.8492 586.699 17.6247 586.699 18.5793V27.2725H584.21V25.4827H584.108C583.943 25.8122 583.696 26.1361 583.366 26.4543C583.037 26.7725 582.614 27.0367 582.097 27.2469C581.58 27.4571 580.96 27.5622 580.239 27.5622ZM580.793 25.5168C581.497 25.5168 582.099 25.3776 582.599 25.0992C583.105 24.8208 583.489 24.4571 583.75 24.0083C584.017 23.5537 584.151 23.0679 584.151 22.5509V20.8634C584.06 20.9543 583.883 21.0395 583.622 21.1191C583.366 21.1929 583.074 21.2583 582.744 21.3151C582.415 21.3662 582.094 21.4145 581.781 21.46C581.469 21.4997 581.207 21.5338 580.997 21.5622C580.503 21.6247 580.051 21.7298 579.642 21.8776C579.239 22.0253 578.915 22.2384 578.67 22.5168C578.432 22.7895 578.312 23.1531 578.312 23.6077C578.312 24.2384 578.545 24.7156 579.011 25.0395C579.477 25.3577 580.071 25.5168 580.793 25.5168ZM595.748 14.1816V16.227H588.597V14.1816H595.748ZM590.515 11.0452H593.063V23.4287C593.063 23.923 593.137 24.2952 593.285 24.5452C593.432 24.7895 593.623 24.9571 593.856 25.048C594.094 25.1333 594.353 25.1759 594.631 25.1759C594.836 25.1759 595.015 25.1617 595.168 25.1333C595.322 25.1048 595.441 25.0821 595.526 25.0651L595.986 27.1702C595.839 27.227 595.628 27.2838 595.356 27.3406C595.083 27.4031 594.742 27.4372 594.333 27.4429C593.663 27.4543 593.038 27.335 592.458 27.085C591.878 26.835 591.41 26.4486 591.052 25.9259C590.694 25.4031 590.515 24.7469 590.515 23.9571V11.0452ZM603.612 27.5367C602.322 27.5367 601.212 27.2611 600.28 26.71C599.354 26.1531 598.638 25.3719 598.132 24.3662C597.632 23.3548 597.382 22.1702 597.382 20.8122C597.382 19.4713 597.632 18.2895 598.132 17.2668C598.638 16.2441 599.342 15.4458 600.246 14.8719C601.155 14.298 602.217 14.0111 603.433 14.0111C604.172 14.0111 604.888 14.1333 605.581 14.3776C606.274 14.6219 606.896 15.0054 607.447 15.5281C607.998 16.0509 608.433 16.7298 608.751 17.5651C609.07 18.3946 609.229 19.4031 609.229 20.5906V21.4941H598.822V19.585H606.731C606.731 18.9145 606.595 18.3208 606.322 17.8037C606.05 17.281 605.666 16.8691 605.172 16.5679C604.683 16.2668 604.109 16.1162 603.45 16.1162C602.734 16.1162 602.109 16.2923 601.575 16.6446C601.047 16.9912 600.638 17.4458 600.348 18.0083C600.064 18.5651 599.922 19.1702 599.922 19.8236V21.3151C599.922 22.1901 600.075 22.9344 600.382 23.548C600.695 24.1617 601.129 24.6304 601.686 24.9543C602.243 25.2725 602.893 25.4316 603.638 25.4316C604.121 25.4316 604.561 25.3634 604.959 25.227C605.356 25.085 605.7 24.8747 605.99 24.5963C606.28 24.3179 606.501 23.9742 606.655 23.5651L609.067 23.9997C608.873 24.71 608.527 25.3321 608.027 25.8662C607.533 26.3946 606.91 26.8066 606.16 27.102C605.416 27.3918 604.567 27.5367 603.612 27.5367ZM611.6 27.2725V14.1816H614.063V16.2611H614.199C614.438 15.5566 614.859 15.0026 615.461 14.5992C616.069 14.1901 616.756 13.9855 617.523 13.9855C617.682 13.9855 617.87 13.9912 618.086 14.0026C618.307 14.0139 618.481 14.0281 618.606 14.0452V16.4827C618.503 16.4543 618.322 16.423 618.06 16.3889C617.799 16.3492 617.538 16.3293 617.276 16.3293C616.674 16.3293 616.137 16.4571 615.665 16.7128C615.199 16.9628 614.83 17.3122 614.557 17.7611C614.285 18.2043 614.148 18.71 614.148 19.2781V27.2725H611.6ZM626.251 27.2725V14.1816H628.697V16.3122H628.858C629.131 15.5906 629.577 15.0281 630.197 14.6247C630.816 14.2156 631.557 14.0111 632.421 14.0111C633.296 14.0111 634.029 14.2156 634.62 14.6247C635.216 15.0338 635.657 15.5963 635.941 16.3122H636.077C636.39 15.6134 636.887 15.0566 637.569 14.6418C638.251 14.2213 639.063 14.0111 640.006 14.0111C641.194 14.0111 642.162 14.3833 642.912 15.1276C643.668 15.8719 644.046 16.9941 644.046 18.4941V27.2725H641.498V18.7327C641.498 17.8463 641.256 17.2043 640.773 16.8066C640.29 16.4088 639.714 16.21 639.043 16.21C638.214 16.21 637.569 16.4656 637.108 16.977C636.648 17.4827 636.418 18.1333 636.418 18.9287V27.2725H633.878V18.5708C633.878 17.8605 633.657 17.2895 633.214 16.8577C632.77 16.4259 632.194 16.21 631.483 16.21C631.001 16.21 630.554 16.3378 630.145 16.5935C629.742 16.8435 629.415 17.1929 629.165 17.6418C628.921 18.0906 628.799 18.6105 628.799 19.2014V27.2725H626.251ZM652.647 27.5367C651.358 27.5367 650.247 27.2611 649.315 26.71C648.389 26.1531 647.673 25.3719 647.167 24.3662C646.667 23.3548 646.417 22.1702 646.417 20.8122C646.417 19.4713 646.667 18.2895 647.167 17.2668C647.673 16.2441 648.378 15.4458 649.281 14.8719C650.19 14.298 651.253 14.0111 652.469 14.0111C653.207 14.0111 653.923 14.1333 654.616 14.3776C655.309 14.6219 655.932 15.0054 656.483 15.5281C657.034 16.0509 657.469 16.7298 657.787 17.5651C658.105 18.3946 658.264 19.4031 658.264 20.5906V21.4941H647.858V19.585H655.767C655.767 18.9145 655.63 18.3208 655.358 17.8037C655.085 17.281 654.701 16.8691 654.207 16.5679C653.719 16.2668 653.145 16.1162 652.486 16.1162C651.77 16.1162 651.145 16.2923 650.611 16.6446C650.082 16.9912 649.673 17.4458 649.383 18.0083C649.099 18.5651 648.957 19.1702 648.957 19.8236V21.3151C648.957 22.1901 649.111 22.9344 649.417 23.548C649.73 24.1617 650.165 24.6304 650.721 24.9543C651.278 25.2725 651.929 25.4316 652.673 25.4316C653.156 25.4316 653.596 25.3634 653.994 25.227C654.392 25.085 654.736 24.8747 655.025 24.5963C655.315 24.3179 655.537 23.9742 655.69 23.5651L658.102 23.9997C657.909 24.71 657.562 25.3321 657.062 25.8662C656.568 26.3946 655.946 26.8066 655.196 27.102C654.451 27.3918 653.602 27.5367 652.647 27.5367ZM666.746 14.1816V16.227H659.596V14.1816H666.746ZM661.513 11.0452H664.062V23.4287C664.062 23.923 664.135 24.2952 664.283 24.5452C664.431 24.7895 664.621 24.9571 664.854 25.048C665.093 25.1333 665.351 25.1759 665.63 25.1759C665.834 25.1759 666.013 25.1617 666.167 25.1333C666.32 25.1048 666.439 25.0821 666.525 25.0651L666.985 27.1702C666.837 27.227 666.627 27.2838 666.354 27.3406C666.081 27.4031 665.74 27.4372 665.331 27.4429C664.661 27.4543 664.036 27.335 663.456 27.085C662.877 26.835 662.408 26.4486 662.05 25.9259C661.692 25.4031 661.513 24.7469 661.513 23.9571V11.0452ZM674.61 27.5367C673.321 27.5367 672.21 27.2611 671.278 26.71C670.352 26.1531 669.636 25.3719 669.13 24.3662C668.63 23.3548 668.38 22.1702 668.38 20.8122C668.38 19.4713 668.63 18.2895 669.13 17.2668C669.636 16.2441 670.341 15.4458 671.244 14.8719C672.153 14.298 673.216 14.0111 674.432 14.0111C675.17 14.0111 675.886 14.1333 676.579 14.3776C677.272 14.6219 677.895 15.0054 678.446 15.5281C678.997 16.0509 679.432 16.7298 679.75 17.5651C680.068 18.3946 680.227 19.4031 680.227 20.5906V21.4941H669.821V19.585H677.73C677.73 18.9145 677.593 18.3208 677.321 17.8037C677.048 17.281 676.664 16.8691 676.17 16.5679C675.682 16.2668 675.108 16.1162 674.449 16.1162C673.733 16.1162 673.108 16.2923 672.574 16.6446C672.045 16.9912 671.636 17.4458 671.346 18.0083C671.062 18.5651 670.92 19.1702 670.92 19.8236V21.3151C670.92 22.1901 671.074 22.9344 671.38 23.548C671.693 24.1617 672.128 24.6304 672.684 24.9543C673.241 25.2725 673.892 25.4316 674.636 25.4316C675.119 25.4316 675.559 25.3634 675.957 25.227C676.355 25.085 676.699 24.8747 676.988 24.5963C677.278 24.3179 677.5 23.9742 677.653 23.5651L680.065 23.9997C679.872 24.71 679.525 25.3321 679.025 25.8662C678.531 26.3946 677.909 26.8066 677.159 27.102C676.414 27.3918 675.565 27.5367 674.61 27.5367ZM682.598 27.2725V14.1816H685.061V16.2611H685.198C685.436 15.5566 685.857 15.0026 686.459 14.5992C687.067 14.1901 687.755 13.9855 688.522 13.9855C688.681 13.9855 688.868 13.9912 689.084 14.0026C689.306 14.0139 689.479 14.0281 689.604 14.0452V16.4827C689.502 16.4543 689.32 16.423 689.059 16.3889C688.797 16.3492 688.536 16.3293 688.275 16.3293C687.672 16.3293 687.135 16.4571 686.664 16.7128C686.198 16.9628 685.828 17.3122 685.556 17.7611C685.283 18.2043 685.147 18.71 685.147 19.2781V27.2725H682.598ZM697.249 27.2725V14.1816H699.797V27.2725H697.249ZM698.536 12.1617C698.093 12.1617 697.712 12.0139 697.394 11.7185C697.081 11.4173 696.925 11.0594 696.925 10.6446C696.925 10.2242 697.081 9.86621 697.394 9.57076C697.712 9.26962 698.093 9.11905 698.536 9.11905C698.979 9.11905 699.357 9.26962 699.669 9.57076C699.988 9.86621 700.147 10.2242 700.147 10.6446C700.147 11.0594 699.988 11.4173 699.669 11.7185C699.357 12.0139 698.979 12.1617 698.536 12.1617ZM705.318 19.4997V27.2725H702.769V14.1816H705.215V16.3122H705.377C705.679 15.6191 706.15 15.0622 706.792 14.6418C707.44 14.2213 708.255 14.0111 709.238 14.0111C710.13 14.0111 710.911 14.1986 711.582 14.5736C712.252 14.9429 712.772 15.4941 713.142 16.227C713.511 16.96 713.696 17.8662 713.696 18.9458V27.2725H711.147V19.2526C711.147 18.3037 710.9 17.5622 710.406 17.0281C709.911 16.4884 709.233 16.2185 708.369 16.2185C707.778 16.2185 707.252 16.3463 706.792 16.602C706.338 16.8577 705.977 17.2327 705.71 17.727C705.448 18.2156 705.318 18.8066 705.318 19.4997ZM726.467 17.3776L724.157 17.7867C724.061 17.4912 723.907 17.21 723.697 16.9429C723.492 16.6759 723.214 16.4571 722.862 16.2867C722.509 16.1162 722.069 16.031 721.541 16.031C720.819 16.031 720.217 16.1929 719.734 16.5168C719.251 16.835 719.009 17.2469 719.009 17.7526C719.009 18.1901 719.171 18.5423 719.495 18.8094C719.819 19.0764 720.342 19.2952 721.063 19.4656L723.143 19.9429C724.348 20.2213 725.245 20.6503 725.836 21.2298C726.427 21.8094 726.723 22.5622 726.723 23.4884C726.723 24.2725 726.495 24.9713 726.041 25.585C725.592 26.1929 724.964 26.6702 724.157 27.0168C723.356 27.3634 722.427 27.5367 721.37 27.5367C719.904 27.5367 718.708 27.2242 717.782 26.5992C716.856 25.9685 716.288 25.0736 716.078 23.9145L718.541 23.5395C718.694 24.1816 719.009 24.6673 719.487 24.9969C719.964 25.3208 720.586 25.4827 721.353 25.4827C722.188 25.4827 722.856 25.3094 723.356 24.9628C723.856 24.6105 724.106 24.1816 724.106 23.6759C724.106 23.2668 723.953 22.923 723.646 22.6446C723.345 22.3662 722.882 22.156 722.257 22.0139L720.041 21.5281C718.819 21.2497 717.916 20.8066 717.33 20.1986C716.751 19.5906 716.461 18.8208 716.461 17.8889C716.461 17.1162 716.677 16.4401 717.109 15.8605C717.541 15.281 718.137 14.8293 718.899 14.5054C719.66 14.1759 720.532 14.0111 721.515 14.0111C722.93 14.0111 724.044 14.3179 724.856 14.9316C725.669 15.5395 726.205 16.3548 726.467 17.3776ZM735.179 14.1816V16.227H728.029V14.1816H735.179ZM729.946 11.0452H732.495V23.4287C732.495 23.923 732.568 24.2952 732.716 24.5452C732.864 24.7895 733.054 24.9571 733.287 25.048C733.526 25.1333 733.784 25.1759 734.063 25.1759C734.267 25.1759 734.446 25.1617 734.6 25.1333C734.753 25.1048 734.872 25.0821 734.958 25.0651L735.418 27.1702C735.27 27.227 735.06 27.2838 734.787 27.3406C734.514 27.4031 734.173 27.4372 733.764 27.4429C733.094 27.4543 732.469 27.335 731.889 27.085C731.31 26.835 730.841 26.4486 730.483 25.9259C730.125 25.4031 729.946 24.7469 729.946 23.9571V11.0452ZM741.352 27.5622C740.522 27.5622 739.772 27.4088 739.102 27.102C738.431 26.7895 737.9 26.3378 737.508 25.7469C737.122 25.156 736.928 24.4316 736.928 23.5736C736.928 22.835 737.07 22.227 737.355 21.7497C737.639 21.2725 738.022 20.8946 738.505 20.6162C738.988 20.3378 739.528 20.1276 740.124 19.9855C740.721 19.8435 741.329 19.7355 741.948 19.6617C742.732 19.5708 743.369 19.4969 743.857 19.4401C744.346 19.3776 744.701 19.2781 744.923 19.1418C745.144 19.0054 745.255 18.7838 745.255 18.477V18.4173C745.255 17.673 745.045 17.0963 744.624 16.6872C744.21 16.2781 743.59 16.0736 742.766 16.0736C741.909 16.0736 741.232 16.2639 740.738 16.6446C740.249 17.0196 739.911 17.4372 739.724 17.8975L737.329 17.352C737.613 16.5566 738.028 15.9145 738.573 15.4259C739.124 14.9316 739.758 14.5736 740.474 14.352C741.19 14.1247 741.943 14.0111 742.732 14.0111C743.255 14.0111 743.809 14.0736 744.394 14.1986C744.985 14.3179 745.536 14.5395 746.048 14.8634C746.565 15.1872 746.988 15.6503 747.318 16.2526C747.647 16.8492 747.812 17.6247 747.812 18.5793V27.2725H745.323V25.4827H745.221C745.056 25.8122 744.809 26.1361 744.48 26.4543C744.15 26.7725 743.727 27.0367 743.21 27.2469C742.693 27.4571 742.073 27.5622 741.352 27.5622ZM741.906 25.5168C742.61 25.5168 743.213 25.3776 743.713 25.0992C744.218 24.8208 744.602 24.4571 744.863 24.0083C745.13 23.5537 745.264 23.0679 745.264 22.5509V20.8634C745.173 20.9543 744.997 21.0395 744.735 21.1191C744.48 21.1929 744.187 21.2583 743.857 21.3151C743.528 21.3662 743.207 21.4145 742.894 21.46C742.582 21.4997 742.32 21.5338 742.11 21.5622C741.616 21.6247 741.164 21.7298 740.755 21.8776C740.352 22.0253 740.028 22.2384 739.784 22.5168C739.545 22.7895 739.426 23.1531 739.426 23.6077C739.426 24.2384 739.659 24.7156 740.124 25.0395C740.59 25.3577 741.184 25.5168 741.906 25.5168ZM753.298 9.81791V27.2725H750.75V9.81791H753.298ZM758.819 9.81791V27.2725H756.271V9.81791H758.819ZM765.601 27.5622C764.771 27.5622 764.021 27.4088 763.351 27.102C762.68 26.7895 762.149 26.3378 761.757 25.7469C761.371 25.156 761.178 24.4316 761.178 23.5736C761.178 22.835 761.32 22.227 761.604 21.7497C761.888 21.2725 762.271 20.8946 762.754 20.6162C763.237 20.3378 763.777 20.1276 764.374 19.9855C764.97 19.8435 765.578 19.7355 766.198 19.6617C766.982 19.5708 767.618 19.4969 768.107 19.4401C768.595 19.3776 768.95 19.2781 769.172 19.1418C769.394 19.0054 769.504 18.7838 769.504 18.477V18.4173C769.504 17.673 769.294 17.0963 768.874 16.6872C768.459 16.2781 767.84 16.0736 767.016 16.0736C766.158 16.0736 765.482 16.2639 764.987 16.6446C764.499 17.0196 764.161 17.4372 763.973 17.8975L761.578 17.352C761.862 16.5566 762.277 15.9145 762.823 15.4259C763.374 14.9316 764.007 14.5736 764.723 14.352C765.439 14.1247 766.192 14.0111 766.982 14.0111C767.504 14.0111 768.058 14.0736 768.644 14.1986C769.234 14.3179 769.786 14.5395 770.297 14.8634C770.814 15.1872 771.237 15.6503 771.567 16.2526C771.896 16.8492 772.061 17.6247 772.061 18.5793V27.2725H769.573V25.4827H769.47C769.305 25.8122 769.058 26.1361 768.729 26.4543C768.399 26.7725 767.976 27.0367 767.459 27.2469C766.942 27.4571 766.323 27.5622 765.601 27.5622ZM766.155 25.5168C766.859 25.5168 767.462 25.3776 767.962 25.0992C768.467 24.8208 768.851 24.4571 769.112 24.0083C769.379 23.5537 769.513 23.0679 769.513 22.5509V20.8634C769.422 20.9543 769.246 21.0395 768.984 21.1191C768.729 21.1929 768.436 21.2583 768.107 21.3151C767.777 21.3662 767.456 21.4145 767.144 21.46C766.831 21.4997 766.57 21.5338 766.359 21.5622C765.865 21.6247 765.413 21.7298 765.004 21.8776C764.601 22.0253 764.277 22.2384 764.033 22.5168C763.794 22.7895 763.675 23.1531 763.675 23.6077C763.675 24.2384 763.908 24.7156 764.374 25.0395C764.84 25.3577 765.433 25.5168 766.155 25.5168ZM781.11 14.1816V16.227H773.96V14.1816H781.11ZM775.877 11.0452H778.425V23.4287C778.425 23.923 778.499 24.2952 778.647 24.5452C778.795 24.7895 778.985 24.9571 779.218 25.048C779.457 25.1333 779.715 25.1759 779.994 25.1759C780.198 25.1759 780.377 25.1617 780.531 25.1333C780.684 25.1048 780.803 25.0821 780.889 25.0651L781.349 27.1702C781.201 27.227 780.991 27.2838 780.718 27.3406C780.445 27.4031 780.104 27.4372 779.695 27.4429C779.025 27.4543 778.4 27.335 777.82 27.085C777.241 26.835 776.772 26.4486 776.414 25.9259C776.056 25.4031 775.877 24.7469 775.877 23.9571V11.0452ZM783.473 27.2725V14.1816H786.021V27.2725H783.473ZM784.76 12.1617C784.317 12.1617 783.936 12.0139 783.618 11.7185C783.305 11.4173 783.149 11.0594 783.149 10.6446C783.149 10.2242 783.305 9.86621 783.618 9.57076C783.936 9.26962 784.317 9.11905 784.76 9.11905C785.203 9.11905 785.581 9.26962 785.893 9.57076C786.212 9.86621 786.371 10.2242 786.371 10.6446C786.371 11.0594 786.212 11.4173 785.893 11.7185C785.581 12.0139 785.203 12.1617 784.76 12.1617ZM794.508 27.5367C793.28 27.5367 792.209 27.2554 791.295 26.6929C790.38 26.1304 789.67 25.3435 789.164 24.3321C788.658 23.3208 788.405 22.1389 788.405 20.7867C788.405 19.4287 788.658 18.2412 789.164 17.2242C789.67 16.2071 790.38 15.4173 791.295 14.8548C792.209 14.2923 793.28 14.0111 794.508 14.0111C795.735 14.0111 796.806 14.2923 797.721 14.8548C798.636 15.4173 799.346 16.2071 799.852 17.2242C800.357 18.2412 800.61 19.4287 800.61 20.7867C800.61 22.1389 800.357 23.3208 799.852 24.3321C799.346 25.3435 798.636 26.1304 797.721 26.6929C796.806 27.2554 795.735 27.5367 794.508 27.5367ZM794.516 25.3975C795.312 25.3975 795.971 25.1872 796.494 24.7668C797.016 24.3463 797.403 23.7867 797.653 23.0878C797.908 22.3889 798.036 21.6191 798.036 20.7781C798.036 19.9429 797.908 19.1759 797.653 18.477C797.403 17.7725 797.016 17.2071 796.494 16.781C795.971 16.3548 795.312 16.1418 794.516 16.1418C793.715 16.1418 793.05 16.3548 792.522 16.781C791.999 17.2071 791.61 17.7725 791.354 18.477C791.104 19.1759 790.979 19.9429 790.979 20.7781C790.979 21.6191 791.104 22.3889 791.354 23.0878C791.61 23.7867 791.999 24.3463 792.522 24.7668C793.05 25.1872 793.715 25.3975 794.516 25.3975ZM805.547 19.4997V27.2725H802.998V14.1816H805.445V16.3122H805.606C805.908 15.6191 806.379 15.0622 807.021 14.6418C807.669 14.2213 808.484 14.0111 809.467 14.0111C810.359 14.0111 811.141 14.1986 811.811 14.5736C812.481 14.9429 813.001 15.4941 813.371 16.227C813.74 16.96 813.925 17.8662 813.925 18.9458V27.2725H811.376V19.2526C811.376 18.3037 811.129 17.5622 810.635 17.0281C810.141 16.4884 809.462 16.2185 808.598 16.2185C808.007 16.2185 807.481 16.3463 807.021 16.602C806.567 16.8577 806.206 17.2327 805.939 17.727C805.677 18.2156 805.547 18.8066 805.547 19.4997Z" fill="#1E1E1E"/>
<path d="M44.8366 35.017C48.5137 29.1336 45.34 32.852 43.4628 35.6677C41.0927 39.223 36.9863 42.0779 34.4245 45.7183C31.9361 49.2545 22.8448 53.3453 25.9647 55.8412C30.1908 59.2222 35.5173 65.1483 38.9075 69.5072C41.849 73.289 46.1382 74.1118 46.1382 79.2685" stroke="#1E1E1E" stroke-width="8" stroke-linecap="round" stroke-linejoin="round"/>
<path d="M64.358 57.1424C63.1718 55.7867 82.1479 56.0396 84.893 55.5516C94.6886 53.8102 104.871 54.5393 114.828 54.5393C121.887 54.5393 136.031 51.9811 141.147 54.5393" stroke="#1E1E1E" stroke-width="8" stroke-linecap="round" stroke-linejoin="round"/>
<path d="M349.312 52.3051C345.875 52.3051 343.32 50.624 348.471 50.624C353.67 50.624 358.869 50.624 364.068 50.624C372.037 50.624 380.007 50.624 387.976 50.624" stroke="#1E1E1E" stroke-width="8" stroke-linecap="round" stroke-linejoin="round"/>
<path d="M424.96 23.7274C429.115 23.2656 425.317 23.3524 422.345 28.0234C417.586 35.501 413.913 43.1792 410.67 51.4649C407.138 60.4917 402.16 69.3259 398.062 77.5214" stroke="#1E1E1E" stroke-width="8" stroke-linecap="round" stroke-linejoin="round"/>
<path d="M428.32 53.986C428.836 49.8605 454.841 52.305 458.579 52.305" stroke="#1E1E1E" stroke-width="8" stroke-linecap="round" stroke-linejoin="round"/>
<path d="M78.5626 289.6C62.6404 294.695 70.7622 293.421 70.7622 306.175C70.7622 320.151 70.7622 334.127 70.7622 348.103C70.7622 357.239 70.7622 366.376 70.7622 375.512C70.7622 381.498 69.6989 385.597 67.2954 391.005C64.6759 396.898 64.4593 392.659 66.862 389.055" stroke="#1E1E1E" stroke-width="8" stroke-linecap="round" stroke-linejoin="round"/>
<path d="M66.8594 394.905C86.026 391.838 105.226 390.32 124.496 388.08C150.862 385.014 176.4 377.678 202.933 374.971C246.308 370.545 288.847 369.554 332.506 369.554C364.599 369.554 395.776 373.454 427.628 373.454" stroke="#1E1E1E" stroke-width="8" stroke-linecap="round" stroke-linejoin="round"/>
<path d="M70.7599 297.4C52.8893 297.4 67.5057 294.794 74.7685 292.525C80.4178 290.759 87.7279 293.025 93.2944 294.583C103.627 297.476 114.152 299.217 124.929 299.35C147.972 299.635 170.639 295.45 193.724 295.45C221.279 295.45 248.833 295.45 276.387 295.45C300.005 295.45 323.623 295.45 347.241 295.45C358.96 295.45 374.431 291.104 385.701 293.608C392.804 295.187 398.999 295.45 406.61 295.45C412.738 295.45 424.79 295.45 412.027 295.45" stroke="#1E1E1E" stroke-width="8" stroke-linecap="round" stroke-linejoin="round"/>
<path d="M431.53 299.35C422.955 295.315 429.58 293.667 429.58 303.359C429.58 318.129 429.58 332.899 429.58 347.67C429.58 353.355 427.655 363.36 430.555 368.579C434.082 374.928 427.436 377.935 425.68 383.205" stroke="#1E1E1E" stroke-width="8" stroke-linecap="round" stroke-linejoin="round"/>
<path d="M59.0586 394.905C59.0586 389.355 74.6427 388.084 79.5346 386.996C102.715 381.845 125.451 370.821 148.655 364.679C169.095 359.268 188.735 353.223 209.216 348.103C231.286 342.585 253.462 337.783 275.52 332.502C294.857 327.872 315.096 325.74 334.022 319.718C348.002 315.27 364.38 310.603 378.875 308.992C390.435 307.708 402.092 301.926 413.977 301.3C416.849 301.149 423.419 292.166 421.777 295.45" stroke="#1E1E1E" stroke-width="8" stroke-linecap="round" stroke-linejoin="round"/>
<path d="M57.1094 305.201C57.9892 298.162 82.1477 311.15 84.5191 311.918C108.11 319.55 132.497 324.618 156.564 330.552C201.749 341.693 248.937 350.478 295.021 356.878C313.874 359.497 332.398 362.197 351.141 365.22C366.292 367.664 381.008 372.031 396.318 373.562C406.492 374.58 418.26 376.834 428.061 379.738C441.974 383.86 428.643 381.255 421.778 381.255" stroke="#1E1E1E" stroke-width="8" stroke-linecap="round" stroke-linejoin="round"/>
<rect x="27" y="959" width="416" height="80" rx="6" stroke="#9747FF" stroke-width="4" stroke-linecap="round"/>
<path d="M239.198 866.42C233.613 866.42 226.94 866.251 222.041 869.253C218.007 871.726 215.398 876.479 213.345 880.586C207.783 891.71 216.855 906.714 229.282 906.714C233.03 906.714 238.405 906.678 242.07 905.691C246.785 904.422 247.649 903.966 249.665 899.71C251.087 896.708 252.656 896.073 252.656 892.273C252.656 890.094 249.564 888.185 250.531 886.252" stroke="white" stroke-width="8" stroke-linecap="round" stroke-linejoin="round"/>
</g>
<defs>
<clipPath id="clip0_552_2986">
<rect width="837" height="1072" fill="white"/>
</clipPath>
</defs>
</svg>
