<svg width="842" height="1072" viewBox="0 0 842 1072" fill="none" xmlns="http://www.w3.org/2000/svg">
<g clip-path="url(#clip0_552_2987)">
<path d="M82.7807 122.993C82.7807 101.511 79.911 165.887 77.162 187.192C75.3449 201.274 75.2891 243.948 75.2891 229.749" stroke="#1E1E1E" stroke-width="8" stroke-linecap="round" stroke-linejoin="round"/>
<path d="M92.1436 121.12C85.245 116.685 131.646 113.628 135.325 113.628C167.64 113.628 199.42 120.538 231.676 114.565C260.144 109.293 290.032 111.677 318.766 109.466C338.142 107.976 356.947 106.137 376.41 106.137C384.781 106.137 389.59 107.74 397.012 111.755C404.407 115.756 410.929 115.501 419.071 115.501C422.827 115.501 435.284 111.277 438.216 113.42C442.356 116.446 440.739 128.947 440.401 133.502C438.888 153.932 434.14 174.238 431.557 194.58C429.604 209.959 431.196 223.907 427.395 239.113" stroke="#1E1E1E" stroke-width="8" stroke-linecap="round" stroke-linejoin="round"/>
<path d="M79.0352 239.114C85.0233 228.934 107.001 230.314 116.91 229.853C136.817 228.927 156.43 227.876 176.427 227.876C216.238 227.876 256.25 229.374 295.877 225.067C307.031 223.855 318.17 224.131 329.381 224.131C341.155 224.131 351.374 226.851 362.885 227.772C383.837 229.448 407.13 221.121 427.397 227.876" stroke="#1E1E1E" stroke-width="8" stroke-linecap="round" stroke-linejoin="round"/>
<path d="M79.0362 289.682C68.6817 289.682 99.6888 287.809 110.043 287.809C130.999 287.809 151.763 287.809 172.682 287.809C206.303 287.809 240.134 289.682 273.923 289.682C302.468 289.682 331.012 289.682 359.557 289.682C374.681 289.682 389.273 285.936 404.507 285.936C410.264 285.936 416.022 285.936 421.779 285.936C425.75 285.936 435.184 283.867 429.271 287.809" stroke="#1E1E1E" stroke-width="8" stroke-linecap="round" stroke-linejoin="round"/>
<path d="M75.2891 343.997C103.163 343.997 131.118 338.378 158.946 338.378C188.898 338.378 220.542 338.277 250.198 343.06C275.045 347.068 299.136 340.251 323.762 340.251C345.821 340.251 367.879 340.251 389.938 340.251" stroke="#1E1E1E" stroke-width="8" stroke-linecap="round" stroke-linejoin="round"/>
<path d="M71.543 396.438C77.5778 391.409 93.7956 397.92 101.718 398.415C119.809 399.546 137.649 400.184 155.824 400.184C177.272 400.184 198.694 401.574 219.919 402.057C239.734 402.507 259.615 402.057 279.436 402.057C298.483 402.057 316.711 398.311 335.624 398.311" stroke="#1E1E1E" stroke-width="8" stroke-linecap="round" stroke-linejoin="round"/>
<rect width="480" height="1072" rx="6" stroke="#1E1E1E" stroke-width="4" stroke-linecap="round"/>
<rect x="32" y="959" width="416" height="80" rx="6" fill="#9747FF"/>
<path d="M47.4258 476.688C70.527 473.8 93.9192 472.483 117.118 470.627C126.273 469.895 137.239 467.945 146.77 469.004C154.185 469.828 157.575 468.363 164.301 465" stroke="#1E1E1E" stroke-width="8" stroke-linecap="round" stroke-linejoin="round"/>
<path d="M47.4258 625.713C70.527 622.825 93.9192 621.509 117.118 619.653C126.273 618.92 137.239 616.97 146.77 618.029C154.185 618.853 157.575 617.388 164.301 614.025" stroke="#1E1E1E" stroke-width="8" stroke-linecap="round" stroke-linejoin="round"/>
<path d="M62.1781 506.823C66.0647 505.096 70.2788 505.596 74.4467 505.596C81.9886 505.596 89.6176 503.811 97.1436 503.142C118.71 501.225 140.205 498.944 161.826 497.281C208.574 493.685 255.254 493.622 301.96 489.647C339.838 486.423 377.421 483.513 415.513 483.513C421.644 483.513 424.746 484.446 425.396 490.942C426.043 497.409 427.153 503.345 425.941 509.89C424.842 515.825 425.538 521.219 426.555 527.066C427.46 532.27 433.21 535.869 432.621 541.175C431.945 547.258 426.215 540.903 423.147 540.221C415.691 538.564 405.824 539.591 398.337 540.221C372.363 542.405 346.38 544.695 320.363 546.696C264.336 551.006 208.083 549.912 152.011 554.398C134.967 555.761 116.546 555.63 99.5973 553.444C86.3039 551.728 73.0317 552.246 59.7926 550.922C53.0705 550.249 54.6482 550.069 55.7712 545.128C56.9257 540.048 54.9302 535.387 54.817 530.406C54.7099 525.693 53.5901 520.982 53.5901 516.365C53.5901 510.436 55.1439 507.477 52.3633 501.916" stroke="#1E1E1E" stroke-width="8" stroke-linecap="round" stroke-linejoin="round"/>
<path d="M62.1781 655.849C66.0647 654.122 70.2788 654.622 74.4467 654.622C81.9886 654.622 89.6176 652.838 97.1436 652.169C118.71 650.252 140.205 647.97 161.826 646.307C208.574 642.711 255.254 642.648 301.96 638.673C339.838 635.45 377.421 632.539 415.513 632.539C421.644 632.539 424.746 633.473 425.396 639.968C426.043 646.435 427.153 652.371 425.941 658.916C424.842 664.852 425.538 670.245 426.555 676.092C427.46 681.296 433.21 684.896 432.621 690.201C431.945 696.284 426.215 689.929 423.147 689.247C415.691 687.59 405.824 688.617 398.337 689.247C372.363 691.432 346.38 693.721 320.363 695.722C264.336 700.032 208.083 698.938 152.011 703.424C134.967 704.788 116.546 704.657 99.5973 702.47C86.3039 700.755 73.0317 701.272 59.7926 699.948C53.0705 699.276 54.6482 699.096 55.7712 694.155C56.9257 689.075 54.9302 684.413 54.817 679.432C54.7099 674.719 53.5901 670.008 53.5901 665.392C53.5901 659.462 55.1439 656.503 52.3633 650.942" stroke="#1E1E1E" stroke-width="8" stroke-linecap="round" stroke-linejoin="round"/>
<path d="M529.44 27.5111C528.372 27.5111 527.412 27.3066 526.56 26.8975C525.713 26.4827 525.037 25.9145 524.531 25.1929C524.026 24.4713 523.756 23.6475 523.722 22.7213H526.278C526.341 23.4713 526.673 24.0878 527.276 24.5708C527.878 25.0537 528.599 25.2952 529.44 25.2952C530.111 25.2952 530.705 25.1418 531.222 24.835C531.744 24.5225 532.153 24.0935 532.449 23.548C532.75 23.0026 532.901 22.3804 532.901 21.6816C532.901 20.9713 532.747 20.3378 532.44 19.781C532.134 19.2242 531.71 18.7867 531.17 18.4685C530.636 18.1503 530.023 17.9884 529.33 17.9827C528.801 17.9827 528.27 18.0736 527.736 18.2554C527.202 18.4372 526.77 18.6759 526.44 18.9713L524.028 18.6134L525.009 9.81791H534.605V12.0764H527.199L526.645 16.96H526.747C527.088 16.6304 527.54 16.3548 528.102 16.1333C528.67 15.9117 529.278 15.8009 529.926 15.8009C530.989 15.8009 531.935 16.0537 532.764 16.5594C533.599 17.0651 534.256 17.7554 534.733 18.6304C535.216 19.4997 535.455 20.4997 535.449 21.6304C535.455 22.7611 535.199 23.7696 534.682 24.656C534.17 25.5423 533.46 26.2412 532.551 26.7526C531.648 27.2583 530.611 27.5111 529.44 27.5111ZM539.186 27.4344C538.72 27.4344 538.32 27.2696 537.984 26.9401C537.649 26.6048 537.481 26.2014 537.481 25.7298C537.481 25.2639 537.649 24.8662 537.984 24.5367C538.32 24.2014 538.72 24.0338 539.186 24.0338C539.652 24.0338 540.053 24.2014 540.388 24.5367C540.723 24.8662 540.891 25.2639 540.891 25.7298C540.891 26.0423 540.811 26.3293 540.652 26.5906C540.499 26.8463 540.294 27.0509 540.038 27.2043C539.783 27.3577 539.499 27.4344 539.186 27.4344ZM549.667 27.2725V9.81791H560.61V12.085H552.3V17.4031H560.039V19.6617H552.3V25.0054H560.712V27.2725H549.667ZM566.015 19.4997V27.2725H563.467V14.1816H565.913V16.3122H566.075C566.376 15.6191 566.848 15.0622 567.49 14.6418C568.138 14.2213 568.953 14.0111 569.936 14.0111C570.828 14.0111 571.609 14.1986 572.28 14.5736C572.95 14.9429 573.47 15.4941 573.839 16.227C574.209 16.96 574.393 17.8662 574.393 18.9458V27.2725H571.845V19.2526C571.845 18.3037 571.598 17.5622 571.104 17.0281C570.609 16.4884 569.93 16.2185 569.067 16.2185C568.476 16.2185 567.95 16.3463 567.49 16.602C567.035 16.8577 566.675 17.2327 566.408 17.727C566.146 18.2156 566.015 18.8066 566.015 19.4997ZM583.466 14.1816V16.227H576.315V14.1816H583.466ZM578.233 11.0452H580.781V23.4287C580.781 23.923 580.855 24.2952 581.003 24.5452C581.15 24.7895 581.341 24.9571 581.574 25.048C581.812 25.1333 582.071 25.1759 582.349 25.1759C582.554 25.1759 582.733 25.1617 582.886 25.1333C583.04 25.1048 583.159 25.0821 583.244 25.0651L583.704 27.1702C583.557 27.227 583.346 27.2838 583.074 27.3406C582.801 27.4031 582.46 27.4372 582.051 27.4429C581.381 27.4543 580.756 27.335 580.176 27.085C579.596 26.835 579.128 26.4486 578.77 25.9259C578.412 25.4031 578.233 24.7469 578.233 23.9571V11.0452ZM591.33 27.5367C590.04 27.5367 588.929 27.2611 587.998 26.71C587.072 26.1531 586.356 25.3719 585.85 24.3662C585.35 23.3548 585.1 22.1702 585.1 20.8122C585.1 19.4713 585.35 18.2895 585.85 17.2668C586.356 16.2441 587.06 15.4458 587.964 14.8719C588.873 14.298 589.935 14.0111 591.151 14.0111C591.89 14.0111 592.606 14.1333 593.299 14.3776C593.992 14.6219 594.614 15.0054 595.165 15.5281C595.716 16.0509 596.151 16.7298 596.469 17.5651C596.787 18.3946 596.947 19.4031 596.947 20.5906V21.4941H586.54V19.585H594.449C594.449 18.9145 594.313 18.3208 594.04 17.8037C593.768 17.281 593.384 16.8691 592.89 16.5679C592.401 16.2668 591.827 16.1162 591.168 16.1162C590.452 16.1162 589.827 16.2923 589.293 16.6446C588.765 16.9912 588.356 17.4458 588.066 18.0083C587.782 18.5651 587.64 19.1702 587.64 19.8236V21.3151C587.64 22.1901 587.793 22.9344 588.1 23.548C588.412 24.1617 588.847 24.6304 589.404 24.9543C589.961 25.2725 590.611 25.4316 591.356 25.4316C591.839 25.4316 592.279 25.3634 592.677 25.227C593.074 25.085 593.418 24.8747 593.708 24.5963C593.998 24.3179 594.219 23.9742 594.373 23.5651L596.785 23.9997C596.591 24.71 596.245 25.3321 595.745 25.8662C595.251 26.3946 594.628 26.8066 593.878 27.102C593.134 27.3918 592.285 27.5367 591.33 27.5367ZM599.318 27.2725V14.1816H601.781V16.2611H601.917C602.156 15.5566 602.576 15.0026 603.179 14.5992C603.787 14.1901 604.474 13.9855 605.241 13.9855C605.4 13.9855 605.588 13.9912 605.804 14.0026C606.025 14.0139 606.199 14.0281 606.324 14.0452V16.4827C606.221 16.4543 606.04 16.423 605.778 16.3889C605.517 16.3492 605.255 16.3293 604.994 16.3293C604.392 16.3293 603.855 16.4571 603.383 16.7128C602.917 16.9628 602.548 17.3122 602.275 17.7611C602.003 18.2043 601.866 18.71 601.866 19.2781V27.2725H599.318ZM608.073 27.2725V14.1816H610.621V27.2725H608.073ZM609.36 12.1617C608.917 12.1617 608.536 12.0139 608.218 11.7185C607.905 11.4173 607.749 11.0594 607.749 10.6446C607.749 10.2242 607.905 9.86621 608.218 9.57076C608.536 9.26962 608.917 9.11905 609.36 9.11905C609.803 9.11905 610.181 9.26962 610.493 9.57076C610.812 9.86621 610.971 10.2242 610.971 10.6446C610.971 11.0594 610.812 11.4173 610.493 11.7185C610.181 12.0139 609.803 12.1617 609.36 12.1617ZM616.142 19.4997V27.2725H613.593V14.1816H616.039V16.3122H616.201C616.503 15.6191 616.974 15.0622 617.616 14.6418C618.264 14.2213 619.079 14.0111 620.062 14.0111C620.954 14.0111 621.735 14.1986 622.406 14.5736C623.076 14.9429 623.596 15.4941 623.966 16.227C624.335 16.96 624.52 17.8662 624.52 18.9458V27.2725H621.971V19.2526C621.971 18.3037 621.724 17.5622 621.23 17.0281C620.735 16.4884 620.057 16.2185 619.193 16.2185C618.602 16.2185 618.076 16.3463 617.616 16.602C617.162 16.8577 616.801 17.2327 616.534 17.727C616.272 18.2156 616.142 18.8066 616.142 19.4997ZM632.97 32.4543C631.93 32.4543 631.035 32.3179 630.285 32.0452C629.541 31.7725 628.933 31.4117 628.461 30.9628C627.99 30.5139 627.637 30.0225 627.404 29.4884L629.595 28.585C629.748 28.835 629.953 29.0992 630.208 29.3776C630.47 29.6617 630.822 29.9031 631.265 30.102C631.714 30.3009 632.291 30.4003 632.995 30.4003C633.961 30.4003 634.76 30.1645 635.39 29.6929C636.021 29.227 636.336 28.4827 636.336 27.46V24.8861H636.174C636.021 25.1645 635.799 25.4742 635.51 25.8151C635.226 26.156 634.833 26.4514 634.333 26.7014C633.833 26.9514 633.183 27.0764 632.382 27.0764C631.348 27.0764 630.416 26.835 629.586 26.352C628.762 25.8634 628.109 25.1446 627.626 24.1958C627.149 23.2412 626.91 22.0679 626.91 20.6759C626.91 19.2838 627.146 18.0906 627.618 17.0963C628.095 16.102 628.748 15.3406 629.578 14.8122C630.407 14.2781 631.348 14.0111 632.399 14.0111C633.211 14.0111 633.868 14.1475 634.368 14.4202C634.868 14.6872 635.257 14.9997 635.535 15.3577C635.819 15.7156 636.038 16.031 636.191 16.3037H636.379V14.1816H638.876V27.5622C638.876 28.6872 638.615 29.6105 638.092 30.3321C637.569 31.0537 636.862 31.5878 635.97 31.9344C635.083 32.281 634.083 32.4543 632.97 32.4543ZM632.944 24.9628C633.677 24.9628 634.297 24.7923 634.802 24.4514C635.314 24.1048 635.7 23.6105 635.961 22.9685C636.228 22.3208 636.362 21.5452 636.362 20.6418C636.362 19.7611 636.231 18.9855 635.97 18.3151C635.708 17.6446 635.325 17.1219 634.819 16.7469C634.314 16.3662 633.689 16.1759 632.944 16.1759C632.177 16.1759 631.538 16.3747 631.027 16.7725C630.515 17.1645 630.129 17.6986 629.868 18.3747C629.612 19.0509 629.484 19.8066 629.484 20.6418C629.484 21.4997 629.615 22.2526 629.876 22.9003C630.137 23.548 630.524 24.0537 631.035 24.4173C631.552 24.781 632.189 24.9628 632.944 24.9628ZM650.571 27.2725L646.719 14.1816H649.353L651.918 23.7952H652.046L654.62 14.1816H657.253L659.81 23.7526H659.938L662.486 14.1816H665.12L661.276 27.2725H658.676L656.017 17.8208H655.821L653.162 27.2725H650.571ZM670.892 27.5622C670.062 27.5622 669.312 27.4088 668.642 27.102C667.971 26.7895 667.44 26.3378 667.048 25.7469C666.661 25.156 666.468 24.4316 666.468 23.5736C666.468 22.835 666.61 22.227 666.894 21.7497C667.179 21.2725 667.562 20.8946 668.045 20.6162C668.528 20.3378 669.068 20.1276 669.664 19.9855C670.261 19.8435 670.869 19.7355 671.488 19.6617C672.272 19.5708 672.909 19.4969 673.397 19.4401C673.886 19.3776 674.241 19.2781 674.463 19.1418C674.684 19.0054 674.795 18.7838 674.795 18.477V18.4173C674.795 17.673 674.585 17.0963 674.164 16.6872C673.75 16.2781 673.13 16.0736 672.306 16.0736C671.448 16.0736 670.772 16.2639 670.278 16.6446C669.789 17.0196 669.451 17.4372 669.264 17.8975L666.869 17.352C667.153 16.5566 667.568 15.9145 668.113 15.4259C668.664 14.9316 669.298 14.5736 670.014 14.352C670.73 14.1247 671.483 14.0111 672.272 14.0111C672.795 14.0111 673.349 14.0736 673.934 14.1986C674.525 14.3179 675.076 14.5395 675.588 14.8634C676.105 15.1872 676.528 15.6503 676.858 16.2526C677.187 16.8492 677.352 17.6247 677.352 18.5793V27.2725H674.863V25.4827H674.761C674.596 25.8122 674.349 26.1361 674.019 26.4543C673.69 26.7725 673.267 27.0367 672.75 27.2469C672.233 27.4571 671.613 27.5622 670.892 27.5622ZM671.446 25.5168C672.15 25.5168 672.752 25.3776 673.252 25.0992C673.758 24.8208 674.142 24.4571 674.403 24.0083C674.67 23.5537 674.804 23.0679 674.804 22.5509V20.8634C674.713 20.9543 674.536 21.0395 674.275 21.1191C674.019 21.1929 673.727 21.2583 673.397 21.3151C673.068 21.3662 672.747 21.4145 672.434 21.46C672.122 21.4997 671.86 21.5338 671.65 21.5622C671.156 21.6247 670.704 21.7298 670.295 21.8776C669.892 22.0253 669.568 22.2384 669.323 22.5168C669.085 22.7895 668.965 23.1531 668.965 23.6077C668.965 24.2384 669.198 24.7156 669.664 25.0395C670.13 25.3577 670.724 25.5168 671.446 25.5168ZM686.401 14.1816V16.227H679.25V14.1816H686.401ZM681.168 11.0452H683.716V23.4287C683.716 23.923 683.79 24.2952 683.938 24.5452C684.085 24.7895 684.276 24.9571 684.509 25.048C684.747 25.1333 685.006 25.1759 685.284 25.1759C685.489 25.1759 685.668 25.1617 685.821 25.1333C685.975 25.1048 686.094 25.0821 686.179 25.0651L686.639 27.1702C686.492 27.227 686.281 27.2838 686.009 27.3406C685.736 27.4031 685.395 27.4372 684.986 27.4429C684.316 27.4543 683.691 27.335 683.111 27.085C682.531 26.835 682.063 26.4486 681.705 25.9259C681.347 25.4031 681.168 24.7469 681.168 23.9571V11.0452ZM694.265 27.5367C692.975 27.5367 691.865 27.2611 690.933 26.71C690.007 26.1531 689.291 25.3719 688.785 24.3662C688.285 23.3548 688.035 22.1702 688.035 20.8122C688.035 19.4713 688.285 18.2895 688.785 17.2668C689.291 16.2441 689.995 15.4458 690.899 14.8719C691.808 14.298 692.87 14.0111 694.086 14.0111C694.825 14.0111 695.541 14.1333 696.234 14.3776C696.927 14.6219 697.549 15.0054 698.1 15.5281C698.651 16.0509 699.086 16.7298 699.404 17.5651C699.723 18.3946 699.882 19.4031 699.882 20.5906V21.4941H689.475V19.585H697.384C697.384 18.9145 697.248 18.3208 696.975 17.8037C696.703 17.281 696.319 16.8691 695.825 16.5679C695.336 16.2668 694.762 16.1162 694.103 16.1162C693.387 16.1162 692.762 16.2923 692.228 16.6446C691.7 16.9912 691.291 17.4458 691.001 18.0083C690.717 18.5651 690.575 19.1702 690.575 19.8236V21.3151C690.575 22.1901 690.728 22.9344 691.035 23.548C691.348 24.1617 691.782 24.6304 692.339 24.9543C692.896 25.2725 693.546 25.4316 694.291 25.4316C694.774 25.4316 695.214 25.3634 695.612 25.227C696.009 25.085 696.353 24.8747 696.643 24.5963C696.933 24.3179 697.154 23.9742 697.308 23.5651L699.72 23.9997C699.526 24.71 699.18 25.3321 698.68 25.8662C698.186 26.3946 697.563 26.8066 696.813 27.102C696.069 27.3918 695.22 27.5367 694.265 27.5367ZM702.253 27.2725V14.1816H704.716V16.2611H704.852C705.091 15.5566 705.512 15.0026 706.114 14.5992C706.722 14.1901 707.409 13.9855 708.176 13.9855C708.335 13.9855 708.523 13.9912 708.739 14.0026C708.96 14.0139 709.134 14.0281 709.259 14.0452V16.4827C709.156 16.4543 708.975 16.423 708.713 16.3889C708.452 16.3492 708.191 16.3293 707.929 16.3293C707.327 16.3293 706.79 16.4571 706.318 16.7128C705.852 16.9628 705.483 17.3122 705.21 17.7611C704.938 18.2043 704.801 18.71 704.801 19.2781V27.2725H702.253ZM716.904 27.2725V14.1816H719.35V16.3122H719.511C719.784 15.5906 720.23 15.0281 720.85 14.6247C721.469 14.2156 722.21 14.0111 723.074 14.0111C723.949 14.0111 724.682 14.2156 725.273 14.6247C725.869 15.0338 726.31 15.5963 726.594 16.3122H726.73C727.043 15.6134 727.54 15.0566 728.222 14.6418C728.904 14.2213 729.716 14.0111 730.659 14.0111C731.847 14.0111 732.815 14.3833 733.565 15.1276C734.321 15.8719 734.699 16.9941 734.699 18.4941V27.2725H732.151V18.7327C732.151 17.8463 731.909 17.2043 731.426 16.8066C730.943 16.4088 730.367 16.21 729.696 16.21C728.867 16.21 728.222 16.4656 727.761 16.977C727.301 17.4827 727.071 18.1333 727.071 18.9287V27.2725H724.531V18.5708C724.531 17.8605 724.31 17.2895 723.867 16.8577C723.423 16.4259 722.847 16.21 722.136 16.21C721.654 16.21 721.207 16.3378 720.798 16.5935C720.395 16.8435 720.068 17.1929 719.818 17.6418C719.574 18.0906 719.452 18.6105 719.452 19.2014V27.2725H716.904ZM743.3 27.5367C742.011 27.5367 740.9 27.2611 739.968 26.71C739.042 26.1531 738.326 25.3719 737.82 24.3662C737.32 23.3548 737.07 22.1702 737.07 20.8122C737.07 19.4713 737.32 18.2895 737.82 17.2668C738.326 16.2441 739.031 15.4458 739.934 14.8719C740.843 14.298 741.906 14.0111 743.122 14.0111C743.86 14.0111 744.576 14.1333 745.269 14.3776C745.962 14.6219 746.585 15.0054 747.136 15.5281C747.687 16.0509 748.122 16.7298 748.44 17.5651C748.758 18.3946 748.917 19.4031 748.917 20.5906V21.4941H738.511V19.585H746.42C746.42 18.9145 746.283 18.3208 746.011 17.8037C745.738 17.281 745.354 16.8691 744.86 16.5679C744.372 16.2668 743.798 16.1162 743.139 16.1162C742.423 16.1162 741.798 16.2923 741.264 16.6446C740.735 16.9912 740.326 17.4458 740.036 18.0083C739.752 18.5651 739.61 19.1702 739.61 19.8236V21.3151C739.61 22.1901 739.764 22.9344 740.07 23.548C740.383 24.1617 740.818 24.6304 741.374 24.9543C741.931 25.2725 742.582 25.4316 743.326 25.4316C743.809 25.4316 744.249 25.3634 744.647 25.227C745.045 25.085 745.389 24.8747 745.678 24.5963C745.968 24.3179 746.19 23.9742 746.343 23.5651L748.755 23.9997C748.562 24.71 748.215 25.3321 747.715 25.8662C747.221 26.3946 746.599 26.8066 745.849 27.102C745.104 27.3918 744.255 27.5367 743.3 27.5367ZM757.399 14.1816V16.227H750.249V14.1816H757.399ZM752.166 11.0452H754.715V23.4287C754.715 23.923 754.788 24.2952 754.936 24.5452C755.084 24.7895 755.274 24.9571 755.507 25.048C755.746 25.1333 756.004 25.1759 756.283 25.1759C756.487 25.1759 756.666 25.1617 756.82 25.1333C756.973 25.1048 757.092 25.0821 757.178 25.0651L757.638 27.1702C757.49 27.227 757.28 27.2838 757.007 27.3406C756.734 27.4031 756.393 27.4372 755.984 27.4429C755.314 27.4543 754.689 27.335 754.109 27.085C753.53 26.835 753.061 26.4486 752.703 25.9259C752.345 25.4031 752.166 24.7469 752.166 23.9571V11.0452ZM765.263 27.5367C763.974 27.5367 762.863 27.2611 761.931 26.71C761.005 26.1531 760.289 25.3719 759.783 24.3662C759.283 23.3548 759.033 22.1702 759.033 20.8122C759.033 19.4713 759.283 18.2895 759.783 17.2668C760.289 16.2441 760.994 15.4458 761.897 14.8719C762.806 14.298 763.869 14.0111 765.085 14.0111C765.823 14.0111 766.539 14.1333 767.232 14.3776C767.925 14.6219 768.548 15.0054 769.099 15.5281C769.65 16.0509 770.085 16.7298 770.403 17.5651C770.721 18.3946 770.88 19.4031 770.88 20.5906V21.4941H760.474V19.585H768.383C768.383 18.9145 768.246 18.3208 767.974 17.8037C767.701 17.281 767.317 16.8691 766.823 16.5679C766.335 16.2668 765.761 16.1162 765.102 16.1162C764.386 16.1162 763.761 16.2923 763.227 16.6446C762.698 16.9912 762.289 17.4458 761.999 18.0083C761.715 18.5651 761.573 19.1702 761.573 19.8236V21.3151C761.573 22.1901 761.727 22.9344 762.033 23.548C762.346 24.1617 762.781 24.6304 763.337 24.9543C763.894 25.2725 764.545 25.4316 765.289 25.4316C765.772 25.4316 766.212 25.3634 766.61 25.227C767.008 25.085 767.352 24.8747 767.641 24.5963C767.931 24.3179 768.153 23.9742 768.306 23.5651L770.718 23.9997C770.525 24.71 770.178 25.3321 769.678 25.8662C769.184 26.3946 768.562 26.8066 767.812 27.102C767.067 27.3918 766.218 27.5367 765.263 27.5367ZM773.251 27.2725V14.1816H775.714V16.2611H775.851C776.089 15.5566 776.51 15.0026 777.112 14.5992C777.72 14.1901 778.408 13.9855 779.175 13.9855C779.334 13.9855 779.521 13.9912 779.737 14.0026C779.959 14.0139 780.132 14.0281 780.257 14.0452V16.4827C780.155 16.4543 779.973 16.423 779.712 16.3889C779.45 16.3492 779.189 16.3293 778.928 16.3293C778.325 16.3293 777.788 16.4571 777.317 16.7128C776.851 16.9628 776.481 17.3122 776.209 17.7611C775.936 18.2043 775.8 18.71 775.8 19.2781V27.2725H773.251ZM523.713 63.2725V50.1816H526.176V52.2611H526.312C526.551 51.5566 526.972 51.0026 527.574 50.5992C528.182 50.1901 528.869 49.9855 529.636 49.9855C529.795 49.9855 529.983 49.9912 530.199 50.0026C530.42 50.0139 530.594 50.0281 530.719 50.0452V52.4827C530.616 52.4543 530.435 52.423 530.173 52.3889C529.912 52.3492 529.651 52.3293 529.389 52.3293C528.787 52.3293 528.25 52.4571 527.778 52.7128C527.313 52.9628 526.943 53.3122 526.67 53.7611C526.398 54.2043 526.261 54.71 526.261 55.2781V63.2725H523.713ZM537.641 63.5367C536.352 63.5367 535.241 63.2611 534.309 62.71C533.383 62.1531 532.667 61.3719 532.161 60.3662C531.661 59.3548 531.411 58.1702 531.411 56.8122C531.411 55.4713 531.661 54.2895 532.161 53.2668C532.667 52.2441 533.371 51.4458 534.275 50.8719C535.184 50.298 536.246 50.0111 537.462 50.0111C538.201 50.0111 538.917 50.1333 539.61 50.3776C540.303 50.6219 540.925 51.0054 541.477 51.5281C542.028 52.0509 542.462 52.7298 542.781 53.5651C543.099 54.3946 543.258 55.4031 543.258 56.5906V57.4941H532.852V55.585H540.761C540.761 54.9145 540.624 54.3208 540.352 53.8037C540.079 53.281 539.695 52.8691 539.201 52.5679C538.712 52.2668 538.138 52.1162 537.479 52.1162C536.763 52.1162 536.138 52.2923 535.604 52.6446C535.076 52.9912 534.667 53.4458 534.377 54.0083C534.093 54.5651 533.951 55.1702 533.951 55.8236V57.3151C533.951 58.1901 534.104 58.9344 534.411 59.548C534.724 60.1617 535.158 60.6304 535.715 60.9543C536.272 61.2725 536.923 61.4316 537.667 61.4316C538.15 61.4316 538.59 61.3634 538.988 61.227C539.386 61.085 539.729 60.8747 540.019 60.5963C540.309 60.3179 540.531 59.9742 540.684 59.5651L543.096 59.9997C542.903 60.71 542.556 61.3321 542.056 61.8662C541.562 62.3946 540.94 62.8066 540.19 63.102C539.445 63.3918 538.596 63.5367 537.641 63.5367ZM549.439 63.5622C548.609 63.5622 547.859 63.4088 547.189 63.102C546.518 62.7895 545.987 62.3378 545.595 61.7469C545.209 61.156 545.016 60.4316 545.016 59.5736C545.016 58.835 545.158 58.227 545.442 57.7497C545.726 57.2725 546.109 56.8946 546.592 56.6162C547.075 56.3378 547.615 56.1276 548.212 55.9855C548.808 55.8435 549.416 55.7355 550.035 55.6617C550.82 55.5708 551.456 55.4969 551.945 55.4401C552.433 55.3776 552.788 55.2781 553.01 55.1418C553.231 55.0054 553.342 54.7838 553.342 54.477V54.4173C553.342 53.673 553.132 53.0963 552.712 52.6872C552.297 52.2781 551.677 52.0736 550.854 52.0736C549.996 52.0736 549.32 52.2639 548.825 52.6446C548.337 53.0196 547.999 53.4372 547.811 53.8975L545.416 53.352C545.7 52.5566 546.115 51.9145 546.66 51.4259C547.212 50.9316 547.845 50.5736 548.561 50.352C549.277 50.1247 550.03 50.0111 550.82 50.0111C551.342 50.0111 551.896 50.0736 552.481 50.1986C553.072 50.3179 553.624 50.5395 554.135 50.8634C554.652 51.1872 555.075 51.6503 555.405 52.2526C555.734 52.8492 555.899 53.6247 555.899 54.5793V63.2725H553.41V61.4827H553.308C553.143 61.8122 552.896 62.1361 552.567 62.4543C552.237 62.7725 551.814 63.0367 551.297 63.2469C550.78 63.4571 550.16 63.5622 549.439 63.5622ZM549.993 61.5168C550.697 61.5168 551.3 61.3776 551.8 61.0992C552.305 60.8208 552.689 60.4571 552.95 60.0083C553.217 59.5537 553.351 59.0679 553.351 58.5509V56.8634C553.26 56.9543 553.084 57.0395 552.822 57.1191C552.567 57.1929 552.274 57.2583 551.945 57.3151C551.615 57.3662 551.294 57.4145 550.981 57.46C550.669 57.4997 550.408 57.5338 550.197 57.5622C549.703 57.6247 549.251 57.7298 548.842 57.8776C548.439 58.0253 548.115 58.2384 547.871 58.5168C547.632 58.7895 547.513 59.1531 547.513 59.6077C547.513 60.2384 547.746 60.7156 548.212 61.0395C548.677 61.3577 549.271 61.5168 549.993 61.5168ZM563.738 63.5281C562.681 63.5281 561.738 63.2583 560.908 62.7185C560.084 62.173 559.437 61.3975 558.965 60.3918C558.499 59.3804 558.266 58.1673 558.266 56.7526C558.266 55.3378 558.502 54.1276 558.974 53.1219C559.451 52.1162 560.104 51.3463 560.934 50.8122C561.763 50.2781 562.704 50.0111 563.755 50.0111C564.567 50.0111 565.221 50.1475 565.715 50.4202C566.215 50.6872 566.601 50.9997 566.874 51.3577C567.153 51.7156 567.369 52.031 567.522 52.3037H567.675V45.8179H570.224V63.2725H567.735V61.2355H567.522C567.369 61.5139 567.147 61.8321 566.857 62.1901C566.573 62.548 566.181 62.8605 565.681 63.1276C565.181 63.3946 564.533 63.5281 563.738 63.5281ZM564.3 61.3548C565.033 61.3548 565.653 61.1617 566.158 60.7753C566.67 60.3833 567.056 59.8406 567.317 59.1475C567.584 58.4543 567.718 57.6475 567.718 56.727C567.718 55.8179 567.587 55.0225 567.326 54.3406C567.065 53.6588 566.681 53.1276 566.175 52.7469C565.67 52.3662 565.045 52.1759 564.3 52.1759C563.533 52.1759 562.894 52.3747 562.383 52.7725C561.871 53.1702 561.485 53.7128 561.224 54.4003C560.968 55.0878 560.84 55.8634 560.84 56.727C560.84 57.602 560.971 58.3889 561.232 59.0878C561.494 59.7867 561.88 60.3406 562.391 60.7497C562.908 61.1531 563.545 61.3548 564.3 61.3548ZM573.405 63.2725V50.1816H575.953V63.2725H573.405ZM574.692 48.1617C574.248 48.1617 573.868 48.0139 573.55 47.7185C573.237 47.4173 573.081 47.0594 573.081 46.6446C573.081 46.2242 573.237 45.8662 573.55 45.5708C573.868 45.2696 574.248 45.1191 574.692 45.1191C575.135 45.1191 575.513 45.2696 575.825 45.5708C576.143 45.8662 576.302 46.2242 576.302 46.6446C576.302 47.0594 576.143 47.4173 575.825 47.7185C575.513 48.0139 575.135 48.1617 574.692 48.1617ZM581.474 55.4997V63.2725H578.925V50.1816H581.371V52.3122H581.533C581.834 51.6191 582.306 51.0622 582.948 50.6418C583.596 50.2213 584.411 50.0111 585.394 50.0111C586.286 50.0111 587.067 50.1986 587.738 50.5736C588.408 50.9429 588.928 51.4941 589.297 52.227C589.667 52.96 589.851 53.8662 589.851 54.9458V63.2725H587.303V55.2526C587.303 54.3037 587.056 53.5622 586.562 53.0281C586.067 52.4884 585.388 52.2185 584.525 52.2185C583.934 52.2185 583.408 52.3463 582.948 52.602C582.493 52.8577 582.133 53.2327 581.866 53.727C581.604 54.2156 581.474 54.8066 581.474 55.4997ZM598.302 68.4543C597.262 68.4543 596.367 68.3179 595.617 68.0452C594.873 67.7725 594.265 67.4117 593.793 66.9628C593.322 66.5139 592.969 66.0225 592.736 65.4884L594.927 64.585C595.08 64.835 595.285 65.0992 595.54 65.3776C595.802 65.6617 596.154 65.9031 596.597 66.102C597.046 66.3009 597.623 66.4003 598.327 66.4003C599.293 66.4003 600.091 66.1645 600.722 65.6929C601.353 65.227 601.668 64.4827 601.668 63.46V60.8861H601.506C601.353 61.1645 601.131 61.4742 600.841 61.8151C600.557 62.156 600.165 62.4514 599.665 62.7014C599.165 62.9514 598.515 63.0764 597.714 63.0764C596.679 63.0764 595.748 62.835 594.918 62.352C594.094 61.8634 593.441 61.1446 592.958 60.1958C592.481 59.2412 592.242 58.0679 592.242 56.6759C592.242 55.2838 592.478 54.0906 592.949 53.0963C593.427 52.102 594.08 51.3406 594.91 50.8122C595.739 50.2781 596.679 50.0111 597.731 50.0111C598.543 50.0111 599.199 50.1475 599.699 50.4202C600.199 50.6872 600.589 50.9997 600.867 51.3577C601.151 51.7156 601.37 52.031 601.523 52.3037H601.711V50.1816H604.208V63.5622C604.208 64.6872 603.947 65.6105 603.424 66.3321C602.901 67.0537 602.194 67.5878 601.302 67.9344C600.415 68.281 599.415 68.4543 598.302 68.4543ZM598.276 60.9628C599.009 60.9628 599.628 60.7923 600.134 60.4514C600.645 60.1048 601.032 59.6105 601.293 58.9685C601.56 58.3208 601.694 57.5452 601.694 56.6418C601.694 55.7611 601.563 54.9855 601.302 54.3151C601.04 53.6446 600.657 53.1219 600.151 52.7469C599.645 52.3662 599.02 52.1759 598.276 52.1759C597.509 52.1759 596.87 52.3747 596.358 52.7725C595.847 53.1645 595.461 53.6986 595.199 54.3747C594.944 55.0509 594.816 55.8066 594.816 56.6418C594.816 57.4997 594.947 58.2526 595.208 58.9003C595.469 59.548 595.856 60.0537 596.367 60.4173C596.884 60.781 597.52 60.9628 598.276 60.9628ZM616.979 53.3776L614.67 53.7867C614.573 53.4912 614.42 53.21 614.209 52.9429C614.005 52.6759 613.726 52.4571 613.374 52.2867C613.022 52.1162 612.581 52.031 612.053 52.031C611.331 52.031 610.729 52.1929 610.246 52.5168C609.763 52.835 609.522 53.2469 609.522 53.7526C609.522 54.1901 609.684 54.5423 610.008 54.8094C610.331 55.0764 610.854 55.2952 611.576 55.4656L613.655 55.9429C614.86 56.2213 615.758 56.6503 616.348 57.2298C616.939 57.8094 617.235 58.5622 617.235 59.4884C617.235 60.2725 617.008 60.9713 616.553 61.585C616.104 62.1929 615.476 62.6702 614.67 63.0168C613.868 63.3634 612.939 63.5367 611.883 63.5367C610.417 63.5367 609.221 63.2242 608.295 62.5992C607.368 61.9685 606.8 61.0736 606.59 59.9145L609.053 59.5395C609.206 60.1816 609.522 60.6673 609.999 60.9969C610.476 61.3208 611.098 61.4827 611.866 61.4827C612.701 61.4827 613.368 61.3094 613.868 60.9628C614.368 60.6105 614.618 60.1816 614.618 59.6759C614.618 59.2668 614.465 58.923 614.158 58.6446C613.857 58.3662 613.394 58.156 612.769 58.0139L610.553 57.5281C609.331 57.2497 608.428 56.8066 607.843 56.1986C607.263 55.5906 606.973 54.8208 606.973 53.8889C606.973 53.1162 607.189 52.4401 607.621 51.8605C608.053 51.281 608.65 50.8293 609.411 50.5054C610.172 50.1759 611.045 50.0111 612.027 50.0111C613.442 50.0111 614.556 50.3179 615.368 50.9316C616.181 51.5395 616.718 52.3548 616.979 53.3776Z" fill="#1E1E1E"/>
<path d="M49.8366 35.017C53.5137 29.1336 50.34 32.852 48.4628 35.6677C46.0927 39.223 41.9863 42.0779 39.4245 45.7183C36.9361 49.2545 27.8448 53.3453 30.9647 55.8412C35.1908 59.2222 40.5173 65.1483 43.9075 69.5072C46.849 73.289 51.1382 74.1118 51.1382 79.2685" stroke="#1E1E1E" stroke-width="8" stroke-linecap="round" stroke-linejoin="round"/>
<path d="M69.358 57.1424C68.1718 55.7867 87.1479 56.0396 89.893 55.5516C99.6886 53.8102 109.871 54.5393 119.828 54.5393C126.887 54.5393 141.031 51.9811 146.147 54.5393" stroke="#1E1E1E" stroke-width="8" stroke-linecap="round" stroke-linejoin="round"/>
<path d="M354.312 52.3051C350.875 52.3051 348.32 50.624 353.471 50.624C358.67 50.624 363.869 50.624 369.068 50.624C377.037 50.624 385.007 50.624 392.976 50.624" stroke="#1E1E1E" stroke-width="8" stroke-linecap="round" stroke-linejoin="round"/>
<path d="M429.96 23.7274C434.115 23.2656 430.317 23.3524 427.345 28.0234C422.586 35.501 418.913 43.1792 415.67 51.4649C412.138 60.4917 407.16 69.3259 403.062 77.5214" stroke="#1E1E1E" stroke-width="8" stroke-linecap="round" stroke-linejoin="round"/>
<path d="M433.32 53.986C433.836 49.8605 459.841 52.305 463.579 52.305" stroke="#1E1E1E" stroke-width="8" stroke-linecap="round" stroke-linejoin="round"/>
<path d="M87.7557 686.562C86.4091 686.557 85.2585 686.201 84.304 685.497C83.3494 684.792 82.6193 683.767 82.1136 682.42C81.608 681.074 81.3551 679.451 81.3551 677.554C81.3551 675.662 81.608 674.045 82.1136 672.704C82.625 671.363 83.358 670.341 84.3125 669.636C85.2727 668.932 86.4205 668.579 87.7557 668.579C89.0909 668.579 90.2358 668.934 91.1903 669.645C92.1449 670.349 92.875 671.372 93.3807 672.713C93.892 674.048 94.1477 675.662 94.1477 677.554C94.1477 679.457 93.8949 681.082 93.3892 682.429C92.8835 683.77 92.1534 684.795 91.1989 685.505C90.2443 686.21 89.0966 686.562 87.7557 686.562ZM87.7557 684.287C88.9375 684.287 89.8608 683.71 90.5256 682.557C91.196 681.403 91.5312 679.736 91.5312 677.554C91.5312 676.105 91.3778 674.88 91.071 673.88C90.7699 672.875 90.3352 672.113 89.767 671.596C89.2045 671.074 88.5341 670.812 87.7557 670.812C86.5795 670.812 85.6563 671.392 84.9858 672.551C84.3153 673.71 83.9773 675.378 83.9716 677.554C83.9716 679.008 84.1222 680.238 84.4233 681.244C84.7301 682.244 85.1648 683.003 85.7273 683.52C86.2898 684.031 86.9659 684.287 87.7557 684.287ZM102.792 686.562C101.445 686.557 100.295 686.201 99.3402 685.497C98.3856 684.792 97.6555 683.767 97.1498 682.42C96.6441 681.074 96.3913 679.451 96.3913 677.554C96.3913 675.662 96.6441 674.045 97.1498 672.704C97.6612 671.363 98.3941 670.341 99.3487 669.636C100.309 668.932 101.457 668.579 102.792 668.579C104.127 668.579 105.272 668.934 106.227 669.645C107.181 670.349 107.911 671.372 108.417 672.713C108.928 674.048 109.184 675.662 109.184 677.554C109.184 679.457 108.931 681.082 108.425 682.429C107.92 683.77 107.19 684.795 106.235 685.505C105.281 686.21 104.133 686.562 102.792 686.562ZM102.792 684.287C103.974 684.287 104.897 683.71 105.562 682.557C106.232 681.403 106.567 679.736 106.567 677.554C106.567 676.105 106.414 674.88 106.107 673.88C105.806 672.875 105.371 672.113 104.803 671.596C104.241 671.074 103.57 670.812 102.792 670.812C101.616 670.812 100.692 671.392 100.022 672.551C99.3515 673.71 99.0135 675.378 99.0078 677.554C99.0078 679.008 99.1583 680.238 99.4595 681.244C99.7663 682.244 100.201 683.003 100.763 683.52C101.326 684.031 102.002 684.287 102.792 684.287ZM117.828 686.511C116.658 686.511 115.612 686.309 114.692 685.906C113.777 685.503 113.052 684.943 112.518 684.227C111.99 683.505 111.706 682.67 111.666 681.721H114.342C114.376 682.238 114.55 682.687 114.862 683.068C115.18 683.443 115.595 683.733 116.106 683.937C116.618 684.142 117.186 684.244 117.811 684.244C118.499 684.244 119.106 684.125 119.635 683.886C120.169 683.647 120.587 683.315 120.888 682.889C121.189 682.457 121.339 681.96 121.339 681.397C121.339 680.812 121.189 680.298 120.888 679.855C120.592 679.406 120.158 679.054 119.584 678.798C119.016 678.542 118.328 678.415 117.521 678.415H116.047V676.267H117.521C118.169 676.267 118.737 676.15 119.226 675.917C119.72 675.684 120.106 675.361 120.385 674.946C120.663 674.525 120.802 674.034 120.802 673.471C120.802 672.932 120.68 672.463 120.436 672.065C120.197 671.662 119.856 671.346 119.413 671.119C118.976 670.892 118.459 670.778 117.862 670.778C117.294 670.778 116.763 670.883 116.268 671.093C115.78 671.298 115.382 671.593 115.075 671.98C114.768 672.361 114.604 672.818 114.581 673.352H112.033C112.061 672.409 112.339 671.579 112.868 670.863C113.402 670.147 114.106 669.588 114.981 669.184C115.856 668.781 116.828 668.579 117.896 668.579C119.016 668.579 119.981 668.798 120.794 669.236C121.612 669.667 122.243 670.244 122.686 670.966C123.135 671.687 123.356 672.477 123.351 673.335C123.356 674.312 123.084 675.142 122.533 675.824C121.987 676.505 121.26 676.963 120.351 677.196V677.332C121.51 677.508 122.408 677.968 123.044 678.713C123.686 679.457 124.004 680.38 123.999 681.483C124.004 682.443 123.737 683.304 123.197 684.065C122.663 684.826 121.933 685.426 121.007 685.863C120.081 686.295 119.021 686.511 117.828 686.511ZM132.525 686.511C131.457 686.511 130.497 686.307 129.645 685.897C128.798 685.483 128.122 684.915 127.616 684.193C127.111 683.471 126.841 682.647 126.807 681.721H129.364C129.426 682.471 129.758 683.088 130.361 683.571C130.963 684.054 131.685 684.295 132.525 684.295C133.196 684.295 133.79 684.142 134.307 683.835C134.829 683.522 135.239 683.093 135.534 682.548C135.835 682.003 135.986 681.38 135.986 680.682C135.986 679.971 135.832 679.338 135.525 678.781C135.219 678.224 134.795 677.787 134.256 677.468C133.721 677.15 133.108 676.988 132.415 676.983C131.886 676.983 131.355 677.074 130.821 677.255C130.287 677.437 129.855 677.676 129.525 677.971L127.114 677.613L128.094 668.818H137.69V671.076H130.284L129.73 675.96H129.832C130.173 675.63 130.625 675.355 131.187 675.133C131.756 674.912 132.364 674.801 133.011 674.801C134.074 674.801 135.02 675.054 135.849 675.559C136.685 676.065 137.341 676.755 137.818 677.63C138.301 678.5 138.54 679.5 138.534 680.63C138.54 681.761 138.284 682.77 137.767 683.656C137.256 684.542 136.545 685.241 135.636 685.753C134.733 686.258 133.696 686.511 132.525 686.511ZM140.824 682.863V680.733L148.367 668.818H150.046V671.954H148.981L143.586 680.494V680.63H153.924V682.863H140.824ZM149.1 686.272V682.216L149.117 681.244V668.818H151.614V686.272H149.1ZM159.131 683.886L159.003 684.815C158.918 685.497 158.773 686.207 158.569 686.946C158.37 687.69 158.162 688.38 157.947 689.017C157.736 689.653 157.563 690.159 157.427 690.534H155.62C155.694 690.182 155.796 689.704 155.927 689.102C156.057 688.505 156.185 687.838 156.31 687.099C156.435 686.361 156.529 685.608 156.591 684.841L156.677 683.886H159.131ZM167.684 686.562C166.337 686.557 165.187 686.201 164.232 685.497C163.277 684.792 162.547 683.767 162.042 682.42C161.536 681.074 161.283 679.451 161.283 677.554C161.283 675.662 161.536 674.045 162.042 672.704C162.553 671.363 163.286 670.341 164.241 669.636C165.201 668.932 166.349 668.579 167.684 668.579C169.019 668.579 170.164 668.934 171.118 669.645C172.073 670.349 172.803 671.372 173.309 672.713C173.82 674.048 174.076 675.662 174.076 677.554C174.076 679.457 173.823 681.082 173.317 682.429C172.812 683.77 172.081 684.795 171.127 685.505C170.172 686.21 169.025 686.562 167.684 686.562ZM167.684 684.287C168.866 684.287 169.789 683.71 170.454 682.557C171.124 681.403 171.459 679.736 171.459 677.554C171.459 676.105 171.306 674.88 170.999 673.88C170.698 672.875 170.263 672.113 169.695 671.596C169.133 671.074 168.462 670.812 167.684 670.812C166.508 670.812 165.584 671.392 164.914 672.551C164.243 673.71 163.905 675.378 163.9 677.554C163.9 679.008 164.05 680.238 164.351 681.244C164.658 682.244 165.093 683.003 165.655 683.52C166.218 684.031 166.894 684.287 167.684 684.287ZM182.72 686.562C181.373 686.557 180.223 686.201 179.268 685.497C178.314 684.792 177.584 683.767 177.078 682.42C176.572 681.074 176.319 679.451 176.319 677.554C176.319 675.662 176.572 674.045 177.078 672.704C177.589 671.363 178.322 670.341 179.277 669.636C180.237 668.932 181.385 668.579 182.72 668.579C184.055 668.579 185.2 668.934 186.155 669.645C187.109 670.349 187.839 671.372 188.345 672.713C188.856 674.048 189.112 675.662 189.112 677.554C189.112 679.457 188.859 681.082 188.353 682.429C187.848 683.77 187.118 684.795 186.163 685.505C185.209 686.21 184.061 686.562 182.72 686.562ZM182.72 684.287C183.902 684.287 184.825 683.71 185.49 682.557C186.16 681.403 186.495 679.736 186.495 677.554C186.495 676.105 186.342 674.88 186.035 673.88C185.734 672.875 185.299 672.113 184.731 671.596C184.169 671.074 183.498 670.812 182.72 670.812C181.544 670.812 180.62 671.392 179.95 672.551C179.28 673.71 178.942 675.378 178.936 677.554C178.936 679.008 179.086 680.238 179.388 681.244C179.694 682.244 180.129 683.003 180.692 683.52C181.254 684.031 181.93 684.287 182.72 684.287ZM197.483 668.579C198.262 668.585 199.029 668.727 199.785 669.005C200.54 669.284 201.222 669.738 201.83 670.369C202.444 671 202.932 671.852 203.296 672.926C203.665 673.994 203.853 675.324 203.858 676.915C203.858 678.443 203.705 679.804 203.398 680.997C203.091 682.184 202.651 683.187 202.077 684.005C201.509 684.824 200.819 685.446 200.006 685.872C199.194 686.298 198.279 686.511 197.262 686.511C196.222 686.511 195.299 686.307 194.492 685.897C193.685 685.488 193.029 684.923 192.523 684.201C192.017 683.474 191.702 682.639 191.577 681.696H194.177C194.347 682.446 194.694 683.054 195.216 683.52C195.745 683.98 196.427 684.21 197.262 684.21C198.54 684.21 199.537 683.653 200.253 682.54C200.969 681.42 201.33 679.858 201.336 677.852H201.199C200.904 678.341 200.535 678.761 200.091 679.113C199.654 679.466 199.162 679.738 198.617 679.932C198.071 680.125 197.489 680.221 196.87 680.221C195.864 680.221 194.949 679.974 194.125 679.48C193.302 678.986 192.645 678.307 192.157 677.443C191.668 676.579 191.424 675.593 191.424 674.486C191.424 673.383 191.674 672.383 192.174 671.486C192.679 670.588 193.384 669.878 194.287 669.355C195.196 668.826 196.262 668.568 197.483 668.579ZM197.492 670.795C196.827 670.795 196.228 670.96 195.694 671.29C195.165 671.613 194.748 672.054 194.441 672.611C194.134 673.162 193.981 673.775 193.981 674.451C193.981 675.128 194.128 675.741 194.424 676.292C194.725 676.838 195.134 677.272 195.651 677.596C196.174 677.915 196.77 678.074 197.441 678.074C197.941 678.074 198.407 677.977 198.839 677.784C199.27 677.591 199.648 677.324 199.972 676.983C200.296 676.636 200.549 676.244 200.731 675.807C200.912 675.369 201.003 674.909 201.003 674.426C201.003 673.784 200.85 673.187 200.543 672.636C200.242 672.085 199.827 671.642 199.299 671.307C198.77 670.966 198.168 670.795 197.492 670.795Z" fill="#1E1E1E"/>
</g>
<defs>
<clipPath id="clip0_552_2987">
<rect width="842" height="1072" fill="white"/>
</clipPath>
</defs>
</svg>
