<svg width="842" height="1072" viewBox="0 0 842 1072" fill="none" xmlns="http://www.w3.org/2000/svg">
<g clip-path="url(#clip0_552_2988)">
<path d="M69.9838 130.495C69.9838 109.013 67.1141 173.389 64.3651 194.694C62.548 208.776 62.4922 251.45 62.4922 237.251" stroke="#1E1E1E" stroke-width="8" stroke-linecap="round" stroke-linejoin="round"/>
<path d="M79.3467 128.622C72.4482 124.187 118.849 121.13 122.528 121.13C154.843 121.13 186.623 128.04 218.879 122.067C247.347 116.795 277.235 119.179 305.969 116.968C325.345 115.478 344.15 113.639 363.613 113.639C371.984 113.639 376.793 115.242 384.215 119.257C391.61 123.258 398.132 123.003 406.274 123.003C410.03 123.003 422.487 118.779 425.419 120.922C429.559 123.947 427.942 136.449 427.604 141.004C426.091 161.433 421.343 181.74 418.76 202.082C416.807 217.461 418.399 231.409 414.598 246.615" stroke="#1E1E1E" stroke-width="8" stroke-linecap="round" stroke-linejoin="round"/>
<path d="M66.2383 246.616C72.2264 236.436 94.2042 237.816 104.113 237.355C124.02 236.429 143.633 235.378 163.63 235.378C203.441 235.378 243.453 236.876 283.08 232.569C294.234 231.357 305.373 231.632 316.584 231.632C328.358 231.632 338.577 234.353 350.088 235.274C371.04 236.95 394.333 228.623 414.6 235.378" stroke="#1E1E1E" stroke-width="8" stroke-linecap="round" stroke-linejoin="round"/>
<path d="M66.2394 297.184C55.8848 297.184 86.8919 295.311 97.2464 295.311C118.202 295.311 138.966 295.311 159.885 295.311C193.506 295.311 227.337 297.184 261.126 297.184C289.671 297.184 318.215 297.184 346.76 297.184C361.884 297.184 376.476 293.438 391.71 293.438C397.467 293.438 403.225 293.438 408.982 293.438C412.953 293.438 422.387 291.369 416.474 295.311" stroke="#1E1E1E" stroke-width="8" stroke-linecap="round" stroke-linejoin="round"/>
<path d="M62.4922 351.499C90.3661 351.499 118.322 345.88 146.149 345.88C176.101 345.88 207.745 345.779 237.401 350.562C262.248 354.57 286.339 347.753 310.965 347.753C333.024 347.753 355.083 347.753 377.141 347.753" stroke="#1E1E1E" stroke-width="8" stroke-linecap="round" stroke-linejoin="round"/>
<path d="M58.7461 403.94C64.7809 398.911 80.9988 405.422 88.9208 405.917C107.012 407.048 124.852 407.686 143.027 407.686C164.475 407.686 185.897 409.076 207.122 409.559C226.938 410.009 246.818 409.559 266.639 409.559C285.686 409.559 303.914 405.813 322.827 405.813" stroke="#1E1E1E" stroke-width="8" stroke-linecap="round" stroke-linejoin="round"/>
<rect width="480" height="1072" rx="6" stroke="#1E1E1E" stroke-width="4" stroke-linecap="round"/>
<path d="M40.0703 555.324C63.078 552.448 86.3755 551.137 109.481 549.288C118.598 548.559 129.52 546.617 139.012 547.671C146.398 548.492 149.774 547.033 156.473 543.684" stroke="#1E1E1E" stroke-width="8" stroke-linecap="round" stroke-linejoin="round"/>
<path d="M54.7595 585.337C58.6303 583.617 62.8274 584.115 66.9784 584.115C74.4897 584.115 82.0879 582.338 89.5834 581.671C111.063 579.762 132.471 577.49 154.004 575.833C200.563 572.252 247.053 572.19 293.571 568.231C331.295 565.02 368.727 562.121 406.664 562.121C412.77 562.121 415.86 563.051 416.507 569.52C417.151 575.961 418.257 581.873 417.05 588.392C415.955 594.303 416.648 599.675 417.661 605.498C418.562 610.681 424.29 614.266 423.703 619.55C423.029 625.608 417.323 619.279 414.267 618.6C406.842 616.95 397.014 617.972 389.557 618.6C363.689 620.775 337.811 623.055 311.9 625.048C256.099 629.341 200.073 628.252 144.229 632.719C127.254 634.077 108.907 633.947 92.0272 631.769C78.7876 630.061 65.5691 630.576 52.3836 629.257C45.6887 628.588 47.26 628.408 48.3785 623.487C49.5283 618.428 47.5409 613.785 47.4282 608.824C47.3215 604.131 46.2063 599.438 46.2063 594.841C46.2063 588.935 47.7537 585.988 44.9844 580.449" stroke="#1E1E1E" stroke-width="8" stroke-linecap="round" stroke-linejoin="round"/>
<path d="M517.335 473.272L512.494 455.818H515.264L518.665 469.335H518.827L522.364 455.818H525.108L528.645 469.343H528.807L532.199 455.818H534.977L530.128 473.272H527.477L523.804 460.199H523.668L519.994 473.272H517.335ZM539.239 473.562C538.409 473.562 537.659 473.409 536.989 473.102C536.318 472.79 535.787 472.338 535.395 471.747C535.008 471.156 534.815 470.432 534.815 469.574C534.815 468.835 534.957 468.227 535.241 467.75C535.526 467.272 535.909 466.895 536.392 466.616C536.875 466.338 537.415 466.128 538.011 465.986C538.608 465.843 539.216 465.736 539.835 465.662C540.619 465.571 541.256 465.497 541.744 465.44C542.233 465.378 542.588 465.278 542.81 465.142C543.031 465.005 543.142 464.784 543.142 464.477V464.417C543.142 463.673 542.932 463.096 542.511 462.687C542.097 462.278 541.477 462.074 540.653 462.074C539.795 462.074 539.119 462.264 538.625 462.645C538.136 463.02 537.798 463.437 537.611 463.897L535.216 463.352C535.5 462.557 535.915 461.915 536.46 461.426C537.011 460.932 537.645 460.574 538.361 460.352C539.077 460.125 539.83 460.011 540.619 460.011C541.142 460.011 541.696 460.074 542.281 460.199C542.872 460.318 543.423 460.54 543.935 460.863C544.452 461.187 544.875 461.65 545.205 462.253C545.534 462.849 545.699 463.625 545.699 464.579V473.272H543.21V471.483H543.108C542.943 471.812 542.696 472.136 542.366 472.454C542.037 472.772 541.614 473.037 541.097 473.247C540.58 473.457 539.96 473.562 539.239 473.562ZM539.793 471.517C540.497 471.517 541.099 471.378 541.599 471.099C542.105 470.821 542.489 470.457 542.75 470.008C543.017 469.554 543.151 469.068 543.151 468.551V466.863C543.06 466.954 542.883 467.04 542.622 467.119C542.366 467.193 542.074 467.258 541.744 467.315C541.415 467.366 541.094 467.415 540.781 467.46C540.469 467.5 540.207 467.534 539.997 467.562C539.503 467.625 539.051 467.73 538.642 467.878C538.239 468.025 537.915 468.238 537.67 468.517C537.432 468.79 537.312 469.153 537.312 469.608C537.312 470.238 537.545 470.716 538.011 471.04C538.477 471.358 539.071 471.517 539.793 471.517ZM554.748 460.182V462.227H547.597V460.182H554.748ZM549.515 457.045H552.063V469.429C552.063 469.923 552.137 470.295 552.285 470.545C552.432 470.79 552.623 470.957 552.856 471.048C553.094 471.133 553.353 471.176 553.631 471.176C553.836 471.176 554.015 471.162 554.168 471.133C554.322 471.105 554.441 471.082 554.526 471.065L554.986 473.17C554.839 473.227 554.628 473.284 554.356 473.341C554.083 473.403 553.742 473.437 553.333 473.443C552.663 473.454 552.038 473.335 551.458 473.085C550.878 472.835 550.41 472.449 550.052 471.926C549.694 471.403 549.515 470.747 549.515 469.957V457.045ZM562.612 473.537C561.322 473.537 560.212 473.261 559.28 472.71C558.354 472.153 557.638 471.372 557.132 470.366C556.632 469.355 556.382 468.17 556.382 466.812C556.382 465.471 556.632 464.29 557.132 463.267C557.638 462.244 558.342 461.446 559.246 460.872C560.155 460.298 561.217 460.011 562.433 460.011C563.172 460.011 563.888 460.133 564.581 460.378C565.274 460.622 565.896 461.005 566.447 461.528C566.998 462.051 567.433 462.73 567.751 463.565C568.07 464.395 568.229 465.403 568.229 466.591V467.494H557.822V465.585H565.731C565.731 464.915 565.595 464.321 565.322 463.804C565.05 463.281 564.666 462.869 564.172 462.568C563.683 462.267 563.109 462.116 562.45 462.116C561.734 462.116 561.109 462.292 560.575 462.645C560.047 462.991 559.638 463.446 559.348 464.008C559.064 464.565 558.922 465.17 558.922 465.824V467.315C558.922 468.19 559.075 468.934 559.382 469.548C559.694 470.162 560.129 470.63 560.686 470.954C561.243 471.272 561.893 471.432 562.638 471.432C563.121 471.432 563.561 471.363 563.959 471.227C564.356 471.085 564.7 470.875 564.99 470.596C565.28 470.318 565.501 469.974 565.655 469.565L568.067 470C567.873 470.71 567.527 471.332 567.027 471.866C566.533 472.395 565.91 472.807 565.16 473.102C564.416 473.392 563.567 473.537 562.612 473.537ZM570.6 473.272V460.182H573.063V462.261H573.199C573.438 461.557 573.859 461.003 574.461 460.599C575.069 460.19 575.756 459.986 576.523 459.986C576.682 459.986 576.87 459.991 577.086 460.003C577.307 460.014 577.481 460.028 577.606 460.045V462.483C577.503 462.454 577.322 462.423 577.06 462.389C576.799 462.349 576.538 462.329 576.276 462.329C575.674 462.329 575.137 462.457 574.665 462.713C574.199 462.963 573.83 463.312 573.557 463.761C573.285 464.204 573.148 464.71 573.148 465.278V473.272H570.6ZM579.355 473.272V460.182H581.903V473.272H579.355ZM580.642 458.162C580.199 458.162 579.818 458.014 579.5 457.718C579.187 457.417 579.031 457.059 579.031 456.645C579.031 456.224 579.187 455.866 579.5 455.571C579.818 455.27 580.199 455.119 580.642 455.119C581.085 455.119 581.463 455.27 581.775 455.571C582.094 455.866 582.253 456.224 582.253 456.645C582.253 457.059 582.094 457.417 581.775 457.718C581.463 458.014 581.085 458.162 580.642 458.162ZM593.168 467.843V460.182H595.725V473.272H593.219V471.005H593.083C592.782 471.704 592.299 472.287 591.634 472.753C590.975 473.213 590.154 473.443 589.171 473.443C588.33 473.443 587.586 473.258 586.938 472.889C586.296 472.514 585.79 471.96 585.421 471.227C585.057 470.494 584.876 469.588 584.876 468.508V460.182H587.424V468.201C587.424 469.093 587.671 469.804 588.165 470.332C588.66 470.861 589.302 471.125 590.091 471.125C590.569 471.125 591.043 471.005 591.515 470.767C591.992 470.528 592.387 470.167 592.699 469.684C593.018 469.201 593.174 468.588 593.168 467.843ZM608.503 463.378L606.193 463.787C606.096 463.491 605.943 463.21 605.733 462.943C605.528 462.676 605.25 462.457 604.897 462.287C604.545 462.116 604.105 462.031 603.576 462.031C602.855 462.031 602.253 462.193 601.77 462.517C601.287 462.835 601.045 463.247 601.045 463.753C601.045 464.19 601.207 464.542 601.531 464.809C601.855 465.076 602.378 465.295 603.099 465.466L605.179 465.943C606.383 466.221 607.281 466.65 607.872 467.23C608.463 467.809 608.758 468.562 608.758 469.488C608.758 470.272 608.531 470.971 608.076 471.585C607.628 472.193 607 472.67 606.193 473.017C605.392 473.363 604.463 473.537 603.406 473.537C601.94 473.537 600.744 473.224 599.818 472.599C598.892 471.968 598.324 471.074 598.113 469.915L600.576 469.54C600.73 470.182 601.045 470.667 601.522 470.997C602 471.321 602.622 471.483 603.389 471.483C604.224 471.483 604.892 471.309 605.392 470.963C605.892 470.611 606.142 470.182 606.142 469.676C606.142 469.267 605.988 468.923 605.682 468.645C605.38 468.366 604.917 468.156 604.292 468.014L602.076 467.528C600.855 467.25 599.951 466.807 599.366 466.199C598.787 465.591 598.497 464.821 598.497 463.889C598.497 463.116 598.713 462.44 599.145 461.861C599.576 461.281 600.173 460.829 600.934 460.505C601.696 460.176 602.568 460.011 603.551 460.011C604.966 460.011 606.079 460.318 606.892 460.932C607.704 461.54 608.241 462.355 608.503 463.378ZM620.537 450.193V478.897H618.253V450.193H620.537ZM640.39 460.403C640.299 459.596 639.924 458.971 639.265 458.528C638.606 458.079 637.777 457.855 636.777 457.855C636.061 457.855 635.441 457.968 634.919 458.196C634.396 458.417 633.99 458.724 633.7 459.116C633.416 459.503 633.274 459.943 633.274 460.437C633.274 460.852 633.37 461.21 633.564 461.511C633.762 461.812 634.021 462.065 634.339 462.27C634.663 462.468 635.01 462.636 635.379 462.772C635.748 462.903 636.103 463.011 636.444 463.096L638.149 463.54C638.706 463.676 639.277 463.861 639.862 464.093C640.447 464.326 640.99 464.633 641.49 465.014C641.99 465.395 642.393 465.866 642.7 466.429C643.012 466.991 643.169 467.665 643.169 468.449C643.169 469.437 642.913 470.315 642.402 471.082C641.896 471.849 641.16 472.454 640.194 472.897C639.234 473.341 638.072 473.562 636.708 473.562C635.402 473.562 634.271 473.355 633.316 472.94C632.362 472.525 631.615 471.937 631.075 471.176C630.535 470.409 630.237 469.5 630.18 468.449H632.822C632.873 469.079 633.078 469.605 633.436 470.025C633.799 470.44 634.262 470.75 634.825 470.954C635.393 471.153 636.015 471.253 636.691 471.253C637.436 471.253 638.098 471.136 638.677 470.903C639.262 470.665 639.723 470.335 640.058 469.915C640.393 469.488 640.561 468.991 640.561 468.423C640.561 467.906 640.413 467.483 640.118 467.153C639.828 466.824 639.433 466.551 638.933 466.335C638.439 466.119 637.879 465.929 637.254 465.764L635.191 465.201C633.794 464.821 632.686 464.261 631.868 463.522C631.055 462.784 630.649 461.807 630.649 460.591C630.649 459.585 630.922 458.707 631.467 457.957C632.012 457.207 632.751 456.625 633.683 456.21C634.615 455.79 635.666 455.579 636.836 455.579C638.018 455.579 639.061 455.787 639.964 456.201C640.873 456.616 641.589 457.187 642.112 457.915C642.635 458.636 642.907 459.466 642.93 460.403H640.39ZM651.297 473.537C650.007 473.537 648.897 473.261 647.965 472.71C647.039 472.153 646.323 471.372 645.817 470.366C645.317 469.355 645.067 468.17 645.067 466.812C645.067 465.471 645.317 464.29 645.817 463.267C646.323 462.244 647.027 461.446 647.931 460.872C648.84 460.298 649.902 460.011 651.118 460.011C651.857 460.011 652.573 460.133 653.266 460.378C653.959 460.622 654.581 461.005 655.132 461.528C655.684 462.051 656.118 462.73 656.436 463.565C656.755 464.395 656.914 465.403 656.914 466.591V467.494H646.507V465.585H654.416C654.416 464.915 654.28 464.321 654.007 463.804C653.735 463.281 653.351 462.869 652.857 462.568C652.368 462.267 651.794 462.116 651.135 462.116C650.419 462.116 649.794 462.292 649.26 462.645C648.732 462.991 648.323 463.446 648.033 464.008C647.749 464.565 647.607 465.17 647.607 465.824V467.315C647.607 468.19 647.76 468.934 648.067 469.548C648.38 470.162 648.814 470.63 649.371 470.954C649.928 471.272 650.578 471.432 651.323 471.432C651.806 471.432 652.246 471.363 652.644 471.227C653.041 471.085 653.385 470.875 653.675 470.596C653.965 470.318 654.186 469.974 654.34 469.565L656.752 470C656.559 470.71 656.212 471.332 655.712 471.866C655.218 472.395 654.595 472.807 653.845 473.102C653.101 473.392 652.252 473.537 651.297 473.537ZM659.285 473.272V460.182H661.748V462.261H661.885C662.123 461.557 662.544 461.003 663.146 460.599C663.754 460.19 664.441 459.986 665.208 459.986C665.367 459.986 665.555 459.991 665.771 460.003C665.992 460.014 666.166 460.028 666.291 460.045V462.483C666.188 462.454 666.007 462.423 665.745 462.389C665.484 462.349 665.223 462.329 664.961 462.329C664.359 462.329 663.822 462.457 663.35 462.713C662.885 462.963 662.515 463.312 662.242 463.761C661.97 464.204 661.833 464.71 661.833 465.278V473.272H659.285ZM679.637 460.182L674.89 473.272H672.163L667.407 460.182H670.143L673.458 470.255H673.595L676.902 460.182H679.637ZM686.773 473.537C685.483 473.537 684.372 473.261 683.441 472.71C682.514 472.153 681.798 471.372 681.293 470.366C680.793 469.355 680.543 468.17 680.543 466.812C680.543 465.471 680.793 464.29 681.293 463.267C681.798 462.244 682.503 461.446 683.406 460.872C684.316 460.298 685.378 460.011 686.594 460.011C687.333 460.011 688.048 460.133 688.742 460.378C689.435 460.622 690.057 461.005 690.608 461.528C691.159 462.051 691.594 462.73 691.912 463.565C692.23 464.395 692.389 465.403 692.389 466.591V467.494H681.983V465.585H689.892C689.892 464.915 689.756 464.321 689.483 463.804C689.21 463.281 688.827 462.869 688.333 462.568C687.844 462.267 687.27 462.116 686.611 462.116C685.895 462.116 685.27 462.292 684.736 462.645C684.208 462.991 683.798 463.446 683.509 464.008C683.225 464.565 683.083 465.17 683.083 465.824V467.315C683.083 468.19 683.236 468.934 683.543 469.548C683.855 470.162 684.29 470.63 684.847 470.954C685.404 471.272 686.054 471.432 686.798 471.432C687.281 471.432 687.722 471.363 688.12 471.227C688.517 471.085 688.861 470.875 689.151 470.596C689.441 470.318 689.662 469.974 689.816 469.565L692.227 470C692.034 470.71 691.688 471.332 691.188 471.866C690.693 472.395 690.071 472.807 689.321 473.102C688.577 473.392 687.727 473.537 686.773 473.537ZM694.761 473.272V460.182H697.224V462.261H697.36C697.599 461.557 698.019 461.003 698.622 460.599C699.23 460.19 699.917 459.986 700.684 459.986C700.843 459.986 701.031 459.991 701.247 460.003C701.468 460.014 701.641 460.028 701.766 460.045V462.483C701.664 462.454 701.482 462.423 701.221 462.389C700.96 462.349 700.698 462.329 700.437 462.329C699.835 462.329 699.298 462.457 698.826 462.713C698.36 462.963 697.991 463.312 697.718 463.761C697.445 464.204 697.309 464.71 697.309 465.278V473.272H694.761ZM712.948 450.193V478.897H710.664V450.193H712.948ZM723.282 455.818H726.478L732.035 469.386H732.239L737.796 455.818H740.992V473.272H738.487V460.642H738.325L733.177 473.247H731.097L725.95 460.633H725.788V473.272H723.282V455.818ZM750.783 467.613H753.374L755.197 469.991L756.058 471.048L758.964 474.841H756.271L754.328 472.309L753.663 471.389L750.783 467.613ZM759.527 464.545C759.527 466.409 759.186 468.011 758.504 469.352C757.822 470.687 756.888 471.716 755.7 472.437C754.518 473.153 753.175 473.511 751.669 473.511C750.158 473.511 748.808 473.153 747.621 472.437C746.439 471.716 745.507 470.684 744.825 469.343C744.143 468.003 743.803 466.403 743.803 464.545C743.803 462.682 744.143 461.082 744.825 459.747C745.507 458.406 746.439 457.378 747.621 456.662C748.808 455.94 750.158 455.579 751.669 455.579C753.175 455.579 754.518 455.94 755.7 456.662C756.888 457.378 757.822 458.406 758.504 459.747C759.186 461.082 759.527 462.682 759.527 464.545ZM756.919 464.545C756.919 463.125 756.689 461.929 756.229 460.957C755.774 459.98 755.149 459.241 754.354 458.741C753.564 458.236 752.669 457.983 751.669 457.983C750.663 457.983 749.766 458.236 748.976 458.741C748.186 459.241 747.561 459.98 747.101 460.957C746.646 461.929 746.419 463.125 746.419 464.545C746.419 465.966 746.646 467.165 747.101 468.142C747.561 469.113 748.186 469.852 748.976 470.358C749.766 470.858 750.663 471.108 751.669 471.108C752.669 471.108 753.564 470.858 754.354 470.358C755.149 469.852 755.774 469.113 756.229 468.142C756.689 467.165 756.919 465.966 756.919 464.545ZM760.744 458.085V455.818H774.252V458.085H768.806V473.272H766.181V458.085H760.744ZM775.92 458.085V455.818H789.429V458.085H783.983V473.272H781.358V458.085H775.92Z" fill="#1E1E1E"/>
<path d="M513.918 595.272V577.818H524.861V580.085H516.551V585.403H524.29V587.662H516.551V593.005H524.963V595.272H513.918ZM527.718 595.272V582.182H530.164V584.312H530.326C530.599 583.591 531.045 583.028 531.664 582.625C532.283 582.216 533.025 582.011 533.888 582.011C534.763 582.011 535.496 582.216 536.087 582.625C536.684 583.034 537.124 583.596 537.408 584.312H537.545C537.857 583.613 538.354 583.057 539.036 582.642C539.718 582.221 540.531 582.011 541.474 582.011C542.661 582.011 543.63 582.383 544.38 583.128C545.136 583.872 545.513 584.994 545.513 586.494V595.272H542.965V586.733C542.965 585.846 542.724 585.204 542.241 584.807C541.758 584.409 541.181 584.21 540.511 584.21C539.681 584.21 539.036 584.466 538.576 584.977C538.116 585.483 537.886 586.133 537.886 586.929V595.272H535.346V586.571C535.346 585.861 535.124 585.29 534.681 584.858C534.238 584.426 533.661 584.21 532.951 584.21C532.468 584.21 532.022 584.338 531.613 584.593C531.209 584.843 530.883 585.193 530.633 585.642C530.388 586.091 530.266 586.611 530.266 587.201V595.272H527.718ZM552.283 595.562C551.453 595.562 550.703 595.409 550.033 595.102C549.362 594.79 548.831 594.338 548.439 593.747C548.052 593.156 547.859 592.432 547.859 591.574C547.859 590.835 548.001 590.227 548.285 589.75C548.57 589.272 548.953 588.895 549.436 588.616C549.919 588.338 550.459 588.128 551.055 587.986C551.652 587.843 552.26 587.736 552.879 587.662C553.663 587.571 554.3 587.497 554.788 587.44C555.277 587.378 555.632 587.278 555.854 587.142C556.075 587.005 556.186 586.784 556.186 586.477V586.417C556.186 585.673 555.976 585.096 555.555 584.687C555.141 584.278 554.521 584.074 553.697 584.074C552.839 584.074 552.163 584.264 551.669 584.645C551.18 585.02 550.842 585.437 550.655 585.897L548.26 585.352C548.544 584.557 548.959 583.915 549.504 583.426C550.055 582.932 550.689 582.574 551.405 582.352C552.121 582.125 552.874 582.011 553.663 582.011C554.186 582.011 554.74 582.074 555.325 582.199C555.916 582.318 556.467 582.54 556.979 582.863C557.496 583.187 557.919 583.65 558.249 584.253C558.578 584.849 558.743 585.625 558.743 586.579V595.272H556.254V593.483H556.152C555.987 593.812 555.74 594.136 555.41 594.454C555.081 594.772 554.658 595.037 554.141 595.247C553.624 595.457 553.004 595.562 552.283 595.562ZM552.837 593.517C553.541 593.517 554.143 593.378 554.643 593.099C555.149 592.821 555.533 592.457 555.794 592.008C556.061 591.554 556.195 591.068 556.195 590.551V588.863C556.104 588.954 555.927 589.04 555.666 589.119C555.41 589.193 555.118 589.258 554.788 589.315C554.459 589.366 554.138 589.415 553.825 589.46C553.513 589.5 553.251 589.534 553.041 589.562C552.547 589.625 552.095 589.73 551.686 589.878C551.283 590.025 550.959 590.238 550.714 590.517C550.476 590.79 550.356 591.153 550.356 591.608C550.356 592.238 550.589 592.716 551.055 593.04C551.521 593.358 552.115 593.517 552.837 593.517ZM561.681 595.272V582.182H564.229V595.272H561.681ZM562.968 580.162C562.525 580.162 562.144 580.014 561.826 579.718C561.513 579.417 561.357 579.059 561.357 578.645C561.357 578.224 561.513 577.866 561.826 577.571C562.144 577.27 562.525 577.119 562.968 577.119C563.411 577.119 563.789 577.27 564.101 577.571C564.42 577.866 564.579 578.224 564.579 578.645C564.579 579.059 564.42 579.417 564.101 579.718C563.789 580.014 563.411 580.162 562.968 580.162ZM569.75 577.818V595.272H567.202V577.818H569.75ZM582.155 572.193V600.897H579.871V572.193H582.155ZM602.008 582.403C601.917 581.596 601.542 580.971 600.883 580.528C600.224 580.079 599.395 579.855 598.395 579.855C597.679 579.855 597.059 579.968 596.537 580.196C596.014 580.417 595.608 580.724 595.318 581.116C595.034 581.503 594.892 581.943 594.892 582.437C594.892 582.852 594.988 583.21 595.182 583.511C595.38 583.812 595.639 584.065 595.957 584.27C596.281 584.468 596.628 584.636 596.997 584.772C597.366 584.903 597.721 585.011 598.062 585.096L599.767 585.54C600.324 585.676 600.895 585.861 601.48 586.093C602.065 586.326 602.608 586.633 603.108 587.014C603.608 587.395 604.011 587.866 604.318 588.429C604.63 588.991 604.787 589.665 604.787 590.449C604.787 591.437 604.531 592.315 604.02 593.082C603.514 593.849 602.778 594.454 601.812 594.897C600.852 595.341 599.69 595.562 598.326 595.562C597.02 595.562 595.889 595.355 594.934 594.94C593.98 594.525 593.233 593.937 592.693 593.176C592.153 592.409 591.855 591.5 591.798 590.449H594.44C594.491 591.079 594.696 591.605 595.054 592.025C595.417 592.44 595.88 592.75 596.443 592.954C597.011 593.153 597.633 593.253 598.309 593.253C599.054 593.253 599.716 593.136 600.295 592.903C600.88 592.665 601.341 592.335 601.676 591.915C602.011 591.488 602.179 590.991 602.179 590.423C602.179 589.906 602.031 589.483 601.736 589.153C601.446 588.824 601.051 588.551 600.551 588.335C600.057 588.119 599.497 587.929 598.872 587.764L596.809 587.201C595.412 586.821 594.304 586.261 593.486 585.522C592.673 584.784 592.267 583.807 592.267 582.591C592.267 581.585 592.539 580.707 593.085 579.957C593.63 579.207 594.369 578.625 595.301 578.21C596.233 577.79 597.284 577.579 598.454 577.579C599.636 577.579 600.679 577.787 601.582 578.201C602.491 578.616 603.207 579.187 603.73 579.915C604.253 580.636 604.525 581.466 604.548 582.403H602.008ZM612.915 595.537C611.625 595.537 610.515 595.261 609.583 594.71C608.657 594.153 607.941 593.372 607.435 592.366C606.935 591.355 606.685 590.17 606.685 588.812C606.685 587.471 606.935 586.29 607.435 585.267C607.941 584.244 608.645 583.446 609.549 582.872C610.458 582.298 611.52 582.011 612.736 582.011C613.475 582.011 614.191 582.133 614.884 582.378C615.577 582.622 616.199 583.005 616.75 583.528C617.302 584.051 617.736 584.73 618.054 585.565C618.373 586.395 618.532 587.403 618.532 588.591V589.494H608.125V587.585H616.034C616.034 586.915 615.898 586.321 615.625 585.804C615.353 585.281 614.969 584.869 614.475 584.568C613.986 584.267 613.412 584.116 612.753 584.116C612.037 584.116 611.412 584.292 610.878 584.645C610.35 584.991 609.941 585.446 609.651 586.008C609.367 586.565 609.225 587.17 609.225 587.824V589.315C609.225 590.19 609.378 590.934 609.685 591.548C609.998 592.162 610.432 592.63 610.989 592.954C611.546 593.272 612.196 593.432 612.941 593.432C613.424 593.432 613.864 593.363 614.262 593.227C614.659 593.085 615.003 592.875 615.293 592.596C615.583 592.318 615.804 591.974 615.958 591.565L618.37 592C618.177 592.71 617.83 593.332 617.33 593.866C616.836 594.395 616.213 594.807 615.463 595.102C614.719 595.392 613.87 595.537 612.915 595.537ZM620.903 595.272V582.182H623.366V584.261H623.503C623.741 583.557 624.162 583.003 624.764 582.599C625.372 582.19 626.059 581.986 626.826 581.986C626.985 581.986 627.173 581.991 627.389 582.003C627.61 582.014 627.784 582.028 627.909 582.045V584.483C627.806 584.454 627.625 584.423 627.363 584.389C627.102 584.349 626.841 584.329 626.579 584.329C625.977 584.329 625.44 584.457 624.968 584.713C624.503 584.963 624.133 585.312 623.86 585.761C623.588 586.204 623.451 586.71 623.451 587.278V595.272H620.903ZM641.255 582.182L636.508 595.272H633.781L629.025 582.182H631.761L635.076 592.255H635.213L638.52 582.182H641.255ZM648.391 595.537C647.101 595.537 645.99 595.261 645.059 594.71C644.132 594.153 643.416 593.372 642.911 592.366C642.411 591.355 642.161 590.17 642.161 588.812C642.161 587.471 642.411 586.29 642.911 585.267C643.416 584.244 644.121 583.446 645.024 582.872C645.934 582.298 646.996 582.011 648.212 582.011C648.951 582.011 649.666 582.133 650.36 582.378C651.053 582.622 651.675 583.005 652.226 583.528C652.777 584.051 653.212 584.73 653.53 585.565C653.848 586.395 654.007 587.403 654.007 588.591V589.494H643.601V587.585H651.51C651.51 586.915 651.374 586.321 651.101 585.804C650.828 585.281 650.445 584.869 649.951 584.568C649.462 584.267 648.888 584.116 648.229 584.116C647.513 584.116 646.888 584.292 646.354 584.645C645.826 584.991 645.416 585.446 645.127 586.008C644.843 586.565 644.701 587.17 644.701 587.824V589.315C644.701 590.19 644.854 590.934 645.161 591.548C645.473 592.162 645.908 592.63 646.465 592.954C647.022 593.272 647.672 593.432 648.416 593.432C648.899 593.432 649.34 593.363 649.738 593.227C650.135 593.085 650.479 592.875 650.769 592.596C651.059 592.318 651.28 591.974 651.434 591.565L653.845 592C653.652 592.71 653.306 593.332 652.806 593.866C652.311 594.395 651.689 594.807 650.939 595.102C650.195 595.392 649.345 595.537 648.391 595.537ZM656.379 595.272V582.182H658.842V584.261H658.978C659.217 583.557 659.637 583.003 660.24 582.599C660.848 582.19 661.535 581.986 662.302 581.986C662.461 581.986 662.649 581.991 662.865 582.003C663.086 582.014 663.26 582.028 663.385 582.045V584.483C663.282 584.454 663.1 584.423 662.839 584.389C662.578 584.349 662.316 584.329 662.055 584.329C661.453 584.329 660.916 584.457 660.444 584.713C659.978 584.963 659.609 585.312 659.336 585.761C659.063 586.204 658.927 586.71 658.927 587.278V595.272H656.379ZM674.839 595.562C674.009 595.562 673.259 595.409 672.589 595.102C671.919 594.79 671.387 594.338 670.995 593.747C670.609 593.156 670.416 592.432 670.416 591.574C670.416 590.835 670.558 590.227 670.842 589.75C671.126 589.272 671.509 588.895 671.992 588.616C672.475 588.338 673.015 588.128 673.612 587.986C674.208 587.843 674.816 587.736 675.436 587.662C676.22 587.571 676.856 587.497 677.345 587.44C677.833 587.378 678.188 587.278 678.41 587.142C678.632 587.005 678.742 586.784 678.742 586.477V586.417C678.742 585.673 678.532 585.096 678.112 584.687C677.697 584.278 677.078 584.074 676.254 584.074C675.396 584.074 674.72 584.264 674.225 584.645C673.737 585.02 673.399 585.437 673.211 585.897L670.816 585.352C671.1 584.557 671.515 583.915 672.061 583.426C672.612 582.932 673.245 582.574 673.961 582.352C674.677 582.125 675.43 582.011 676.22 582.011C676.742 582.011 677.296 582.074 677.882 582.199C678.473 582.318 679.024 582.54 679.535 582.863C680.052 583.187 680.475 583.65 680.805 584.253C681.134 584.849 681.299 585.625 681.299 586.579V595.272H678.811V593.483H678.708C678.544 593.812 678.296 594.136 677.967 594.454C677.637 594.772 677.214 595.037 676.697 595.247C676.18 595.457 675.561 595.562 674.839 595.562ZM675.393 593.517C676.098 593.517 676.7 593.378 677.2 593.099C677.705 592.821 678.089 592.457 678.35 592.008C678.617 591.554 678.751 591.068 678.751 590.551V588.863C678.66 588.954 678.484 589.04 678.223 589.119C677.967 589.193 677.674 589.258 677.345 589.315C677.015 589.366 676.694 589.415 676.382 589.46C676.069 589.5 675.808 589.534 675.598 589.562C675.103 589.625 674.651 589.73 674.242 589.878C673.839 590.025 673.515 590.238 673.271 590.517C673.032 590.79 672.913 591.153 672.913 591.608C672.913 592.238 673.146 592.716 673.612 593.04C674.078 593.358 674.671 593.517 675.393 593.517ZM689.138 595.528C688.081 595.528 687.138 595.258 686.308 594.718C685.485 594.173 684.837 593.397 684.365 592.392C683.899 591.38 683.666 590.167 683.666 588.753C683.666 587.338 683.902 586.128 684.374 585.122C684.851 584.116 685.504 583.346 686.334 582.812C687.164 582.278 688.104 582.011 689.155 582.011C689.967 582.011 690.621 582.147 691.115 582.42C691.615 582.687 692.002 583 692.274 583.358C692.553 583.716 692.769 584.031 692.922 584.304H693.075V577.818H695.624V595.272H693.135V593.236H692.922C692.769 593.514 692.547 593.832 692.257 594.19C691.973 594.548 691.581 594.861 691.081 595.128C690.581 595.395 689.933 595.528 689.138 595.528ZM689.7 593.355C690.433 593.355 691.053 593.162 691.558 592.775C692.07 592.383 692.456 591.841 692.717 591.147C692.985 590.454 693.118 589.647 693.118 588.727C693.118 587.818 692.987 587.022 692.726 586.341C692.465 585.659 692.081 585.128 691.575 584.747C691.07 584.366 690.445 584.176 689.7 584.176C688.933 584.176 688.294 584.375 687.783 584.772C687.271 585.17 686.885 585.713 686.624 586.4C686.368 587.088 686.24 587.863 686.24 588.727C686.24 589.602 686.371 590.389 686.632 591.088C686.894 591.787 687.28 592.341 687.791 592.75C688.308 593.153 688.945 593.355 689.7 593.355ZM698.805 595.272V582.182H701.268V584.261H701.404C701.643 583.557 702.063 583.003 702.666 582.599C703.274 582.19 703.961 581.986 704.728 581.986C704.887 581.986 705.075 581.991 705.291 582.003C705.512 582.014 705.686 582.028 705.811 582.045V584.483C705.708 584.454 705.526 584.423 705.265 584.389C705.004 584.349 704.742 584.329 704.481 584.329C703.879 584.329 703.342 584.457 702.87 584.713C702.404 584.963 702.035 585.312 701.762 585.761C701.489 586.204 701.353 586.71 701.353 587.278V595.272H698.805ZM712.733 595.537C711.443 595.537 710.332 595.261 709.401 594.71C708.475 594.153 707.759 593.372 707.253 592.366C706.753 591.355 706.503 590.17 706.503 588.812C706.503 587.471 706.753 586.29 707.253 585.267C707.759 584.244 708.463 583.446 709.367 582.872C710.276 582.298 711.338 582.011 712.554 582.011C713.293 582.011 714.009 582.133 714.702 582.378C715.395 582.622 716.017 583.005 716.568 583.528C717.119 584.051 717.554 584.73 717.872 585.565C718.19 586.395 718.35 587.403 718.35 588.591V589.494H707.943V587.585H715.852C715.852 586.915 715.716 586.321 715.443 585.804C715.171 585.281 714.787 584.869 714.293 584.568C713.804 584.267 713.23 584.116 712.571 584.116C711.855 584.116 711.23 584.292 710.696 584.645C710.168 584.991 709.759 585.446 709.469 586.008C709.185 586.565 709.043 587.17 709.043 587.824V589.315C709.043 590.19 709.196 590.934 709.503 591.548C709.815 592.162 710.25 592.63 710.807 592.954C711.364 593.272 712.014 593.432 712.759 593.432C713.242 593.432 713.682 593.363 714.08 593.227C714.477 593.085 714.821 592.875 715.111 592.596C715.401 592.318 715.622 591.974 715.776 591.565L718.188 592C717.994 592.71 717.648 593.332 717.148 593.866C716.654 594.395 716.031 594.807 715.281 595.102C714.537 595.392 713.688 595.537 712.733 595.537ZM730.531 585.378L728.221 585.787C728.124 585.491 727.971 585.21 727.761 584.943C727.556 584.676 727.278 584.457 726.925 584.287C726.573 584.116 726.133 584.031 725.604 584.031C724.883 584.031 724.281 584.193 723.798 584.517C723.315 584.835 723.073 585.247 723.073 585.753C723.073 586.19 723.235 586.542 723.559 586.809C723.883 587.076 724.406 587.295 725.127 587.466L727.207 587.943C728.411 588.221 729.309 588.65 729.9 589.23C730.491 589.809 730.786 590.562 730.786 591.488C730.786 592.272 730.559 592.971 730.104 593.585C729.656 594.193 729.028 594.67 728.221 595.017C727.42 595.363 726.491 595.537 725.434 595.537C723.968 595.537 722.772 595.224 721.846 594.599C720.92 593.968 720.352 593.074 720.141 591.915L722.604 591.54C722.758 592.182 723.073 592.667 723.55 592.997C724.028 593.321 724.65 593.483 725.417 593.483C726.252 593.483 726.92 593.309 727.42 592.963C727.92 592.611 728.17 592.182 728.17 591.676C728.17 591.267 728.016 590.923 727.71 590.645C727.408 590.366 726.945 590.156 726.32 590.014L724.104 589.528C722.883 589.25 721.979 588.807 721.394 588.199C720.815 587.591 720.525 586.821 720.525 585.889C720.525 585.116 720.741 584.44 721.173 583.861C721.604 583.281 722.201 582.829 722.962 582.505C723.724 582.176 724.596 582.011 725.579 582.011C726.994 582.011 728.107 582.318 728.92 582.932C729.732 583.54 730.269 584.355 730.531 585.378ZM742.942 585.378L740.632 585.787C740.536 585.491 740.382 585.21 740.172 584.943C739.967 584.676 739.689 584.457 739.337 584.287C738.984 584.116 738.544 584.031 738.016 584.031C737.294 584.031 736.692 584.193 736.209 584.517C735.726 584.835 735.484 585.247 735.484 585.753C735.484 586.19 735.646 586.542 735.97 586.809C736.294 587.076 736.817 587.295 737.538 587.466L739.618 587.943C740.822 588.221 741.72 588.65 742.311 589.23C742.902 589.809 743.197 590.562 743.197 591.488C743.197 592.272 742.97 592.971 742.516 593.585C742.067 594.193 741.439 594.67 740.632 595.017C739.831 595.363 738.902 595.537 737.845 595.537C736.379 595.537 735.183 595.224 734.257 594.599C733.331 593.968 732.763 593.074 732.553 591.915L735.016 591.54C735.169 592.182 735.484 592.667 735.962 592.997C736.439 593.321 737.061 593.483 737.828 593.483C738.663 593.483 739.331 593.309 739.831 592.963C740.331 592.611 740.581 592.182 740.581 591.676C740.581 591.267 740.428 590.923 740.121 590.645C739.82 590.366 739.357 590.156 738.732 590.014L736.516 589.528C735.294 589.25 734.391 588.807 733.805 588.199C733.226 587.591 732.936 586.821 732.936 585.889C732.936 585.116 733.152 584.44 733.584 583.861C734.016 583.281 734.612 582.829 735.374 582.505C736.135 582.176 737.007 582.011 737.99 582.011C739.405 582.011 740.518 582.318 741.331 582.932C742.143 583.54 742.68 584.355 742.942 585.378Z" fill="#1E1E1E"/>
<path d="M43.0085 38.6244C46.6856 32.741 43.5118 36.4594 41.6347 39.2752C39.2646 42.8304 35.1582 45.6853 32.5964 49.3258C30.108 52.862 21.0166 56.9528 24.1365 59.4487C28.3627 62.8296 33.6892 68.7557 37.0794 73.1146C40.0208 76.8964 44.31 77.7193 44.31 82.876" stroke="#1E1E1E" stroke-width="8" stroke-linecap="round" stroke-linejoin="round"/>
<path d="M62.5299 60.7498C61.3437 59.3941 80.3198 59.6471 83.0649 59.159C92.8605 57.4176 103.043 58.1468 113 58.1468C120.059 58.1468 134.203 55.5885 139.319 58.1468" stroke="#1E1E1E" stroke-width="8" stroke-linecap="round" stroke-linejoin="round"/>
<path d="M347.484 55.9125C344.046 55.9125 341.491 54.2314 346.643 54.2314C351.842 54.2314 357.041 54.2314 362.24 54.2314C370.209 54.2314 378.179 54.2314 386.148 54.2314" stroke="#1E1E1E" stroke-width="8" stroke-linecap="round" stroke-linejoin="round"/>
<path d="M423.131 27.3348C427.287 26.8731 423.489 26.9598 420.516 31.6308C415.758 39.1084 412.085 46.7866 408.842 55.0723C405.31 64.0991 400.332 72.9334 396.234 81.1288" stroke="#1E1E1E" stroke-width="8" stroke-linecap="round" stroke-linejoin="round"/>
<path d="M426.492 57.5934C427.008 53.4679 453.012 55.9124 456.751 55.9124" stroke="#1E1E1E" stroke-width="8" stroke-linecap="round" stroke-linejoin="round"/>
<rect x="32" y="959" width="416" height="80" rx="6" fill="#9747FF"/>
<path d="M306.305 461.639C306.305 461.039 306.8 457.61 306.8 459.03C306.8 467.837 304.652 476.553 306.314 485.304C307.073 489.297 305.132 491.251 304.636 494.836C304.57 495.311 304.609 497.185 305.272 497.185" stroke="#1E1E1E" stroke-width="8" stroke-linecap="round" stroke-linejoin="round"/>
<path d="M134.642 501.238C134.642 499.151 134.208 498.905 136.494 497.905C137.619 497.413 137.518 496.291 136.171 496.372C133.322 496.542 136.519 495.767 134.587 496.592C132.016 497.691 129.492 499.642 126.794 500.37C124.507 500.987 130.437 497.337 132.169 495.72C132.62 495.298 135.298 493.038 133.739 493.038C129.724 493.038 124.593 497.357 120.872 498.797C119.464 499.342 118.671 499.778 120.428 498.709C122.81 497.259 125.207 495.84 127.629 494.458C130.056 493.072 132.869 490.763 135.586 489.994C136.384 489.768 126.588 495.12 130.803 495.02C132.678 494.975 142.378 489.461 136.505 490.568C132.156 491.388 127.711 492.971 123.945 495.287C123.809 495.371 119.908 498.009 121.151 496.347C123.289 493.488 127.666 491.911 130.473 489.774C133.293 487.627 129.18 488.759 127.937 489.366C121.273 492.62 115.251 496.982 108.768 500.55C104.548 502.872 109.699 497.831 110.6 497.025C114.762 493.299 119.363 489.725 124.319 487.114C125.03 486.739 131.263 483.894 127.983 485.752C122.879 488.644 117.449 490.926 112.332 493.802C105.106 497.864 114.711 493.05 116.842 491.982C121.968 489.415 127.233 487.148 132.338 484.533C132.907 484.242 135.528 482.954 134.147 484.616C133.146 485.821 127.739 492.358 132.35 488.839C134.722 487.029 137.43 485.575 137.43 482.405C137.43 479.475 138.667 486.315 138.774 486.981C139.104 489.042 138.885 488.085 138.873 486.504C138.853 483.894 138.499 481.286 137.696 478.801C137.599 478.498 135.202 473.898 134.265 475.418C133.969 475.899 133.976 480.023 134.749 480.023C135.549 480.023 134.911 472.971 134.911 472.13C134.911 468.697 138.187 468.079 132.079 468.079C129.496 468.079 126.966 469.27 124.44 469.747C122.288 470.153 120.124 469.928 117.954 470.074C111.192 470.53 104.814 472.188 98.1218 472.993C93.7297 473.521 89.3798 473.281 85.017 474.208C80.6245 475.142 76.3984 476.597 71.8596 476.597C62.7638 476.597 89.4857 472.084 98.3631 470.104C103.664 468.921 108.988 467.341 114.409 466.825C115.656 466.706 118.609 466.098 119.715 467.002C120.861 467.937 123.187 468.259 124.559 468.259C129.012 468.259 134.134 465.343 138.301 468.238C140.019 469.432 139.68 474.818 139.68 477.23C139.68 477.927 137.759 481.768 137.268 480.718C135.017 475.903 128.257 478.357 125.054 480.67C122.622 482.426 120.92 484.987 118.455 486.684C115.91 488.438 121.44 485.404 121.946 485.114C125.299 483.194 129.943 481.542 132.58 478.637C133.718 477.383 128.626 477.397 128.175 477.403C123.241 477.461 117.856 480.812 113.435 482.766C109.438 484.532 117.291 480.011 118.199 479.379C120.61 477.703 128.556 474.019 129.242 470.886C129.314 470.558 123.377 473.827 122.836 474.12C116.56 477.52 110.111 480.34 103.566 483.173C102.964 483.434 97.692 485.971 98.687 485.963C102.354 485.934 106.499 483.087 110.013 482.035C113.23 481.071 113.967 481.845 111.935 484.727C109.163 488.659 104.777 491.577 100.792 494.135C100.008 494.637 93.42 498.833 97.4049 496.728C101.386 494.624 105.303 492.3 109.485 490.609C111.136 489.942 113.774 489.11 111.222 491.157C107.673 494.005 95.2738 499.831 99.51 498.17C104.03 496.398 97.8537 498.597 96.3948 499.203C94.1936 500.116 91.8698 500.968 89.7351 502.002C88.6629 502.521 87.522 503.264 86.3007 503.264C86.2437 503.264 88.4702 503.147 89.063 503.06C92.1578 502.602 95.0118 501.101 97.9229 500.051C100.835 499.001 104.144 499.363 106.839 498.353C108.034 497.905 101.806 498.226 100.839 498.446C94.4223 499.909 87.5458 504.054 81.0285 501.915C75.8269 500.207 70.6455 502.988 65.3957 502.988C63.6468 502.988 63.6499 502.561 62.3307 501.686C60.3981 500.405 65.5923 502.091 66.6817 502.204C71.7321 502.729 77.959 503.374 82.849 502.002C83.4837 501.824 85.9064 501.833 85.2159 501.575C81.4619 500.168 75.7027 500.586 71.7496 501.058C69.122 501.371 67.1556 501.238 64.6528 501.238C61.9323 501.238 59.3259 501.959 56.6387 501.959C54.5709 501.959 53.8367 500.44 51.9356 499.414C49.4533 498.074 45.3194 497.678 42.5372 497.314C36.0292 496.461 34.9601 488.931 35.3414 483.714C35.892 476.181 48.3365 473.015 54.4998 471.408C62.8615 469.228 71.7019 468.38 80.2062 466.553C84.4198 465.648 87.6658 466.355 91.8001 467.14C95.6352 467.868 99.4026 467.315 103.26 467.315C104.167 467.315 105.017 468.189 105.164 469.04C105.537 471.196 86.3209 472.59 84.0439 473.064C77.6722 474.391 71.6549 477.342 65.1693 478.079C61.3432 478.514 57.3616 478.825 53.6901 480.065C50.7731 481.051 53.7683 481.101 53.165 483.264C52.3788 486.082 48.3859 487.337 45.9016 487.992C42.6868 488.839 38.6302 489.153 42.9727 485.719C50.5364 479.739 59.6564 475.604 68.9432 473.275C71.2717 472.691 71.1115 473.711 69.3096 473.711C63.0045 473.711 54.2844 474.011 48.921 477.833C46.3514 479.664 44.6516 482.14 41.9618 483.883C40.323 484.945 37.4965 485.902 37.735 488.286C37.8838 489.774 52.4921 488.085 53.9149 488.085C55.8756 488.085 57.2353 489.527 59.2013 489.527C60.6295 489.527 64.9122 489.388 63.4847 489.432C58.4293 489.587 53.4014 491.638 48.2033 491.638C47.1666 491.638 47.9869 491.507 46.7726 491.055C45.7163 490.662 41.8712 491.539 42.4979 491.701C47.2768 492.935 52.551 492.989 57.4507 493.76C60.2065 494.194 63.2038 494.379 65.9577 493.848C67.9122 493.47 69.9565 493.136 71.7716 494.12C75.9632 496.395 68.9281 493.785 67.7547 493.373C66.0878 492.789 62.0302 491.471 60.4551 492.837C58.9022 494.183 63.7481 494.893 64.2944 494.977C71.2237 496.043 78.7271 496.736 85.5744 495.067C88.7111 494.303 91.6635 495.219 94.8022 493.994C99.6929 492.085 90.2085 493.574 89.3429 493.67C84.1925 494.239 78.9131 493.37 73.7965 494.085C70.1826 494.59 66.803 495.833 63.1333 496.168C58.7139 496.572 56.3627 494.866 52.2068 496.849C50.7139 497.561 55.4466 496.084 56.9531 495.401C61.7469 493.228 66.272 490.482 71.1254 488.445C74.8813 486.869 78.5536 486.143 82.6124 486.143C85.429 486.143 87.7247 486.557 90.5495 485.75C94.6917 484.566 101.84 482.79 103.896 488.5C105.086 491.806 92.9641 487.638 91.9833 487.344C88.6536 486.345 85.9196 489.029 82.5896 489.029C78.0422 489.029 74.3975 487.799 70.0068 486.913C64.8396 485.87 59.8724 486.58 54.885 487.926C54.0209 488.159 50.5973 488.312 52.8419 487.019C58.5912 483.706 69.558 478.348 76.3434 481.102C82.2749 483.51 86.1904 479.68 91.5525 477.456C97.6394 474.931 105.515 477.359 111.129 473.659C116.586 470.064 109.881 476.326 107.526 477.285C102.034 479.521 94.6879 482.41 88.6134 482.41C86.9614 482.41 85.7065 483.145 84.2986 483.947C82.6626 484.878 88.0994 484.282 89.9458 483.916C93.113 483.287 96.0365 482.385 99.1272 481.463C101.525 480.748 108.916 479.662 106.414 479.662" stroke="#9747FF" stroke-width="8" stroke-linecap="round" stroke-linejoin="round"/>
<path d="M46.3639 465.787C46.3639 462.46 53.4112 463.803 55.5847 463.803C73.218 463.803 90.5847 461.491 108.169 460.707C126.368 459.895 144.423 462.192 162.547 459.751C182.546 457.058 202.145 455.349 222.336 455.381C240.214 455.409 258.019 457.521 275.933 457.259C284.01 457.142 292.049 456.064 300.123 455.808C307.646 455.57 315.188 455.642 322.706 455.288C334.578 454.728 346.285 451.997 358.176 451.997C371.679 451.997 384.821 451.959 398.261 450.519C405.213 449.775 412.101 448.358 419.101 448.358C426.121 448.358 430.962 450.7 437.264 453.466C439.44 454.421 443.297 455.417 444.302 457.812C445.23 460.024 445.528 462.321 446.836 464.392C448.836 467.556 448.903 472.145 446.95 475.237C444.477 479.152 442.689 481.213 438.735 483.849C433.716 487.196 425.692 488.592 419.8 489.208C410.905 490.139 402.403 492.147 393.649 493.982C381.276 496.576 368.187 496.881 355.594 497.7C341.036 498.647 326.52 496.655 312.005 498.485C295.041 500.623 277.792 501.779 260.69 501.779C237.261 501.779 213.905 503.402 190.488 503.402C174.206 503.402 158.169 504.199 141.92 504.865C130.732 505.323 119.801 504.287 108.65 505.268C97.8025 506.223 87.8219 510.063 76.8183 510.063C69.6722 510.063 63.6062 509.268 56.9226 506.99C52.7057 505.553 48.2156 505.597 44.9757 502.353C42.5249 499.898 39.584 499.107 36.3225 498.533C30.1711 497.45 29.1016 492.95 29.1016 487.092C29.1016 473.231 44.9415 464.608 57.2449 464.164" stroke="#1E1E1E" stroke-width="8" stroke-linecap="round" stroke-linejoin="round"/>
<path d="M142.695 464.705C144.343 464.668 143.825 462.559 143.639 465.712C143.232 472.584 142.823 479.496 142.823 486.38C142.823 490.627 142.942 495.084 142.391 499.302C142.339 499.703 141.46 502.695 142.554 502.001" stroke="#1E1E1E" stroke-width="8" stroke-linecap="round" stroke-linejoin="round"/>
<path d="M535.428 27.5111C534.65 27.4997 533.883 27.3577 533.127 27.085C532.377 26.8122 531.695 26.3577 531.082 25.7213C530.468 25.085 529.977 24.2298 529.607 23.156C529.244 22.0821 529.062 20.7412 529.062 19.1333C529.062 17.6105 529.212 16.2583 529.514 15.0764C529.82 13.8946 530.261 12.8975 530.835 12.085C531.408 11.2668 532.102 10.6446 532.914 10.2185C533.727 9.79235 534.639 9.57928 535.65 9.57928C536.69 9.57928 537.613 9.78382 538.42 10.1929C539.227 10.602 539.88 11.1673 540.38 11.8889C540.886 12.6105 541.207 13.4316 541.343 14.352H538.744C538.568 13.6247 538.218 13.031 537.695 12.5708C537.173 12.1105 536.491 11.8804 535.65 11.8804C534.372 11.8804 533.374 12.4372 532.658 13.5509C531.948 14.6645 531.59 16.2128 531.585 18.1958H531.712C532.014 17.7014 532.383 17.281 532.82 16.9344C533.264 16.5821 533.758 16.3122 534.303 16.1247C534.854 15.9316 535.434 15.835 536.042 15.835C537.053 15.835 537.968 16.0821 538.786 16.5764C539.61 17.0651 540.266 17.7412 540.755 18.6048C541.244 19.4685 541.488 20.4571 541.488 21.5708C541.488 22.6844 541.235 23.6929 540.729 24.5963C540.229 25.4997 539.525 26.2156 538.616 26.7441C537.707 27.2668 536.644 27.5225 535.428 27.5111ZM535.42 25.2952C536.09 25.2952 536.69 25.1304 537.218 24.8009C537.747 24.4713 538.164 24.0281 538.471 23.4713C538.778 22.9145 538.931 22.2923 538.931 21.6048C538.931 20.9344 538.781 20.3236 538.479 19.7725C538.184 19.2213 537.775 18.7838 537.252 18.46C536.735 18.1361 536.144 17.9742 535.479 17.9742C534.974 17.9742 534.505 18.0708 534.073 18.2639C533.647 18.4571 533.272 18.7242 532.948 19.0651C532.624 19.406 532.369 19.798 532.181 20.2412C531.999 20.6787 531.908 21.1418 531.908 21.6304C531.908 22.2838 532.059 22.8889 532.36 23.4458C532.667 24.0026 533.085 24.4514 533.613 24.7923C534.147 25.1276 534.749 25.2952 535.42 25.2952ZM546.621 27.4344C546.155 27.4344 545.754 27.2696 545.419 26.9401C545.084 26.6048 544.916 26.2014 544.916 25.7298C544.916 25.2639 545.084 24.8662 545.419 24.5367C545.754 24.2014 546.155 24.0338 546.621 24.0338C547.087 24.0338 547.487 24.2014 547.823 24.5367C548.158 24.8662 548.325 25.2639 548.325 25.7298C548.325 26.0423 548.246 26.3293 548.087 26.5906C547.933 26.8463 547.729 27.0509 547.473 27.2043C547.217 27.3577 546.933 27.4344 546.621 27.4344ZM569.438 14.4031C569.347 13.5963 568.972 12.9713 568.312 12.5281C567.653 12.0793 566.824 11.8548 565.824 11.8548C565.108 11.8548 564.489 11.9685 563.966 12.1958C563.443 12.4173 563.037 12.7242 562.747 13.1162C562.463 13.5026 562.321 13.9429 562.321 14.4372C562.321 14.852 562.418 15.21 562.611 15.5111C562.81 15.8122 563.068 16.0651 563.386 16.2696C563.71 16.4685 564.057 16.6361 564.426 16.7725C564.795 16.9031 565.151 17.0111 565.491 17.0963L567.196 17.5395C567.753 17.6759 568.324 17.8605 568.909 18.0935C569.494 18.3264 570.037 18.6333 570.537 19.0139C571.037 19.3946 571.44 19.8662 571.747 20.4287C572.06 20.9912 572.216 21.6645 572.216 22.4486C572.216 23.4372 571.96 24.3151 571.449 25.0821C570.943 25.8492 570.207 26.4543 569.241 26.8975C568.281 27.3406 567.119 27.5622 565.756 27.5622C564.449 27.5622 563.318 27.3548 562.364 26.9401C561.409 26.5253 560.662 25.9372 560.122 25.1759C559.582 24.4088 559.284 23.4997 559.227 22.4486H561.869C561.92 23.0793 562.125 23.6048 562.483 24.0253C562.847 24.4401 563.31 24.7497 563.872 24.9543C564.44 25.1531 565.062 25.2526 565.739 25.2526C566.483 25.2526 567.145 25.1361 567.724 24.9031C568.31 24.6645 568.77 24.335 569.105 23.9145C569.44 23.4884 569.608 22.9912 569.608 22.423C569.608 21.906 569.46 21.4827 569.165 21.1531C568.875 20.8236 568.48 20.5509 567.98 20.335C567.486 20.1191 566.926 19.9287 566.301 19.7639L564.239 19.2014C562.841 18.8208 561.733 18.2611 560.915 17.5225C560.102 16.7838 559.696 15.8066 559.696 14.5906C559.696 13.585 559.969 12.7071 560.514 11.9571C561.06 11.2071 561.798 10.6247 562.73 10.21C563.662 9.78951 564.713 9.57928 565.884 9.57928C567.065 9.57928 568.108 9.78666 569.011 10.2014C569.92 10.6162 570.636 11.1872 571.159 11.9145C571.682 12.6361 571.955 13.4656 571.977 14.4031H569.438ZM580.344 27.5367C579.055 27.5367 577.944 27.2611 577.012 26.71C576.086 26.1531 575.37 25.3719 574.864 24.3662C574.364 23.3548 574.114 22.1702 574.114 20.8122C574.114 19.4713 574.364 18.2895 574.864 17.2668C575.37 16.2441 576.075 15.4458 576.978 14.8719C577.887 14.298 578.95 14.0111 580.165 14.0111C580.904 14.0111 581.62 14.1333 582.313 14.3776C583.006 14.6219 583.629 15.0054 584.18 15.5281C584.731 16.0509 585.165 16.7298 585.484 17.5651C585.802 18.3946 585.961 19.4031 585.961 20.5906V21.4941H575.555V19.585H583.464C583.464 18.9145 583.327 18.3208 583.055 17.8037C582.782 17.281 582.398 16.8691 581.904 16.5679C581.415 16.2668 580.842 16.1162 580.182 16.1162C579.467 16.1162 578.842 16.2923 578.307 16.6446C577.779 16.9912 577.37 17.4458 577.08 18.0083C576.796 18.5651 576.654 19.1702 576.654 19.8236V21.3151C576.654 22.1901 576.807 22.9344 577.114 23.548C577.427 24.1617 577.861 24.6304 578.418 24.9543C578.975 25.2725 579.626 25.4316 580.37 25.4316C580.853 25.4316 581.293 25.3634 581.691 25.227C582.089 25.085 582.432 24.8747 582.722 24.5963C583.012 24.3179 583.234 23.9742 583.387 23.5651L585.799 23.9997C585.606 24.71 585.259 25.3321 584.759 25.8662C584.265 26.3946 583.643 26.8066 582.893 27.102C582.148 27.3918 581.299 27.5367 580.344 27.5367ZM594.443 14.1816V16.227H587.293V14.1816H594.443ZM589.21 11.0452H591.758V23.4287C591.758 23.923 591.832 24.2952 591.98 24.5452C592.128 24.7895 592.318 24.9571 592.551 25.048C592.79 25.1333 593.048 25.1759 593.327 25.1759C593.531 25.1759 593.71 25.1617 593.864 25.1333C594.017 25.1048 594.136 25.0821 594.222 25.0651L594.682 27.1702C594.534 27.227 594.324 27.2838 594.051 27.3406C593.778 27.4031 593.437 27.4372 593.028 27.4429C592.358 27.4543 591.733 27.335 591.153 27.085C590.574 26.835 590.105 26.4486 589.747 25.9259C589.389 25.4031 589.21 24.7469 589.21 23.9571V11.0452ZM602.917 14.1816V16.227H595.766V14.1816H602.917ZM597.684 11.0452H600.232V23.4287C600.232 23.923 600.306 24.2952 600.454 24.5452C600.601 24.7895 600.792 24.9571 601.025 25.048C601.263 25.1333 601.522 25.1759 601.8 25.1759C602.005 25.1759 602.184 25.1617 602.337 25.1333C602.491 25.1048 602.61 25.0821 602.695 25.0651L603.155 27.1702C603.008 27.227 602.797 27.2838 602.525 27.3406C602.252 27.4031 601.911 27.4372 601.502 27.4429C600.832 27.4543 600.207 27.335 599.627 27.085C599.047 26.835 598.579 26.4486 598.221 25.9259C597.863 25.4031 597.684 24.7469 597.684 23.9571V11.0452ZM605.28 27.2725V14.1816H607.828V27.2725H605.28ZM606.567 12.1617C606.123 12.1617 605.743 12.0139 605.425 11.7185C605.112 11.4173 604.956 11.0594 604.956 10.6446C604.956 10.2242 605.112 9.86621 605.425 9.57076C605.743 9.26962 606.123 9.11905 606.567 9.11905C607.01 9.11905 607.388 9.26962 607.7 9.57076C608.018 9.86621 608.177 10.2242 608.177 10.6446C608.177 11.0594 608.018 11.4173 607.7 11.7185C607.388 12.0139 607.01 12.1617 606.567 12.1617ZM613.349 19.4997V27.2725H610.8V14.1816H613.246V16.3122H613.408C613.709 15.6191 614.181 15.0622 614.823 14.6418C615.471 14.2213 616.286 14.0111 617.269 14.0111C618.161 14.0111 618.942 14.1986 619.613 14.5736C620.283 14.9429 620.803 15.4941 621.172 16.227C621.542 16.96 621.726 17.8662 621.726 18.9458V27.2725H619.178V19.2526C619.178 18.3037 618.931 17.5622 618.437 17.0281C617.942 16.4884 617.263 16.2185 616.4 16.2185C615.809 16.2185 615.283 16.3463 614.823 16.602C614.368 16.8577 614.008 17.2327 613.741 17.727C613.479 18.2156 613.349 18.8066 613.349 19.4997ZM630.177 32.4543C629.137 32.4543 628.242 32.3179 627.492 32.0452C626.748 31.7725 626.14 31.4117 625.668 30.9628C625.197 30.5139 624.844 30.0225 624.611 29.4884L626.802 28.585C626.955 28.835 627.16 29.0992 627.415 29.3776C627.677 29.6617 628.029 29.9031 628.472 30.102C628.921 30.3009 629.498 30.4003 630.202 30.4003C631.168 30.4003 631.966 30.1645 632.597 29.6929C633.228 29.227 633.543 28.4827 633.543 27.46V24.8861H633.381C633.228 25.1645 633.006 25.4742 632.716 25.8151C632.432 26.156 632.04 26.4514 631.54 26.7014C631.04 26.9514 630.39 27.0764 629.589 27.0764C628.554 27.0764 627.623 26.835 626.793 26.352C625.969 25.8634 625.316 25.1446 624.833 24.1958C624.356 23.2412 624.117 22.0679 624.117 20.6759C624.117 19.2838 624.353 18.0906 624.824 17.0963C625.302 16.102 625.955 15.3406 626.785 14.8122C627.614 14.2781 628.554 14.0111 629.606 14.0111C630.418 14.0111 631.074 14.1475 631.574 14.4202C632.074 14.6872 632.464 14.9997 632.742 15.3577C633.026 15.7156 633.245 16.031 633.398 16.3037H633.586V14.1816H636.083V27.5622C636.083 28.6872 635.822 29.6105 635.299 30.3321C634.776 31.0537 634.069 31.5878 633.177 31.9344C632.29 32.281 631.29 32.4543 630.177 32.4543ZM630.151 24.9628C630.884 24.9628 631.503 24.7923 632.009 24.4514C632.52 24.1048 632.907 23.6105 633.168 22.9685C633.435 22.3208 633.569 21.5452 633.569 20.6418C633.569 19.7611 633.438 18.9855 633.177 18.3151C632.915 17.6446 632.532 17.1219 632.026 16.7469C631.52 16.3662 630.895 16.1759 630.151 16.1759C629.384 16.1759 628.745 16.3747 628.233 16.7725C627.722 17.1645 627.336 17.6986 627.074 18.3747C626.819 19.0509 626.691 19.8066 626.691 20.6418C626.691 21.4997 626.822 22.2526 627.083 22.9003C627.344 23.548 627.731 24.0537 628.242 24.4173C628.759 24.781 629.395 24.9628 630.151 24.9628ZM653.233 21.8435V14.1816H655.789V27.2725H653.284V25.0054H653.147C652.846 25.7043 652.363 26.2867 651.699 26.7526C651.039 27.2128 650.218 27.4429 649.236 27.4429C648.395 27.4429 647.65 27.2583 647.003 26.8889C646.361 26.5139 645.855 25.96 645.486 25.227C645.122 24.4941 644.94 23.5878 644.94 22.5083V14.1816H647.488V22.2014C647.488 23.0935 647.736 23.8037 648.23 24.3321C648.724 24.8605 649.366 25.1247 650.156 25.1247C650.633 25.1247 651.108 25.0054 651.579 24.7668C652.057 24.5281 652.451 24.1673 652.764 23.6844C653.082 23.2014 653.238 22.5878 653.233 21.8435ZM658.758 32.1816V14.1816H661.246V16.3037H661.459C661.607 16.031 661.82 15.7156 662.098 15.3577C662.377 14.9997 662.763 14.6872 663.258 14.4202C663.752 14.1475 664.405 14.0111 665.218 14.0111C666.275 14.0111 667.218 14.2781 668.047 14.8122C668.877 15.3463 669.527 16.1162 669.999 17.1219C670.476 18.1276 670.715 19.3378 670.715 20.7526C670.715 22.1673 670.479 23.3804 670.008 24.3918C669.536 25.3975 668.888 26.173 668.064 26.7185C667.24 27.2583 666.3 27.5281 665.243 27.5281C664.448 27.5281 663.797 27.3946 663.292 27.1276C662.792 26.8605 662.4 26.548 662.115 26.1901C661.831 25.8321 661.613 25.5139 661.459 25.2355H661.306V32.1816H658.758ZM661.255 20.727C661.255 21.6475 661.388 22.4543 661.655 23.1475C661.922 23.8406 662.309 24.3833 662.814 24.7753C663.32 25.1617 663.939 25.3548 664.672 25.3548C665.434 25.3548 666.07 25.1531 666.581 24.7497C667.093 24.3406 667.479 23.7867 667.74 23.0878C668.008 22.3889 668.141 21.602 668.141 20.727C668.141 19.8634 668.01 19.0878 667.749 18.4003C667.493 17.7128 667.107 17.1702 666.59 16.7725C666.079 16.3747 665.439 16.1759 664.672 16.1759C663.934 16.1759 663.309 16.3662 662.797 16.7469C662.292 17.1276 661.908 17.6588 661.647 18.3406C661.385 19.0225 661.255 19.8179 661.255 20.727ZM682.819 27.5622C681.99 27.5622 681.24 27.4088 680.569 27.102C679.899 26.7895 679.368 26.3378 678.975 25.7469C678.589 25.156 678.396 24.4316 678.396 23.5736C678.396 22.835 678.538 22.227 678.822 21.7497C679.106 21.2725 679.49 20.8946 679.973 20.6162C680.456 20.3378 680.995 20.1276 681.592 19.9855C682.189 19.8435 682.796 19.7355 683.416 19.6617C684.2 19.5708 684.836 19.4969 685.325 19.4401C685.814 19.3776 686.169 19.2781 686.39 19.1418C686.612 19.0054 686.723 18.7838 686.723 18.477V18.4173C686.723 17.673 686.512 17.0963 686.092 16.6872C685.677 16.2781 685.058 16.0736 684.234 16.0736C683.376 16.0736 682.7 16.2639 682.206 16.6446C681.717 17.0196 681.379 17.4372 681.191 17.8975L678.796 17.352C679.081 16.5566 679.495 15.9145 680.041 15.4259C680.592 14.9316 681.225 14.5736 681.941 14.352C682.657 14.1247 683.41 14.0111 684.2 14.0111C684.723 14.0111 685.277 14.0736 685.862 14.1986C686.453 14.3179 687.004 14.5395 687.515 14.8634C688.032 15.1872 688.456 15.6503 688.785 16.2526C689.115 16.8492 689.279 17.6247 689.279 18.5793V27.2725H686.791V25.4827H686.689C686.524 25.8122 686.277 26.1361 685.947 26.4543C685.618 26.7725 685.194 27.0367 684.677 27.2469C684.16 27.4571 683.541 27.5622 682.819 27.5622ZM683.373 25.5168C684.078 25.5168 684.68 25.3776 685.18 25.0992C685.686 24.8208 686.069 24.4571 686.331 24.0083C686.598 23.5537 686.731 23.0679 686.731 22.5509V20.8634C686.64 20.9543 686.464 21.0395 686.203 21.1191C685.947 21.1929 685.654 21.2583 685.325 21.3151C684.995 21.3662 684.674 21.4145 684.362 21.46C684.049 21.4997 683.788 21.5338 683.578 21.5622C683.083 21.6247 682.632 21.7298 682.223 21.8776C681.819 22.0253 681.495 22.2384 681.251 22.5168C681.012 22.7895 680.893 23.1531 680.893 23.6077C680.893 24.2384 681.126 24.7156 681.592 25.0395C682.058 25.3577 682.652 25.5168 683.373 25.5168ZM700.51 21.8435V14.1816H703.067V27.2725H700.561V25.0054H700.425C700.124 25.7043 699.641 26.2867 698.976 26.7526C698.317 27.2128 697.496 27.4429 696.513 27.4429C695.672 27.4429 694.928 27.2583 694.28 26.8889C693.638 26.5139 693.132 25.96 692.763 25.227C692.399 24.4941 692.218 23.5878 692.218 22.5083V14.1816H694.766V22.2014C694.766 23.0935 695.013 23.8037 695.507 24.3321C696.002 24.8605 696.644 25.1247 697.434 25.1247C697.911 25.1247 698.385 25.0054 698.857 24.7668C699.334 24.5281 699.729 24.1673 700.041 23.6844C700.36 23.2014 700.516 22.5878 700.51 21.8435ZM712.146 14.1816V16.227H704.995V14.1816H712.146ZM706.913 11.0452H709.461V23.4287C709.461 23.923 709.535 24.2952 709.683 24.5452C709.831 24.7895 710.021 24.9571 710.254 25.048C710.492 25.1333 710.751 25.1759 711.029 25.1759C711.234 25.1759 711.413 25.1617 711.566 25.1333C711.72 25.1048 711.839 25.0821 711.924 25.0651L712.385 27.1702C712.237 27.227 712.027 27.2838 711.754 27.3406C711.481 27.4031 711.14 27.4372 710.731 27.4429C710.061 27.4543 709.436 27.335 708.856 27.085C708.277 26.835 707.808 26.4486 707.45 25.9259C707.092 25.4031 706.913 24.7469 706.913 23.9571V11.0452ZM719.882 27.5367C718.655 27.5367 717.584 27.2554 716.669 26.6929C715.754 26.1304 715.044 25.3435 714.539 24.3321C714.033 23.3208 713.78 22.1389 713.78 20.7867C713.78 19.4287 714.033 18.2412 714.539 17.2242C715.044 16.2071 715.754 15.4173 716.669 14.8548C717.584 14.2923 718.655 14.0111 719.882 14.0111C721.11 14.0111 722.181 14.2923 723.095 14.8548C724.01 15.4173 724.72 16.2071 725.226 17.2242C725.732 18.2412 725.985 19.4287 725.985 20.7867C725.985 22.1389 725.732 23.3208 725.226 24.3321C724.72 25.3435 724.01 26.1304 723.095 26.6929C722.181 27.2554 721.11 27.5367 719.882 27.5367ZM719.891 25.3975C720.686 25.3975 721.345 25.1872 721.868 24.7668C722.391 24.3463 722.777 23.7867 723.027 23.0878C723.283 22.3889 723.411 21.6191 723.411 20.7781C723.411 19.9429 723.283 19.1759 723.027 18.477C722.777 17.7725 722.391 17.2071 721.868 16.781C721.345 16.3548 720.686 16.1418 719.891 16.1418C719.09 16.1418 718.425 16.3548 717.897 16.781C717.374 17.2071 716.985 17.7725 716.729 18.477C716.479 19.1759 716.354 19.9429 716.354 20.7781C716.354 21.6191 716.479 22.3889 716.729 23.0878C716.985 23.7867 717.374 24.3463 717.897 24.7668C718.425 25.1872 719.09 25.3975 719.891 25.3975ZM728.373 27.2725V14.1816H730.819V16.3122H730.981C731.254 15.5906 731.7 15.0281 732.319 14.6247C732.938 14.2156 733.68 14.0111 734.544 14.0111C735.419 14.0111 736.151 14.2156 736.742 14.6247C737.339 15.0338 737.779 15.5963 738.063 16.3122H738.2C738.512 15.6134 739.009 15.0566 739.691 14.6418C740.373 14.2213 741.186 14.0111 742.129 14.0111C743.316 14.0111 744.285 14.3833 745.035 15.1276C745.791 15.8719 746.169 16.9941 746.169 18.4941V27.2725H743.62V18.7327C743.62 17.8463 743.379 17.2043 742.896 16.8066C742.413 16.4088 741.836 16.21 741.166 16.21C740.336 16.21 739.691 16.4656 739.231 16.977C738.771 17.4827 738.541 18.1333 738.541 18.9287V27.2725H736.001V18.5708C736.001 17.8605 735.779 17.2895 735.336 16.8577C734.893 16.4259 734.316 16.21 733.606 16.21C733.123 16.21 732.677 16.3378 732.268 16.5935C731.865 16.8435 731.538 17.1929 731.288 17.6418C731.044 18.0906 730.921 18.6105 730.921 19.2014V27.2725H728.373ZM752.938 27.5622C752.108 27.5622 751.358 27.4088 750.688 27.102C750.017 26.7895 749.486 26.3378 749.094 25.7469C748.708 25.156 748.514 24.4316 748.514 23.5736C748.514 22.835 748.656 22.227 748.941 21.7497C749.225 21.2725 749.608 20.8946 750.091 20.6162C750.574 20.3378 751.114 20.1276 751.71 19.9855C752.307 19.8435 752.915 19.7355 753.534 19.6617C754.318 19.5708 754.955 19.4969 755.443 19.4401C755.932 19.3776 756.287 19.2781 756.509 19.1418C756.73 19.0054 756.841 18.7838 756.841 18.477V18.4173C756.841 17.673 756.631 17.0963 756.21 16.6872C755.796 16.2781 755.176 16.0736 754.352 16.0736C753.494 16.0736 752.818 16.2639 752.324 16.6446C751.835 17.0196 751.497 17.4372 751.31 17.8975L748.915 17.352C749.199 16.5566 749.614 15.9145 750.159 15.4259C750.71 14.9316 751.344 14.5736 752.06 14.352C752.776 14.1247 753.529 14.0111 754.318 14.0111C754.841 14.0111 755.395 14.0736 755.98 14.1986C756.571 14.3179 757.122 14.5395 757.634 14.8634C758.151 15.1872 758.574 15.6503 758.904 16.2526C759.233 16.8492 759.398 17.6247 759.398 18.5793V27.2725H756.909V25.4827H756.807C756.642 25.8122 756.395 26.1361 756.066 26.4543C755.736 26.7725 755.313 27.0367 754.796 27.2469C754.279 27.4571 753.659 27.5622 752.938 27.5622ZM753.492 25.5168C754.196 25.5168 754.798 25.3776 755.298 25.0992C755.804 24.8208 756.188 24.4571 756.449 24.0083C756.716 23.5537 756.85 23.0679 756.85 22.5509V20.8634C756.759 20.9543 756.583 21.0395 756.321 21.1191C756.066 21.1929 755.773 21.2583 755.443 21.3151C755.114 21.3662 754.793 21.4145 754.48 21.46C754.168 21.4997 753.906 21.5338 753.696 21.5622C753.202 21.6247 752.75 21.7298 752.341 21.8776C751.938 22.0253 751.614 22.2384 751.369 22.5168C751.131 22.7895 751.012 23.1531 751.012 23.6077C751.012 24.2384 751.244 24.7156 751.71 25.0395C752.176 25.3577 752.77 25.5168 753.492 25.5168ZM768.447 14.1816V16.227H761.296V14.1816H768.447ZM763.214 11.0452H765.762V23.4287C765.762 23.923 765.836 24.2952 765.984 24.5452C766.132 24.7895 766.322 24.9571 766.555 25.048C766.793 25.1333 767.052 25.1759 767.33 25.1759C767.535 25.1759 767.714 25.1617 767.867 25.1333C768.021 25.1048 768.14 25.0821 768.225 25.0651L768.686 27.1702C768.538 27.227 768.328 27.2838 768.055 27.3406C767.782 27.4031 767.441 27.4372 767.032 27.4429C766.362 27.4543 765.737 27.335 765.157 27.085C764.578 26.835 764.109 26.4486 763.751 25.9259C763.393 25.4031 763.214 24.7469 763.214 23.9571V11.0452ZM770.81 27.2725V14.1816H773.358V27.2725H770.81ZM772.097 12.1617C771.654 12.1617 771.273 12.0139 770.955 11.7185C770.642 11.4173 770.486 11.0594 770.486 10.6446C770.486 10.2242 770.642 9.86621 770.955 9.57076C771.273 9.26962 771.654 9.11905 772.097 9.11905C772.54 9.11905 772.918 9.26962 773.23 9.57076C773.548 9.86621 773.707 10.2242 773.707 10.6446C773.707 11.0594 773.548 11.4173 773.23 11.7185C772.918 12.0139 772.54 12.1617 772.097 12.1617ZM781.845 27.5367C780.577 27.5367 779.487 27.2497 778.572 26.6759C777.663 26.0963 776.964 25.298 776.475 24.281C775.987 23.2639 775.742 22.0992 775.742 20.7867C775.742 19.4571 775.992 18.2838 776.492 17.2668C776.992 16.2441 777.697 15.4458 778.606 14.8719C779.515 14.298 780.586 14.0111 781.819 14.0111C782.813 14.0111 783.7 14.1958 784.478 14.5651C785.256 14.9287 785.884 15.4401 786.362 16.0992C786.845 16.7583 787.131 17.5281 787.222 18.4088H784.742C784.606 17.7952 784.293 17.2668 783.805 16.8236C783.322 16.3804 782.674 16.1588 781.862 16.1588C781.151 16.1588 780.529 16.3463 779.995 16.7213C779.467 17.0906 779.055 17.6191 778.759 18.3066C778.464 18.9884 778.316 19.7952 778.316 20.727C778.316 21.6816 778.461 22.5054 778.751 23.1986C779.041 23.8918 779.45 24.4287 779.978 24.8094C780.512 25.1901 781.14 25.3804 781.862 25.3804C782.345 25.3804 782.782 25.2923 783.174 25.1162C783.572 24.9344 783.904 24.6759 784.171 24.3406C784.444 24.0054 784.634 23.602 784.742 23.1304H787.222C787.131 23.977 786.856 24.7327 786.396 25.3975C785.935 26.0622 785.319 26.585 784.546 26.9656C783.779 27.3463 782.879 27.5367 781.845 27.5367ZM562.551 63.2725L558.699 50.1816H561.332L563.898 59.7952H564.026L566.599 50.1816H569.233L571.79 59.7526H571.918L574.466 50.1816H577.099L573.256 63.2725H570.656L567.997 53.8208H567.801L565.142 63.2725H562.551ZM582.871 63.5622C582.042 63.5622 581.292 63.4088 580.621 63.102C579.951 62.7895 579.42 62.3378 579.028 61.7469C578.641 61.156 578.448 60.4316 578.448 59.5736C578.448 58.835 578.59 58.227 578.874 57.7497C579.158 57.2725 579.542 56.8946 580.025 56.6162C580.508 56.3378 581.048 56.1276 581.644 55.9855C582.241 55.8435 582.849 55.7355 583.468 55.6617C584.252 55.5708 584.888 55.4969 585.377 55.4401C585.866 55.3776 586.221 55.2781 586.442 55.1418C586.664 55.0054 586.775 54.7838 586.775 54.477V54.4173C586.775 53.673 586.565 53.0963 586.144 52.6872C585.729 52.2781 585.11 52.0736 584.286 52.0736C583.428 52.0736 582.752 52.2639 582.258 52.6446C581.769 53.0196 581.431 53.4372 581.244 53.8975L578.849 53.352C579.133 52.5566 579.548 51.9145 580.093 51.4259C580.644 50.9316 581.278 50.5736 581.994 50.352C582.709 50.1247 583.462 50.0111 584.252 50.0111C584.775 50.0111 585.329 50.0736 585.914 50.1986C586.505 50.3179 587.056 50.5395 587.567 50.8634C588.084 51.1872 588.508 51.6503 588.837 52.2526C589.167 52.8492 589.332 53.6247 589.332 54.5793V63.2725H586.843V61.4827H586.741C586.576 61.8122 586.329 62.1361 585.999 62.4543C585.67 62.7725 585.246 63.0367 584.729 63.2469C584.212 63.4571 583.593 63.5622 582.871 63.5622ZM583.425 61.5168C584.13 61.5168 584.732 61.3776 585.232 61.0992C585.738 60.8208 586.121 60.4571 586.383 60.0083C586.65 59.5537 586.783 59.0679 586.783 58.5509V56.8634C586.692 56.9543 586.516 57.0395 586.255 57.1191C585.999 57.1929 585.707 57.2583 585.377 57.3151C585.048 57.3662 584.727 57.4145 584.414 57.46C584.102 57.4997 583.84 57.5338 583.63 57.5622C583.136 57.6247 582.684 57.7298 582.275 57.8776C581.871 58.0253 581.548 58.2384 581.303 58.5168C581.065 58.7895 580.945 59.1531 580.945 59.6077C580.945 60.2384 581.178 60.7156 581.644 61.0395C582.11 61.3577 582.704 61.5168 583.425 61.5168ZM598.381 50.1816V52.227H591.23V50.1816H598.381ZM593.148 47.0452H595.696V59.4287C595.696 59.923 595.77 60.2952 595.918 60.5452C596.065 60.7895 596.256 60.9571 596.489 61.048C596.727 61.1333 596.986 61.1759 597.264 61.1759C597.469 61.1759 597.648 61.1617 597.801 61.1333C597.954 61.1048 598.074 61.0821 598.159 61.0651L598.619 63.1702C598.472 63.227 598.261 63.2838 597.989 63.3406C597.716 63.4031 597.375 63.4372 596.966 63.4429C596.295 63.4543 595.67 63.335 595.091 63.085C594.511 62.835 594.043 62.4486 593.685 61.9259C593.327 61.4031 593.148 60.7469 593.148 59.9571V47.0452ZM606.245 63.5367C604.955 63.5367 603.844 63.2611 602.913 62.71C601.986 62.1531 601.27 61.3719 600.765 60.3662C600.265 59.3548 600.015 58.1702 600.015 56.8122C600.015 55.4713 600.265 54.2895 600.765 53.2668C601.27 52.2441 601.975 51.4458 602.878 50.8719C603.788 50.298 604.85 50.0111 606.066 50.0111C606.805 50.0111 607.52 50.1333 608.214 50.3776C608.907 50.6219 609.529 51.0054 610.08 51.5281C610.631 52.0509 611.066 52.7298 611.384 53.5651C611.702 54.3946 611.861 55.4031 611.861 56.5906V57.4941H601.455V55.585H609.364C609.364 54.9145 609.228 54.3208 608.955 53.8037C608.682 53.281 608.299 52.8691 607.805 52.5679C607.316 52.2668 606.742 52.1162 606.083 52.1162C605.367 52.1162 604.742 52.2923 604.208 52.6446C603.68 52.9912 603.27 53.4458 602.981 54.0083C602.697 54.5651 602.555 55.1702 602.555 55.8236V57.3151C602.555 58.1901 602.708 58.9344 603.015 59.548C603.327 60.1617 603.762 60.6304 604.319 60.9543C604.876 61.2725 605.526 61.4316 606.27 61.4316C606.753 61.4316 607.194 61.3634 607.592 61.227C607.989 61.085 608.333 60.8747 608.623 60.5963C608.913 60.3179 609.134 59.9742 609.288 59.5651L611.699 59.9997C611.506 60.71 611.16 61.3321 610.66 61.8662C610.165 62.3946 609.543 62.8066 608.793 63.102C608.049 63.3918 607.199 63.5367 606.245 63.5367ZM614.233 63.2725V50.1816H616.696V52.2611H616.832C617.071 51.5566 617.491 51.0026 618.094 50.5992C618.702 50.1901 619.389 49.9855 620.156 49.9855C620.315 49.9855 620.503 49.9912 620.719 50.0026C620.94 50.0139 621.114 50.0281 621.239 50.0452V52.4827C621.136 52.4543 620.954 52.423 620.693 52.3889C620.432 52.3492 620.17 52.3293 619.909 52.3293C619.307 52.3293 618.77 52.4571 618.298 52.7128C617.832 52.9628 617.463 53.3122 617.19 53.7611C616.917 54.2043 616.781 54.71 616.781 55.2781V63.2725H614.233ZM628.883 63.2725V50.1816H631.329V52.3122H631.491C631.764 51.5906 632.21 51.0281 632.829 50.6247C633.449 50.2156 634.19 50.0111 635.054 50.0111C635.929 50.0111 636.662 50.2156 637.253 50.6247C637.849 51.0338 638.29 51.5963 638.574 52.3122H638.71C639.023 51.6134 639.52 51.0566 640.201 50.6418C640.883 50.2213 641.696 50.0111 642.639 50.0111C643.826 50.0111 644.795 50.3833 645.545 51.1276C646.301 51.8719 646.679 52.9941 646.679 54.4941V63.2725H644.13V54.7327C644.13 53.8463 643.889 53.2043 643.406 52.8066C642.923 52.4088 642.346 52.21 641.676 52.21C640.846 52.21 640.201 52.4656 639.741 52.977C639.281 53.4827 639.051 54.1333 639.051 54.9287V63.2725H636.511V54.5708C636.511 53.8605 636.29 53.2895 635.846 52.8577C635.403 52.4259 634.827 52.21 634.116 52.21C633.633 52.21 633.187 52.3378 632.778 52.5935C632.375 52.8435 632.048 53.1929 631.798 53.6418C631.554 54.0906 631.432 54.6105 631.432 55.2014V63.2725H628.883ZM655.28 63.5367C653.991 63.5367 652.88 63.2611 651.948 62.71C651.022 62.1531 650.306 61.3719 649.8 60.3662C649.3 59.3548 649.05 58.1702 649.05 56.8122C649.05 55.4713 649.3 54.2895 649.8 53.2668C650.306 52.2441 651.01 51.4458 651.914 50.8719C652.823 50.298 653.885 50.0111 655.101 50.0111C655.84 50.0111 656.556 50.1333 657.249 50.3776C657.942 50.6219 658.564 51.0054 659.116 51.5281C659.667 52.0509 660.101 52.7298 660.42 53.5651C660.738 54.3946 660.897 55.4031 660.897 56.5906V57.4941H650.491V55.585H658.4C658.4 54.9145 658.263 54.3208 657.991 53.8037C657.718 53.281 657.334 52.8691 656.84 52.5679C656.351 52.2668 655.777 52.1162 655.118 52.1162C654.402 52.1162 653.777 52.2923 653.243 52.6446C652.715 52.9912 652.306 53.4458 652.016 54.0083C651.732 54.5651 651.59 55.1702 651.59 55.8236V57.3151C651.59 58.1901 651.743 58.9344 652.05 59.548C652.363 60.1617 652.797 60.6304 653.354 60.9543C653.911 61.2725 654.562 61.4316 655.306 61.4316C655.789 61.4316 656.229 61.3634 656.627 61.227C657.025 61.085 657.368 60.8747 657.658 60.5963C657.948 60.3179 658.17 59.9742 658.323 59.5651L660.735 59.9997C660.542 60.71 660.195 61.3321 659.695 61.8662C659.201 62.3946 658.579 62.8066 657.829 63.102C657.084 63.3918 656.235 63.5367 655.28 63.5367ZM669.379 50.1816V52.227H662.228V50.1816H669.379ZM664.146 47.0452H666.694V59.4287C666.694 59.923 666.768 60.2952 666.916 60.5452C667.064 60.7895 667.254 60.9571 667.487 61.048C667.726 61.1333 667.984 61.1759 668.263 61.1759C668.467 61.1759 668.646 61.1617 668.799 61.1333C668.953 61.1048 669.072 61.0821 669.157 61.0651L669.618 63.1702C669.47 63.227 669.26 63.2838 668.987 63.3406C668.714 63.4031 668.373 63.4372 667.964 63.4429C667.294 63.4543 666.669 63.335 666.089 63.085C665.51 62.835 665.041 62.4486 664.683 61.9259C664.325 61.4031 664.146 60.7469 664.146 59.9571V47.0452ZM677.243 63.5367C675.954 63.5367 674.843 63.2611 673.911 62.71C672.985 62.1531 672.269 61.3719 671.763 60.3662C671.263 59.3548 671.013 58.1702 671.013 56.8122C671.013 55.4713 671.263 54.2895 671.763 53.2668C672.269 52.2441 672.973 51.4458 673.877 50.8719C674.786 50.298 675.848 50.0111 677.064 50.0111C677.803 50.0111 678.519 50.1333 679.212 50.3776C679.905 50.6219 680.527 51.0054 681.079 51.5281C681.63 52.0509 682.064 52.7298 682.383 53.5651C682.701 54.3946 682.86 55.4031 682.86 56.5906V57.4941H672.454V55.585H680.363C680.363 54.9145 680.226 54.3208 679.954 53.8037C679.681 53.281 679.297 52.8691 678.803 52.5679C678.314 52.2668 677.74 52.1162 677.081 52.1162C676.365 52.1162 675.74 52.2923 675.206 52.6446C674.678 52.9912 674.269 53.4458 673.979 54.0083C673.695 54.5651 673.553 55.1702 673.553 55.8236V57.3151C673.553 58.1901 673.706 58.9344 674.013 59.548C674.326 60.1617 674.76 60.6304 675.317 60.9543C675.874 61.2725 676.525 61.4316 677.269 61.4316C677.752 61.4316 678.192 61.3634 678.59 61.227C678.988 61.085 679.331 60.8747 679.621 60.5963C679.911 60.3179 680.133 59.9742 680.286 59.5651L682.698 59.9997C682.505 60.71 682.158 61.3321 681.658 61.8662C681.164 62.3946 680.542 62.8066 679.792 63.102C679.047 63.3918 678.198 63.5367 677.243 63.5367ZM685.231 63.2725V50.1816H687.694V52.2611H687.831C688.069 51.5566 688.49 51.0026 689.092 50.5992C689.7 50.1901 690.387 49.9855 691.154 49.9855C691.314 49.9855 691.501 49.9912 691.717 50.0026C691.939 50.0139 692.112 50.0281 692.237 50.0452V52.4827C692.135 52.4543 691.953 52.423 691.691 52.3889C691.43 52.3492 691.169 52.3293 690.907 52.3293C690.305 52.3293 689.768 52.4571 689.297 52.7128C688.831 52.9628 688.461 53.3122 688.189 53.7611C687.916 54.2043 687.779 54.71 687.779 55.2781V63.2725H685.231ZM699.882 63.2725V50.1816H702.345V52.2611H702.481C702.72 51.5566 703.14 51.0026 703.742 50.5992C704.35 50.1901 705.038 49.9855 705.805 49.9855C705.964 49.9855 706.152 49.9912 706.367 50.0026C706.589 50.0139 706.762 50.0281 706.887 50.0452V52.4827C706.785 52.4543 706.603 52.423 706.342 52.3889C706.081 52.3492 705.819 52.3293 705.558 52.3293C704.956 52.3293 704.419 52.4571 703.947 52.7128C703.481 52.9628 703.112 53.3122 702.839 53.7611C702.566 54.2043 702.43 54.71 702.43 55.2781V63.2725H699.882ZM713.81 63.5367C712.52 63.5367 711.409 63.2611 710.478 62.71C709.551 62.1531 708.836 61.3719 708.33 60.3662C707.83 59.3548 707.58 58.1702 707.58 56.8122C707.58 55.4713 707.83 54.2895 708.33 53.2668C708.836 52.2441 709.54 51.4458 710.443 50.8719C711.353 50.298 712.415 50.0111 713.631 50.0111C714.37 50.0111 715.086 50.1333 715.779 50.3776C716.472 50.6219 717.094 51.0054 717.645 51.5281C718.196 52.0509 718.631 52.7298 718.949 53.5651C719.267 54.3946 719.426 55.4031 719.426 56.5906V57.4941H709.02V55.585H716.929C716.929 54.9145 716.793 54.3208 716.52 53.8037C716.247 53.281 715.864 52.8691 715.37 52.5679C714.881 52.2668 714.307 52.1162 713.648 52.1162C712.932 52.1162 712.307 52.2923 711.773 52.6446C711.245 52.9912 710.836 53.4458 710.546 54.0083C710.262 54.5651 710.12 55.1702 710.12 55.8236V57.3151C710.12 58.1901 710.273 58.9344 710.58 59.548C710.892 60.1617 711.327 60.6304 711.884 60.9543C712.441 61.2725 713.091 61.4316 713.836 61.4316C714.318 61.4316 714.759 61.3634 715.157 61.227C715.554 61.085 715.898 60.8747 716.188 60.5963C716.478 60.3179 716.699 59.9742 716.853 59.5651L719.264 59.9997C719.071 60.71 718.725 61.3321 718.225 61.8662C717.73 62.3946 717.108 62.8066 716.358 63.102C715.614 63.3918 714.764 63.5367 713.81 63.5367ZM725.607 63.5622C724.778 63.5622 724.028 63.4088 723.357 63.102C722.687 62.7895 722.156 62.3378 721.764 61.7469C721.377 61.156 721.184 60.4316 721.184 59.5736C721.184 58.835 721.326 58.227 721.61 57.7497C721.894 57.2725 722.278 56.8946 722.761 56.6162C723.244 56.3378 723.784 56.1276 724.38 55.9855C724.977 55.8435 725.585 55.7355 726.204 55.6617C726.988 55.5708 727.625 55.4969 728.113 55.4401C728.602 55.3776 728.957 55.2781 729.178 55.1418C729.4 55.0054 729.511 54.7838 729.511 54.477V54.4173C729.511 53.673 729.301 53.0963 728.88 52.6872C728.465 52.2781 727.846 52.0736 727.022 52.0736C726.164 52.0736 725.488 52.2639 724.994 52.6446C724.505 53.0196 724.167 53.4372 723.98 53.8975L721.585 53.352C721.869 52.5566 722.284 51.9145 722.829 51.4259C723.38 50.9316 724.014 50.5736 724.73 50.352C725.446 50.1247 726.198 50.0111 726.988 50.0111C727.511 50.0111 728.065 50.0736 728.65 50.1986C729.241 50.3179 729.792 50.5395 730.303 50.8634C730.821 51.1872 731.244 51.6503 731.573 52.2526C731.903 52.8492 732.068 53.6247 732.068 54.5793V63.2725H729.579V61.4827H729.477C729.312 61.8122 729.065 62.1361 728.735 62.4543C728.406 62.7725 727.982 63.0367 727.465 63.2469C726.948 63.4571 726.329 63.5622 725.607 63.5622ZM726.161 61.5168C726.866 61.5168 727.468 61.3776 727.968 61.0992C728.474 60.8208 728.857 60.4571 729.119 60.0083C729.386 59.5537 729.519 59.0679 729.519 58.5509V56.8634C729.428 56.9543 729.252 57.0395 728.991 57.1191C728.735 57.1929 728.443 57.2583 728.113 57.3151C727.784 57.3662 727.463 57.4145 727.15 57.46C726.838 57.4997 726.576 57.5338 726.366 57.5622C725.872 57.6247 725.42 57.7298 725.011 57.8776C724.607 58.0253 724.284 58.2384 724.039 58.5168C723.801 58.7895 723.681 59.1531 723.681 59.6077C723.681 60.2384 723.914 60.7156 724.38 61.0395C724.846 61.3577 725.44 61.5168 726.161 61.5168ZM739.906 63.5281C738.85 63.5281 737.906 63.2583 737.077 62.7185C736.253 62.173 735.605 61.3975 735.134 60.3918C734.668 59.3804 734.435 58.1673 734.435 56.7526C734.435 55.3378 734.671 54.1276 735.142 53.1219C735.62 52.1162 736.273 51.3463 737.102 50.8122C737.932 50.2781 738.872 50.0111 739.923 50.0111C740.736 50.0111 741.389 50.1475 741.884 50.4202C742.384 50.6872 742.77 50.9997 743.043 51.3577C743.321 51.7156 743.537 52.031 743.691 52.3037H743.844V45.8179H746.392V63.2725H743.904V61.2355H743.691C743.537 61.5139 743.316 61.8321 743.026 62.1901C742.742 62.548 742.35 62.8605 741.85 63.1276C741.35 63.3946 740.702 63.5281 739.906 63.5281ZM740.469 61.3548C741.202 61.3548 741.821 61.1617 742.327 60.7753C742.838 60.3833 743.225 59.8406 743.486 59.1475C743.753 58.4543 743.887 57.6475 743.887 56.727C743.887 55.8179 743.756 55.0225 743.495 54.3406C743.233 53.6588 742.85 53.1276 742.344 52.7469C741.838 52.3662 741.213 52.1759 740.469 52.1759C739.702 52.1759 739.063 52.3747 738.551 52.7725C738.04 53.1702 737.654 53.7128 737.392 54.4003C737.137 55.0878 737.009 55.8634 737.009 56.727C737.009 57.602 737.139 58.3889 737.401 59.0878C737.662 59.7867 738.048 60.3406 738.56 60.7497C739.077 61.1531 739.713 61.3548 740.469 61.3548ZM749.573 63.2725V50.1816H752.122V63.2725H749.573ZM750.86 48.1617C750.417 48.1617 750.036 48.0139 749.718 47.7185C749.406 47.4173 749.249 47.0594 749.249 46.6446C749.249 46.2242 749.406 45.8662 749.718 45.5708C750.036 45.2696 750.417 45.1191 750.86 45.1191C751.303 45.1191 751.681 45.2696 751.994 45.5708C752.312 45.8662 752.471 46.2242 752.471 46.6446C752.471 47.0594 752.312 47.4173 751.994 47.7185C751.681 48.0139 751.303 48.1617 750.86 48.1617ZM757.642 55.4997V63.2725H755.094V50.1816H757.54V52.3122H757.702C758.003 51.6191 758.475 51.0622 759.117 50.6418C759.764 50.2213 760.58 50.0111 761.563 50.0111C762.455 50.0111 763.236 50.1986 763.906 50.5736C764.577 50.9429 765.097 51.4941 765.466 52.227C765.835 52.96 766.02 53.8662 766.02 54.9458V63.2725H763.472V55.2526C763.472 54.3037 763.225 53.5622 762.73 53.0281C762.236 52.4884 761.557 52.2185 760.693 52.2185C760.102 52.2185 759.577 52.3463 759.117 52.602C758.662 52.8577 758.301 53.2327 758.034 53.727C757.773 54.2156 757.642 54.8066 757.642 55.4997ZM774.47 68.4543C773.431 68.4543 772.536 68.3179 771.786 68.0452C771.041 67.7725 770.433 67.4117 769.962 66.9628C769.49 66.5139 769.138 66.0225 768.905 65.4884L771.095 64.585C771.249 64.835 771.453 65.0992 771.709 65.3776C771.97 65.6617 772.323 65.9031 772.766 66.102C773.215 66.3009 773.791 66.4003 774.496 66.4003C775.462 66.4003 776.26 66.1645 776.891 65.6929C777.521 65.227 777.837 64.4827 777.837 63.46V60.8861H777.675C777.521 61.1645 777.3 61.4742 777.01 61.8151C776.726 62.156 776.334 62.4514 775.834 62.7014C775.334 62.9514 774.683 63.0764 773.882 63.0764C772.848 63.0764 771.916 62.835 771.087 62.352C770.263 61.8634 769.609 61.1446 769.127 60.1958C768.649 59.2412 768.411 58.0679 768.411 56.6759C768.411 55.2838 768.646 54.0906 769.118 53.0963C769.595 52.102 770.249 51.3406 771.078 50.8122C771.908 50.2781 772.848 50.0111 773.899 50.0111C774.712 50.0111 775.368 50.1475 775.868 50.4202C776.368 50.6872 776.757 50.9997 777.036 51.3577C777.32 51.7156 777.538 52.031 777.692 52.3037H777.879V50.1816H780.377V63.5622C780.377 64.6872 780.115 65.6105 779.592 66.3321C779.07 67.0537 778.362 67.5878 777.47 67.9344C776.584 68.281 775.584 68.4543 774.47 68.4543ZM774.445 60.9628C775.178 60.9628 775.797 60.7923 776.303 60.4514C776.814 60.1048 777.2 59.6105 777.462 58.9685C777.729 58.3208 777.862 57.5452 777.862 56.6418C777.862 55.7611 777.732 54.9855 777.47 54.3151C777.209 53.6446 776.825 53.1219 776.32 52.7469C775.814 52.3662 775.189 52.1759 774.445 52.1759C773.678 52.1759 773.038 52.3747 772.527 52.7725C772.016 53.1645 771.629 53.6986 771.368 54.3747C771.112 55.0509 770.984 55.8066 770.984 56.6418C770.984 57.4997 771.115 58.2526 771.377 58.9003C771.638 59.548 772.024 60.0537 772.536 60.4173C773.053 60.781 773.689 60.9628 774.445 60.9628ZM793.148 53.3776L790.838 53.7867C790.742 53.4912 790.588 53.21 790.378 52.9429C790.173 52.6759 789.895 52.4571 789.543 52.2867C789.19 52.1162 788.75 52.031 788.222 52.031C787.5 52.031 786.898 52.1929 786.415 52.5168C785.932 52.835 785.69 53.2469 785.69 53.7526C785.69 54.1901 785.852 54.5423 786.176 54.8094C786.5 55.0764 787.023 55.2952 787.744 55.4656L789.824 55.9429C791.028 56.2213 791.926 56.6503 792.517 57.2298C793.108 57.8094 793.403 58.5622 793.403 59.4884C793.403 60.2725 793.176 60.9713 792.722 61.585C792.273 62.1929 791.645 62.6702 790.838 63.0168C790.037 63.3634 789.108 63.5367 788.051 63.5367C786.585 63.5367 785.389 63.2242 784.463 62.5992C783.537 61.9685 782.969 61.0736 782.759 59.9145L785.222 59.5395C785.375 60.1816 785.69 60.6673 786.168 60.9969C786.645 61.3208 787.267 61.4827 788.034 61.4827C788.869 61.4827 789.537 61.3094 790.037 60.9628C790.537 60.6105 790.787 60.1816 790.787 59.6759C790.787 59.2668 790.634 58.923 790.327 58.6446C790.026 58.3662 789.563 58.156 788.938 58.0139L786.722 57.5281C785.5 57.2497 784.597 56.8066 784.011 56.1986C783.432 55.5906 783.142 54.8208 783.142 53.8889C783.142 53.1162 783.358 52.4401 783.79 51.8605C784.222 51.281 784.818 50.8293 785.58 50.5054C786.341 50.1759 787.213 50.0111 788.196 50.0111C789.611 50.0111 790.724 50.3179 791.537 50.9316C792.349 51.5395 792.886 52.3548 793.148 53.3776ZM569.523 89.3776L567.213 89.7867C567.116 89.4912 566.963 89.21 566.753 88.9429C566.548 88.6759 566.27 88.4571 565.918 88.2867C565.565 88.1162 565.125 88.031 564.597 88.031C563.875 88.031 563.273 88.1929 562.79 88.5168C562.307 88.835 562.065 89.2469 562.065 89.7526C562.065 90.1901 562.227 90.5423 562.551 90.8094C562.875 91.0764 563.398 91.2952 564.119 91.4656L566.199 91.9429C567.403 92.2213 568.301 92.6503 568.892 93.2298C569.483 93.8094 569.778 94.5622 569.778 95.4884C569.778 96.2725 569.551 96.9713 569.097 97.585C568.648 98.1929 568.02 98.6702 567.213 99.0168C566.412 99.3634 565.483 99.5367 564.426 99.5367C562.96 99.5367 561.764 99.2242 560.838 98.5992C559.912 97.9685 559.344 97.0736 559.134 95.9145L561.597 95.5395C561.75 96.1816 562.065 96.6673 562.543 96.9969C563.02 97.3208 563.642 97.4827 564.409 97.4827C565.244 97.4827 565.912 97.3094 566.412 96.9628C566.912 96.6105 567.162 96.1816 567.162 95.6759C567.162 95.2668 567.009 94.923 566.702 94.6446C566.401 94.3662 565.938 94.156 565.312 94.0139L563.097 93.5281C561.875 93.2497 560.972 92.8066 560.386 92.1986C559.807 91.5906 559.517 90.8208 559.517 89.8889C559.517 89.1162 559.733 88.4401 560.165 87.8605C560.597 87.281 561.193 86.8293 561.955 86.5054C562.716 86.1759 563.588 86.0111 564.571 86.0111C565.986 86.0111 567.099 86.3179 567.912 86.9316C568.724 87.5395 569.261 88.3548 569.523 89.3776ZM580.417 93.8435V86.1816H582.974V99.2725H580.468V97.0054H580.332C580.031 97.7043 579.548 98.2867 578.883 98.7526C578.224 99.2128 577.403 99.4429 576.42 99.4429C575.579 99.4429 574.834 99.2583 574.187 98.8889C573.545 98.5139 573.039 97.96 572.67 97.227C572.306 96.4941 572.124 95.5878 572.124 94.5083V86.1816H574.673V94.2014C574.673 95.0935 574.92 95.8037 575.414 96.3321C575.908 96.8605 576.55 97.1247 577.34 97.1247C577.817 97.1247 578.292 97.0054 578.763 96.7668C579.241 96.5281 579.636 96.1673 579.948 95.6844C580.266 95.2014 580.423 94.5878 580.417 93.8435ZM586.146 99.2725V81.8179H588.695V88.3037H588.848C588.996 88.031 589.209 87.7156 589.487 87.3577C589.766 86.9997 590.152 86.6872 590.646 86.4202C591.141 86.1475 591.794 86.0111 592.606 86.0111C593.663 86.0111 594.606 86.2781 595.436 86.8122C596.266 87.3463 596.916 88.1162 597.388 89.1219C597.865 90.1276 598.104 91.3378 598.104 92.7526C598.104 94.1673 597.868 95.3804 597.396 96.3918C596.925 97.3975 596.277 98.173 595.453 98.7185C594.629 99.2583 593.689 99.5281 592.632 99.5281C591.837 99.5281 591.186 99.3946 590.68 99.1276C590.18 98.8605 589.788 98.548 589.504 98.1901C589.22 97.8321 589.001 97.5139 588.848 97.2355H588.635V99.2725H586.146ZM588.643 92.727C588.643 93.6475 588.777 94.4543 589.044 95.1475C589.311 95.8406 589.697 96.3833 590.203 96.7753C590.709 97.1617 591.328 97.3548 592.061 97.3548C592.822 97.3548 593.459 97.1531 593.97 96.7497C594.481 96.3406 594.868 95.7867 595.129 95.0878C595.396 94.3889 595.53 93.602 595.53 92.727C595.53 91.8634 595.399 91.0878 595.138 90.4003C594.882 89.7128 594.496 89.1702 593.979 88.7725C593.467 88.3747 592.828 88.1759 592.061 88.1759C591.322 88.1759 590.697 88.3662 590.186 88.7469C589.68 89.1276 589.297 89.6588 589.035 90.3406C588.774 91.0225 588.643 91.8179 588.643 92.727ZM600.509 99.2725V86.1816H602.955V88.3122H603.117C603.39 87.5906 603.836 87.0281 604.455 86.6247C605.074 86.2156 605.816 86.0111 606.68 86.0111C607.555 86.0111 608.288 86.2156 608.878 86.6247C609.475 87.0338 609.915 87.5963 610.199 88.3122H610.336C610.648 87.6134 611.145 87.0566 611.827 86.6418C612.509 86.2213 613.322 86.0111 614.265 86.0111C615.452 86.0111 616.421 86.3833 617.171 87.1276C617.927 87.8719 618.305 88.9941 618.305 90.4941V99.2725H615.756V90.7327C615.756 89.8463 615.515 89.2043 615.032 88.8066C614.549 88.4088 613.972 88.21 613.302 88.21C612.472 88.21 611.827 88.4656 611.367 88.977C610.907 89.4827 610.677 90.1333 610.677 90.9287V99.2725H608.137V90.5708C608.137 89.8605 607.915 89.2895 607.472 88.8577C607.029 88.4259 606.452 88.21 605.742 88.21C605.259 88.21 604.813 88.3378 604.404 88.5935C604.001 88.8435 603.674 89.1929 603.424 89.6418C603.18 90.0906 603.057 90.6105 603.057 91.2014V99.2725H600.509ZM621.264 99.2725V86.1816H623.812V99.2725H621.264ZM622.551 84.1617C622.108 84.1617 621.727 84.0139 621.409 83.7185C621.096 83.4173 620.94 83.0594 620.94 82.6446C620.94 82.2242 621.096 81.8662 621.409 81.5708C621.727 81.2696 622.108 81.1191 622.551 81.1191C622.994 81.1191 623.372 81.2696 623.685 81.5708C624.003 81.8662 624.162 82.2242 624.162 82.6446C624.162 83.0594 624.003 83.4173 623.685 83.7185C623.372 84.0139 622.994 84.1617 622.551 84.1617ZM636.594 89.3776L634.285 89.7867C634.188 89.4912 634.035 89.21 633.824 88.9429C633.62 88.6759 633.341 88.4571 632.989 88.2867C632.637 88.1162 632.197 88.031 631.668 88.031C630.947 88.031 630.344 88.1929 629.861 88.5168C629.378 88.835 629.137 89.2469 629.137 89.7526C629.137 90.1901 629.299 90.5423 629.623 90.8094C629.947 91.0764 630.469 91.2952 631.191 91.4656L633.27 91.9429C634.475 92.2213 635.373 92.6503 635.964 93.2298C636.555 93.8094 636.85 94.5622 636.85 95.4884C636.85 96.2725 636.623 96.9713 636.168 97.585C635.719 98.1929 635.091 98.6702 634.285 99.0168C633.483 99.3634 632.555 99.5367 631.498 99.5367C630.032 99.5367 628.836 99.2242 627.91 98.5992C626.983 97.9685 626.415 97.0736 626.205 95.9145L628.668 95.5395C628.822 96.1816 629.137 96.6673 629.614 96.9969C630.091 97.3208 630.714 97.4827 631.481 97.4827C632.316 97.4827 632.983 97.3094 633.483 96.9628C633.983 96.6105 634.233 96.1816 634.233 95.6759C634.233 95.2668 634.08 94.923 633.773 94.6446C633.472 94.3662 633.009 94.156 632.384 94.0139L630.168 93.5281C628.947 93.2497 628.043 92.8066 627.458 92.1986C626.878 91.5906 626.589 90.8208 626.589 89.8889C626.589 89.1162 626.805 88.4401 627.236 87.8605C627.668 87.281 628.265 86.8293 629.026 86.5054C629.787 86.1759 630.66 86.0111 631.643 86.0111C633.057 86.0111 634.171 86.3179 634.983 86.9316C635.796 87.5395 636.333 88.3548 636.594 89.3776ZM649.005 89.3776L646.696 89.7867C646.599 89.4912 646.446 89.21 646.236 88.9429C646.031 88.6759 645.753 88.4571 645.4 88.2867C645.048 88.1162 644.608 88.031 644.079 88.031C643.358 88.031 642.755 88.1929 642.273 88.5168C641.79 88.835 641.548 89.2469 641.548 89.7526C641.548 90.1901 641.71 90.5423 642.034 90.8094C642.358 91.0764 642.88 91.2952 643.602 91.4656L645.682 91.9429C646.886 92.2213 647.784 92.6503 648.375 93.2298C648.966 93.8094 649.261 94.5622 649.261 95.4884C649.261 96.2725 649.034 96.9713 648.579 97.585C648.13 98.1929 647.503 98.6702 646.696 99.0168C645.895 99.3634 644.966 99.5367 643.909 99.5367C642.443 99.5367 641.247 99.2242 640.321 98.5992C639.395 97.9685 638.826 97.0736 638.616 95.9145L641.079 95.5395C641.233 96.1816 641.548 96.6673 642.025 96.9969C642.503 97.3208 643.125 97.4827 643.892 97.4827C644.727 97.4827 645.395 97.3094 645.895 96.9628C646.395 96.6105 646.645 96.1816 646.645 95.6759C646.645 95.2668 646.491 94.923 646.184 94.6446C645.883 94.3662 645.42 94.156 644.795 94.0139L642.579 93.5281C641.358 93.2497 640.454 92.8066 639.869 92.1986C639.29 91.5906 639 90.8208 639 89.8889C639 89.1162 639.216 88.4401 639.648 87.8605C640.079 87.281 640.676 86.8293 641.437 86.5054C642.199 86.1759 643.071 86.0111 644.054 86.0111C645.469 86.0111 646.582 86.3179 647.395 86.9316C648.207 87.5395 648.744 88.3548 649.005 89.3776ZM651.607 99.2725V86.1816H654.155V99.2725H651.607ZM652.894 84.1617C652.451 84.1617 652.07 84.0139 651.752 83.7185C651.439 83.4173 651.283 83.0594 651.283 82.6446C651.283 82.2242 651.439 81.8662 651.752 81.5708C652.07 81.2696 652.451 81.1191 652.894 81.1191C653.337 81.1191 653.715 81.2696 654.027 81.5708C654.346 81.8662 654.505 82.2242 654.505 82.6446C654.505 83.0594 654.346 83.4173 654.027 83.7185C653.715 84.0139 653.337 84.1617 652.894 84.1617ZM662.642 99.5367C661.415 99.5367 660.343 99.2554 659.429 98.6929C658.514 98.1304 657.804 97.3435 657.298 96.3321C656.792 95.3208 656.54 94.1389 656.54 92.7867C656.54 91.4287 656.792 90.2412 657.298 89.2242C657.804 88.2071 658.514 87.4173 659.429 86.8548C660.343 86.2923 661.415 86.0111 662.642 86.0111C663.869 86.0111 664.94 86.2923 665.855 86.8548C666.77 87.4173 667.48 88.2071 667.986 89.2242C668.491 90.2412 668.744 91.4287 668.744 92.7867C668.744 94.1389 668.491 95.3208 667.986 96.3321C667.48 97.3435 666.77 98.1304 665.855 98.6929C664.94 99.2554 663.869 99.5367 662.642 99.5367ZM662.65 97.3975C663.446 97.3975 664.105 97.1872 664.628 96.7668C665.15 96.3463 665.537 95.7867 665.787 95.0878C666.042 94.3889 666.17 93.6191 666.17 92.7781C666.17 91.9429 666.042 91.1759 665.787 90.477C665.537 89.7725 665.15 89.2071 664.628 88.781C664.105 88.3548 663.446 88.1418 662.65 88.1418C661.849 88.1418 661.184 88.3548 660.656 88.781C660.133 89.2071 659.744 89.7725 659.488 90.477C659.238 91.1759 659.113 91.9429 659.113 92.7781C659.113 93.6191 659.238 94.3889 659.488 95.0878C659.744 95.7867 660.133 96.3463 660.656 96.7668C661.184 97.1872 661.849 97.3975 662.65 97.3975ZM673.681 91.4997V99.2725H671.133V86.1816H673.579V88.3122H673.74C674.042 87.6191 674.513 87.0622 675.155 86.6418C675.803 86.2213 676.618 86.0111 677.601 86.0111C678.493 86.0111 679.275 86.1986 679.945 86.5736C680.615 86.9429 681.135 87.4941 681.505 88.227C681.874 88.96 682.059 89.8662 682.059 90.9458V99.2725H679.51V91.2526C679.51 90.3037 679.263 89.5622 678.769 89.0281C678.275 88.4884 677.596 88.2185 676.732 88.2185C676.141 88.2185 675.615 88.3463 675.155 88.602C674.701 88.8577 674.34 89.2327 674.073 89.727C673.811 90.2156 673.681 90.8066 673.681 91.4997Z" fill="#1E1E1E"/>
</g>
<defs>
<clipPath id="clip0_552_2988">
<rect width="842" height="1072" fill="white"/>
</clipPath>
</defs>
</svg>
