<svg width="842" height="1072" viewBox="0 0 842 1072" fill="none" xmlns="http://www.w3.org/2000/svg">
<g clip-path="url(#clip0_552_2989)">
<path d="M66.1674 290.355C66.1674 268.873 63.2977 333.249 60.5487 354.554C58.7316 368.637 58.6758 411.31 58.6758 397.111" stroke="#1E1E1E" stroke-width="8" stroke-linecap="round" stroke-linejoin="round"/>
<path d="M75.5303 288.482C68.6318 284.048 115.033 280.991 118.711 280.991C151.027 280.991 182.806 287.9 215.062 281.927C243.53 276.655 273.418 279.039 302.153 276.829C321.529 275.338 340.334 273.499 359.797 273.499C368.167 273.499 372.977 275.102 380.399 279.118C387.794 283.118 394.316 282.864 402.457 282.864C406.214 282.864 418.67 278.64 421.603 280.783C425.743 283.808 424.125 296.309 423.788 300.864C422.275 321.294 417.527 341.6 414.944 361.942C412.991 377.321 414.583 391.27 410.781 406.476" stroke="#1E1E1E" stroke-width="8" stroke-linecap="round" stroke-linejoin="round"/>
<path d="M62.4219 406.476C68.41 396.296 90.3878 397.676 100.296 397.216C120.204 396.29 139.816 395.239 159.813 395.239C199.625 395.239 239.637 396.737 279.263 392.429C290.417 391.217 301.557 391.493 312.768 391.493C324.542 391.493 334.761 394.214 346.272 395.135C367.224 396.811 390.517 388.483 410.783 395.239" stroke="#1E1E1E" stroke-width="8" stroke-linecap="round" stroke-linejoin="round"/>
<path d="M62.4229 457.044C52.0684 457.044 83.0755 455.171 93.43 455.171C114.385 455.171 135.15 455.171 156.069 455.171C189.69 455.171 223.52 457.044 257.31 457.044C285.854 457.044 314.399 457.044 342.944 457.044C358.067 457.044 372.66 453.299 387.893 453.299C393.651 453.299 399.408 453.299 405.166 453.299C409.137 453.299 418.571 451.229 412.657 455.171" stroke="#1E1E1E" stroke-width="8" stroke-linecap="round" stroke-linejoin="round"/>
<path d="M58.6758 511.359C86.5497 511.359 114.505 505.74 142.333 505.74C172.284 505.74 203.929 505.639 233.585 510.423C258.432 514.43 282.523 507.613 307.149 507.613C329.207 507.613 351.266 507.613 373.325 507.613" stroke="#1E1E1E" stroke-width="8" stroke-linecap="round" stroke-linejoin="round"/>
<path d="M54.9297 563.8C60.9645 558.771 77.1824 565.282 85.1044 565.777C103.196 566.908 121.036 567.546 139.211 567.546C160.658 567.546 182.081 568.937 203.306 569.419C223.121 569.869 243.002 569.419 262.823 569.419C281.869 569.419 300.098 565.673 319.01 565.673" stroke="#1E1E1E" stroke-width="8" stroke-linecap="round" stroke-linejoin="round"/>
<rect width="480" height="1072" rx="6" stroke="#1E1E1E" stroke-width="4" stroke-linecap="round"/>
<path d="M200.266 335.445C200.603 339.837 216.904 364.215 218.383 362.333C220.062 360.197 220.907 357.28 222.307 354.948C226.949 347.21 232.568 340.157 238.635 333.484C250.539 320.389 264.622 309.337 278.159 298.057" stroke="#14AE5C" stroke-width="8" stroke-linecap="round" stroke-linejoin="round"/>
<path d="M530.622 27.2725L538.241 12.2043V12.0764H529.428V9.81791H540.968V12.1531L533.374 27.2725H530.622ZM546.621 27.4344C546.155 27.4344 545.754 27.2696 545.419 26.9401C545.084 26.6048 544.916 26.2014 544.916 25.7298C544.916 25.2639 545.084 24.8662 545.419 24.5367C545.754 24.2014 546.155 24.0338 546.621 24.0338C547.087 24.0338 547.487 24.2014 547.823 24.5367C548.158 24.8662 548.325 25.2639 548.325 25.7298C548.325 26.0423 548.246 26.3293 548.087 26.5906C547.933 26.8463 547.729 27.0509 547.473 27.2043C547.217 27.3577 546.933 27.4344 546.621 27.4344ZM559.918 27.2725V9.81791H570.741V12.085H562.551V17.4031H569.966V19.6617H562.551V27.2725H559.918ZM573.32 27.2725V14.1816H575.868V27.2725H573.32ZM574.606 12.1617C574.163 12.1617 573.783 12.0139 573.464 11.7185C573.152 11.4173 572.996 11.0594 572.996 10.6446C572.996 10.2242 573.152 9.86621 573.464 9.57076C573.783 9.26962 574.163 9.11905 574.606 9.11905C575.05 9.11905 575.428 9.26962 575.74 9.57076C576.058 9.86621 576.217 10.2242 576.217 10.6446C576.217 11.0594 576.058 11.4173 575.74 11.7185C575.428 12.0139 575.05 12.1617 574.606 12.1617ZM581.388 19.4997V27.2725H578.84V14.1816H581.286V16.3122H581.448C581.749 15.6191 582.221 15.0622 582.863 14.6418C583.511 14.2213 584.326 14.0111 585.309 14.0111C586.201 14.0111 586.982 14.1986 587.653 14.5736C588.323 14.9429 588.843 15.4941 589.212 16.227C589.582 16.96 589.766 17.8662 589.766 18.9458V27.2725H587.218V19.2526C587.218 18.3037 586.971 17.5622 586.476 17.0281C585.982 16.4884 585.303 16.2185 584.44 16.2185C583.849 16.2185 583.323 16.3463 582.863 16.602C582.408 16.8577 582.048 17.2327 581.78 17.727C581.519 18.2156 581.388 18.8066 581.388 19.4997ZM596.538 27.5622C595.708 27.5622 594.958 27.4088 594.288 27.102C593.617 26.7895 593.086 26.3378 592.694 25.7469C592.307 25.156 592.114 24.4316 592.114 23.5736C592.114 22.835 592.256 22.227 592.54 21.7497C592.824 21.2725 593.208 20.8946 593.691 20.6162C594.174 20.3378 594.714 20.1276 595.31 19.9855C595.907 19.8435 596.515 19.7355 597.134 19.6617C597.918 19.5708 598.555 19.4969 599.043 19.4401C599.532 19.3776 599.887 19.2781 600.109 19.1418C600.33 19.0054 600.441 18.7838 600.441 18.477V18.4173C600.441 17.673 600.231 17.0963 599.81 16.6872C599.395 16.2781 598.776 16.0736 597.952 16.0736C597.094 16.0736 596.418 16.2639 595.924 16.6446C595.435 17.0196 595.097 17.4372 594.91 17.8975L592.515 17.352C592.799 16.5566 593.214 15.9145 593.759 15.4259C594.31 14.9316 594.944 14.5736 595.66 14.352C596.376 14.1247 597.128 14.0111 597.918 14.0111C598.441 14.0111 598.995 14.0736 599.58 14.1986C600.171 14.3179 600.722 14.5395 601.234 14.8634C601.751 15.1872 602.174 15.6503 602.503 16.2526C602.833 16.8492 602.998 17.6247 602.998 18.5793V27.2725H600.509V25.4827H600.407C600.242 25.8122 599.995 26.1361 599.665 26.4543C599.336 26.7725 598.913 27.0367 598.395 27.2469C597.878 27.4571 597.259 27.5622 596.538 27.5622ZM597.092 25.5168C597.796 25.5168 598.398 25.3776 598.898 25.0992C599.404 24.8208 599.788 24.4571 600.049 24.0083C600.316 23.5537 600.449 23.0679 600.449 22.5509V20.8634C600.359 20.9543 600.182 21.0395 599.921 21.1191C599.665 21.1929 599.373 21.2583 599.043 21.3151C598.714 21.3662 598.393 21.4145 598.08 21.46C597.768 21.4997 597.506 21.5338 597.296 21.5622C596.802 21.6247 596.35 21.7298 595.941 21.8776C595.538 22.0253 595.214 22.2384 594.969 22.5168C594.731 22.7895 594.611 23.1531 594.611 23.6077C594.611 24.2384 594.844 24.7156 595.31 25.0395C595.776 25.3577 596.37 25.5168 597.092 25.5168ZM608.484 9.81791V27.2725H605.936V9.81791H608.484ZM627.162 17.3776L624.852 17.7867C624.755 17.4912 624.602 17.21 624.392 16.9429C624.187 16.6759 623.909 16.4571 623.557 16.2867C623.204 16.1162 622.764 16.031 622.236 16.031C621.514 16.031 620.912 16.1929 620.429 16.5168C619.946 16.835 619.704 17.2469 619.704 17.7526C619.704 18.1901 619.866 18.5423 620.19 18.8094C620.514 19.0764 621.037 19.2952 621.758 19.4656L623.838 19.9429C625.042 20.2213 625.94 20.6503 626.531 21.2298C627.122 21.8094 627.417 22.5622 627.417 23.4884C627.417 24.2725 627.19 24.9713 626.736 25.585C626.287 26.1929 625.659 26.6702 624.852 27.0168C624.051 27.3634 623.122 27.5367 622.065 27.5367C620.599 27.5367 619.403 27.2242 618.477 26.5992C617.551 25.9685 616.983 25.0736 616.773 23.9145L619.236 23.5395C619.389 24.1816 619.704 24.6673 620.182 24.9969C620.659 25.3208 621.281 25.4827 622.048 25.4827C622.883 25.4827 623.551 25.3094 624.051 24.9628C624.551 24.6105 624.801 24.1816 624.801 23.6759C624.801 23.2668 624.648 22.923 624.341 22.6446C624.04 22.3662 623.576 22.156 622.951 22.0139L620.736 21.5281C619.514 21.2497 618.611 20.8066 618.025 20.1986C617.446 19.5906 617.156 18.8208 617.156 17.8889C617.156 17.1162 617.372 16.4401 617.804 15.8605C618.236 15.281 618.832 14.8293 619.594 14.5054C620.355 14.1759 621.227 14.0111 622.21 14.0111C623.625 14.0111 624.738 14.3179 625.551 14.9316C626.363 15.5395 626.9 16.3548 627.162 17.3776ZM635.277 27.5367C634.01 27.5367 632.92 27.2497 632.005 26.6759C631.096 26.0963 630.397 25.298 629.908 24.281C629.42 23.2639 629.175 22.0992 629.175 20.7867C629.175 19.4571 629.425 18.2838 629.925 17.2668C630.425 16.2441 631.13 15.4458 632.039 14.8719C632.948 14.298 634.019 14.0111 635.252 14.0111C636.246 14.0111 637.133 14.1958 637.911 14.5651C638.689 14.9287 639.317 15.4401 639.795 16.0992C640.277 16.7583 640.564 17.5281 640.655 18.4088H638.175C638.039 17.7952 637.726 17.2668 637.238 16.8236C636.755 16.3804 636.107 16.1588 635.295 16.1588C634.584 16.1588 633.962 16.3463 633.428 16.7213C632.9 17.0906 632.488 17.6191 632.192 18.3066C631.897 18.9884 631.749 19.7952 631.749 20.727C631.749 21.6816 631.894 22.5054 632.184 23.1986C632.473 23.8918 632.883 24.4287 633.411 24.8094C633.945 25.1901 634.573 25.3804 635.295 25.3804C635.777 25.3804 636.215 25.2923 636.607 25.1162C637.005 24.9344 637.337 24.6759 637.604 24.3406C637.877 24.0054 638.067 23.602 638.175 23.1304H640.655C640.564 23.977 640.289 24.7327 639.829 25.3975C639.368 26.0622 638.752 26.585 637.979 26.9656C637.212 27.3463 636.312 27.5367 635.277 27.5367ZM642.924 27.2725V14.1816H645.388V16.2611H645.524C645.763 15.5566 646.183 15.0026 646.785 14.5992C647.393 14.1901 648.081 13.9855 648.848 13.9855C649.007 13.9855 649.194 13.9912 649.41 14.0026C649.632 14.0139 649.805 14.0281 649.93 14.0452V16.4827C649.828 16.4543 649.646 16.423 649.385 16.3889C649.123 16.3492 648.862 16.3293 648.601 16.3293C647.998 16.3293 647.461 16.4571 646.99 16.7128C646.524 16.9628 646.155 17.3122 645.882 17.7611C645.609 18.2043 645.473 18.71 645.473 19.2781V27.2725H642.924ZM656.853 27.5367C655.563 27.5367 654.452 27.2611 653.52 26.71C652.594 26.1531 651.878 25.3719 651.373 24.3662C650.873 23.3548 650.623 22.1702 650.623 20.8122C650.623 19.4713 650.873 18.2895 651.373 17.2668C651.878 16.2441 652.583 15.4458 653.486 14.8719C654.395 14.298 655.458 14.0111 656.674 14.0111C657.412 14.0111 658.128 14.1333 658.821 14.3776C659.515 14.6219 660.137 15.0054 660.688 15.5281C661.239 16.0509 661.674 16.7298 661.992 17.5651C662.31 18.3946 662.469 19.4031 662.469 20.5906V21.4941H652.063V19.585H659.972C659.972 18.9145 659.836 18.3208 659.563 17.8037C659.29 17.281 658.907 16.8691 658.412 16.5679C657.924 16.2668 657.35 16.1162 656.691 16.1162C655.975 16.1162 655.35 16.2923 654.816 16.6446C654.287 16.9912 653.878 17.4458 653.588 18.0083C653.304 18.5651 653.162 19.1702 653.162 19.8236V21.3151C653.162 22.1901 653.316 22.9344 653.623 23.548C653.935 24.1617 654.37 24.6304 654.927 24.9543C655.483 25.2725 656.134 25.4316 656.878 25.4316C657.361 25.4316 657.802 25.3634 658.199 25.227C658.597 25.085 658.941 24.8747 659.231 24.5963C659.52 24.3179 659.742 23.9742 659.895 23.5651L662.307 23.9997C662.114 24.71 661.767 25.3321 661.267 25.8662C660.773 26.3946 660.151 26.8066 659.401 27.102C658.657 27.3918 657.807 27.5367 656.853 27.5367ZM670.483 27.5367C669.193 27.5367 668.082 27.2611 667.15 26.71C666.224 26.1531 665.508 25.3719 665.003 24.3662C664.503 23.3548 664.253 22.1702 664.253 20.8122C664.253 19.4713 664.503 18.2895 665.003 17.2668C665.508 16.2441 666.213 15.4458 667.116 14.8719C668.025 14.298 669.088 14.0111 670.304 14.0111C671.042 14.0111 671.758 14.1333 672.451 14.3776C673.145 14.6219 673.767 15.0054 674.318 15.5281C674.869 16.0509 675.304 16.7298 675.622 17.5651C675.94 18.3946 676.099 19.4031 676.099 20.5906V21.4941H665.693V19.585H673.602C673.602 18.9145 673.466 18.3208 673.193 17.8037C672.92 17.281 672.537 16.8691 672.042 16.5679C671.554 16.2668 670.98 16.1162 670.321 16.1162C669.605 16.1162 668.98 16.2923 668.446 16.6446C667.917 16.9912 667.508 17.4458 667.218 18.0083C666.934 18.5651 666.792 19.1702 666.792 19.8236V21.3151C666.792 22.1901 666.946 22.9344 667.253 23.548C667.565 24.1617 668 24.6304 668.556 24.9543C669.113 25.2725 669.764 25.4316 670.508 25.4316C670.991 25.4316 671.431 25.3634 671.829 25.227C672.227 25.085 672.571 24.8747 672.86 24.5963C673.15 24.3179 673.372 23.9742 673.525 23.5651L675.937 23.9997C675.744 24.71 675.397 25.3321 674.897 25.8662C674.403 26.3946 673.781 26.8066 673.031 27.102C672.287 27.3918 671.437 27.5367 670.483 27.5367ZM681.019 19.4997V27.2725H678.47V14.1816H680.917V16.3122H681.078C681.38 15.6191 681.851 15.0622 682.493 14.6418C683.141 14.2213 683.956 14.0111 684.939 14.0111C685.831 14.0111 686.613 14.1986 687.283 14.5736C687.953 14.9429 688.473 15.4941 688.843 16.227C689.212 16.96 689.397 17.8662 689.397 18.9458V27.2725H686.848V19.2526C686.848 18.3037 686.601 17.5622 686.107 17.0281C685.613 16.4884 684.934 16.2185 684.07 16.2185C683.479 16.2185 682.953 16.3463 682.493 16.602C682.039 16.8577 681.678 17.2327 681.411 17.727C681.149 18.2156 681.019 18.8066 681.019 19.4997ZM701.092 27.2725L697.24 14.1816H699.873L702.438 23.7952H702.566L705.14 14.1816H707.774L710.331 23.7526H710.458L713.007 14.1816H715.64L711.796 27.2725H709.197L706.538 17.8208H706.342L703.683 27.2725H701.092ZM717.603 27.2725V14.1816H720.151V27.2725H717.603ZM718.889 12.1617C718.446 12.1617 718.066 12.0139 717.747 11.7185C717.435 11.4173 717.279 11.0594 717.279 10.6446C717.279 10.2242 717.435 9.86621 717.747 9.57076C718.066 9.26962 718.446 9.11905 718.889 9.11905C719.333 9.11905 719.71 9.26962 720.023 9.57076C720.341 9.86621 720.5 10.2242 720.5 10.6446C720.5 11.0594 720.341 11.4173 720.023 11.7185C719.71 12.0139 719.333 12.1617 718.889 12.1617ZM729.234 14.1816V16.227H722.083V14.1816H729.234ZM724.001 11.0452H726.549V23.4287C726.549 23.923 726.623 24.2952 726.771 24.5452C726.919 24.7895 727.109 24.9571 727.342 25.048C727.58 25.1333 727.839 25.1759 728.117 25.1759C728.322 25.1759 728.501 25.1617 728.654 25.1333C728.808 25.1048 728.927 25.0821 729.012 25.0651L729.473 27.1702C729.325 27.227 729.115 27.2838 728.842 27.3406C728.569 27.4031 728.228 27.4372 727.819 27.4429C727.149 27.4543 726.524 27.335 725.944 27.085C725.365 26.835 724.896 26.4486 724.538 25.9259C724.18 25.4031 724.001 24.7469 724.001 23.9571V11.0452ZM734.426 19.4997V27.2725H731.878V9.81791H734.392V16.3122H734.554C734.861 15.6077 735.33 15.048 735.96 14.6333C736.591 14.2185 737.415 14.0111 738.432 14.0111C739.33 14.0111 740.114 14.1958 740.784 14.5651C741.46 14.9344 741.983 15.4855 742.352 16.2185C742.727 16.9458 742.915 17.8548 742.915 18.9458V27.2725H740.367V19.2526C740.367 18.2923 740.119 17.548 739.625 17.0196C739.131 16.4855 738.443 16.2185 737.563 16.2185C736.96 16.2185 736.421 16.3463 735.943 16.602C735.472 16.8577 735.1 17.2327 734.827 17.727C734.56 18.2156 734.426 18.8066 734.426 19.4997ZM559.713 63.2725V50.1816H562.261V63.2725H559.713ZM561 48.1617C560.557 48.1617 560.176 48.0139 559.858 47.7185C559.545 47.4173 559.389 47.0594 559.389 46.6446C559.389 46.2242 559.545 45.8662 559.858 45.5708C560.176 45.2696 560.557 45.1191 561 45.1191C561.443 45.1191 561.821 45.2696 562.134 45.5708C562.452 45.8662 562.611 46.2242 562.611 46.6446C562.611 47.0594 562.452 47.4173 562.134 47.7185C561.821 48.0139 561.443 48.1617 561 48.1617ZM567.782 55.4997V63.2725H565.234V50.1816H567.68V52.3122H567.842C568.143 51.6191 568.614 51.0622 569.256 50.6418C569.904 50.2213 570.719 50.0111 571.702 50.0111C572.594 50.0111 573.376 50.1986 574.046 50.5736C574.717 50.9429 575.236 51.4941 575.606 52.227C575.975 52.96 576.16 53.8662 576.16 54.9458V63.2725H573.611V55.2526C573.611 54.3037 573.364 53.5622 572.87 53.0281C572.376 52.4884 571.697 52.2185 570.833 52.2185C570.242 52.2185 569.717 52.3463 569.256 52.602C568.802 52.8577 568.441 53.2327 568.174 53.727C567.913 54.2156 567.782 54.8066 567.782 55.4997ZM585.351 50.1816V52.227H577.954V50.1816H585.351ZM579.982 63.2725V48.6645C579.982 47.8463 580.161 47.1673 580.519 46.6276C580.877 46.0821 581.351 45.6759 581.942 45.4088C582.533 45.1361 583.175 44.9997 583.869 44.9997C584.38 44.9997 584.817 45.0423 585.181 45.1276C585.545 45.2071 585.815 45.281 585.991 45.3492L585.394 47.4117C585.275 47.3776 585.121 47.3378 584.934 47.2923C584.746 47.2412 584.519 47.2156 584.252 47.2156C583.633 47.2156 583.19 47.3691 582.923 47.6759C582.661 47.9827 582.53 48.4259 582.53 49.0054V63.2725H579.982ZM592.523 63.5367C591.296 63.5367 590.225 63.2554 589.31 62.6929C588.395 62.1304 587.685 61.3435 587.18 60.3321C586.674 59.3208 586.421 58.1389 586.421 56.7867C586.421 55.4287 586.674 54.2412 587.18 53.2242C587.685 52.2071 588.395 51.4173 589.31 50.8548C590.225 50.2923 591.296 50.0111 592.523 50.0111C593.751 50.0111 594.822 50.2923 595.736 50.8548C596.651 51.4173 597.361 52.2071 597.867 53.2242C598.373 54.2412 598.626 55.4287 598.626 56.7867C598.626 58.1389 598.373 59.3208 597.867 60.3321C597.361 61.3435 596.651 62.1304 595.736 62.6929C594.822 63.2554 593.751 63.5367 592.523 63.5367ZM592.532 61.3975C593.327 61.3975 593.986 61.1872 594.509 60.7668C595.032 60.3463 595.418 59.7867 595.668 59.0878C595.924 58.3889 596.052 57.6191 596.052 56.7781C596.052 55.9429 595.924 55.1759 595.668 54.477C595.418 53.7725 595.032 53.2071 594.509 52.781C593.986 52.3548 593.327 52.1418 592.532 52.1418C591.731 52.1418 591.066 52.3548 590.538 52.781C590.015 53.2071 589.626 53.7725 589.37 54.477C589.12 55.1759 588.995 55.9429 588.995 56.7781C588.995 57.6191 589.12 58.3889 589.37 59.0878C589.626 59.7867 590.015 60.3463 590.538 60.7668C591.066 61.1872 591.731 61.3975 592.532 61.3975ZM601.014 63.2725V50.1816H603.477V52.2611H603.614C603.852 51.5566 604.273 51.0026 604.875 50.5992C605.483 50.1901 606.17 49.9855 606.937 49.9855C607.096 49.9855 607.284 49.9912 607.5 50.0026C607.721 50.0139 607.895 50.0281 608.02 50.0452V52.4827C607.917 52.4543 607.736 52.423 607.474 52.3889C607.213 52.3492 606.952 52.3293 606.69 52.3293C606.088 52.3293 605.551 52.4571 605.079 52.7128C604.614 52.9628 604.244 53.3122 603.971 53.7611C603.699 54.2043 603.562 54.71 603.562 55.2781V63.2725H601.014ZM609.769 63.2725V50.1816H612.215V52.3122H612.377C612.65 51.5906 613.096 51.0281 613.715 50.6247C614.334 50.2156 615.076 50.0111 615.939 50.0111C616.814 50.0111 617.547 50.2156 618.138 50.6247C618.735 51.0338 619.175 51.5963 619.459 52.3122H619.596C619.908 51.6134 620.405 51.0566 621.087 50.6418C621.769 50.2213 622.582 50.0111 623.525 50.0111C624.712 50.0111 625.681 50.3833 626.431 51.1276C627.187 51.8719 627.564 52.9941 627.564 54.4941V63.2725H625.016V54.7327C625.016 53.8463 624.775 53.2043 624.292 52.8066C623.809 52.4088 623.232 52.21 622.562 52.21C621.732 52.21 621.087 52.4656 620.627 52.977C620.167 53.4827 619.937 54.1333 619.937 54.9287V63.2725H617.397V54.5708C617.397 53.8605 617.175 53.2895 616.732 52.8577C616.289 52.4259 615.712 52.21 615.002 52.21C614.519 52.21 614.073 52.3378 613.664 52.5935C613.26 52.8435 612.934 53.1929 612.684 53.6418C612.439 54.0906 612.317 54.6105 612.317 55.2014V63.2725H609.769ZM634.334 63.5622C633.504 63.5622 632.754 63.4088 632.084 63.102C631.413 62.7895 630.882 62.3378 630.49 61.7469C630.103 61.156 629.91 60.4316 629.91 59.5736C629.91 58.835 630.052 58.227 630.336 57.7497C630.621 57.2725 631.004 56.8946 631.487 56.6162C631.97 56.3378 632.51 56.1276 633.106 55.9855C633.703 55.8435 634.311 55.7355 634.93 55.6617C635.714 55.5708 636.351 55.4969 636.839 55.4401C637.328 55.3776 637.683 55.2781 637.905 55.1418C638.126 55.0054 638.237 54.7838 638.237 54.477V54.4173C638.237 53.673 638.027 53.0963 637.606 52.6872C637.192 52.2781 636.572 52.0736 635.748 52.0736C634.89 52.0736 634.214 52.2639 633.72 52.6446C633.231 53.0196 632.893 53.4372 632.706 53.8975L630.311 53.352C630.595 52.5566 631.01 51.9145 631.555 51.4259C632.106 50.9316 632.74 50.5736 633.456 50.352C634.172 50.1247 634.925 50.0111 635.714 50.0111C636.237 50.0111 636.791 50.0736 637.376 50.1986C637.967 50.3179 638.518 50.5395 639.03 50.8634C639.547 51.1872 639.97 51.6503 640.3 52.2526C640.629 52.8492 640.794 53.6247 640.794 54.5793V63.2725H638.305V61.4827H638.203C638.038 61.8122 637.791 62.1361 637.461 62.4543C637.132 62.7725 636.709 63.0367 636.192 63.2469C635.675 63.4571 635.055 63.5622 634.334 63.5622ZM634.888 61.5168C635.592 61.5168 636.194 61.3776 636.694 61.0992C637.2 60.8208 637.584 60.4571 637.845 60.0083C638.112 59.5537 638.246 59.0679 638.246 58.5509V56.8634C638.155 56.9543 637.978 57.0395 637.717 57.1191C637.461 57.1929 637.169 57.2583 636.839 57.3151C636.51 57.3662 636.189 57.4145 635.876 57.46C635.564 57.4997 635.302 57.5338 635.092 57.5622C634.598 57.6247 634.146 57.7298 633.737 57.8776C633.334 58.0253 633.01 58.2384 632.765 58.5168C632.527 58.7895 632.407 59.1531 632.407 59.6077C632.407 60.2384 632.64 60.7156 633.106 61.0395C633.572 61.3577 634.166 61.5168 634.888 61.5168ZM649.843 50.1816V52.227H642.692V50.1816H649.843ZM644.61 47.0452H647.158V59.4287C647.158 59.923 647.232 60.2952 647.38 60.5452C647.527 60.7895 647.718 60.9571 647.951 61.048C648.189 61.1333 648.448 61.1759 648.726 61.1759C648.931 61.1759 649.11 61.1617 649.263 61.1333C649.417 61.1048 649.536 61.0821 649.621 61.0651L650.081 63.1702C649.934 63.227 649.723 63.2838 649.451 63.3406C649.178 63.4031 648.837 63.4372 648.428 63.4429C647.758 63.4543 647.133 63.335 646.553 63.085C645.973 62.835 645.505 62.4486 645.147 61.9259C644.789 61.4031 644.61 60.7469 644.61 59.9571V47.0452ZM652.206 63.2725V50.1816H654.754V63.2725H652.206ZM653.493 48.1617C653.049 48.1617 652.669 48.0139 652.351 47.7185C652.038 47.4173 651.882 47.0594 651.882 46.6446C651.882 46.2242 652.038 45.8662 652.351 45.5708C652.669 45.2696 653.049 45.1191 653.493 45.1191C653.936 45.1191 654.314 45.2696 654.626 45.5708C654.944 45.8662 655.103 46.2242 655.103 46.6446C655.103 47.0594 654.944 47.4173 654.626 47.7185C654.314 48.0139 653.936 48.1617 653.493 48.1617ZM663.24 63.5367C662.013 63.5367 660.942 63.2554 660.027 62.6929C659.113 62.1304 658.402 61.3435 657.897 60.3321C657.391 59.3208 657.138 58.1389 657.138 56.7867C657.138 55.4287 657.391 54.2412 657.897 53.2242C658.402 52.2071 659.113 51.4173 660.027 50.8548C660.942 50.2923 662.013 50.0111 663.24 50.0111C664.468 50.0111 665.539 50.2923 666.454 50.8548C667.368 51.4173 668.079 52.2071 668.584 53.2242C669.09 54.2412 669.343 55.4287 669.343 56.7867C669.343 58.1389 669.09 59.3208 668.584 60.3321C668.079 61.3435 667.368 62.1304 666.454 62.6929C665.539 63.2554 664.468 63.5367 663.24 63.5367ZM663.249 61.3975C664.044 61.3975 664.704 61.1872 665.226 60.7668C665.749 60.3463 666.135 59.7867 666.385 59.0878C666.641 58.3889 666.769 57.6191 666.769 56.7781C666.769 55.9429 666.641 55.1759 666.385 54.477C666.135 53.7725 665.749 53.2071 665.226 52.781C664.704 52.3548 664.044 52.1418 663.249 52.1418C662.448 52.1418 661.783 52.3548 661.255 52.781C660.732 53.2071 660.343 53.7725 660.087 54.477C659.837 55.1759 659.712 55.9429 659.712 56.7781C659.712 57.6191 659.837 58.3889 660.087 59.0878C660.343 59.7867 660.732 60.3463 661.255 60.7668C661.783 61.1872 662.448 61.3975 663.249 61.3975ZM674.279 55.4997V63.2725H671.731V50.1816H674.177V52.3122H674.339C674.64 51.6191 675.112 51.0622 675.754 50.6418C676.402 50.2213 677.217 50.0111 678.2 50.0111C679.092 50.0111 679.873 50.1986 680.544 50.5736C681.214 50.9429 681.734 51.4941 682.103 52.227C682.473 52.96 682.657 53.8662 682.657 54.9458V63.2725H680.109V55.2526C680.109 54.3037 679.862 53.5622 679.368 53.0281C678.873 52.4884 678.194 52.2185 677.331 52.2185C676.74 52.2185 676.214 52.3463 675.754 52.602C675.299 52.8577 674.939 53.2327 674.672 53.727C674.41 54.2156 674.279 54.8066 674.279 55.4997ZM695.324 63.5622C694.495 63.5622 693.745 63.4088 693.074 63.102C692.404 62.7895 691.872 62.3378 691.48 61.7469C691.094 61.156 690.901 60.4316 690.901 59.5736C690.901 58.835 691.043 58.227 691.327 57.7497C691.611 57.2725 691.995 56.8946 692.478 56.6162C692.961 56.3378 693.5 56.1276 694.097 55.9855C694.693 55.8435 695.301 55.7355 695.921 55.6617C696.705 55.5708 697.341 55.4969 697.83 55.4401C698.318 55.3776 698.674 55.2781 698.895 55.1418C699.117 55.0054 699.228 54.7838 699.228 54.477V54.4173C699.228 53.673 699.017 53.0963 698.597 52.6872C698.182 52.2781 697.563 52.0736 696.739 52.0736C695.881 52.0736 695.205 52.2639 694.711 52.6446C694.222 53.0196 693.884 53.4372 693.696 53.8975L691.301 53.352C691.586 52.5566 692 51.9145 692.546 51.4259C693.097 50.9316 693.73 50.5736 694.446 50.352C695.162 50.1247 695.915 50.0111 696.705 50.0111C697.228 50.0111 697.782 50.0736 698.367 50.1986C698.958 50.3179 699.509 50.5395 700.02 50.8634C700.537 51.1872 700.961 51.6503 701.29 52.2526C701.62 52.8492 701.784 53.6247 701.784 54.5793V63.2725H699.296V61.4827H699.193C699.029 61.8122 698.782 62.1361 698.452 62.4543C698.122 62.7725 697.699 63.0367 697.182 63.2469C696.665 63.4571 696.046 63.5622 695.324 63.5622ZM695.878 61.5168C696.583 61.5168 697.185 61.3776 697.685 61.0992C698.191 60.8208 698.574 60.4571 698.836 60.0083C699.103 59.5537 699.236 59.0679 699.236 58.5509V56.8634C699.145 56.9543 698.969 57.0395 698.708 57.1191C698.452 57.1929 698.159 57.2583 697.83 57.3151C697.5 57.3662 697.179 57.4145 696.867 57.46C696.554 57.4997 696.293 57.5338 696.083 57.5622C695.588 57.6247 695.137 57.7298 694.728 57.8776C694.324 58.0253 694 58.2384 693.756 58.5168C693.517 58.7895 693.398 59.1531 693.398 59.6077C693.398 60.2384 693.631 60.7156 694.097 61.0395C694.563 61.3577 695.157 61.5168 695.878 61.5168ZM704.927 63.2725V45.8179H707.475V52.3037H707.629C707.777 52.031 707.99 51.7156 708.268 51.3577C708.546 50.9997 708.933 50.6872 709.427 50.4202C709.921 50.1475 710.575 50.0111 711.387 50.0111C712.444 50.0111 713.387 50.2781 714.217 50.8122C715.046 51.3463 715.697 52.1162 716.169 53.1219C716.646 54.1276 716.885 55.3378 716.885 56.7526C716.885 58.1673 716.649 59.3804 716.177 60.3918C715.706 61.3975 715.058 62.173 714.234 62.7185C713.41 63.2583 712.47 63.5281 711.413 63.5281C710.617 63.5281 709.967 63.3946 709.461 63.1276C708.961 62.8605 708.569 62.548 708.285 62.1901C708.001 61.8321 707.782 61.5139 707.629 61.2355H707.416V63.2725H704.927ZM707.424 56.727C707.424 57.6475 707.558 58.4543 707.825 59.1475C708.092 59.8406 708.478 60.3833 708.984 60.7753C709.49 61.1617 710.109 61.3548 710.842 61.3548C711.603 61.3548 712.24 61.1531 712.751 60.7497C713.262 60.3406 713.649 59.7867 713.91 59.0878C714.177 58.3889 714.311 57.602 714.311 56.727C714.311 55.8634 714.18 55.0878 713.919 54.4003C713.663 53.7128 713.277 53.1702 712.76 52.7725C712.248 52.3747 711.609 52.1759 710.842 52.1759C710.103 52.1759 709.478 52.3662 708.967 52.7469C708.461 53.1276 708.078 53.6588 707.816 54.3406C707.555 55.0225 707.424 55.8179 707.424 56.727ZM724.804 63.5367C723.577 63.5367 722.506 63.2554 721.591 62.6929C720.676 62.1304 719.966 61.3435 719.46 60.3321C718.955 59.3208 718.702 58.1389 718.702 56.7867C718.702 55.4287 718.955 54.2412 719.46 53.2242C719.966 52.2071 720.676 51.4173 721.591 50.8548C722.506 50.2923 723.577 50.0111 724.804 50.0111C726.031 50.0111 727.103 50.2923 728.017 50.8548C728.932 51.4173 729.642 52.2071 730.148 53.2242C730.654 54.2412 730.906 55.4287 730.906 56.7867C730.906 58.1389 730.654 59.3208 730.148 60.3321C729.642 61.3435 728.932 62.1304 728.017 62.6929C727.103 63.2554 726.031 63.5367 724.804 63.5367ZM724.813 61.3975C725.608 61.3975 726.267 61.1872 726.79 60.7668C727.313 60.3463 727.699 59.7867 727.949 59.0878C728.205 58.3889 728.333 57.6191 728.333 56.7781C728.333 55.9429 728.205 55.1759 727.949 54.477C727.699 53.7725 727.313 53.2071 726.79 52.781C726.267 52.3548 725.608 52.1418 724.813 52.1418C724.012 52.1418 723.347 52.3548 722.818 52.781C722.296 53.2071 721.906 53.7725 721.651 54.477C721.401 55.1759 721.276 55.9429 721.276 56.7781C721.276 57.6191 721.401 58.3889 721.651 59.0878C721.906 59.7867 722.296 60.3463 722.818 60.7668C723.347 61.1872 724.012 61.3975 724.813 61.3975ZM741.588 57.8435V50.1816H744.144V63.2725H741.639V61.0054H741.502C741.201 61.7043 740.718 62.2867 740.053 62.7526C739.394 63.2128 738.573 63.4429 737.59 63.4429C736.749 63.4429 736.005 63.2583 735.357 62.8889C734.715 62.5139 734.21 61.96 733.84 61.227C733.477 60.4941 733.295 59.5878 733.295 58.5083V50.1816H735.843V58.2014C735.843 59.0935 736.09 59.8037 736.585 60.3321C737.079 60.8605 737.721 61.1247 738.511 61.1247C738.988 61.1247 739.463 61.0054 739.934 60.7668C740.411 60.5281 740.806 60.1673 741.119 59.6844C741.437 59.2014 741.593 58.5878 741.588 57.8435ZM753.223 50.1816V52.227H746.073V50.1816H753.223ZM747.99 47.0452H750.539V59.4287C750.539 59.923 750.612 60.2952 750.76 60.5452C750.908 60.7895 751.098 60.9571 751.331 61.048C751.57 61.1333 751.828 61.1759 752.107 61.1759C752.311 61.1759 752.49 61.1617 752.644 61.1333C752.797 61.1048 752.916 61.0821 753.002 61.0651L753.462 63.1702C753.314 63.227 753.104 63.2838 752.831 63.3406C752.558 63.4031 752.217 63.4372 751.808 63.4429C751.138 63.4543 750.513 63.335 749.933 63.085C749.354 62.835 748.885 62.4486 748.527 61.9259C748.169 61.4031 747.99 60.7469 747.99 59.9571V47.0452ZM775.774 45.8179V63.2725H773.354L764.482 50.4713H764.32V63.2725H761.686V45.8179H764.124L773.004 58.6361H773.166V45.8179H775.774ZM784.597 63.5367C783.308 63.5367 782.197 63.2611 781.265 62.71C780.339 62.1531 779.623 61.3719 779.117 60.3662C778.617 59.3548 778.367 58.1702 778.367 56.8122C778.367 55.4713 778.617 54.2895 779.117 53.2668C779.623 52.2441 780.327 51.4458 781.231 50.8719C782.14 50.298 783.202 50.0111 784.418 50.0111C785.157 50.0111 785.873 50.1333 786.566 50.3776C787.259 50.6219 787.881 51.0054 788.433 51.5281C788.984 52.0509 789.418 52.7298 789.737 53.5651C790.055 54.3946 790.214 55.4031 790.214 56.5906V57.4941H779.808V55.585H787.717C787.717 54.9145 787.58 54.3208 787.308 53.8037C787.035 53.281 786.651 52.8691 786.157 52.5679C785.668 52.2668 785.095 52.1162 784.435 52.1162C783.72 52.1162 783.095 52.2923 782.56 52.6446C782.032 52.9912 781.623 53.4458 781.333 54.0083C781.049 54.5651 780.907 55.1702 780.907 55.8236V57.3151C780.907 58.1901 781.06 58.9344 781.367 59.548C781.68 60.1617 782.114 60.6304 782.671 60.9543C783.228 61.2725 783.879 61.4316 784.623 61.4316C785.106 61.4316 785.546 61.3634 785.944 61.227C786.342 61.085 786.685 60.8747 786.975 60.5963C787.265 60.3179 787.487 59.9742 787.64 59.5651L790.052 59.9997C789.859 60.71 789.512 61.3321 789.012 61.8662C788.518 62.3946 787.896 62.8066 787.146 63.102C786.401 63.3918 785.552 63.5367 784.597 63.5367ZM794.292 50.1816L797.181 55.2781L800.096 50.1816H802.883L798.8 56.727L802.917 63.2725H800.13L797.181 58.3804L794.241 63.2725H791.445L795.519 56.727L791.496 50.1816H794.292ZM811.154 50.1816V52.227H804.004V50.1816H811.154ZM805.921 47.0452H808.469V59.4287C808.469 59.923 808.543 60.2952 808.691 60.5452C808.839 60.7895 809.029 60.9571 809.262 61.048C809.501 61.1333 809.759 61.1759 810.038 61.1759C810.242 61.1759 810.421 61.1617 810.575 61.1333C810.728 61.1048 810.847 61.0821 810.933 61.0651L811.393 63.1702C811.245 63.227 811.035 63.2838 810.762 63.3406C810.489 63.4031 810.148 63.4372 809.739 63.4429C809.069 63.4543 808.444 63.335 807.864 63.085C807.285 62.835 806.816 62.4486 806.458 61.9259C806.1 61.4031 805.921 60.7469 805.921 59.9571V47.0452ZM569.523 89.3776L567.213 89.7867C567.116 89.4912 566.963 89.21 566.753 88.9429C566.548 88.6759 566.27 88.4571 565.918 88.2867C565.565 88.1162 565.125 88.031 564.597 88.031C563.875 88.031 563.273 88.1929 562.79 88.5168C562.307 88.835 562.065 89.2469 562.065 89.7526C562.065 90.1901 562.227 90.5423 562.551 90.8094C562.875 91.0764 563.398 91.2952 564.119 91.4656L566.199 91.9429C567.403 92.2213 568.301 92.6503 568.892 93.2298C569.483 93.8094 569.778 94.5622 569.778 95.4884C569.778 96.2725 569.551 96.9713 569.097 97.585C568.648 98.1929 568.02 98.6702 567.213 99.0168C566.412 99.3634 565.483 99.5367 564.426 99.5367C562.96 99.5367 561.764 99.2242 560.838 98.5992C559.912 97.9685 559.344 97.0736 559.134 95.9145L561.597 95.5395C561.75 96.1816 562.065 96.6673 562.543 96.9969C563.02 97.3208 563.642 97.4827 564.409 97.4827C565.244 97.4827 565.912 97.3094 566.412 96.9628C566.912 96.6105 567.162 96.1816 567.162 95.6759C567.162 95.2668 567.009 94.923 566.702 94.6446C566.401 94.3662 565.938 94.156 565.312 94.0139L563.097 93.5281C561.875 93.2497 560.972 92.8066 560.386 92.1986C559.807 91.5906 559.517 90.8208 559.517 89.8889C559.517 89.1162 559.733 88.4401 560.165 87.8605C560.597 87.281 561.193 86.8293 561.955 86.5054C562.716 86.1759 563.588 86.0111 564.571 86.0111C565.986 86.0111 567.099 86.3179 567.912 86.9316C568.724 87.5395 569.261 88.3548 569.523 89.3776ZM578.235 86.1816V88.227H571.084V86.1816H578.235ZM573.002 83.0452H575.55V95.4287C575.55 95.923 575.624 96.2952 575.772 96.5452C575.92 96.7895 576.11 96.9571 576.343 97.048C576.582 97.1333 576.84 97.1759 577.119 97.1759C577.323 97.1759 577.502 97.1617 577.656 97.1333C577.809 97.1048 577.928 97.0821 578.013 97.0651L578.474 99.1702C578.326 99.227 578.116 99.2838 577.843 99.3406C577.57 99.4031 577.229 99.4372 576.82 99.4429C576.15 99.4543 575.525 99.335 574.945 99.085C574.366 98.835 573.897 98.4486 573.539 97.9259C573.181 97.4031 573.002 96.7469 573.002 95.9571V83.0452ZM586.099 99.5367C584.81 99.5367 583.699 99.2611 582.767 98.71C581.841 98.1531 581.125 97.3719 580.619 96.3662C580.119 95.3548 579.869 94.1702 579.869 92.8122C579.869 91.4713 580.119 90.2895 580.619 89.2668C581.125 88.2441 581.829 87.4458 582.733 86.8719C583.642 86.298 584.704 86.0111 585.92 86.0111C586.659 86.0111 587.375 86.1333 588.068 86.3776C588.761 86.6219 589.383 87.0054 589.935 87.5281C590.486 88.0509 590.92 88.7298 591.239 89.5651C591.557 90.3946 591.716 91.4031 591.716 92.5906V93.4941H581.31V91.585H589.219C589.219 90.9145 589.082 90.3208 588.81 89.8037C588.537 89.281 588.153 88.8691 587.659 88.5679C587.17 88.2668 586.597 88.1162 585.937 88.1162C585.222 88.1162 584.597 88.2923 584.062 88.6446C583.534 88.9912 583.125 89.4458 582.835 90.0083C582.551 90.5651 582.409 91.1702 582.409 91.8236V93.3151C582.409 94.1901 582.562 94.9344 582.869 95.548C583.182 96.1617 583.616 96.6304 584.173 96.9543C584.73 97.2725 585.381 97.4316 586.125 97.4316C586.608 97.4316 587.048 97.3634 587.446 97.227C587.844 97.085 588.187 96.8747 588.477 96.5963C588.767 96.3179 588.989 95.9742 589.142 95.5651L591.554 95.9997C591.361 96.71 591.014 97.3321 590.514 97.8662C590.02 98.3946 589.398 98.8066 588.648 99.102C587.903 99.3918 587.054 99.5367 586.099 99.5367ZM594.087 104.182V86.1816H596.576V88.3037H596.789C596.937 88.031 597.15 87.7156 597.428 87.3577C597.707 86.9997 598.093 86.6872 598.587 86.4202C599.082 86.1475 599.735 86.0111 600.547 86.0111C601.604 86.0111 602.547 86.2781 603.377 86.8122C604.207 87.3463 604.857 88.1162 605.329 89.1219C605.806 90.1276 606.045 91.3378 606.045 92.7526C606.045 94.1673 605.809 95.3804 605.337 96.3918C604.866 97.3975 604.218 98.173 603.394 98.7185C602.57 99.2583 601.63 99.5281 600.573 99.5281C599.778 99.5281 599.127 99.3946 598.621 99.1276C598.121 98.8605 597.729 98.548 597.445 98.1901C597.161 97.8321 596.942 97.5139 596.789 97.2355H596.636V104.182H594.087ZM596.584 92.727C596.584 93.6475 596.718 94.4543 596.985 95.1475C597.252 95.8406 597.638 96.3833 598.144 96.7753C598.65 97.1617 599.269 97.3548 600.002 97.3548C600.763 97.3548 601.4 97.1531 601.911 96.7497C602.422 96.3406 602.809 95.7867 603.07 95.0878C603.337 94.3889 603.471 93.602 603.471 92.727C603.471 91.8634 603.34 91.0878 603.079 90.4003C602.823 89.7128 602.437 89.1702 601.92 88.7725C601.408 88.3747 600.769 88.1759 600.002 88.1759C599.263 88.1759 598.638 88.3662 598.127 88.7469C597.621 89.1276 597.238 89.6588 596.976 90.3406C596.715 91.0225 596.584 91.8179 596.584 92.727ZM618.253 89.3776L615.944 89.7867C615.847 89.4912 615.694 89.21 615.484 88.9429C615.279 88.6759 615.001 88.4571 614.648 88.2867C614.296 88.1162 613.856 88.031 613.327 88.031C612.606 88.031 612.003 88.1929 611.52 88.5168C611.038 88.835 610.796 89.2469 610.796 89.7526C610.796 90.1901 610.958 90.5423 611.282 90.8094C611.606 91.0764 612.128 91.2952 612.85 91.4656L614.93 91.9429C616.134 92.2213 617.032 92.6503 617.623 93.2298C618.214 93.8094 618.509 94.5622 618.509 95.4884C618.509 96.2725 618.282 96.9713 617.827 97.585C617.378 98.1929 616.751 98.6702 615.944 99.0168C615.143 99.3634 614.214 99.5367 613.157 99.5367C611.691 99.5367 610.495 99.2242 609.569 98.5992C608.643 97.9685 608.074 97.0736 607.864 95.9145L610.327 95.5395C610.481 96.1816 610.796 96.6673 611.273 96.9969C611.751 97.3208 612.373 97.4827 613.14 97.4827C613.975 97.4827 614.643 97.3094 615.143 96.9628C615.643 96.6105 615.893 96.1816 615.893 95.6759C615.893 95.2668 615.739 94.923 615.432 94.6446C615.131 94.3662 614.668 94.156 614.043 94.0139L611.827 93.5281C610.606 93.2497 609.702 92.8066 609.117 92.1986C608.538 91.5906 608.248 90.8208 608.248 89.8889C608.248 89.1162 608.464 88.4401 608.895 87.8605C609.327 87.281 609.924 86.8293 610.685 86.5054C611.447 86.1759 612.319 86.0111 613.302 86.0111C614.716 86.0111 615.83 86.3179 616.643 86.9316C617.455 87.5395 617.992 88.3548 618.253 89.3776ZM525.392 171.272H522.597L528.878 153.818H531.92L538.202 171.272H535.406L530.472 156.988H530.335L525.392 171.272ZM525.861 164.437H534.929V166.653H525.861V164.437ZM545.365 171.537C544.098 171.537 543.007 171.25 542.092 170.676C541.183 170.096 540.484 169.298 539.996 168.281C539.507 167.264 539.263 166.099 539.263 164.787C539.263 163.457 539.513 162.284 540.013 161.267C540.513 160.244 541.217 159.446 542.126 158.872C543.035 158.298 544.107 158.011 545.339 158.011C546.334 158.011 547.22 158.196 547.999 158.565C548.777 158.929 549.405 159.44 549.882 160.099C550.365 160.758 550.652 161.528 550.743 162.409H548.263C548.126 161.795 547.814 161.267 547.325 160.824C546.842 160.38 546.195 160.159 545.382 160.159C544.672 160.159 544.05 160.346 543.516 160.721C542.987 161.091 542.575 161.619 542.28 162.307C541.984 162.988 541.837 163.795 541.837 164.727C541.837 165.682 541.982 166.505 542.271 167.199C542.561 167.892 542.97 168.429 543.499 168.809C544.033 169.19 544.66 169.38 545.382 169.38C545.865 169.38 546.303 169.292 546.695 169.116C547.092 168.934 547.425 168.676 547.692 168.341C547.964 168.005 548.155 167.602 548.263 167.13H550.743C550.652 167.977 550.376 168.733 549.916 169.397C549.456 170.062 548.839 170.585 548.067 170.966C547.3 171.346 546.399 171.537 545.365 171.537ZM559.123 158.182V160.227H551.972V158.182H559.123ZM553.89 155.045H556.438V167.429C556.438 167.923 556.512 168.295 556.66 168.545C556.807 168.79 556.998 168.957 557.231 169.048C557.469 169.133 557.728 169.176 558.006 169.176C558.211 169.176 558.39 169.162 558.543 169.133C558.697 169.105 558.816 169.082 558.901 169.065L559.361 171.17C559.214 171.227 559.003 171.284 558.731 171.341C558.458 171.403 558.117 171.437 557.708 171.443C557.038 171.454 556.413 171.335 555.833 171.085C555.253 170.835 554.785 170.449 554.427 169.926C554.069 169.403 553.89 168.747 553.89 167.957V155.045ZM561.486 171.272V158.182H564.034V171.272H561.486ZM562.773 156.162C562.329 156.162 561.949 156.014 561.631 155.718C561.318 155.417 561.162 155.059 561.162 154.645C561.162 154.224 561.318 153.866 561.631 153.571C561.949 153.27 562.329 153.119 562.773 153.119C563.216 153.119 563.594 153.27 563.906 153.571C564.224 153.866 564.383 154.224 564.383 154.645C564.383 155.059 564.224 155.417 563.906 155.718C563.594 156.014 563.216 156.162 562.773 156.162ZM572.52 171.537C571.293 171.537 570.222 171.255 569.307 170.693C568.393 170.13 567.682 169.343 567.177 168.332C566.671 167.321 566.418 166.139 566.418 164.787C566.418 163.429 566.671 162.241 567.177 161.224C567.682 160.207 568.393 159.417 569.307 158.855C570.222 158.292 571.293 158.011 572.52 158.011C573.748 158.011 574.819 158.292 575.734 158.855C576.648 159.417 577.359 160.207 577.864 161.224C578.37 162.241 578.623 163.429 578.623 164.787C578.623 166.139 578.37 167.321 577.864 168.332C577.359 169.343 576.648 170.13 575.734 170.693C574.819 171.255 573.748 171.537 572.52 171.537ZM572.529 169.397C573.324 169.397 573.984 169.187 574.506 168.767C575.029 168.346 575.415 167.787 575.665 167.088C575.921 166.389 576.049 165.619 576.049 164.778C576.049 163.943 575.921 163.176 575.665 162.477C575.415 161.772 575.029 161.207 574.506 160.781C573.984 160.355 573.324 160.142 572.529 160.142C571.728 160.142 571.063 160.355 570.535 160.781C570.012 161.207 569.623 161.772 569.367 162.477C569.117 163.176 568.992 163.943 568.992 164.778C568.992 165.619 569.117 166.389 569.367 167.088C569.623 167.787 570.012 168.346 570.535 168.767C571.063 169.187 571.728 169.397 572.529 169.397ZM583.559 163.5V171.272H581.011V158.182H583.457V160.312H583.619C583.92 159.619 584.392 159.062 585.034 158.642C585.682 158.221 586.497 158.011 587.48 158.011C588.372 158.011 589.153 158.199 589.824 158.574C590.494 158.943 591.014 159.494 591.383 160.227C591.753 160.96 591.937 161.866 591.937 162.946V171.272H589.389V163.253C589.389 162.304 589.142 161.562 588.648 161.028C588.153 160.488 587.474 160.218 586.611 160.218C586.02 160.218 585.494 160.346 585.034 160.602C584.579 160.858 584.219 161.233 583.952 161.727C583.69 162.216 583.559 162.807 583.559 163.5ZM600.999 171.272V153.818H603.547V160.304H603.701C603.848 160.031 604.062 159.716 604.34 159.358C604.618 159 605.005 158.687 605.499 158.42C605.993 158.147 606.647 158.011 607.459 158.011C608.516 158.011 609.459 158.278 610.289 158.812C611.118 159.346 611.769 160.116 612.241 161.122C612.718 162.128 612.956 163.338 612.956 164.753C612.956 166.167 612.721 167.38 612.249 168.392C611.777 169.397 611.13 170.173 610.306 170.718C609.482 171.258 608.542 171.528 607.485 171.528C606.689 171.528 606.039 171.395 605.533 171.128C605.033 170.861 604.641 170.548 604.357 170.19C604.073 169.832 603.854 169.514 603.701 169.236H603.488V171.272H600.999ZM603.496 164.727C603.496 165.647 603.63 166.454 603.897 167.147C604.164 167.841 604.55 168.383 605.056 168.775C605.562 169.162 606.181 169.355 606.914 169.355C607.675 169.355 608.312 169.153 608.823 168.75C609.334 168.341 609.721 167.787 609.982 167.088C610.249 166.389 610.383 165.602 610.383 164.727C610.383 163.863 610.252 163.088 609.991 162.4C609.735 161.713 609.348 161.17 608.831 160.772C608.32 160.375 607.681 160.176 606.914 160.176C606.175 160.176 605.55 160.366 605.039 160.747C604.533 161.128 604.15 161.659 603.888 162.341C603.627 163.022 603.496 163.818 603.496 164.727ZM623.655 165.843V158.182H626.211V171.272H623.706V169.005H623.569C623.268 169.704 622.785 170.287 622.12 170.753C621.461 171.213 620.64 171.443 619.657 171.443C618.816 171.443 618.072 171.258 617.424 170.889C616.782 170.514 616.277 169.96 615.907 169.227C615.544 168.494 615.362 167.588 615.362 166.508V158.182H617.91V166.201C617.91 167.093 618.157 167.804 618.652 168.332C619.146 168.861 619.788 169.125 620.578 169.125C621.055 169.125 621.53 169.005 622.001 168.767C622.478 168.528 622.873 168.167 623.186 167.684C623.504 167.201 623.66 166.588 623.655 165.843ZM635.29 158.182V160.227H628.14V158.182H635.29ZM630.057 155.045H632.606V167.429C632.606 167.923 632.679 168.295 632.827 168.545C632.975 168.79 633.165 168.957 633.398 169.048C633.637 169.133 633.895 169.176 634.174 169.176C634.378 169.176 634.557 169.162 634.711 169.133C634.864 169.105 634.983 169.082 635.069 169.065L635.529 171.17C635.381 171.227 635.171 171.284 634.898 171.341C634.625 171.403 634.284 171.437 633.875 171.443C633.205 171.454 632.58 171.335 632 171.085C631.421 170.835 630.952 170.449 630.594 169.926C630.236 169.403 630.057 168.747 630.057 167.957V155.045ZM643.764 158.182V160.227H636.613V158.182H643.764ZM638.531 155.045H641.079V167.429C641.079 167.923 641.153 168.295 641.301 168.545C641.449 168.79 641.639 168.957 641.872 169.048C642.11 169.133 642.369 169.176 642.647 169.176C642.852 169.176 643.031 169.162 643.184 169.133C643.338 169.105 643.457 169.082 643.542 169.065L644.003 171.17C643.855 171.227 643.645 171.284 643.372 171.341C643.099 171.403 642.758 171.437 642.349 171.443C641.679 171.454 641.054 171.335 640.474 171.085C639.895 170.835 639.426 170.449 639.068 169.926C638.71 169.403 638.531 168.747 638.531 167.957V155.045ZM651.5 171.537C650.273 171.537 649.202 171.255 648.287 170.693C647.372 170.13 646.662 169.343 646.157 168.332C645.651 167.321 645.398 166.139 645.398 164.787C645.398 163.429 645.651 162.241 646.157 161.224C646.662 160.207 647.372 159.417 648.287 158.855C649.202 158.292 650.273 158.011 651.5 158.011C652.728 158.011 653.799 158.292 654.713 158.855C655.628 159.417 656.338 160.207 656.844 161.224C657.35 162.241 657.603 163.429 657.603 164.787C657.603 166.139 657.35 167.321 656.844 168.332C656.338 169.343 655.628 170.13 654.713 170.693C653.799 171.255 652.728 171.537 651.5 171.537ZM651.509 169.397C652.304 169.397 652.963 169.187 653.486 168.767C654.009 168.346 654.395 167.787 654.645 167.088C654.901 166.389 655.029 165.619 655.029 164.778C655.029 163.943 654.901 163.176 654.645 162.477C654.395 161.772 654.009 161.207 653.486 160.781C652.963 160.355 652.304 160.142 651.509 160.142C650.708 160.142 650.043 160.355 649.515 160.781C648.992 161.207 648.603 161.772 648.347 162.477C648.097 163.176 647.972 163.943 647.972 164.778C647.972 165.619 648.097 166.389 648.347 167.088C648.603 167.787 648.992 168.346 649.515 168.767C650.043 169.187 650.708 169.397 651.509 169.397ZM662.539 163.5V171.272H659.991V158.182H662.437V160.312H662.599C662.9 159.619 663.372 159.062 664.014 158.642C664.662 158.221 665.477 158.011 666.46 158.011C667.352 158.011 668.133 158.199 668.804 158.574C669.474 158.943 669.994 159.494 670.363 160.227C670.733 160.96 670.917 161.866 670.917 162.946V171.272H668.369V163.253C668.369 162.304 668.122 161.562 667.627 161.028C667.133 160.488 666.454 160.218 665.59 160.218C665 160.218 664.474 160.346 664.014 160.602C663.559 160.858 663.198 161.233 662.931 161.727C662.67 162.216 662.539 162.807 662.539 163.5ZM687.487 161.437V163.653H679.749V161.437H687.487ZM711.025 159.494H708.366C708.264 158.926 708.073 158.426 707.795 157.994C707.516 157.562 707.176 157.196 706.772 156.895C706.369 156.593 705.917 156.366 705.417 156.213C704.923 156.059 704.397 155.983 703.84 155.983C702.835 155.983 701.934 156.236 701.139 156.741C700.349 157.247 699.724 157.988 699.264 158.966C698.809 159.943 698.582 161.136 698.582 162.545C698.582 163.966 698.809 165.165 699.264 166.142C699.724 167.119 700.352 167.858 701.147 168.358C701.943 168.858 702.838 169.108 703.832 169.108C704.383 169.108 704.906 169.034 705.4 168.886C705.9 168.733 706.352 168.508 706.755 168.213C707.159 167.917 707.499 167.557 707.778 167.13C708.062 166.699 708.258 166.204 708.366 165.647L711.025 165.656C710.883 166.514 710.607 167.304 710.198 168.025C709.795 168.741 709.275 169.361 708.639 169.883C708.008 170.4 707.286 170.801 706.474 171.085C705.661 171.369 704.775 171.511 703.815 171.511C702.303 171.511 700.957 171.153 699.775 170.437C698.593 169.716 697.661 168.684 696.98 167.343C696.303 166.003 695.965 164.403 695.965 162.545C695.965 160.682 696.306 159.082 696.988 157.747C697.67 156.406 698.602 155.378 699.784 154.662C700.965 153.94 702.309 153.579 703.815 153.579C704.741 153.579 705.605 153.713 706.406 153.98C707.213 154.241 707.937 154.628 708.579 155.139C709.221 155.645 709.752 156.264 710.173 156.997C710.593 157.724 710.877 158.557 711.025 159.494ZM719.03 171.537C717.803 171.537 716.732 171.255 715.817 170.693C714.902 170.13 714.192 169.343 713.686 168.332C713.181 167.321 712.928 166.139 712.928 164.787C712.928 163.429 713.181 162.241 713.686 161.224C714.192 160.207 714.902 159.417 715.817 158.855C716.732 158.292 717.803 158.011 719.03 158.011C720.257 158.011 721.328 158.292 722.243 158.855C723.158 159.417 723.868 160.207 724.374 161.224C724.879 162.241 725.132 163.429 725.132 164.787C725.132 166.139 724.879 167.321 724.374 168.332C723.868 169.343 723.158 170.13 722.243 170.693C721.328 171.255 720.257 171.537 719.03 171.537ZM719.038 169.397C719.834 169.397 720.493 169.187 721.016 168.767C721.538 168.346 721.925 167.787 722.175 167.088C722.431 166.389 722.558 165.619 722.558 164.778C722.558 163.943 722.431 163.176 722.175 162.477C721.925 161.772 721.538 161.207 721.016 160.781C720.493 160.355 719.834 160.142 719.038 160.142C718.237 160.142 717.573 160.355 717.044 160.781C716.521 161.207 716.132 161.772 715.877 162.477C715.627 163.176 715.502 163.943 715.502 164.778C715.502 165.619 715.627 166.389 715.877 167.088C716.132 167.787 716.521 168.346 717.044 168.767C717.573 169.187 718.237 169.397 719.038 169.397ZM727.521 171.272V158.182H729.967V160.312H730.129C730.401 159.591 730.847 159.028 731.467 158.625C732.086 158.216 732.828 158.011 733.691 158.011C734.566 158.011 735.299 158.216 735.89 158.625C736.487 159.034 736.927 159.596 737.211 160.312H737.347C737.66 159.613 738.157 159.057 738.839 158.642C739.521 158.221 740.333 158.011 741.276 158.011C742.464 158.011 743.433 158.383 744.183 159.128C744.938 159.872 745.316 160.994 745.316 162.494V171.272H742.768V162.733C742.768 161.846 742.526 161.204 742.043 160.807C741.56 160.409 740.984 160.21 740.313 160.21C739.484 160.21 738.839 160.466 738.379 160.977C737.918 161.483 737.688 162.133 737.688 162.929V171.272H735.149V162.571C735.149 161.861 734.927 161.29 734.484 160.858C734.041 160.426 733.464 160.21 732.754 160.21C732.271 160.21 731.825 160.338 731.416 160.593C731.012 160.843 730.685 161.193 730.435 161.642C730.191 162.091 730.069 162.611 730.069 163.201V171.272H727.521ZM748.276 176.182V158.182H750.764V160.304H750.977C751.125 160.031 751.338 159.716 751.617 159.358C751.895 159 752.281 158.687 752.776 158.42C753.27 158.147 753.923 158.011 754.736 158.011C755.793 158.011 756.736 158.278 757.565 158.812C758.395 159.346 759.046 160.116 759.517 161.122C759.994 162.128 760.233 163.338 760.233 164.753C760.233 166.167 759.997 167.38 759.526 168.392C759.054 169.397 758.406 170.173 757.582 170.718C756.759 171.258 755.818 171.528 754.761 171.528C753.966 171.528 753.315 171.395 752.81 171.128C752.31 170.861 751.918 170.548 751.634 170.19C751.349 169.832 751.131 169.514 750.977 169.236H750.824V176.182H748.276ZM750.773 164.727C750.773 165.647 750.906 166.454 751.173 167.147C751.44 167.841 751.827 168.383 752.332 168.775C752.838 169.162 753.457 169.355 754.19 169.355C754.952 169.355 755.588 169.153 756.099 168.75C756.611 168.341 756.997 167.787 757.259 167.088C757.526 166.389 757.659 165.602 757.659 164.727C757.659 163.863 757.528 163.088 757.267 162.4C757.011 161.713 756.625 161.17 756.108 160.772C755.597 160.375 754.957 160.176 754.19 160.176C753.452 160.176 752.827 160.366 752.315 160.747C751.81 161.128 751.426 161.659 751.165 162.341C750.903 163.022 750.773 163.818 750.773 164.727ZM765.18 153.818V171.272H762.632V153.818H765.18ZM773.795 171.537C772.505 171.537 771.394 171.261 770.462 170.71C769.536 170.153 768.82 169.372 768.315 168.366C767.815 167.355 767.565 166.17 767.565 164.812C767.565 163.471 767.815 162.29 768.315 161.267C768.82 160.244 769.525 159.446 770.428 158.872C771.337 158.298 772.4 158.011 773.616 158.011C774.354 158.011 775.07 158.133 775.763 158.378C776.457 158.622 777.079 159.005 777.63 159.528C778.181 160.051 778.616 160.73 778.934 161.565C779.252 162.395 779.411 163.403 779.411 164.591V165.494H769.005V163.585H776.914C776.914 162.915 776.778 162.321 776.505 161.804C776.232 161.281 775.849 160.869 775.354 160.568C774.866 160.267 774.292 160.116 773.633 160.116C772.917 160.116 772.292 160.292 771.758 160.645C771.229 160.991 770.82 161.446 770.531 162.008C770.246 162.565 770.104 163.17 770.104 163.824V165.315C770.104 166.19 770.258 166.934 770.565 167.548C770.877 168.162 771.312 168.63 771.869 168.954C772.425 169.272 773.076 169.432 773.82 169.432C774.303 169.432 774.744 169.363 775.141 169.227C775.539 169.085 775.883 168.875 776.173 168.596C776.462 168.318 776.684 167.974 776.837 167.565L779.249 168C779.056 168.71 778.71 169.332 778.21 169.866C777.715 170.395 777.093 170.807 776.343 171.102C775.599 171.392 774.749 171.537 773.795 171.537ZM787.893 158.182V160.227H780.743V158.182H787.893ZM782.66 155.045H785.209V167.429C785.209 167.923 785.283 168.295 785.43 168.545C785.578 168.79 785.768 168.957 786.001 169.048C786.24 169.133 786.499 169.176 786.777 169.176C786.981 169.176 787.16 169.162 787.314 169.133C787.467 169.105 787.587 169.082 787.672 169.065L788.132 171.17C787.984 171.227 787.774 171.284 787.501 171.341C787.229 171.403 786.888 171.437 786.479 171.443C785.808 171.454 785.183 171.335 784.604 171.085C784.024 170.835 783.555 170.449 783.197 169.926C782.839 169.403 782.66 168.747 782.66 167.957V155.045ZM795.758 171.537C794.468 171.537 793.357 171.261 792.425 170.71C791.499 170.153 790.783 169.372 790.278 168.366C789.778 167.355 789.528 166.17 789.528 164.812C789.528 163.471 789.778 162.29 790.278 161.267C790.783 160.244 791.488 159.446 792.391 158.872C793.3 158.298 794.363 158.011 795.579 158.011C796.317 158.011 797.033 158.133 797.726 158.378C798.42 158.622 799.042 159.005 799.593 159.528C800.144 160.051 800.579 160.73 800.897 161.565C801.215 162.395 801.374 163.403 801.374 164.591V165.494H790.968V163.585H798.877C798.877 162.915 798.741 162.321 798.468 161.804C798.195 161.281 797.812 160.869 797.317 160.568C796.829 160.267 796.255 160.116 795.596 160.116C794.88 160.116 794.255 160.292 793.721 160.645C793.192 160.991 792.783 161.446 792.494 162.008C792.209 162.565 792.067 163.17 792.067 163.824V165.315C792.067 166.19 792.221 166.934 792.528 167.548C792.84 168.162 793.275 168.63 793.832 168.954C794.388 169.272 795.039 169.432 795.783 169.432C796.266 169.432 796.707 169.363 797.104 169.227C797.502 169.085 797.846 168.875 798.136 168.596C798.425 168.318 798.647 167.974 798.8 167.565L801.212 168C801.019 168.71 800.673 169.332 800.173 169.866C799.678 170.395 799.056 170.807 798.306 171.102C797.562 171.392 796.712 171.537 795.758 171.537ZM533.523 197.378L531.213 197.787C531.116 197.491 530.963 197.21 530.753 196.943C530.548 196.676 530.27 196.457 529.918 196.287C529.565 196.116 529.125 196.031 528.597 196.031C527.875 196.031 527.273 196.193 526.79 196.517C526.307 196.835 526.065 197.247 526.065 197.753C526.065 198.19 526.227 198.542 526.551 198.809C526.875 199.076 527.398 199.295 528.119 199.466L530.199 199.943C531.403 200.221 532.301 200.65 532.892 201.23C533.483 201.809 533.778 202.562 533.778 203.488C533.778 204.272 533.551 204.971 533.097 205.585C532.648 206.193 532.02 206.67 531.213 207.017C530.412 207.363 529.483 207.537 528.426 207.537C526.96 207.537 525.764 207.224 524.838 206.599C523.912 205.968 523.344 205.074 523.134 203.915L525.597 203.54C525.75 204.182 526.065 204.667 526.543 204.997C527.02 205.321 527.642 205.483 528.409 205.483C529.244 205.483 529.912 205.309 530.412 204.963C530.912 204.611 531.162 204.182 531.162 203.676C531.162 203.267 531.009 202.923 530.702 202.645C530.401 202.366 529.938 202.156 529.312 202.014L527.097 201.528C525.875 201.25 524.972 200.807 524.386 200.199C523.807 199.591 523.517 198.821 523.517 197.889C523.517 197.116 523.733 196.44 524.165 195.861C524.597 195.281 525.193 194.829 525.955 194.505C526.716 194.176 527.588 194.011 528.571 194.011C529.986 194.011 531.099 194.318 531.912 194.932C532.724 195.54 533.261 196.355 533.523 197.378ZM541.766 207.537C540.477 207.537 539.366 207.261 538.434 206.71C537.508 206.153 536.792 205.372 536.286 204.366C535.786 203.355 535.536 202.17 535.536 200.812C535.536 199.471 535.786 198.29 536.286 197.267C536.792 196.244 537.496 195.446 538.4 194.872C539.309 194.298 540.371 194.011 541.587 194.011C542.326 194.011 543.042 194.133 543.735 194.378C544.428 194.622 545.05 195.005 545.602 195.528C546.153 196.051 546.587 196.73 546.906 197.565C547.224 198.395 547.383 199.403 547.383 200.591V201.494H536.977V199.585H544.886C544.886 198.915 544.749 198.321 544.477 197.804C544.204 197.281 543.82 196.869 543.326 196.568C542.837 196.267 542.263 196.116 541.604 196.116C540.888 196.116 540.263 196.292 539.729 196.645C539.201 196.991 538.792 197.446 538.502 198.008C538.218 198.565 538.076 199.17 538.076 199.824V201.315C538.076 202.19 538.229 202.934 538.536 203.548C538.849 204.162 539.283 204.63 539.84 204.954C540.397 205.272 541.048 205.432 541.792 205.432C542.275 205.432 542.715 205.363 543.113 205.227C543.511 205.085 543.854 204.875 544.144 204.596C544.434 204.318 544.656 203.974 544.809 203.565L547.221 204C547.028 204.71 546.681 205.332 546.181 205.866C545.687 206.395 545.065 206.807 544.315 207.102C543.57 207.392 542.721 207.537 541.766 207.537ZM555.865 194.182V196.227H548.714V194.182H555.865ZM550.632 191.045H553.18V203.429C553.18 203.923 553.254 204.295 553.402 204.545C553.55 204.79 553.74 204.957 553.973 205.048C554.212 205.133 554.47 205.176 554.749 205.176C554.953 205.176 555.132 205.162 555.285 205.133C555.439 205.105 555.558 205.082 555.643 205.065L556.104 207.17C555.956 207.227 555.746 207.284 555.473 207.341C555.2 207.403 554.859 207.437 554.45 207.443C553.78 207.454 553.155 207.335 552.575 207.085C551.996 206.835 551.527 206.449 551.169 205.926C550.811 205.403 550.632 204.747 550.632 203.957V191.045ZM566.52 201.843V194.182H569.077V207.272H566.572V205.005H566.435C566.134 205.704 565.651 206.287 564.986 206.753C564.327 207.213 563.506 207.443 562.523 207.443C561.682 207.443 560.938 207.258 560.29 206.889C559.648 206.514 559.143 205.96 558.773 205.227C558.41 204.494 558.228 203.588 558.228 202.508V194.182H560.776V202.201C560.776 203.093 561.023 203.804 561.518 204.332C562.012 204.861 562.654 205.125 563.444 205.125C563.921 205.125 564.395 205.005 564.867 204.767C565.344 204.528 565.739 204.167 566.052 203.684C566.37 203.201 566.526 202.588 566.52 201.843ZM572.045 212.182V194.182H574.534V196.304H574.747C574.895 196.031 575.108 195.716 575.386 195.358C575.665 195 576.051 194.687 576.545 194.42C577.04 194.147 577.693 194.011 578.506 194.011C579.562 194.011 580.506 194.278 581.335 194.812C582.165 195.346 582.815 196.116 583.287 197.122C583.764 198.128 584.003 199.338 584.003 200.753C584.003 202.167 583.767 203.38 583.295 204.392C582.824 205.397 582.176 206.173 581.352 206.718C580.528 207.258 579.588 207.528 578.531 207.528C577.736 207.528 577.085 207.395 576.579 207.128C576.079 206.861 575.687 206.548 575.403 206.19C575.119 205.832 574.9 205.514 574.747 205.236H574.594V212.182H572.045ZM574.542 200.727C574.542 201.647 574.676 202.454 574.943 203.147C575.21 203.841 575.596 204.383 576.102 204.775C576.608 205.162 577.227 205.355 577.96 205.355C578.721 205.355 579.358 205.153 579.869 204.75C580.381 204.341 580.767 203.787 581.028 203.088C581.295 202.389 581.429 201.602 581.429 200.727C581.429 199.863 581.298 199.088 581.037 198.4C580.781 197.713 580.395 197.17 579.878 196.772C579.366 196.375 578.727 196.176 577.96 196.176C577.221 196.176 576.596 196.366 576.085 196.747C575.579 197.128 575.196 197.659 574.935 198.341C574.673 199.022 574.542 199.818 574.542 200.727Z" fill="#1E1E1E"/>
<rect x="32" y="959" width="416" height="80" rx="6" fill="#9747FF"/>
</g>
<defs>
<clipPath id="clip0_552_2989">
<rect width="842" height="1072" fill="white"/>
</clipPath>
</defs>
</svg>
