<svg width="462" height="534" viewBox="0 0 462 534" fill="none" xmlns="http://www.w3.org/2000/svg">
<rect x="1" y="1" width="460" height="532" rx="8" fill="white"/>
<rect x="1" y="1" width="460" height="532" rx="8" stroke="black" stroke-width="2"/>
<path d="M41.288 55.2H43.904L48.92 69.888H48.992L54.032 55.2H56.552L50.408 72H47.408L41.288 55.2ZM62.6221 57.312H57.4861V55.2H70.1101V57.312H64.9741V72H62.6221V57.312ZM72.7398 55.2H77.7078C78.7798 55.2 79.6918 55.304 80.4438 55.512C81.2118 55.704 81.8358 55.992 82.3158 56.376C82.7958 56.744 83.1478 57.2 83.3718 57.744C83.5958 58.272 83.7078 58.864 83.7078 59.52C83.7078 60.432 83.4598 61.216 82.9638 61.872C82.4838 62.528 81.6998 63 80.6118 63.288V63.336C81.8918 63.608 82.8038 64.104 83.3478 64.824C83.9078 65.528 84.1878 66.392 84.1878 67.416C84.1878 68.872 83.7238 70 82.7958 70.8C81.8838 71.6 80.3478 72 78.1878 72H72.7398V55.2ZM78.1878 70.032C79.3878 70.032 80.2598 69.784 80.8038 69.288C81.3638 68.792 81.6438 68.088 81.6438 67.176C81.6438 66.28 81.3638 65.584 80.8038 65.088C80.2598 64.592 79.3878 64.344 78.1878 64.344H75.0918V70.032H78.1878ZM77.7078 62.376C78.9878 62.376 79.8998 62.144 80.4438 61.68C81.0038 61.2 81.2838 60.56 81.2838 59.76C81.2838 58.976 81.0038 58.352 80.4438 57.888C79.8998 57.408 78.9878 57.168 77.7078 57.168H75.0918V62.376H77.7078ZM92.9195 55.2H97.8875C98.9595 55.2 99.8715 55.304 100.624 55.512C101.392 55.704 102.016 55.992 102.496 56.376C102.976 56.744 103.328 57.2 103.552 57.744C103.776 58.272 103.888 58.864 103.888 59.52C103.888 60.432 103.64 61.216 103.144 61.872C102.664 62.528 101.88 63 100.792 63.288V63.336C102.072 63.608 102.984 64.104 103.528 64.824C104.088 65.528 104.368 66.392 104.368 67.416C104.368 68.872 103.904 70 102.976 70.8C102.064 71.6 100.528 72 98.3675 72H92.9195V55.2ZM98.3675 70.032C99.5675 70.032 100.44 69.784 100.984 69.288C101.544 68.792 101.824 68.088 101.824 67.176C101.824 66.28 101.544 65.584 100.984 65.088C100.44 64.592 99.5675 64.344 98.3675 64.344H95.2715V70.032H98.3675ZM97.8875 62.376C99.1675 62.376 100.08 62.144 100.624 61.68C101.184 61.2 101.464 60.56 101.464 59.76C101.464 58.976 101.184 58.352 100.624 57.888C100.08 57.408 99.1675 57.168 97.8875 57.168H95.2715V62.376H97.8875ZM117.984 72H115.728V70.248H115.68C115.216 70.904 114.632 71.392 113.928 71.712C113.24 72.032 112.464 72.192 111.6 72.192C110.16 72.192 109.024 71.768 108.192 70.92C107.36 70.056 106.944 68.736 106.944 66.96V59.76H109.2V66.24C109.2 67.04 109.264 67.704 109.392 68.232C109.536 68.76 109.728 69.184 109.968 69.504C110.224 69.808 110.528 70.032 110.88 70.176C111.248 70.304 111.648 70.368 112.08 70.368C113.184 70.368 114.064 69.976 114.72 69.192C115.392 68.392 115.728 67.168 115.728 65.52V59.76H117.984V72ZM125.072 72.192C124.256 72.192 123.552 72.128 122.96 72C122.384 71.856 121.872 71.696 121.424 71.52V69.528C122.24 69.896 122.944 70.128 123.536 70.224C124.144 70.304 124.584 70.344 124.856 70.344C125.784 70.344 126.456 70.184 126.872 69.864C127.288 69.528 127.496 69.152 127.496 68.736C127.496 68.48 127.424 68.264 127.28 68.088C127.152 67.896 126.976 67.72 126.752 67.56C126.528 67.4 126.264 67.256 125.96 67.128C125.656 66.984 125.336 66.84 125 66.696C124.536 66.488 124.08 66.28 123.632 66.072C123.2 65.848 122.816 65.6 122.48 65.328C122.144 65.04 121.872 64.704 121.664 64.32C121.456 63.936 121.352 63.472 121.352 62.928C121.352 61.92 121.752 61.112 122.552 60.504C123.368 59.88 124.552 59.568 126.104 59.568C126.904 59.568 127.608 59.632 128.216 59.76C128.824 59.888 129.216 59.984 129.392 60.048V61.968C128.928 61.776 128.432 61.64 127.904 61.56C127.392 61.48 126.88 61.44 126.368 61.44C125.456 61.44 124.8 61.568 124.4 61.824C124 62.064 123.8 62.392 123.8 62.808C123.8 63.048 123.864 63.264 123.992 63.456C124.12 63.632 124.288 63.8 124.496 63.96C124.72 64.104 124.976 64.248 125.264 64.392C125.552 64.52 125.856 64.656 126.176 64.8C126.608 64.992 127.048 65.192 127.496 65.4C127.96 65.592 128.376 65.832 128.744 66.12C129.128 66.408 129.432 66.752 129.656 67.152C129.896 67.552 130.016 68.048 130.016 68.64C130.016 69.696 129.584 70.552 128.72 71.208C127.872 71.864 126.656 72.192 125.072 72.192ZM133.375 59.76H135.631V72H133.375V59.76ZM133.255 54.72H135.799V57.264H133.255V54.72ZM139.976 59.76H142.232V61.512H142.28C142.744 60.856 143.32 60.368 144.008 60.048C144.712 59.728 145.496 59.568 146.36 59.568C147.8 59.568 148.936 60 149.768 60.864C150.6 61.712 151.016 63.024 151.016 64.8V72H148.76V65.52C148.76 64.736 148.688 64.08 148.544 63.552C148.416 63.008 148.224 62.584 147.968 62.28C147.728 61.96 147.424 61.736 147.056 61.608C146.704 61.464 146.312 61.392 145.88 61.392C144.776 61.392 143.888 61.792 143.216 62.592C142.56 63.376 142.232 64.592 142.232 66.24V72H139.976V59.76ZM156.137 66.384C156.265 67.648 156.697 68.624 157.433 69.312C158.169 69.984 159.161 70.32 160.409 70.32C161.145 70.32 161.865 70.232 162.569 70.056C163.289 69.864 163.881 69.632 164.345 69.36V71.568C163.961 71.696 163.433 71.832 162.761 71.976C162.089 72.12 161.257 72.192 160.265 72.192C158.185 72.192 156.585 71.616 155.465 70.464C154.361 69.312 153.809 67.712 153.809 65.664C153.809 64.736 153.953 63.896 154.241 63.144C154.545 62.392 154.953 61.752 155.465 61.224C155.993 60.696 156.609 60.288 157.313 60C158.017 59.712 158.777 59.568 159.593 59.568C161.337 59.568 162.705 60.08 163.697 61.104C164.689 62.128 165.185 63.68 165.185 65.76V66.384H156.137ZM159.569 61.392C158.625 61.392 157.849 61.696 157.241 62.304C156.649 62.896 156.281 63.696 156.137 64.704H162.785C162.785 63.648 162.481 62.832 161.873 62.256C161.265 61.68 160.497 61.392 159.569 61.392ZM171.526 72.192C170.71 72.192 170.006 72.128 169.414 72C168.838 71.856 168.326 71.696 167.878 71.52V69.528C168.694 69.896 169.398 70.128 169.99 70.224C170.598 70.304 171.038 70.344 171.31 70.344C172.238 70.344 172.91 70.184 173.326 69.864C173.742 69.528 173.95 69.152 173.95 68.736C173.95 68.48 173.878 68.264 173.734 68.088C173.606 67.896 173.43 67.72 173.206 67.56C172.982 67.4 172.718 67.256 172.414 67.128C172.11 66.984 171.79 66.84 171.454 66.696C170.99 66.488 170.534 66.28 170.086 66.072C169.654 65.848 169.27 65.6 168.934 65.328C168.598 65.04 168.326 64.704 168.118 64.32C167.91 63.936 167.806 63.472 167.806 62.928C167.806 61.92 168.206 61.112 169.006 60.504C169.822 59.88 171.006 59.568 172.558 59.568C173.358 59.568 174.062 59.632 174.67 59.76C175.278 59.888 175.67 59.984 175.846 60.048V61.968C175.382 61.776 174.886 61.64 174.358 61.56C173.846 61.48 173.334 61.44 172.822 61.44C171.91 61.44 171.254 61.568 170.854 61.824C170.454 62.064 170.254 62.392 170.254 62.808C170.254 63.048 170.318 63.264 170.446 63.456C170.574 63.632 170.742 63.8 170.95 63.96C171.174 64.104 171.43 64.248 171.718 64.392C172.006 64.52 172.31 64.656 172.63 64.8C173.062 64.992 173.502 65.192 173.95 65.4C174.414 65.592 174.83 65.832 175.198 66.12C175.582 66.408 175.886 66.752 176.11 67.152C176.35 67.552 176.47 68.048 176.47 68.64C176.47 69.696 176.038 70.552 175.174 71.208C174.326 71.864 173.11 72.192 171.526 72.192ZM182.799 72.192C181.983 72.192 181.279 72.128 180.687 72C180.111 71.856 179.599 71.696 179.151 71.52V69.528C179.967 69.896 180.671 70.128 181.263 70.224C181.871 70.304 182.311 70.344 182.583 70.344C183.511 70.344 184.183 70.184 184.599 69.864C185.015 69.528 185.223 69.152 185.223 68.736C185.223 68.48 185.151 68.264 185.007 68.088C184.879 67.896 184.703 67.72 184.479 67.56C184.255 67.4 183.991 67.256 183.687 67.128C183.383 66.984 183.063 66.84 182.727 66.696C182.263 66.488 181.807 66.28 181.359 66.072C180.927 65.848 180.543 65.6 180.207 65.328C179.871 65.04 179.599 64.704 179.391 64.32C179.183 63.936 179.079 63.472 179.079 62.928C179.079 61.92 179.479 61.112 180.279 60.504C181.095 59.88 182.279 59.568 183.831 59.568C184.631 59.568 185.335 59.632 185.943 59.76C186.551 59.888 186.943 59.984 187.119 60.048V61.968C186.655 61.776 186.159 61.64 185.631 61.56C185.119 61.48 184.607 61.44 184.095 61.44C183.183 61.44 182.527 61.568 182.127 61.824C181.727 62.064 181.527 62.392 181.527 62.808C181.527 63.048 181.591 63.264 181.719 63.456C181.847 63.632 182.015 63.8 182.223 63.96C182.447 64.104 182.703 64.248 182.991 64.392C183.279 64.52 183.583 64.656 183.903 64.8C184.335 64.992 184.775 65.192 185.223 65.4C185.687 65.592 186.103 65.832 186.471 66.12C186.855 66.408 187.159 66.752 187.383 67.152C187.623 67.552 187.743 68.048 187.743 68.64C187.743 69.696 187.311 70.552 186.447 71.208C185.599 71.864 184.383 72.192 182.799 72.192Z" fill="#22242A"/>
<g filter="url(#filter0_i_632_16340)">
<rect width="380" height="48" transform="translate(41 109)" fill="#FFEFEF"/>
<path fill-rule="evenodd" clip-rule="evenodd" d="M62.1626 142H75.8387C78.1405 142 79.5848 139.515 78.4453 137.515L71.6073 125.513C70.4565 123.493 67.5448 123.493 66.394 125.513L59.556 137.515C58.4165 139.515 59.8609 142 62.1626 142ZM69.6505 135.127C69.6505 135.486 69.3595 135.777 69.0005 135.777C68.6415 135.777 68.3505 135.486 68.3505 135.127V129.981C68.3505 129.622 68.6415 129.331 69.0005 129.331C69.3595 129.331 69.6505 129.622 69.6505 129.981V135.127ZM69.7505 137.881C69.7505 138.295 69.4147 138.631 69.0005 138.631C68.5863 138.631 68.2505 138.295 68.2505 137.881C68.2505 137.467 68.5863 137.131 69.0005 137.131C69.4147 137.131 69.7505 137.467 69.7505 137.881Z" fill="#D92020"/>
<path d="M93.028 128.2H94.568L96.906 136.6H96.934L99.02 128.2H101.008L103.122 136.6H103.15L105.488 128.2H106.972L103.962 138H102.156L100.028 129.432H100L97.858 138H95.982L93.028 128.2ZM108.025 130.86H109.257V132.022H109.285C109.519 131.565 109.799 131.238 110.125 131.042C110.461 130.846 110.863 130.748 111.329 130.748C111.46 130.748 111.591 130.757 111.721 130.776C111.861 130.785 112.006 130.799 112.155 130.818V131.966C112.015 131.947 111.88 131.933 111.749 131.924C111.619 131.905 111.493 131.896 111.371 131.896C110.653 131.896 110.135 132.143 109.817 132.638C109.5 133.133 109.341 133.856 109.341 134.808V138H108.025V130.86ZM116.74 138.112C116.199 138.112 115.704 138.023 115.256 137.846C114.808 137.669 114.421 137.417 114.094 137.09C113.777 136.763 113.53 136.376 113.352 135.928C113.175 135.48 113.086 134.981 113.086 134.43C113.086 133.889 113.175 133.394 113.352 132.946C113.53 132.489 113.777 132.097 114.094 131.77C114.421 131.443 114.808 131.191 115.256 131.014C115.704 130.837 116.199 130.748 116.74 130.748C117.282 130.748 117.776 130.837 118.224 131.014C118.672 131.191 119.055 131.443 119.372 131.77C119.699 132.097 119.951 132.489 120.128 132.946C120.306 133.394 120.394 133.889 120.394 134.43C120.394 134.981 120.306 135.48 120.128 135.928C119.951 136.376 119.699 136.763 119.372 137.09C119.055 137.417 118.672 137.669 118.224 137.846C117.776 138.023 117.282 138.112 116.74 138.112ZM116.74 137.048C117.048 137.048 117.338 136.987 117.608 136.866C117.888 136.745 118.126 136.572 118.322 136.348C118.528 136.115 118.691 135.839 118.812 135.522C118.934 135.195 118.994 134.831 118.994 134.43C118.994 134.029 118.934 133.669 118.812 133.352C118.691 133.025 118.528 132.75 118.322 132.526C118.117 132.293 117.879 132.115 117.608 131.994C117.338 131.873 117.048 131.812 116.74 131.812C116.432 131.812 116.138 131.873 115.858 131.994C115.588 132.115 115.35 132.293 115.144 132.526C114.948 132.75 114.79 133.025 114.668 133.352C114.547 133.669 114.486 134.029 114.486 134.43C114.486 134.831 114.547 135.195 114.668 135.522C114.79 135.839 114.948 136.115 115.144 136.348C115.35 136.572 115.588 136.745 115.858 136.866C116.138 136.987 116.432 137.048 116.74 137.048ZM122.244 130.86H123.56V131.882H123.588C123.859 131.499 124.195 131.215 124.596 131.028C125.007 130.841 125.464 130.748 125.968 130.748C126.808 130.748 127.471 131 127.956 131.504C128.441 131.999 128.684 132.764 128.684 133.8V138H127.368V134.22C127.368 133.763 127.326 133.38 127.242 133.072C127.167 132.755 127.055 132.507 126.906 132.33C126.766 132.143 126.589 132.013 126.374 131.938C126.169 131.854 125.94 131.812 125.688 131.812C125.044 131.812 124.526 132.045 124.134 132.512C123.751 132.969 123.56 133.679 123.56 134.64V138H122.244V130.86ZM133.491 141.192C133.118 141.192 132.772 141.169 132.455 141.122C132.138 141.075 131.858 141.019 131.615 140.954C131.335 140.889 131.078 140.809 130.845 140.716V139.456C131.078 139.577 131.335 139.689 131.615 139.792C131.858 139.876 132.138 139.951 132.455 140.016C132.772 140.091 133.118 140.128 133.491 140.128C135.143 140.128 135.969 139.297 135.969 137.636V136.894H135.927C135.694 137.239 135.367 137.51 134.947 137.706C134.536 137.902 134.084 138 133.589 138C133.122 138 132.688 137.916 132.287 137.748C131.895 137.58 131.55 137.342 131.251 137.034C130.962 136.717 130.733 136.339 130.565 135.9C130.397 135.452 130.313 134.948 130.313 134.388C130.313 133.809 130.402 133.296 130.579 132.848C130.756 132.391 130.994 132.008 131.293 131.7C131.601 131.392 131.96 131.159 132.371 131C132.782 130.832 133.22 130.748 133.687 130.748C134.228 130.748 134.686 130.86 135.059 131.084C135.432 131.308 135.75 131.574 136.011 131.882H136.053V130.86H137.285V137.636C137.285 138.831 136.977 139.722 136.361 140.31C135.754 140.898 134.798 141.192 133.491 141.192ZM133.869 136.936C134.158 136.936 134.429 136.88 134.681 136.768C134.942 136.656 135.166 136.493 135.353 136.278C135.54 136.054 135.684 135.788 135.787 135.48C135.899 135.163 135.955 134.799 135.955 134.388C135.955 133.968 135.899 133.599 135.787 133.282C135.675 132.955 135.521 132.685 135.325 132.47C135.129 132.246 134.9 132.083 134.639 131.98C134.378 131.868 134.093 131.812 133.785 131.812C133.496 131.812 133.225 131.863 132.973 131.966C132.721 132.069 132.502 132.227 132.315 132.442C132.128 132.647 131.979 132.909 131.867 133.226C131.764 133.534 131.713 133.893 131.713 134.304C131.713 134.715 131.769 135.083 131.881 135.41C132.002 135.727 132.161 136.003 132.357 136.236C132.553 136.46 132.782 136.633 133.043 136.754C133.304 136.875 133.58 136.936 133.869 136.936ZM143.044 127.332H144.36V138H143.044V127.332ZM150.072 138.112C149.531 138.112 149.036 138.023 148.588 137.846C148.14 137.669 147.753 137.417 147.426 137.09C147.109 136.763 146.862 136.376 146.684 135.928C146.507 135.48 146.418 134.981 146.418 134.43C146.418 133.889 146.507 133.394 146.684 132.946C146.862 132.489 147.109 132.097 147.426 131.77C147.753 131.443 148.14 131.191 148.588 131.014C149.036 130.837 149.531 130.748 150.072 130.748C150.614 130.748 151.108 130.837 151.556 131.014C152.004 131.191 152.387 131.443 152.704 131.77C153.031 132.097 153.283 132.489 153.46 132.946C153.638 133.394 153.726 133.889 153.726 134.43C153.726 134.981 153.638 135.48 153.46 135.928C153.283 136.376 153.031 136.763 152.704 137.09C152.387 137.417 152.004 137.669 151.556 137.846C151.108 138.023 150.614 138.112 150.072 138.112ZM150.072 137.048C150.38 137.048 150.67 136.987 150.94 136.866C151.22 136.745 151.458 136.572 151.654 136.348C151.86 136.115 152.023 135.839 152.144 135.522C152.266 135.195 152.326 134.831 152.326 134.43C152.326 134.029 152.266 133.669 152.144 133.352C152.023 133.025 151.86 132.75 151.654 132.526C151.449 132.293 151.211 132.115 150.94 131.994C150.67 131.873 150.38 131.812 150.072 131.812C149.764 131.812 149.47 131.873 149.19 131.994C148.92 132.115 148.682 132.293 148.476 132.526C148.28 132.75 148.122 133.025 148 133.352C147.879 133.669 147.818 134.029 147.818 134.43C147.818 134.831 147.879 135.195 148 135.522C148.122 135.839 148.28 136.115 148.476 136.348C148.682 136.572 148.92 136.745 149.19 136.866C149.47 136.987 149.764 137.048 150.072 137.048ZM158.278 141.192C157.905 141.192 157.559 141.169 157.242 141.122C156.925 141.075 156.645 141.019 156.402 140.954C156.122 140.889 155.865 140.809 155.632 140.716V139.456C155.865 139.577 156.122 139.689 156.402 139.792C156.645 139.876 156.925 139.951 157.242 140.016C157.559 140.091 157.905 140.128 158.278 140.128C159.93 140.128 160.756 139.297 160.756 137.636V136.894H160.714C160.481 137.239 160.154 137.51 159.734 137.706C159.323 137.902 158.871 138 158.376 138C157.909 138 157.475 137.916 157.074 137.748C156.682 137.58 156.337 137.342 156.038 137.034C155.749 136.717 155.52 136.339 155.352 135.9C155.184 135.452 155.1 134.948 155.1 134.388C155.1 133.809 155.189 133.296 155.366 132.848C155.543 132.391 155.781 132.008 156.08 131.7C156.388 131.392 156.747 131.159 157.158 131C157.569 130.832 158.007 130.748 158.474 130.748C159.015 130.748 159.473 130.86 159.846 131.084C160.219 131.308 160.537 131.574 160.798 131.882H160.84V130.86H162.072V137.636C162.072 138.831 161.764 139.722 161.148 140.31C160.541 140.898 159.585 141.192 158.278 141.192ZM158.656 136.936C158.945 136.936 159.216 136.88 159.468 136.768C159.729 136.656 159.953 136.493 160.14 136.278C160.327 136.054 160.471 135.788 160.574 135.48C160.686 135.163 160.742 134.799 160.742 134.388C160.742 133.968 160.686 133.599 160.574 133.282C160.462 132.955 160.308 132.685 160.112 132.47C159.916 132.246 159.687 132.083 159.426 131.98C159.165 131.868 158.88 131.812 158.572 131.812C158.283 131.812 158.012 131.863 157.76 131.966C157.508 132.069 157.289 132.227 157.102 132.442C156.915 132.647 156.766 132.909 156.654 133.226C156.551 133.534 156.5 133.893 156.5 134.304C156.5 134.715 156.556 135.083 156.668 135.41C156.789 135.727 156.948 136.003 157.144 136.236C157.34 136.46 157.569 136.633 157.83 136.754C158.091 136.875 158.367 136.936 158.656 136.936ZM164.604 130.86H165.92V138H164.604V130.86ZM164.534 127.92H166.018V129.404H164.534V127.92ZM168.455 130.86H169.771V131.882H169.799C170.07 131.499 170.406 131.215 170.807 131.028C171.218 130.841 171.675 130.748 172.179 130.748C173.019 130.748 173.682 131 174.167 131.504C174.652 131.999 174.895 132.764 174.895 133.8V138H173.579V134.22C173.579 133.763 173.537 133.38 173.453 133.072C173.378 132.755 173.266 132.507 173.117 132.33C172.977 132.143 172.8 132.013 172.585 131.938C172.38 131.854 172.151 131.812 171.899 131.812C171.255 131.812 170.737 132.045 170.345 132.512C169.962 132.969 169.771 133.679 169.771 134.64V138H168.455V130.86ZM183.404 138.112C182.863 138.112 182.368 138.023 181.92 137.846C181.472 137.669 181.085 137.417 180.758 137.09C180.441 136.763 180.194 136.376 180.016 135.928C179.839 135.48 179.75 134.981 179.75 134.43C179.75 133.889 179.839 133.394 180.016 132.946C180.194 132.489 180.441 132.097 180.758 131.77C181.085 131.443 181.472 131.191 181.92 131.014C182.368 130.837 182.863 130.748 183.404 130.748C183.946 130.748 184.44 130.837 184.888 131.014C185.336 131.191 185.719 131.443 186.036 131.77C186.363 132.097 186.615 132.489 186.792 132.946C186.97 133.394 187.058 133.889 187.058 134.43C187.058 134.981 186.97 135.48 186.792 135.928C186.615 136.376 186.363 136.763 186.036 137.09C185.719 137.417 185.336 137.669 184.888 137.846C184.44 138.023 183.946 138.112 183.404 138.112ZM183.404 137.048C183.712 137.048 184.002 136.987 184.272 136.866C184.552 136.745 184.79 136.572 184.986 136.348C185.192 136.115 185.355 135.839 185.476 135.522C185.598 135.195 185.658 134.831 185.658 134.43C185.658 134.029 185.598 133.669 185.476 133.352C185.355 133.025 185.192 132.75 184.986 132.526C184.781 132.293 184.543 132.115 184.272 131.994C184.002 131.873 183.712 131.812 183.404 131.812C183.096 131.812 182.802 131.873 182.522 131.994C182.252 132.115 182.014 132.293 181.808 132.526C181.612 132.75 181.454 133.025 181.332 133.352C181.211 133.669 181.15 134.029 181.15 134.43C181.15 134.831 181.211 135.195 181.332 135.522C181.454 135.839 181.612 136.115 181.808 136.348C182.014 136.572 182.252 136.745 182.522 136.866C182.802 136.987 183.096 137.048 183.404 137.048ZM188.908 130.86H190.14V132.022H190.168C190.401 131.565 190.681 131.238 191.008 131.042C191.344 130.846 191.745 130.748 192.212 130.748C192.343 130.748 192.473 130.757 192.604 130.776C192.744 130.785 192.889 130.799 193.038 130.818V131.966C192.898 131.947 192.763 131.933 192.632 131.924C192.501 131.905 192.375 131.896 192.254 131.896C191.535 131.896 191.017 132.143 190.7 132.638C190.383 133.133 190.224 133.856 190.224 134.808V138H188.908V130.86ZM199.11 137.062V141.136H197.794V130.86H199.054V131.882H199.082C199.269 131.63 199.47 131.429 199.684 131.28C199.908 131.131 200.128 131.019 200.342 130.944C200.557 130.86 200.762 130.809 200.958 130.79C201.154 130.762 201.322 130.748 201.462 130.748C201.985 130.748 202.452 130.841 202.862 131.028C203.273 131.205 203.618 131.457 203.898 131.784C204.178 132.111 204.393 132.498 204.542 132.946C204.692 133.385 204.766 133.861 204.766 134.374C204.766 134.878 204.692 135.359 204.542 135.816C204.402 136.264 204.192 136.661 203.912 137.006C203.632 137.342 203.292 137.613 202.89 137.818C202.489 138.014 202.036 138.112 201.532 138.112C200.954 138.112 200.464 138.005 200.062 137.79C199.67 137.566 199.372 137.323 199.166 137.062H199.11ZM201.224 137.048C201.878 137.048 202.396 136.805 202.778 136.32C203.17 135.825 203.366 135.163 203.366 134.332C203.366 133.567 203.175 132.955 202.792 132.498C202.419 132.041 201.91 131.812 201.266 131.812C200.604 131.812 200.076 132.05 199.684 132.526C199.302 133.002 199.11 133.641 199.11 134.444C199.11 135.237 199.302 135.872 199.684 136.348C200.067 136.815 200.58 137.048 201.224 137.048ZM208.392 138.112C207.646 138.112 207.053 137.925 206.614 137.552C206.176 137.169 205.956 136.642 205.956 135.97C205.956 135.186 206.255 134.589 206.852 134.178C207.459 133.758 208.388 133.548 209.638 133.548H210.954V133.31C210.954 132.797 210.777 132.423 210.422 132.19C210.068 131.957 209.596 131.84 209.008 131.84C208.626 131.84 208.238 131.887 207.846 131.98C207.454 132.064 207.044 132.223 206.614 132.456V131.224C206.969 131.065 207.375 130.949 207.832 130.874C208.29 130.79 208.738 130.748 209.176 130.748C210.156 130.748 210.917 130.972 211.458 131.42C212 131.859 212.27 132.573 212.27 133.562V138H210.926V136.908H210.898C210.6 137.347 210.217 137.659 209.75 137.846C209.293 138.023 208.84 138.112 208.392 138.112ZM208.714 136.992C209.041 136.992 209.34 136.941 209.61 136.838C209.89 136.735 210.128 136.595 210.324 136.418C210.52 136.231 210.674 136.017 210.786 135.774C210.898 135.531 210.954 135.275 210.954 135.004V134.556H209.694C209.256 134.556 208.887 134.589 208.588 134.654C208.299 134.719 208.061 134.813 207.874 134.934C207.688 135.055 207.552 135.195 207.468 135.354C207.394 135.513 207.356 135.69 207.356 135.886C207.356 136.241 207.478 136.516 207.72 136.712C207.963 136.899 208.294 136.992 208.714 136.992ZM216.171 138.112C215.695 138.112 215.284 138.075 214.939 138C214.603 137.916 214.304 137.823 214.043 137.72V136.558C214.519 136.773 214.93 136.908 215.275 136.964C215.63 137.011 215.886 137.034 216.045 137.034C216.586 137.034 216.978 136.941 217.221 136.754C217.464 136.558 217.585 136.339 217.585 136.096C217.585 135.947 217.543 135.821 217.459 135.718C217.384 135.606 217.282 135.503 217.151 135.41C217.02 135.317 216.866 135.233 216.689 135.158C216.512 135.074 216.325 134.99 216.129 134.906C215.858 134.785 215.592 134.663 215.331 134.542C215.079 134.411 214.855 134.267 214.659 134.108C214.463 133.94 214.304 133.744 214.183 133.52C214.062 133.296 214.001 133.025 214.001 132.708C214.001 132.12 214.234 131.649 214.701 131.294C215.177 130.93 215.868 130.748 216.773 130.748C217.24 130.748 217.65 130.785 218.005 130.86C218.36 130.935 218.588 130.991 218.691 131.028V132.148C218.42 132.036 218.131 131.957 217.823 131.91C217.524 131.863 217.226 131.84 216.927 131.84C216.395 131.84 216.012 131.915 215.779 132.064C215.546 132.204 215.429 132.395 215.429 132.638C215.429 132.778 215.466 132.904 215.541 133.016C215.616 133.119 215.714 133.217 215.835 133.31C215.966 133.394 216.115 133.478 216.283 133.562C216.451 133.637 216.628 133.716 216.815 133.8C217.067 133.912 217.324 134.029 217.585 134.15C217.856 134.262 218.098 134.402 218.313 134.57C218.537 134.738 218.714 134.939 218.845 135.172C218.985 135.405 219.055 135.695 219.055 136.04C219.055 136.656 218.803 137.155 218.299 137.538C217.804 137.921 217.095 138.112 216.171 138.112ZM222.747 138.112C222.271 138.112 221.861 138.075 221.515 138C221.179 137.916 220.881 137.823 220.619 137.72V136.558C221.095 136.773 221.506 136.908 221.851 136.964C222.206 137.011 222.463 137.034 222.621 137.034C223.163 137.034 223.555 136.941 223.797 136.754C224.04 136.558 224.161 136.339 224.161 136.096C224.161 135.947 224.119 135.821 224.035 135.718C223.961 135.606 223.858 135.503 223.727 135.41C223.597 135.317 223.443 135.233 223.265 135.158C223.088 135.074 222.901 134.99 222.705 134.906C222.435 134.785 222.169 134.663 221.907 134.542C221.655 134.411 221.431 134.267 221.235 134.108C221.039 133.94 220.881 133.744 220.759 133.52C220.638 133.296 220.577 133.025 220.577 132.708C220.577 132.12 220.811 131.649 221.277 131.294C221.753 130.93 222.444 130.748 223.349 130.748C223.816 130.748 224.227 130.785 224.581 130.86C224.936 130.935 225.165 130.991 225.267 131.028V132.148C224.997 132.036 224.707 131.957 224.399 131.91C224.101 131.863 223.802 131.84 223.503 131.84C222.971 131.84 222.589 131.915 222.355 132.064C222.122 132.204 222.005 132.395 222.005 132.638C222.005 132.778 222.043 132.904 222.117 133.016C222.192 133.119 222.29 133.217 222.411 133.31C222.542 133.394 222.691 133.478 222.859 133.562C223.027 133.637 223.205 133.716 223.391 133.8C223.643 133.912 223.9 134.029 224.161 134.15C224.432 134.262 224.675 134.402 224.889 134.57C225.113 134.738 225.291 134.939 225.421 135.172C225.561 135.405 225.631 135.695 225.631 136.04C225.631 136.656 225.379 137.155 224.875 137.538C224.381 137.921 223.671 138.112 222.747 138.112ZM226.511 130.86H227.953L229.549 136.544L231.383 130.86H232.503L234.323 136.572L236.045 130.86H237.333L235.023 138H233.637L231.873 132.596L230.193 138H228.807L226.511 130.86ZM241.756 138.112C241.215 138.112 240.72 138.023 240.272 137.846C239.824 137.669 239.437 137.417 239.11 137.09C238.793 136.763 238.545 136.376 238.368 135.928C238.191 135.48 238.102 134.981 238.102 134.43C238.102 133.889 238.191 133.394 238.368 132.946C238.545 132.489 238.793 132.097 239.11 131.77C239.437 131.443 239.824 131.191 240.272 131.014C240.72 130.837 241.215 130.748 241.756 130.748C242.297 130.748 242.792 130.837 243.24 131.014C243.688 131.191 244.071 131.443 244.388 131.77C244.715 132.097 244.967 132.489 245.144 132.946C245.321 133.394 245.41 133.889 245.41 134.43C245.41 134.981 245.321 135.48 245.144 135.928C244.967 136.376 244.715 136.763 244.388 137.09C244.071 137.417 243.688 137.669 243.24 137.846C242.792 138.023 242.297 138.112 241.756 138.112ZM241.756 137.048C242.064 137.048 242.353 136.987 242.624 136.866C242.904 136.745 243.142 136.572 243.338 136.348C243.543 136.115 243.707 135.839 243.828 135.522C243.949 135.195 244.01 134.831 244.01 134.43C244.01 134.029 243.949 133.669 243.828 133.352C243.707 133.025 243.543 132.75 243.338 132.526C243.133 132.293 242.895 132.115 242.624 131.994C242.353 131.873 242.064 131.812 241.756 131.812C241.448 131.812 241.154 131.873 240.874 131.994C240.603 132.115 240.365 132.293 240.16 132.526C239.964 132.75 239.805 133.025 239.684 133.352C239.563 133.669 239.502 134.029 239.502 134.43C239.502 134.831 239.563 135.195 239.684 135.522C239.805 135.839 239.964 136.115 240.16 136.348C240.365 136.572 240.603 136.745 240.874 136.866C241.154 136.987 241.448 137.048 241.756 137.048ZM247.26 130.86H248.492V132.022H248.52C248.753 131.565 249.033 131.238 249.36 131.042C249.696 130.846 250.097 130.748 250.564 130.748C250.694 130.748 250.825 130.757 250.956 130.776C251.096 130.785 251.24 130.799 251.39 130.818V131.966C251.25 131.947 251.114 131.933 250.984 131.924C250.853 131.905 250.727 131.896 250.606 131.896C249.887 131.896 249.369 132.143 249.052 132.638C248.734 133.133 248.576 133.856 248.576 134.808V138H247.26V130.86ZM255.639 138.112C255.135 138.112 254.677 138.019 254.267 137.832C253.856 137.645 253.506 137.384 253.217 137.048C252.927 136.712 252.703 136.315 252.545 135.858C252.395 135.391 252.321 134.887 252.321 134.346C252.321 133.833 252.4 133.357 252.559 132.918C252.717 132.479 252.941 132.101 253.231 131.784C253.52 131.457 253.865 131.205 254.267 131.028C254.677 130.841 255.125 130.748 255.611 130.748C256.152 130.748 256.609 130.851 256.983 131.056C257.365 131.261 257.687 131.513 257.949 131.812H257.977V127.36H259.293V138H258.033V136.992H257.949C257.678 137.337 257.356 137.613 256.983 137.818C256.619 138.014 256.171 138.112 255.639 138.112ZM255.863 137.048C256.171 137.048 256.455 136.983 256.717 136.852C256.978 136.721 257.202 136.544 257.389 136.32C257.575 136.087 257.72 135.811 257.823 135.494C257.925 135.177 257.977 134.827 257.977 134.444C257.977 134.061 257.921 133.711 257.809 133.394C257.706 133.067 257.561 132.787 257.375 132.554C257.188 132.321 256.964 132.139 256.703 132.008C256.441 131.877 256.152 131.812 255.835 131.812C255.536 131.812 255.256 131.877 254.995 132.008C254.733 132.139 254.509 132.321 254.323 132.554C254.136 132.778 253.987 133.049 253.875 133.366C253.772 133.683 253.721 134.029 253.721 134.402C253.721 134.785 253.772 135.139 253.875 135.466C253.987 135.783 254.136 136.063 254.323 136.306C254.519 136.539 254.747 136.721 255.009 136.852C255.27 136.983 255.555 137.048 255.863 137.048ZM261.629 136.432H263.183L261.993 139.862H260.747L261.629 136.432ZM272.35 131.924H270.586V135.774C270.586 136.203 270.693 136.502 270.908 136.67C271.132 136.829 271.393 136.908 271.692 136.908C271.916 136.908 272.154 136.871 272.406 136.796V137.986C272.228 138.033 272.06 138.065 271.902 138.084C271.743 138.103 271.598 138.112 271.468 138.112C270.758 138.112 270.217 137.921 269.844 137.538C269.47 137.146 269.284 136.6 269.284 135.9V131.924H267.982V130.86H269.284V129.082L270.586 128.606V130.86H272.35V131.924ZM274.084 130.86H275.316V132.022H275.344C275.577 131.565 275.857 131.238 276.184 131.042C276.52 130.846 276.921 130.748 277.388 130.748C277.519 130.748 277.649 130.757 277.78 130.776C277.92 130.785 278.065 130.799 278.214 130.818V131.966C278.074 131.947 277.939 131.933 277.808 131.924C277.677 131.905 277.551 131.896 277.43 131.896C276.711 131.896 276.193 132.143 275.876 132.638C275.559 133.133 275.4 133.856 275.4 134.808V138H274.084V130.86ZM280.358 141.136C280.265 141.136 280.181 141.131 280.106 141.122C280.031 141.122 279.971 141.117 279.924 141.108C279.859 141.099 279.803 141.085 279.756 141.066V139.988C279.803 139.997 279.854 140.007 279.91 140.016C279.957 140.025 280.008 140.03 280.064 140.03C280.129 140.03 280.199 140.03 280.274 140.03C280.675 140.03 280.969 139.918 281.156 139.694C281.352 139.47 281.529 139.139 281.688 138.7L281.814 138.35L278.888 130.86H280.33L282.5 136.712H282.598L284.81 130.86H286.14L283.172 138.28C282.957 138.803 282.761 139.246 282.584 139.61C282.416 139.974 282.229 140.268 282.024 140.492C281.819 140.716 281.585 140.879 281.324 140.982C281.063 141.085 280.741 141.136 280.358 141.136ZM292.584 138.112C291.837 138.112 291.245 137.925 290.806 137.552C290.367 137.169 290.148 136.642 290.148 135.97C290.148 135.186 290.447 134.589 291.044 134.178C291.651 133.758 292.579 133.548 293.83 133.548H295.146V133.31C295.146 132.797 294.969 132.423 294.614 132.19C294.259 131.957 293.788 131.84 293.2 131.84C292.817 131.84 292.43 131.887 292.038 131.98C291.646 132.064 291.235 132.223 290.806 132.456V131.224C291.161 131.065 291.567 130.949 292.024 130.874C292.481 130.79 292.929 130.748 293.368 130.748C294.348 130.748 295.109 130.972 295.65 131.42C296.191 131.859 296.462 132.573 296.462 133.562V138H295.118V136.908H295.09C294.791 137.347 294.409 137.659 293.942 137.846C293.485 138.023 293.032 138.112 292.584 138.112ZM292.906 136.992C293.233 136.992 293.531 136.941 293.802 136.838C294.082 136.735 294.32 136.595 294.516 136.418C294.712 136.231 294.866 136.017 294.978 135.774C295.09 135.531 295.146 135.275 295.146 135.004V134.556H293.886C293.447 134.556 293.079 134.589 292.78 134.654C292.491 134.719 292.253 134.813 292.066 134.934C291.879 135.055 291.744 135.195 291.66 135.354C291.585 135.513 291.548 135.69 291.548 135.886C291.548 136.241 291.669 136.516 291.912 136.712C292.155 136.899 292.486 136.992 292.906 136.992ZM301.259 141.192C300.885 141.192 300.54 141.169 300.223 141.122C299.905 141.075 299.625 141.019 299.383 140.954C299.103 140.889 298.846 140.809 298.613 140.716V139.456C298.846 139.577 299.103 139.689 299.383 139.792C299.625 139.876 299.905 139.951 300.223 140.016C300.54 140.091 300.885 140.128 301.259 140.128C302.911 140.128 303.737 139.297 303.737 137.636V136.894H303.695C303.461 137.239 303.135 137.51 302.715 137.706C302.304 137.902 301.851 138 301.357 138C300.89 138 300.456 137.916 300.055 137.748C299.663 137.58 299.317 137.342 299.019 137.034C298.729 136.717 298.501 136.339 298.333 135.9C298.165 135.452 298.081 134.948 298.081 134.388C298.081 133.809 298.169 133.296 298.347 132.848C298.524 132.391 298.762 132.008 299.061 131.7C299.369 131.392 299.728 131.159 300.139 131C300.549 130.832 300.988 130.748 301.455 130.748C301.996 130.748 302.453 130.86 302.827 131.084C303.2 131.308 303.517 131.574 303.779 131.882H303.821V130.86H305.053V137.636C305.053 138.831 304.745 139.722 304.129 140.31C303.522 140.898 302.565 141.192 301.259 141.192ZM301.637 136.936C301.926 136.936 302.197 136.88 302.449 136.768C302.71 136.656 302.934 136.493 303.121 136.278C303.307 136.054 303.452 135.788 303.555 135.48C303.667 135.163 303.723 134.799 303.723 134.388C303.723 133.968 303.667 133.599 303.555 133.282C303.443 132.955 303.289 132.685 303.093 132.47C302.897 132.246 302.668 132.083 302.407 131.98C302.145 131.868 301.861 131.812 301.553 131.812C301.263 131.812 300.993 131.863 300.741 131.966C300.489 132.069 300.269 132.227 300.083 132.442C299.896 132.647 299.747 132.909 299.635 133.226C299.532 133.534 299.481 133.893 299.481 134.304C299.481 134.715 299.537 135.083 299.649 135.41C299.77 135.727 299.929 136.003 300.125 136.236C300.321 136.46 300.549 136.633 300.811 136.754C301.072 136.875 301.347 136.936 301.637 136.936ZM309.209 138.112C308.462 138.112 307.87 137.925 307.431 137.552C306.992 137.169 306.773 136.642 306.773 135.97C306.773 135.186 307.072 134.589 307.669 134.178C308.276 133.758 309.204 133.548 310.455 133.548H311.771V133.31C311.771 132.797 311.594 132.423 311.239 132.19C310.884 131.957 310.413 131.84 309.825 131.84C309.442 131.84 309.055 131.887 308.663 131.98C308.271 132.064 307.86 132.223 307.431 132.456V131.224C307.786 131.065 308.192 130.949 308.649 130.874C309.106 130.79 309.554 130.748 309.993 130.748C310.973 130.748 311.734 130.972 312.275 131.42C312.816 131.859 313.087 132.573 313.087 133.562V138H311.743V136.908H311.715C311.416 137.347 311.034 137.659 310.567 137.846C310.11 138.023 309.657 138.112 309.209 138.112ZM309.531 136.992C309.858 136.992 310.156 136.941 310.427 136.838C310.707 136.735 310.945 136.595 311.141 136.418C311.337 136.231 311.491 136.017 311.603 135.774C311.715 135.531 311.771 135.275 311.771 135.004V134.556H310.511C310.072 134.556 309.704 134.589 309.405 134.654C309.116 134.719 308.878 134.813 308.691 134.934C308.504 135.055 308.369 135.195 308.285 135.354C308.21 135.513 308.173 135.69 308.173 135.886C308.173 136.241 308.294 136.516 308.537 136.712C308.78 136.899 309.111 136.992 309.531 136.992ZM315.392 130.86H316.708V138H315.392V130.86ZM315.322 127.92H316.806V129.404H315.322V127.92ZM319.242 130.86H320.558V131.882H320.586C320.857 131.499 321.193 131.215 321.594 131.028C322.005 130.841 322.462 130.748 322.966 130.748C323.806 130.748 324.469 131 324.954 131.504C325.439 131.999 325.682 132.764 325.682 133.8V138H324.366V134.22C324.366 133.763 324.324 133.38 324.24 133.072C324.165 132.755 324.053 132.507 323.904 132.33C323.764 132.143 323.587 132.013 323.372 131.938C323.167 131.854 322.938 131.812 322.686 131.812C322.042 131.812 321.524 132.045 321.132 132.512C320.749 132.969 320.558 133.679 320.558 134.64V138H319.242V130.86Z" fill="#22242A"/>
</g>
<rect x="42" y="182" width="378" height="54" rx="3" fill="white"/>
<rect x="42" y="182" width="378" height="54" rx="3" stroke="#0062FF" stroke-width="2"/>
<path d="M58.302 191.2H59.674V199.768H64.056V201H58.302V191.2ZM68.4084 201.112C67.867 201.112 67.3724 201.023 66.9244 200.846C66.4764 200.669 66.089 200.417 65.7624 200.09C65.445 199.763 65.1977 199.376 65.0204 198.928C64.843 198.48 64.7544 197.981 64.7544 197.43C64.7544 196.889 64.843 196.394 65.0204 195.946C65.1977 195.489 65.445 195.097 65.7624 194.77C66.089 194.443 66.4764 194.191 66.9244 194.014C67.3724 193.837 67.867 193.748 68.4084 193.748C68.9497 193.748 69.4444 193.837 69.8924 194.014C70.3404 194.191 70.723 194.443 71.0404 194.77C71.367 195.097 71.619 195.489 71.7964 195.946C71.9737 196.394 72.0624 196.889 72.0624 197.43C72.0624 197.981 71.9737 198.48 71.7964 198.928C71.619 199.376 71.367 199.763 71.0404 200.09C70.723 200.417 70.3404 200.669 69.8924 200.846C69.4444 201.023 68.9497 201.112 68.4084 201.112ZM68.4084 200.048C68.7164 200.048 69.0057 199.987 69.2764 199.866C69.5564 199.745 69.7944 199.572 69.9904 199.348C70.1957 199.115 70.359 198.839 70.4804 198.522C70.6017 198.195 70.6624 197.831 70.6624 197.43C70.6624 197.029 70.6017 196.669 70.4804 196.352C70.359 196.025 70.1957 195.75 69.9904 195.526C69.785 195.293 69.547 195.115 69.2764 194.994C69.0057 194.873 68.7164 194.812 68.4084 194.812C68.1004 194.812 67.8064 194.873 67.5264 194.994C67.2557 195.115 67.0177 195.293 66.8124 195.526C66.6164 195.75 66.4577 196.025 66.3364 196.352C66.215 196.669 66.1544 197.029 66.1544 197.43C66.1544 197.831 66.215 198.195 66.3364 198.522C66.4577 198.839 66.6164 199.115 66.8124 199.348C67.0177 199.572 67.2557 199.745 67.5264 199.866C67.8064 199.987 68.1004 200.048 68.4084 200.048ZM76.614 204.192C76.2407 204.192 75.8953 204.169 75.578 204.122C75.2607 204.075 74.9807 204.019 74.738 203.954C74.458 203.889 74.2013 203.809 73.968 203.716V202.456C74.2013 202.577 74.458 202.689 74.738 202.792C74.9807 202.876 75.2607 202.951 75.578 203.016C75.8953 203.091 76.2407 203.128 76.614 203.128C78.266 203.128 79.092 202.297 79.092 200.636V199.894H79.05C78.8167 200.239 78.49 200.51 78.07 200.706C77.6593 200.902 77.2067 201 76.712 201C76.2453 201 75.8113 200.916 75.41 200.748C75.018 200.58 74.6727 200.342 74.374 200.034C74.0847 199.717 73.856 199.339 73.688 198.9C73.52 198.452 73.436 197.948 73.436 197.388C73.436 196.809 73.5247 196.296 73.702 195.848C73.8793 195.391 74.1173 195.008 74.416 194.7C74.724 194.392 75.0833 194.159 75.494 194C75.9047 193.832 76.3433 193.748 76.81 193.748C77.3513 193.748 77.8087 193.86 78.182 194.084C78.5553 194.308 78.8727 194.574 79.134 194.882H79.176V193.86H80.408V200.636C80.408 201.831 80.1 202.722 79.484 203.31C78.8773 203.898 77.9207 204.192 76.614 204.192ZM76.992 199.936C77.2813 199.936 77.552 199.88 77.804 199.768C78.0653 199.656 78.2893 199.493 78.476 199.278C78.6627 199.054 78.8073 198.788 78.91 198.48C79.022 198.163 79.078 197.799 79.078 197.388C79.078 196.968 79.022 196.599 78.91 196.282C78.798 195.955 78.644 195.685 78.448 195.47C78.252 195.246 78.0233 195.083 77.762 194.98C77.5007 194.868 77.216 194.812 76.908 194.812C76.6187 194.812 76.348 194.863 76.096 194.966C75.844 195.069 75.6247 195.227 75.438 195.442C75.2513 195.647 75.102 195.909 74.99 196.226C74.8873 196.534 74.836 196.893 74.836 197.304C74.836 197.715 74.892 198.083 75.004 198.41C75.1253 198.727 75.284 199.003 75.48 199.236C75.676 199.46 75.9047 199.633 76.166 199.754C76.4273 199.875 76.7027 199.936 76.992 199.936ZM82.9404 193.86H84.2564V201H82.9404V193.86ZM82.8704 190.92H84.3544V192.404H82.8704V190.92ZM86.7909 193.86H88.1069V194.882H88.1349C88.4056 194.499 88.7416 194.215 89.1429 194.028C89.5536 193.841 90.0109 193.748 90.5149 193.748C91.3549 193.748 92.0176 194 92.5029 194.504C92.9882 194.999 93.2309 195.764 93.2309 196.8V201H91.9149V197.22C91.9149 196.763 91.8729 196.38 91.7889 196.072C91.7142 195.755 91.6022 195.507 91.4529 195.33C91.3129 195.143 91.1356 195.013 90.9209 194.938C90.7156 194.854 90.4869 194.812 90.2349 194.812C89.5909 194.812 89.0729 195.045 88.6809 195.512C88.2982 195.969 88.1069 196.679 88.1069 197.64V201H86.7909V193.86Z" fill="#22242A"/>
<path d="M58.28 211.904H59.88V226.208H58.28V211.904Z" fill="#22242A"/>
<rect x="41.5" y="261.5" width="379" height="55" rx="3.5" fill="white"/>
<rect x="41.5" y="261.5" width="379" height="55" rx="3.5" stroke="#B1B5BB"/>
<path d="M58.488 283.8H62.072C63.4587 283.8 64.4827 284.109 65.144 284.728C65.8053 285.336 66.136 286.205 66.136 287.336C66.136 288.467 65.8053 289.341 65.144 289.96C64.4827 290.568 63.4587 290.872 62.072 290.872H60.056V295H58.488V283.8ZM62.072 289.464C62.8933 289.464 63.496 289.288 63.88 288.936C64.2747 288.573 64.472 288.04 64.472 287.336C64.472 286.632 64.2747 286.104 63.88 285.752C63.496 285.389 62.8933 285.208 62.072 285.208H60.056V289.464H62.072ZM69.7834 295.128C68.93 295.128 68.2527 294.915 67.7514 294.488C67.25 294.051 66.9994 293.448 66.9994 292.68C66.9994 291.784 67.3407 291.101 68.0234 290.632C68.7167 290.152 69.778 289.912 71.2074 289.912H72.7114V289.64C72.7114 289.053 72.5087 288.627 72.1034 288.36C71.698 288.093 71.1594 287.96 70.4874 287.96C70.05 287.96 69.6074 288.013 69.1594 288.12C68.7114 288.216 68.242 288.397 67.7514 288.664V287.256C68.1567 287.075 68.6207 286.941 69.1434 286.856C69.666 286.76 70.178 286.712 70.6794 286.712C71.7994 286.712 72.6687 286.968 73.2874 287.48C73.906 287.981 74.2154 288.797 74.2154 289.928V295H72.6794V293.752H72.6474C72.306 294.253 71.8687 294.611 71.3354 294.824C70.8127 295.027 70.2954 295.128 69.7834 295.128ZM70.1514 293.848C70.5247 293.848 70.866 293.789 71.1754 293.672C71.4954 293.555 71.7674 293.395 71.9914 293.192C72.2154 292.979 72.3914 292.733 72.5194 292.456C72.6474 292.179 72.7114 291.885 72.7114 291.576V291.064H71.2714C70.77 291.064 70.3487 291.101 70.0074 291.176C69.6767 291.251 69.4047 291.357 69.1914 291.496C68.978 291.635 68.8234 291.795 68.7274 291.976C68.642 292.157 68.5994 292.36 68.5994 292.584C68.5994 292.989 68.738 293.304 69.0154 293.528C69.2927 293.741 69.6714 293.848 70.1514 293.848ZM78.6733 295.128C78.1293 295.128 77.6599 295.085 77.2653 295C76.8813 294.904 76.5399 294.797 76.2413 294.68V293.352C76.7853 293.597 77.2546 293.752 77.6493 293.816C78.0546 293.869 78.3479 293.896 78.5293 293.896C79.1479 293.896 79.5959 293.789 79.8733 293.576C80.1506 293.352 80.2893 293.101 80.2893 292.824C80.2893 292.653 80.2413 292.509 80.1453 292.392C80.0599 292.264 79.9426 292.147 79.7933 292.04C79.6439 291.933 79.4679 291.837 79.2653 291.752C79.0626 291.656 78.8493 291.56 78.6253 291.464C78.3159 291.325 78.0119 291.187 77.7133 291.048C77.4253 290.899 77.1693 290.733 76.9453 290.552C76.7213 290.36 76.5399 290.136 76.4013 289.88C76.2626 289.624 76.1933 289.315 76.1933 288.952C76.1933 288.28 76.4599 287.741 76.9933 287.336C77.5373 286.92 78.3266 286.712 79.3613 286.712C79.8946 286.712 80.3639 286.755 80.7693 286.84C81.1746 286.925 81.4359 286.989 81.5533 287.032V288.312C81.2439 288.184 80.9133 288.093 80.5613 288.04C80.2199 287.987 79.8786 287.96 79.5373 287.96C78.9293 287.96 78.4919 288.045 78.2253 288.216C77.9586 288.376 77.8253 288.595 77.8253 288.872C77.8253 289.032 77.8679 289.176 77.9533 289.304C78.0386 289.421 78.1506 289.533 78.2893 289.64C78.4386 289.736 78.6093 289.832 78.8013 289.928C78.9933 290.013 79.1959 290.104 79.4093 290.2C79.6973 290.328 79.9906 290.461 80.2893 290.6C80.5986 290.728 80.8759 290.888 81.1213 291.08C81.3773 291.272 81.5799 291.501 81.7293 291.768C81.8893 292.035 81.9693 292.365 81.9693 292.76C81.9693 293.464 81.6813 294.035 81.1053 294.472C80.5399 294.909 79.7293 295.128 78.6733 295.128ZM86.1889 295.128C85.6449 295.128 85.1755 295.085 84.7809 295C84.3969 294.904 84.0555 294.797 83.7569 294.68V293.352C84.3009 293.597 84.7702 293.752 85.1649 293.816C85.5702 293.869 85.8635 293.896 86.0449 293.896C86.6635 293.896 87.1115 293.789 87.3889 293.576C87.6662 293.352 87.8049 293.101 87.8049 292.824C87.8049 292.653 87.7569 292.509 87.6609 292.392C87.5755 292.264 87.4582 292.147 87.3089 292.04C87.1595 291.933 86.9835 291.837 86.7809 291.752C86.5782 291.656 86.3649 291.56 86.1409 291.464C85.8315 291.325 85.5275 291.187 85.2289 291.048C84.9409 290.899 84.6849 290.733 84.4609 290.552C84.2369 290.36 84.0555 290.136 83.9169 289.88C83.7782 289.624 83.7089 289.315 83.7089 288.952C83.7089 288.28 83.9755 287.741 84.5089 287.336C85.0529 286.92 85.8422 286.712 86.8769 286.712C87.4102 286.712 87.8795 286.755 88.2849 286.84C88.6902 286.925 88.9515 286.989 89.0689 287.032V288.312C88.7595 288.184 88.4289 288.093 88.0769 288.04C87.7355 287.987 87.3942 287.96 87.0529 287.96C86.4449 287.96 86.0075 288.045 85.7409 288.216C85.4742 288.376 85.3409 288.595 85.3409 288.872C85.3409 289.032 85.3835 289.176 85.4689 289.304C85.5542 289.421 85.6662 289.533 85.8049 289.64C85.9542 289.736 86.1249 289.832 86.3169 289.928C86.5089 290.013 86.7115 290.104 86.9249 290.2C87.2129 290.328 87.5062 290.461 87.8049 290.6C88.1142 290.728 88.3915 290.888 88.6369 291.08C88.8929 291.272 89.0955 291.501 89.2449 291.768C89.4049 292.035 89.4849 292.365 89.4849 292.76C89.4849 293.464 89.1969 294.035 88.6209 294.472C88.0555 294.909 87.2449 295.128 86.1889 295.128ZM90.4904 286.84H92.1384L93.9624 293.336L96.0584 286.84H97.3384L99.4184 293.368L101.386 286.84H102.858L100.218 295H98.6344L96.6184 288.824L94.6984 295H93.1144L90.4904 286.84ZM107.913 295.128C107.294 295.128 106.729 295.027 106.217 294.824C105.705 294.621 105.262 294.333 104.889 293.96C104.526 293.587 104.244 293.144 104.041 292.632C103.838 292.12 103.737 291.549 103.737 290.92C103.737 290.301 103.838 289.736 104.041 289.224C104.244 288.701 104.526 288.253 104.889 287.88C105.262 287.507 105.705 287.219 106.217 287.016C106.729 286.813 107.294 286.712 107.913 286.712C108.532 286.712 109.097 286.813 109.609 287.016C110.121 287.219 110.558 287.507 110.921 287.88C111.294 288.253 111.582 288.701 111.785 289.224C111.988 289.736 112.089 290.301 112.089 290.92C112.089 291.549 111.988 292.12 111.785 292.632C111.582 293.144 111.294 293.587 110.921 293.96C110.558 294.333 110.121 294.621 109.609 294.824C109.097 295.027 108.532 295.128 107.913 295.128ZM107.913 293.912C108.265 293.912 108.596 293.843 108.905 293.704C109.225 293.565 109.497 293.368 109.721 293.112C109.956 292.845 110.142 292.531 110.281 292.168C110.42 291.795 110.489 291.379 110.489 290.92C110.489 290.461 110.42 290.051 110.281 289.688C110.142 289.315 109.956 289 109.721 288.744C109.486 288.477 109.214 288.275 108.905 288.136C108.596 287.997 108.265 287.928 107.913 287.928C107.561 287.928 107.225 287.997 106.905 288.136C106.596 288.275 106.324 288.477 106.089 288.744C105.865 289 105.684 289.315 105.545 289.688C105.406 290.051 105.337 290.461 105.337 290.92C105.337 291.379 105.406 291.795 105.545 292.168C105.684 292.531 105.865 292.845 106.089 293.112C106.324 293.368 106.596 293.565 106.905 293.704C107.225 293.843 107.561 293.912 107.913 293.912ZM114.203 286.84H115.611V288.168H115.643C115.91 287.645 116.23 287.272 116.603 287.048C116.987 286.824 117.446 286.712 117.979 286.712C118.128 286.712 118.278 286.723 118.427 286.744C118.587 286.755 118.752 286.771 118.923 286.792V288.104C118.763 288.083 118.608 288.067 118.459 288.056C118.31 288.035 118.166 288.024 118.027 288.024C117.206 288.024 116.614 288.307 116.251 288.872C115.888 289.437 115.707 290.264 115.707 291.352V295H114.203V286.84ZM123.779 295.128C123.203 295.128 122.68 295.021 122.211 294.808C121.742 294.595 121.342 294.296 121.011 293.912C120.68 293.528 120.424 293.075 120.243 292.552C120.072 292.019 119.987 291.443 119.987 290.824C119.987 290.237 120.078 289.693 120.259 289.192C120.44 288.691 120.696 288.259 121.027 287.896C121.358 287.523 121.752 287.235 122.211 287.032C122.68 286.819 123.192 286.712 123.747 286.712C124.366 286.712 124.888 286.829 125.315 287.064C125.752 287.299 126.12 287.587 126.419 287.928H126.451V282.84H127.955V295H126.515V293.848H126.419C126.11 294.243 125.742 294.557 125.315 294.792C124.899 295.016 124.387 295.128 123.779 295.128ZM124.035 293.912C124.387 293.912 124.712 293.837 125.011 293.688C125.31 293.539 125.566 293.336 125.779 293.08C125.992 292.813 126.158 292.499 126.275 292.136C126.392 291.773 126.451 291.373 126.451 290.936C126.451 290.499 126.387 290.099 126.259 289.736C126.142 289.363 125.976 289.043 125.763 288.776C125.55 288.509 125.294 288.301 124.995 288.152C124.696 288.003 124.366 287.928 124.003 287.928C123.662 287.928 123.342 288.003 123.043 288.152C122.744 288.301 122.488 288.509 122.275 288.776C122.062 289.032 121.891 289.341 121.763 289.704C121.646 290.067 121.587 290.461 121.587 290.888C121.587 291.325 121.646 291.731 121.763 292.104C121.891 292.467 122.062 292.787 122.275 293.064C122.499 293.331 122.76 293.539 123.059 293.688C123.358 293.837 123.683 293.912 124.035 293.912Z" fill="#7B7E86"/>
<path d="M392.305 286.081C392.681 285.992 392.999 286.313 392.999 286.7V287.7C392.999 288.418 393.581 289 394.299 289H395.299C395.686 289 396.007 289.318 395.918 289.694C395.605 291.016 394.417 292 392.999 292C391.342 292 389.999 290.657 389.999 289C389.999 287.582 390.983 286.394 392.305 286.081Z" fill="#B1B5BB"/>
<path fill-rule="evenodd" clip-rule="evenodd" d="M392.999 282C388.118 282 384.865 285.655 383.436 287.683C382.873 288.481 382.873 289.519 383.436 290.317C384.865 292.345 388.118 296 392.999 296C397.88 296 401.133 292.345 402.562 290.317C403.125 289.519 403.125 288.481 402.562 287.683C401.133 285.655 397.88 282 392.999 282ZM386.708 285.927C385.761 286.778 385.02 287.691 384.498 288.431C384.252 288.781 384.252 289.219 384.498 289.569C385.02 290.309 385.761 291.222 386.708 292.073C386.254 291.145 385.999 290.102 385.999 289C385.999 287.898 386.254 286.855 386.708 285.927ZM392.999 294.7C389.851 294.7 387.299 292.148 387.299 289C387.299 285.852 389.851 283.3 392.999 283.3C396.147 283.3 398.699 285.852 398.699 289C398.699 292.148 396.147 294.7 392.999 294.7ZM399.29 285.927C400.237 286.778 400.978 287.691 401.5 288.431C401.746 288.781 401.746 289.219 401.5 289.569C400.978 290.309 400.237 291.222 399.29 292.073C399.744 291.145 399.999 290.102 399.999 289C399.999 287.898 399.744 286.855 399.29 285.927Z" fill="#B1B5BB"/>
<path d="M44.234 345.432H41.238V344.2H48.602V345.432H45.606V354H44.234V345.432ZM52.5451 354.112C52.0037 354.112 51.5091 354.023 51.0611 353.846C50.6131 353.669 50.2257 353.417 49.8991 353.09C49.5817 352.763 49.3344 352.376 49.1571 351.928C48.9797 351.48 48.8911 350.981 48.8911 350.43C48.8911 349.889 48.9797 349.394 49.1571 348.946C49.3344 348.489 49.5817 348.097 49.8991 347.77C50.2257 347.443 50.6131 347.191 51.0611 347.014C51.5091 346.837 52.0037 346.748 52.5451 346.748C53.0864 346.748 53.5811 346.837 54.0291 347.014C54.4771 347.191 54.8597 347.443 55.1771 347.77C55.5037 348.097 55.7557 348.489 55.9331 348.946C56.1104 349.394 56.1991 349.889 56.1991 350.43C56.1991 350.981 56.1104 351.48 55.9331 351.928C55.7557 352.376 55.5037 352.763 55.1771 353.09C54.8597 353.417 54.4771 353.669 54.0291 353.846C53.5811 354.023 53.0864 354.112 52.5451 354.112ZM52.5451 353.048C52.8531 353.048 53.1424 352.987 53.4131 352.866C53.6931 352.745 53.9311 352.572 54.1271 352.348C54.3324 352.115 54.4957 351.839 54.6171 351.522C54.7384 351.195 54.7991 350.831 54.7991 350.43C54.7991 350.029 54.7384 349.669 54.6171 349.352C54.4957 349.025 54.3324 348.75 54.1271 348.526C53.9217 348.293 53.6837 348.115 53.4131 347.994C53.1424 347.873 52.8531 347.812 52.5451 347.812C52.2371 347.812 51.9431 347.873 51.6631 347.994C51.3924 348.115 51.1544 348.293 50.9491 348.526C50.7531 348.75 50.5944 349.025 50.4731 349.352C50.3517 349.669 50.2911 350.029 50.2911 350.43C50.2911 350.831 50.3517 351.195 50.4731 351.522C50.5944 351.839 50.7531 352.115 50.9491 352.348C51.1544 352.572 51.3924 352.745 51.6631 352.866C51.9431 352.987 52.2371 353.048 52.5451 353.048ZM58.0487 343.36H59.3647V350.192L62.8227 346.86H64.4607L61.2827 349.828L64.5027 354H62.8927L60.3587 350.64L59.3647 351.578V354H58.0487V343.36ZM66.5596 350.724C66.6343 351.461 66.8863 352.031 67.3156 352.432C67.745 352.824 68.3236 353.02 69.0516 353.02C69.481 353.02 69.901 352.969 70.3116 352.866C70.7316 352.754 71.077 352.619 71.3476 352.46V353.748C71.1236 353.823 70.8156 353.902 70.4236 353.986C70.0316 354.07 69.5463 354.112 68.9676 354.112C67.7543 354.112 66.821 353.776 66.1676 353.104C65.5236 352.432 65.2016 351.499 65.2016 350.304C65.2016 349.763 65.2856 349.273 65.4536 348.834C65.631 348.395 65.869 348.022 66.1676 347.714C66.4756 347.406 66.835 347.168 67.2456 347C67.6563 346.832 68.0996 346.748 68.5756 346.748C69.593 346.748 70.391 347.047 70.9696 347.644C71.5483 348.241 71.8376 349.147 71.8376 350.36V350.724H66.5596ZM68.5616 347.812C68.011 347.812 67.5583 347.989 67.2036 348.344C66.8583 348.689 66.6436 349.156 66.5596 349.744H70.4376C70.4376 349.128 70.2603 348.652 69.9056 348.316C69.551 347.98 69.103 347.812 68.5616 347.812ZM73.7304 346.86H75.0464V347.882H75.0744C75.345 347.499 75.681 347.215 76.0824 347.028C76.493 346.841 76.9504 346.748 77.4544 346.748C78.2944 346.748 78.957 347 79.4424 347.504C79.9277 347.999 80.1704 348.764 80.1704 349.8V354H78.8544V350.22C78.8544 349.763 78.8124 349.38 78.7284 349.072C78.6537 348.755 78.5417 348.507 78.3924 348.33C78.2524 348.143 78.075 348.013 77.8604 347.938C77.655 347.854 77.4264 347.812 77.1744 347.812C76.5304 347.812 76.0124 348.045 75.6204 348.512C75.2377 348.969 75.0464 349.679 75.0464 350.64V354H73.7304V346.86Z" fill="#22242A"/>
<rect x="90" y="341" width="28" height="16" rx="8" fill="#7B7E86"/>
<circle cx="98" cy="349" r="6" fill="white"/>
<rect x="41" y="409" width="380" height="56" rx="4" fill="#0062FF"/>
<path d="M208.568 443.16C208.227 443.16 207.821 443.128 207.352 443.064C206.893 443.011 206.392 442.893 205.848 442.712V440.856C206.051 440.941 206.269 441.016 206.504 441.08C206.739 441.144 206.973 441.203 207.208 441.256C207.453 441.299 207.688 441.336 207.912 441.368C208.147 441.389 208.36 441.4 208.552 441.4C209.224 441.4 209.736 441.267 210.088 441C210.44 440.723 210.616 440.365 210.616 439.928C210.616 439.693 210.557 439.485 210.44 439.304C210.333 439.123 210.184 438.963 209.992 438.824C209.8 438.675 209.576 438.541 209.32 438.424C209.075 438.296 208.819 438.168 208.552 438.04C208.211 437.88 207.875 437.709 207.544 437.528C207.213 437.347 206.909 437.133 206.632 436.888C206.365 436.632 206.147 436.339 205.976 436.008C205.816 435.667 205.736 435.261 205.736 434.792C205.736 433.789 206.083 433.016 206.776 432.472C207.48 431.917 208.456 431.64 209.704 431.64C210.205 431.64 210.675 431.683 211.112 431.768C211.549 431.843 211.912 431.933 212.2 432.04V433.784C211.795 433.635 211.368 433.533 210.92 433.48C210.472 433.427 210.093 433.4 209.784 433.4C209.123 433.4 208.637 433.501 208.328 433.704C208.029 433.907 207.88 434.189 207.88 434.552C207.88 434.776 207.928 434.979 208.024 435.16C208.131 435.331 208.269 435.485 208.44 435.624C208.621 435.763 208.829 435.891 209.064 436.008C209.299 436.125 209.544 436.248 209.8 436.376C210.141 436.536 210.488 436.707 210.84 436.888C211.192 437.069 211.507 437.288 211.784 437.544C212.072 437.8 212.307 438.109 212.488 438.472C212.669 438.835 212.76 439.272 212.76 439.784C212.76 440.851 212.392 441.683 211.656 442.28C210.931 442.867 209.901 443.16 208.568 443.16ZM214.828 434.76H216.796V443H214.828V434.76ZM214.78 431.384H216.86V433.224H214.78V431.384ZM222.589 446.616C222.194 446.616 221.826 446.595 221.485 446.552C221.144 446.509 220.84 446.456 220.573 446.392C220.306 446.339 220.082 446.28 219.901 446.216C219.72 446.163 219.592 446.125 219.517 446.104V444.408C219.592 444.44 219.72 444.488 219.901 444.552C220.093 444.627 220.317 444.696 220.573 444.76C220.84 444.835 221.138 444.899 221.469 444.952C221.8 445.016 222.141 445.048 222.493 445.048C223.378 445.048 224.034 444.835 224.461 444.408C224.888 443.981 225.101 443.315 225.101 442.408V441.8H225.037C224.76 442.173 224.392 442.467 223.933 442.68C223.485 442.893 223 443 222.477 443C221.933 443 221.437 442.899 220.989 442.696C220.541 442.483 220.157 442.195 219.837 441.832C219.517 441.459 219.266 441.016 219.085 440.504C218.914 439.992 218.829 439.432 218.829 438.824C218.829 438.184 218.92 437.608 219.101 437.096C219.293 436.573 219.549 436.131 219.869 435.768C220.2 435.395 220.594 435.112 221.053 434.92C221.512 434.717 222.013 434.616 222.557 434.616C223.165 434.616 223.672 434.744 224.077 435C224.493 435.256 224.84 435.56 225.117 435.912H225.165V434.76H227.005V442.408C227.005 443.859 226.648 444.92 225.933 445.592C225.218 446.275 224.104 446.616 222.589 446.616ZM222.973 441.48C223.272 441.48 223.544 441.421 223.789 441.304C224.045 441.176 224.264 441 224.445 440.776C224.637 440.552 224.786 440.275 224.893 439.944C225 439.613 225.053 439.24 225.053 438.824C225.053 438.397 225 438.019 224.893 437.688C224.786 437.357 224.637 437.08 224.445 436.856C224.253 436.632 224.024 436.461 223.757 436.344C223.501 436.227 223.224 436.168 222.925 436.168C222.338 436.168 221.848 436.387 221.453 436.824C221.069 437.261 220.877 437.901 220.877 438.744C220.877 439.16 220.93 439.539 221.037 439.88C221.144 440.221 221.293 440.509 221.485 440.744C221.677 440.979 221.901 441.16 222.157 441.288C222.413 441.416 222.685 441.48 222.973 441.48ZM229.403 434.76H231.291V436.008H231.323C231.622 435.581 231.995 435.245 232.443 435C232.902 434.744 233.43 434.616 234.027 434.616C234.966 434.616 235.691 434.915 236.203 435.512C236.726 436.099 236.987 436.963 236.987 438.104V443H235.019V438.68C235.019 437.795 234.875 437.171 234.587 436.808C234.31 436.445 233.915 436.264 233.403 436.264C232.774 436.264 232.278 436.509 231.915 437C231.552 437.48 231.371 438.205 231.371 439.176V443H229.403V434.76ZM243 434.76H244.968V443H243V434.76ZM242.952 431.384H245.032V433.224H242.952V431.384ZM247.497 434.76H249.385V436.008H249.417C249.716 435.581 250.089 435.245 250.537 435C250.996 434.744 251.524 434.616 252.121 434.616C253.06 434.616 253.785 434.915 254.297 435.512C254.82 436.099 255.081 436.963 255.081 438.104V443H253.113V438.68C253.113 437.795 252.969 437.171 252.681 436.808C252.404 436.445 252.009 436.264 251.497 436.264C250.868 436.264 250.372 436.509 250.009 437C249.646 437.48 249.465 438.205 249.465 439.176V443H247.497V434.76Z" fill="white"/>
<path d="M172.802 494.2H178.29V495.432H174.174V498.302H178.122V499.534H174.174V504H172.802V494.2ZM183.113 504.112C182.572 504.112 182.077 504.023 181.629 503.846C181.181 503.669 180.794 503.417 180.467 503.09C180.15 502.763 179.903 502.376 179.725 501.928C179.548 501.48 179.459 500.981 179.459 500.43C179.459 499.889 179.548 499.394 179.725 498.946C179.903 498.489 180.15 498.097 180.467 497.77C180.794 497.443 181.181 497.191 181.629 497.014C182.077 496.837 182.572 496.748 183.113 496.748C183.655 496.748 184.149 496.837 184.597 497.014C185.045 497.191 185.428 497.443 185.745 497.77C186.072 498.097 186.324 498.489 186.501 498.946C186.679 499.394 186.767 499.889 186.767 500.43C186.767 500.981 186.679 501.48 186.501 501.928C186.324 502.376 186.072 502.763 185.745 503.09C185.428 503.417 185.045 503.669 184.597 503.846C184.149 504.023 183.655 504.112 183.113 504.112ZM183.113 503.048C183.421 503.048 183.711 502.987 183.981 502.866C184.261 502.745 184.499 502.572 184.695 502.348C184.901 502.115 185.064 501.839 185.185 501.522C185.307 501.195 185.367 500.831 185.367 500.43C185.367 500.029 185.307 499.669 185.185 499.352C185.064 499.025 184.901 498.75 184.695 498.526C184.49 498.293 184.252 498.115 183.981 497.994C183.711 497.873 183.421 497.812 183.113 497.812C182.805 497.812 182.511 497.873 182.231 497.994C181.961 498.115 181.723 498.293 181.517 498.526C181.321 498.75 181.163 499.025 181.041 499.352C180.92 499.669 180.859 500.029 180.859 500.43C180.859 500.831 180.92 501.195 181.041 501.522C181.163 501.839 181.321 502.115 181.517 502.348C181.723 502.572 181.961 502.745 182.231 502.866C182.511 502.987 182.805 503.048 183.113 503.048ZM188.617 496.86H189.849V498.022H189.877C190.11 497.565 190.39 497.238 190.717 497.042C191.053 496.846 191.454 496.748 191.921 496.748C192.052 496.748 192.182 496.757 192.313 496.776C192.453 496.785 192.598 496.799 192.747 496.818V497.966C192.607 497.947 192.472 497.933 192.341 497.924C192.21 497.905 192.084 497.896 191.963 497.896C191.244 497.896 190.726 498.143 190.409 498.638C190.092 499.133 189.933 499.856 189.933 500.808V504H188.617V496.86ZM196.856 507.192C196.483 507.192 196.138 507.169 195.82 507.122C195.503 507.075 195.223 507.019 194.98 506.954C194.7 506.889 194.444 506.809 194.21 506.716V505.456C194.444 505.577 194.7 505.689 194.98 505.792C195.223 505.876 195.503 505.951 195.82 506.016C196.138 506.091 196.483 506.128 196.856 506.128C198.508 506.128 199.334 505.297 199.334 503.636V502.894H199.292C199.059 503.239 198.732 503.51 198.312 503.706C197.902 503.902 197.449 504 196.954 504C196.488 504 196.054 503.916 195.652 503.748C195.26 503.58 194.915 503.342 194.616 503.034C194.327 502.717 194.098 502.339 193.93 501.9C193.762 501.452 193.678 500.948 193.678 500.388C193.678 499.809 193.767 499.296 193.944 498.848C194.122 498.391 194.36 498.008 194.658 497.7C194.966 497.392 195.326 497.159 195.736 497C196.147 496.832 196.586 496.748 197.052 496.748C197.594 496.748 198.051 496.86 198.424 497.084C198.798 497.308 199.115 497.574 199.376 497.882H199.418V496.86H200.65V503.636C200.65 504.831 200.342 505.722 199.726 506.31C199.12 506.898 198.163 507.192 196.856 507.192ZM197.234 502.936C197.524 502.936 197.794 502.88 198.046 502.768C198.308 502.656 198.532 502.493 198.718 502.278C198.905 502.054 199.05 501.788 199.152 501.48C199.264 501.163 199.32 500.799 199.32 500.388C199.32 499.968 199.264 499.599 199.152 499.282C199.04 498.955 198.886 498.685 198.69 498.47C198.494 498.246 198.266 498.083 198.004 497.98C197.743 497.868 197.458 497.812 197.15 497.812C196.861 497.812 196.59 497.863 196.338 497.966C196.086 498.069 195.867 498.227 195.68 498.442C195.494 498.647 195.344 498.909 195.232 499.226C195.13 499.534 195.078 499.893 195.078 500.304C195.078 500.715 195.134 501.083 195.246 501.41C195.368 501.727 195.526 502.003 195.722 502.236C195.918 502.46 196.147 502.633 196.408 502.754C196.67 502.875 196.945 502.936 197.234 502.936ZM206.151 504.112C205.609 504.112 205.115 504.023 204.667 503.846C204.219 503.669 203.831 503.417 203.505 503.09C203.187 502.763 202.94 502.376 202.763 501.928C202.585 501.48 202.497 500.981 202.497 500.43C202.497 499.889 202.585 499.394 202.763 498.946C202.94 498.489 203.187 498.097 203.505 497.77C203.831 497.443 204.219 497.191 204.667 497.014C205.115 496.837 205.609 496.748 206.151 496.748C206.692 496.748 207.187 496.837 207.635 497.014C208.083 497.191 208.465 497.443 208.783 497.77C209.109 498.097 209.361 498.489 209.539 498.946C209.716 499.394 209.805 499.889 209.805 500.43C209.805 500.981 209.716 501.48 209.539 501.928C209.361 502.376 209.109 502.763 208.783 503.09C208.465 503.417 208.083 503.669 207.635 503.846C207.187 504.023 206.692 504.112 206.151 504.112ZM206.151 503.048C206.459 503.048 206.748 502.987 207.019 502.866C207.299 502.745 207.537 502.572 207.733 502.348C207.938 502.115 208.101 501.839 208.223 501.522C208.344 501.195 208.405 500.831 208.405 500.43C208.405 500.029 208.344 499.669 208.223 499.352C208.101 499.025 207.938 498.75 207.733 498.526C207.527 498.293 207.289 498.115 207.019 497.994C206.748 497.873 206.459 497.812 206.151 497.812C205.843 497.812 205.549 497.873 205.269 497.994C204.998 498.115 204.76 498.293 204.555 498.526C204.359 498.75 204.2 499.025 204.079 499.352C203.957 499.669 203.897 500.029 203.897 500.43C203.897 500.831 203.957 501.195 204.079 501.522C204.2 501.839 204.359 502.115 204.555 502.348C204.76 502.572 204.998 502.745 205.269 502.866C205.549 502.987 205.843 503.048 206.151 503.048ZM215.238 497.924H213.474V501.774C213.474 502.203 213.582 502.502 213.796 502.67C214.02 502.829 214.282 502.908 214.58 502.908C214.804 502.908 215.042 502.871 215.294 502.796V503.986C215.117 504.033 214.949 504.065 214.79 504.084C214.632 504.103 214.487 504.112 214.356 504.112C213.647 504.112 213.106 503.921 212.732 503.538C212.359 503.146 212.172 502.6 212.172 501.9V497.924H210.87V496.86H212.172V495.082L213.474 494.606V496.86H215.238V497.924ZM221.501 503.062V507.136H220.185V496.86H221.445V497.882H221.473C221.66 497.63 221.86 497.429 222.075 497.28C222.299 497.131 222.518 497.019 222.733 496.944C222.948 496.86 223.153 496.809 223.349 496.79C223.545 496.762 223.713 496.748 223.853 496.748C224.376 496.748 224.842 496.841 225.253 497.028C225.664 497.205 226.009 497.457 226.289 497.784C226.569 498.111 226.784 498.498 226.933 498.946C227.082 499.385 227.157 499.861 227.157 500.374C227.157 500.878 227.082 501.359 226.933 501.816C226.793 502.264 226.583 502.661 226.303 503.006C226.023 503.342 225.682 503.613 225.281 503.818C224.88 504.014 224.427 504.112 223.923 504.112C223.344 504.112 222.854 504.005 222.453 503.79C222.061 503.566 221.762 503.323 221.557 503.062H221.501ZM223.615 503.048C224.268 503.048 224.786 502.805 225.169 502.32C225.561 501.825 225.757 501.163 225.757 500.332C225.757 499.567 225.566 498.955 225.183 498.498C224.81 498.041 224.301 497.812 223.657 497.812C222.994 497.812 222.467 498.05 222.075 498.526C221.692 499.002 221.501 499.641 221.501 500.444C221.501 501.237 221.692 501.872 222.075 502.348C222.458 502.815 222.971 503.048 223.615 503.048ZM230.783 504.112C230.036 504.112 229.444 503.925 229.005 503.552C228.566 503.169 228.347 502.642 228.347 501.97C228.347 501.186 228.646 500.589 229.243 500.178C229.85 499.758 230.778 499.548 232.029 499.548H233.345V499.31C233.345 498.797 233.168 498.423 232.813 498.19C232.458 497.957 231.987 497.84 231.399 497.84C231.016 497.84 230.629 497.887 230.237 497.98C229.845 498.064 229.434 498.223 229.005 498.456V497.224C229.36 497.065 229.766 496.949 230.223 496.874C230.68 496.79 231.128 496.748 231.567 496.748C232.547 496.748 233.308 496.972 233.849 497.42C234.39 497.859 234.661 498.573 234.661 499.562V504H233.317V502.908H233.289C232.99 503.347 232.608 503.659 232.141 503.846C231.684 504.023 231.231 504.112 230.783 504.112ZM231.105 502.992C231.432 502.992 231.73 502.941 232.001 502.838C232.281 502.735 232.519 502.595 232.715 502.418C232.911 502.231 233.065 502.017 233.177 501.774C233.289 501.531 233.345 501.275 233.345 501.004V500.556H232.085C231.646 500.556 231.278 500.589 230.979 500.654C230.69 500.719 230.452 500.813 230.265 500.934C230.078 501.055 229.943 501.195 229.859 501.354C229.784 501.513 229.747 501.69 229.747 501.886C229.747 502.241 229.868 502.516 230.111 502.712C230.354 502.899 230.685 502.992 231.105 502.992ZM238.562 504.112C238.086 504.112 237.675 504.075 237.33 504C236.994 503.916 236.695 503.823 236.434 503.72V502.558C236.91 502.773 237.32 502.908 237.666 502.964C238.02 503.011 238.277 503.034 238.436 503.034C238.977 503.034 239.369 502.941 239.612 502.754C239.854 502.558 239.976 502.339 239.976 502.096C239.976 501.947 239.934 501.821 239.85 501.718C239.775 501.606 239.672 501.503 239.542 501.41C239.411 501.317 239.257 501.233 239.08 501.158C238.902 501.074 238.716 500.99 238.52 500.906C238.249 500.785 237.983 500.663 237.722 500.542C237.47 500.411 237.246 500.267 237.05 500.108C236.854 499.94 236.695 499.744 236.574 499.52C236.452 499.296 236.392 499.025 236.392 498.708C236.392 498.12 236.625 497.649 237.092 497.294C237.568 496.93 238.258 496.748 239.164 496.748C239.63 496.748 240.041 496.785 240.396 496.86C240.75 496.935 240.979 496.991 241.082 497.028V498.148C240.811 498.036 240.522 497.957 240.214 497.91C239.915 497.863 239.616 497.84 239.318 497.84C238.786 497.84 238.403 497.915 238.17 498.064C237.936 498.204 237.82 498.395 237.82 498.638C237.82 498.778 237.857 498.904 237.932 499.016C238.006 499.119 238.104 499.217 238.226 499.31C238.356 499.394 238.506 499.478 238.674 499.562C238.842 499.637 239.019 499.716 239.206 499.8C239.458 499.912 239.714 500.029 239.976 500.15C240.246 500.262 240.489 500.402 240.704 500.57C240.928 500.738 241.105 500.939 241.236 501.172C241.376 501.405 241.446 501.695 241.446 502.04C241.446 502.656 241.194 503.155 240.69 503.538C240.195 503.921 239.486 504.112 238.562 504.112ZM245.138 504.112C244.662 504.112 244.251 504.075 243.906 504C243.57 503.916 243.271 503.823 243.01 503.72V502.558C243.486 502.773 243.897 502.908 244.242 502.964C244.597 503.011 244.853 503.034 245.012 503.034C245.553 503.034 245.945 502.941 246.188 502.754C246.431 502.558 246.552 502.339 246.552 502.096C246.552 501.947 246.51 501.821 246.426 501.718C246.351 501.606 246.249 501.503 246.118 501.41C245.987 501.317 245.833 501.233 245.656 501.158C245.479 501.074 245.292 500.99 245.096 500.906C244.825 500.785 244.559 500.663 244.298 500.542C244.046 500.411 243.822 500.267 243.626 500.108C243.43 499.94 243.271 499.744 243.15 499.52C243.029 499.296 242.968 499.025 242.968 498.708C242.968 498.12 243.201 497.649 243.668 497.294C244.144 496.93 244.835 496.748 245.74 496.748C246.207 496.748 246.617 496.785 246.972 496.86C247.327 496.935 247.555 496.991 247.658 497.028V498.148C247.387 498.036 247.098 497.957 246.79 497.91C246.491 497.863 246.193 497.84 245.894 497.84C245.362 497.84 244.979 497.915 244.746 498.064C244.513 498.204 244.396 498.395 244.396 498.638C244.396 498.778 244.433 498.904 244.508 499.016C244.583 499.119 244.681 499.217 244.802 499.31C244.933 499.394 245.082 499.478 245.25 499.562C245.418 499.637 245.595 499.716 245.782 499.8C246.034 499.912 246.291 500.029 246.552 500.15C246.823 500.262 247.065 500.402 247.28 500.57C247.504 500.738 247.681 500.939 247.812 501.172C247.952 501.405 248.022 501.695 248.022 502.04C248.022 502.656 247.77 503.155 247.266 503.538C246.771 503.921 246.062 504.112 245.138 504.112ZM248.902 496.86H250.344L251.94 502.544L253.774 496.86H254.894L256.714 502.572L258.436 496.86H259.724L257.414 504H256.028L254.264 498.596L252.584 504H251.198L248.902 496.86ZM264.147 504.112C263.605 504.112 263.111 504.023 262.663 503.846C262.215 503.669 261.827 503.417 261.501 503.09C261.183 502.763 260.936 502.376 260.759 501.928C260.581 501.48 260.493 500.981 260.493 500.43C260.493 499.889 260.581 499.394 260.759 498.946C260.936 498.489 261.183 498.097 261.501 497.77C261.827 497.443 262.215 497.191 262.663 497.014C263.111 496.837 263.605 496.748 264.147 496.748C264.688 496.748 265.183 496.837 265.631 497.014C266.079 497.191 266.461 497.443 266.779 497.77C267.105 498.097 267.357 498.489 267.535 498.946C267.712 499.394 267.801 499.889 267.801 500.43C267.801 500.981 267.712 501.48 267.535 501.928C267.357 502.376 267.105 502.763 266.779 503.09C266.461 503.417 266.079 503.669 265.631 503.846C265.183 504.023 264.688 504.112 264.147 504.112ZM264.147 503.048C264.455 503.048 264.744 502.987 265.015 502.866C265.295 502.745 265.533 502.572 265.729 502.348C265.934 502.115 266.097 501.839 266.219 501.522C266.34 501.195 266.401 500.831 266.401 500.43C266.401 500.029 266.34 499.669 266.219 499.352C266.097 499.025 265.934 498.75 265.729 498.526C265.523 498.293 265.285 498.115 265.015 497.994C264.744 497.873 264.455 497.812 264.147 497.812C263.839 497.812 263.545 497.873 263.265 497.994C262.994 498.115 262.756 498.293 262.551 498.526C262.355 498.75 262.196 499.025 262.075 499.352C261.953 499.669 261.893 500.029 261.893 500.43C261.893 500.831 261.953 501.195 262.075 501.522C262.196 501.839 262.355 502.115 262.551 502.348C262.756 502.572 262.994 502.745 263.265 502.866C263.545 502.987 263.839 503.048 264.147 503.048ZM269.65 496.86H270.882V498.022H270.91C271.144 497.565 271.424 497.238 271.75 497.042C272.086 496.846 272.488 496.748 272.954 496.748C273.085 496.748 273.216 496.757 273.346 496.776C273.486 496.785 273.631 496.799 273.78 496.818V497.966C273.64 497.947 273.505 497.933 273.374 497.924C273.244 497.905 273.118 497.896 272.996 497.896C272.278 497.896 271.76 498.143 271.442 498.638C271.125 499.133 270.966 499.856 270.966 500.808V504H269.65V496.86ZM278.029 504.112C277.525 504.112 277.068 504.019 276.657 503.832C276.247 503.645 275.897 503.384 275.607 503.048C275.318 502.712 275.094 502.315 274.935 501.858C274.786 501.391 274.711 500.887 274.711 500.346C274.711 499.833 274.791 499.357 274.949 498.918C275.108 498.479 275.332 498.101 275.621 497.784C275.911 497.457 276.256 497.205 276.657 497.028C277.068 496.841 277.516 496.748 278.001 496.748C278.543 496.748 279 496.851 279.373 497.056C279.756 497.261 280.078 497.513 280.339 497.812H280.367V493.36H281.683V504H280.423V502.992H280.339C280.069 503.337 279.747 503.613 279.373 503.818C279.009 504.014 278.561 504.112 278.029 504.112ZM278.253 503.048C278.561 503.048 278.846 502.983 279.107 502.852C279.369 502.721 279.593 502.544 279.779 502.32C279.966 502.087 280.111 501.811 280.213 501.494C280.316 501.177 280.367 500.827 280.367 500.444C280.367 500.061 280.311 499.711 280.199 499.394C280.097 499.067 279.952 498.787 279.765 498.554C279.579 498.321 279.355 498.139 279.093 498.008C278.832 497.877 278.543 497.812 278.225 497.812C277.927 497.812 277.647 497.877 277.385 498.008C277.124 498.139 276.9 498.321 276.713 498.554C276.527 498.778 276.377 499.049 276.265 499.366C276.163 499.683 276.111 500.029 276.111 500.402C276.111 500.785 276.163 501.139 276.265 501.466C276.377 501.783 276.527 502.063 276.713 502.306C276.909 502.539 277.138 502.721 277.399 502.852C277.661 502.983 277.945 503.048 278.253 503.048ZM285.7 500.99C285.7 500.626 285.751 500.313 285.854 500.052C285.956 499.781 286.082 499.534 286.232 499.31C286.381 499.086 286.544 498.881 286.722 498.694C286.899 498.498 287.062 498.302 287.212 498.106C287.361 497.901 287.487 497.686 287.59 497.462C287.692 497.229 287.744 496.963 287.744 496.664C287.744 496.225 287.604 495.88 287.324 495.628C287.053 495.376 286.633 495.25 286.064 495.25C286.017 495.25 285.919 495.255 285.77 495.264C285.63 495.264 285.457 495.283 285.252 495.32C285.056 495.348 284.841 495.404 284.608 495.488C284.374 495.563 284.141 495.67 283.908 495.81V494.522C284.337 494.335 284.748 494.214 285.14 494.158C285.541 494.093 285.877 494.06 286.148 494.06C286.642 494.06 287.081 494.125 287.464 494.256C287.846 494.377 288.168 494.55 288.43 494.774C288.691 494.998 288.887 495.264 289.018 495.572C289.158 495.871 289.228 496.197 289.228 496.552C289.228 496.888 289.172 497.196 289.06 497.476C288.957 497.747 288.822 497.999 288.654 498.232C288.486 498.465 288.308 498.689 288.122 498.904C287.935 499.109 287.758 499.324 287.59 499.548C287.422 499.763 287.282 499.996 287.17 500.248C287.067 500.491 287.016 500.761 287.016 501.06V501.27H285.7V500.99ZM285.574 502.432H287.142V504H285.574V502.432Z" fill="#0062FF"/>
<defs>
<filter id="filter0_i_632_16340" x="41" y="109" width="380" height="48" filterUnits="userSpaceOnUse" color-interpolation-filters="sRGB">
<feFlood flood-opacity="0" result="BackgroundImageFix"/>
<feBlend mode="normal" in="SourceGraphic" in2="BackgroundImageFix" result="shape"/>
<feColorMatrix in="SourceAlpha" type="matrix" values="0 0 0 0 0 0 0 0 0 0 0 0 0 0 0 0 0 0 127 0" result="hardAlpha"/>
<feOffset dx="4"/>
<feComposite in2="hardAlpha" operator="arithmetic" k2="-1" k3="1"/>
<feColorMatrix type="matrix" values="0 0 0 0 0.85098 0 0 0 0 0.12549 0 0 0 0 0.12549 0 0 0 1 0"/>
<feBlend mode="normal" in2="shape" result="effect1_innerShadow_632_16340"/>
</filter>
</defs>
</svg>
