<svg width="462" height="534" viewBox="0 0 462 534" fill="none" xmlns="http://www.w3.org/2000/svg">
<rect x="1" y="1" width="460" height="532" rx="8" fill="white"/>
<rect x="1" y="1" width="460" height="532" rx="8" stroke="black" stroke-width="2"/>
<path d="M41.288 55.2H43.904L48.92 69.888H48.992L54.032 55.2H56.552L50.408 72H47.408L41.288 55.2ZM62.6221 57.312H57.4861V55.2H70.1101V57.312H64.9741V72H62.6221V57.312ZM72.7398 55.2H77.7078C78.7798 55.2 79.6918 55.304 80.4438 55.512C81.2118 55.704 81.8358 55.992 82.3158 56.376C82.7958 56.744 83.1478 57.2 83.3718 57.744C83.5958 58.272 83.7078 58.864 83.7078 59.52C83.7078 60.432 83.4598 61.216 82.9638 61.872C82.4838 62.528 81.6998 63 80.6118 63.288V63.336C81.8918 63.608 82.8038 64.104 83.3478 64.824C83.9078 65.528 84.1878 66.392 84.1878 67.416C84.1878 68.872 83.7238 70 82.7958 70.8C81.8838 71.6 80.3478 72 78.1878 72H72.7398V55.2ZM78.1878 70.032C79.3878 70.032 80.2598 69.784 80.8038 69.288C81.3638 68.792 81.6438 68.088 81.6438 67.176C81.6438 66.28 81.3638 65.584 80.8038 65.088C80.2598 64.592 79.3878 64.344 78.1878 64.344H75.0918V70.032H78.1878ZM77.7078 62.376C78.9878 62.376 79.8998 62.144 80.4438 61.68C81.0038 61.2 81.2838 60.56 81.2838 59.76C81.2838 58.976 81.0038 58.352 80.4438 57.888C79.8998 57.408 78.9878 57.168 77.7078 57.168H75.0918V62.376H77.7078ZM92.9195 55.2H97.8875C98.9595 55.2 99.8715 55.304 100.624 55.512C101.392 55.704 102.016 55.992 102.496 56.376C102.976 56.744 103.328 57.2 103.552 57.744C103.776 58.272 103.888 58.864 103.888 59.52C103.888 60.432 103.64 61.216 103.144 61.872C102.664 62.528 101.88 63 100.792 63.288V63.336C102.072 63.608 102.984 64.104 103.528 64.824C104.088 65.528 104.368 66.392 104.368 67.416C104.368 68.872 103.904 70 102.976 70.8C102.064 71.6 100.528 72 98.3675 72H92.9195V55.2ZM98.3675 70.032C99.5675 70.032 100.44 69.784 100.984 69.288C101.544 68.792 101.824 68.088 101.824 67.176C101.824 66.28 101.544 65.584 100.984 65.088C100.44 64.592 99.5675 64.344 98.3675 64.344H95.2715V70.032H98.3675ZM97.8875 62.376C99.1675 62.376 100.08 62.144 100.624 61.68C101.184 61.2 101.464 60.56 101.464 59.76C101.464 58.976 101.184 58.352 100.624 57.888C100.08 57.408 99.1675 57.168 97.8875 57.168H95.2715V62.376H97.8875ZM117.984 72H115.728V70.248H115.68C115.216 70.904 114.632 71.392 113.928 71.712C113.24 72.032 112.464 72.192 111.6 72.192C110.16 72.192 109.024 71.768 108.192 70.92C107.36 70.056 106.944 68.736 106.944 66.96V59.76H109.2V66.24C109.2 67.04 109.264 67.704 109.392 68.232C109.536 68.76 109.728 69.184 109.968 69.504C110.224 69.808 110.528 70.032 110.88 70.176C111.248 70.304 111.648 70.368 112.08 70.368C113.184 70.368 114.064 69.976 114.72 69.192C115.392 68.392 115.728 67.168 115.728 65.52V59.76H117.984V72ZM125.072 72.192C124.256 72.192 123.552 72.128 122.96 72C122.384 71.856 121.872 71.696 121.424 71.52V69.528C122.24 69.896 122.944 70.128 123.536 70.224C124.144 70.304 124.584 70.344 124.856 70.344C125.784 70.344 126.456 70.184 126.872 69.864C127.288 69.528 127.496 69.152 127.496 68.736C127.496 68.48 127.424 68.264 127.28 68.088C127.152 67.896 126.976 67.72 126.752 67.56C126.528 67.4 126.264 67.256 125.96 67.128C125.656 66.984 125.336 66.84 125 66.696C124.536 66.488 124.08 66.28 123.632 66.072C123.2 65.848 122.816 65.6 122.48 65.328C122.144 65.04 121.872 64.704 121.664 64.32C121.456 63.936 121.352 63.472 121.352 62.928C121.352 61.92 121.752 61.112 122.552 60.504C123.368 59.88 124.552 59.568 126.104 59.568C126.904 59.568 127.608 59.632 128.216 59.76C128.824 59.888 129.216 59.984 129.392 60.048V61.968C128.928 61.776 128.432 61.64 127.904 61.56C127.392 61.48 126.88 61.44 126.368 61.44C125.456 61.44 124.8 61.568 124.4 61.824C124 62.064 123.8 62.392 123.8 62.808C123.8 63.048 123.864 63.264 123.992 63.456C124.12 63.632 124.288 63.8 124.496 63.96C124.72 64.104 124.976 64.248 125.264 64.392C125.552 64.52 125.856 64.656 126.176 64.8C126.608 64.992 127.048 65.192 127.496 65.4C127.96 65.592 128.376 65.832 128.744 66.12C129.128 66.408 129.432 66.752 129.656 67.152C129.896 67.552 130.016 68.048 130.016 68.64C130.016 69.696 129.584 70.552 128.72 71.208C127.872 71.864 126.656 72.192 125.072 72.192ZM133.375 59.76H135.631V72H133.375V59.76ZM133.255 54.72H135.799V57.264H133.255V54.72ZM139.976 59.76H142.232V61.512H142.28C142.744 60.856 143.32 60.368 144.008 60.048C144.712 59.728 145.496 59.568 146.36 59.568C147.8 59.568 148.936 60 149.768 60.864C150.6 61.712 151.016 63.024 151.016 64.8V72H148.76V65.52C148.76 64.736 148.688 64.08 148.544 63.552C148.416 63.008 148.224 62.584 147.968 62.28C147.728 61.96 147.424 61.736 147.056 61.608C146.704 61.464 146.312 61.392 145.88 61.392C144.776 61.392 143.888 61.792 143.216 62.592C142.56 63.376 142.232 64.592 142.232 66.24V72H139.976V59.76ZM156.137 66.384C156.265 67.648 156.697 68.624 157.433 69.312C158.169 69.984 159.161 70.32 160.409 70.32C161.145 70.32 161.865 70.232 162.569 70.056C163.289 69.864 163.881 69.632 164.345 69.36V71.568C163.961 71.696 163.433 71.832 162.761 71.976C162.089 72.12 161.257 72.192 160.265 72.192C158.185 72.192 156.585 71.616 155.465 70.464C154.361 69.312 153.809 67.712 153.809 65.664C153.809 64.736 153.953 63.896 154.241 63.144C154.545 62.392 154.953 61.752 155.465 61.224C155.993 60.696 156.609 60.288 157.313 60C158.017 59.712 158.777 59.568 159.593 59.568C161.337 59.568 162.705 60.08 163.697 61.104C164.689 62.128 165.185 63.68 165.185 65.76V66.384H156.137ZM159.569 61.392C158.625 61.392 157.849 61.696 157.241 62.304C156.649 62.896 156.281 63.696 156.137 64.704H162.785C162.785 63.648 162.481 62.832 161.873 62.256C161.265 61.68 160.497 61.392 159.569 61.392ZM171.526 72.192C170.71 72.192 170.006 72.128 169.414 72C168.838 71.856 168.326 71.696 167.878 71.52V69.528C168.694 69.896 169.398 70.128 169.99 70.224C170.598 70.304 171.038 70.344 171.31 70.344C172.238 70.344 172.91 70.184 173.326 69.864C173.742 69.528 173.95 69.152 173.95 68.736C173.95 68.48 173.878 68.264 173.734 68.088C173.606 67.896 173.43 67.72 173.206 67.56C172.982 67.4 172.718 67.256 172.414 67.128C172.11 66.984 171.79 66.84 171.454 66.696C170.99 66.488 170.534 66.28 170.086 66.072C169.654 65.848 169.27 65.6 168.934 65.328C168.598 65.04 168.326 64.704 168.118 64.32C167.91 63.936 167.806 63.472 167.806 62.928C167.806 61.92 168.206 61.112 169.006 60.504C169.822 59.88 171.006 59.568 172.558 59.568C173.358 59.568 174.062 59.632 174.67 59.76C175.278 59.888 175.67 59.984 175.846 60.048V61.968C175.382 61.776 174.886 61.64 174.358 61.56C173.846 61.48 173.334 61.44 172.822 61.44C171.91 61.44 171.254 61.568 170.854 61.824C170.454 62.064 170.254 62.392 170.254 62.808C170.254 63.048 170.318 63.264 170.446 63.456C170.574 63.632 170.742 63.8 170.95 63.96C171.174 64.104 171.43 64.248 171.718 64.392C172.006 64.52 172.31 64.656 172.63 64.8C173.062 64.992 173.502 65.192 173.95 65.4C174.414 65.592 174.83 65.832 175.198 66.12C175.582 66.408 175.886 66.752 176.11 67.152C176.35 67.552 176.47 68.048 176.47 68.64C176.47 69.696 176.038 70.552 175.174 71.208C174.326 71.864 173.11 72.192 171.526 72.192ZM182.799 72.192C181.983 72.192 181.279 72.128 180.687 72C180.111 71.856 179.599 71.696 179.151 71.52V69.528C179.967 69.896 180.671 70.128 181.263 70.224C181.871 70.304 182.311 70.344 182.583 70.344C183.511 70.344 184.183 70.184 184.599 69.864C185.015 69.528 185.223 69.152 185.223 68.736C185.223 68.48 185.151 68.264 185.007 68.088C184.879 67.896 184.703 67.72 184.479 67.56C184.255 67.4 183.991 67.256 183.687 67.128C183.383 66.984 183.063 66.84 182.727 66.696C182.263 66.488 181.807 66.28 181.359 66.072C180.927 65.848 180.543 65.6 180.207 65.328C179.871 65.04 179.599 64.704 179.391 64.32C179.183 63.936 179.079 63.472 179.079 62.928C179.079 61.92 179.479 61.112 180.279 60.504C181.095 59.88 182.279 59.568 183.831 59.568C184.631 59.568 185.335 59.632 185.943 59.76C186.551 59.888 186.943 59.984 187.119 60.048V61.968C186.655 61.776 186.159 61.64 185.631 61.56C185.119 61.48 184.607 61.44 184.095 61.44C183.183 61.44 182.527 61.568 182.127 61.824C181.727 62.064 181.527 62.392 181.527 62.808C181.527 63.048 181.591 63.264 181.719 63.456C181.847 63.632 182.015 63.8 182.223 63.96C182.447 64.104 182.703 64.248 182.991 64.392C183.279 64.52 183.583 64.656 183.903 64.8C184.335 64.992 184.775 65.192 185.223 65.4C185.687 65.592 186.103 65.832 186.471 66.12C186.855 66.408 187.159 66.752 187.383 67.152C187.623 67.552 187.743 68.048 187.743 68.64C187.743 69.696 187.311 70.552 186.447 71.208C185.599 71.864 184.383 72.192 182.799 72.192Z" fill="#22242A"/>
<g filter="url(#filter0_i_632_16370)">
<rect width="380" height="48" transform="translate(41 109)" fill="#FFEFEF"/>
<path fill-rule="evenodd" clip-rule="evenodd" d="M62.1626 142H75.8387C78.1405 142 79.5848 139.515 78.4453 137.515L71.6073 125.513C70.4565 123.493 67.5448 123.493 66.394 125.513L59.556 137.515C58.4165 139.515 59.8609 142 62.1626 142ZM69.6505 135.127C69.6505 135.486 69.3595 135.777 69.0005 135.777C68.6415 135.777 68.3505 135.486 68.3505 135.127V129.981C68.3505 129.622 68.6415 129.331 69.0005 129.331C69.3595 129.331 69.6505 129.622 69.6505 129.981V135.127ZM69.7505 137.881C69.7505 138.295 69.4147 138.631 69.0005 138.631C68.5863 138.631 68.2505 138.295 68.2505 137.881C68.2505 137.467 68.5863 137.131 69.0005 137.131C69.4147 137.131 69.7505 137.467 69.7505 137.881Z" fill="#D92020"/>
<path d="M94.302 128.2H99.804V129.432H95.674V132.302H99.524V133.534H95.674V136.768H99.804V138H94.302V128.2ZM101.723 130.86H103.039V131.882H103.067C103.337 131.499 103.673 131.215 104.075 131.028C104.485 130.841 104.943 130.748 105.447 130.748C106.287 130.748 106.949 131 107.435 131.504C107.92 131.999 108.163 132.764 108.163 133.8V138H106.847V134.22C106.847 133.763 106.805 133.38 106.721 133.072C106.646 132.755 106.534 132.507 106.385 132.33C106.245 132.143 106.067 132.013 105.853 131.938C105.647 131.854 105.419 131.812 105.167 131.812C104.523 131.812 104.005 132.045 103.613 132.512C103.23 132.969 103.039 133.679 103.039 134.64V138H101.723V130.86ZM113.851 131.924H112.087V135.774C112.087 136.203 112.195 136.502 112.409 136.67C112.633 136.829 112.895 136.908 113.193 136.908C113.417 136.908 113.655 136.871 113.907 136.796V137.986C113.73 138.033 113.562 138.065 113.403 138.084C113.245 138.103 113.1 138.112 112.969 138.112C112.26 138.112 111.719 137.921 111.345 137.538C110.972 137.146 110.785 136.6 110.785 135.9V131.924H109.483V130.86H110.785V129.082L112.087 128.606V130.86H113.851V131.924ZM116.399 134.724C116.474 135.461 116.726 136.031 117.155 136.432C117.585 136.824 118.163 137.02 118.891 137.02C119.321 137.02 119.741 136.969 120.151 136.866C120.571 136.754 120.917 136.619 121.187 136.46V137.748C120.963 137.823 120.655 137.902 120.263 137.986C119.871 138.07 119.386 138.112 118.807 138.112C117.594 138.112 116.661 137.776 116.007 137.104C115.363 136.432 115.041 135.499 115.041 134.304C115.041 133.763 115.125 133.273 115.293 132.834C115.471 132.395 115.709 132.022 116.007 131.714C116.315 131.406 116.675 131.168 117.085 131C117.496 130.832 117.939 130.748 118.415 130.748C119.433 130.748 120.231 131.047 120.809 131.644C121.388 132.241 121.677 133.147 121.677 134.36V134.724H116.399ZM118.401 131.812C117.851 131.812 117.398 131.989 117.043 132.344C116.698 132.689 116.483 133.156 116.399 133.744H120.277C120.277 133.128 120.1 132.652 119.745 132.316C119.391 131.98 118.943 131.812 118.401 131.812ZM123.57 130.86H124.802V132.022H124.83C125.064 131.565 125.344 131.238 125.67 131.042C126.006 130.846 126.408 130.748 126.874 130.748C127.005 130.748 127.136 130.757 127.266 130.776C127.406 130.785 127.551 130.799 127.7 130.818V131.966C127.56 131.947 127.425 131.933 127.294 131.924C127.164 131.905 127.038 131.896 126.916 131.896C126.198 131.896 125.68 132.143 125.362 132.638C125.045 133.133 124.886 133.856 124.886 134.808V138H123.57V130.86ZM133.773 137.062V141.136H132.457V130.86H133.717V131.882H133.745C133.931 131.63 134.132 131.429 134.347 131.28C134.571 131.131 134.79 131.019 135.005 130.944C135.219 130.86 135.425 130.809 135.621 130.79C135.817 130.762 135.985 130.748 136.125 130.748C136.647 130.748 137.114 130.841 137.525 131.028C137.935 131.205 138.281 131.457 138.561 131.784C138.841 132.111 139.055 132.498 139.205 132.946C139.354 133.385 139.429 133.861 139.429 134.374C139.429 134.878 139.354 135.359 139.205 135.816C139.065 136.264 138.855 136.661 138.575 137.006C138.295 137.342 137.954 137.613 137.553 137.818C137.151 138.014 136.699 138.112 136.195 138.112C135.616 138.112 135.126 138.005 134.725 137.79C134.333 137.566 134.034 137.323 133.829 137.062H133.773ZM135.887 137.048C136.54 137.048 137.058 136.805 137.441 136.32C137.833 135.825 138.029 135.163 138.029 134.332C138.029 133.567 137.837 132.955 137.455 132.498C137.081 132.041 136.573 131.812 135.929 131.812C135.266 131.812 134.739 132.05 134.347 132.526C133.964 133.002 133.773 133.641 133.773 134.444C133.773 135.237 133.964 135.872 134.347 136.348C134.729 136.815 135.243 137.048 135.887 137.048ZM143.055 138.112C142.308 138.112 141.715 137.925 141.277 137.552C140.838 137.169 140.619 136.642 140.619 135.97C140.619 135.186 140.917 134.589 141.515 134.178C142.121 133.758 143.05 133.548 144.301 133.548H145.617V133.31C145.617 132.797 145.439 132.423 145.085 132.19C144.73 131.957 144.259 131.84 143.671 131.84C143.288 131.84 142.901 131.887 142.509 131.98C142.117 132.064 141.706 132.223 141.277 132.456V131.224C141.631 131.065 142.037 130.949 142.495 130.874C142.952 130.79 143.4 130.748 143.839 130.748C144.819 130.748 145.579 130.972 146.121 131.42C146.662 131.859 146.933 132.573 146.933 133.562V138H145.589V136.908H145.561C145.262 137.347 144.879 137.659 144.413 137.846C143.955 138.023 143.503 138.112 143.055 138.112ZM143.377 136.992C143.703 136.992 144.002 136.941 144.273 136.838C144.553 136.735 144.791 136.595 144.987 136.418C145.183 136.231 145.337 136.017 145.449 135.774C145.561 135.531 145.617 135.275 145.617 135.004V134.556H144.357C143.918 134.556 143.549 134.589 143.251 134.654C142.961 134.719 142.723 134.813 142.537 134.934C142.35 135.055 142.215 135.195 142.131 135.354C142.056 135.513 142.019 135.69 142.019 135.886C142.019 136.241 142.14 136.516 142.383 136.712C142.625 136.899 142.957 136.992 143.377 136.992ZM150.833 138.112C150.357 138.112 149.947 138.075 149.601 138C149.265 137.916 148.967 137.823 148.705 137.72V136.558C149.181 136.773 149.592 136.908 149.937 136.964C150.292 137.011 150.549 137.034 150.707 137.034C151.249 137.034 151.641 136.941 151.883 136.754C152.126 136.558 152.247 136.339 152.247 136.096C152.247 135.947 152.205 135.821 152.121 135.718C152.047 135.606 151.944 135.503 151.813 135.41C151.683 135.317 151.529 135.233 151.351 135.158C151.174 135.074 150.987 134.99 150.791 134.906C150.521 134.785 150.255 134.663 149.993 134.542C149.741 134.411 149.517 134.267 149.321 134.108C149.125 133.94 148.967 133.744 148.845 133.52C148.724 133.296 148.663 133.025 148.663 132.708C148.663 132.12 148.897 131.649 149.363 131.294C149.839 130.93 150.53 130.748 151.435 130.748C151.902 130.748 152.313 130.785 152.667 130.86C153.022 130.935 153.251 130.991 153.353 131.028V132.148C153.083 132.036 152.793 131.957 152.485 131.91C152.187 131.863 151.888 131.84 151.589 131.84C151.057 131.84 150.675 131.915 150.441 132.064C150.208 132.204 150.091 132.395 150.091 132.638C150.091 132.778 150.129 132.904 150.203 133.016C150.278 133.119 150.376 133.217 150.497 133.31C150.628 133.394 150.777 133.478 150.945 133.562C151.113 133.637 151.291 133.716 151.477 133.8C151.729 133.912 151.986 134.029 152.247 134.15C152.518 134.262 152.761 134.402 152.975 134.57C153.199 134.738 153.377 134.939 153.507 135.172C153.647 135.405 153.717 135.695 153.717 136.04C153.717 136.656 153.465 137.155 152.961 137.538C152.467 137.921 151.757 138.112 150.833 138.112ZM157.409 138.112C156.933 138.112 156.523 138.075 156.177 138C155.841 137.916 155.543 137.823 155.281 137.72V136.558C155.757 136.773 156.168 136.908 156.513 136.964C156.868 137.011 157.125 137.034 157.283 137.034C157.825 137.034 158.217 136.941 158.459 136.754C158.702 136.558 158.823 136.339 158.823 136.096C158.823 135.947 158.781 135.821 158.697 135.718C158.623 135.606 158.52 135.503 158.389 135.41C158.259 135.317 158.105 135.233 157.927 135.158C157.75 135.074 157.563 134.99 157.367 134.906C157.097 134.785 156.831 134.663 156.569 134.542C156.317 134.411 156.093 134.267 155.897 134.108C155.701 133.94 155.543 133.744 155.421 133.52C155.3 133.296 155.239 133.025 155.239 132.708C155.239 132.12 155.473 131.649 155.939 131.294C156.415 130.93 157.106 130.748 158.011 130.748C158.478 130.748 158.889 130.785 159.243 130.86C159.598 130.935 159.827 130.991 159.929 131.028V132.148C159.659 132.036 159.369 131.957 159.061 131.91C158.763 131.863 158.464 131.84 158.165 131.84C157.633 131.84 157.251 131.915 157.017 132.064C156.784 132.204 156.667 132.395 156.667 132.638C156.667 132.778 156.705 132.904 156.779 133.016C156.854 133.119 156.952 133.217 157.073 133.31C157.204 133.394 157.353 133.478 157.521 133.562C157.689 133.637 157.867 133.716 158.053 133.8C158.305 133.912 158.562 134.029 158.823 134.15C159.094 134.262 159.337 134.402 159.551 134.57C159.775 134.738 159.953 134.939 160.083 135.172C160.223 135.405 160.293 135.695 160.293 136.04C160.293 136.656 160.041 137.155 159.537 137.538C159.043 137.921 158.333 138.112 157.409 138.112ZM161.173 130.86H162.615L164.211 136.544L166.045 130.86H167.165L168.985 136.572L170.707 130.86H171.995L169.685 138H168.299L166.535 132.596L164.855 138H163.469L161.173 130.86ZM176.418 138.112C175.877 138.112 175.382 138.023 174.934 137.846C174.486 137.669 174.099 137.417 173.772 137.09C173.455 136.763 173.207 136.376 173.03 135.928C172.853 135.48 172.764 134.981 172.764 134.43C172.764 133.889 172.853 133.394 173.03 132.946C173.207 132.489 173.455 132.097 173.772 131.77C174.099 131.443 174.486 131.191 174.934 131.014C175.382 130.837 175.877 130.748 176.418 130.748C176.959 130.748 177.454 130.837 177.902 131.014C178.35 131.191 178.733 131.443 179.05 131.77C179.377 132.097 179.629 132.489 179.806 132.946C179.983 133.394 180.072 133.889 180.072 134.43C180.072 134.981 179.983 135.48 179.806 135.928C179.629 136.376 179.377 136.763 179.05 137.09C178.733 137.417 178.35 137.669 177.902 137.846C177.454 138.023 176.959 138.112 176.418 138.112ZM176.418 137.048C176.726 137.048 177.015 136.987 177.286 136.866C177.566 136.745 177.804 136.572 178 136.348C178.205 136.115 178.369 135.839 178.49 135.522C178.611 135.195 178.672 134.831 178.672 134.43C178.672 134.029 178.611 133.669 178.49 133.352C178.369 133.025 178.205 132.75 178 132.526C177.795 132.293 177.557 132.115 177.286 131.994C177.015 131.873 176.726 131.812 176.418 131.812C176.11 131.812 175.816 131.873 175.536 131.994C175.265 132.115 175.027 132.293 174.822 132.526C174.626 132.75 174.467 133.025 174.346 133.352C174.225 133.669 174.164 134.029 174.164 134.43C174.164 134.831 174.225 135.195 174.346 135.522C174.467 135.839 174.626 136.115 174.822 136.348C175.027 136.572 175.265 136.745 175.536 136.866C175.816 136.987 176.11 137.048 176.418 137.048ZM181.922 130.86H183.154V132.022H183.182C183.415 131.565 183.695 131.238 184.022 131.042C184.358 130.846 184.759 130.748 185.226 130.748C185.356 130.748 185.487 130.757 185.618 130.776C185.758 130.785 185.902 130.799 186.052 130.818V131.966C185.912 131.947 185.776 131.933 185.646 131.924C185.515 131.905 185.389 131.896 185.268 131.896C184.549 131.896 184.031 132.143 183.714 132.638C183.396 133.133 183.238 133.856 183.238 134.808V138H181.922V130.86ZM190.301 138.112C189.797 138.112 189.34 138.019 188.929 137.832C188.518 137.645 188.168 137.384 187.879 137.048C187.59 136.712 187.366 136.315 187.207 135.858C187.058 135.391 186.983 134.887 186.983 134.346C186.983 133.833 187.062 133.357 187.221 132.918C187.38 132.479 187.604 132.101 187.893 131.784C188.182 131.457 188.528 131.205 188.929 131.028C189.34 130.841 189.788 130.748 190.273 130.748C190.814 130.748 191.272 130.851 191.645 131.056C192.028 131.261 192.35 131.513 192.611 131.812H192.639V127.36H193.955V138H192.695V136.992H192.611C192.34 137.337 192.018 137.613 191.645 137.818C191.281 138.014 190.833 138.112 190.301 138.112ZM190.525 137.048C190.833 137.048 191.118 136.983 191.379 136.852C191.64 136.721 191.864 136.544 192.051 136.32C192.238 136.087 192.382 135.811 192.485 135.494C192.588 135.177 192.639 134.827 192.639 134.444C192.639 134.061 192.583 133.711 192.471 133.394C192.368 133.067 192.224 132.787 192.037 132.554C191.85 132.321 191.626 132.139 191.365 132.008C191.104 131.877 190.814 131.812 190.497 131.812C190.198 131.812 189.918 131.877 189.657 132.008C189.396 132.139 189.172 132.321 188.985 132.554C188.798 132.778 188.649 133.049 188.537 133.366C188.434 133.683 188.383 134.029 188.383 134.402C188.383 134.785 188.434 135.139 188.537 135.466C188.649 135.783 188.798 136.063 188.985 136.306C189.181 136.539 189.41 136.721 189.671 136.852C189.932 136.983 190.217 137.048 190.525 137.048ZM203.088 131.924H201.324V135.774C201.324 136.203 201.431 136.502 201.646 136.67C201.87 136.829 202.131 136.908 202.43 136.908C202.654 136.908 202.892 136.871 203.144 136.796V137.986C202.966 138.033 202.798 138.065 202.64 138.084C202.481 138.103 202.336 138.112 202.206 138.112C201.496 138.112 200.955 137.921 200.582 137.538C200.208 137.146 200.022 136.6 200.022 135.9V131.924H198.72V130.86H200.022V129.082L201.324 128.606V130.86H203.088V131.924ZM207.932 138.112C207.39 138.112 206.896 138.023 206.448 137.846C206 137.669 205.612 137.417 205.286 137.09C204.968 136.763 204.721 136.376 204.544 135.928C204.366 135.48 204.278 134.981 204.278 134.43C204.278 133.889 204.366 133.394 204.544 132.946C204.721 132.489 204.968 132.097 205.286 131.77C205.612 131.443 206 131.191 206.448 131.014C206.896 130.837 207.39 130.748 207.932 130.748C208.473 130.748 208.968 130.837 209.416 131.014C209.864 131.191 210.246 131.443 210.564 131.77C210.89 132.097 211.142 132.489 211.32 132.946C211.497 133.394 211.586 133.889 211.586 134.43C211.586 134.981 211.497 135.48 211.32 135.928C211.142 136.376 210.89 136.763 210.564 137.09C210.246 137.417 209.864 137.669 209.416 137.846C208.968 138.023 208.473 138.112 207.932 138.112ZM207.932 137.048C208.24 137.048 208.529 136.987 208.8 136.866C209.08 136.745 209.318 136.572 209.514 136.348C209.719 136.115 209.882 135.839 210.004 135.522C210.125 135.195 210.186 134.831 210.186 134.43C210.186 134.029 210.125 133.669 210.004 133.352C209.882 133.025 209.719 132.75 209.514 132.526C209.308 132.293 209.07 132.115 208.8 131.994C208.529 131.873 208.24 131.812 207.932 131.812C207.624 131.812 207.33 131.873 207.05 131.994C206.779 132.115 206.541 132.293 206.336 132.526C206.14 132.75 205.981 133.025 205.86 133.352C205.738 133.669 205.678 134.029 205.678 134.43C205.678 134.831 205.738 135.195 205.86 135.522C205.981 135.839 206.14 136.115 206.336 136.348C206.541 136.572 206.779 136.745 207.05 136.866C207.33 136.987 207.624 137.048 207.932 137.048ZM218.468 138.112C217.992 138.112 217.581 138.075 217.236 138C216.9 137.916 216.601 137.823 216.34 137.72V136.558C216.816 136.773 217.227 136.908 217.572 136.964C217.927 137.011 218.183 137.034 218.342 137.034C218.883 137.034 219.275 136.941 219.518 136.754C219.761 136.558 219.882 136.339 219.882 136.096C219.882 135.947 219.84 135.821 219.756 135.718C219.681 135.606 219.579 135.503 219.448 135.41C219.317 135.317 219.163 135.233 218.986 135.158C218.809 135.074 218.622 134.99 218.426 134.906C218.155 134.785 217.889 134.663 217.628 134.542C217.376 134.411 217.152 134.267 216.956 134.108C216.76 133.94 216.601 133.744 216.48 133.52C216.359 133.296 216.298 133.025 216.298 132.708C216.298 132.12 216.531 131.649 216.998 131.294C217.474 130.93 218.165 130.748 219.07 130.748C219.537 130.748 219.947 130.785 220.302 130.86C220.657 130.935 220.885 130.991 220.988 131.028V132.148C220.717 132.036 220.428 131.957 220.12 131.91C219.821 131.863 219.523 131.84 219.224 131.84C218.692 131.84 218.309 131.915 218.076 132.064C217.843 132.204 217.726 132.395 217.726 132.638C217.726 132.778 217.763 132.904 217.838 133.016C217.913 133.119 218.011 133.217 218.132 133.31C218.263 133.394 218.412 133.478 218.58 133.562C218.748 133.637 218.925 133.716 219.112 133.8C219.364 133.912 219.621 134.029 219.882 134.15C220.153 134.262 220.395 134.402 220.61 134.57C220.834 134.738 221.011 134.939 221.142 135.172C221.282 135.405 221.352 135.695 221.352 136.04C221.352 136.656 221.1 137.155 220.596 137.538C220.101 137.921 219.392 138.112 218.468 138.112ZM223.311 130.86H224.627V138H223.311V130.86ZM223.241 127.92H224.725V129.404H223.241V127.92ZM229.864 141.192C229.491 141.192 229.145 141.169 228.828 141.122C228.511 141.075 228.231 141.019 227.988 140.954C227.708 140.889 227.451 140.809 227.218 140.716V139.456C227.451 139.577 227.708 139.689 227.988 139.792C228.231 139.876 228.511 139.951 228.828 140.016C229.145 140.091 229.491 140.128 229.864 140.128C231.516 140.128 232.342 139.297 232.342 137.636V136.894H232.3C232.067 137.239 231.74 137.51 231.32 137.706C230.909 137.902 230.457 138 229.962 138C229.495 138 229.061 137.916 228.66 137.748C228.268 137.58 227.923 137.342 227.624 137.034C227.335 136.717 227.106 136.339 226.938 135.9C226.77 135.452 226.686 134.948 226.686 134.388C226.686 133.809 226.775 133.296 226.952 132.848C227.129 132.391 227.367 132.008 227.666 131.7C227.974 131.392 228.333 131.159 228.744 131C229.155 130.832 229.593 130.748 230.06 130.748C230.601 130.748 231.059 130.86 231.432 131.084C231.805 131.308 232.123 131.574 232.384 131.882H232.426V130.86H233.658V137.636C233.658 138.831 233.35 139.722 232.734 140.31C232.127 140.898 231.171 141.192 229.864 141.192ZM230.242 136.936C230.531 136.936 230.802 136.88 231.054 136.768C231.315 136.656 231.539 136.493 231.726 136.278C231.913 136.054 232.057 135.788 232.16 135.48C232.272 135.163 232.328 134.799 232.328 134.388C232.328 133.968 232.272 133.599 232.16 133.282C232.048 132.955 231.894 132.685 231.698 132.47C231.502 132.246 231.273 132.083 231.012 131.98C230.751 131.868 230.466 131.812 230.158 131.812C229.869 131.812 229.598 131.863 229.346 131.966C229.094 132.069 228.875 132.227 228.688 132.442C228.501 132.647 228.352 132.909 228.24 133.226C228.137 133.534 228.086 133.893 228.086 134.304C228.086 134.715 228.142 135.083 228.254 135.41C228.375 135.727 228.534 136.003 228.73 136.236C228.926 136.46 229.155 136.633 229.416 136.754C229.677 136.875 229.953 136.936 230.242 136.936ZM235.98 130.86H237.296V131.882H237.324C237.595 131.499 237.931 131.215 238.332 131.028C238.743 130.841 239.2 130.748 239.704 130.748C240.544 130.748 241.207 131 241.692 131.504C242.178 131.999 242.42 132.764 242.42 133.8V138H241.104V134.22C241.104 133.763 241.062 133.38 240.978 133.072C240.904 132.755 240.792 132.507 240.642 132.33C240.502 132.143 240.325 132.013 240.11 131.938C239.905 131.854 239.676 131.812 239.424 131.812C238.78 131.812 238.262 132.045 237.87 132.512C237.488 132.969 237.296 133.679 237.296 134.64V138H235.98V130.86ZM247.962 130.86H249.278V138H247.962V130.86ZM247.892 127.92H249.376V129.404H247.892V127.92ZM251.812 130.86H253.128V131.882H253.156C253.427 131.499 253.763 131.215 254.164 131.028C254.575 130.841 255.032 130.748 255.536 130.748C256.376 130.748 257.039 131 257.524 131.504C258.01 131.999 258.252 132.764 258.252 133.8V138H256.936V134.22C256.936 133.763 256.894 133.38 256.81 133.072C256.736 132.755 256.624 132.507 256.474 132.33C256.334 132.143 256.157 132.013 255.942 131.938C255.737 131.854 255.508 131.812 255.256 131.812C254.612 131.812 254.094 132.045 253.702 132.512C253.32 132.969 253.128 133.679 253.128 134.64V138H251.812V130.86Z" fill="#22242A"/>
</g>
<rect x="41.5" y="181.5" width="379" height="55" rx="3.5" fill="white"/>
<rect x="41.5" y="181.5" width="379" height="55" rx="3.5" stroke="#B1B5BB"/>
<path d="M58.302 191.2H59.674V199.768H64.056V201H58.302V191.2ZM68.4084 201.112C67.867 201.112 67.3724 201.023 66.9244 200.846C66.4764 200.669 66.089 200.417 65.7624 200.09C65.445 199.763 65.1977 199.376 65.0204 198.928C64.843 198.48 64.7544 197.981 64.7544 197.43C64.7544 196.889 64.843 196.394 65.0204 195.946C65.1977 195.489 65.445 195.097 65.7624 194.77C66.089 194.443 66.4764 194.191 66.9244 194.014C67.3724 193.837 67.867 193.748 68.4084 193.748C68.9497 193.748 69.4444 193.837 69.8924 194.014C70.3404 194.191 70.723 194.443 71.0404 194.77C71.367 195.097 71.619 195.489 71.7964 195.946C71.9737 196.394 72.0624 196.889 72.0624 197.43C72.0624 197.981 71.9737 198.48 71.7964 198.928C71.619 199.376 71.367 199.763 71.0404 200.09C70.723 200.417 70.3404 200.669 69.8924 200.846C69.4444 201.023 68.9497 201.112 68.4084 201.112ZM68.4084 200.048C68.7164 200.048 69.0057 199.987 69.2764 199.866C69.5564 199.745 69.7944 199.572 69.9904 199.348C70.1957 199.115 70.359 198.839 70.4804 198.522C70.6017 198.195 70.6624 197.831 70.6624 197.43C70.6624 197.029 70.6017 196.669 70.4804 196.352C70.359 196.025 70.1957 195.75 69.9904 195.526C69.785 195.293 69.547 195.115 69.2764 194.994C69.0057 194.873 68.7164 194.812 68.4084 194.812C68.1004 194.812 67.8064 194.873 67.5264 194.994C67.2557 195.115 67.0177 195.293 66.8124 195.526C66.6164 195.75 66.4577 196.025 66.3364 196.352C66.215 196.669 66.1544 197.029 66.1544 197.43C66.1544 197.831 66.215 198.195 66.3364 198.522C66.4577 198.839 66.6164 199.115 66.8124 199.348C67.0177 199.572 67.2557 199.745 67.5264 199.866C67.8064 199.987 68.1004 200.048 68.4084 200.048ZM76.614 204.192C76.2407 204.192 75.8953 204.169 75.578 204.122C75.2607 204.075 74.9807 204.019 74.738 203.954C74.458 203.889 74.2013 203.809 73.968 203.716V202.456C74.2013 202.577 74.458 202.689 74.738 202.792C74.9807 202.876 75.2607 202.951 75.578 203.016C75.8953 203.091 76.2407 203.128 76.614 203.128C78.266 203.128 79.092 202.297 79.092 200.636V199.894H79.05C78.8167 200.239 78.49 200.51 78.07 200.706C77.6593 200.902 77.2067 201 76.712 201C76.2453 201 75.8113 200.916 75.41 200.748C75.018 200.58 74.6727 200.342 74.374 200.034C74.0847 199.717 73.856 199.339 73.688 198.9C73.52 198.452 73.436 197.948 73.436 197.388C73.436 196.809 73.5247 196.296 73.702 195.848C73.8793 195.391 74.1173 195.008 74.416 194.7C74.724 194.392 75.0833 194.159 75.494 194C75.9047 193.832 76.3433 193.748 76.81 193.748C77.3513 193.748 77.8087 193.86 78.182 194.084C78.5553 194.308 78.8727 194.574 79.134 194.882H79.176V193.86H80.408V200.636C80.408 201.831 80.1 202.722 79.484 203.31C78.8773 203.898 77.9207 204.192 76.614 204.192ZM76.992 199.936C77.2813 199.936 77.552 199.88 77.804 199.768C78.0653 199.656 78.2893 199.493 78.476 199.278C78.6627 199.054 78.8073 198.788 78.91 198.48C79.022 198.163 79.078 197.799 79.078 197.388C79.078 196.968 79.022 196.599 78.91 196.282C78.798 195.955 78.644 195.685 78.448 195.47C78.252 195.246 78.0233 195.083 77.762 194.98C77.5007 194.868 77.216 194.812 76.908 194.812C76.6187 194.812 76.348 194.863 76.096 194.966C75.844 195.069 75.6247 195.227 75.438 195.442C75.2513 195.647 75.102 195.909 74.99 196.226C74.8873 196.534 74.836 196.893 74.836 197.304C74.836 197.715 74.892 198.083 75.004 198.41C75.1253 198.727 75.284 199.003 75.48 199.236C75.676 199.46 75.9047 199.633 76.166 199.754C76.4273 199.875 76.7027 199.936 76.992 199.936ZM82.9404 193.86H84.2564V201H82.9404V193.86ZM82.8704 190.92H84.3544V192.404H82.8704V190.92ZM86.7909 193.86H88.1069V194.882H88.1349C88.4056 194.499 88.7416 194.215 89.1429 194.028C89.5536 193.841 90.0109 193.748 90.5149 193.748C91.3549 193.748 92.0176 194 92.5029 194.504C92.9882 194.999 93.2309 195.764 93.2309 196.8V201H91.9149V197.22C91.9149 196.763 91.8729 196.38 91.7889 196.072C91.7142 195.755 91.6022 195.507 91.4529 195.33C91.3129 195.143 91.1356 195.013 90.9209 194.938C90.7156 194.854 90.4869 194.812 90.2349 194.812C89.5909 194.812 89.0729 195.045 88.6809 195.512C88.2982 195.969 88.1069 196.679 88.1069 197.64V201H86.7909V193.86Z" fill="#7B7E86"/>
<path d="M58.488 212.8H61.032L63.912 218.96L66.808 212.8H69.272V224H67.704V214.336H67.656L64.52 220.8H63.24L60.104 214.336H60.056V224H58.488V212.8ZM74.0334 224.128C73.18 224.128 72.5027 223.915 72.0014 223.488C71.5 223.051 71.2494 222.448 71.2494 221.68C71.2494 220.784 71.5907 220.101 72.2734 219.632C72.9667 219.152 74.028 218.912 75.4574 218.912H76.9614V218.64C76.9614 218.053 76.7587 217.627 76.3534 217.36C75.948 217.093 75.4094 216.96 74.7374 216.96C74.3 216.96 73.8574 217.013 73.4094 217.12C72.9614 217.216 72.492 217.397 72.0014 217.664V216.256C72.4067 216.075 72.8707 215.941 73.3934 215.856C73.916 215.76 74.428 215.712 74.9294 215.712C76.0494 215.712 76.9187 215.968 77.5374 216.48C78.156 216.981 78.4654 217.797 78.4654 218.928V224H76.9294V222.752H76.8974C76.556 223.253 76.1187 223.611 75.5854 223.824C75.0627 224.027 74.5454 224.128 74.0334 224.128ZM74.4014 222.848C74.7747 222.848 75.116 222.789 75.4254 222.672C75.7454 222.555 76.0174 222.395 76.2414 222.192C76.4654 221.979 76.6414 221.733 76.7694 221.456C76.8974 221.179 76.9614 220.885 76.9614 220.576V220.064H75.5214C75.02 220.064 74.5987 220.101 74.2574 220.176C73.9267 220.251 73.6547 220.357 73.4414 220.496C73.228 220.635 73.0734 220.795 72.9774 220.976C72.892 221.157 72.8494 221.36 72.8494 221.584C72.8494 221.989 72.988 222.304 73.2654 222.528C73.5427 222.741 73.9214 222.848 74.4014 222.848ZM80.8593 211.84H82.3633V219.648L86.3153 215.84H88.1873L84.5553 219.232L88.2353 224H86.3953L83.4993 220.16L82.3633 221.232V224H80.8593V211.84ZM91.8303 224.128C90.9769 224.128 90.2996 223.915 89.7983 223.488C89.2969 223.051 89.0463 222.448 89.0463 221.68C89.0463 220.784 89.3876 220.101 90.0703 219.632C90.7636 219.152 91.8249 218.912 93.2543 218.912H94.7583V218.64C94.7583 218.053 94.5556 217.627 94.1503 217.36C93.7449 217.093 93.2063 216.96 92.5343 216.96C92.0969 216.96 91.6543 217.013 91.2063 217.12C90.7583 217.216 90.2889 217.397 89.7983 217.664V216.256C90.2036 216.075 90.6676 215.941 91.1903 215.856C91.7129 215.76 92.2249 215.712 92.7263 215.712C93.8463 215.712 94.7156 215.968 95.3343 216.48C95.9529 216.981 96.2623 217.797 96.2623 218.928V224H94.7263V222.752H94.6943C94.3529 223.253 93.9156 223.611 93.3823 223.824C92.8596 224.027 92.3423 224.128 91.8303 224.128ZM92.1983 222.848C92.5716 222.848 92.9129 222.789 93.2223 222.672C93.5423 222.555 93.8143 222.395 94.0383 222.192C94.2623 221.979 94.4383 221.733 94.5663 221.456C94.6943 221.179 94.7583 220.885 94.7583 220.576V220.064H93.3183C92.8169 220.064 92.3956 220.101 92.0543 220.176C91.7236 220.251 91.4516 220.357 91.2383 220.496C91.0249 220.635 90.8703 220.795 90.7743 220.976C90.6889 221.157 90.6463 221.36 90.6463 221.584C90.6463 221.989 90.7849 222.304 91.0623 222.528C91.3396 222.741 91.7183 222.848 92.1983 222.848ZM98.6561 215.84H100.064V217.168H100.096C100.363 216.645 100.683 216.272 101.056 216.048C101.44 215.824 101.899 215.712 102.432 215.712C102.581 215.712 102.731 215.723 102.88 215.744C103.04 215.755 103.205 215.771 103.376 215.792V217.104C103.216 217.083 103.061 217.067 102.912 217.056C102.763 217.035 102.619 217.024 102.48 217.024C101.659 217.024 101.067 217.307 100.704 217.872C100.341 218.437 100.16 219.264 100.16 220.352V224H98.6561V215.84ZM109.589 219.728C109.461 219.749 109.327 219.76 109.189 219.76C109.061 219.76 108.927 219.76 108.789 219.76H106.869V224H105.301V212.8H108.789C110.154 212.8 111.162 213.104 111.812 213.712C112.463 214.32 112.789 215.189 112.789 216.32C112.789 217.067 112.639 217.685 112.341 218.176C112.053 218.667 111.647 219.045 111.125 219.312L113.525 224H111.589L109.589 219.728ZM108.789 218.432C109.589 218.432 110.17 218.256 110.533 217.904C110.906 217.552 111.093 217.024 111.093 216.32C111.093 215.616 110.906 215.088 110.533 214.736C110.17 214.384 109.589 214.208 108.789 214.208H106.869V218.432H108.789ZM113.688 212.8H115.448L118.12 222.4H118.152L120.536 212.8H122.808L125.224 222.4H125.256L127.928 212.8H129.624L126.184 224H124.12L121.688 214.208H121.656L119.208 224H117.064L113.688 212.8ZM130.36 222.4C130.702 222.123 131.032 221.856 131.352 221.6C131.672 221.333 132.003 221.061 132.344 220.784C132.974 220.283 133.523 219.829 133.992 219.424C134.472 219.008 134.867 218.619 135.176 218.256C135.496 217.883 135.736 217.525 135.896 217.184C136.056 216.832 136.136 216.464 136.136 216.08C136.136 215.387 135.918 214.88 135.48 214.56C135.054 214.24 134.478 214.08 133.752 214.08C133.134 214.08 132.579 214.16 132.088 214.32C131.598 214.469 131.155 214.651 130.76 214.864V213.328C131.379 213.072 131.96 212.901 132.504 212.816C133.059 212.72 133.56 212.672 134.008 212.672C134.499 212.672 134.963 212.736 135.4 212.864C135.848 212.992 136.238 213.184 136.568 213.44C136.91 213.696 137.176 214.021 137.368 214.416C137.571 214.811 137.672 215.28 137.672 215.824C137.672 216.421 137.55 216.976 137.304 217.488C137.07 217.989 136.728 218.485 136.28 218.976C135.843 219.456 135.31 219.952 134.68 220.464C134.051 220.965 133.347 221.52 132.568 222.128L131.992 222.576V222.592H137.832V224H130.36V222.4Z" fill="#22242A"/>
<rect x="42" y="262" width="378" height="54" rx="3" fill="white"/>
<rect x="42" y="262" width="378" height="54" rx="3" stroke="#0062FF" stroke-width="2"/>
<path d="M58.302 271.2H61.438C62.6513 271.2 63.5473 271.471 64.126 272.012C64.7047 272.544 64.994 273.305 64.994 274.294C64.994 275.283 64.7047 276.049 64.126 276.59C63.5473 277.122 62.6513 277.388 61.438 277.388H59.674V281H58.302V271.2ZM61.438 276.156C62.1567 276.156 62.684 276.002 63.02 275.694C63.3653 275.377 63.538 274.91 63.538 274.294C63.538 273.678 63.3653 273.216 63.02 272.908C62.684 272.591 62.1567 272.432 61.438 272.432H59.674V276.156H61.438ZM68.1855 281.112C67.4388 281.112 66.8461 280.925 66.4075 280.552C65.9688 280.169 65.7495 279.642 65.7495 278.97C65.7495 278.186 66.0481 277.589 66.6455 277.178C67.2521 276.758 68.1808 276.548 69.4315 276.548H70.7475V276.31C70.7475 275.797 70.5701 275.423 70.2155 275.19C69.8608 274.957 69.3895 274.84 68.8015 274.84C68.4188 274.84 68.0315 274.887 67.6395 274.98C67.2475 275.064 66.8368 275.223 66.4075 275.456V274.224C66.7621 274.065 67.1681 273.949 67.6255 273.874C68.0828 273.79 68.5308 273.748 68.9695 273.748C69.9495 273.748 70.7101 273.972 71.2515 274.42C71.7928 274.859 72.0635 275.573 72.0635 276.562V281H70.7195V279.908H70.6915C70.3928 280.347 70.0101 280.659 69.5435 280.846C69.0861 281.023 68.6335 281.112 68.1855 281.112ZM68.5075 279.992C68.8341 279.992 69.1328 279.941 69.4035 279.838C69.6835 279.735 69.9215 279.595 70.1175 279.418C70.3135 279.231 70.4675 279.017 70.5795 278.774C70.6915 278.531 70.7475 278.275 70.7475 278.004V277.556H69.4875C69.0488 277.556 68.6801 277.589 68.3815 277.654C68.0921 277.719 67.8541 277.813 67.6675 277.934C67.4808 278.055 67.3455 278.195 67.2615 278.354C67.1868 278.513 67.1495 278.69 67.1495 278.886C67.1495 279.241 67.2708 279.516 67.5135 279.712C67.7561 279.899 68.0875 279.992 68.5075 279.992ZM75.9641 281.112C75.4881 281.112 75.0774 281.075 74.7321 281C74.3961 280.916 74.0974 280.823 73.8361 280.72V279.558C74.3121 279.773 74.7228 279.908 75.0681 279.964C75.4228 280.011 75.6794 280.034 75.8381 280.034C76.3794 280.034 76.7714 279.941 77.0141 279.754C77.2568 279.558 77.3781 279.339 77.3781 279.096C77.3781 278.947 77.3361 278.821 77.2521 278.718C77.1774 278.606 77.0748 278.503 76.9441 278.41C76.8134 278.317 76.6594 278.233 76.4821 278.158C76.3048 278.074 76.1181 277.99 75.9221 277.906C75.6514 277.785 75.3854 277.663 75.1241 277.542C74.8721 277.411 74.6481 277.267 74.4521 277.108C74.2561 276.94 74.0974 276.744 73.9761 276.52C73.8548 276.296 73.7941 276.025 73.7941 275.708C73.7941 275.12 74.0274 274.649 74.4941 274.294C74.9701 273.93 75.6608 273.748 76.5661 273.748C77.0328 273.748 77.4434 273.785 77.7981 273.86C78.1528 273.935 78.3814 273.991 78.4841 274.028V275.148C78.2134 275.036 77.9241 274.957 77.6161 274.91C77.3174 274.863 77.0188 274.84 76.7201 274.84C76.1881 274.84 75.8054 274.915 75.5721 275.064C75.3388 275.204 75.2221 275.395 75.2221 275.638C75.2221 275.778 75.2594 275.904 75.3341 276.016C75.4088 276.119 75.5068 276.217 75.6281 276.31C75.7588 276.394 75.9081 276.478 76.0761 276.562C76.2441 276.637 76.4214 276.716 76.6081 276.8C76.8601 276.912 77.1168 277.029 77.3781 277.15C77.6488 277.262 77.8914 277.402 78.1061 277.57C78.3301 277.738 78.5074 277.939 78.6381 278.172C78.7781 278.405 78.8481 278.695 78.8481 279.04C78.8481 279.656 78.5961 280.155 78.0921 280.538C77.5974 280.921 76.8881 281.112 75.9641 281.112ZM82.5403 281.112C82.0643 281.112 81.6536 281.075 81.3083 281C80.9723 280.916 80.6736 280.823 80.4123 280.72V279.558C80.8883 279.773 81.2989 279.908 81.6443 279.964C81.9989 280.011 82.2556 280.034 82.4143 280.034C82.9556 280.034 83.3476 279.941 83.5903 279.754C83.8329 279.558 83.9543 279.339 83.9543 279.096C83.9543 278.947 83.9123 278.821 83.8283 278.718C83.7536 278.606 83.6509 278.503 83.5203 278.41C83.3896 278.317 83.2356 278.233 83.0583 278.158C82.8809 278.074 82.6943 277.99 82.4983 277.906C82.2276 277.785 81.9616 277.663 81.7003 277.542C81.4483 277.411 81.2243 277.267 81.0283 277.108C80.8323 276.94 80.6736 276.744 80.5523 276.52C80.4309 276.296 80.3703 276.025 80.3703 275.708C80.3703 275.12 80.6036 274.649 81.0703 274.294C81.5463 273.93 82.2369 273.748 83.1423 273.748C83.6089 273.748 84.0196 273.785 84.3743 273.86C84.7289 273.935 84.9576 273.991 85.0603 274.028V275.148C84.7896 275.036 84.5003 274.957 84.1923 274.91C83.8936 274.863 83.5949 274.84 83.2963 274.84C82.7643 274.84 82.3816 274.915 82.1483 275.064C81.9149 275.204 81.7983 275.395 81.7983 275.638C81.7983 275.778 81.8356 275.904 81.9103 276.016C81.9849 276.119 82.0829 276.217 82.2043 276.31C82.3349 276.394 82.4843 276.478 82.6523 276.562C82.8203 276.637 82.9976 276.716 83.1843 276.8C83.4363 276.912 83.6929 277.029 83.9543 277.15C84.2249 277.262 84.4676 277.402 84.6823 277.57C84.9063 277.738 85.0836 277.939 85.2143 278.172C85.3543 278.405 85.4243 278.695 85.4243 279.04C85.4243 279.656 85.1723 280.155 84.6683 280.538C84.1736 280.921 83.4643 281.112 82.5403 281.112ZM86.3041 273.86H87.7461L89.3421 279.544L91.1761 273.86H92.2961L94.1161 279.572L95.8381 273.86H97.1261L94.8161 281H93.4301L91.6661 275.596L89.9861 281H88.6001L86.3041 273.86ZM101.549 281.112C101.008 281.112 100.513 281.023 100.065 280.846C99.617 280.669 99.2297 280.417 98.903 280.09C98.5857 279.763 98.3383 279.376 98.161 278.928C97.9837 278.48 97.895 277.981 97.895 277.43C97.895 276.889 97.9837 276.394 98.161 275.946C98.3383 275.489 98.5857 275.097 98.903 274.77C99.2297 274.443 99.617 274.191 100.065 274.014C100.513 273.837 101.008 273.748 101.549 273.748C102.09 273.748 102.585 273.837 103.033 274.014C103.481 274.191 103.864 274.443 104.181 274.77C104.508 275.097 104.76 275.489 104.937 275.946C105.114 276.394 105.203 276.889 105.203 277.43C105.203 277.981 105.114 278.48 104.937 278.928C104.76 279.376 104.508 279.763 104.181 280.09C103.864 280.417 103.481 280.669 103.033 280.846C102.585 281.023 102.09 281.112 101.549 281.112ZM101.549 280.048C101.857 280.048 102.146 279.987 102.417 279.866C102.697 279.745 102.935 279.572 103.131 279.348C103.336 279.115 103.5 278.839 103.621 278.522C103.742 278.195 103.803 277.831 103.803 277.43C103.803 277.029 103.742 276.669 103.621 276.352C103.5 276.025 103.336 275.75 103.131 275.526C102.926 275.293 102.688 275.115 102.417 274.994C102.146 274.873 101.857 274.812 101.549 274.812C101.241 274.812 100.947 274.873 100.667 274.994C100.396 275.115 100.158 275.293 99.953 275.526C99.757 275.75 99.5983 276.025 99.477 276.352C99.3557 276.669 99.295 277.029 99.295 277.43C99.295 277.831 99.3557 278.195 99.477 278.522C99.5983 278.839 99.757 279.115 99.953 279.348C100.158 279.572 100.396 279.745 100.667 279.866C100.947 279.987 101.241 280.048 101.549 280.048ZM107.053 273.86H108.285V275.022H108.313C108.546 274.565 108.826 274.238 109.153 274.042C109.489 273.846 109.89 273.748 110.357 273.748C110.487 273.748 110.618 273.757 110.749 273.776C110.889 273.785 111.033 273.799 111.183 273.818V274.966C111.043 274.947 110.907 274.933 110.777 274.924C110.646 274.905 110.52 274.896 110.399 274.896C109.68 274.896 109.162 275.143 108.845 275.638C108.527 276.133 108.369 276.856 108.369 277.808V281H107.053V273.86ZM115.432 281.112C114.928 281.112 114.47 281.019 114.06 280.832C113.649 280.645 113.299 280.384 113.01 280.048C112.72 279.712 112.496 279.315 112.338 278.858C112.188 278.391 112.114 277.887 112.114 277.346C112.114 276.833 112.193 276.357 112.352 275.918C112.51 275.479 112.734 275.101 113.024 274.784C113.313 274.457 113.658 274.205 114.06 274.028C114.47 273.841 114.918 273.748 115.404 273.748C115.945 273.748 116.402 273.851 116.776 274.056C117.158 274.261 117.48 274.513 117.742 274.812H117.77V270.36H119.086V281H117.826V279.992H117.742C117.471 280.337 117.149 280.613 116.776 280.818C116.412 281.014 115.964 281.112 115.432 281.112ZM115.656 280.048C115.964 280.048 116.248 279.983 116.51 279.852C116.771 279.721 116.995 279.544 117.182 279.32C117.368 279.087 117.513 278.811 117.616 278.494C117.718 278.177 117.77 277.827 117.77 277.444C117.77 277.061 117.714 276.711 117.602 276.394C117.499 276.067 117.354 275.787 117.168 275.554C116.981 275.321 116.757 275.139 116.496 275.008C116.234 274.877 115.945 274.812 115.628 274.812C115.329 274.812 115.049 274.877 114.788 275.008C114.526 275.139 114.302 275.321 114.116 275.554C113.929 275.778 113.78 276.049 113.668 276.366C113.565 276.683 113.514 277.029 113.514 277.402C113.514 277.785 113.565 278.139 113.668 278.466C113.78 278.783 113.929 279.063 114.116 279.306C114.312 279.539 114.54 279.721 114.802 279.852C115.063 279.983 115.348 280.048 115.656 280.048Z" fill="#22242A"/>
<path d="M58.28 291.904H59.88V306.208H58.28V291.904Z" fill="#22242A"/>
<path d="M392.305 286.081C392.681 285.992 392.999 286.313 392.999 286.7V287.7C392.999 288.418 393.581 289 394.299 289H395.299C395.686 289 396.007 289.318 395.918 289.694C395.605 291.016 394.417 292 392.999 292C391.342 292 389.999 290.657 389.999 289C389.999 287.582 390.983 286.394 392.305 286.081Z" fill="#B1B5BB"/>
<path fill-rule="evenodd" clip-rule="evenodd" d="M392.999 282C388.118 282 384.865 285.655 383.436 287.683C382.873 288.481 382.873 289.519 383.436 290.317C384.865 292.345 388.118 296 392.999 296C397.88 296 401.133 292.345 402.562 290.317C403.125 289.519 403.125 288.481 402.562 287.683C401.133 285.655 397.88 282 392.999 282ZM386.708 285.927C385.761 286.778 385.02 287.691 384.498 288.431C384.252 288.781 384.252 289.219 384.498 289.569C385.02 290.309 385.761 291.222 386.708 292.073C386.254 291.145 385.999 290.102 385.999 289C385.999 287.898 386.254 286.855 386.708 285.927ZM392.999 294.7C389.851 294.7 387.299 292.148 387.299 289C387.299 285.852 389.851 283.3 392.999 283.3C396.147 283.3 398.699 285.852 398.699 289C398.699 292.148 396.147 294.7 392.999 294.7ZM399.29 285.927C400.237 286.778 400.978 287.691 401.5 288.431C401.746 288.781 401.746 289.219 401.5 289.569C400.978 290.309 400.237 291.222 399.29 292.073C399.744 291.145 399.999 290.102 399.999 289C399.999 287.898 399.744 286.855 399.29 285.927Z" fill="#B1B5BB"/>
<path d="M44.234 345.432H41.238V344.2H48.602V345.432H45.606V354H44.234V345.432ZM52.5451 354.112C52.0037 354.112 51.5091 354.023 51.0611 353.846C50.6131 353.669 50.2257 353.417 49.8991 353.09C49.5817 352.763 49.3344 352.376 49.1571 351.928C48.9797 351.48 48.8911 350.981 48.8911 350.43C48.8911 349.889 48.9797 349.394 49.1571 348.946C49.3344 348.489 49.5817 348.097 49.8991 347.77C50.2257 347.443 50.6131 347.191 51.0611 347.014C51.5091 346.837 52.0037 346.748 52.5451 346.748C53.0864 346.748 53.5811 346.837 54.0291 347.014C54.4771 347.191 54.8597 347.443 55.1771 347.77C55.5037 348.097 55.7557 348.489 55.9331 348.946C56.1104 349.394 56.1991 349.889 56.1991 350.43C56.1991 350.981 56.1104 351.48 55.9331 351.928C55.7557 352.376 55.5037 352.763 55.1771 353.09C54.8597 353.417 54.4771 353.669 54.0291 353.846C53.5811 354.023 53.0864 354.112 52.5451 354.112ZM52.5451 353.048C52.8531 353.048 53.1424 352.987 53.4131 352.866C53.6931 352.745 53.9311 352.572 54.1271 352.348C54.3324 352.115 54.4957 351.839 54.6171 351.522C54.7384 351.195 54.7991 350.831 54.7991 350.43C54.7991 350.029 54.7384 349.669 54.6171 349.352C54.4957 349.025 54.3324 348.75 54.1271 348.526C53.9217 348.293 53.6837 348.115 53.4131 347.994C53.1424 347.873 52.8531 347.812 52.5451 347.812C52.2371 347.812 51.9431 347.873 51.6631 347.994C51.3924 348.115 51.1544 348.293 50.9491 348.526C50.7531 348.75 50.5944 349.025 50.4731 349.352C50.3517 349.669 50.2911 350.029 50.2911 350.43C50.2911 350.831 50.3517 351.195 50.4731 351.522C50.5944 351.839 50.7531 352.115 50.9491 352.348C51.1544 352.572 51.3924 352.745 51.6631 352.866C51.9431 352.987 52.2371 353.048 52.5451 353.048ZM58.0487 343.36H59.3647V350.192L62.8227 346.86H64.4607L61.2827 349.828L64.5027 354H62.8927L60.3587 350.64L59.3647 351.578V354H58.0487V343.36ZM66.5596 350.724C66.6343 351.461 66.8863 352.031 67.3156 352.432C67.745 352.824 68.3236 353.02 69.0516 353.02C69.481 353.02 69.901 352.969 70.3116 352.866C70.7316 352.754 71.077 352.619 71.3476 352.46V353.748C71.1236 353.823 70.8156 353.902 70.4236 353.986C70.0316 354.07 69.5463 354.112 68.9676 354.112C67.7543 354.112 66.821 353.776 66.1676 353.104C65.5236 352.432 65.2016 351.499 65.2016 350.304C65.2016 349.763 65.2856 349.273 65.4536 348.834C65.631 348.395 65.869 348.022 66.1676 347.714C66.4756 347.406 66.835 347.168 67.2456 347C67.6563 346.832 68.0996 346.748 68.5756 346.748C69.593 346.748 70.391 347.047 70.9696 347.644C71.5483 348.241 71.8376 349.147 71.8376 350.36V350.724H66.5596ZM68.5616 347.812C68.011 347.812 67.5583 347.989 67.2036 348.344C66.8583 348.689 66.6436 349.156 66.5596 349.744H70.4376C70.4376 349.128 70.2603 348.652 69.9056 348.316C69.551 347.98 69.103 347.812 68.5616 347.812ZM73.7304 346.86H75.0464V347.882H75.0744C75.345 347.499 75.681 347.215 76.0824 347.028C76.493 346.841 76.9504 346.748 77.4544 346.748C78.2944 346.748 78.957 347 79.4424 347.504C79.9277 347.999 80.1704 348.764 80.1704 349.8V354H78.8544V350.22C78.8544 349.763 78.8124 349.38 78.7284 349.072C78.6537 348.755 78.5417 348.507 78.3924 348.33C78.2524 348.143 78.075 348.013 77.8604 347.938C77.655 347.854 77.4264 347.812 77.1744 347.812C76.5304 347.812 76.0124 348.045 75.6204 348.512C75.2377 348.969 75.0464 349.679 75.0464 350.64V354H73.7304V346.86Z" fill="#22242A"/>
<rect x="90" y="341" width="28" height="16" rx="8" fill="#7B7E86"/>
<circle cx="98" cy="349" r="6" fill="white"/>
<rect x="41" y="409" width="380" height="56" rx="4" fill="#0062FF"/>
<path d="M208.568 443.16C208.227 443.16 207.821 443.128 207.352 443.064C206.893 443.011 206.392 442.893 205.848 442.712V440.856C206.051 440.941 206.269 441.016 206.504 441.08C206.739 441.144 206.973 441.203 207.208 441.256C207.453 441.299 207.688 441.336 207.912 441.368C208.147 441.389 208.36 441.4 208.552 441.4C209.224 441.4 209.736 441.267 210.088 441C210.44 440.723 210.616 440.365 210.616 439.928C210.616 439.693 210.557 439.485 210.44 439.304C210.333 439.123 210.184 438.963 209.992 438.824C209.8 438.675 209.576 438.541 209.32 438.424C209.075 438.296 208.819 438.168 208.552 438.04C208.211 437.88 207.875 437.709 207.544 437.528C207.213 437.347 206.909 437.133 206.632 436.888C206.365 436.632 206.147 436.339 205.976 436.008C205.816 435.667 205.736 435.261 205.736 434.792C205.736 433.789 206.083 433.016 206.776 432.472C207.48 431.917 208.456 431.64 209.704 431.64C210.205 431.64 210.675 431.683 211.112 431.768C211.549 431.843 211.912 431.933 212.2 432.04V433.784C211.795 433.635 211.368 433.533 210.92 433.48C210.472 433.427 210.093 433.4 209.784 433.4C209.123 433.4 208.637 433.501 208.328 433.704C208.029 433.907 207.88 434.189 207.88 434.552C207.88 434.776 207.928 434.979 208.024 435.16C208.131 435.331 208.269 435.485 208.44 435.624C208.621 435.763 208.829 435.891 209.064 436.008C209.299 436.125 209.544 436.248 209.8 436.376C210.141 436.536 210.488 436.707 210.84 436.888C211.192 437.069 211.507 437.288 211.784 437.544C212.072 437.8 212.307 438.109 212.488 438.472C212.669 438.835 212.76 439.272 212.76 439.784C212.76 440.851 212.392 441.683 211.656 442.28C210.931 442.867 209.901 443.16 208.568 443.16ZM214.828 434.76H216.796V443H214.828V434.76ZM214.78 431.384H216.86V433.224H214.78V431.384ZM222.589 446.616C222.194 446.616 221.826 446.595 221.485 446.552C221.144 446.509 220.84 446.456 220.573 446.392C220.306 446.339 220.082 446.28 219.901 446.216C219.72 446.163 219.592 446.125 219.517 446.104V444.408C219.592 444.44 219.72 444.488 219.901 444.552C220.093 444.627 220.317 444.696 220.573 444.76C220.84 444.835 221.138 444.899 221.469 444.952C221.8 445.016 222.141 445.048 222.493 445.048C223.378 445.048 224.034 444.835 224.461 444.408C224.888 443.981 225.101 443.315 225.101 442.408V441.8H225.037C224.76 442.173 224.392 442.467 223.933 442.68C223.485 442.893 223 443 222.477 443C221.933 443 221.437 442.899 220.989 442.696C220.541 442.483 220.157 442.195 219.837 441.832C219.517 441.459 219.266 441.016 219.085 440.504C218.914 439.992 218.829 439.432 218.829 438.824C218.829 438.184 218.92 437.608 219.101 437.096C219.293 436.573 219.549 436.131 219.869 435.768C220.2 435.395 220.594 435.112 221.053 434.92C221.512 434.717 222.013 434.616 222.557 434.616C223.165 434.616 223.672 434.744 224.077 435C224.493 435.256 224.84 435.56 225.117 435.912H225.165V434.76H227.005V442.408C227.005 443.859 226.648 444.92 225.933 445.592C225.218 446.275 224.104 446.616 222.589 446.616ZM222.973 441.48C223.272 441.48 223.544 441.421 223.789 441.304C224.045 441.176 224.264 441 224.445 440.776C224.637 440.552 224.786 440.275 224.893 439.944C225 439.613 225.053 439.24 225.053 438.824C225.053 438.397 225 438.019 224.893 437.688C224.786 437.357 224.637 437.08 224.445 436.856C224.253 436.632 224.024 436.461 223.757 436.344C223.501 436.227 223.224 436.168 222.925 436.168C222.338 436.168 221.848 436.387 221.453 436.824C221.069 437.261 220.877 437.901 220.877 438.744C220.877 439.16 220.93 439.539 221.037 439.88C221.144 440.221 221.293 440.509 221.485 440.744C221.677 440.979 221.901 441.16 222.157 441.288C222.413 441.416 222.685 441.48 222.973 441.48ZM229.403 434.76H231.291V436.008H231.323C231.622 435.581 231.995 435.245 232.443 435C232.902 434.744 233.43 434.616 234.027 434.616C234.966 434.616 235.691 434.915 236.203 435.512C236.726 436.099 236.987 436.963 236.987 438.104V443H235.019V438.68C235.019 437.795 234.875 437.171 234.587 436.808C234.31 436.445 233.915 436.264 233.403 436.264C232.774 436.264 232.278 436.509 231.915 437C231.552 437.48 231.371 438.205 231.371 439.176V443H229.403V434.76ZM243 434.76H244.968V443H243V434.76ZM242.952 431.384H245.032V433.224H242.952V431.384ZM247.497 434.76H249.385V436.008H249.417C249.716 435.581 250.089 435.245 250.537 435C250.996 434.744 251.524 434.616 252.121 434.616C253.06 434.616 253.785 434.915 254.297 435.512C254.82 436.099 255.081 436.963 255.081 438.104V443H253.113V438.68C253.113 437.795 252.969 437.171 252.681 436.808C252.404 436.445 252.009 436.264 251.497 436.264C250.868 436.264 250.372 436.509 250.009 437C249.646 437.48 249.465 438.205 249.465 439.176V443H247.497V434.76Z" fill="white"/>
<path d="M172.802 494.2H178.29V495.432H174.174V498.302H178.122V499.534H174.174V504H172.802V494.2ZM183.113 504.112C182.572 504.112 182.077 504.023 181.629 503.846C181.181 503.669 180.794 503.417 180.467 503.09C180.15 502.763 179.903 502.376 179.725 501.928C179.548 501.48 179.459 500.981 179.459 500.43C179.459 499.889 179.548 499.394 179.725 498.946C179.903 498.489 180.15 498.097 180.467 497.77C180.794 497.443 181.181 497.191 181.629 497.014C182.077 496.837 182.572 496.748 183.113 496.748C183.655 496.748 184.149 496.837 184.597 497.014C185.045 497.191 185.428 497.443 185.745 497.77C186.072 498.097 186.324 498.489 186.501 498.946C186.679 499.394 186.767 499.889 186.767 500.43C186.767 500.981 186.679 501.48 186.501 501.928C186.324 502.376 186.072 502.763 185.745 503.09C185.428 503.417 185.045 503.669 184.597 503.846C184.149 504.023 183.655 504.112 183.113 504.112ZM183.113 503.048C183.421 503.048 183.711 502.987 183.981 502.866C184.261 502.745 184.499 502.572 184.695 502.348C184.901 502.115 185.064 501.839 185.185 501.522C185.307 501.195 185.367 500.831 185.367 500.43C185.367 500.029 185.307 499.669 185.185 499.352C185.064 499.025 184.901 498.75 184.695 498.526C184.49 498.293 184.252 498.115 183.981 497.994C183.711 497.873 183.421 497.812 183.113 497.812C182.805 497.812 182.511 497.873 182.231 497.994C181.961 498.115 181.723 498.293 181.517 498.526C181.321 498.75 181.163 499.025 181.041 499.352C180.92 499.669 180.859 500.029 180.859 500.43C180.859 500.831 180.92 501.195 181.041 501.522C181.163 501.839 181.321 502.115 181.517 502.348C181.723 502.572 181.961 502.745 182.231 502.866C182.511 502.987 182.805 503.048 183.113 503.048ZM188.617 496.86H189.849V498.022H189.877C190.11 497.565 190.39 497.238 190.717 497.042C191.053 496.846 191.454 496.748 191.921 496.748C192.052 496.748 192.182 496.757 192.313 496.776C192.453 496.785 192.598 496.799 192.747 496.818V497.966C192.607 497.947 192.472 497.933 192.341 497.924C192.21 497.905 192.084 497.896 191.963 497.896C191.244 497.896 190.726 498.143 190.409 498.638C190.092 499.133 189.933 499.856 189.933 500.808V504H188.617V496.86ZM196.856 507.192C196.483 507.192 196.138 507.169 195.82 507.122C195.503 507.075 195.223 507.019 194.98 506.954C194.7 506.889 194.444 506.809 194.21 506.716V505.456C194.444 505.577 194.7 505.689 194.98 505.792C195.223 505.876 195.503 505.951 195.82 506.016C196.138 506.091 196.483 506.128 196.856 506.128C198.508 506.128 199.334 505.297 199.334 503.636V502.894H199.292C199.059 503.239 198.732 503.51 198.312 503.706C197.902 503.902 197.449 504 196.954 504C196.488 504 196.054 503.916 195.652 503.748C195.26 503.58 194.915 503.342 194.616 503.034C194.327 502.717 194.098 502.339 193.93 501.9C193.762 501.452 193.678 500.948 193.678 500.388C193.678 499.809 193.767 499.296 193.944 498.848C194.122 498.391 194.36 498.008 194.658 497.7C194.966 497.392 195.326 497.159 195.736 497C196.147 496.832 196.586 496.748 197.052 496.748C197.594 496.748 198.051 496.86 198.424 497.084C198.798 497.308 199.115 497.574 199.376 497.882H199.418V496.86H200.65V503.636C200.65 504.831 200.342 505.722 199.726 506.31C199.12 506.898 198.163 507.192 196.856 507.192ZM197.234 502.936C197.524 502.936 197.794 502.88 198.046 502.768C198.308 502.656 198.532 502.493 198.718 502.278C198.905 502.054 199.05 501.788 199.152 501.48C199.264 501.163 199.32 500.799 199.32 500.388C199.32 499.968 199.264 499.599 199.152 499.282C199.04 498.955 198.886 498.685 198.69 498.47C198.494 498.246 198.266 498.083 198.004 497.98C197.743 497.868 197.458 497.812 197.15 497.812C196.861 497.812 196.59 497.863 196.338 497.966C196.086 498.069 195.867 498.227 195.68 498.442C195.494 498.647 195.344 498.909 195.232 499.226C195.13 499.534 195.078 499.893 195.078 500.304C195.078 500.715 195.134 501.083 195.246 501.41C195.368 501.727 195.526 502.003 195.722 502.236C195.918 502.46 196.147 502.633 196.408 502.754C196.67 502.875 196.945 502.936 197.234 502.936ZM206.151 504.112C205.609 504.112 205.115 504.023 204.667 503.846C204.219 503.669 203.831 503.417 203.505 503.09C203.187 502.763 202.94 502.376 202.763 501.928C202.585 501.48 202.497 500.981 202.497 500.43C202.497 499.889 202.585 499.394 202.763 498.946C202.94 498.489 203.187 498.097 203.505 497.77C203.831 497.443 204.219 497.191 204.667 497.014C205.115 496.837 205.609 496.748 206.151 496.748C206.692 496.748 207.187 496.837 207.635 497.014C208.083 497.191 208.465 497.443 208.783 497.77C209.109 498.097 209.361 498.489 209.539 498.946C209.716 499.394 209.805 499.889 209.805 500.43C209.805 500.981 209.716 501.48 209.539 501.928C209.361 502.376 209.109 502.763 208.783 503.09C208.465 503.417 208.083 503.669 207.635 503.846C207.187 504.023 206.692 504.112 206.151 504.112ZM206.151 503.048C206.459 503.048 206.748 502.987 207.019 502.866C207.299 502.745 207.537 502.572 207.733 502.348C207.938 502.115 208.101 501.839 208.223 501.522C208.344 501.195 208.405 500.831 208.405 500.43C208.405 500.029 208.344 499.669 208.223 499.352C208.101 499.025 207.938 498.75 207.733 498.526C207.527 498.293 207.289 498.115 207.019 497.994C206.748 497.873 206.459 497.812 206.151 497.812C205.843 497.812 205.549 497.873 205.269 497.994C204.998 498.115 204.76 498.293 204.555 498.526C204.359 498.75 204.2 499.025 204.079 499.352C203.957 499.669 203.897 500.029 203.897 500.43C203.897 500.831 203.957 501.195 204.079 501.522C204.2 501.839 204.359 502.115 204.555 502.348C204.76 502.572 204.998 502.745 205.269 502.866C205.549 502.987 205.843 503.048 206.151 503.048ZM215.238 497.924H213.474V501.774C213.474 502.203 213.582 502.502 213.796 502.67C214.02 502.829 214.282 502.908 214.58 502.908C214.804 502.908 215.042 502.871 215.294 502.796V503.986C215.117 504.033 214.949 504.065 214.79 504.084C214.632 504.103 214.487 504.112 214.356 504.112C213.647 504.112 213.106 503.921 212.732 503.538C212.359 503.146 212.172 502.6 212.172 501.9V497.924H210.87V496.86H212.172V495.082L213.474 494.606V496.86H215.238V497.924ZM221.501 503.062V507.136H220.185V496.86H221.445V497.882H221.473C221.66 497.63 221.86 497.429 222.075 497.28C222.299 497.131 222.518 497.019 222.733 496.944C222.948 496.86 223.153 496.809 223.349 496.79C223.545 496.762 223.713 496.748 223.853 496.748C224.376 496.748 224.842 496.841 225.253 497.028C225.664 497.205 226.009 497.457 226.289 497.784C226.569 498.111 226.784 498.498 226.933 498.946C227.082 499.385 227.157 499.861 227.157 500.374C227.157 500.878 227.082 501.359 226.933 501.816C226.793 502.264 226.583 502.661 226.303 503.006C226.023 503.342 225.682 503.613 225.281 503.818C224.88 504.014 224.427 504.112 223.923 504.112C223.344 504.112 222.854 504.005 222.453 503.79C222.061 503.566 221.762 503.323 221.557 503.062H221.501ZM223.615 503.048C224.268 503.048 224.786 502.805 225.169 502.32C225.561 501.825 225.757 501.163 225.757 500.332C225.757 499.567 225.566 498.955 225.183 498.498C224.81 498.041 224.301 497.812 223.657 497.812C222.994 497.812 222.467 498.05 222.075 498.526C221.692 499.002 221.501 499.641 221.501 500.444C221.501 501.237 221.692 501.872 222.075 502.348C222.458 502.815 222.971 503.048 223.615 503.048ZM230.783 504.112C230.036 504.112 229.444 503.925 229.005 503.552C228.566 503.169 228.347 502.642 228.347 501.97C228.347 501.186 228.646 500.589 229.243 500.178C229.85 499.758 230.778 499.548 232.029 499.548H233.345V499.31C233.345 498.797 233.168 498.423 232.813 498.19C232.458 497.957 231.987 497.84 231.399 497.84C231.016 497.84 230.629 497.887 230.237 497.98C229.845 498.064 229.434 498.223 229.005 498.456V497.224C229.36 497.065 229.766 496.949 230.223 496.874C230.68 496.79 231.128 496.748 231.567 496.748C232.547 496.748 233.308 496.972 233.849 497.42C234.39 497.859 234.661 498.573 234.661 499.562V504H233.317V502.908H233.289C232.99 503.347 232.608 503.659 232.141 503.846C231.684 504.023 231.231 504.112 230.783 504.112ZM231.105 502.992C231.432 502.992 231.73 502.941 232.001 502.838C232.281 502.735 232.519 502.595 232.715 502.418C232.911 502.231 233.065 502.017 233.177 501.774C233.289 501.531 233.345 501.275 233.345 501.004V500.556H232.085C231.646 500.556 231.278 500.589 230.979 500.654C230.69 500.719 230.452 500.813 230.265 500.934C230.078 501.055 229.943 501.195 229.859 501.354C229.784 501.513 229.747 501.69 229.747 501.886C229.747 502.241 229.868 502.516 230.111 502.712C230.354 502.899 230.685 502.992 231.105 502.992ZM238.562 504.112C238.086 504.112 237.675 504.075 237.33 504C236.994 503.916 236.695 503.823 236.434 503.72V502.558C236.91 502.773 237.32 502.908 237.666 502.964C238.02 503.011 238.277 503.034 238.436 503.034C238.977 503.034 239.369 502.941 239.612 502.754C239.854 502.558 239.976 502.339 239.976 502.096C239.976 501.947 239.934 501.821 239.85 501.718C239.775 501.606 239.672 501.503 239.542 501.41C239.411 501.317 239.257 501.233 239.08 501.158C238.902 501.074 238.716 500.99 238.52 500.906C238.249 500.785 237.983 500.663 237.722 500.542C237.47 500.411 237.246 500.267 237.05 500.108C236.854 499.94 236.695 499.744 236.574 499.52C236.452 499.296 236.392 499.025 236.392 498.708C236.392 498.12 236.625 497.649 237.092 497.294C237.568 496.93 238.258 496.748 239.164 496.748C239.63 496.748 240.041 496.785 240.396 496.86C240.75 496.935 240.979 496.991 241.082 497.028V498.148C240.811 498.036 240.522 497.957 240.214 497.91C239.915 497.863 239.616 497.84 239.318 497.84C238.786 497.84 238.403 497.915 238.17 498.064C237.936 498.204 237.82 498.395 237.82 498.638C237.82 498.778 237.857 498.904 237.932 499.016C238.006 499.119 238.104 499.217 238.226 499.31C238.356 499.394 238.506 499.478 238.674 499.562C238.842 499.637 239.019 499.716 239.206 499.8C239.458 499.912 239.714 500.029 239.976 500.15C240.246 500.262 240.489 500.402 240.704 500.57C240.928 500.738 241.105 500.939 241.236 501.172C241.376 501.405 241.446 501.695 241.446 502.04C241.446 502.656 241.194 503.155 240.69 503.538C240.195 503.921 239.486 504.112 238.562 504.112ZM245.138 504.112C244.662 504.112 244.251 504.075 243.906 504C243.57 503.916 243.271 503.823 243.01 503.72V502.558C243.486 502.773 243.897 502.908 244.242 502.964C244.597 503.011 244.853 503.034 245.012 503.034C245.553 503.034 245.945 502.941 246.188 502.754C246.431 502.558 246.552 502.339 246.552 502.096C246.552 501.947 246.51 501.821 246.426 501.718C246.351 501.606 246.249 501.503 246.118 501.41C245.987 501.317 245.833 501.233 245.656 501.158C245.479 501.074 245.292 500.99 245.096 500.906C244.825 500.785 244.559 500.663 244.298 500.542C244.046 500.411 243.822 500.267 243.626 500.108C243.43 499.94 243.271 499.744 243.15 499.52C243.029 499.296 242.968 499.025 242.968 498.708C242.968 498.12 243.201 497.649 243.668 497.294C244.144 496.93 244.835 496.748 245.74 496.748C246.207 496.748 246.617 496.785 246.972 496.86C247.327 496.935 247.555 496.991 247.658 497.028V498.148C247.387 498.036 247.098 497.957 246.79 497.91C246.491 497.863 246.193 497.84 245.894 497.84C245.362 497.84 244.979 497.915 244.746 498.064C244.513 498.204 244.396 498.395 244.396 498.638C244.396 498.778 244.433 498.904 244.508 499.016C244.583 499.119 244.681 499.217 244.802 499.31C244.933 499.394 245.082 499.478 245.25 499.562C245.418 499.637 245.595 499.716 245.782 499.8C246.034 499.912 246.291 500.029 246.552 500.15C246.823 500.262 247.065 500.402 247.28 500.57C247.504 500.738 247.681 500.939 247.812 501.172C247.952 501.405 248.022 501.695 248.022 502.04C248.022 502.656 247.77 503.155 247.266 503.538C246.771 503.921 246.062 504.112 245.138 504.112ZM248.902 496.86H250.344L251.94 502.544L253.774 496.86H254.894L256.714 502.572L258.436 496.86H259.724L257.414 504H256.028L254.264 498.596L252.584 504H251.198L248.902 496.86ZM264.147 504.112C263.605 504.112 263.111 504.023 262.663 503.846C262.215 503.669 261.827 503.417 261.501 503.09C261.183 502.763 260.936 502.376 260.759 501.928C260.581 501.48 260.493 500.981 260.493 500.43C260.493 499.889 260.581 499.394 260.759 498.946C260.936 498.489 261.183 498.097 261.501 497.77C261.827 497.443 262.215 497.191 262.663 497.014C263.111 496.837 263.605 496.748 264.147 496.748C264.688 496.748 265.183 496.837 265.631 497.014C266.079 497.191 266.461 497.443 266.779 497.77C267.105 498.097 267.357 498.489 267.535 498.946C267.712 499.394 267.801 499.889 267.801 500.43C267.801 500.981 267.712 501.48 267.535 501.928C267.357 502.376 267.105 502.763 266.779 503.09C266.461 503.417 266.079 503.669 265.631 503.846C265.183 504.023 264.688 504.112 264.147 504.112ZM264.147 503.048C264.455 503.048 264.744 502.987 265.015 502.866C265.295 502.745 265.533 502.572 265.729 502.348C265.934 502.115 266.097 501.839 266.219 501.522C266.34 501.195 266.401 500.831 266.401 500.43C266.401 500.029 266.34 499.669 266.219 499.352C266.097 499.025 265.934 498.75 265.729 498.526C265.523 498.293 265.285 498.115 265.015 497.994C264.744 497.873 264.455 497.812 264.147 497.812C263.839 497.812 263.545 497.873 263.265 497.994C262.994 498.115 262.756 498.293 262.551 498.526C262.355 498.75 262.196 499.025 262.075 499.352C261.953 499.669 261.893 500.029 261.893 500.43C261.893 500.831 261.953 501.195 262.075 501.522C262.196 501.839 262.355 502.115 262.551 502.348C262.756 502.572 262.994 502.745 263.265 502.866C263.545 502.987 263.839 503.048 264.147 503.048ZM269.65 496.86H270.882V498.022H270.91C271.144 497.565 271.424 497.238 271.75 497.042C272.086 496.846 272.488 496.748 272.954 496.748C273.085 496.748 273.216 496.757 273.346 496.776C273.486 496.785 273.631 496.799 273.78 496.818V497.966C273.64 497.947 273.505 497.933 273.374 497.924C273.244 497.905 273.118 497.896 272.996 497.896C272.278 497.896 271.76 498.143 271.442 498.638C271.125 499.133 270.966 499.856 270.966 500.808V504H269.65V496.86ZM278.029 504.112C277.525 504.112 277.068 504.019 276.657 503.832C276.247 503.645 275.897 503.384 275.607 503.048C275.318 502.712 275.094 502.315 274.935 501.858C274.786 501.391 274.711 500.887 274.711 500.346C274.711 499.833 274.791 499.357 274.949 498.918C275.108 498.479 275.332 498.101 275.621 497.784C275.911 497.457 276.256 497.205 276.657 497.028C277.068 496.841 277.516 496.748 278.001 496.748C278.543 496.748 279 496.851 279.373 497.056C279.756 497.261 280.078 497.513 280.339 497.812H280.367V493.36H281.683V504H280.423V502.992H280.339C280.069 503.337 279.747 503.613 279.373 503.818C279.009 504.014 278.561 504.112 278.029 504.112ZM278.253 503.048C278.561 503.048 278.846 502.983 279.107 502.852C279.369 502.721 279.593 502.544 279.779 502.32C279.966 502.087 280.111 501.811 280.213 501.494C280.316 501.177 280.367 500.827 280.367 500.444C280.367 500.061 280.311 499.711 280.199 499.394C280.097 499.067 279.952 498.787 279.765 498.554C279.579 498.321 279.355 498.139 279.093 498.008C278.832 497.877 278.543 497.812 278.225 497.812C277.927 497.812 277.647 497.877 277.385 498.008C277.124 498.139 276.9 498.321 276.713 498.554C276.527 498.778 276.377 499.049 276.265 499.366C276.163 499.683 276.111 500.029 276.111 500.402C276.111 500.785 276.163 501.139 276.265 501.466C276.377 501.783 276.527 502.063 276.713 502.306C276.909 502.539 277.138 502.721 277.399 502.852C277.661 502.983 277.945 503.048 278.253 503.048ZM285.7 500.99C285.7 500.626 285.751 500.313 285.854 500.052C285.956 499.781 286.082 499.534 286.232 499.31C286.381 499.086 286.544 498.881 286.722 498.694C286.899 498.498 287.062 498.302 287.212 498.106C287.361 497.901 287.487 497.686 287.59 497.462C287.692 497.229 287.744 496.963 287.744 496.664C287.744 496.225 287.604 495.88 287.324 495.628C287.053 495.376 286.633 495.25 286.064 495.25C286.017 495.25 285.919 495.255 285.77 495.264C285.63 495.264 285.457 495.283 285.252 495.32C285.056 495.348 284.841 495.404 284.608 495.488C284.374 495.563 284.141 495.67 283.908 495.81V494.522C284.337 494.335 284.748 494.214 285.14 494.158C285.541 494.093 285.877 494.06 286.148 494.06C286.642 494.06 287.081 494.125 287.464 494.256C287.846 494.377 288.168 494.55 288.43 494.774C288.691 494.998 288.887 495.264 289.018 495.572C289.158 495.871 289.228 496.197 289.228 496.552C289.228 496.888 289.172 497.196 289.06 497.476C288.957 497.747 288.822 497.999 288.654 498.232C288.486 498.465 288.308 498.689 288.122 498.904C287.935 499.109 287.758 499.324 287.59 499.548C287.422 499.763 287.282 499.996 287.17 500.248C287.067 500.491 287.016 500.761 287.016 501.06V501.27H285.7V500.99ZM285.574 502.432H287.142V504H285.574V502.432Z" fill="#0062FF"/>
<defs>
<filter id="filter0_i_632_16370" x="41" y="109" width="380" height="48" filterUnits="userSpaceOnUse" color-interpolation-filters="sRGB">
<feFlood flood-opacity="0" result="BackgroundImageFix"/>
<feBlend mode="normal" in="SourceGraphic" in2="BackgroundImageFix" result="shape"/>
<feColorMatrix in="SourceAlpha" type="matrix" values="0 0 0 0 0 0 0 0 0 0 0 0 0 0 0 0 0 0 127 0" result="hardAlpha"/>
<feOffset dx="4"/>
<feComposite in2="hardAlpha" operator="arithmetic" k2="-1" k3="1"/>
<feColorMatrix type="matrix" values="0 0 0 0 0.85098 0 0 0 0 0.12549 0 0 0 0 0.12549 0 0 0 1 0"/>
<feBlend mode="normal" in2="shape" result="effect1_innerShadow_632_16370"/>
</filter>
</defs>
</svg>
