<svg width="462" height="502" viewBox="0 0 462 502" fill="none" xmlns="http://www.w3.org/2000/svg">
<rect x="1" y="1" width="460" height="500" rx="8" fill="white"/>
<rect x="1" y="1" width="460" height="500" rx="8" stroke="black" stroke-width="2"/>
<path d="M41.288 55.2H43.904L48.92 69.888H48.992L54.032 55.2H56.552L50.408 72H47.408L41.288 55.2ZM62.6221 57.312H57.4861V55.2H70.1101V57.312H64.9741V72H62.6221V57.312ZM72.7398 55.2H77.7078C78.7798 55.2 79.6918 55.304 80.4438 55.512C81.2118 55.704 81.8358 55.992 82.3158 56.376C82.7958 56.744 83.1478 57.2 83.3718 57.744C83.5958 58.272 83.7078 58.864 83.7078 59.52C83.7078 60.432 83.4598 61.216 82.9638 61.872C82.4838 62.528 81.6998 63 80.6118 63.288V63.336C81.8918 63.608 82.8038 64.104 83.3478 64.824C83.9078 65.528 84.1878 66.392 84.1878 67.416C84.1878 68.872 83.7238 70 82.7958 70.8C81.8838 71.6 80.3478 72 78.1878 72H72.7398V55.2ZM78.1878 70.032C79.3878 70.032 80.2598 69.784 80.8038 69.288C81.3638 68.792 81.6438 68.088 81.6438 67.176C81.6438 66.28 81.3638 65.584 80.8038 65.088C80.2598 64.592 79.3878 64.344 78.1878 64.344H75.0918V70.032H78.1878ZM77.7078 62.376C78.9878 62.376 79.8998 62.144 80.4438 61.68C81.0038 61.2 81.2838 60.56 81.2838 59.76C81.2838 58.976 81.0038 58.352 80.4438 57.888C79.8998 57.408 78.9878 57.168 77.7078 57.168H75.0918V62.376H77.7078ZM92.9195 55.2H97.8875C98.9595 55.2 99.8715 55.304 100.624 55.512C101.392 55.704 102.016 55.992 102.496 56.376C102.976 56.744 103.328 57.2 103.552 57.744C103.776 58.272 103.888 58.864 103.888 59.52C103.888 60.432 103.64 61.216 103.144 61.872C102.664 62.528 101.88 63 100.792 63.288V63.336C102.072 63.608 102.984 64.104 103.528 64.824C104.088 65.528 104.368 66.392 104.368 67.416C104.368 68.872 103.904 70 102.976 70.8C102.064 71.6 100.528 72 98.3675 72H92.9195V55.2ZM98.3675 70.032C99.5675 70.032 100.44 69.784 100.984 69.288C101.544 68.792 101.824 68.088 101.824 67.176C101.824 66.28 101.544 65.584 100.984 65.088C100.44 64.592 99.5675 64.344 98.3675 64.344H95.2715V70.032H98.3675ZM97.8875 62.376C99.1675 62.376 100.08 62.144 100.624 61.68C101.184 61.2 101.464 60.56 101.464 59.76C101.464 58.976 101.184 58.352 100.624 57.888C100.08 57.408 99.1675 57.168 97.8875 57.168H95.2715V62.376H97.8875ZM117.984 72H115.728V70.248H115.68C115.216 70.904 114.632 71.392 113.928 71.712C113.24 72.032 112.464 72.192 111.6 72.192C110.16 72.192 109.024 71.768 108.192 70.92C107.36 70.056 106.944 68.736 106.944 66.96V59.76H109.2V66.24C109.2 67.04 109.264 67.704 109.392 68.232C109.536 68.76 109.728 69.184 109.968 69.504C110.224 69.808 110.528 70.032 110.88 70.176C111.248 70.304 111.648 70.368 112.08 70.368C113.184 70.368 114.064 69.976 114.72 69.192C115.392 68.392 115.728 67.168 115.728 65.52V59.76H117.984V72ZM125.072 72.192C124.256 72.192 123.552 72.128 122.96 72C122.384 71.856 121.872 71.696 121.424 71.52V69.528C122.24 69.896 122.944 70.128 123.536 70.224C124.144 70.304 124.584 70.344 124.856 70.344C125.784 70.344 126.456 70.184 126.872 69.864C127.288 69.528 127.496 69.152 127.496 68.736C127.496 68.48 127.424 68.264 127.28 68.088C127.152 67.896 126.976 67.72 126.752 67.56C126.528 67.4 126.264 67.256 125.96 67.128C125.656 66.984 125.336 66.84 125 66.696C124.536 66.488 124.08 66.28 123.632 66.072C123.2 65.848 122.816 65.6 122.48 65.328C122.144 65.04 121.872 64.704 121.664 64.32C121.456 63.936 121.352 63.472 121.352 62.928C121.352 61.92 121.752 61.112 122.552 60.504C123.368 59.88 124.552 59.568 126.104 59.568C126.904 59.568 127.608 59.632 128.216 59.76C128.824 59.888 129.216 59.984 129.392 60.048V61.968C128.928 61.776 128.432 61.64 127.904 61.56C127.392 61.48 126.88 61.44 126.368 61.44C125.456 61.44 124.8 61.568 124.4 61.824C124 62.064 123.8 62.392 123.8 62.808C123.8 63.048 123.864 63.264 123.992 63.456C124.12 63.632 124.288 63.8 124.496 63.96C124.72 64.104 124.976 64.248 125.264 64.392C125.552 64.52 125.856 64.656 126.176 64.8C126.608 64.992 127.048 65.192 127.496 65.4C127.96 65.592 128.376 65.832 128.744 66.12C129.128 66.408 129.432 66.752 129.656 67.152C129.896 67.552 130.016 68.048 130.016 68.64C130.016 69.696 129.584 70.552 128.72 71.208C127.872 71.864 126.656 72.192 125.072 72.192ZM133.375 59.76H135.631V72H133.375V59.76ZM133.255 54.72H135.799V57.264H133.255V54.72ZM139.976 59.76H142.232V61.512H142.28C142.744 60.856 143.32 60.368 144.008 60.048C144.712 59.728 145.496 59.568 146.36 59.568C147.8 59.568 148.936 60 149.768 60.864C150.6 61.712 151.016 63.024 151.016 64.8V72H148.76V65.52C148.76 64.736 148.688 64.08 148.544 63.552C148.416 63.008 148.224 62.584 147.968 62.28C147.728 61.96 147.424 61.736 147.056 61.608C146.704 61.464 146.312 61.392 145.88 61.392C144.776 61.392 143.888 61.792 143.216 62.592C142.56 63.376 142.232 64.592 142.232 66.24V72H139.976V59.76ZM156.137 66.384C156.265 67.648 156.697 68.624 157.433 69.312C158.169 69.984 159.161 70.32 160.409 70.32C161.145 70.32 161.865 70.232 162.569 70.056C163.289 69.864 163.881 69.632 164.345 69.36V71.568C163.961 71.696 163.433 71.832 162.761 71.976C162.089 72.12 161.257 72.192 160.265 72.192C158.185 72.192 156.585 71.616 155.465 70.464C154.361 69.312 153.809 67.712 153.809 65.664C153.809 64.736 153.953 63.896 154.241 63.144C154.545 62.392 154.953 61.752 155.465 61.224C155.993 60.696 156.609 60.288 157.313 60C158.017 59.712 158.777 59.568 159.593 59.568C161.337 59.568 162.705 60.08 163.697 61.104C164.689 62.128 165.185 63.68 165.185 65.76V66.384H156.137ZM159.569 61.392C158.625 61.392 157.849 61.696 157.241 62.304C156.649 62.896 156.281 63.696 156.137 64.704H162.785C162.785 63.648 162.481 62.832 161.873 62.256C161.265 61.68 160.497 61.392 159.569 61.392ZM171.526 72.192C170.71 72.192 170.006 72.128 169.414 72C168.838 71.856 168.326 71.696 167.878 71.52V69.528C168.694 69.896 169.398 70.128 169.99 70.224C170.598 70.304 171.038 70.344 171.31 70.344C172.238 70.344 172.91 70.184 173.326 69.864C173.742 69.528 173.95 69.152 173.95 68.736C173.95 68.48 173.878 68.264 173.734 68.088C173.606 67.896 173.43 67.72 173.206 67.56C172.982 67.4 172.718 67.256 172.414 67.128C172.11 66.984 171.79 66.84 171.454 66.696C170.99 66.488 170.534 66.28 170.086 66.072C169.654 65.848 169.27 65.6 168.934 65.328C168.598 65.04 168.326 64.704 168.118 64.32C167.91 63.936 167.806 63.472 167.806 62.928C167.806 61.92 168.206 61.112 169.006 60.504C169.822 59.88 171.006 59.568 172.558 59.568C173.358 59.568 174.062 59.632 174.67 59.76C175.278 59.888 175.67 59.984 175.846 60.048V61.968C175.382 61.776 174.886 61.64 174.358 61.56C173.846 61.48 173.334 61.44 172.822 61.44C171.91 61.44 171.254 61.568 170.854 61.824C170.454 62.064 170.254 62.392 170.254 62.808C170.254 63.048 170.318 63.264 170.446 63.456C170.574 63.632 170.742 63.8 170.95 63.96C171.174 64.104 171.43 64.248 171.718 64.392C172.006 64.52 172.31 64.656 172.63 64.8C173.062 64.992 173.502 65.192 173.95 65.4C174.414 65.592 174.83 65.832 175.198 66.12C175.582 66.408 175.886 66.752 176.11 67.152C176.35 67.552 176.47 68.048 176.47 68.64C176.47 69.696 176.038 70.552 175.174 71.208C174.326 71.864 173.11 72.192 171.526 72.192ZM182.799 72.192C181.983 72.192 181.279 72.128 180.687 72C180.111 71.856 179.599 71.696 179.151 71.52V69.528C179.967 69.896 180.671 70.128 181.263 70.224C181.871 70.304 182.311 70.344 182.583 70.344C183.511 70.344 184.183 70.184 184.599 69.864C185.015 69.528 185.223 69.152 185.223 68.736C185.223 68.48 185.151 68.264 185.007 68.088C184.879 67.896 184.703 67.72 184.479 67.56C184.255 67.4 183.991 67.256 183.687 67.128C183.383 66.984 183.063 66.84 182.727 66.696C182.263 66.488 181.807 66.28 181.359 66.072C180.927 65.848 180.543 65.6 180.207 65.328C179.871 65.04 179.599 64.704 179.391 64.32C179.183 63.936 179.079 63.472 179.079 62.928C179.079 61.92 179.479 61.112 180.279 60.504C181.095 59.88 182.279 59.568 183.831 59.568C184.631 59.568 185.335 59.632 185.943 59.76C186.551 59.888 186.943 59.984 187.119 60.048V61.968C186.655 61.776 186.159 61.64 185.631 61.56C185.119 61.48 184.607 61.44 184.095 61.44C183.183 61.44 182.527 61.568 182.127 61.824C181.727 62.064 181.527 62.392 181.527 62.808C181.527 63.048 181.591 63.264 181.719 63.456C181.847 63.632 182.015 63.8 182.223 63.96C182.447 64.104 182.703 64.248 182.991 64.392C183.279 64.52 183.583 64.656 183.903 64.8C184.335 64.992 184.775 65.192 185.223 65.4C185.687 65.592 186.103 65.832 186.471 66.12C186.855 66.408 187.159 66.752 187.383 67.152C187.623 67.552 187.743 68.048 187.743 68.64C187.743 69.696 187.311 70.552 186.447 71.208C185.599 71.864 184.383 72.192 182.799 72.192Z" fill="#22242A"/>
<rect x="41.5" y="109.5" width="379" height="55" rx="3.5" fill="white"/>
<rect x="41.5" y="109.5" width="379" height="55" rx="3.5" stroke="#B1B5BB"/>
<path d="M58.302 119.2H59.674V127.768H64.056V129H58.302V119.2ZM68.4084 129.112C67.867 129.112 67.3724 129.023 66.9244 128.846C66.4764 128.669 66.089 128.417 65.7624 128.09C65.445 127.763 65.1977 127.376 65.0204 126.928C64.843 126.48 64.7544 125.981 64.7544 125.43C64.7544 124.889 64.843 124.394 65.0204 123.946C65.1977 123.489 65.445 123.097 65.7624 122.77C66.089 122.443 66.4764 122.191 66.9244 122.014C67.3724 121.837 67.867 121.748 68.4084 121.748C68.9497 121.748 69.4444 121.837 69.8924 122.014C70.3404 122.191 70.723 122.443 71.0404 122.77C71.367 123.097 71.619 123.489 71.7964 123.946C71.9737 124.394 72.0624 124.889 72.0624 125.43C72.0624 125.981 71.9737 126.48 71.7964 126.928C71.619 127.376 71.367 127.763 71.0404 128.09C70.723 128.417 70.3404 128.669 69.8924 128.846C69.4444 129.023 68.9497 129.112 68.4084 129.112ZM68.4084 128.048C68.7164 128.048 69.0057 127.987 69.2764 127.866C69.5564 127.745 69.7944 127.572 69.9904 127.348C70.1957 127.115 70.359 126.839 70.4804 126.522C70.6017 126.195 70.6624 125.831 70.6624 125.43C70.6624 125.029 70.6017 124.669 70.4804 124.352C70.359 124.025 70.1957 123.75 69.9904 123.526C69.785 123.293 69.547 123.115 69.2764 122.994C69.0057 122.873 68.7164 122.812 68.4084 122.812C68.1004 122.812 67.8064 122.873 67.5264 122.994C67.2557 123.115 67.0177 123.293 66.8124 123.526C66.6164 123.75 66.4577 124.025 66.3364 124.352C66.215 124.669 66.1544 125.029 66.1544 125.43C66.1544 125.831 66.215 126.195 66.3364 126.522C66.4577 126.839 66.6164 127.115 66.8124 127.348C67.0177 127.572 67.2557 127.745 67.5264 127.866C67.8064 127.987 68.1004 128.048 68.4084 128.048ZM76.614 132.192C76.2407 132.192 75.8953 132.169 75.578 132.122C75.2607 132.075 74.9807 132.019 74.738 131.954C74.458 131.889 74.2013 131.809 73.968 131.716V130.456C74.2013 130.577 74.458 130.689 74.738 130.792C74.9807 130.876 75.2607 130.951 75.578 131.016C75.8953 131.091 76.2407 131.128 76.614 131.128C78.266 131.128 79.092 130.297 79.092 128.636V127.894H79.05C78.8167 128.239 78.49 128.51 78.07 128.706C77.6593 128.902 77.2067 129 76.712 129C76.2453 129 75.8113 128.916 75.41 128.748C75.018 128.58 74.6727 128.342 74.374 128.034C74.0847 127.717 73.856 127.339 73.688 126.9C73.52 126.452 73.436 125.948 73.436 125.388C73.436 124.809 73.5247 124.296 73.702 123.848C73.8793 123.391 74.1173 123.008 74.416 122.7C74.724 122.392 75.0833 122.159 75.494 122C75.9047 121.832 76.3433 121.748 76.81 121.748C77.3513 121.748 77.8087 121.86 78.182 122.084C78.5553 122.308 78.8727 122.574 79.134 122.882H79.176V121.86H80.408V128.636C80.408 129.831 80.1 130.722 79.484 131.31C78.8773 131.898 77.9207 132.192 76.614 132.192ZM76.992 127.936C77.2813 127.936 77.552 127.88 77.804 127.768C78.0653 127.656 78.2893 127.493 78.476 127.278C78.6627 127.054 78.8073 126.788 78.91 126.48C79.022 126.163 79.078 125.799 79.078 125.388C79.078 124.968 79.022 124.599 78.91 124.282C78.798 123.955 78.644 123.685 78.448 123.47C78.252 123.246 78.0233 123.083 77.762 122.98C77.5007 122.868 77.216 122.812 76.908 122.812C76.6187 122.812 76.348 122.863 76.096 122.966C75.844 123.069 75.6247 123.227 75.438 123.442C75.2513 123.647 75.102 123.909 74.99 124.226C74.8873 124.534 74.836 124.893 74.836 125.304C74.836 125.715 74.892 126.083 75.004 126.41C75.1253 126.727 75.284 127.003 75.48 127.236C75.676 127.46 75.9047 127.633 76.166 127.754C76.4273 127.875 76.7027 127.936 76.992 127.936ZM82.9404 121.86H84.2564V129H82.9404V121.86ZM82.8704 118.92H84.3544V120.404H82.8704V118.92ZM86.7909 121.86H88.1069V122.882H88.1349C88.4056 122.499 88.7416 122.215 89.1429 122.028C89.5536 121.841 90.0109 121.748 90.5149 121.748C91.3549 121.748 92.0176 122 92.5029 122.504C92.9882 122.999 93.2309 123.764 93.2309 124.8V129H91.9149V125.22C91.9149 124.763 91.8729 124.38 91.7889 124.072C91.7142 123.755 91.6022 123.507 91.4529 123.33C91.3129 123.143 91.1356 123.013 90.9209 122.938C90.7156 122.854 90.4869 122.812 90.2349 122.812C89.5909 122.812 89.0729 123.045 88.6809 123.512C88.2982 123.969 88.1069 124.679 88.1069 125.64V129H86.7909V121.86Z" fill="#7B7E86"/>
<path d="M58.488 140.8H61.032L63.912 146.96L66.808 140.8H69.272V152H67.704V142.336H67.656L64.52 148.8H63.24L60.104 142.336H60.056V152H58.488V140.8ZM74.0334 152.128C73.18 152.128 72.5027 151.915 72.0014 151.488C71.5 151.051 71.2494 150.448 71.2494 149.68C71.2494 148.784 71.5907 148.101 72.2734 147.632C72.9667 147.152 74.028 146.912 75.4574 146.912H76.9614V146.64C76.9614 146.053 76.7587 145.627 76.3534 145.36C75.948 145.093 75.4094 144.96 74.7374 144.96C74.3 144.96 73.8574 145.013 73.4094 145.12C72.9614 145.216 72.492 145.397 72.0014 145.664V144.256C72.4067 144.075 72.8707 143.941 73.3934 143.856C73.916 143.76 74.428 143.712 74.9294 143.712C76.0494 143.712 76.9187 143.968 77.5374 144.48C78.156 144.981 78.4654 145.797 78.4654 146.928V152H76.9294V150.752H76.8974C76.556 151.253 76.1187 151.611 75.5854 151.824C75.0627 152.027 74.5454 152.128 74.0334 152.128ZM74.4014 150.848C74.7747 150.848 75.116 150.789 75.4254 150.672C75.7454 150.555 76.0174 150.395 76.2414 150.192C76.4654 149.979 76.6414 149.733 76.7694 149.456C76.8974 149.179 76.9614 148.885 76.9614 148.576V148.064H75.5214C75.02 148.064 74.5987 148.101 74.2574 148.176C73.9267 148.251 73.6547 148.357 73.4414 148.496C73.228 148.635 73.0734 148.795 72.9774 148.976C72.892 149.157 72.8494 149.36 72.8494 149.584C72.8494 149.989 72.988 150.304 73.2654 150.528C73.5427 150.741 73.9214 150.848 74.4014 150.848ZM80.8593 139.84H82.3633V147.648L86.3153 143.84H88.1873L84.5553 147.232L88.2353 152H86.3953L83.4993 148.16L82.3633 149.232V152H80.8593V139.84ZM91.8303 152.128C90.9769 152.128 90.2996 151.915 89.7983 151.488C89.2969 151.051 89.0463 150.448 89.0463 149.68C89.0463 148.784 89.3876 148.101 90.0703 147.632C90.7636 147.152 91.8249 146.912 93.2543 146.912H94.7583V146.64C94.7583 146.053 94.5556 145.627 94.1503 145.36C93.7449 145.093 93.2063 144.96 92.5343 144.96C92.0969 144.96 91.6543 145.013 91.2063 145.12C90.7583 145.216 90.2889 145.397 89.7983 145.664V144.256C90.2036 144.075 90.6676 143.941 91.1903 143.856C91.7129 143.76 92.2249 143.712 92.7263 143.712C93.8463 143.712 94.7156 143.968 95.3343 144.48C95.9529 144.981 96.2623 145.797 96.2623 146.928V152H94.7263V150.752H94.6943C94.3529 151.253 93.9156 151.611 93.3823 151.824C92.8596 152.027 92.3423 152.128 91.8303 152.128ZM92.1983 150.848C92.5716 150.848 92.9129 150.789 93.2223 150.672C93.5423 150.555 93.8143 150.395 94.0383 150.192C94.2623 149.979 94.4383 149.733 94.5663 149.456C94.6943 149.179 94.7583 148.885 94.7583 148.576V148.064H93.3183C92.8169 148.064 92.3956 148.101 92.0543 148.176C91.7236 148.251 91.4516 148.357 91.2383 148.496C91.0249 148.635 90.8703 148.795 90.7743 148.976C90.6889 149.157 90.6463 149.36 90.6463 149.584C90.6463 149.989 90.7849 150.304 91.0623 150.528C91.3396 150.741 91.7183 150.848 92.1983 150.848ZM98.6561 143.84H100.064V145.168H100.096C100.363 144.645 100.683 144.272 101.056 144.048C101.44 143.824 101.899 143.712 102.432 143.712C102.581 143.712 102.731 143.723 102.88 143.744C103.04 143.755 103.205 143.771 103.376 143.792V145.104C103.216 145.083 103.061 145.067 102.912 145.056C102.763 145.035 102.619 145.024 102.48 145.024C101.659 145.024 101.067 145.307 100.704 145.872C100.341 146.437 100.16 147.264 100.16 148.352V152H98.6561V143.84ZM109.589 147.728C109.461 147.749 109.327 147.76 109.189 147.76C109.061 147.76 108.927 147.76 108.789 147.76H106.869V152H105.301V140.8H108.789C110.154 140.8 111.162 141.104 111.812 141.712C112.463 142.32 112.789 143.189 112.789 144.32C112.789 145.067 112.639 145.685 112.341 146.176C112.053 146.667 111.647 147.045 111.125 147.312L113.525 152H111.589L109.589 147.728ZM108.789 146.432C109.589 146.432 110.17 146.256 110.533 145.904C110.906 145.552 111.093 145.024 111.093 144.32C111.093 143.616 110.906 143.088 110.533 142.736C110.17 142.384 109.589 142.208 108.789 142.208H106.869V146.432H108.789ZM113.688 140.8H115.448L118.12 150.4H118.152L120.536 140.8H122.808L125.224 150.4H125.256L127.928 140.8H129.624L126.184 152H124.12L121.688 142.208H121.656L119.208 152H117.064L113.688 140.8ZM130.36 150.4C130.702 150.123 131.032 149.856 131.352 149.6C131.672 149.333 132.003 149.061 132.344 148.784C132.974 148.283 133.523 147.829 133.992 147.424C134.472 147.008 134.867 146.619 135.176 146.256C135.496 145.883 135.736 145.525 135.896 145.184C136.056 144.832 136.136 144.464 136.136 144.08C136.136 143.387 135.918 142.88 135.48 142.56C135.054 142.24 134.478 142.08 133.752 142.08C133.134 142.08 132.579 142.16 132.088 142.32C131.598 142.469 131.155 142.651 130.76 142.864V141.328C131.379 141.072 131.96 140.901 132.504 140.816C133.059 140.72 133.56 140.672 134.008 140.672C134.499 140.672 134.963 140.736 135.4 140.864C135.848 140.992 136.238 141.184 136.568 141.44C136.91 141.696 137.176 142.021 137.368 142.416C137.571 142.811 137.672 143.28 137.672 143.824C137.672 144.421 137.55 144.976 137.304 145.488C137.07 145.989 136.728 146.485 136.28 146.976C135.843 147.456 135.31 147.952 134.68 148.464C134.051 148.965 133.347 149.52 132.568 150.128L131.992 150.576V150.592H137.832V152H130.36V150.4Z" fill="#22242A"/>
<rect x="41.5" y="189.5" width="379" height="55" rx="3.5" fill="white"/>
<rect x="41.5" y="189.5" width="379" height="55" rx="3.5" stroke="#B1B5BB"/>
<path d="M58.302 199.2H61.438C62.6513 199.2 63.5473 199.471 64.126 200.012C64.7047 200.544 64.994 201.305 64.994 202.294C64.994 203.283 64.7047 204.049 64.126 204.59C63.5473 205.122 62.6513 205.388 61.438 205.388H59.674V209H58.302V199.2ZM61.438 204.156C62.1567 204.156 62.684 204.002 63.02 203.694C63.3653 203.377 63.538 202.91 63.538 202.294C63.538 201.678 63.3653 201.216 63.02 200.908C62.684 200.591 62.1567 200.432 61.438 200.432H59.674V204.156H61.438ZM68.1855 209.112C67.4388 209.112 66.8461 208.925 66.4075 208.552C65.9688 208.169 65.7495 207.642 65.7495 206.97C65.7495 206.186 66.0481 205.589 66.6455 205.178C67.2521 204.758 68.1808 204.548 69.4315 204.548H70.7475V204.31C70.7475 203.797 70.5701 203.423 70.2155 203.19C69.8608 202.957 69.3895 202.84 68.8015 202.84C68.4188 202.84 68.0315 202.887 67.6395 202.98C67.2475 203.064 66.8368 203.223 66.4075 203.456V202.224C66.7621 202.065 67.1681 201.949 67.6255 201.874C68.0828 201.79 68.5308 201.748 68.9695 201.748C69.9495 201.748 70.7101 201.972 71.2515 202.42C71.7928 202.859 72.0635 203.573 72.0635 204.562V209H70.7195V207.908H70.6915C70.3928 208.347 70.0101 208.659 69.5435 208.846C69.0861 209.023 68.6335 209.112 68.1855 209.112ZM68.5075 207.992C68.8341 207.992 69.1328 207.941 69.4035 207.838C69.6835 207.735 69.9215 207.595 70.1175 207.418C70.3135 207.231 70.4675 207.017 70.5795 206.774C70.6915 206.531 70.7475 206.275 70.7475 206.004V205.556H69.4875C69.0488 205.556 68.6801 205.589 68.3815 205.654C68.0921 205.719 67.8541 205.813 67.6675 205.934C67.4808 206.055 67.3455 206.195 67.2615 206.354C67.1868 206.513 67.1495 206.69 67.1495 206.886C67.1495 207.241 67.2708 207.516 67.5135 207.712C67.7561 207.899 68.0875 207.992 68.5075 207.992ZM75.9641 209.112C75.4881 209.112 75.0774 209.075 74.7321 209C74.3961 208.916 74.0974 208.823 73.8361 208.72V207.558C74.3121 207.773 74.7228 207.908 75.0681 207.964C75.4228 208.011 75.6794 208.034 75.8381 208.034C76.3794 208.034 76.7714 207.941 77.0141 207.754C77.2568 207.558 77.3781 207.339 77.3781 207.096C77.3781 206.947 77.3361 206.821 77.2521 206.718C77.1774 206.606 77.0748 206.503 76.9441 206.41C76.8134 206.317 76.6594 206.233 76.4821 206.158C76.3048 206.074 76.1181 205.99 75.9221 205.906C75.6514 205.785 75.3854 205.663 75.1241 205.542C74.8721 205.411 74.6481 205.267 74.4521 205.108C74.2561 204.94 74.0974 204.744 73.9761 204.52C73.8548 204.296 73.7941 204.025 73.7941 203.708C73.7941 203.12 74.0274 202.649 74.4941 202.294C74.9701 201.93 75.6608 201.748 76.5661 201.748C77.0328 201.748 77.4434 201.785 77.7981 201.86C78.1528 201.935 78.3814 201.991 78.4841 202.028V203.148C78.2134 203.036 77.9241 202.957 77.6161 202.91C77.3174 202.863 77.0188 202.84 76.7201 202.84C76.1881 202.84 75.8054 202.915 75.5721 203.064C75.3388 203.204 75.2221 203.395 75.2221 203.638C75.2221 203.778 75.2594 203.904 75.3341 204.016C75.4088 204.119 75.5068 204.217 75.6281 204.31C75.7588 204.394 75.9081 204.478 76.0761 204.562C76.2441 204.637 76.4214 204.716 76.6081 204.8C76.8601 204.912 77.1168 205.029 77.3781 205.15C77.6488 205.262 77.8914 205.402 78.1061 205.57C78.3301 205.738 78.5074 205.939 78.6381 206.172C78.7781 206.405 78.8481 206.695 78.8481 207.04C78.8481 207.656 78.5961 208.155 78.0921 208.538C77.5974 208.921 76.8881 209.112 75.9641 209.112ZM82.5403 209.112C82.0643 209.112 81.6536 209.075 81.3083 209C80.9723 208.916 80.6736 208.823 80.4123 208.72V207.558C80.8883 207.773 81.2989 207.908 81.6443 207.964C81.9989 208.011 82.2556 208.034 82.4143 208.034C82.9556 208.034 83.3476 207.941 83.5903 207.754C83.8329 207.558 83.9543 207.339 83.9543 207.096C83.9543 206.947 83.9123 206.821 83.8283 206.718C83.7536 206.606 83.6509 206.503 83.5203 206.41C83.3896 206.317 83.2356 206.233 83.0583 206.158C82.8809 206.074 82.6943 205.99 82.4983 205.906C82.2276 205.785 81.9616 205.663 81.7003 205.542C81.4483 205.411 81.2243 205.267 81.0283 205.108C80.8323 204.94 80.6736 204.744 80.5523 204.52C80.4309 204.296 80.3703 204.025 80.3703 203.708C80.3703 203.12 80.6036 202.649 81.0703 202.294C81.5463 201.93 82.2369 201.748 83.1423 201.748C83.6089 201.748 84.0196 201.785 84.3743 201.86C84.7289 201.935 84.9576 201.991 85.0603 202.028V203.148C84.7896 203.036 84.5003 202.957 84.1923 202.91C83.8936 202.863 83.5949 202.84 83.2963 202.84C82.7643 202.84 82.3816 202.915 82.1483 203.064C81.9149 203.204 81.7983 203.395 81.7983 203.638C81.7983 203.778 81.8356 203.904 81.9103 204.016C81.9849 204.119 82.0829 204.217 82.2043 204.31C82.3349 204.394 82.4843 204.478 82.6523 204.562C82.8203 204.637 82.9976 204.716 83.1843 204.8C83.4363 204.912 83.6929 205.029 83.9543 205.15C84.2249 205.262 84.4676 205.402 84.6823 205.57C84.9063 205.738 85.0836 205.939 85.2143 206.172C85.3543 206.405 85.4243 206.695 85.4243 207.04C85.4243 207.656 85.1723 208.155 84.6683 208.538C84.1736 208.921 83.4643 209.112 82.5403 209.112ZM86.3041 201.86H87.7461L89.3421 207.544L91.1761 201.86H92.2961L94.1161 207.572L95.8381 201.86H97.1261L94.8161 209H93.4301L91.6661 203.596L89.9861 209H88.6001L86.3041 201.86ZM101.549 209.112C101.008 209.112 100.513 209.023 100.065 208.846C99.617 208.669 99.2297 208.417 98.903 208.09C98.5857 207.763 98.3383 207.376 98.161 206.928C97.9837 206.48 97.895 205.981 97.895 205.43C97.895 204.889 97.9837 204.394 98.161 203.946C98.3383 203.489 98.5857 203.097 98.903 202.77C99.2297 202.443 99.617 202.191 100.065 202.014C100.513 201.837 101.008 201.748 101.549 201.748C102.09 201.748 102.585 201.837 103.033 202.014C103.481 202.191 103.864 202.443 104.181 202.77C104.508 203.097 104.76 203.489 104.937 203.946C105.114 204.394 105.203 204.889 105.203 205.43C105.203 205.981 105.114 206.48 104.937 206.928C104.76 207.376 104.508 207.763 104.181 208.09C103.864 208.417 103.481 208.669 103.033 208.846C102.585 209.023 102.09 209.112 101.549 209.112ZM101.549 208.048C101.857 208.048 102.146 207.987 102.417 207.866C102.697 207.745 102.935 207.572 103.131 207.348C103.336 207.115 103.5 206.839 103.621 206.522C103.742 206.195 103.803 205.831 103.803 205.43C103.803 205.029 103.742 204.669 103.621 204.352C103.5 204.025 103.336 203.75 103.131 203.526C102.926 203.293 102.688 203.115 102.417 202.994C102.146 202.873 101.857 202.812 101.549 202.812C101.241 202.812 100.947 202.873 100.667 202.994C100.396 203.115 100.158 203.293 99.953 203.526C99.757 203.75 99.5983 204.025 99.477 204.352C99.3557 204.669 99.295 205.029 99.295 205.43C99.295 205.831 99.3557 206.195 99.477 206.522C99.5983 206.839 99.757 207.115 99.953 207.348C100.158 207.572 100.396 207.745 100.667 207.866C100.947 207.987 101.241 208.048 101.549 208.048ZM107.053 201.86H108.285V203.022H108.313C108.546 202.565 108.826 202.238 109.153 202.042C109.489 201.846 109.89 201.748 110.357 201.748C110.487 201.748 110.618 201.757 110.749 201.776C110.889 201.785 111.033 201.799 111.183 201.818V202.966C111.043 202.947 110.907 202.933 110.777 202.924C110.646 202.905 110.52 202.896 110.399 202.896C109.68 202.896 109.162 203.143 108.845 203.638C108.527 204.133 108.369 204.856 108.369 205.808V209H107.053V201.86ZM115.432 209.112C114.928 209.112 114.47 209.019 114.06 208.832C113.649 208.645 113.299 208.384 113.01 208.048C112.72 207.712 112.496 207.315 112.338 206.858C112.188 206.391 112.114 205.887 112.114 205.346C112.114 204.833 112.193 204.357 112.352 203.918C112.51 203.479 112.734 203.101 113.024 202.784C113.313 202.457 113.658 202.205 114.06 202.028C114.47 201.841 114.918 201.748 115.404 201.748C115.945 201.748 116.402 201.851 116.776 202.056C117.158 202.261 117.48 202.513 117.742 202.812H117.77V198.36H119.086V209H117.826V207.992H117.742C117.471 208.337 117.149 208.613 116.776 208.818C116.412 209.014 115.964 209.112 115.432 209.112ZM115.656 208.048C115.964 208.048 116.248 207.983 116.51 207.852C116.771 207.721 116.995 207.544 117.182 207.32C117.368 207.087 117.513 206.811 117.616 206.494C117.718 206.177 117.77 205.827 117.77 205.444C117.77 205.061 117.714 204.711 117.602 204.394C117.499 204.067 117.354 203.787 117.168 203.554C116.981 203.321 116.757 203.139 116.496 203.008C116.234 202.877 115.945 202.812 115.628 202.812C115.329 202.812 115.049 202.877 114.788 203.008C114.526 203.139 114.302 203.321 114.116 203.554C113.929 203.778 113.78 204.049 113.668 204.366C113.565 204.683 113.514 205.029 113.514 205.402C113.514 205.785 113.565 206.139 113.668 206.466C113.78 206.783 113.929 207.063 114.116 207.306C114.312 207.539 114.54 207.721 114.802 207.852C115.063 207.983 115.348 208.048 115.656 208.048Z" fill="#7B7E86"/>
<path d="M61 229.088C60.6267 229.088 60.2747 229.019 59.944 228.88C59.624 228.741 59.3413 228.555 59.096 228.32C58.8613 228.075 58.6747 227.787 58.536 227.456C58.3973 227.125 58.328 226.773 58.328 226.4C58.328 226.027 58.3973 225.68 58.536 225.36C58.6747 225.029 58.8613 224.747 59.096 224.512C59.3413 224.267 59.624 224.075 59.944 223.936C60.2747 223.797 60.6267 223.728 61 223.728C61.3733 223.728 61.72 223.797 62.04 223.936C62.3707 224.075 62.6533 224.267 62.888 224.512C63.1333 224.747 63.3253 225.029 63.464 225.36C63.6027 225.68 63.672 226.027 63.672 226.4C63.672 226.773 63.6027 227.125 63.464 227.456C63.3253 227.787 63.1333 228.075 62.888 228.32C62.6533 228.555 62.3707 228.741 62.04 228.88C61.72 229.019 61.3733 229.088 61 229.088ZM72.6875 229.088C72.3142 229.088 71.9622 229.019 71.6315 228.88C71.3115 228.741 71.0288 228.555 70.7835 228.32C70.5488 228.075 70.3622 227.787 70.2235 227.456C70.0848 227.125 70.0155 226.773 70.0155 226.4C70.0155 226.027 70.0848 225.68 70.2235 225.36C70.3622 225.029 70.5488 224.747 70.7835 224.512C71.0288 224.267 71.3115 224.075 71.6315 223.936C71.9622 223.797 72.3142 223.728 72.6875 223.728C73.0608 223.728 73.4075 223.797 73.7275 223.936C74.0582 224.075 74.3408 224.267 74.5755 224.512C74.8208 224.747 75.0128 225.029 75.1515 225.36C75.2902 225.68 75.3595 226.027 75.3595 226.4C75.3595 226.773 75.2902 227.125 75.1515 227.456C75.0128 227.787 74.8208 228.075 74.5755 228.32C74.3408 228.555 74.0582 228.741 73.7275 228.88C73.4075 229.019 73.0608 229.088 72.6875 229.088ZM84.375 229.088C84.0017 229.088 83.6497 229.019 83.319 228.88C82.999 228.741 82.7163 228.555 82.471 228.32C82.2363 228.075 82.0497 227.787 81.911 227.456C81.7723 227.125 81.703 226.773 81.703 226.4C81.703 226.027 81.7723 225.68 81.911 225.36C82.0497 225.029 82.2363 224.747 82.471 224.512C82.7163 224.267 82.999 224.075 83.319 223.936C83.6497 223.797 84.0017 223.728 84.375 223.728C84.7483 223.728 85.095 223.797 85.415 223.936C85.7457 224.075 86.0283 224.267 86.263 224.512C86.5083 224.747 86.7003 225.029 86.839 225.36C86.9777 225.68 87.047 226.027 87.047 226.4C87.047 226.773 86.9777 227.125 86.839 227.456C86.7003 227.787 86.5083 228.075 86.263 228.32C86.0283 228.555 85.7457 228.741 85.415 228.88C85.095 229.019 84.7483 229.088 84.375 229.088ZM96.0625 229.088C95.6892 229.088 95.3372 229.019 95.0065 228.88C94.6865 228.741 94.4038 228.555 94.1585 228.32C93.9238 228.075 93.7372 227.787 93.5985 227.456C93.4598 227.125 93.3905 226.773 93.3905 226.4C93.3905 226.027 93.4598 225.68 93.5985 225.36C93.7372 225.029 93.9238 224.747 94.1585 224.512C94.4038 224.267 94.6865 224.075 95.0065 223.936C95.3372 223.797 95.6892 223.728 96.0625 223.728C96.4358 223.728 96.7825 223.797 97.1025 223.936C97.4332 224.075 97.7158 224.267 97.9505 224.512C98.1958 224.747 98.3878 225.029 98.5265 225.36C98.6652 225.68 98.7345 226.027 98.7345 226.4C98.7345 226.773 98.6652 227.125 98.5265 227.456C98.3878 227.787 98.1958 228.075 97.9505 228.32C97.7158 228.555 97.4332 228.741 97.1025 228.88C96.7825 229.019 96.4358 229.088 96.0625 229.088ZM107.75 229.088C107.377 229.088 107.025 229.019 106.694 228.88C106.374 228.741 106.091 228.555 105.846 228.32C105.611 228.075 105.425 227.787 105.286 227.456C105.147 227.125 105.078 226.773 105.078 226.4C105.078 226.027 105.147 225.68 105.286 225.36C105.425 225.029 105.611 224.747 105.846 224.512C106.091 224.267 106.374 224.075 106.694 223.936C107.025 223.797 107.377 223.728 107.75 223.728C108.123 223.728 108.47 223.797 108.79 223.936C109.121 224.075 109.403 224.267 109.638 224.512C109.883 224.747 110.075 225.029 110.214 225.36C110.353 225.68 110.422 226.027 110.422 226.4C110.422 226.773 110.353 227.125 110.214 227.456C110.075 227.787 109.883 228.075 109.638 228.32C109.403 228.555 109.121 228.741 108.79 228.88C108.47 229.019 108.123 229.088 107.75 229.088ZM119.438 229.088C119.064 229.088 118.712 229.019 118.382 228.88C118.062 228.741 117.779 228.555 117.534 228.32C117.299 228.075 117.112 227.787 116.974 227.456C116.835 227.125 116.766 226.773 116.766 226.4C116.766 226.027 116.835 225.68 116.974 225.36C117.112 225.029 117.299 224.747 117.534 224.512C117.779 224.267 118.062 224.075 118.382 223.936C118.712 223.797 119.064 223.728 119.438 223.728C119.811 223.728 120.158 223.797 120.478 223.936C120.808 224.075 121.091 224.267 121.326 224.512C121.571 224.747 121.763 225.029 121.902 225.36C122.04 225.68 122.11 226.027 122.11 226.4C122.11 226.773 122.04 227.125 121.902 227.456C121.763 227.787 121.571 228.075 121.326 228.32C121.091 228.555 120.808 228.741 120.478 228.88C120.158 229.019 119.811 229.088 119.438 229.088Z" fill="#22242A"/>
<path d="M392.305 214.081C392.681 213.992 392.999 214.313 392.999 214.7V215.7C392.999 216.418 393.581 217 394.299 217H395.299C395.686 217 396.007 217.318 395.918 217.694C395.605 219.016 394.417 220 392.999 220C391.342 220 389.999 218.657 389.999 217C389.999 215.582 390.983 214.394 392.305 214.081Z" fill="#7B7E86"/>
<path fill-rule="evenodd" clip-rule="evenodd" d="M392.999 210C388.118 210 384.865 213.655 383.436 215.683C382.873 216.481 382.873 217.519 383.436 218.317C384.865 220.345 388.118 224 392.999 224C397.88 224 401.133 220.345 402.562 218.317C403.125 217.519 403.125 216.481 402.562 215.683C401.133 213.655 397.88 210 392.999 210ZM386.708 213.927C385.761 214.778 385.02 215.691 384.498 216.431C384.252 216.781 384.252 217.219 384.498 217.569C385.02 218.309 385.761 219.222 386.708 220.073C386.254 219.145 385.999 218.102 385.999 217C385.999 215.898 386.254 214.855 386.708 213.927ZM392.999 222.7C389.851 222.7 387.299 220.148 387.299 217C387.299 213.852 389.851 211.3 392.999 211.3C396.147 211.3 398.699 213.852 398.699 217C398.699 220.148 396.147 222.7 392.999 222.7ZM399.29 213.927C400.237 214.778 400.978 215.691 401.5 216.431C401.746 216.781 401.746 217.219 401.5 217.569C400.978 218.309 400.237 219.222 399.29 220.073C399.744 219.145 399.999 218.102 399.999 217C399.999 215.898 399.744 214.855 399.29 213.927Z" fill="#7B7E86"/>
<path d="M44.234 273.432H41.238V272.2H48.602V273.432H45.606V282H44.234V273.432ZM52.5451 282.112C52.0037 282.112 51.5091 282.023 51.0611 281.846C50.6131 281.669 50.2257 281.417 49.8991 281.09C49.5817 280.763 49.3344 280.376 49.1571 279.928C48.9797 279.48 48.8911 278.981 48.8911 278.43C48.8911 277.889 48.9797 277.394 49.1571 276.946C49.3344 276.489 49.5817 276.097 49.8991 275.77C50.2257 275.443 50.6131 275.191 51.0611 275.014C51.5091 274.837 52.0037 274.748 52.5451 274.748C53.0864 274.748 53.5811 274.837 54.0291 275.014C54.4771 275.191 54.8597 275.443 55.1771 275.77C55.5037 276.097 55.7557 276.489 55.9331 276.946C56.1104 277.394 56.1991 277.889 56.1991 278.43C56.1991 278.981 56.1104 279.48 55.9331 279.928C55.7557 280.376 55.5037 280.763 55.1771 281.09C54.8597 281.417 54.4771 281.669 54.0291 281.846C53.5811 282.023 53.0864 282.112 52.5451 282.112ZM52.5451 281.048C52.8531 281.048 53.1424 280.987 53.4131 280.866C53.6931 280.745 53.9311 280.572 54.1271 280.348C54.3324 280.115 54.4957 279.839 54.6171 279.522C54.7384 279.195 54.7991 278.831 54.7991 278.43C54.7991 278.029 54.7384 277.669 54.6171 277.352C54.4957 277.025 54.3324 276.75 54.1271 276.526C53.9217 276.293 53.6837 276.115 53.4131 275.994C53.1424 275.873 52.8531 275.812 52.5451 275.812C52.2371 275.812 51.9431 275.873 51.6631 275.994C51.3924 276.115 51.1544 276.293 50.9491 276.526C50.7531 276.75 50.5944 277.025 50.4731 277.352C50.3517 277.669 50.2911 278.029 50.2911 278.43C50.2911 278.831 50.3517 279.195 50.4731 279.522C50.5944 279.839 50.7531 280.115 50.9491 280.348C51.1544 280.572 51.3924 280.745 51.6631 280.866C51.9431 280.987 52.2371 281.048 52.5451 281.048ZM58.0487 271.36H59.3647V278.192L62.8227 274.86H64.4607L61.2827 277.828L64.5027 282H62.8927L60.3587 278.64L59.3647 279.578V282H58.0487V271.36ZM66.5596 278.724C66.6343 279.461 66.8863 280.031 67.3156 280.432C67.745 280.824 68.3236 281.02 69.0516 281.02C69.481 281.02 69.901 280.969 70.3116 280.866C70.7316 280.754 71.077 280.619 71.3476 280.46V281.748C71.1236 281.823 70.8156 281.902 70.4236 281.986C70.0316 282.07 69.5463 282.112 68.9676 282.112C67.7543 282.112 66.821 281.776 66.1676 281.104C65.5236 280.432 65.2016 279.499 65.2016 278.304C65.2016 277.763 65.2856 277.273 65.4536 276.834C65.631 276.395 65.869 276.022 66.1676 275.714C66.4756 275.406 66.835 275.168 67.2456 275C67.6563 274.832 68.0996 274.748 68.5756 274.748C69.593 274.748 70.391 275.047 70.9696 275.644C71.5483 276.241 71.8376 277.147 71.8376 278.36V278.724H66.5596ZM68.5616 275.812C68.011 275.812 67.5583 275.989 67.2036 276.344C66.8583 276.689 66.6436 277.156 66.5596 277.744H70.4376C70.4376 277.128 70.2603 276.652 69.9056 276.316C69.551 275.98 69.103 275.812 68.5616 275.812ZM73.7304 274.86H75.0464V275.882H75.0744C75.345 275.499 75.681 275.215 76.0824 275.028C76.493 274.841 76.9504 274.748 77.4544 274.748C78.2944 274.748 78.957 275 79.4424 275.504C79.9277 275.999 80.1704 276.764 80.1704 277.8V282H78.8544V278.22C78.8544 277.763 78.8124 277.38 78.7284 277.072C78.6537 276.755 78.5417 276.507 78.3924 276.33C78.2524 276.143 78.075 276.013 77.8604 275.938C77.655 275.854 77.4264 275.812 77.1744 275.812C76.5304 275.812 76.0124 276.045 75.6204 276.512C75.2377 276.969 75.0464 277.679 75.0464 278.64V282H73.7304V274.86Z" fill="#22242A"/>
<rect x="90" y="269" width="28" height="16" rx="8" fill="#0062FF"/>
<circle cx="110" cy="277" r="6" fill="white"/>
<rect x="41.5" y="297.5" width="379" height="55" rx="3.5" fill="white"/>
<rect x="41.5" y="297.5" width="379" height="55" rx="3.5" stroke="#B1B5BB"/>
<path d="M58.302 307.2H61.438C62.6513 307.2 63.5473 307.471 64.126 308.012C64.7047 308.544 64.994 309.305 64.994 310.294C64.994 311.283 64.7047 312.049 64.126 312.59C63.5473 313.122 62.6513 313.388 61.438 313.388H59.674V317H58.302V307.2ZM61.438 312.156C62.1567 312.156 62.684 312.002 63.02 311.694C63.3653 311.377 63.538 310.91 63.538 310.294C63.538 309.678 63.3653 309.216 63.02 308.908C62.684 308.591 62.1567 308.432 61.438 308.432H59.674V312.156H61.438ZM68.1855 317.112C67.4388 317.112 66.8461 316.925 66.4075 316.552C65.9688 316.169 65.7495 315.642 65.7495 314.97C65.7495 314.186 66.0481 313.589 66.6455 313.178C67.2521 312.758 68.1808 312.548 69.4315 312.548H70.7475V312.31C70.7475 311.797 70.5701 311.423 70.2155 311.19C69.8608 310.957 69.3895 310.84 68.8015 310.84C68.4188 310.84 68.0315 310.887 67.6395 310.98C67.2475 311.064 66.8368 311.223 66.4075 311.456V310.224C66.7621 310.065 67.1681 309.949 67.6255 309.874C68.0828 309.79 68.5308 309.748 68.9695 309.748C69.9495 309.748 70.7101 309.972 71.2515 310.42C71.7928 310.859 72.0635 311.573 72.0635 312.562V317H70.7195V315.908H70.6915C70.3928 316.347 70.0101 316.659 69.5435 316.846C69.0861 317.023 68.6335 317.112 68.1855 317.112ZM68.5075 315.992C68.8341 315.992 69.1328 315.941 69.4035 315.838C69.6835 315.735 69.9215 315.595 70.1175 315.418C70.3135 315.231 70.4675 315.017 70.5795 314.774C70.6915 314.531 70.7475 314.275 70.7475 314.004V313.556H69.4875C69.0488 313.556 68.6801 313.589 68.3815 313.654C68.0921 313.719 67.8541 313.813 67.6675 313.934C67.4808 314.055 67.3455 314.195 67.2615 314.354C67.1868 314.513 67.1495 314.69 67.1495 314.886C67.1495 315.241 67.2708 315.516 67.5135 315.712C67.7561 315.899 68.0875 315.992 68.5075 315.992ZM77.7421 310.924H75.9781V314.774C75.9781 315.203 76.0854 315.502 76.3001 315.67C76.5241 315.829 76.7854 315.908 77.0841 315.908C77.3081 315.908 77.5461 315.871 77.7981 315.796V316.986C77.6208 317.033 77.4528 317.065 77.2941 317.084C77.1354 317.103 76.9908 317.112 76.8601 317.112C76.1508 317.112 75.6094 316.921 75.2361 316.538C74.8628 316.146 74.6761 315.6 74.6761 314.9V310.924H73.3741V309.86H74.6761V308.082L75.9781 307.606V309.86H77.7421V310.924ZM79.4765 306.36H80.7925V309.86L80.7785 310.882H80.8205C81.0911 310.499 81.4271 310.215 81.8285 310.028C82.2298 309.841 82.6871 309.748 83.2005 309.748C84.0405 309.748 84.7031 310 85.1885 310.504C85.6738 310.999 85.9165 311.764 85.9165 312.8V317H84.6005V313.22C84.6005 312.763 84.5585 312.38 84.4745 312.072C84.3998 311.755 84.2878 311.507 84.1385 311.33C83.9985 311.143 83.8211 311.013 83.6065 310.938C83.4011 310.854 83.1725 310.812 82.9205 310.812C82.2765 310.812 81.7585 311.045 81.3665 311.512C80.9838 311.969 80.7925 312.679 80.7925 313.64V317H79.4765V306.36Z" fill="#7B7E86"/>
<path d="M63.64 340.16C62.7227 340.16 61.9013 340.027 61.176 339.76C60.4613 339.483 59.848 339.093 59.336 338.592C58.8347 338.091 58.4507 337.488 58.184 336.784C57.9173 336.069 57.784 335.275 57.784 334.4C57.784 333.547 57.9227 332.768 58.2 332.064C58.4773 331.349 58.8667 330.741 59.368 330.24C59.88 329.728 60.4933 329.333 61.208 329.056C61.9333 328.779 62.744 328.64 63.64 328.64C64.0133 328.64 64.36 328.667 64.68 328.72C65 328.763 65.2827 328.811 65.528 328.864C65.8053 328.928 66.0613 329.003 66.296 329.088V330.624C66.0613 330.517 65.8053 330.421 65.528 330.336C65.2827 330.261 65 330.197 64.68 330.144C64.36 330.08 64.0133 330.048 63.64 330.048C63 330.048 62.4187 330.149 61.896 330.352C61.384 330.555 60.9467 330.843 60.584 331.216C60.2213 331.589 59.9387 332.048 59.736 332.592C59.544 333.125 59.448 333.728 59.448 334.4C59.448 335.072 59.544 335.68 59.736 336.224C59.9387 336.757 60.2213 337.211 60.584 337.584C60.9467 337.957 61.384 338.245 61.896 338.448C62.4187 338.651 63 338.752 63.64 338.752C64.0133 338.752 64.36 338.731 64.68 338.688C65 338.635 65.2827 338.576 65.528 338.512C65.8053 338.437 66.0613 338.352 66.296 338.256V339.792C66.0613 339.867 65.8053 339.931 65.528 339.984C65.2827 340.037 65 340.08 64.68 340.112C64.36 340.144 64.0133 340.16 63.64 340.16ZM68.4221 331.84H70.2141V333.632H68.4221V331.84ZM68.4221 338.208H70.2141V340H68.4221V338.208ZM71.2425 328.8H72.6825L77.0025 340H75.5625L71.2425 328.8ZM76.3675 328.8H77.8075L82.1275 340H80.6875L76.3675 328.8ZM86.4845 328.8H88.1805L92.6125 340H90.8525L89.7805 337.12H84.8205L83.7485 340H82.0525L86.4845 328.8ZM85.3005 335.84H89.3165L87.3325 330.48H87.3005L85.3005 335.84ZM97.1229 340.128C96.5469 340.128 96.0242 340.021 95.5549 339.808C95.0855 339.595 94.6855 339.296 94.3549 338.912C94.0242 338.528 93.7682 338.075 93.5869 337.552C93.4162 337.019 93.3309 336.443 93.3309 335.824C93.3309 335.237 93.4215 334.693 93.6029 334.192C93.7842 333.691 94.0402 333.259 94.3709 332.896C94.7015 332.523 95.0962 332.235 95.5549 332.032C96.0242 331.819 96.5362 331.712 97.0909 331.712C97.7095 331.712 98.2322 331.829 98.6589 332.064C99.0962 332.299 99.4642 332.587 99.7629 332.928H99.7949V327.84H101.299V340H99.8589V338.848H99.7629C99.4535 339.243 99.0855 339.557 98.6589 339.792C98.2429 340.016 97.7309 340.128 97.1229 340.128ZM97.3789 338.912C97.7309 338.912 98.0562 338.837 98.3549 338.688C98.6535 338.539 98.9095 338.336 99.1229 338.08C99.3362 337.813 99.5015 337.499 99.6189 337.136C99.7362 336.773 99.7949 336.373 99.7949 335.936C99.7949 335.499 99.7309 335.099 99.6029 334.736C99.4855 334.363 99.3202 334.043 99.1069 333.776C98.8935 333.509 98.6375 333.301 98.3389 333.152C98.0402 333.003 97.7095 332.928 97.3469 332.928C97.0055 332.928 96.6855 333.003 96.3869 333.152C96.0882 333.301 95.8322 333.509 95.6189 333.776C95.4055 334.032 95.2349 334.341 95.1069 334.704C94.9895 335.067 94.9309 335.461 94.9309 335.888C94.9309 336.325 94.9895 336.731 95.1069 337.104C95.2349 337.467 95.4055 337.787 95.6189 338.064C95.8429 338.331 96.1042 338.539 96.4029 338.688C96.7015 338.837 97.0269 338.912 97.3789 338.912ZM103.953 331.84H105.361V333.024H105.393C105.67 332.576 106.044 332.245 106.513 332.032C106.993 331.819 107.473 331.712 107.953 331.712C108.529 331.712 109.014 331.851 109.409 332.128C109.814 332.405 110.118 332.795 110.321 333.296C110.598 332.773 110.966 332.379 111.425 332.112C111.884 331.845 112.417 331.712 113.025 331.712C113.473 331.712 113.862 331.792 114.193 331.952C114.534 332.101 114.817 332.315 115.041 332.592C115.265 332.859 115.43 333.179 115.537 333.552C115.654 333.925 115.713 334.331 115.713 334.768V340H114.209V335.136C114.209 334.496 114.097 333.968 113.873 333.552C113.649 333.136 113.254 332.928 112.689 332.928C112.326 332.928 112.012 333.013 111.745 333.184C111.478 333.355 111.26 333.579 111.089 333.856C110.918 334.133 110.79 334.448 110.705 334.8C110.62 335.152 110.577 335.515 110.577 335.888V340H109.089V335.136C109.089 334.475 108.972 333.941 108.737 333.536C108.502 333.131 108.113 332.928 107.569 332.928C107.228 332.928 106.924 333.008 106.657 333.168C106.401 333.317 106.182 333.525 106.001 333.792C105.82 334.059 105.681 334.373 105.585 334.736C105.5 335.099 105.457 335.483 105.457 335.888V340H103.953V331.84ZM118.349 331.84H119.853V340H118.349V331.84ZM118.269 328.48H119.965V330.176H118.269V328.48ZM122.75 331.84H124.254V333.008H124.286C124.595 332.571 124.979 332.245 125.438 332.032C125.907 331.819 126.43 331.712 127.006 331.712C127.966 331.712 128.723 332 129.278 332.576C129.833 333.141 130.11 334.016 130.11 335.2V340H128.606V335.68C128.606 335.157 128.558 334.72 128.462 334.368C128.377 334.005 128.249 333.723 128.078 333.52C127.918 333.307 127.715 333.157 127.47 333.072C127.235 332.976 126.974 332.928 126.686 332.928C125.95 332.928 125.358 333.195 124.91 333.728C124.473 334.251 124.254 335.061 124.254 336.16V340H122.75V331.84ZM130.867 328.8H132.308L136.628 340H135.188L130.867 328.8ZM137.801 328.8H141.545C142.377 328.8 143.129 328.933 143.801 329.2C144.483 329.467 145.065 329.845 145.545 330.336C146.025 330.827 146.393 331.419 146.649 332.112C146.915 332.805 147.049 333.579 147.049 334.432C147.049 335.328 146.921 336.123 146.665 336.816C146.409 337.509 146.041 338.091 145.561 338.56C145.091 339.029 144.515 339.387 143.833 339.632C143.15 339.877 142.387 340 141.545 340H137.801V328.8ZM141.529 338.592C142.787 338.592 143.737 338.245 144.377 337.552C145.027 336.859 145.352 335.861 145.352 334.56C145.352 333.888 145.267 333.285 145.097 332.752C144.926 332.208 144.681 331.749 144.361 331.376C144.051 331.003 143.673 330.715 143.225 330.512C142.777 330.309 142.275 330.208 141.721 330.208H139.369V338.592H141.529ZM152.788 340.128C152.169 340.128 151.604 340.027 151.092 339.824C150.58 339.621 150.137 339.333 149.764 338.96C149.401 338.587 149.119 338.144 148.916 337.632C148.713 337.12 148.612 336.549 148.612 335.92C148.612 335.301 148.713 334.736 148.916 334.224C149.119 333.701 149.401 333.253 149.764 332.88C150.137 332.507 150.58 332.219 151.092 332.016C151.604 331.813 152.169 331.712 152.788 331.712C153.407 331.712 153.972 331.813 154.484 332.016C154.996 332.219 155.433 332.507 155.796 332.88C156.169 333.253 156.457 333.701 156.66 334.224C156.863 334.736 156.964 335.301 156.964 335.92C156.964 336.549 156.863 337.12 156.66 337.632C156.457 338.144 156.169 338.587 155.796 338.96C155.433 339.333 154.996 339.621 154.484 339.824C153.972 340.027 153.407 340.128 152.788 340.128ZM152.788 338.912C153.14 338.912 153.471 338.843 153.78 338.704C154.1 338.565 154.372 338.368 154.596 338.112C154.831 337.845 155.017 337.531 155.156 337.168C155.295 336.795 155.364 336.379 155.364 335.92C155.364 335.461 155.295 335.051 155.156 334.688C155.017 334.315 154.831 334 154.596 333.744C154.361 333.477 154.089 333.275 153.78 333.136C153.471 332.997 153.14 332.928 152.788 332.928C152.436 332.928 152.1 332.997 151.78 333.136C151.471 333.275 151.199 333.477 150.964 333.744C150.74 334 150.559 334.315 150.42 334.688C150.281 335.051 150.212 335.461 150.212 335.92C150.212 336.379 150.281 336.795 150.42 337.168C150.559 337.531 150.74 337.845 150.964 338.112C151.199 338.368 151.471 338.565 151.78 338.704C152.1 338.843 152.436 338.912 152.788 338.912ZM162.614 340.128C161.985 340.128 161.414 340.027 160.902 339.824C160.401 339.621 159.974 339.339 159.622 338.976C159.27 338.603 158.998 338.16 158.806 337.648C158.625 337.125 158.534 336.549 158.534 335.92C158.534 335.291 158.63 334.72 158.822 334.208C159.014 333.685 159.286 333.243 159.638 332.88C160.001 332.507 160.433 332.219 160.934 332.016C161.435 331.813 162.001 331.712 162.63 331.712C162.95 331.712 163.233 331.728 163.478 331.76C163.734 331.792 163.953 331.829 164.134 331.872C164.337 331.915 164.513 331.968 164.662 332.032V333.328C164.502 333.253 164.326 333.189 164.134 333.136C163.963 333.083 163.766 333.035 163.542 332.992C163.318 332.949 163.067 332.928 162.79 332.928C161.937 332.928 161.281 333.189 160.822 333.712C160.363 334.224 160.134 334.96 160.134 335.92C160.134 336.88 160.363 337.621 160.822 338.144C161.281 338.656 161.931 338.912 162.774 338.912C163.051 338.912 163.302 338.891 163.526 338.848C163.761 338.805 163.963 338.757 164.134 338.704C164.326 338.651 164.502 338.581 164.662 338.496V339.808C164.502 339.872 164.321 339.925 164.118 339.968C163.937 340.011 163.718 340.048 163.462 340.08C163.206 340.112 162.923 340.128 162.614 340.128ZM173.948 340H172.444V338.832H172.412C172.102 339.269 171.713 339.595 171.244 339.808C170.785 340.021 170.268 340.128 169.692 340.128C168.732 340.128 167.974 339.845 167.42 339.28C166.865 338.704 166.588 337.824 166.588 336.64V331.84H168.092V336.16C168.092 336.693 168.134 337.136 168.22 337.488C168.316 337.84 168.444 338.123 168.604 338.336C168.774 338.539 168.977 338.688 169.212 338.784C169.457 338.869 169.724 338.912 170.012 338.912C170.748 338.912 171.334 338.651 171.772 338.128C172.22 337.595 172.444 336.779 172.444 335.68V331.84H173.948V340ZM176.609 331.84H178.017V333.024H178.049C178.327 332.576 178.7 332.245 179.169 332.032C179.649 331.819 180.129 331.712 180.609 331.712C181.185 331.712 181.671 331.851 182.065 332.128C182.471 332.405 182.775 332.795 182.977 333.296C183.255 332.773 183.623 332.379 184.081 332.112C184.54 331.845 185.073 331.712 185.681 331.712C186.129 331.712 186.519 331.792 186.849 331.952C187.191 332.101 187.473 332.315 187.697 332.592C187.921 332.859 188.087 333.179 188.193 333.552C188.311 333.925 188.369 334.331 188.369 334.768V340H186.865V335.136C186.865 334.496 186.753 333.968 186.529 333.552C186.305 333.136 185.911 332.928 185.345 332.928C184.983 332.928 184.668 333.013 184.401 333.184C184.135 333.355 183.916 333.579 183.745 333.856C183.575 334.133 183.447 334.448 183.361 334.8C183.276 335.152 183.233 335.515 183.233 335.888V340H181.745V335.136C181.745 334.475 181.628 333.941 181.393 333.536C181.159 333.131 180.769 332.928 180.225 332.928C179.884 332.928 179.58 333.008 179.313 333.168C179.057 333.317 178.839 333.525 178.657 333.792C178.476 334.059 178.337 334.373 178.241 334.736C178.156 335.099 178.113 335.483 178.113 335.888V340H176.609V331.84ZM191.774 336.256C191.859 337.099 192.147 337.749 192.638 338.208C193.128 338.656 193.79 338.88 194.622 338.88C195.112 338.88 195.592 338.821 196.062 338.704C196.542 338.576 196.936 338.421 197.246 338.24V339.712C196.99 339.797 196.638 339.888 196.19 339.984C195.742 340.08 195.187 340.128 194.526 340.128C193.139 340.128 192.072 339.744 191.326 338.976C190.59 338.208 190.222 337.141 190.222 335.776C190.222 335.157 190.318 334.597 190.51 334.096C190.712 333.595 190.984 333.168 191.326 332.816C191.678 332.464 192.088 332.192 192.558 332C193.027 331.808 193.534 331.712 194.078 331.712C195.24 331.712 196.152 332.053 196.814 332.736C197.475 333.419 197.806 334.453 197.806 335.84V336.256H191.774ZM194.062 332.928C193.432 332.928 192.915 333.131 192.51 333.536C192.115 333.931 191.87 334.464 191.774 335.136H196.206C196.206 334.432 196.003 333.888 195.598 333.504C195.192 333.12 194.68 332.928 194.062 332.928ZM199.969 331.84H201.473V333.008H201.505C201.814 332.571 202.198 332.245 202.657 332.032C203.126 331.819 203.649 331.712 204.225 331.712C205.185 331.712 205.942 332 206.497 332.576C207.051 333.141 207.329 334.016 207.329 335.2V340H205.825V335.68C205.825 335.157 205.777 334.72 205.681 334.368C205.595 334.005 205.467 333.723 205.297 333.52C205.137 333.307 204.934 333.157 204.689 333.072C204.454 332.976 204.193 332.928 203.905 332.928C203.169 332.928 202.577 333.195 202.129 333.728C201.691 334.251 201.473 335.061 201.473 336.16V340H199.969V331.84ZM213.83 333.056H211.814V337.456C211.814 337.947 211.937 338.288 212.182 338.48C212.438 338.661 212.737 338.752 213.078 338.752C213.334 338.752 213.606 338.709 213.894 338.624V339.984C213.692 340.037 213.5 340.075 213.318 340.096C213.137 340.117 212.972 340.128 212.822 340.128C212.012 340.128 211.393 339.909 210.966 339.472C210.54 339.024 210.326 338.4 210.326 337.6V333.056H208.838V331.84H210.326V329.808L211.814 329.264V331.84H213.83V333.056ZM217.876 340.128C217.332 340.128 216.863 340.085 216.468 340C216.084 339.904 215.743 339.797 215.444 339.68V338.352C215.988 338.597 216.458 338.752 216.852 338.816C217.258 338.869 217.551 338.896 217.732 338.896C218.351 338.896 218.799 338.789 219.076 338.576C219.354 338.352 219.492 338.101 219.492 337.824C219.492 337.653 219.444 337.509 219.348 337.392C219.263 337.264 219.146 337.147 218.996 337.04C218.847 336.933 218.671 336.837 218.468 336.752C218.266 336.656 218.052 336.56 217.828 336.464C217.519 336.325 217.215 336.187 216.916 336.048C216.628 335.899 216.372 335.733 216.148 335.552C215.924 335.36 215.743 335.136 215.604 334.88C215.466 334.624 215.396 334.315 215.396 333.952C215.396 333.28 215.663 332.741 216.196 332.336C216.74 331.92 217.53 331.712 218.564 331.712C219.098 331.712 219.567 331.755 219.972 331.84C220.378 331.925 220.639 331.989 220.756 332.032V333.312C220.447 333.184 220.116 333.093 219.764 333.04C219.423 332.987 219.082 332.96 218.74 332.96C218.132 332.96 217.695 333.045 217.428 333.216C217.162 333.376 217.028 333.595 217.028 333.872C217.028 334.032 217.071 334.176 217.156 334.304C217.242 334.421 217.354 334.533 217.492 334.64C217.642 334.736 217.812 334.832 218.004 334.928C218.196 335.013 218.399 335.104 218.612 335.2C218.9 335.328 219.194 335.461 219.492 335.6C219.802 335.728 220.079 335.888 220.324 336.08C220.58 336.272 220.783 336.501 220.932 336.768C221.092 337.035 221.172 337.365 221.172 337.76C221.172 338.464 220.884 339.035 220.308 339.472C219.743 339.909 218.932 340.128 217.876 340.128ZM221.68 328.8H223.12L227.44 340H226L221.68 328.8ZM227.317 328.8H229.061L232.405 338.592H232.453L235.813 328.8H237.493L233.397 340H231.397L227.317 328.8ZM241.54 330.208H238.116V328.8H246.532V330.208H243.108V340H241.54V330.208ZM248.285 328.8H251.597C252.312 328.8 252.92 328.869 253.421 329.008C253.933 329.136 254.349 329.328 254.669 329.584C254.989 329.829 255.224 330.133 255.373 330.496C255.522 330.848 255.597 331.243 255.597 331.68C255.597 332.288 255.432 332.811 255.101 333.248C254.781 333.685 254.258 334 253.533 334.192V334.224C254.386 334.405 254.994 334.736 255.357 335.216C255.73 335.685 255.917 336.261 255.917 336.944C255.917 337.915 255.608 338.667 254.989 339.2C254.381 339.733 253.357 340 251.917 340H248.285V328.8ZM251.917 338.688C252.717 338.688 253.298 338.523 253.661 338.192C254.034 337.861 254.221 337.392 254.221 336.784C254.221 336.187 254.034 335.723 253.661 335.392C253.298 335.061 252.717 334.896 251.917 334.896H249.853V338.688H251.917ZM251.597 333.584C252.45 333.584 253.058 333.429 253.421 333.12C253.794 332.8 253.981 332.373 253.981 331.84C253.981 331.317 253.794 330.901 253.421 330.592C253.058 330.272 252.45 330.112 251.597 330.112H249.853V333.584H251.597Z" fill="#22242A"/>
<path fill-rule="evenodd" clip-rule="evenodd" d="M360.604 323.3C360.604 322.582 361.186 322 361.904 322H368.091C368.809 322 369.391 322.582 369.391 323.3V330.088C369.391 330.806 368.809 331.388 368.091 331.388H361.904C361.186 331.388 360.604 330.806 360.604 330.088V323.3ZM361.904 323.3H368.091V324.544H366.955C366.596 324.544 366.305 324.835 366.305 325.194C366.305 325.553 366.596 325.844 366.955 325.844H368.091V327.544H366.955C366.596 327.544 366.305 327.835 366.305 328.194C366.305 328.553 366.596 328.844 366.955 328.844H368.091V330.088H361.904L361.904 328.844H362.986C363.345 328.844 363.636 328.553 363.636 328.194C363.636 327.835 363.345 327.544 362.986 327.544H361.904V325.844H362.986C363.345 325.844 363.636 325.553 363.636 325.194C363.636 324.835 363.345 324.544 362.986 324.544H361.904L361.904 323.3Z" fill="#7B7E86"/>
<path fill-rule="evenodd" clip-rule="evenodd" d="M358 322.766C358 322.031 358.27 321.322 358.758 320.773L362.105 317.007C362.674 316.366 363.49 316 364.347 316H369C370.657 316 372 317.343 372 319V331C372 332.657 370.657 334 369 334H361C359.343 334 358 332.657 358 331V322.766ZM370.7 319V331C370.7 331.939 369.939 332.7 369 332.7H361C360.061 332.7 359.3 331.939 359.3 331V322.766C359.3 322.349 359.453 321.947 359.729 321.636L363.077 317.871C363.399 317.508 363.862 317.3 364.347 317.3H369C369.939 317.3 370.7 318.061 370.7 319Z" fill="#7B7E86"/>
<path fill-rule="evenodd" clip-rule="evenodd" d="M384 325C384 320.029 388.029 316 393 316C397.971 316 402 320.029 402 325C402 329.971 397.971 334 393 334C388.029 334 384 329.971 384 325ZM391.79 328.29C392.07 328.57 392.53 328.56 392.8 328.27L397.22 323.47C397.46 323.2 397.44 322.79 397.18 322.55C396.92 322.31 396.5 322.32 396.26 322.59L392.27 326.93L389.87 324.53C389.62 324.28 389.2 324.28 388.95 324.53C388.7 324.78 388.7 325.2 388.95 325.45L391.79 328.29Z" fill="#1BA049"/>
<rect x="41" y="405" width="380" height="56" rx="4" fill="#0062FF"/>
<path d="M208.568 439.16C208.227 439.16 207.821 439.128 207.352 439.064C206.893 439.011 206.392 438.893 205.848 438.712V436.856C206.051 436.941 206.269 437.016 206.504 437.08C206.739 437.144 206.973 437.203 207.208 437.256C207.453 437.299 207.688 437.336 207.912 437.368C208.147 437.389 208.36 437.4 208.552 437.4C209.224 437.4 209.736 437.267 210.088 437C210.44 436.723 210.616 436.365 210.616 435.928C210.616 435.693 210.557 435.485 210.44 435.304C210.333 435.123 210.184 434.963 209.992 434.824C209.8 434.675 209.576 434.541 209.32 434.424C209.075 434.296 208.819 434.168 208.552 434.04C208.211 433.88 207.875 433.709 207.544 433.528C207.213 433.347 206.909 433.133 206.632 432.888C206.365 432.632 206.147 432.339 205.976 432.008C205.816 431.667 205.736 431.261 205.736 430.792C205.736 429.789 206.083 429.016 206.776 428.472C207.48 427.917 208.456 427.64 209.704 427.64C210.205 427.64 210.675 427.683 211.112 427.768C211.549 427.843 211.912 427.933 212.2 428.04V429.784C211.795 429.635 211.368 429.533 210.92 429.48C210.472 429.427 210.093 429.4 209.784 429.4C209.123 429.4 208.637 429.501 208.328 429.704C208.029 429.907 207.88 430.189 207.88 430.552C207.88 430.776 207.928 430.979 208.024 431.16C208.131 431.331 208.269 431.485 208.44 431.624C208.621 431.763 208.829 431.891 209.064 432.008C209.299 432.125 209.544 432.248 209.8 432.376C210.141 432.536 210.488 432.707 210.84 432.888C211.192 433.069 211.507 433.288 211.784 433.544C212.072 433.8 212.307 434.109 212.488 434.472C212.669 434.835 212.76 435.272 212.76 435.784C212.76 436.851 212.392 437.683 211.656 438.28C210.931 438.867 209.901 439.16 208.568 439.16ZM214.828 430.76H216.796V439H214.828V430.76ZM214.78 427.384H216.86V429.224H214.78V427.384ZM222.589 442.616C222.194 442.616 221.826 442.595 221.485 442.552C221.144 442.509 220.84 442.456 220.573 442.392C220.306 442.339 220.082 442.28 219.901 442.216C219.72 442.163 219.592 442.125 219.517 442.104V440.408C219.592 440.44 219.72 440.488 219.901 440.552C220.093 440.627 220.317 440.696 220.573 440.76C220.84 440.835 221.138 440.899 221.469 440.952C221.8 441.016 222.141 441.048 222.493 441.048C223.378 441.048 224.034 440.835 224.461 440.408C224.888 439.981 225.101 439.315 225.101 438.408V437.8H225.037C224.76 438.173 224.392 438.467 223.933 438.68C223.485 438.893 223 439 222.477 439C221.933 439 221.437 438.899 220.989 438.696C220.541 438.483 220.157 438.195 219.837 437.832C219.517 437.459 219.266 437.016 219.085 436.504C218.914 435.992 218.829 435.432 218.829 434.824C218.829 434.184 218.92 433.608 219.101 433.096C219.293 432.573 219.549 432.131 219.869 431.768C220.2 431.395 220.594 431.112 221.053 430.92C221.512 430.717 222.013 430.616 222.557 430.616C223.165 430.616 223.672 430.744 224.077 431C224.493 431.256 224.84 431.56 225.117 431.912H225.165V430.76H227.005V438.408C227.005 439.859 226.648 440.92 225.933 441.592C225.218 442.275 224.104 442.616 222.589 442.616ZM222.973 437.48C223.272 437.48 223.544 437.421 223.789 437.304C224.045 437.176 224.264 437 224.445 436.776C224.637 436.552 224.786 436.275 224.893 435.944C225 435.613 225.053 435.24 225.053 434.824C225.053 434.397 225 434.019 224.893 433.688C224.786 433.357 224.637 433.08 224.445 432.856C224.253 432.632 224.024 432.461 223.757 432.344C223.501 432.227 223.224 432.168 222.925 432.168C222.338 432.168 221.848 432.387 221.453 432.824C221.069 433.261 220.877 433.901 220.877 434.744C220.877 435.16 220.93 435.539 221.037 435.88C221.144 436.221 221.293 436.509 221.485 436.744C221.677 436.979 221.901 437.16 222.157 437.288C222.413 437.416 222.685 437.48 222.973 437.48ZM229.403 430.76H231.291V432.008H231.323C231.622 431.581 231.995 431.245 232.443 431C232.902 430.744 233.43 430.616 234.027 430.616C234.966 430.616 235.691 430.915 236.203 431.512C236.726 432.099 236.987 432.963 236.987 434.104V439H235.019V434.68C235.019 433.795 234.875 433.171 234.587 432.808C234.31 432.445 233.915 432.264 233.403 432.264C232.774 432.264 232.278 432.509 231.915 433C231.552 433.48 231.371 434.205 231.371 435.176V439H229.403V430.76ZM243 430.76H244.968V439H243V430.76ZM242.952 427.384H245.032V429.224H242.952V427.384ZM247.497 430.76H249.385V432.008H249.417C249.716 431.581 250.089 431.245 250.537 431C250.996 430.744 251.524 430.616 252.121 430.616C253.06 430.616 253.785 430.915 254.297 431.512C254.82 432.099 255.081 432.963 255.081 434.104V439H253.113V434.68C253.113 433.795 252.969 433.171 252.681 432.808C252.404 432.445 252.009 432.264 251.497 432.264C250.868 432.264 250.372 432.509 250.009 433C249.646 433.48 249.465 434.205 249.465 435.176V439H247.497V430.76Z" fill="white"/>
</svg>
