<svg width="462" height="534" viewBox="0 0 462 534" fill="none" xmlns="http://www.w3.org/2000/svg">
<rect x="1" y="1" width="460" height="532" rx="6" fill="white"/>
<rect x="1" y="1" width="460" height="532" rx="6" stroke="black" stroke-width="2"/>
<path d="M41.288 55.2H43.904L48.92 69.888H48.992L54.032 55.2H56.552L50.408 72H47.408L41.288 55.2ZM62.6221 57.312H57.4861V55.2H70.1101V57.312H64.9741V72H62.6221V57.312ZM72.7398 55.2H77.7078C78.7798 55.2 79.6918 55.304 80.4438 55.512C81.2118 55.704 81.8358 55.992 82.3158 56.376C82.7958 56.744 83.1478 57.2 83.3718 57.744C83.5958 58.272 83.7078 58.864 83.7078 59.52C83.7078 60.432 83.4598 61.216 82.9638 61.872C82.4838 62.528 81.6998 63 80.6118 63.288V63.336C81.8918 63.608 82.8038 64.104 83.3478 64.824C83.9078 65.528 84.1878 66.392 84.1878 67.416C84.1878 68.872 83.7238 70 82.7958 70.8C81.8838 71.6 80.3478 72 78.1878 72H72.7398V55.2ZM78.1878 70.032C79.3878 70.032 80.2598 69.784 80.8038 69.288C81.3638 68.792 81.6438 68.088 81.6438 67.176C81.6438 66.28 81.3638 65.584 80.8038 65.088C80.2598 64.592 79.3878 64.344 78.1878 64.344H75.0918V70.032H78.1878ZM77.7078 62.376C78.9878 62.376 79.8998 62.144 80.4438 61.68C81.0038 61.2 81.2838 60.56 81.2838 59.76C81.2838 58.976 81.0038 58.352 80.4438 57.888C79.8998 57.408 78.9878 57.168 77.7078 57.168H75.0918V62.376H77.7078ZM92.9195 55.2H97.8875C98.9595 55.2 99.8715 55.304 100.624 55.512C101.392 55.704 102.016 55.992 102.496 56.376C102.976 56.744 103.328 57.2 103.552 57.744C103.776 58.272 103.888 58.864 103.888 59.52C103.888 60.432 103.64 61.216 103.144 61.872C102.664 62.528 101.88 63 100.792 63.288V63.336C102.072 63.608 102.984 64.104 103.528 64.824C104.088 65.528 104.368 66.392 104.368 67.416C104.368 68.872 103.904 70 102.976 70.8C102.064 71.6 100.528 72 98.3675 72H92.9195V55.2ZM98.3675 70.032C99.5675 70.032 100.44 69.784 100.984 69.288C101.544 68.792 101.824 68.088 101.824 67.176C101.824 66.28 101.544 65.584 100.984 65.088C100.44 64.592 99.5675 64.344 98.3675 64.344H95.2715V70.032H98.3675ZM97.8875 62.376C99.1675 62.376 100.08 62.144 100.624 61.68C101.184 61.2 101.464 60.56 101.464 59.76C101.464 58.976 101.184 58.352 100.624 57.888C100.08 57.408 99.1675 57.168 97.8875 57.168H95.2715V62.376H97.8875ZM117.984 72H115.728V70.248H115.68C115.216 70.904 114.632 71.392 113.928 71.712C113.24 72.032 112.464 72.192 111.6 72.192C110.16 72.192 109.024 71.768 108.192 70.92C107.36 70.056 106.944 68.736 106.944 66.96V59.76H109.2V66.24C109.2 67.04 109.264 67.704 109.392 68.232C109.536 68.76 109.728 69.184 109.968 69.504C110.224 69.808 110.528 70.032 110.88 70.176C111.248 70.304 111.648 70.368 112.08 70.368C113.184 70.368 114.064 69.976 114.72 69.192C115.392 68.392 115.728 67.168 115.728 65.52V59.76H117.984V72ZM125.072 72.192C124.256 72.192 123.552 72.128 122.96 72C122.384 71.856 121.872 71.696 121.424 71.52V69.528C122.24 69.896 122.944 70.128 123.536 70.224C124.144 70.304 124.584 70.344 124.856 70.344C125.784 70.344 126.456 70.184 126.872 69.864C127.288 69.528 127.496 69.152 127.496 68.736C127.496 68.48 127.424 68.264 127.28 68.088C127.152 67.896 126.976 67.72 126.752 67.56C126.528 67.4 126.264 67.256 125.96 67.128C125.656 66.984 125.336 66.84 125 66.696C124.536 66.488 124.08 66.28 123.632 66.072C123.2 65.848 122.816 65.6 122.48 65.328C122.144 65.04 121.872 64.704 121.664 64.32C121.456 63.936 121.352 63.472 121.352 62.928C121.352 61.92 121.752 61.112 122.552 60.504C123.368 59.88 124.552 59.568 126.104 59.568C126.904 59.568 127.608 59.632 128.216 59.76C128.824 59.888 129.216 59.984 129.392 60.048V61.968C128.928 61.776 128.432 61.64 127.904 61.56C127.392 61.48 126.88 61.44 126.368 61.44C125.456 61.44 124.8 61.568 124.4 61.824C124 62.064 123.8 62.392 123.8 62.808C123.8 63.048 123.864 63.264 123.992 63.456C124.12 63.632 124.288 63.8 124.496 63.96C124.72 64.104 124.976 64.248 125.264 64.392C125.552 64.52 125.856 64.656 126.176 64.8C126.608 64.992 127.048 65.192 127.496 65.4C127.96 65.592 128.376 65.832 128.744 66.12C129.128 66.408 129.432 66.752 129.656 67.152C129.896 67.552 130.016 68.048 130.016 68.64C130.016 69.696 129.584 70.552 128.72 71.208C127.872 71.864 126.656 72.192 125.072 72.192ZM133.375 59.76H135.631V72H133.375V59.76ZM133.255 54.72H135.799V57.264H133.255V54.72ZM139.976 59.76H142.232V61.512H142.28C142.744 60.856 143.32 60.368 144.008 60.048C144.712 59.728 145.496 59.568 146.36 59.568C147.8 59.568 148.936 60 149.768 60.864C150.6 61.712 151.016 63.024 151.016 64.8V72H148.76V65.52C148.76 64.736 148.688 64.08 148.544 63.552C148.416 63.008 148.224 62.584 147.968 62.28C147.728 61.96 147.424 61.736 147.056 61.608C146.704 61.464 146.312 61.392 145.88 61.392C144.776 61.392 143.888 61.792 143.216 62.592C142.56 63.376 142.232 64.592 142.232 66.24V72H139.976V59.76ZM156.137 66.384C156.265 67.648 156.697 68.624 157.433 69.312C158.169 69.984 159.161 70.32 160.409 70.32C161.145 70.32 161.865 70.232 162.569 70.056C163.289 69.864 163.881 69.632 164.345 69.36V71.568C163.961 71.696 163.433 71.832 162.761 71.976C162.089 72.12 161.257 72.192 160.265 72.192C158.185 72.192 156.585 71.616 155.465 70.464C154.361 69.312 153.809 67.712 153.809 65.664C153.809 64.736 153.953 63.896 154.241 63.144C154.545 62.392 154.953 61.752 155.465 61.224C155.993 60.696 156.609 60.288 157.313 60C158.017 59.712 158.777 59.568 159.593 59.568C161.337 59.568 162.705 60.08 163.697 61.104C164.689 62.128 165.185 63.68 165.185 65.76V66.384H156.137ZM159.569 61.392C158.625 61.392 157.849 61.696 157.241 62.304C156.649 62.896 156.281 63.696 156.137 64.704H162.785C162.785 63.648 162.481 62.832 161.873 62.256C161.265 61.68 160.497 61.392 159.569 61.392ZM171.526 72.192C170.71 72.192 170.006 72.128 169.414 72C168.838 71.856 168.326 71.696 167.878 71.52V69.528C168.694 69.896 169.398 70.128 169.99 70.224C170.598 70.304 171.038 70.344 171.31 70.344C172.238 70.344 172.91 70.184 173.326 69.864C173.742 69.528 173.95 69.152 173.95 68.736C173.95 68.48 173.878 68.264 173.734 68.088C173.606 67.896 173.43 67.72 173.206 67.56C172.982 67.4 172.718 67.256 172.414 67.128C172.11 66.984 171.79 66.84 171.454 66.696C170.99 66.488 170.534 66.28 170.086 66.072C169.654 65.848 169.27 65.6 168.934 65.328C168.598 65.04 168.326 64.704 168.118 64.32C167.91 63.936 167.806 63.472 167.806 62.928C167.806 61.92 168.206 61.112 169.006 60.504C169.822 59.88 171.006 59.568 172.558 59.568C173.358 59.568 174.062 59.632 174.67 59.76C175.278 59.888 175.67 59.984 175.846 60.048V61.968C175.382 61.776 174.886 61.64 174.358 61.56C173.846 61.48 173.334 61.44 172.822 61.44C171.91 61.44 171.254 61.568 170.854 61.824C170.454 62.064 170.254 62.392 170.254 62.808C170.254 63.048 170.318 63.264 170.446 63.456C170.574 63.632 170.742 63.8 170.95 63.96C171.174 64.104 171.43 64.248 171.718 64.392C172.006 64.52 172.31 64.656 172.63 64.8C173.062 64.992 173.502 65.192 173.95 65.4C174.414 65.592 174.83 65.832 175.198 66.12C175.582 66.408 175.886 66.752 176.11 67.152C176.35 67.552 176.47 68.048 176.47 68.64C176.47 69.696 176.038 70.552 175.174 71.208C174.326 71.864 173.11 72.192 171.526 72.192ZM182.799 72.192C181.983 72.192 181.279 72.128 180.687 72C180.111 71.856 179.599 71.696 179.151 71.52V69.528C179.967 69.896 180.671 70.128 181.263 70.224C181.871 70.304 182.311 70.344 182.583 70.344C183.511 70.344 184.183 70.184 184.599 69.864C185.015 69.528 185.223 69.152 185.223 68.736C185.223 68.48 185.151 68.264 185.007 68.088C184.879 67.896 184.703 67.72 184.479 67.56C184.255 67.4 183.991 67.256 183.687 67.128C183.383 66.984 183.063 66.84 182.727 66.696C182.263 66.488 181.807 66.28 181.359 66.072C180.927 65.848 180.543 65.6 180.207 65.328C179.871 65.04 179.599 64.704 179.391 64.32C179.183 63.936 179.079 63.472 179.079 62.928C179.079 61.92 179.479 61.112 180.279 60.504C181.095 59.88 182.279 59.568 183.831 59.568C184.631 59.568 185.335 59.632 185.943 59.76C186.551 59.888 186.943 59.984 187.119 60.048V61.968C186.655 61.776 186.159 61.64 185.631 61.56C185.119 61.48 184.607 61.44 184.095 61.44C183.183 61.44 182.527 61.568 182.127 61.824C181.727 62.064 181.527 62.392 181.527 62.808C181.527 63.048 181.591 63.264 181.719 63.456C181.847 63.632 182.015 63.8 182.223 63.96C182.447 64.104 182.703 64.248 182.991 64.392C183.279 64.52 183.583 64.656 183.903 64.8C184.335 64.992 184.775 65.192 185.223 65.4C185.687 65.592 186.103 65.832 186.471 66.12C186.855 66.408 187.159 66.752 187.383 67.152C187.623 67.552 187.743 68.048 187.743 68.64C187.743 69.696 187.311 70.552 186.447 71.208C185.599 71.864 184.383 72.192 182.799 72.192Z" fill="#22242A"/>
<rect x="41.5" y="109.5" width="379" height="55" rx="1.5" stroke="#D8D8D8"/>
<path d="M58.488 131.8H60.056V141.592H65.064V143H58.488V131.8ZM70.0381 143.128C69.4195 143.128 68.8541 143.027 68.3421 142.824C67.8301 142.621 67.3875 142.333 67.0141 141.96C66.6515 141.587 66.3688 141.144 66.1661 140.632C65.9635 140.12 65.8621 139.549 65.8621 138.92C65.8621 138.301 65.9635 137.736 66.1661 137.224C66.3688 136.701 66.6515 136.253 67.0141 135.88C67.3875 135.507 67.8301 135.219 68.3421 135.016C68.8541 134.813 69.4195 134.712 70.0381 134.712C70.6568 134.712 71.2221 134.813 71.7341 135.016C72.2461 135.219 72.6835 135.507 73.0461 135.88C73.4195 136.253 73.7075 136.701 73.9101 137.224C74.1128 137.736 74.2141 138.301 74.2141 138.92C74.2141 139.549 74.1128 140.12 73.9101 140.632C73.7075 141.144 73.4195 141.587 73.0461 141.96C72.6835 142.333 72.2461 142.621 71.7341 142.824C71.2221 143.027 70.6568 143.128 70.0381 143.128ZM70.0381 141.912C70.3901 141.912 70.7208 141.843 71.0301 141.704C71.3501 141.565 71.6221 141.368 71.8461 141.112C72.0808 140.845 72.2675 140.531 72.4061 140.168C72.5448 139.795 72.6141 139.379 72.6141 138.92C72.6141 138.461 72.5448 138.051 72.4061 137.688C72.2675 137.315 72.0808 137 71.8461 136.744C71.6115 136.477 71.3395 136.275 71.0301 136.136C70.7208 135.997 70.3901 135.928 70.0381 135.928C69.6861 135.928 69.3501 135.997 69.0301 136.136C68.7208 136.275 68.4488 136.477 68.2141 136.744C67.9901 137 67.8088 137.315 67.6701 137.688C67.5315 138.051 67.4621 138.461 67.4621 138.92C67.4621 139.379 67.5315 139.795 67.6701 140.168C67.8088 140.531 67.9901 140.845 68.2141 141.112C68.4488 141.368 68.7208 141.565 69.0301 141.704C69.3501 141.843 69.6861 141.912 70.0381 141.912ZM79.416 146.648C78.9893 146.648 78.5947 146.621 78.232 146.568C77.8693 146.515 77.5493 146.451 77.272 146.376C76.952 146.301 76.6587 146.211 76.392 146.104V144.664C76.6587 144.803 76.952 144.931 77.272 145.048C77.5493 145.144 77.8693 145.229 78.232 145.304C78.5947 145.389 78.9893 145.432 79.416 145.432C81.304 145.432 82.248 144.483 82.248 142.584V141.736H82.2C81.9333 142.131 81.56 142.44 81.08 142.664C80.6107 142.888 80.0933 143 79.528 143C78.9947 143 78.4987 142.904 78.04 142.712C77.592 142.52 77.1973 142.248 76.856 141.896C76.5253 141.533 76.264 141.101 76.072 140.6C75.88 140.088 75.784 139.512 75.784 138.872C75.784 138.211 75.8853 137.624 76.088 137.112C76.2907 136.589 76.5627 136.152 76.904 135.8C77.256 135.448 77.6667 135.181 78.136 135C78.6053 134.808 79.1067 134.712 79.64 134.712C80.2587 134.712 80.7813 134.84 81.208 135.096C81.6347 135.352 81.9973 135.656 82.296 136.008H82.344V134.84H83.752V142.584C83.752 143.949 83.4 144.968 82.696 145.64C82.0027 146.312 80.9093 146.648 79.416 146.648ZM79.848 141.784C80.1787 141.784 80.488 141.72 80.776 141.592C81.0747 141.464 81.3307 141.277 81.544 141.032C81.7573 140.776 81.9227 140.472 82.04 140.12C82.168 139.757 82.232 139.341 82.232 138.872C82.232 138.392 82.168 137.971 82.04 137.608C81.912 137.235 81.736 136.925 81.512 136.68C81.288 136.424 81.0267 136.237 80.728 136.12C80.4293 135.992 80.104 135.928 79.752 135.928C79.4213 135.928 79.112 135.987 78.824 136.104C78.536 136.221 78.2853 136.403 78.072 136.648C77.8587 136.883 77.688 137.181 77.56 137.544C77.4427 137.896 77.384 138.307 77.384 138.776C77.384 139.245 77.448 139.667 77.576 140.04C77.7147 140.403 77.896 140.717 78.12 140.984C78.344 141.24 78.6053 141.437 78.904 141.576C79.2027 141.715 79.5173 141.784 79.848 141.784ZM86.6461 134.84H88.1501V143H86.6461V134.84ZM86.5661 131.48H88.2621V133.176H86.5661V131.48ZM91.0468 134.84H92.5508V136.008H92.5828C92.8921 135.571 93.2761 135.245 93.7348 135.032C94.2041 134.819 94.7268 134.712 95.3028 134.712C96.2628 134.712 97.0201 135 97.5748 135.576C98.1294 136.141 98.4068 137.016 98.4068 138.2V143H96.9028V138.68C96.9028 138.157 96.8548 137.72 96.7588 137.368C96.6734 137.005 96.5454 136.723 96.3748 136.52C96.2148 136.307 96.0121 136.157 95.7668 136.072C95.5321 135.976 95.2708 135.928 94.9828 135.928C94.2468 135.928 93.6548 136.195 93.2068 136.728C92.7694 137.251 92.5508 138.061 92.5508 139.16V143H91.0468V134.84Z" fill="#7B7E86"/>
<rect x="41.5" y="197.5" width="379" height="55" rx="1.5" stroke="#D8D8D8"/>
<path d="M58.488 219.8H62.072C63.4587 219.8 64.4827 220.109 65.144 220.728C65.8053 221.336 66.136 222.205 66.136 223.336C66.136 224.467 65.8053 225.341 65.144 225.96C64.4827 226.568 63.4587 226.872 62.072 226.872H60.056V231H58.488V219.8ZM62.072 225.464C62.8933 225.464 63.496 225.288 63.88 224.936C64.2747 224.573 64.472 224.04 64.472 223.336C64.472 222.632 64.2747 222.104 63.88 221.752C63.496 221.389 62.8933 221.208 62.072 221.208H60.056V225.464H62.072ZM69.7834 231.128C68.93 231.128 68.2527 230.915 67.7514 230.488C67.25 230.051 66.9994 229.448 66.9994 228.68C66.9994 227.784 67.3407 227.101 68.0234 226.632C68.7167 226.152 69.778 225.912 71.2074 225.912H72.7114V225.64C72.7114 225.053 72.5087 224.627 72.1034 224.36C71.698 224.093 71.1594 223.96 70.4874 223.96C70.05 223.96 69.6074 224.013 69.1594 224.12C68.7114 224.216 68.242 224.397 67.7514 224.664V223.256C68.1567 223.075 68.6207 222.941 69.1434 222.856C69.666 222.76 70.178 222.712 70.6794 222.712C71.7994 222.712 72.6687 222.968 73.2874 223.48C73.906 223.981 74.2154 224.797 74.2154 225.928V231H72.6794V229.752H72.6474C72.306 230.253 71.8687 230.611 71.3354 230.824C70.8127 231.027 70.2954 231.128 69.7834 231.128ZM70.1514 229.848C70.5247 229.848 70.866 229.789 71.1754 229.672C71.4954 229.555 71.7674 229.395 71.9914 229.192C72.2154 228.979 72.3914 228.733 72.5194 228.456C72.6474 228.179 72.7114 227.885 72.7114 227.576V227.064H71.2714C70.77 227.064 70.3487 227.101 70.0074 227.176C69.6767 227.251 69.4047 227.357 69.1914 227.496C68.978 227.635 68.8234 227.795 68.7274 227.976C68.642 228.157 68.5994 228.36 68.5994 228.584C68.5994 228.989 68.738 229.304 69.0154 229.528C69.2927 229.741 69.6714 229.848 70.1514 229.848ZM78.6733 231.128C78.1293 231.128 77.6599 231.085 77.2653 231C76.8813 230.904 76.5399 230.797 76.2413 230.68V229.352C76.7853 229.597 77.2546 229.752 77.6493 229.816C78.0546 229.869 78.3479 229.896 78.5293 229.896C79.1479 229.896 79.5959 229.789 79.8733 229.576C80.1506 229.352 80.2893 229.101 80.2893 228.824C80.2893 228.653 80.2413 228.509 80.1453 228.392C80.0599 228.264 79.9426 228.147 79.7933 228.04C79.6439 227.933 79.4679 227.837 79.2653 227.752C79.0626 227.656 78.8493 227.56 78.6253 227.464C78.3159 227.325 78.0119 227.187 77.7133 227.048C77.4253 226.899 77.1693 226.733 76.9453 226.552C76.7213 226.36 76.5399 226.136 76.4013 225.88C76.2626 225.624 76.1933 225.315 76.1933 224.952C76.1933 224.28 76.4599 223.741 76.9933 223.336C77.5373 222.92 78.3266 222.712 79.3613 222.712C79.8946 222.712 80.3639 222.755 80.7693 222.84C81.1746 222.925 81.4359 222.989 81.5533 223.032V224.312C81.2439 224.184 80.9133 224.093 80.5613 224.04C80.2199 223.987 79.8786 223.96 79.5373 223.96C78.9293 223.96 78.4919 224.045 78.2253 224.216C77.9586 224.376 77.8253 224.595 77.8253 224.872C77.8253 225.032 77.8679 225.176 77.9533 225.304C78.0386 225.421 78.1506 225.533 78.2893 225.64C78.4386 225.736 78.6093 225.832 78.8013 225.928C78.9933 226.013 79.1959 226.104 79.4093 226.2C79.6973 226.328 79.9906 226.461 80.2893 226.6C80.5986 226.728 80.8759 226.888 81.1213 227.08C81.3773 227.272 81.5799 227.501 81.7293 227.768C81.8893 228.035 81.9693 228.365 81.9693 228.76C81.9693 229.464 81.6813 230.035 81.1053 230.472C80.5399 230.909 79.7293 231.128 78.6733 231.128ZM86.1889 231.128C85.6449 231.128 85.1755 231.085 84.7809 231C84.3969 230.904 84.0555 230.797 83.7569 230.68V229.352C84.3009 229.597 84.7702 229.752 85.1649 229.816C85.5702 229.869 85.8635 229.896 86.0449 229.896C86.6635 229.896 87.1115 229.789 87.3889 229.576C87.6662 229.352 87.8049 229.101 87.8049 228.824C87.8049 228.653 87.7569 228.509 87.6609 228.392C87.5755 228.264 87.4582 228.147 87.3089 228.04C87.1595 227.933 86.9835 227.837 86.7809 227.752C86.5782 227.656 86.3649 227.56 86.1409 227.464C85.8315 227.325 85.5275 227.187 85.2289 227.048C84.9409 226.899 84.6849 226.733 84.4609 226.552C84.2369 226.36 84.0555 226.136 83.9169 225.88C83.7782 225.624 83.7089 225.315 83.7089 224.952C83.7089 224.28 83.9755 223.741 84.5089 223.336C85.0529 222.92 85.8422 222.712 86.8769 222.712C87.4102 222.712 87.8795 222.755 88.2849 222.84C88.6902 222.925 88.9515 222.989 89.0689 223.032V224.312C88.7595 224.184 88.4289 224.093 88.0769 224.04C87.7355 223.987 87.3942 223.96 87.0529 223.96C86.4449 223.96 86.0075 224.045 85.7409 224.216C85.4742 224.376 85.3409 224.595 85.3409 224.872C85.3409 225.032 85.3835 225.176 85.4689 225.304C85.5542 225.421 85.6662 225.533 85.8049 225.64C85.9542 225.736 86.1249 225.832 86.3169 225.928C86.5089 226.013 86.7115 226.104 86.9249 226.2C87.2129 226.328 87.5062 226.461 87.8049 226.6C88.1142 226.728 88.3915 226.888 88.6369 227.08C88.8929 227.272 89.0955 227.501 89.2449 227.768C89.4049 228.035 89.4849 228.365 89.4849 228.76C89.4849 229.464 89.1969 230.035 88.6209 230.472C88.0555 230.909 87.2449 231.128 86.1889 231.128ZM90.4904 222.84H92.1384L93.9624 229.336L96.0584 222.84H97.3384L99.4184 229.368L101.386 222.84H102.858L100.218 231H98.6344L96.6184 224.824L94.6984 231H93.1144L90.4904 222.84ZM107.913 231.128C107.294 231.128 106.729 231.027 106.217 230.824C105.705 230.621 105.262 230.333 104.889 229.96C104.526 229.587 104.244 229.144 104.041 228.632C103.838 228.12 103.737 227.549 103.737 226.92C103.737 226.301 103.838 225.736 104.041 225.224C104.244 224.701 104.526 224.253 104.889 223.88C105.262 223.507 105.705 223.219 106.217 223.016C106.729 222.813 107.294 222.712 107.913 222.712C108.532 222.712 109.097 222.813 109.609 223.016C110.121 223.219 110.558 223.507 110.921 223.88C111.294 224.253 111.582 224.701 111.785 225.224C111.988 225.736 112.089 226.301 112.089 226.92C112.089 227.549 111.988 228.12 111.785 228.632C111.582 229.144 111.294 229.587 110.921 229.96C110.558 230.333 110.121 230.621 109.609 230.824C109.097 231.027 108.532 231.128 107.913 231.128ZM107.913 229.912C108.265 229.912 108.596 229.843 108.905 229.704C109.225 229.565 109.497 229.368 109.721 229.112C109.956 228.845 110.142 228.531 110.281 228.168C110.42 227.795 110.489 227.379 110.489 226.92C110.489 226.461 110.42 226.051 110.281 225.688C110.142 225.315 109.956 225 109.721 224.744C109.486 224.477 109.214 224.275 108.905 224.136C108.596 223.997 108.265 223.928 107.913 223.928C107.561 223.928 107.225 223.997 106.905 224.136C106.596 224.275 106.324 224.477 106.089 224.744C105.865 225 105.684 225.315 105.545 225.688C105.406 226.051 105.337 226.461 105.337 226.92C105.337 227.379 105.406 227.795 105.545 228.168C105.684 228.531 105.865 228.845 106.089 229.112C106.324 229.368 106.596 229.565 106.905 229.704C107.225 229.843 107.561 229.912 107.913 229.912ZM114.203 222.84H115.611V224.168H115.643C115.91 223.645 116.23 223.272 116.603 223.048C116.987 222.824 117.446 222.712 117.979 222.712C118.128 222.712 118.278 222.723 118.427 222.744C118.587 222.755 118.752 222.771 118.923 222.792V224.104C118.763 224.083 118.608 224.067 118.459 224.056C118.31 224.035 118.166 224.024 118.027 224.024C117.206 224.024 116.614 224.307 116.251 224.872C115.888 225.437 115.707 226.264 115.707 227.352V231H114.203V222.84ZM123.779 231.128C123.203 231.128 122.68 231.021 122.211 230.808C121.742 230.595 121.342 230.296 121.011 229.912C120.68 229.528 120.424 229.075 120.243 228.552C120.072 228.019 119.987 227.443 119.987 226.824C119.987 226.237 120.078 225.693 120.259 225.192C120.44 224.691 120.696 224.259 121.027 223.896C121.358 223.523 121.752 223.235 122.211 223.032C122.68 222.819 123.192 222.712 123.747 222.712C124.366 222.712 124.888 222.829 125.315 223.064C125.752 223.299 126.12 223.587 126.419 223.928H126.451V218.84H127.955V231H126.515V229.848H126.419C126.11 230.243 125.742 230.557 125.315 230.792C124.899 231.016 124.387 231.128 123.779 231.128ZM124.035 229.912C124.387 229.912 124.712 229.837 125.011 229.688C125.31 229.539 125.566 229.336 125.779 229.08C125.992 228.813 126.158 228.499 126.275 228.136C126.392 227.773 126.451 227.373 126.451 226.936C126.451 226.499 126.387 226.099 126.259 225.736C126.142 225.363 125.976 225.043 125.763 224.776C125.55 224.509 125.294 224.301 124.995 224.152C124.696 224.003 124.366 223.928 124.003 223.928C123.662 223.928 123.342 224.003 123.043 224.152C122.744 224.301 122.488 224.509 122.275 224.776C122.062 225.032 121.891 225.341 121.763 225.704C121.646 226.067 121.587 226.461 121.587 226.888C121.587 227.325 121.646 227.731 121.763 228.104C121.891 228.467 122.062 228.787 122.275 229.064C122.499 229.331 122.76 229.539 123.059 229.688C123.358 229.837 123.683 229.912 124.035 229.912Z" fill="#7B7E86"/>
<path d="M392.305 222.081C392.681 221.992 392.999 222.313 392.999 222.7V223.7C392.999 224.418 393.581 225 394.299 225H395.299C395.686 225 396.007 225.318 395.918 225.694C395.605 227.016 394.417 228 392.999 228C391.342 228 389.999 226.657 389.999 225C389.999 223.582 390.983 222.394 392.305 222.081Z" fill="#B1B5BB"/>
<path fill-rule="evenodd" clip-rule="evenodd" d="M392.999 218C388.118 218 384.865 221.655 383.436 223.683C382.873 224.481 382.873 225.519 383.436 226.317C384.865 228.345 388.118 232 392.999 232C397.88 232 401.133 228.345 402.562 226.317C403.125 225.519 403.125 224.481 402.562 223.683C401.133 221.655 397.88 218 392.999 218ZM386.708 221.927C385.761 222.778 385.02 223.691 384.498 224.431C384.252 224.781 384.252 225.219 384.498 225.569C385.02 226.309 385.761 227.222 386.708 228.073C386.254 227.145 385.999 226.102 385.999 225C385.999 223.898 386.254 222.855 386.708 221.927ZM392.999 230.7C389.851 230.7 387.299 228.148 387.299 225C387.299 221.852 389.851 219.3 392.999 219.3C396.147 219.3 398.699 221.852 398.699 225C398.699 228.148 396.147 230.7 392.999 230.7ZM399.29 221.927C400.237 222.778 400.978 223.691 401.5 224.431C401.746 224.781 401.746 225.219 401.5 225.569C400.978 226.309 400.237 227.222 399.29 228.073C399.744 227.145 399.999 226.102 399.999 225C399.999 223.898 399.744 222.855 399.29 221.927Z" fill="#B1B5BB"/>
<path d="M44.234 281.432H41.238V280.2H48.602V281.432H45.606V290H44.234V281.432ZM52.5451 290.112C52.0037 290.112 51.5091 290.023 51.0611 289.846C50.6131 289.669 50.2257 289.417 49.8991 289.09C49.5817 288.763 49.3344 288.376 49.1571 287.928C48.9797 287.48 48.8911 286.981 48.8911 286.43C48.8911 285.889 48.9797 285.394 49.1571 284.946C49.3344 284.489 49.5817 284.097 49.8991 283.77C50.2257 283.443 50.6131 283.191 51.0611 283.014C51.5091 282.837 52.0037 282.748 52.5451 282.748C53.0864 282.748 53.5811 282.837 54.0291 283.014C54.4771 283.191 54.8597 283.443 55.1771 283.77C55.5037 284.097 55.7557 284.489 55.9331 284.946C56.1104 285.394 56.1991 285.889 56.1991 286.43C56.1991 286.981 56.1104 287.48 55.9331 287.928C55.7557 288.376 55.5037 288.763 55.1771 289.09C54.8597 289.417 54.4771 289.669 54.0291 289.846C53.5811 290.023 53.0864 290.112 52.5451 290.112ZM52.5451 289.048C52.8531 289.048 53.1424 288.987 53.4131 288.866C53.6931 288.745 53.9311 288.572 54.1271 288.348C54.3324 288.115 54.4957 287.839 54.6171 287.522C54.7384 287.195 54.7991 286.831 54.7991 286.43C54.7991 286.029 54.7384 285.669 54.6171 285.352C54.4957 285.025 54.3324 284.75 54.1271 284.526C53.9217 284.293 53.6837 284.115 53.4131 283.994C53.1424 283.873 52.8531 283.812 52.5451 283.812C52.2371 283.812 51.9431 283.873 51.6631 283.994C51.3924 284.115 51.1544 284.293 50.9491 284.526C50.7531 284.75 50.5944 285.025 50.4731 285.352C50.3517 285.669 50.2911 286.029 50.2911 286.43C50.2911 286.831 50.3517 287.195 50.4731 287.522C50.5944 287.839 50.7531 288.115 50.9491 288.348C51.1544 288.572 51.3924 288.745 51.6631 288.866C51.9431 288.987 52.2371 289.048 52.5451 289.048ZM58.0487 279.36H59.3647V286.192L62.8227 282.86H64.4607L61.2827 285.828L64.5027 290H62.8927L60.3587 286.64L59.3647 287.578V290H58.0487V279.36ZM66.5596 286.724C66.6343 287.461 66.8863 288.031 67.3156 288.432C67.745 288.824 68.3236 289.02 69.0516 289.02C69.481 289.02 69.901 288.969 70.3116 288.866C70.7316 288.754 71.077 288.619 71.3476 288.46V289.748C71.1236 289.823 70.8156 289.902 70.4236 289.986C70.0316 290.07 69.5463 290.112 68.9676 290.112C67.7543 290.112 66.821 289.776 66.1676 289.104C65.5236 288.432 65.2016 287.499 65.2016 286.304C65.2016 285.763 65.2856 285.273 65.4536 284.834C65.631 284.395 65.869 284.022 66.1676 283.714C66.4756 283.406 66.835 283.168 67.2456 283C67.6563 282.832 68.0996 282.748 68.5756 282.748C69.593 282.748 70.391 283.047 70.9696 283.644C71.5483 284.241 71.8376 285.147 71.8376 286.36V286.724H66.5596ZM68.5616 283.812C68.011 283.812 67.5583 283.989 67.2036 284.344C66.8583 284.689 66.6436 285.156 66.5596 285.744H70.4376C70.4376 285.128 70.2603 284.652 69.9056 284.316C69.551 283.98 69.103 283.812 68.5616 283.812ZM73.7304 282.86H75.0464V283.882H75.0744C75.345 283.499 75.681 283.215 76.0824 283.028C76.493 282.841 76.9504 282.748 77.4544 282.748C78.2944 282.748 78.957 283 79.4424 283.504C79.9277 283.999 80.1704 284.764 80.1704 285.8V290H78.8544V286.22C78.8544 285.763 78.8124 285.38 78.7284 285.072C78.6537 284.755 78.5417 284.507 78.3924 284.33C78.2524 284.143 78.075 284.013 77.8604 283.938C77.655 283.854 77.4264 283.812 77.1744 283.812C76.5304 283.812 76.0124 284.045 75.6204 284.512C75.2377 284.969 75.0464 285.679 75.0464 286.64V290H73.7304V282.86Z" fill="#22242A"/>
<rect x="90" y="277" width="28" height="16" rx="8" fill="#0062FF"/>
<circle cx="110" cy="285" r="6" fill="white"/>
<g filter="url(#filter0_i_632_16520)">
<rect width="380" height="48" transform="translate(41 305)" fill="#FFEFEF"/>
<path fill-rule="evenodd" clip-rule="evenodd" d="M62.1626 338H75.8387C78.1405 338 79.5848 335.515 78.4453 333.515L71.6073 321.513C70.4565 319.493 67.5448 319.493 66.394 321.513L59.556 333.515C58.4165 335.515 59.8609 338 62.1626 338ZM69.6505 331.127C69.6505 331.486 69.3595 331.777 69.0005 331.777C68.6415 331.777 68.3505 331.486 68.3505 331.127V325.981C68.3505 325.622 68.6415 325.331 69.0005 325.331C69.3595 325.331 69.6505 325.622 69.6505 325.981V331.127ZM69.7505 333.881C69.7505 334.295 69.4147 334.631 69.0005 334.631C68.5863 334.631 68.2505 334.295 68.2505 333.881C68.2505 333.467 68.5863 333.131 69.0005 333.131C69.4147 333.131 69.7505 333.467 69.7505 333.881Z" fill="#D92020"/>
<path d="M94.484 324.2H95.856V334H94.484V324.2ZM98.3593 326.86H99.6753V327.882H99.7033C99.9739 327.499 100.31 327.215 100.711 327.028C101.122 326.841 101.579 326.748 102.083 326.748C102.923 326.748 103.586 327 104.071 327.504C104.557 327.999 104.799 328.764 104.799 329.8V334H103.483V330.22C103.483 329.763 103.441 329.38 103.357 329.072C103.283 328.755 103.171 328.507 103.021 328.33C102.881 328.143 102.704 328.013 102.489 327.938C102.284 327.854 102.055 327.812 101.803 327.812C101.159 327.812 100.641 328.045 100.249 328.512C99.8666 328.969 99.6753 329.679 99.6753 330.64V334H98.3593V326.86ZM108.71 334.112C108.234 334.112 107.824 334.075 107.478 334C107.142 333.916 106.844 333.823 106.582 333.72V332.558C107.058 332.773 107.469 332.908 107.814 332.964C108.169 333.011 108.426 333.034 108.584 333.034C109.126 333.034 109.518 332.941 109.76 332.754C110.003 332.558 110.124 332.339 110.124 332.096C110.124 331.947 110.082 331.821 109.998 331.718C109.924 331.606 109.821 331.503 109.69 331.41C109.56 331.317 109.406 331.233 109.228 331.158C109.051 331.074 108.864 330.99 108.668 330.906C108.398 330.785 108.132 330.663 107.87 330.542C107.618 330.411 107.394 330.267 107.198 330.108C107.002 329.94 106.844 329.744 106.722 329.52C106.601 329.296 106.54 329.025 106.54 328.708C106.54 328.12 106.774 327.649 107.24 327.294C107.716 326.93 108.407 326.748 109.312 326.748C109.779 326.748 110.19 326.785 110.544 326.86C110.899 326.935 111.128 326.991 111.23 327.028V328.148C110.96 328.036 110.67 327.957 110.362 327.91C110.064 327.863 109.765 327.84 109.466 327.84C108.934 327.84 108.552 327.915 108.318 328.064C108.085 328.204 107.968 328.395 107.968 328.638C107.968 328.778 108.006 328.904 108.08 329.016C108.155 329.119 108.253 329.217 108.374 329.31C108.505 329.394 108.654 329.478 108.822 329.562C108.99 329.637 109.168 329.716 109.354 329.8C109.606 329.912 109.863 330.029 110.124 330.15C110.395 330.262 110.638 330.402 110.852 330.57C111.076 330.738 111.254 330.939 111.384 331.172C111.524 331.405 111.594 331.695 111.594 332.04C111.594 332.656 111.342 333.155 110.838 333.538C110.344 333.921 109.634 334.112 108.71 334.112ZM117.064 327.924H115.3V331.774C115.3 332.203 115.408 332.502 115.622 332.67C115.846 332.829 116.108 332.908 116.406 332.908C116.63 332.908 116.868 332.871 117.12 332.796V333.986C116.943 334.033 116.775 334.065 116.616 334.084C116.458 334.103 116.313 334.112 116.182 334.112C115.473 334.112 114.932 333.921 114.558 333.538C114.185 333.146 113.998 332.6 113.998 331.9V327.924H112.696V326.86H113.998V325.082L115.3 324.606V326.86H117.064V327.924ZM120.633 334.112C119.886 334.112 119.293 333.925 118.855 333.552C118.416 333.169 118.197 332.642 118.197 331.97C118.197 331.186 118.495 330.589 119.093 330.178C119.699 329.758 120.628 329.548 121.879 329.548H123.195V329.31C123.195 328.797 123.017 328.423 122.663 328.19C122.308 327.957 121.837 327.84 121.249 327.84C120.866 327.84 120.479 327.887 120.087 327.98C119.695 328.064 119.284 328.223 118.855 328.456V327.224C119.209 327.065 119.615 326.949 120.073 326.874C120.53 326.79 120.978 326.748 121.417 326.748C122.397 326.748 123.157 326.972 123.699 327.42C124.24 327.859 124.511 328.573 124.511 329.562V334H123.167V332.908H123.139C122.84 333.347 122.457 333.659 121.991 333.846C121.533 334.023 121.081 334.112 120.633 334.112ZM120.955 332.992C121.281 332.992 121.58 332.941 121.851 332.838C122.131 332.735 122.369 332.595 122.565 332.418C122.761 332.231 122.915 332.017 123.027 331.774C123.139 331.531 123.195 331.275 123.195 331.004V330.556H121.935C121.496 330.556 121.127 330.589 120.829 330.654C120.539 330.719 120.301 330.813 120.115 330.934C119.928 331.055 119.793 331.195 119.709 331.354C119.634 331.513 119.597 331.69 119.597 331.886C119.597 332.241 119.718 332.516 119.961 332.712C120.203 332.899 120.535 332.992 120.955 332.992ZM126.815 323.332H128.131V334H126.815V323.332ZM130.876 323.332H132.192V334H130.876V323.332ZM139.255 333.062V337.136H137.939V326.86H139.199V327.882H139.227C139.414 327.63 139.614 327.429 139.829 327.28C140.053 327.131 140.272 327.019 140.487 326.944C140.702 326.86 140.907 326.809 141.103 326.79C141.299 326.762 141.467 326.748 141.607 326.748C142.13 326.748 142.596 326.841 143.007 327.028C143.418 327.205 143.763 327.457 144.043 327.784C144.323 328.111 144.538 328.498 144.687 328.946C144.836 329.385 144.911 329.861 144.911 330.374C144.911 330.878 144.836 331.359 144.687 331.816C144.547 332.264 144.337 332.661 144.057 333.006C143.777 333.342 143.436 333.613 143.035 333.818C142.634 334.014 142.181 334.112 141.677 334.112C141.098 334.112 140.608 334.005 140.207 333.79C139.815 333.566 139.516 333.323 139.311 333.062H139.255ZM141.369 333.048C142.022 333.048 142.54 332.805 142.923 332.32C143.315 331.825 143.511 331.163 143.511 330.332C143.511 329.567 143.32 328.955 142.937 328.498C142.564 328.041 142.055 327.812 141.411 327.812C140.748 327.812 140.221 328.05 139.829 328.526C139.446 329.002 139.255 329.641 139.255 330.444C139.255 331.237 139.446 331.872 139.829 332.348C140.212 332.815 140.725 333.048 141.369 333.048ZM146.981 323.332H148.297V334H146.981V323.332ZM157.048 334H155.732V332.978H155.704C155.433 333.361 155.093 333.645 154.682 333.832C154.281 334.019 153.828 334.112 153.324 334.112C152.484 334.112 151.821 333.865 151.336 333.37C150.851 332.866 150.608 332.096 150.608 331.06V326.86H151.924V330.64C151.924 331.107 151.961 331.494 152.036 331.802C152.12 332.11 152.232 332.357 152.372 332.544C152.521 332.721 152.699 332.852 152.904 332.936C153.119 333.011 153.352 333.048 153.604 333.048C154.248 333.048 154.761 332.819 155.144 332.362C155.536 331.895 155.732 331.181 155.732 330.22V326.86H157.048V334ZM162.079 337.192C161.706 337.192 161.36 337.169 161.043 337.122C160.726 337.075 160.446 337.019 160.203 336.954C159.923 336.889 159.666 336.809 159.433 336.716V335.456C159.666 335.577 159.923 335.689 160.203 335.792C160.446 335.876 160.726 335.951 161.043 336.016C161.36 336.091 161.706 336.128 162.079 336.128C163.731 336.128 164.557 335.297 164.557 333.636V332.894H164.515C164.282 333.239 163.955 333.51 163.535 333.706C163.124 333.902 162.672 334 162.177 334C161.71 334 161.276 333.916 160.875 333.748C160.483 333.58 160.138 333.342 159.839 333.034C159.55 332.717 159.321 332.339 159.153 331.9C158.985 331.452 158.901 330.948 158.901 330.388C158.901 329.809 158.99 329.296 159.167 328.848C159.344 328.391 159.582 328.008 159.881 327.7C160.189 327.392 160.548 327.159 160.959 327C161.37 326.832 161.808 326.748 162.275 326.748C162.816 326.748 163.274 326.86 163.647 327.084C164.02 327.308 164.338 327.574 164.599 327.882H164.641V326.86H165.873V333.636C165.873 334.831 165.565 335.722 164.949 336.31C164.342 336.898 163.386 337.192 162.079 337.192ZM162.457 332.936C162.746 332.936 163.017 332.88 163.269 332.768C163.53 332.656 163.754 332.493 163.941 332.278C164.128 332.054 164.272 331.788 164.375 331.48C164.487 331.163 164.543 330.799 164.543 330.388C164.543 329.968 164.487 329.599 164.375 329.282C164.263 328.955 164.109 328.685 163.913 328.47C163.717 328.246 163.488 328.083 163.227 327.98C162.966 327.868 162.681 327.812 162.373 327.812C162.084 327.812 161.813 327.863 161.561 327.966C161.309 328.069 161.09 328.227 160.903 328.442C160.716 328.647 160.567 328.909 160.455 329.226C160.352 329.534 160.301 329.893 160.301 330.304C160.301 330.715 160.357 331.083 160.469 331.41C160.59 331.727 160.749 332.003 160.945 332.236C161.141 332.46 161.37 332.633 161.631 332.754C161.892 332.875 162.168 332.936 162.457 332.936ZM168.405 326.86H169.721V334H168.405V326.86ZM168.335 323.92H169.819V325.404H168.335V323.92ZM172.256 326.86H173.572V327.882H173.6C173.87 327.499 174.206 327.215 174.608 327.028C175.018 326.841 175.476 326.748 175.98 326.748C176.82 326.748 177.482 327 177.968 327.504C178.453 327.999 178.696 328.764 178.696 329.8V334H177.38V330.22C177.38 329.763 177.338 329.38 177.254 329.072C177.179 328.755 177.067 328.507 176.918 328.33C176.778 328.143 176.6 328.013 176.386 327.938C176.18 327.854 175.952 327.812 175.7 327.812C175.056 327.812 174.538 328.045 174.146 328.512C173.763 328.969 173.572 329.679 173.572 330.64V334H172.256V326.86ZM187.611 327.924H185.847V331.774C185.847 332.203 185.955 332.502 186.169 332.67C186.393 332.829 186.655 332.908 186.953 332.908C187.177 332.908 187.415 332.871 187.667 332.796V333.986C187.49 334.033 187.322 334.065 187.163 334.084C187.005 334.103 186.86 334.112 186.729 334.112C186.02 334.112 185.479 333.921 185.105 333.538C184.732 333.146 184.545 332.6 184.545 331.9V327.924H183.243V326.86H184.545V325.082L185.847 324.606V326.86H187.611V327.924ZM192.455 334.112C191.914 334.112 191.419 334.023 190.971 333.846C190.523 333.669 190.136 333.417 189.809 333.09C189.492 332.763 189.245 332.376 189.067 331.928C188.89 331.48 188.801 330.981 188.801 330.43C188.801 329.889 188.89 329.394 189.067 328.946C189.245 328.489 189.492 328.097 189.809 327.77C190.136 327.443 190.523 327.191 190.971 327.014C191.419 326.837 191.914 326.748 192.455 326.748C192.997 326.748 193.491 326.837 193.939 327.014C194.387 327.191 194.77 327.443 195.087 327.77C195.414 328.097 195.666 328.489 195.843 328.946C196.021 329.394 196.109 329.889 196.109 330.43C196.109 330.981 196.021 331.48 195.843 331.928C195.666 332.376 195.414 332.763 195.087 333.09C194.77 333.417 194.387 333.669 193.939 333.846C193.491 334.023 192.997 334.112 192.455 334.112ZM192.455 333.048C192.763 333.048 193.053 332.987 193.323 332.866C193.603 332.745 193.841 332.572 194.037 332.348C194.243 332.115 194.406 331.839 194.527 331.522C194.649 331.195 194.709 330.831 194.709 330.43C194.709 330.029 194.649 329.669 194.527 329.352C194.406 329.025 194.243 328.75 194.037 328.526C193.832 328.293 193.594 328.115 193.323 327.994C193.053 327.873 192.763 327.812 192.455 327.812C192.147 327.812 191.853 327.873 191.573 327.994C191.303 328.115 191.065 328.293 190.859 328.526C190.663 328.75 190.505 329.025 190.383 329.352C190.262 329.669 190.201 330.029 190.201 330.43C190.201 330.831 190.262 331.195 190.383 331.522C190.505 331.839 190.663 332.115 190.859 332.348C191.065 332.572 191.303 332.745 191.573 332.866C191.853 332.987 192.147 333.048 192.455 333.048ZM202.991 334.112C202.515 334.112 202.105 334.075 201.759 334C201.423 333.916 201.125 333.823 200.863 333.72V332.558C201.339 332.773 201.75 332.908 202.095 332.964C202.45 333.011 202.707 333.034 202.865 333.034C203.407 333.034 203.799 332.941 204.041 332.754C204.284 332.558 204.405 332.339 204.405 332.096C204.405 331.947 204.363 331.821 204.279 331.718C204.205 331.606 204.102 331.503 203.971 331.41C203.841 331.317 203.687 331.233 203.509 331.158C203.332 331.074 203.145 330.99 202.949 330.906C202.679 330.785 202.413 330.663 202.151 330.542C201.899 330.411 201.675 330.267 201.479 330.108C201.283 329.94 201.125 329.744 201.003 329.52C200.882 329.296 200.821 329.025 200.821 328.708C200.821 328.12 201.055 327.649 201.521 327.294C201.997 326.93 202.688 326.748 203.593 326.748C204.06 326.748 204.471 326.785 204.825 326.86C205.18 326.935 205.409 326.991 205.511 327.028V328.148C205.241 328.036 204.951 327.957 204.643 327.91C204.345 327.863 204.046 327.84 203.747 327.84C203.215 327.84 202.833 327.915 202.599 328.064C202.366 328.204 202.249 328.395 202.249 328.638C202.249 328.778 202.287 328.904 202.361 329.016C202.436 329.119 202.534 329.217 202.655 329.31C202.786 329.394 202.935 329.478 203.103 329.562C203.271 329.637 203.449 329.716 203.635 329.8C203.887 329.912 204.144 330.029 204.405 330.15C204.676 330.262 204.919 330.402 205.133 330.57C205.357 330.738 205.535 330.939 205.665 331.172C205.805 331.405 205.875 331.695 205.875 332.04C205.875 332.656 205.623 333.155 205.119 333.538C204.625 333.921 203.915 334.112 202.991 334.112ZM207.835 326.86H209.151V334H207.835V326.86ZM207.765 323.92H209.249V325.404H207.765V323.92ZM214.387 337.192C214.014 337.192 213.669 337.169 213.351 337.122C213.034 337.075 212.754 337.019 212.511 336.954C212.231 336.889 211.975 336.809 211.741 336.716V335.456C211.975 335.577 212.231 335.689 212.511 335.792C212.754 335.876 213.034 335.951 213.351 336.016C213.669 336.091 214.014 336.128 214.387 336.128C216.039 336.128 216.865 335.297 216.865 333.636V332.894H216.823C216.59 333.239 216.263 333.51 215.843 333.706C215.433 333.902 214.98 334 214.485 334C214.019 334 213.585 333.916 213.183 333.748C212.791 333.58 212.446 333.342 212.147 333.034C211.858 332.717 211.629 332.339 211.461 331.9C211.293 331.452 211.209 330.948 211.209 330.388C211.209 329.809 211.298 329.296 211.475 328.848C211.653 328.391 211.891 328.008 212.189 327.7C212.497 327.392 212.857 327.159 213.267 327C213.678 326.832 214.117 326.748 214.583 326.748C215.125 326.748 215.582 326.86 215.955 327.084C216.329 327.308 216.646 327.574 216.907 327.882H216.949V326.86H218.181V333.636C218.181 334.831 217.873 335.722 217.257 336.31C216.651 336.898 215.694 337.192 214.387 337.192ZM214.765 332.936C215.055 332.936 215.325 332.88 215.577 332.768C215.839 332.656 216.063 332.493 216.249 332.278C216.436 332.054 216.581 331.788 216.683 331.48C216.795 331.163 216.851 330.799 216.851 330.388C216.851 329.968 216.795 329.599 216.683 329.282C216.571 328.955 216.417 328.685 216.221 328.47C216.025 328.246 215.797 328.083 215.535 327.98C215.274 327.868 214.989 327.812 214.681 327.812C214.392 327.812 214.121 327.863 213.869 327.966C213.617 328.069 213.398 328.227 213.211 328.442C213.025 328.647 212.875 328.909 212.763 329.226C212.661 329.534 212.609 329.893 212.609 330.304C212.609 330.715 212.665 331.083 212.777 331.41C212.899 331.727 213.057 332.003 213.253 332.236C213.449 332.46 213.678 332.633 213.939 332.754C214.201 332.875 214.476 332.936 214.765 332.936ZM220.504 326.86H221.82V327.882H221.848C222.118 327.499 222.454 327.215 222.856 327.028C223.266 326.841 223.724 326.748 224.228 326.748C225.068 326.748 225.73 327 226.216 327.504C226.701 327.999 226.944 328.764 226.944 329.8V334H225.628V330.22C225.628 329.763 225.586 329.38 225.502 329.072C225.427 328.755 225.315 328.507 225.166 328.33C225.026 328.143 224.848 328.013 224.634 327.938C224.428 327.854 224.2 327.812 223.948 327.812C223.304 327.812 222.786 328.045 222.394 328.512C222.011 328.969 221.82 329.679 221.82 330.64V334H220.504V326.86ZM232.485 326.86H233.801V334H232.485V326.86ZM232.415 323.92H233.899V325.404H232.415V323.92ZM236.336 326.86H237.652V327.882H237.68C237.95 327.499 238.286 327.215 238.688 327.028C239.098 326.841 239.556 326.748 240.06 326.748C240.9 326.748 241.562 327 242.048 327.504C242.533 327.999 242.776 328.764 242.776 329.8V334H241.46V330.22C241.46 329.763 241.418 329.38 241.334 329.072C241.259 328.755 241.147 328.507 240.998 328.33C240.858 328.143 240.68 328.013 240.466 327.938C240.26 327.854 240.032 327.812 239.78 327.812C239.136 327.812 238.618 328.045 238.226 328.512C237.843 328.969 237.652 329.679 237.652 330.64V334H236.336V326.86ZM247.169 326.86H248.611L250.207 332.544L252.041 326.86H253.161L254.981 332.572L256.703 326.86H257.991L255.681 334H254.295L252.531 328.596L250.851 334H249.465L247.169 326.86ZM259.583 326.86H260.899V334H259.583V326.86ZM259.513 323.92H260.997V325.404H259.513V323.92ZM267.017 327.924H265.253V331.774C265.253 332.203 265.361 332.502 265.575 332.67C265.799 332.829 266.061 332.908 266.359 332.908C266.583 332.908 266.821 332.871 267.073 332.796V333.986C266.896 334.033 266.728 334.065 266.569 334.084C266.411 334.103 266.266 334.112 266.135 334.112C265.426 334.112 264.885 333.921 264.511 333.538C264.138 333.146 263.951 332.6 263.951 331.9V327.924H262.649V326.86H263.951V325.082L265.253 324.606V326.86H267.017V327.924ZM268.752 323.36H270.068V326.86L270.054 327.882H270.096C270.367 327.499 270.703 327.215 271.104 327.028C271.505 326.841 271.963 326.748 272.476 326.748C273.316 326.748 273.979 327 274.464 327.504C274.949 327.999 275.192 328.764 275.192 329.8V334H273.876V330.22C273.876 329.763 273.834 329.38 273.75 329.072C273.675 328.755 273.563 328.507 273.414 328.33C273.274 328.143 273.097 328.013 272.882 327.938C272.677 327.854 272.448 327.812 272.196 327.812C271.552 327.812 271.034 328.045 270.642 328.512C270.259 328.969 270.068 329.679 270.068 330.64V334H268.752V323.36ZM284.107 327.924H282.343V331.774C282.343 332.203 282.451 332.502 282.665 332.67C282.889 332.829 283.151 332.908 283.449 332.908C283.673 332.908 283.911 332.871 284.163 332.796V333.986C283.986 334.033 283.818 334.065 283.659 334.084C283.501 334.103 283.356 334.112 283.225 334.112C282.516 334.112 281.975 333.921 281.601 333.538C281.228 333.146 281.041 332.6 281.041 331.9V327.924H279.739V326.86H281.041V325.082L282.343 324.606V326.86H284.107V327.924ZM288.951 334.112C288.41 334.112 287.915 334.023 287.467 333.846C287.019 333.669 286.632 333.417 286.305 333.09C285.988 332.763 285.741 332.376 285.563 331.928C285.386 331.48 285.297 330.981 285.297 330.43C285.297 329.889 285.386 329.394 285.563 328.946C285.741 328.489 285.988 328.097 286.305 327.77C286.632 327.443 287.019 327.191 287.467 327.014C287.915 326.837 288.41 326.748 288.951 326.748C289.493 326.748 289.987 326.837 290.435 327.014C290.883 327.191 291.266 327.443 291.583 327.77C291.91 328.097 292.162 328.489 292.339 328.946C292.517 329.394 292.605 329.889 292.605 330.43C292.605 330.981 292.517 331.48 292.339 331.928C292.162 332.376 291.91 332.763 291.583 333.09C291.266 333.417 290.883 333.669 290.435 333.846C289.987 334.023 289.493 334.112 288.951 334.112ZM288.951 333.048C289.259 333.048 289.549 332.987 289.819 332.866C290.099 332.745 290.337 332.572 290.533 332.348C290.739 332.115 290.902 331.839 291.023 331.522C291.145 331.195 291.205 330.831 291.205 330.43C291.205 330.029 291.145 329.669 291.023 329.352C290.902 329.025 290.739 328.75 290.533 328.526C290.328 328.293 290.09 328.115 289.819 327.994C289.549 327.873 289.259 327.812 288.951 327.812C288.643 327.812 288.349 327.873 288.069 327.994C287.799 328.115 287.561 328.293 287.355 328.526C287.159 328.75 287.001 329.025 286.879 329.352C286.758 329.669 286.697 330.029 286.697 330.43C286.697 330.831 286.758 331.195 286.879 331.522C287.001 331.839 287.159 332.115 287.355 332.348C287.561 332.572 287.799 332.745 288.069 332.866C288.349 332.987 288.643 333.048 288.951 333.048ZM294.455 323.36H295.771V330.192L299.229 326.86H300.867L297.689 329.828L300.909 334H299.299L296.765 330.64L295.771 331.578V334H294.455V323.36ZM302.966 330.724C303.041 331.461 303.293 332.031 303.722 332.432C304.151 332.824 304.73 333.02 305.458 333.02C305.887 333.02 306.307 332.969 306.718 332.866C307.138 332.754 307.483 332.619 307.754 332.46V333.748C307.53 333.823 307.222 333.902 306.83 333.986C306.438 334.07 305.953 334.112 305.374 334.112C304.161 334.112 303.227 333.776 302.574 333.104C301.93 332.432 301.608 331.499 301.608 330.304C301.608 329.763 301.692 329.273 301.86 328.834C302.037 328.395 302.275 328.022 302.574 327.714C302.882 327.406 303.241 327.168 303.652 327C304.063 326.832 304.506 326.748 304.982 326.748C305.999 326.748 306.797 327.047 307.376 327.644C307.955 328.241 308.244 329.147 308.244 330.36V330.724H302.966ZM304.968 327.812C304.417 327.812 303.965 327.989 303.61 328.344C303.265 328.689 303.05 329.156 302.966 329.744H306.844C306.844 329.128 306.667 328.652 306.312 328.316C305.957 327.98 305.509 327.812 304.968 327.812ZM310.137 326.86H311.453V327.882H311.481C311.751 327.499 312.087 327.215 312.489 327.028C312.899 326.841 313.357 326.748 313.861 326.748C314.701 326.748 315.363 327 315.849 327.504C316.334 327.999 316.577 328.764 316.577 329.8V334H315.261V330.22C315.261 329.763 315.219 329.38 315.135 329.072C315.06 328.755 314.948 328.507 314.799 328.33C314.659 328.143 314.481 328.013 314.267 327.938C314.061 327.854 313.833 327.812 313.581 327.812C312.937 327.812 312.419 328.045 312.027 328.512C311.644 328.969 311.453 329.679 311.453 330.64V334H310.137V326.86Z" fill="#22242A"/>
</g>
<g clip-path="url(#clip0_632_16520)">
<path d="M46.1823 378.377C46.1823 378.227 46.2406 378.085 46.3573 377.977C46.5823 377.777 46.924 377.793 47.124 378.01L50.4591 381.199L50.4591 372.875C50.4591 372.576 50.7016 372.333 51.0008 372.333C51.2999 372.333 51.5424 372.576 51.5424 372.875V381.146L54.5823 377.943C54.7823 377.718 55.1239 377.71 55.3489 377.91C55.5656 378.11 55.5823 378.452 55.3823 378.677L51.4341 382.858C51.2007 383.117 50.8007 383.117 50.5674 382.858L46.324 378.743C46.224 378.635 46.1823 378.51 46.1823 378.377Z" fill="#0062FF"/>
<path d="M45.1667 384.708C44.8675 384.708 44.625 384.951 44.625 385.25C44.625 385.549 44.8675 385.792 45.1667 385.792H56.8333C57.1325 385.792 57.375 385.549 57.375 385.25C57.375 384.951 57.1325 384.708 56.8333 384.708H45.1667Z" fill="#0062FF"/>
<path d="M68.302 374.2H71.578C72.306 374.2 72.964 374.317 73.552 374.55C74.1493 374.783 74.658 375.115 75.078 375.544C75.498 375.973 75.82 376.491 76.044 377.098C76.2773 377.705 76.394 378.381 76.394 379.128C76.394 379.912 76.282 380.607 76.058 381.214C75.834 381.821 75.512 382.329 75.092 382.74C74.6813 383.151 74.1773 383.463 73.58 383.678C72.9827 383.893 72.3153 384 71.578 384H68.302V374.2ZM71.564 382.768C72.6653 382.768 73.496 382.465 74.056 381.858C74.6253 381.251 74.91 380.379 74.91 379.24C74.91 378.652 74.8353 378.125 74.686 377.658C74.5367 377.182 74.322 376.781 74.042 376.454C73.7713 376.127 73.44 375.875 73.048 375.698C72.656 375.521 72.2173 375.432 71.732 375.432H69.674V382.768H71.564ZM81.4162 384.112C80.8748 384.112 80.3802 384.023 79.9322 383.846C79.4842 383.669 79.0968 383.417 78.7702 383.09C78.4528 382.763 78.2055 382.376 78.0282 381.928C77.8508 381.48 77.7622 380.981 77.7622 380.43C77.7622 379.889 77.8508 379.394 78.0282 378.946C78.2055 378.489 78.4528 378.097 78.7702 377.77C79.0968 377.443 79.4842 377.191 79.9322 377.014C80.3802 376.837 80.8748 376.748 81.4162 376.748C81.9575 376.748 82.4522 376.837 82.9002 377.014C83.3482 377.191 83.7308 377.443 84.0482 377.77C84.3748 378.097 84.6268 378.489 84.8042 378.946C84.9815 379.394 85.0702 379.889 85.0702 380.43C85.0702 380.981 84.9815 381.48 84.8042 381.928C84.6268 382.376 84.3748 382.763 84.0482 383.09C83.7308 383.417 83.3482 383.669 82.9002 383.846C82.4522 384.023 81.9575 384.112 81.4162 384.112ZM81.4162 383.048C81.7242 383.048 82.0135 382.987 82.2842 382.866C82.5642 382.745 82.8022 382.572 82.9982 382.348C83.2035 382.115 83.3668 381.839 83.4882 381.522C83.6095 381.195 83.6702 380.831 83.6702 380.43C83.6702 380.029 83.6095 379.669 83.4882 379.352C83.3668 379.025 83.2035 378.75 82.9982 378.526C82.7928 378.293 82.5548 378.115 82.2842 377.994C82.0135 377.873 81.7242 377.812 81.4162 377.812C81.1082 377.812 80.8142 377.873 80.5342 377.994C80.2635 378.115 80.0255 378.293 79.8202 378.526C79.6242 378.75 79.4655 379.025 79.3442 379.352C79.2228 379.669 79.1622 380.029 79.1622 380.43C79.1622 380.831 79.2228 381.195 79.3442 381.522C79.4655 381.839 79.6242 382.115 79.8202 382.348C80.0255 382.572 80.2635 382.745 80.5342 382.866C80.8142 382.987 81.1082 383.048 81.4162 383.048ZM85.8451 376.86H87.2871L88.8831 382.544L90.7171 376.86H91.8371L93.6571 382.572L95.3791 376.86H96.6671L94.3571 384H92.9711L91.2071 378.596L89.5271 384H88.1411L85.8451 376.86ZM98.0487 376.86H99.3647V377.882H99.3927C99.6634 377.499 99.9994 377.215 100.401 377.028C100.811 376.841 101.269 376.748 101.773 376.748C102.613 376.748 103.275 377 103.761 377.504C104.246 377.999 104.489 378.764 104.489 379.8V384H103.173V380.22C103.173 379.763 103.131 379.38 103.047 379.072C102.972 378.755 102.86 378.507 102.711 378.33C102.571 378.143 102.393 378.013 102.179 377.938C101.973 377.854 101.745 377.812 101.493 377.812C100.849 377.812 100.331 378.045 99.9387 378.512C99.5561 378.969 99.3647 379.679 99.3647 380.64V384H98.0487V376.86ZM106.804 373.332H108.12V384H106.804V373.332ZM113.832 384.112C113.291 384.112 112.796 384.023 112.348 383.846C111.9 383.669 111.513 383.417 111.186 383.09C110.869 382.763 110.622 382.376 110.444 381.928C110.267 381.48 110.178 380.981 110.178 380.43C110.178 379.889 110.267 379.394 110.444 378.946C110.622 378.489 110.869 378.097 111.186 377.77C111.513 377.443 111.9 377.191 112.348 377.014C112.796 376.837 113.291 376.748 113.832 376.748C114.374 376.748 114.868 376.837 115.316 377.014C115.764 377.191 116.147 377.443 116.464 377.77C116.791 378.097 117.043 378.489 117.22 378.946C117.398 379.394 117.486 379.889 117.486 380.43C117.486 380.981 117.398 381.48 117.22 381.928C117.043 382.376 116.791 382.763 116.464 383.09C116.147 383.417 115.764 383.669 115.316 383.846C114.868 384.023 114.374 384.112 113.832 384.112ZM113.832 383.048C114.14 383.048 114.43 382.987 114.7 382.866C114.98 382.745 115.218 382.572 115.414 382.348C115.62 382.115 115.783 381.839 115.904 381.522C116.026 381.195 116.086 380.831 116.086 380.43C116.086 380.029 116.026 379.669 115.904 379.352C115.783 379.025 115.62 378.75 115.414 378.526C115.209 378.293 114.971 378.115 114.7 377.994C114.43 377.873 114.14 377.812 113.832 377.812C113.524 377.812 113.23 377.873 112.95 377.994C112.68 378.115 112.442 378.293 112.236 378.526C112.04 378.75 111.882 379.025 111.76 379.352C111.639 379.669 111.578 380.029 111.578 380.43C111.578 380.831 111.639 381.195 111.76 381.522C111.882 381.839 112.04 382.115 112.236 382.348C112.442 382.572 112.68 382.745 112.95 382.866C113.23 382.987 113.524 383.048 113.832 383.048ZM121.17 384.112C120.423 384.112 119.83 383.925 119.392 383.552C118.953 383.169 118.734 382.642 118.734 381.97C118.734 381.186 119.032 380.589 119.63 380.178C120.236 379.758 121.165 379.548 122.416 379.548H123.732V379.31C123.732 378.797 123.554 378.423 123.2 378.19C122.845 377.957 122.374 377.84 121.786 377.84C121.403 377.84 121.016 377.887 120.624 377.98C120.232 378.064 119.821 378.223 119.392 378.456V377.224C119.746 377.065 120.152 376.949 120.61 376.874C121.067 376.79 121.515 376.748 121.954 376.748C122.934 376.748 123.694 376.972 124.236 377.42C124.777 377.859 125.048 378.573 125.048 379.562V384H123.704V382.908H123.676C123.377 383.347 122.994 383.659 122.528 383.846C122.07 384.023 121.618 384.112 121.17 384.112ZM121.492 382.992C121.818 382.992 122.117 382.941 122.388 382.838C122.668 382.735 122.906 382.595 123.102 382.418C123.298 382.231 123.452 382.017 123.564 381.774C123.676 381.531 123.732 381.275 123.732 381.004V380.556H122.472C122.033 380.556 121.664 380.589 121.366 380.654C121.076 380.719 120.838 380.813 120.652 380.934C120.465 381.055 120.33 381.195 120.246 381.354C120.171 381.513 120.134 381.69 120.134 381.886C120.134 382.241 120.255 382.516 120.498 382.712C120.74 382.899 121.072 382.992 121.492 382.992ZM129.984 384.112C129.48 384.112 129.023 384.019 128.612 383.832C128.202 383.645 127.852 383.384 127.562 383.048C127.273 382.712 127.049 382.315 126.89 381.858C126.741 381.391 126.666 380.887 126.666 380.346C126.666 379.833 126.746 379.357 126.904 378.918C127.063 378.479 127.287 378.101 127.576 377.784C127.866 377.457 128.211 377.205 128.612 377.028C129.023 376.841 129.471 376.748 129.956 376.748C130.498 376.748 130.955 376.851 131.328 377.056C131.711 377.261 132.033 377.513 132.294 377.812H132.322V373.36H133.638V384H132.378V382.992H132.294C132.024 383.337 131.702 383.613 131.328 383.818C130.964 384.014 130.516 384.112 129.984 384.112ZM130.208 383.048C130.516 383.048 130.801 382.983 131.062 382.852C131.324 382.721 131.548 382.544 131.734 382.32C131.921 382.087 132.066 381.811 132.168 381.494C132.271 381.177 132.322 380.827 132.322 380.444C132.322 380.061 132.266 379.711 132.154 379.394C132.052 379.067 131.907 378.787 131.72 378.554C131.534 378.321 131.31 378.139 131.048 378.008C130.787 377.877 130.498 377.812 130.18 377.812C129.882 377.812 129.602 377.877 129.34 378.008C129.079 378.139 128.855 378.321 128.668 378.554C128.482 378.778 128.332 379.049 128.22 379.366C128.118 379.683 128.066 380.029 128.066 380.402C128.066 380.785 128.118 381.139 128.22 381.466C128.332 381.783 128.482 382.063 128.668 382.306C128.864 382.539 129.093 382.721 129.354 382.852C129.616 382.983 129.9 383.048 130.208 383.048ZM140.489 383.062V387.136H139.173V376.86H140.433V377.882H140.461C140.648 377.63 140.849 377.429 141.063 377.28C141.287 377.131 141.507 377.019 141.721 376.944C141.936 376.86 142.141 376.809 142.337 376.79C142.533 376.762 142.701 376.748 142.841 376.748C143.364 376.748 143.831 376.841 144.241 377.028C144.652 377.205 144.997 377.457 145.277 377.784C145.557 378.111 145.772 378.498 145.921 378.946C146.071 379.385 146.145 379.861 146.145 380.374C146.145 380.878 146.071 381.359 145.921 381.816C145.781 382.264 145.571 382.661 145.291 383.006C145.011 383.342 144.671 383.613 144.269 383.818C143.868 384.014 143.415 384.112 142.911 384.112C142.333 384.112 141.843 384.005 141.441 383.79C141.049 383.566 140.751 383.323 140.545 383.062H140.489ZM142.603 383.048C143.257 383.048 143.775 382.805 144.157 382.32C144.549 381.825 144.745 381.163 144.745 380.332C144.745 379.567 144.554 378.955 144.171 378.498C143.798 378.041 143.289 377.812 142.645 377.812C141.983 377.812 141.455 378.05 141.063 378.526C140.681 379.002 140.489 379.641 140.489 380.444C140.489 381.237 140.681 381.872 141.063 382.348C141.446 382.815 141.959 383.048 142.603 383.048ZM148.216 373.332H149.532V384H148.216V373.332ZM158.282 384H156.966V382.978H156.938C156.668 383.361 156.327 383.645 155.916 383.832C155.515 384.019 155.062 384.112 154.558 384.112C153.718 384.112 153.056 383.865 152.57 383.37C152.085 382.866 151.842 382.096 151.842 381.06V376.86H153.158V380.64C153.158 381.107 153.196 381.494 153.27 381.802C153.354 382.11 153.466 382.357 153.606 382.544C153.756 382.721 153.933 382.852 154.138 382.936C154.353 383.011 154.586 383.048 154.838 383.048C155.482 383.048 155.996 382.819 156.378 382.362C156.77 381.895 156.966 381.181 156.966 380.22V376.86H158.282V384ZM163.313 387.192C162.94 387.192 162.595 387.169 162.277 387.122C161.96 387.075 161.68 387.019 161.437 386.954C161.157 386.889 160.901 386.809 160.667 386.716V385.456C160.901 385.577 161.157 385.689 161.437 385.792C161.68 385.876 161.96 385.951 162.277 386.016C162.595 386.091 162.94 386.128 163.313 386.128C164.965 386.128 165.791 385.297 165.791 383.636V382.894H165.749C165.516 383.239 165.189 383.51 164.769 383.706C164.359 383.902 163.906 384 163.411 384C162.945 384 162.511 383.916 162.109 383.748C161.717 383.58 161.372 383.342 161.073 383.034C160.784 382.717 160.555 382.339 160.387 381.9C160.219 381.452 160.135 380.948 160.135 380.388C160.135 379.809 160.224 379.296 160.401 378.848C160.579 378.391 160.817 378.008 161.115 377.7C161.423 377.392 161.783 377.159 162.193 377C162.604 376.832 163.043 376.748 163.509 376.748C164.051 376.748 164.508 376.86 164.881 377.084C165.255 377.308 165.572 377.574 165.833 377.882H165.875V376.86H167.107V383.636C167.107 384.831 166.799 385.722 166.183 386.31C165.577 386.898 164.62 387.192 163.313 387.192ZM163.691 382.936C163.981 382.936 164.251 382.88 164.503 382.768C164.765 382.656 164.989 382.493 165.175 382.278C165.362 382.054 165.507 381.788 165.609 381.48C165.721 381.163 165.777 380.799 165.777 380.388C165.777 379.968 165.721 379.599 165.609 379.282C165.497 378.955 165.343 378.685 165.147 378.47C164.951 378.246 164.723 378.083 164.461 377.98C164.2 377.868 163.915 377.812 163.607 377.812C163.318 377.812 163.047 377.863 162.795 377.966C162.543 378.069 162.324 378.227 162.137 378.442C161.951 378.647 161.801 378.909 161.689 379.226C161.587 379.534 161.535 379.893 161.535 380.304C161.535 380.715 161.591 381.083 161.703 381.41C161.825 381.727 161.983 382.003 162.179 382.236C162.375 382.46 162.604 382.633 162.865 382.754C163.127 382.875 163.402 382.936 163.691 382.936ZM169.64 376.86H170.956V384H169.64V376.86ZM169.57 373.92H171.054V375.404H169.57V373.92ZM173.49 376.86H174.806V377.882H174.834C175.105 377.499 175.441 377.215 175.842 377.028C176.253 376.841 176.71 376.748 177.214 376.748C178.054 376.748 178.717 377 179.202 377.504C179.687 377.999 179.93 378.764 179.93 379.8V384H178.614V380.22C178.614 379.763 178.572 379.38 178.488 379.072C178.413 378.755 178.301 378.507 178.152 378.33C178.012 378.143 177.835 378.013 177.62 377.938C177.415 377.854 177.186 377.812 176.934 377.812C176.29 377.812 175.772 378.045 175.38 378.512C174.997 378.969 174.806 379.679 174.806 380.64V384H173.49V376.86Z" fill="#0062FF"/>
</g>
<g clip-path="url(#clip1_632_16520)">
<path d="M50.4371 412.36C50.4371 412.66 50.6788 412.902 50.9788 412.902C51.2788 412.902 51.5204 412.66 51.5204 412.352C51.5204 412.102 51.5538 411.935 51.6454 411.702C51.7621 411.427 51.9954 411.177 52.2454 410.919L52.2493 410.915C52.6566 410.491 53.1125 410.016 53.2288 409.252C53.3371 408.527 53.0371 407.777 52.4371 407.302C51.8204 406.81 51.0038 406.702 50.2538 406.994C49.2704 407.385 48.7121 408.235 48.7621 409.285C48.7704 409.585 49.0371 409.81 49.3288 409.802C49.6288 409.785 49.8621 409.535 49.8454 409.235C49.8204 408.827 49.9538 408.277 50.6538 408.002C51.0454 407.852 51.4454 407.902 51.7621 408.152C52.0621 408.385 52.2121 408.744 52.1621 409.094C52.0966 409.511 51.8136 409.808 51.4874 410.151L51.4704 410.169C51.1704 410.477 50.8371 410.827 50.6454 411.302C50.4954 411.66 50.4371 411.969 50.4371 412.36Z" fill="#0062FF"/>
<path d="M51.7083 414.625C51.7083 415.016 51.3912 415.333 51 415.333C50.6088 415.333 50.2917 415.016 50.2917 414.625C50.2917 414.234 50.6088 413.917 51 413.917C51.3912 413.917 51.7083 414.234 51.7083 414.625Z" fill="#0062FF"/>
<path fill-rule="evenodd" clip-rule="evenodd" d="M51 403.5C46.8579 403.5 43.5 406.858 43.5 411C43.5 415.142 46.8579 418.5 51 418.5C55.1421 418.5 58.5 415.142 58.5 411C58.5 406.858 55.1421 403.5 51 403.5ZM44.5833 411C44.5833 407.456 47.4562 404.583 51 404.583C54.5438 404.583 57.4167 407.456 57.4167 411C57.4167 414.544 54.5438 417.417 51 417.417C47.4562 417.417 44.5833 414.544 44.5833 411Z" fill="#0062FF"/>
<path d="M68.302 406.2H69.674V410.302H74.406V406.2H75.778V416H74.406V411.534H69.674V416H68.302V406.2ZM81.2795 416.112C80.7381 416.112 80.2435 416.023 79.7955 415.846C79.3475 415.669 78.9601 415.417 78.6335 415.09C78.3161 414.763 78.0688 414.376 77.8915 413.928C77.7141 413.48 77.6255 412.981 77.6255 412.43C77.6255 411.889 77.7141 411.394 77.8915 410.946C78.0688 410.489 78.3161 410.097 78.6335 409.77C78.9601 409.443 79.3475 409.191 79.7955 409.014C80.2435 408.837 80.7381 408.748 81.2795 408.748C81.8208 408.748 82.3155 408.837 82.7635 409.014C83.2115 409.191 83.5941 409.443 83.9115 409.77C84.2381 410.097 84.4901 410.489 84.6675 410.946C84.8448 411.394 84.9335 411.889 84.9335 412.43C84.9335 412.981 84.8448 413.48 84.6675 413.928C84.4901 414.376 84.2381 414.763 83.9115 415.09C83.5941 415.417 83.2115 415.669 82.7635 415.846C82.3155 416.023 81.8208 416.112 81.2795 416.112ZM81.2795 415.048C81.5875 415.048 81.8768 414.987 82.1475 414.866C82.4275 414.745 82.6655 414.572 82.8615 414.348C83.0668 414.115 83.2301 413.839 83.3515 413.522C83.4728 413.195 83.5335 412.831 83.5335 412.43C83.5335 412.029 83.4728 411.669 83.3515 411.352C83.2301 411.025 83.0668 410.75 82.8615 410.526C82.6561 410.293 82.4181 410.115 82.1475 409.994C81.8768 409.873 81.5875 409.812 81.2795 409.812C80.9715 409.812 80.6775 409.873 80.3975 409.994C80.1268 410.115 79.8888 410.293 79.6835 410.526C79.4875 410.75 79.3288 411.025 79.2075 411.352C79.0861 411.669 79.0255 412.029 79.0255 412.43C79.0255 412.831 79.0861 413.195 79.2075 413.522C79.3288 413.839 79.4875 414.115 79.6835 414.348C79.8888 414.572 80.1268 414.745 80.3975 414.866C80.6775 414.987 80.9715 415.048 81.2795 415.048ZM85.7084 408.86H87.1504L88.7464 414.544L90.5804 408.86H91.7004L93.5204 414.572L95.2424 408.86H96.5304L94.2204 416H92.8344L91.0704 410.596L89.3904 416H88.0044L85.7084 408.86ZM104.723 409.924H102.959V413.774C102.959 414.203 103.066 414.502 103.281 414.67C103.505 414.829 103.766 414.908 104.065 414.908C104.289 414.908 104.527 414.871 104.779 414.796V415.986C104.601 416.033 104.433 416.065 104.275 416.084C104.116 416.103 103.971 416.112 103.841 416.112C103.131 416.112 102.59 415.921 102.217 415.538C101.843 415.146 101.657 414.6 101.657 413.9V409.924H100.355V408.86H101.657V407.082L102.959 406.606V408.86H104.723V409.924ZM109.567 416.112C109.025 416.112 108.531 416.023 108.083 415.846C107.635 415.669 107.247 415.417 106.921 415.09C106.603 414.763 106.356 414.376 106.179 413.928C106.001 413.48 105.913 412.981 105.913 412.43C105.913 411.889 106.001 411.394 106.179 410.946C106.356 410.489 106.603 410.097 106.921 409.77C107.247 409.443 107.635 409.191 108.083 409.014C108.531 408.837 109.025 408.748 109.567 408.748C110.108 408.748 110.603 408.837 111.051 409.014C111.499 409.191 111.881 409.443 112.199 409.77C112.525 410.097 112.777 410.489 112.955 410.946C113.132 411.394 113.221 411.889 113.221 412.43C113.221 412.981 113.132 413.48 112.955 413.928C112.777 414.376 112.525 414.763 112.199 415.09C111.881 415.417 111.499 415.669 111.051 415.846C110.603 416.023 110.108 416.112 109.567 416.112ZM109.567 415.048C109.875 415.048 110.164 414.987 110.435 414.866C110.715 414.745 110.953 414.572 111.149 414.348C111.354 414.115 111.517 413.839 111.639 413.522C111.76 413.195 111.821 412.831 111.821 412.43C111.821 412.029 111.76 411.669 111.639 411.352C111.517 411.025 111.354 410.75 111.149 410.526C110.943 410.293 110.705 410.115 110.435 409.994C110.164 409.873 109.875 409.812 109.567 409.812C109.259 409.812 108.965 409.873 108.685 409.994C108.414 410.115 108.176 410.293 107.971 410.526C107.775 410.75 107.616 411.025 107.495 411.352C107.373 411.669 107.313 412.029 107.313 412.43C107.313 412.831 107.373 413.195 107.495 413.522C107.616 413.839 107.775 414.115 107.971 414.348C108.176 414.572 108.414 414.745 108.685 414.866C108.965 414.987 109.259 415.048 109.567 415.048ZM118.507 408.86H119.823V416H118.507V408.86ZM118.437 405.92H119.921V407.404H118.437V405.92ZM122.357 408.86H123.673V409.882H123.701C123.972 409.499 124.308 409.215 124.709 409.028C125.12 408.841 125.577 408.748 126.081 408.748C126.921 408.748 127.584 409 128.069 409.504C128.555 409.999 128.797 410.764 128.797 411.8V416H127.481V412.22C127.481 411.763 127.439 411.38 127.355 411.072C127.281 410.755 127.169 410.507 127.019 410.33C126.879 410.143 126.702 410.013 126.487 409.938C126.282 409.854 126.053 409.812 125.801 409.812C125.157 409.812 124.639 410.045 124.247 410.512C123.865 410.969 123.673 411.679 123.673 412.64V416H122.357V408.86ZM132.708 416.112C132.232 416.112 131.822 416.075 131.476 416C131.14 415.916 130.842 415.823 130.58 415.72V414.558C131.056 414.773 131.467 414.908 131.812 414.964C132.167 415.011 132.424 415.034 132.582 415.034C133.124 415.034 133.516 414.941 133.758 414.754C134.001 414.558 134.122 414.339 134.122 414.096C134.122 413.947 134.08 413.821 133.996 413.718C133.922 413.606 133.819 413.503 133.688 413.41C133.558 413.317 133.404 413.233 133.226 413.158C133.049 413.074 132.862 412.99 132.666 412.906C132.396 412.785 132.13 412.663 131.868 412.542C131.616 412.411 131.392 412.267 131.196 412.108C131 411.94 130.842 411.744 130.72 411.52C130.599 411.296 130.538 411.025 130.538 410.708C130.538 410.12 130.772 409.649 131.238 409.294C131.714 408.93 132.405 408.748 133.31 408.748C133.777 408.748 134.188 408.785 134.542 408.86C134.897 408.935 135.126 408.991 135.228 409.028V410.148C134.958 410.036 134.668 409.957 134.36 409.91C134.062 409.863 133.763 409.84 133.464 409.84C132.932 409.84 132.55 409.915 132.316 410.064C132.083 410.204 131.966 410.395 131.966 410.638C131.966 410.778 132.004 410.904 132.078 411.016C132.153 411.119 132.251 411.217 132.372 411.31C132.503 411.394 132.652 411.478 132.82 411.562C132.988 411.637 133.166 411.716 133.352 411.8C133.604 411.912 133.861 412.029 134.122 412.15C134.393 412.262 134.636 412.402 134.85 412.57C135.074 412.738 135.252 412.939 135.382 413.172C135.522 413.405 135.592 413.695 135.592 414.04C135.592 414.656 135.34 415.155 134.836 415.538C134.342 415.921 133.632 416.112 132.708 416.112ZM141.062 409.924H139.298V413.774C139.298 414.203 139.406 414.502 139.62 414.67C139.844 414.829 140.106 414.908 140.404 414.908C140.628 414.908 140.866 414.871 141.118 414.796V415.986C140.941 416.033 140.773 416.065 140.614 416.084C140.456 416.103 140.311 416.112 140.18 416.112C139.471 416.112 138.93 415.921 138.556 415.538C138.183 415.146 137.996 414.6 137.996 413.9V409.924H136.694V408.86H137.996V407.082L139.298 406.606V408.86H141.062V409.924ZM144.631 416.112C143.884 416.112 143.291 415.925 142.853 415.552C142.414 415.169 142.195 414.642 142.195 413.97C142.195 413.186 142.493 412.589 143.091 412.178C143.697 411.758 144.626 411.548 145.877 411.548H147.193V411.31C147.193 410.797 147.015 410.423 146.661 410.19C146.306 409.957 145.835 409.84 145.247 409.84C144.864 409.84 144.477 409.887 144.085 409.98C143.693 410.064 143.282 410.223 142.853 410.456V409.224C143.207 409.065 143.613 408.949 144.071 408.874C144.528 408.79 144.976 408.748 145.415 408.748C146.395 408.748 147.155 408.972 147.697 409.42C148.238 409.859 148.509 410.573 148.509 411.562V416H147.165V414.908H147.137C146.838 415.347 146.455 415.659 145.989 415.846C145.531 416.023 145.079 416.112 144.631 416.112ZM144.953 414.992C145.279 414.992 145.578 414.941 145.849 414.838C146.129 414.735 146.367 414.595 146.563 414.418C146.759 414.231 146.913 414.017 147.025 413.774C147.137 413.531 147.193 413.275 147.193 413.004V412.556H145.933C145.494 412.556 145.125 412.589 144.827 412.654C144.537 412.719 144.299 412.813 144.113 412.934C143.926 413.055 143.791 413.195 143.707 413.354C143.632 413.513 143.595 413.69 143.595 413.886C143.595 414.241 143.716 414.516 143.959 414.712C144.201 414.899 144.533 414.992 144.953 414.992ZM150.813 405.332H152.129V416H150.813V405.332ZM154.874 405.332H156.19V416H154.874V405.332Z" fill="#0062FF"/>
</g>
<path d="M46.054 484.262C45.942 484.281 45.8253 484.29 45.704 484.29C45.592 484.29 45.4753 484.29 45.354 484.29H43.674V488H42.302V478.2H45.354C46.5487 478.2 47.4307 478.466 48 478.998C48.5693 479.53 48.854 480.291 48.854 481.28C48.854 481.933 48.7233 482.475 48.462 482.904C48.21 483.333 47.8553 483.665 47.398 483.898L49.498 488H47.804L46.054 484.262ZM45.354 483.128C46.054 483.128 46.5627 482.974 46.88 482.666C47.2067 482.358 47.37 481.896 47.37 481.28C47.37 480.664 47.2067 480.202 46.88 479.894C46.5627 479.586 46.054 479.432 45.354 479.432H43.674V483.128H45.354ZM51.5206 484.724C51.5952 485.461 51.8472 486.031 52.2766 486.432C52.7059 486.824 53.2846 487.02 54.0126 487.02C54.4419 487.02 54.8619 486.969 55.2726 486.866C55.6926 486.754 56.0379 486.619 56.3086 486.46V487.748C56.0846 487.823 55.7766 487.902 55.3846 487.986C54.9926 488.07 54.5072 488.112 53.9286 488.112C52.7152 488.112 51.7819 487.776 51.1286 487.104C50.4846 486.432 50.1626 485.499 50.1626 484.304C50.1626 483.763 50.2466 483.273 50.4146 482.834C50.5919 482.395 50.8299 482.022 51.1286 481.714C51.4366 481.406 51.7959 481.168 52.2066 481C52.6172 480.832 53.0606 480.748 53.5366 480.748C54.5539 480.748 55.3519 481.047 55.9306 481.644C56.5092 482.241 56.7986 483.147 56.7986 484.36V484.724H51.5206ZM53.5226 481.812C52.9719 481.812 52.5192 481.989 52.1646 482.344C51.8192 482.689 51.6046 483.156 51.5206 483.744H55.3986C55.3986 483.128 55.2212 482.652 54.8666 482.316C54.5119 481.98 54.0639 481.812 53.5226 481.812ZM57.8793 480.86H59.2513V480.006C59.2513 479.007 59.438 478.298 59.8113 477.878C60.194 477.458 60.7773 477.248 61.5613 477.248C61.7946 477.248 62.014 477.262 62.2193 477.29C62.4246 477.318 62.574 477.341 62.6673 477.36V478.424C62.518 478.405 62.3826 478.391 62.2613 478.382C62.14 478.373 62.0233 478.368 61.9113 478.368C61.65 478.368 61.4306 478.401 61.2533 478.466C61.0853 478.522 60.95 478.615 60.8473 478.746C60.7446 478.877 60.67 479.049 60.6233 479.264C60.586 479.469 60.5673 479.717 60.5673 480.006V480.86H62.5693V481.924H60.5673V488H59.2513V481.924H57.8793V480.86ZM63.8729 480.86H65.1049V482.022H65.1329C65.3663 481.565 65.6463 481.238 65.9729 481.042C66.3089 480.846 66.7103 480.748 67.1769 480.748C67.3076 480.748 67.4383 480.757 67.5689 480.776C67.7089 480.785 67.8536 480.799 68.0029 480.818V481.966C67.8629 481.947 67.7276 481.933 67.5969 481.924C67.4663 481.905 67.3403 481.896 67.2189 481.896C66.5003 481.896 65.9823 482.143 65.6649 482.638C65.3476 483.133 65.1889 483.856 65.1889 484.808V488H63.8729V480.86ZM70.292 484.724C70.3667 485.461 70.6187 486.031 71.048 486.432C71.4774 486.824 72.056 487.02 72.784 487.02C73.2134 487.02 73.6334 486.969 74.044 486.866C74.464 486.754 74.8094 486.619 75.08 486.46V487.748C74.856 487.823 74.548 487.902 74.156 487.986C73.764 488.07 73.2787 488.112 72.7 488.112C71.4867 488.112 70.5534 487.776 69.9 487.104C69.256 486.432 68.934 485.499 68.934 484.304C68.934 483.763 69.018 483.273 69.186 482.834C69.3634 482.395 69.6014 482.022 69.9 481.714C70.208 481.406 70.5674 481.168 70.978 481C71.3887 480.832 71.832 480.748 72.308 480.748C73.3254 480.748 74.1234 481.047 74.702 481.644C75.2807 482.241 75.57 483.147 75.57 484.36V484.724H70.292ZM72.294 481.812C71.7434 481.812 71.2907 481.989 70.936 482.344C70.5907 482.689 70.376 483.156 70.292 483.744H74.17C74.17 483.128 73.9927 482.652 73.638 482.316C73.2834 481.98 72.8354 481.812 72.294 481.812ZM79.2688 488.112C78.7928 488.112 78.3821 488.075 78.0368 488C77.7008 487.916 77.4021 487.823 77.1408 487.72V486.558C77.6168 486.773 78.0274 486.908 78.3728 486.964C78.7274 487.011 78.9841 487.034 79.1428 487.034C79.6841 487.034 80.0761 486.941 80.3188 486.754C80.5614 486.558 80.6828 486.339 80.6828 486.096C80.6828 485.947 80.6408 485.821 80.5568 485.718C80.4821 485.606 80.3794 485.503 80.2488 485.41C80.1181 485.317 79.9641 485.233 79.7868 485.158C79.6094 485.074 79.4228 484.99 79.2268 484.906C78.9561 484.785 78.6901 484.663 78.4288 484.542C78.1768 484.411 77.9528 484.267 77.7568 484.108C77.5608 483.94 77.4021 483.744 77.2808 483.52C77.1594 483.296 77.0988 483.025 77.0988 482.708C77.0988 482.12 77.3321 481.649 77.7988 481.294C78.2748 480.93 78.9654 480.748 79.8708 480.748C80.3374 480.748 80.7481 480.785 81.1028 480.86C81.4574 480.935 81.6861 480.991 81.7888 481.028V482.148C81.5181 482.036 81.2288 481.957 80.9208 481.91C80.6221 481.863 80.3234 481.84 80.0248 481.84C79.4928 481.84 79.1101 481.915 78.8768 482.064C78.6434 482.204 78.5268 482.395 78.5268 482.638C78.5268 482.778 78.5641 482.904 78.6388 483.016C78.7134 483.119 78.8114 483.217 78.9328 483.31C79.0634 483.394 79.2128 483.478 79.3808 483.562C79.5488 483.637 79.7261 483.716 79.9128 483.8C80.1648 483.912 80.4214 484.029 80.6828 484.15C80.9534 484.262 81.1961 484.402 81.4108 484.57C81.6348 484.738 81.8121 484.939 81.9428 485.172C82.0828 485.405 82.1528 485.695 82.1528 486.04C82.1528 486.656 81.9008 487.155 81.3968 487.538C80.9021 487.921 80.1928 488.112 79.2688 488.112ZM84.039 477.36H85.355V480.86L85.341 481.882H85.383C85.6536 481.499 85.9896 481.215 86.391 481.028C86.7923 480.841 87.2496 480.748 87.763 480.748C88.603 480.748 89.2656 481 89.751 481.504C90.2363 481.999 90.479 482.764 90.479 483.8V488H89.163V484.22C89.163 483.763 89.121 483.38 89.037 483.072C88.9623 482.755 88.8503 482.507 88.701 482.33C88.561 482.143 88.3836 482.013 88.169 481.938C87.9636 481.854 87.735 481.812 87.483 481.812C86.839 481.812 86.321 482.045 85.929 482.512C85.5463 482.969 85.355 483.679 85.355 484.64V488H84.039V477.36ZM97.1124 487.062H97.1684C97.3738 487.323 97.6724 487.566 98.0644 487.79C98.4658 488.005 98.9558 488.112 99.5344 488.112C100.038 488.112 100.491 488.014 100.892 487.818C101.294 487.613 101.634 487.342 101.914 487.006C102.194 486.661 102.404 486.264 102.544 485.816C102.694 485.359 102.768 484.878 102.768 484.374C102.768 483.861 102.694 483.385 102.544 482.946C102.395 482.498 102.18 482.111 101.9 481.784C101.62 481.457 101.275 481.205 100.864 481.028C100.454 480.841 99.9871 480.748 99.4644 480.748C99.3244 480.748 99.1564 480.762 98.9604 480.79C98.7644 480.809 98.5591 480.86 98.3444 480.944C98.1298 481.019 97.9104 481.131 97.6864 481.28C97.4718 481.429 97.2711 481.63 97.0844 481.882H97.0564V480.86H95.7964V491.136H97.1124V487.062ZM99.2264 487.048C98.5824 487.048 98.0691 486.815 97.6864 486.348C97.3038 485.872 97.1124 485.237 97.1124 484.444C97.1124 483.641 97.3038 483.002 97.6864 482.526C98.0784 482.05 98.6058 481.812 99.2684 481.812C99.9124 481.812 100.421 482.041 100.794 482.498C101.177 482.955 101.368 483.567 101.368 484.332C101.368 485.163 101.172 485.825 100.78 486.32C100.398 486.805 99.8798 487.048 99.2264 487.048ZM106.394 488.112C105.648 488.112 105.055 487.925 104.616 487.552C104.178 487.169 103.958 486.642 103.958 485.97C103.958 485.186 104.257 484.589 104.854 484.178C105.461 483.758 106.39 483.548 107.64 483.548H108.956V483.31C108.956 482.797 108.779 482.423 108.424 482.19C108.07 481.957 107.598 481.84 107.01 481.84C106.628 481.84 106.24 481.887 105.848 481.98C105.456 482.064 105.046 482.223 104.616 482.456V481.224C104.971 481.065 105.377 480.949 105.834 480.874C106.292 480.79 106.74 480.748 107.178 480.748C108.158 480.748 108.919 480.972 109.46 481.42C110.002 481.859 110.272 482.573 110.272 483.562V488H108.928V486.908H108.9C108.602 487.347 108.219 487.659 107.752 487.846C107.295 488.023 106.842 488.112 106.394 488.112ZM106.716 486.992C107.043 486.992 107.342 486.941 107.612 486.838C107.892 486.735 108.13 486.595 108.326 486.418C108.522 486.231 108.676 486.017 108.788 485.774C108.9 485.531 108.956 485.275 108.956 485.004V484.556H107.696C107.258 484.556 106.889 484.589 106.59 484.654C106.301 484.719 106.063 484.813 105.876 484.934C105.69 485.055 105.554 485.195 105.47 485.354C105.396 485.513 105.358 485.69 105.358 485.886C105.358 486.241 105.48 486.516 105.722 486.712C105.965 486.899 106.296 486.992 106.716 486.992ZM115.069 491.192C114.696 491.192 114.35 491.169 114.033 491.122C113.716 491.075 113.436 491.019 113.193 490.954C112.913 490.889 112.656 490.809 112.423 490.716V489.456C112.656 489.577 112.913 489.689 113.193 489.792C113.436 489.876 113.716 489.951 114.033 490.016C114.35 490.091 114.696 490.128 115.069 490.128C116.721 490.128 117.547 489.297 117.547 487.636V486.894H117.505C117.272 487.239 116.945 487.51 116.525 487.706C116.114 487.902 115.662 488 115.167 488C114.7 488 114.266 487.916 113.865 487.748C113.473 487.58 113.128 487.342 112.829 487.034C112.54 486.717 112.311 486.339 112.143 485.9C111.975 485.452 111.891 484.948 111.891 484.388C111.891 483.809 111.98 483.296 112.157 482.848C112.334 482.391 112.572 482.008 112.871 481.7C113.179 481.392 113.538 481.159 113.949 481C114.36 480.832 114.798 480.748 115.265 480.748C115.806 480.748 116.264 480.86 116.637 481.084C117.01 481.308 117.328 481.574 117.589 481.882H117.631V480.86H118.863V487.636C118.863 488.831 118.555 489.722 117.939 490.31C117.332 490.898 116.376 491.192 115.069 491.192ZM115.447 486.936C115.736 486.936 116.007 486.88 116.259 486.768C116.52 486.656 116.744 486.493 116.931 486.278C117.118 486.054 117.262 485.788 117.365 485.48C117.477 485.163 117.533 484.799 117.533 484.388C117.533 483.968 117.477 483.599 117.365 483.282C117.253 482.955 117.099 482.685 116.903 482.47C116.707 482.246 116.478 482.083 116.217 481.98C115.956 481.868 115.671 481.812 115.363 481.812C115.074 481.812 114.803 481.863 114.551 481.966C114.299 482.069 114.08 482.227 113.893 482.442C113.706 482.647 113.557 482.909 113.445 483.226C113.342 483.534 113.291 483.893 113.291 484.304C113.291 484.715 113.347 485.083 113.459 485.41C113.58 485.727 113.739 486.003 113.935 486.236C114.131 486.46 114.36 486.633 114.621 486.754C114.882 486.875 115.158 486.936 115.447 486.936ZM122.067 484.724C122.142 485.461 122.394 486.031 122.823 486.432C123.253 486.824 123.831 487.02 124.559 487.02C124.989 487.02 125.409 486.969 125.819 486.866C126.239 486.754 126.585 486.619 126.855 486.46V487.748C126.631 487.823 126.323 487.902 125.931 487.986C125.539 488.07 125.054 488.112 124.475 488.112C123.262 488.112 122.329 487.776 121.675 487.104C121.031 486.432 120.709 485.499 120.709 484.304C120.709 483.763 120.793 483.273 120.961 482.834C121.139 482.395 121.377 482.022 121.675 481.714C121.983 481.406 122.343 481.168 122.753 481C123.164 480.832 123.607 480.748 124.083 480.748C125.101 480.748 125.899 481.047 126.477 481.644C127.056 482.241 127.345 483.147 127.345 484.36V484.724H122.067ZM124.069 481.812C123.519 481.812 123.066 481.989 122.711 482.344C122.366 482.689 122.151 483.156 122.067 483.744H125.945C125.945 483.128 125.768 482.652 125.413 482.316C125.059 481.98 124.611 481.812 124.069 481.812ZM136.049 481.924H134.285V485.774C134.285 486.203 134.392 486.502 134.607 486.67C134.831 486.829 135.092 486.908 135.391 486.908C135.615 486.908 135.853 486.871 136.105 486.796V487.986C135.927 488.033 135.759 488.065 135.601 488.084C135.442 488.103 135.297 488.112 135.167 488.112C134.457 488.112 133.916 487.921 133.543 487.538C133.169 487.146 132.983 486.6 132.983 485.9V481.924H131.681V480.86H132.983V479.082L134.285 478.606V480.86H136.049V481.924ZM140.893 488.112C140.351 488.112 139.857 488.023 139.409 487.846C138.961 487.669 138.573 487.417 138.247 487.09C137.929 486.763 137.682 486.376 137.505 485.928C137.327 485.48 137.239 484.981 137.239 484.43C137.239 483.889 137.327 483.394 137.505 482.946C137.682 482.489 137.929 482.097 138.247 481.77C138.573 481.443 138.961 481.191 139.409 481.014C139.857 480.837 140.351 480.748 140.893 480.748C141.434 480.748 141.929 480.837 142.377 481.014C142.825 481.191 143.207 481.443 143.525 481.77C143.851 482.097 144.103 482.489 144.281 482.946C144.458 483.394 144.547 483.889 144.547 484.43C144.547 484.981 144.458 485.48 144.281 485.928C144.103 486.376 143.851 486.763 143.525 487.09C143.207 487.417 142.825 487.669 142.377 487.846C141.929 488.023 141.434 488.112 140.893 488.112ZM140.893 487.048C141.201 487.048 141.49 486.987 141.761 486.866C142.041 486.745 142.279 486.572 142.475 486.348C142.68 486.115 142.843 485.839 142.965 485.522C143.086 485.195 143.147 484.831 143.147 484.43C143.147 484.029 143.086 483.669 142.965 483.352C142.843 483.025 142.68 482.75 142.475 482.526C142.269 482.293 142.031 482.115 141.761 481.994C141.49 481.873 141.201 481.812 140.893 481.812C140.585 481.812 140.291 481.873 140.011 481.994C139.74 482.115 139.502 482.293 139.297 482.526C139.101 482.75 138.942 483.025 138.821 483.352C138.699 483.669 138.639 484.029 138.639 484.43C138.639 484.831 138.699 485.195 138.821 485.522C138.942 485.839 139.101 486.115 139.297 486.348C139.502 486.572 139.74 486.745 140.011 486.866C140.291 486.987 140.585 487.048 140.893 487.048ZM149.623 480.86H150.855V481.896H150.883C151.126 481.504 151.452 481.215 151.863 481.028C152.283 480.841 152.703 480.748 153.123 480.748C153.627 480.748 154.052 480.869 154.397 481.112C154.752 481.355 155.018 481.695 155.195 482.134C155.438 481.677 155.76 481.331 156.161 481.098C156.562 480.865 157.029 480.748 157.561 480.748C157.953 480.748 158.294 480.818 158.583 480.958C158.882 481.089 159.129 481.275 159.325 481.518C159.521 481.751 159.666 482.031 159.759 482.358C159.862 482.685 159.913 483.039 159.913 483.422V488H158.597V483.744C158.597 483.184 158.499 482.722 158.303 482.358C158.107 481.994 157.762 481.812 157.267 481.812C156.95 481.812 156.674 481.887 156.441 482.036C156.208 482.185 156.016 482.381 155.867 482.624C155.718 482.867 155.606 483.142 155.531 483.45C155.456 483.758 155.419 484.075 155.419 484.402V488H154.117V483.744C154.117 483.165 154.014 482.699 153.809 482.344C153.604 481.989 153.263 481.812 152.787 481.812C152.488 481.812 152.222 481.882 151.989 482.022C151.765 482.153 151.574 482.335 151.415 482.568C151.256 482.801 151.135 483.077 151.051 483.394C150.976 483.711 150.939 484.047 150.939 484.402V488H149.623V480.86ZM163.844 488.112C163.097 488.112 162.504 487.925 162.066 487.552C161.627 487.169 161.408 486.642 161.408 485.97C161.408 485.186 161.706 484.589 162.304 484.178C162.91 483.758 163.839 483.548 165.09 483.548H166.406V483.31C166.406 482.797 166.228 482.423 165.874 482.19C165.519 481.957 165.048 481.84 164.46 481.84C164.077 481.84 163.69 481.887 163.298 481.98C162.906 482.064 162.495 482.223 162.066 482.456V481.224C162.42 481.065 162.826 480.949 163.284 480.874C163.741 480.79 164.189 480.748 164.628 480.748C165.608 480.748 166.368 480.972 166.91 481.42C167.451 481.859 167.722 482.573 167.722 483.562V488H166.378V486.908H166.35C166.051 487.347 165.668 487.659 165.202 487.846C164.744 488.023 164.292 488.112 163.844 488.112ZM164.166 486.992C164.492 486.992 164.791 486.941 165.062 486.838C165.342 486.735 165.58 486.595 165.776 486.418C165.972 486.231 166.126 486.017 166.238 485.774C166.35 485.531 166.406 485.275 166.406 485.004V484.556H165.146C164.707 484.556 164.338 484.589 164.04 484.654C163.75 484.719 163.512 484.813 163.326 484.934C163.139 485.055 163.004 485.195 162.92 485.354C162.845 485.513 162.808 485.69 162.808 485.886C162.808 486.241 162.929 486.516 163.172 486.712C163.414 486.899 163.746 486.992 164.166 486.992ZM169.816 477.36H171.132V484.192L174.59 480.86H176.228L173.05 483.828L176.27 488H174.66L172.126 484.64L171.132 485.578V488H169.816V477.36ZM178.327 484.724C178.402 485.461 178.654 486.031 179.083 486.432C179.513 486.824 180.091 487.02 180.819 487.02C181.249 487.02 181.669 486.969 182.079 486.866C182.499 486.754 182.845 486.619 183.115 486.46V487.748C182.891 487.823 182.583 487.902 182.191 487.986C181.799 488.07 181.314 488.112 180.735 488.112C179.522 488.112 178.589 487.776 177.935 487.104C177.291 486.432 176.969 485.499 176.969 484.304C176.969 483.763 177.053 483.273 177.221 482.834C177.399 482.395 177.637 482.022 177.935 481.714C178.243 481.406 178.603 481.168 179.013 481C179.424 480.832 179.867 480.748 180.343 480.748C181.361 480.748 182.159 481.047 182.737 481.644C183.316 482.241 183.605 483.147 183.605 484.36V484.724H178.327ZM180.329 481.812C179.779 481.812 179.326 481.989 178.971 482.344C178.626 482.689 178.411 483.156 178.327 483.744H182.205C182.205 483.128 182.028 482.652 181.673 482.316C181.319 481.98 180.871 481.812 180.329 481.812ZM190.027 487.062H190.083C190.288 487.323 190.587 487.566 190.979 487.79C191.38 488.005 191.87 488.112 192.449 488.112C192.953 488.112 193.405 488.014 193.807 487.818C194.208 487.613 194.549 487.342 194.829 487.006C195.109 486.661 195.319 486.264 195.459 485.816C195.608 485.359 195.683 484.878 195.683 484.374C195.683 483.861 195.608 483.385 195.459 482.946C195.309 482.498 195.095 482.111 194.815 481.784C194.535 481.457 194.189 481.205 193.779 481.028C193.368 480.841 192.901 480.748 192.379 480.748C192.239 480.748 192.071 480.762 191.875 480.79C191.679 480.809 191.473 480.86 191.258 480.944C191.044 481.019 190.825 481.131 190.601 481.28C190.386 481.429 190.185 481.63 189.999 481.882H189.971V480.86H188.711V491.136H190.027V487.062ZM192.141 487.048C191.497 487.048 190.983 486.815 190.601 486.348C190.218 485.872 190.027 485.237 190.027 484.444C190.027 483.641 190.218 483.002 190.601 482.526C190.993 482.05 191.52 481.812 192.183 481.812C192.827 481.812 193.335 482.041 193.709 482.498C194.091 482.955 194.283 483.567 194.283 484.332C194.283 485.163 194.087 485.825 193.695 486.32C193.312 486.805 192.794 487.048 192.141 487.048ZM197.753 477.332H199.069V488H197.753V477.332ZM207.819 488H206.503V486.978H206.475C206.205 487.361 205.864 487.645 205.453 487.832C205.052 488.019 204.599 488.112 204.095 488.112C203.255 488.112 202.593 487.865 202.107 487.37C201.622 486.866 201.379 486.096 201.379 485.06V480.86H202.695V484.64C202.695 485.107 202.733 485.494 202.807 485.802C202.891 486.11 203.003 486.357 203.143 486.544C203.293 486.721 203.47 486.852 203.675 486.936C203.89 487.011 204.123 487.048 204.375 487.048C205.019 487.048 205.533 486.819 205.915 486.362C206.307 485.895 206.503 485.181 206.503 484.22V480.86H207.819V488ZM212.85 491.192C212.477 491.192 212.132 491.169 211.814 491.122C211.497 491.075 211.217 491.019 210.974 490.954C210.694 490.889 210.438 490.809 210.204 490.716V489.456C210.438 489.577 210.694 489.689 210.974 489.792C211.217 489.876 211.497 489.951 211.814 490.016C212.132 490.091 212.477 490.128 212.85 490.128C214.502 490.128 215.328 489.297 215.328 487.636V486.894H215.286C215.053 487.239 214.726 487.51 214.306 487.706C213.896 487.902 213.443 488 212.948 488C212.482 488 212.048 487.916 211.646 487.748C211.254 487.58 210.909 487.342 210.61 487.034C210.321 486.717 210.092 486.339 209.924 485.9C209.756 485.452 209.672 484.948 209.672 484.388C209.672 483.809 209.761 483.296 209.938 482.848C210.116 482.391 210.354 482.008 210.652 481.7C210.96 481.392 211.32 481.159 211.73 481C212.141 480.832 212.58 480.748 213.046 480.748C213.588 480.748 214.045 480.86 214.418 481.084C214.792 481.308 215.109 481.574 215.37 481.882H215.412V480.86H216.644V487.636C216.644 488.831 216.336 489.722 215.72 490.31C215.114 490.898 214.157 491.192 212.85 491.192ZM213.228 486.936C213.518 486.936 213.788 486.88 214.04 486.768C214.302 486.656 214.526 486.493 214.712 486.278C214.899 486.054 215.044 485.788 215.146 485.48C215.258 485.163 215.314 484.799 215.314 484.388C215.314 483.968 215.258 483.599 215.146 483.282C215.034 482.955 214.88 482.685 214.684 482.47C214.488 482.246 214.26 482.083 213.998 481.98C213.737 481.868 213.452 481.812 213.144 481.812C212.855 481.812 212.584 481.863 212.332 481.966C212.08 482.069 211.861 482.227 211.674 482.442C211.488 482.647 211.338 482.909 211.226 483.226C211.124 483.534 211.072 483.893 211.072 484.304C211.072 484.715 211.128 485.083 211.24 485.41C211.362 485.727 211.52 486.003 211.716 486.236C211.912 486.46 212.141 486.633 212.402 486.754C212.664 486.875 212.939 486.936 213.228 486.936ZM219.177 480.86H220.493V488H219.177V480.86ZM219.107 477.92H220.591V479.404H219.107V477.92ZM223.027 480.86H224.343V481.882H224.371C224.642 481.499 224.978 481.215 225.379 481.028C225.79 480.841 226.247 480.748 226.751 480.748C227.591 480.748 228.254 481 228.739 481.504C229.225 481.999 229.467 482.764 229.467 483.8V488H228.151V484.22C228.151 483.763 228.109 483.38 228.025 483.072C227.951 482.755 227.839 482.507 227.689 482.33C227.549 482.143 227.372 482.013 227.157 481.938C226.952 481.854 226.723 481.812 226.471 481.812C225.827 481.812 225.309 482.045 224.917 482.512C224.535 482.969 224.343 483.679 224.343 484.64V488H223.027V480.86ZM233.861 480.86H235.303L236.899 486.544L238.733 480.86H239.853L241.673 486.572L243.395 480.86H244.683L242.373 488H240.987L239.223 482.596L237.543 488H236.157L233.861 480.86ZM249.106 488.112C248.564 488.112 248.07 488.023 247.622 487.846C247.174 487.669 246.786 487.417 246.46 487.09C246.142 486.763 245.895 486.376 245.718 485.928C245.54 485.48 245.452 484.981 245.452 484.43C245.452 483.889 245.54 483.394 245.718 482.946C245.895 482.489 246.142 482.097 246.46 481.77C246.786 481.443 247.174 481.191 247.622 481.014C248.07 480.837 248.564 480.748 249.106 480.748C249.647 480.748 250.142 480.837 250.59 481.014C251.038 481.191 251.42 481.443 251.738 481.77C252.064 482.097 252.316 482.489 252.494 482.946C252.671 483.394 252.76 483.889 252.76 484.43C252.76 484.981 252.671 485.48 252.494 485.928C252.316 486.376 252.064 486.763 251.738 487.09C251.42 487.417 251.038 487.669 250.59 487.846C250.142 488.023 249.647 488.112 249.106 488.112ZM249.106 487.048C249.414 487.048 249.703 486.987 249.974 486.866C250.254 486.745 250.492 486.572 250.688 486.348C250.893 486.115 251.056 485.839 251.178 485.522C251.299 485.195 251.36 484.831 251.36 484.43C251.36 484.029 251.299 483.669 251.178 483.352C251.056 483.025 250.893 482.75 250.688 482.526C250.482 482.293 250.244 482.115 249.974 481.994C249.703 481.873 249.414 481.812 249.106 481.812C248.798 481.812 248.504 481.873 248.224 481.994C247.953 482.115 247.715 482.293 247.51 482.526C247.314 482.75 247.155 483.025 247.034 483.352C246.912 483.669 246.852 484.029 246.852 484.43C246.852 484.831 246.912 485.195 247.034 485.522C247.155 485.839 247.314 486.115 247.51 486.348C247.715 486.572 247.953 486.745 248.224 486.866C248.504 486.987 248.798 487.048 249.106 487.048ZM254.609 480.86H255.841V482.022H255.869C256.103 481.565 256.383 481.238 256.709 481.042C257.045 480.846 257.447 480.748 257.913 480.748C258.044 480.748 258.175 480.757 258.305 480.776C258.445 480.785 258.59 480.799 258.739 480.818V481.966C258.599 481.947 258.464 481.933 258.333 481.924C258.203 481.905 258.077 481.896 257.955 481.896C257.237 481.896 256.719 482.143 256.401 482.638C256.084 483.133 255.925 483.856 255.925 484.808V488H254.609V480.86ZM260.283 477.36H261.599V484.192L265.057 480.86H266.695L263.517 483.828L266.737 488H265.127L262.593 484.64L261.599 485.578V488H260.283V477.36Z" fill="#7B7E86"/>
<defs>
<filter id="filter0_i_632_16520" x="41" y="305" width="380" height="48" filterUnits="userSpaceOnUse" color-interpolation-filters="sRGB">
<feFlood flood-opacity="0" result="BackgroundImageFix"/>
<feBlend mode="normal" in="SourceGraphic" in2="BackgroundImageFix" result="shape"/>
<feColorMatrix in="SourceAlpha" type="matrix" values="0 0 0 0 0 0 0 0 0 0 0 0 0 0 0 0 0 0 127 0" result="hardAlpha"/>
<feOffset dx="4"/>
<feComposite in2="hardAlpha" operator="arithmetic" k2="-1" k3="1"/>
<feColorMatrix type="matrix" values="0 0 0 0 0.85098 0 0 0 0 0.12549 0 0 0 0 0.12549 0 0 0 1 0"/>
<feBlend mode="normal" in2="shape" result="effect1_innerShadow_632_16520"/>
</filter>
<clipPath id="clip0_632_16520">
<rect width="140" height="20" fill="white" transform="translate(41 369)"/>
</clipPath>
<clipPath id="clip1_632_16520">
<rect width="117" height="20" fill="white" transform="translate(41 401)"/>
</clipPath>
</defs>
</svg>
