<svg width="462" height="434" viewBox="0 0 462 434" fill="none" xmlns="http://www.w3.org/2000/svg">
<rect x="1" y="1" width="460" height="432" rx="8" fill="white"/>
<rect x="1" y="1" width="460" height="432" rx="8" stroke="black" stroke-width="2"/>
<path d="M41.288 55.2H43.904L48.92 69.888H48.992L54.032 55.2H56.552L50.408 72H47.408L41.288 55.2ZM62.6221 57.312H57.4861V55.2H70.1101V57.312H64.9741V72H62.6221V57.312ZM72.7398 55.2H77.7078C78.7798 55.2 79.6918 55.304 80.4438 55.512C81.2118 55.704 81.8358 55.992 82.3158 56.376C82.7958 56.744 83.1478 57.2 83.3718 57.744C83.5958 58.272 83.7078 58.864 83.7078 59.52C83.7078 60.432 83.4598 61.216 82.9638 61.872C82.4838 62.528 81.6998 63 80.6118 63.288V63.336C81.8918 63.608 82.8038 64.104 83.3478 64.824C83.9078 65.528 84.1878 66.392 84.1878 67.416C84.1878 68.872 83.7238 70 82.7958 70.8C81.8838 71.6 80.3478 72 78.1878 72H72.7398V55.2ZM78.1878 70.032C79.3878 70.032 80.2598 69.784 80.8038 69.288C81.3638 68.792 81.6438 68.088 81.6438 67.176C81.6438 66.28 81.3638 65.584 80.8038 65.088C80.2598 64.592 79.3878 64.344 78.1878 64.344H75.0918V70.032H78.1878ZM77.7078 62.376C78.9878 62.376 79.8998 62.144 80.4438 61.68C81.0038 61.2 81.2838 60.56 81.2838 59.76C81.2838 58.976 81.0038 58.352 80.4438 57.888C79.8998 57.408 78.9878 57.168 77.7078 57.168H75.0918V62.376H77.7078ZM92.9195 55.2H97.8875C98.9595 55.2 99.8715 55.304 100.624 55.512C101.392 55.704 102.016 55.992 102.496 56.376C102.976 56.744 103.328 57.2 103.552 57.744C103.776 58.272 103.888 58.864 103.888 59.52C103.888 60.432 103.64 61.216 103.144 61.872C102.664 62.528 101.88 63 100.792 63.288V63.336C102.072 63.608 102.984 64.104 103.528 64.824C104.088 65.528 104.368 66.392 104.368 67.416C104.368 68.872 103.904 70 102.976 70.8C102.064 71.6 100.528 72 98.3675 72H92.9195V55.2ZM98.3675 70.032C99.5675 70.032 100.44 69.784 100.984 69.288C101.544 68.792 101.824 68.088 101.824 67.176C101.824 66.28 101.544 65.584 100.984 65.088C100.44 64.592 99.5675 64.344 98.3675 64.344H95.2715V70.032H98.3675ZM97.8875 62.376C99.1675 62.376 100.08 62.144 100.624 61.68C101.184 61.2 101.464 60.56 101.464 59.76C101.464 58.976 101.184 58.352 100.624 57.888C100.08 57.408 99.1675 57.168 97.8875 57.168H95.2715V62.376H97.8875ZM117.984 72H115.728V70.248H115.68C115.216 70.904 114.632 71.392 113.928 71.712C113.24 72.032 112.464 72.192 111.6 72.192C110.16 72.192 109.024 71.768 108.192 70.92C107.36 70.056 106.944 68.736 106.944 66.96V59.76H109.2V66.24C109.2 67.04 109.264 67.704 109.392 68.232C109.536 68.76 109.728 69.184 109.968 69.504C110.224 69.808 110.528 70.032 110.88 70.176C111.248 70.304 111.648 70.368 112.08 70.368C113.184 70.368 114.064 69.976 114.72 69.192C115.392 68.392 115.728 67.168 115.728 65.52V59.76H117.984V72ZM125.072 72.192C124.256 72.192 123.552 72.128 122.96 72C122.384 71.856 121.872 71.696 121.424 71.52V69.528C122.24 69.896 122.944 70.128 123.536 70.224C124.144 70.304 124.584 70.344 124.856 70.344C125.784 70.344 126.456 70.184 126.872 69.864C127.288 69.528 127.496 69.152 127.496 68.736C127.496 68.48 127.424 68.264 127.28 68.088C127.152 67.896 126.976 67.72 126.752 67.56C126.528 67.4 126.264 67.256 125.96 67.128C125.656 66.984 125.336 66.84 125 66.696C124.536 66.488 124.08 66.28 123.632 66.072C123.2 65.848 122.816 65.6 122.48 65.328C122.144 65.04 121.872 64.704 121.664 64.32C121.456 63.936 121.352 63.472 121.352 62.928C121.352 61.92 121.752 61.112 122.552 60.504C123.368 59.88 124.552 59.568 126.104 59.568C126.904 59.568 127.608 59.632 128.216 59.76C128.824 59.888 129.216 59.984 129.392 60.048V61.968C128.928 61.776 128.432 61.64 127.904 61.56C127.392 61.48 126.88 61.44 126.368 61.44C125.456 61.44 124.8 61.568 124.4 61.824C124 62.064 123.8 62.392 123.8 62.808C123.8 63.048 123.864 63.264 123.992 63.456C124.12 63.632 124.288 63.8 124.496 63.96C124.72 64.104 124.976 64.248 125.264 64.392C125.552 64.52 125.856 64.656 126.176 64.8C126.608 64.992 127.048 65.192 127.496 65.4C127.96 65.592 128.376 65.832 128.744 66.12C129.128 66.408 129.432 66.752 129.656 67.152C129.896 67.552 130.016 68.048 130.016 68.64C130.016 69.696 129.584 70.552 128.72 71.208C127.872 71.864 126.656 72.192 125.072 72.192ZM133.375 59.76H135.631V72H133.375V59.76ZM133.255 54.72H135.799V57.264H133.255V54.72ZM139.976 59.76H142.232V61.512H142.28C142.744 60.856 143.32 60.368 144.008 60.048C144.712 59.728 145.496 59.568 146.36 59.568C147.8 59.568 148.936 60 149.768 60.864C150.6 61.712 151.016 63.024 151.016 64.8V72H148.76V65.52C148.76 64.736 148.688 64.08 148.544 63.552C148.416 63.008 148.224 62.584 147.968 62.28C147.728 61.96 147.424 61.736 147.056 61.608C146.704 61.464 146.312 61.392 145.88 61.392C144.776 61.392 143.888 61.792 143.216 62.592C142.56 63.376 142.232 64.592 142.232 66.24V72H139.976V59.76ZM156.137 66.384C156.265 67.648 156.697 68.624 157.433 69.312C158.169 69.984 159.161 70.32 160.409 70.32C161.145 70.32 161.865 70.232 162.569 70.056C163.289 69.864 163.881 69.632 164.345 69.36V71.568C163.961 71.696 163.433 71.832 162.761 71.976C162.089 72.12 161.257 72.192 160.265 72.192C158.185 72.192 156.585 71.616 155.465 70.464C154.361 69.312 153.809 67.712 153.809 65.664C153.809 64.736 153.953 63.896 154.241 63.144C154.545 62.392 154.953 61.752 155.465 61.224C155.993 60.696 156.609 60.288 157.313 60C158.017 59.712 158.777 59.568 159.593 59.568C161.337 59.568 162.705 60.08 163.697 61.104C164.689 62.128 165.185 63.68 165.185 65.76V66.384H156.137ZM159.569 61.392C158.625 61.392 157.849 61.696 157.241 62.304C156.649 62.896 156.281 63.696 156.137 64.704H162.785C162.785 63.648 162.481 62.832 161.873 62.256C161.265 61.68 160.497 61.392 159.569 61.392ZM171.526 72.192C170.71 72.192 170.006 72.128 169.414 72C168.838 71.856 168.326 71.696 167.878 71.52V69.528C168.694 69.896 169.398 70.128 169.99 70.224C170.598 70.304 171.038 70.344 171.31 70.344C172.238 70.344 172.91 70.184 173.326 69.864C173.742 69.528 173.95 69.152 173.95 68.736C173.95 68.48 173.878 68.264 173.734 68.088C173.606 67.896 173.43 67.72 173.206 67.56C172.982 67.4 172.718 67.256 172.414 67.128C172.11 66.984 171.79 66.84 171.454 66.696C170.99 66.488 170.534 66.28 170.086 66.072C169.654 65.848 169.27 65.6 168.934 65.328C168.598 65.04 168.326 64.704 168.118 64.32C167.91 63.936 167.806 63.472 167.806 62.928C167.806 61.92 168.206 61.112 169.006 60.504C169.822 59.88 171.006 59.568 172.558 59.568C173.358 59.568 174.062 59.632 174.67 59.76C175.278 59.888 175.67 59.984 175.846 60.048V61.968C175.382 61.776 174.886 61.64 174.358 61.56C173.846 61.48 173.334 61.44 172.822 61.44C171.91 61.44 171.254 61.568 170.854 61.824C170.454 62.064 170.254 62.392 170.254 62.808C170.254 63.048 170.318 63.264 170.446 63.456C170.574 63.632 170.742 63.8 170.95 63.96C171.174 64.104 171.43 64.248 171.718 64.392C172.006 64.52 172.31 64.656 172.63 64.8C173.062 64.992 173.502 65.192 173.95 65.4C174.414 65.592 174.83 65.832 175.198 66.12C175.582 66.408 175.886 66.752 176.11 67.152C176.35 67.552 176.47 68.048 176.47 68.64C176.47 69.696 176.038 70.552 175.174 71.208C174.326 71.864 173.11 72.192 171.526 72.192ZM182.799 72.192C181.983 72.192 181.279 72.128 180.687 72C180.111 71.856 179.599 71.696 179.151 71.52V69.528C179.967 69.896 180.671 70.128 181.263 70.224C181.871 70.304 182.311 70.344 182.583 70.344C183.511 70.344 184.183 70.184 184.599 69.864C185.015 69.528 185.223 69.152 185.223 68.736C185.223 68.48 185.151 68.264 185.007 68.088C184.879 67.896 184.703 67.72 184.479 67.56C184.255 67.4 183.991 67.256 183.687 67.128C183.383 66.984 183.063 66.84 182.727 66.696C182.263 66.488 181.807 66.28 181.359 66.072C180.927 65.848 180.543 65.6 180.207 65.328C179.871 65.04 179.599 64.704 179.391 64.32C179.183 63.936 179.079 63.472 179.079 62.928C179.079 61.92 179.479 61.112 180.279 60.504C181.095 59.88 182.279 59.568 183.831 59.568C184.631 59.568 185.335 59.632 185.943 59.76C186.551 59.888 186.943 59.984 187.119 60.048V61.968C186.655 61.776 186.159 61.64 185.631 61.56C185.119 61.48 184.607 61.44 184.095 61.44C183.183 61.44 182.527 61.568 182.127 61.824C181.727 62.064 181.527 62.392 181.527 62.808C181.527 63.048 181.591 63.264 181.719 63.456C181.847 63.632 182.015 63.8 182.223 63.96C182.447 64.104 182.703 64.248 182.991 64.392C183.279 64.52 183.583 64.656 183.903 64.8C184.335 64.992 184.775 65.192 185.223 65.4C185.687 65.592 186.103 65.832 186.471 66.12C186.855 66.408 187.159 66.752 187.383 67.152C187.623 67.552 187.743 68.048 187.743 68.64C187.743 69.696 187.311 70.552 186.447 71.208C185.599 71.864 184.383 72.192 182.799 72.192Z" fill="#22242A"/>
<rect x="41.5" y="109.5" width="379" height="55" rx="3.5" fill="white"/>
<rect x="41.5" y="109.5" width="379" height="55" rx="3.5" stroke="#B1B5BB"/>
<path d="M58.488 131.8H60.056V141.592H65.064V143H58.488V131.8ZM70.0381 143.128C69.4195 143.128 68.8541 143.027 68.3421 142.824C67.8301 142.621 67.3875 142.333 67.0141 141.96C66.6515 141.587 66.3688 141.144 66.1661 140.632C65.9635 140.12 65.8621 139.549 65.8621 138.92C65.8621 138.301 65.9635 137.736 66.1661 137.224C66.3688 136.701 66.6515 136.253 67.0141 135.88C67.3875 135.507 67.8301 135.219 68.3421 135.016C68.8541 134.813 69.4195 134.712 70.0381 134.712C70.6568 134.712 71.2221 134.813 71.7341 135.016C72.2461 135.219 72.6835 135.507 73.0461 135.88C73.4195 136.253 73.7075 136.701 73.9101 137.224C74.1128 137.736 74.2141 138.301 74.2141 138.92C74.2141 139.549 74.1128 140.12 73.9101 140.632C73.7075 141.144 73.4195 141.587 73.0461 141.96C72.6835 142.333 72.2461 142.621 71.7341 142.824C71.2221 143.027 70.6568 143.128 70.0381 143.128ZM70.0381 141.912C70.3901 141.912 70.7208 141.843 71.0301 141.704C71.3501 141.565 71.6221 141.368 71.8461 141.112C72.0808 140.845 72.2675 140.531 72.4061 140.168C72.5448 139.795 72.6141 139.379 72.6141 138.92C72.6141 138.461 72.5448 138.051 72.4061 137.688C72.2675 137.315 72.0808 137 71.8461 136.744C71.6115 136.477 71.3395 136.275 71.0301 136.136C70.7208 135.997 70.3901 135.928 70.0381 135.928C69.6861 135.928 69.3501 135.997 69.0301 136.136C68.7208 136.275 68.4488 136.477 68.2141 136.744C67.9901 137 67.8088 137.315 67.6701 137.688C67.5315 138.051 67.4621 138.461 67.4621 138.92C67.4621 139.379 67.5315 139.795 67.6701 140.168C67.8088 140.531 67.9901 140.845 68.2141 141.112C68.4488 141.368 68.7208 141.565 69.0301 141.704C69.3501 141.843 69.6861 141.912 70.0381 141.912ZM79.416 146.648C78.9893 146.648 78.5947 146.621 78.232 146.568C77.8693 146.515 77.5493 146.451 77.272 146.376C76.952 146.301 76.6587 146.211 76.392 146.104V144.664C76.6587 144.803 76.952 144.931 77.272 145.048C77.5493 145.144 77.8693 145.229 78.232 145.304C78.5947 145.389 78.9893 145.432 79.416 145.432C81.304 145.432 82.248 144.483 82.248 142.584V141.736H82.2C81.9333 142.131 81.56 142.44 81.08 142.664C80.6107 142.888 80.0933 143 79.528 143C78.9947 143 78.4987 142.904 78.04 142.712C77.592 142.52 77.1973 142.248 76.856 141.896C76.5253 141.533 76.264 141.101 76.072 140.6C75.88 140.088 75.784 139.512 75.784 138.872C75.784 138.211 75.8853 137.624 76.088 137.112C76.2907 136.589 76.5627 136.152 76.904 135.8C77.256 135.448 77.6667 135.181 78.136 135C78.6053 134.808 79.1067 134.712 79.64 134.712C80.2587 134.712 80.7813 134.84 81.208 135.096C81.6347 135.352 81.9973 135.656 82.296 136.008H82.344V134.84H83.752V142.584C83.752 143.949 83.4 144.968 82.696 145.64C82.0027 146.312 80.9093 146.648 79.416 146.648ZM79.848 141.784C80.1787 141.784 80.488 141.72 80.776 141.592C81.0747 141.464 81.3307 141.277 81.544 141.032C81.7573 140.776 81.9227 140.472 82.04 140.12C82.168 139.757 82.232 139.341 82.232 138.872C82.232 138.392 82.168 137.971 82.04 137.608C81.912 137.235 81.736 136.925 81.512 136.68C81.288 136.424 81.0267 136.237 80.728 136.12C80.4293 135.992 80.104 135.928 79.752 135.928C79.4213 135.928 79.112 135.987 78.824 136.104C78.536 136.221 78.2853 136.403 78.072 136.648C77.8587 136.883 77.688 137.181 77.56 137.544C77.4427 137.896 77.384 138.307 77.384 138.776C77.384 139.245 77.448 139.667 77.576 140.04C77.7147 140.403 77.896 140.717 78.12 140.984C78.344 141.24 78.6053 141.437 78.904 141.576C79.2027 141.715 79.5173 141.784 79.848 141.784ZM86.6461 134.84H88.1501V143H86.6461V134.84ZM86.5661 131.48H88.2621V133.176H86.5661V131.48ZM91.0468 134.84H92.5508V136.008H92.5828C92.8921 135.571 93.2761 135.245 93.7348 135.032C94.2041 134.819 94.7268 134.712 95.3028 134.712C96.2628 134.712 97.0201 135 97.5748 135.576C98.1294 136.141 98.4068 137.016 98.4068 138.2V143H96.9028V138.68C96.9028 138.157 96.8548 137.72 96.7588 137.368C96.6734 137.005 96.5454 136.723 96.3748 136.52C96.2148 136.307 96.0121 136.157 95.7668 136.072C95.5321 135.976 95.2708 135.928 94.9828 135.928C94.2468 135.928 93.6548 136.195 93.2068 136.728C92.7694 137.251 92.5508 138.061 92.5508 139.16V143H91.0468V134.84Z" fill="#7B7E86"/>
<rect x="41.5" y="189.5" width="379" height="55" rx="3.5" fill="white"/>
<rect x="41.5" y="189.5" width="379" height="55" rx="3.5" stroke="#B1B5BB"/>
<path d="M58.488 211.8H62.072C63.4587 211.8 64.4827 212.109 65.144 212.728C65.8053 213.336 66.136 214.205 66.136 215.336C66.136 216.467 65.8053 217.341 65.144 217.96C64.4827 218.568 63.4587 218.872 62.072 218.872H60.056V223H58.488V211.8ZM62.072 217.464C62.8933 217.464 63.496 217.288 63.88 216.936C64.2747 216.573 64.472 216.04 64.472 215.336C64.472 214.632 64.2747 214.104 63.88 213.752C63.496 213.389 62.8933 213.208 62.072 213.208H60.056V217.464H62.072ZM69.7834 223.128C68.93 223.128 68.2527 222.915 67.7514 222.488C67.25 222.051 66.9994 221.448 66.9994 220.68C66.9994 219.784 67.3407 219.101 68.0234 218.632C68.7167 218.152 69.778 217.912 71.2074 217.912H72.7114V217.64C72.7114 217.053 72.5087 216.627 72.1034 216.36C71.698 216.093 71.1594 215.96 70.4874 215.96C70.05 215.96 69.6074 216.013 69.1594 216.12C68.7114 216.216 68.242 216.397 67.7514 216.664V215.256C68.1567 215.075 68.6207 214.941 69.1434 214.856C69.666 214.76 70.178 214.712 70.6794 214.712C71.7994 214.712 72.6687 214.968 73.2874 215.48C73.906 215.981 74.2154 216.797 74.2154 217.928V223H72.6794V221.752H72.6474C72.306 222.253 71.8687 222.611 71.3354 222.824C70.8127 223.027 70.2954 223.128 69.7834 223.128ZM70.1514 221.848C70.5247 221.848 70.866 221.789 71.1754 221.672C71.4954 221.555 71.7674 221.395 71.9914 221.192C72.2154 220.979 72.3914 220.733 72.5194 220.456C72.6474 220.179 72.7114 219.885 72.7114 219.576V219.064H71.2714C70.77 219.064 70.3487 219.101 70.0074 219.176C69.6767 219.251 69.4047 219.357 69.1914 219.496C68.978 219.635 68.8234 219.795 68.7274 219.976C68.642 220.157 68.5994 220.36 68.5994 220.584C68.5994 220.989 68.738 221.304 69.0154 221.528C69.2927 221.741 69.6714 221.848 70.1514 221.848ZM78.6733 223.128C78.1293 223.128 77.6599 223.085 77.2653 223C76.8813 222.904 76.5399 222.797 76.2413 222.68V221.352C76.7853 221.597 77.2546 221.752 77.6493 221.816C78.0546 221.869 78.3479 221.896 78.5293 221.896C79.1479 221.896 79.5959 221.789 79.8733 221.576C80.1506 221.352 80.2893 221.101 80.2893 220.824C80.2893 220.653 80.2413 220.509 80.1453 220.392C80.0599 220.264 79.9426 220.147 79.7933 220.04C79.6439 219.933 79.4679 219.837 79.2653 219.752C79.0626 219.656 78.8493 219.56 78.6253 219.464C78.3159 219.325 78.0119 219.187 77.7133 219.048C77.4253 218.899 77.1693 218.733 76.9453 218.552C76.7213 218.36 76.5399 218.136 76.4013 217.88C76.2626 217.624 76.1933 217.315 76.1933 216.952C76.1933 216.28 76.4599 215.741 76.9933 215.336C77.5373 214.92 78.3266 214.712 79.3613 214.712C79.8946 214.712 80.3639 214.755 80.7693 214.84C81.1746 214.925 81.4359 214.989 81.5533 215.032V216.312C81.2439 216.184 80.9133 216.093 80.5613 216.04C80.2199 215.987 79.8786 215.96 79.5373 215.96C78.9293 215.96 78.4919 216.045 78.2253 216.216C77.9586 216.376 77.8253 216.595 77.8253 216.872C77.8253 217.032 77.8679 217.176 77.9533 217.304C78.0386 217.421 78.1506 217.533 78.2893 217.64C78.4386 217.736 78.6093 217.832 78.8013 217.928C78.9933 218.013 79.1959 218.104 79.4093 218.2C79.6973 218.328 79.9906 218.461 80.2893 218.6C80.5986 218.728 80.8759 218.888 81.1213 219.08C81.3773 219.272 81.5799 219.501 81.7293 219.768C81.8893 220.035 81.9693 220.365 81.9693 220.76C81.9693 221.464 81.6813 222.035 81.1053 222.472C80.5399 222.909 79.7293 223.128 78.6733 223.128ZM86.1889 223.128C85.6449 223.128 85.1755 223.085 84.7809 223C84.3969 222.904 84.0555 222.797 83.7569 222.68V221.352C84.3009 221.597 84.7702 221.752 85.1649 221.816C85.5702 221.869 85.8635 221.896 86.0449 221.896C86.6635 221.896 87.1115 221.789 87.3889 221.576C87.6662 221.352 87.8049 221.101 87.8049 220.824C87.8049 220.653 87.7569 220.509 87.6609 220.392C87.5755 220.264 87.4582 220.147 87.3089 220.04C87.1595 219.933 86.9835 219.837 86.7809 219.752C86.5782 219.656 86.3649 219.56 86.1409 219.464C85.8315 219.325 85.5275 219.187 85.2289 219.048C84.9409 218.899 84.6849 218.733 84.4609 218.552C84.2369 218.36 84.0555 218.136 83.9169 217.88C83.7782 217.624 83.7089 217.315 83.7089 216.952C83.7089 216.28 83.9755 215.741 84.5089 215.336C85.0529 214.92 85.8422 214.712 86.8769 214.712C87.4102 214.712 87.8795 214.755 88.2849 214.84C88.6902 214.925 88.9515 214.989 89.0689 215.032V216.312C88.7595 216.184 88.4289 216.093 88.0769 216.04C87.7355 215.987 87.3942 215.96 87.0529 215.96C86.4449 215.96 86.0075 216.045 85.7409 216.216C85.4742 216.376 85.3409 216.595 85.3409 216.872C85.3409 217.032 85.3835 217.176 85.4689 217.304C85.5542 217.421 85.6662 217.533 85.8049 217.64C85.9542 217.736 86.1249 217.832 86.3169 217.928C86.5089 218.013 86.7115 218.104 86.9249 218.2C87.2129 218.328 87.5062 218.461 87.8049 218.6C88.1142 218.728 88.3915 218.888 88.6369 219.08C88.8929 219.272 89.0955 219.501 89.2449 219.768C89.4049 220.035 89.4849 220.365 89.4849 220.76C89.4849 221.464 89.1969 222.035 88.6209 222.472C88.0555 222.909 87.2449 223.128 86.1889 223.128ZM90.4904 214.84H92.1384L93.9624 221.336L96.0584 214.84H97.3384L99.4184 221.368L101.386 214.84H102.858L100.218 223H98.6344L96.6184 216.824L94.6984 223H93.1144L90.4904 214.84ZM107.913 223.128C107.294 223.128 106.729 223.027 106.217 222.824C105.705 222.621 105.262 222.333 104.889 221.96C104.526 221.587 104.244 221.144 104.041 220.632C103.838 220.12 103.737 219.549 103.737 218.92C103.737 218.301 103.838 217.736 104.041 217.224C104.244 216.701 104.526 216.253 104.889 215.88C105.262 215.507 105.705 215.219 106.217 215.016C106.729 214.813 107.294 214.712 107.913 214.712C108.532 214.712 109.097 214.813 109.609 215.016C110.121 215.219 110.558 215.507 110.921 215.88C111.294 216.253 111.582 216.701 111.785 217.224C111.988 217.736 112.089 218.301 112.089 218.92C112.089 219.549 111.988 220.12 111.785 220.632C111.582 221.144 111.294 221.587 110.921 221.96C110.558 222.333 110.121 222.621 109.609 222.824C109.097 223.027 108.532 223.128 107.913 223.128ZM107.913 221.912C108.265 221.912 108.596 221.843 108.905 221.704C109.225 221.565 109.497 221.368 109.721 221.112C109.956 220.845 110.142 220.531 110.281 220.168C110.42 219.795 110.489 219.379 110.489 218.92C110.489 218.461 110.42 218.051 110.281 217.688C110.142 217.315 109.956 217 109.721 216.744C109.486 216.477 109.214 216.275 108.905 216.136C108.596 215.997 108.265 215.928 107.913 215.928C107.561 215.928 107.225 215.997 106.905 216.136C106.596 216.275 106.324 216.477 106.089 216.744C105.865 217 105.684 217.315 105.545 217.688C105.406 218.051 105.337 218.461 105.337 218.92C105.337 219.379 105.406 219.795 105.545 220.168C105.684 220.531 105.865 220.845 106.089 221.112C106.324 221.368 106.596 221.565 106.905 221.704C107.225 221.843 107.561 221.912 107.913 221.912ZM114.203 214.84H115.611V216.168H115.643C115.91 215.645 116.23 215.272 116.603 215.048C116.987 214.824 117.446 214.712 117.979 214.712C118.128 214.712 118.278 214.723 118.427 214.744C118.587 214.755 118.752 214.771 118.923 214.792V216.104C118.763 216.083 118.608 216.067 118.459 216.056C118.31 216.035 118.166 216.024 118.027 216.024C117.206 216.024 116.614 216.307 116.251 216.872C115.888 217.437 115.707 218.264 115.707 219.352V223H114.203V214.84ZM123.779 223.128C123.203 223.128 122.68 223.021 122.211 222.808C121.742 222.595 121.342 222.296 121.011 221.912C120.68 221.528 120.424 221.075 120.243 220.552C120.072 220.019 119.987 219.443 119.987 218.824C119.987 218.237 120.078 217.693 120.259 217.192C120.44 216.691 120.696 216.259 121.027 215.896C121.358 215.523 121.752 215.235 122.211 215.032C122.68 214.819 123.192 214.712 123.747 214.712C124.366 214.712 124.888 214.829 125.315 215.064C125.752 215.299 126.12 215.587 126.419 215.928H126.451V210.84H127.955V223H126.515V221.848H126.419C126.11 222.243 125.742 222.557 125.315 222.792C124.899 223.016 124.387 223.128 123.779 223.128ZM124.035 221.912C124.387 221.912 124.712 221.837 125.011 221.688C125.31 221.539 125.566 221.336 125.779 221.08C125.992 220.813 126.158 220.499 126.275 220.136C126.392 219.773 126.451 219.373 126.451 218.936C126.451 218.499 126.387 218.099 126.259 217.736C126.142 217.363 125.976 217.043 125.763 216.776C125.55 216.509 125.294 216.301 124.995 216.152C124.696 216.003 124.366 215.928 124.003 215.928C123.662 215.928 123.342 216.003 123.043 216.152C122.744 216.301 122.488 216.509 122.275 216.776C122.062 217.032 121.891 217.341 121.763 217.704C121.646 218.067 121.587 218.461 121.587 218.888C121.587 219.325 121.646 219.731 121.763 220.104C121.891 220.467 122.062 220.787 122.275 221.064C122.499 221.331 122.76 221.539 123.059 221.688C123.358 221.837 123.683 221.912 124.035 221.912Z" fill="#7B7E86"/>
<path d="M392.305 214.081C392.681 213.992 392.999 214.313 392.999 214.7V215.7C392.999 216.418 393.581 217 394.299 217H395.299C395.686 217 396.007 217.318 395.918 217.694C395.605 219.016 394.417 220 392.999 220C391.342 220 389.999 218.657 389.999 217C389.999 215.582 390.983 214.394 392.305 214.081Z" fill="#B1B5BB"/>
<path fill-rule="evenodd" clip-rule="evenodd" d="M392.999 210C388.118 210 384.865 213.655 383.436 215.683C382.873 216.481 382.873 217.519 383.436 218.317C384.865 220.345 388.118 224 392.999 224C397.88 224 401.133 220.345 402.562 218.317C403.125 217.519 403.125 216.481 402.562 215.683C401.133 213.655 397.88 210 392.999 210ZM386.708 213.927C385.761 214.778 385.02 215.691 384.498 216.431C384.252 216.781 384.252 217.219 384.498 217.569C385.02 218.309 385.761 219.222 386.708 220.073C386.254 219.145 385.999 218.102 385.999 217C385.999 215.898 386.254 214.855 386.708 213.927ZM392.999 222.7C389.851 222.7 387.299 220.148 387.299 217C387.299 213.852 389.851 211.3 392.999 211.3C396.147 211.3 398.699 213.852 398.699 217C398.699 220.148 396.147 222.7 392.999 222.7ZM399.29 213.927C400.237 214.778 400.978 215.691 401.5 216.431C401.746 216.781 401.746 217.219 401.5 217.569C400.978 218.309 400.237 219.222 399.29 220.073C399.744 219.145 399.999 218.102 399.999 217C399.999 215.898 399.744 214.855 399.29 213.927Z" fill="#B1B5BB"/>
<path d="M44.234 273.432H41.238V272.2H48.602V273.432H45.606V282H44.234V273.432ZM52.5451 282.112C52.0037 282.112 51.5091 282.023 51.0611 281.846C50.6131 281.669 50.2257 281.417 49.8991 281.09C49.5817 280.763 49.3344 280.376 49.1571 279.928C48.9797 279.48 48.8911 278.981 48.8911 278.43C48.8911 277.889 48.9797 277.394 49.1571 276.946C49.3344 276.489 49.5817 276.097 49.8991 275.77C50.2257 275.443 50.6131 275.191 51.0611 275.014C51.5091 274.837 52.0037 274.748 52.5451 274.748C53.0864 274.748 53.5811 274.837 54.0291 275.014C54.4771 275.191 54.8597 275.443 55.1771 275.77C55.5037 276.097 55.7557 276.489 55.9331 276.946C56.1104 277.394 56.1991 277.889 56.1991 278.43C56.1991 278.981 56.1104 279.48 55.9331 279.928C55.7557 280.376 55.5037 280.763 55.1771 281.09C54.8597 281.417 54.4771 281.669 54.0291 281.846C53.5811 282.023 53.0864 282.112 52.5451 282.112ZM52.5451 281.048C52.8531 281.048 53.1424 280.987 53.4131 280.866C53.6931 280.745 53.9311 280.572 54.1271 280.348C54.3324 280.115 54.4957 279.839 54.6171 279.522C54.7384 279.195 54.7991 278.831 54.7991 278.43C54.7991 278.029 54.7384 277.669 54.6171 277.352C54.4957 277.025 54.3324 276.75 54.1271 276.526C53.9217 276.293 53.6837 276.115 53.4131 275.994C53.1424 275.873 52.8531 275.812 52.5451 275.812C52.2371 275.812 51.9431 275.873 51.6631 275.994C51.3924 276.115 51.1544 276.293 50.9491 276.526C50.7531 276.75 50.5944 277.025 50.4731 277.352C50.3517 277.669 50.2911 278.029 50.2911 278.43C50.2911 278.831 50.3517 279.195 50.4731 279.522C50.5944 279.839 50.7531 280.115 50.9491 280.348C51.1544 280.572 51.3924 280.745 51.6631 280.866C51.9431 280.987 52.2371 281.048 52.5451 281.048ZM58.0487 271.36H59.3647V278.192L62.8227 274.86H64.4607L61.2827 277.828L64.5027 282H62.8927L60.3587 278.64L59.3647 279.578V282H58.0487V271.36ZM66.5596 278.724C66.6343 279.461 66.8863 280.031 67.3156 280.432C67.745 280.824 68.3236 281.02 69.0516 281.02C69.481 281.02 69.901 280.969 70.3116 280.866C70.7316 280.754 71.077 280.619 71.3476 280.46V281.748C71.1236 281.823 70.8156 281.902 70.4236 281.986C70.0316 282.07 69.5463 282.112 68.9676 282.112C67.7543 282.112 66.821 281.776 66.1676 281.104C65.5236 280.432 65.2016 279.499 65.2016 278.304C65.2016 277.763 65.2856 277.273 65.4536 276.834C65.631 276.395 65.869 276.022 66.1676 275.714C66.4756 275.406 66.835 275.168 67.2456 275C67.6563 274.832 68.0996 274.748 68.5756 274.748C69.593 274.748 70.391 275.047 70.9696 275.644C71.5483 276.241 71.8376 277.147 71.8376 278.36V278.724H66.5596ZM68.5616 275.812C68.011 275.812 67.5583 275.989 67.2036 276.344C66.8583 276.689 66.6436 277.156 66.5596 277.744H70.4376C70.4376 277.128 70.2603 276.652 69.9056 276.316C69.551 275.98 69.103 275.812 68.5616 275.812ZM73.7304 274.86H75.0464V275.882H75.0744C75.345 275.499 75.681 275.215 76.0824 275.028C76.493 274.841 76.9504 274.748 77.4544 274.748C78.2944 274.748 78.957 275 79.4424 275.504C79.9277 275.999 80.1704 276.764 80.1704 277.8V282H78.8544V278.22C78.8544 277.763 78.8124 277.38 78.7284 277.072C78.6537 276.755 78.5417 276.507 78.3924 276.33C78.2524 276.143 78.075 276.013 77.8604 275.938C77.655 275.854 77.4264 275.812 77.1744 275.812C76.5304 275.812 76.0124 276.045 75.6204 276.512C75.2377 276.969 75.0464 277.679 75.0464 278.64V282H73.7304V274.86Z" fill="#22242A"/>
<rect x="90" y="269" width="28" height="16" rx="8" fill="#7B7E86"/>
<circle cx="98" cy="277" r="6" fill="white"/>
<rect x="41" y="337" width="380" height="56" rx="4" fill="#0062FF"/>
<path d="M208.568 371.16C208.227 371.16 207.821 371.128 207.352 371.064C206.893 371.011 206.392 370.893 205.848 370.712V368.856C206.051 368.941 206.269 369.016 206.504 369.08C206.739 369.144 206.973 369.203 207.208 369.256C207.453 369.299 207.688 369.336 207.912 369.368C208.147 369.389 208.36 369.4 208.552 369.4C209.224 369.4 209.736 369.267 210.088 369C210.44 368.723 210.616 368.365 210.616 367.928C210.616 367.693 210.557 367.485 210.44 367.304C210.333 367.123 210.184 366.963 209.992 366.824C209.8 366.675 209.576 366.541 209.32 366.424C209.075 366.296 208.819 366.168 208.552 366.04C208.211 365.88 207.875 365.709 207.544 365.528C207.213 365.347 206.909 365.133 206.632 364.888C206.365 364.632 206.147 364.339 205.976 364.008C205.816 363.667 205.736 363.261 205.736 362.792C205.736 361.789 206.083 361.016 206.776 360.472C207.48 359.917 208.456 359.64 209.704 359.64C210.205 359.64 210.675 359.683 211.112 359.768C211.549 359.843 211.912 359.933 212.2 360.04V361.784C211.795 361.635 211.368 361.533 210.92 361.48C210.472 361.427 210.093 361.4 209.784 361.4C209.123 361.4 208.637 361.501 208.328 361.704C208.029 361.907 207.88 362.189 207.88 362.552C207.88 362.776 207.928 362.979 208.024 363.16C208.131 363.331 208.269 363.485 208.44 363.624C208.621 363.763 208.829 363.891 209.064 364.008C209.299 364.125 209.544 364.248 209.8 364.376C210.141 364.536 210.488 364.707 210.84 364.888C211.192 365.069 211.507 365.288 211.784 365.544C212.072 365.8 212.307 366.109 212.488 366.472C212.669 366.835 212.76 367.272 212.76 367.784C212.76 368.851 212.392 369.683 211.656 370.28C210.931 370.867 209.901 371.16 208.568 371.16ZM214.828 362.76H216.796V371H214.828V362.76ZM214.78 359.384H216.86V361.224H214.78V359.384ZM222.589 374.616C222.194 374.616 221.826 374.595 221.485 374.552C221.144 374.509 220.84 374.456 220.573 374.392C220.306 374.339 220.082 374.28 219.901 374.216C219.72 374.163 219.592 374.125 219.517 374.104V372.408C219.592 372.44 219.72 372.488 219.901 372.552C220.093 372.627 220.317 372.696 220.573 372.76C220.84 372.835 221.138 372.899 221.469 372.952C221.8 373.016 222.141 373.048 222.493 373.048C223.378 373.048 224.034 372.835 224.461 372.408C224.888 371.981 225.101 371.315 225.101 370.408V369.8H225.037C224.76 370.173 224.392 370.467 223.933 370.68C223.485 370.893 223 371 222.477 371C221.933 371 221.437 370.899 220.989 370.696C220.541 370.483 220.157 370.195 219.837 369.832C219.517 369.459 219.266 369.016 219.085 368.504C218.914 367.992 218.829 367.432 218.829 366.824C218.829 366.184 218.92 365.608 219.101 365.096C219.293 364.573 219.549 364.131 219.869 363.768C220.2 363.395 220.594 363.112 221.053 362.92C221.512 362.717 222.013 362.616 222.557 362.616C223.165 362.616 223.672 362.744 224.077 363C224.493 363.256 224.84 363.56 225.117 363.912H225.165V362.76H227.005V370.408C227.005 371.859 226.648 372.92 225.933 373.592C225.218 374.275 224.104 374.616 222.589 374.616ZM222.973 369.48C223.272 369.48 223.544 369.421 223.789 369.304C224.045 369.176 224.264 369 224.445 368.776C224.637 368.552 224.786 368.275 224.893 367.944C225 367.613 225.053 367.24 225.053 366.824C225.053 366.397 225 366.019 224.893 365.688C224.786 365.357 224.637 365.08 224.445 364.856C224.253 364.632 224.024 364.461 223.757 364.344C223.501 364.227 223.224 364.168 222.925 364.168C222.338 364.168 221.848 364.387 221.453 364.824C221.069 365.261 220.877 365.901 220.877 366.744C220.877 367.16 220.93 367.539 221.037 367.88C221.144 368.221 221.293 368.509 221.485 368.744C221.677 368.979 221.901 369.16 222.157 369.288C222.413 369.416 222.685 369.48 222.973 369.48ZM229.403 362.76H231.291V364.008H231.323C231.622 363.581 231.995 363.245 232.443 363C232.902 362.744 233.43 362.616 234.027 362.616C234.966 362.616 235.691 362.915 236.203 363.512C236.726 364.099 236.987 364.963 236.987 366.104V371H235.019V366.68C235.019 365.795 234.875 365.171 234.587 364.808C234.31 364.445 233.915 364.264 233.403 364.264C232.774 364.264 232.278 364.509 231.915 365C231.552 365.48 231.371 366.205 231.371 367.176V371H229.403V362.76ZM243 362.76H244.968V371H243V362.76ZM242.952 359.384H245.032V361.224H242.952V359.384ZM247.497 362.76H249.385V364.008H249.417C249.716 363.581 250.089 363.245 250.537 363C250.996 362.744 251.524 362.616 252.121 362.616C253.06 362.616 253.785 362.915 254.297 363.512C254.82 364.099 255.081 364.963 255.081 366.104V371H253.113V366.68C253.113 365.795 252.969 365.171 252.681 364.808C252.404 364.445 252.009 364.264 251.497 364.264C250.868 364.264 250.372 364.509 250.009 365C249.646 365.48 249.465 366.205 249.465 367.176V371H247.497V362.76Z" fill="white"/>
</svg>
