<svg width="462" height="414" viewBox="0 0 462 414" fill="none" xmlns="http://www.w3.org/2000/svg">
<rect x="1" y="1" width="460" height="412" rx="6" fill="white"/>
<rect x="1" y="1" width="460" height="412" rx="6" stroke="black" stroke-width="2"/>
<path d="M41.288 55.2H43.904L48.92 69.888H48.992L54.032 55.2H56.552L50.408 72H47.408L41.288 55.2ZM62.6221 57.312H57.4861V55.2H70.1101V57.312H64.9741V72H62.6221V57.312ZM72.7398 55.2H77.7078C78.7798 55.2 79.6918 55.304 80.4438 55.512C81.2118 55.704 81.8358 55.992 82.3158 56.376C82.7958 56.744 83.1478 57.2 83.3718 57.744C83.5958 58.272 83.7078 58.864 83.7078 59.52C83.7078 60.432 83.4598 61.216 82.9638 61.872C82.4838 62.528 81.6998 63 80.6118 63.288V63.336C81.8918 63.608 82.8038 64.104 83.3478 64.824C83.9078 65.528 84.1878 66.392 84.1878 67.416C84.1878 68.872 83.7238 70 82.7958 70.8C81.8838 71.6 80.3478 72 78.1878 72H72.7398V55.2ZM78.1878 70.032C79.3878 70.032 80.2598 69.784 80.8038 69.288C81.3638 68.792 81.6438 68.088 81.6438 67.176C81.6438 66.28 81.3638 65.584 80.8038 65.088C80.2598 64.592 79.3878 64.344 78.1878 64.344H75.0918V70.032H78.1878ZM77.7078 62.376C78.9878 62.376 79.8998 62.144 80.4438 61.68C81.0038 61.2 81.2838 60.56 81.2838 59.76C81.2838 58.976 81.0038 58.352 80.4438 57.888C79.8998 57.408 78.9878 57.168 77.7078 57.168H75.0918V62.376H77.7078ZM92.9195 55.2H97.8875C98.9595 55.2 99.8715 55.304 100.624 55.512C101.392 55.704 102.016 55.992 102.496 56.376C102.976 56.744 103.328 57.2 103.552 57.744C103.776 58.272 103.888 58.864 103.888 59.52C103.888 60.432 103.64 61.216 103.144 61.872C102.664 62.528 101.88 63 100.792 63.288V63.336C102.072 63.608 102.984 64.104 103.528 64.824C104.088 65.528 104.368 66.392 104.368 67.416C104.368 68.872 103.904 70 102.976 70.8C102.064 71.6 100.528 72 98.3675 72H92.9195V55.2ZM98.3675 70.032C99.5675 70.032 100.44 69.784 100.984 69.288C101.544 68.792 101.824 68.088 101.824 67.176C101.824 66.28 101.544 65.584 100.984 65.088C100.44 64.592 99.5675 64.344 98.3675 64.344H95.2715V70.032H98.3675ZM97.8875 62.376C99.1675 62.376 100.08 62.144 100.624 61.68C101.184 61.2 101.464 60.56 101.464 59.76C101.464 58.976 101.184 58.352 100.624 57.888C100.08 57.408 99.1675 57.168 97.8875 57.168H95.2715V62.376H97.8875ZM117.984 72H115.728V70.248H115.68C115.216 70.904 114.632 71.392 113.928 71.712C113.24 72.032 112.464 72.192 111.6 72.192C110.16 72.192 109.024 71.768 108.192 70.92C107.36 70.056 106.944 68.736 106.944 66.96V59.76H109.2V66.24C109.2 67.04 109.264 67.704 109.392 68.232C109.536 68.76 109.728 69.184 109.968 69.504C110.224 69.808 110.528 70.032 110.88 70.176C111.248 70.304 111.648 70.368 112.08 70.368C113.184 70.368 114.064 69.976 114.72 69.192C115.392 68.392 115.728 67.168 115.728 65.52V59.76H117.984V72ZM125.072 72.192C124.256 72.192 123.552 72.128 122.96 72C122.384 71.856 121.872 71.696 121.424 71.52V69.528C122.24 69.896 122.944 70.128 123.536 70.224C124.144 70.304 124.584 70.344 124.856 70.344C125.784 70.344 126.456 70.184 126.872 69.864C127.288 69.528 127.496 69.152 127.496 68.736C127.496 68.48 127.424 68.264 127.28 68.088C127.152 67.896 126.976 67.72 126.752 67.56C126.528 67.4 126.264 67.256 125.96 67.128C125.656 66.984 125.336 66.84 125 66.696C124.536 66.488 124.08 66.28 123.632 66.072C123.2 65.848 122.816 65.6 122.48 65.328C122.144 65.04 121.872 64.704 121.664 64.32C121.456 63.936 121.352 63.472 121.352 62.928C121.352 61.92 121.752 61.112 122.552 60.504C123.368 59.88 124.552 59.568 126.104 59.568C126.904 59.568 127.608 59.632 128.216 59.76C128.824 59.888 129.216 59.984 129.392 60.048V61.968C128.928 61.776 128.432 61.64 127.904 61.56C127.392 61.48 126.88 61.44 126.368 61.44C125.456 61.44 124.8 61.568 124.4 61.824C124 62.064 123.8 62.392 123.8 62.808C123.8 63.048 123.864 63.264 123.992 63.456C124.12 63.632 124.288 63.8 124.496 63.96C124.72 64.104 124.976 64.248 125.264 64.392C125.552 64.52 125.856 64.656 126.176 64.8C126.608 64.992 127.048 65.192 127.496 65.4C127.96 65.592 128.376 65.832 128.744 66.12C129.128 66.408 129.432 66.752 129.656 67.152C129.896 67.552 130.016 68.048 130.016 68.64C130.016 69.696 129.584 70.552 128.72 71.208C127.872 71.864 126.656 72.192 125.072 72.192ZM133.375 59.76H135.631V72H133.375V59.76ZM133.255 54.72H135.799V57.264H133.255V54.72ZM139.976 59.76H142.232V61.512H142.28C142.744 60.856 143.32 60.368 144.008 60.048C144.712 59.728 145.496 59.568 146.36 59.568C147.8 59.568 148.936 60 149.768 60.864C150.6 61.712 151.016 63.024 151.016 64.8V72H148.76V65.52C148.76 64.736 148.688 64.08 148.544 63.552C148.416 63.008 148.224 62.584 147.968 62.28C147.728 61.96 147.424 61.736 147.056 61.608C146.704 61.464 146.312 61.392 145.88 61.392C144.776 61.392 143.888 61.792 143.216 62.592C142.56 63.376 142.232 64.592 142.232 66.24V72H139.976V59.76ZM156.137 66.384C156.265 67.648 156.697 68.624 157.433 69.312C158.169 69.984 159.161 70.32 160.409 70.32C161.145 70.32 161.865 70.232 162.569 70.056C163.289 69.864 163.881 69.632 164.345 69.36V71.568C163.961 71.696 163.433 71.832 162.761 71.976C162.089 72.12 161.257 72.192 160.265 72.192C158.185 72.192 156.585 71.616 155.465 70.464C154.361 69.312 153.809 67.712 153.809 65.664C153.809 64.736 153.953 63.896 154.241 63.144C154.545 62.392 154.953 61.752 155.465 61.224C155.993 60.696 156.609 60.288 157.313 60C158.017 59.712 158.777 59.568 159.593 59.568C161.337 59.568 162.705 60.08 163.697 61.104C164.689 62.128 165.185 63.68 165.185 65.76V66.384H156.137ZM159.569 61.392C158.625 61.392 157.849 61.696 157.241 62.304C156.649 62.896 156.281 63.696 156.137 64.704H162.785C162.785 63.648 162.481 62.832 161.873 62.256C161.265 61.68 160.497 61.392 159.569 61.392ZM171.526 72.192C170.71 72.192 170.006 72.128 169.414 72C168.838 71.856 168.326 71.696 167.878 71.52V69.528C168.694 69.896 169.398 70.128 169.99 70.224C170.598 70.304 171.038 70.344 171.31 70.344C172.238 70.344 172.91 70.184 173.326 69.864C173.742 69.528 173.95 69.152 173.95 68.736C173.95 68.48 173.878 68.264 173.734 68.088C173.606 67.896 173.43 67.72 173.206 67.56C172.982 67.4 172.718 67.256 172.414 67.128C172.11 66.984 171.79 66.84 171.454 66.696C170.99 66.488 170.534 66.28 170.086 66.072C169.654 65.848 169.27 65.6 168.934 65.328C168.598 65.04 168.326 64.704 168.118 64.32C167.91 63.936 167.806 63.472 167.806 62.928C167.806 61.92 168.206 61.112 169.006 60.504C169.822 59.88 171.006 59.568 172.558 59.568C173.358 59.568 174.062 59.632 174.67 59.76C175.278 59.888 175.67 59.984 175.846 60.048V61.968C175.382 61.776 174.886 61.64 174.358 61.56C173.846 61.48 173.334 61.44 172.822 61.44C171.91 61.44 171.254 61.568 170.854 61.824C170.454 62.064 170.254 62.392 170.254 62.808C170.254 63.048 170.318 63.264 170.446 63.456C170.574 63.632 170.742 63.8 170.95 63.96C171.174 64.104 171.43 64.248 171.718 64.392C172.006 64.52 172.31 64.656 172.63 64.8C173.062 64.992 173.502 65.192 173.95 65.4C174.414 65.592 174.83 65.832 175.198 66.12C175.582 66.408 175.886 66.752 176.11 67.152C176.35 67.552 176.47 68.048 176.47 68.64C176.47 69.696 176.038 70.552 175.174 71.208C174.326 71.864 173.11 72.192 171.526 72.192ZM182.799 72.192C181.983 72.192 181.279 72.128 180.687 72C180.111 71.856 179.599 71.696 179.151 71.52V69.528C179.967 69.896 180.671 70.128 181.263 70.224C181.871 70.304 182.311 70.344 182.583 70.344C183.511 70.344 184.183 70.184 184.599 69.864C185.015 69.528 185.223 69.152 185.223 68.736C185.223 68.48 185.151 68.264 185.007 68.088C184.879 67.896 184.703 67.72 184.479 67.56C184.255 67.4 183.991 67.256 183.687 67.128C183.383 66.984 183.063 66.84 182.727 66.696C182.263 66.488 181.807 66.28 181.359 66.072C180.927 65.848 180.543 65.6 180.207 65.328C179.871 65.04 179.599 64.704 179.391 64.32C179.183 63.936 179.079 63.472 179.079 62.928C179.079 61.92 179.479 61.112 180.279 60.504C181.095 59.88 182.279 59.568 183.831 59.568C184.631 59.568 185.335 59.632 185.943 59.76C186.551 59.888 186.943 59.984 187.119 60.048V61.968C186.655 61.776 186.159 61.64 185.631 61.56C185.119 61.48 184.607 61.44 184.095 61.44C183.183 61.44 182.527 61.568 182.127 61.824C181.727 62.064 181.527 62.392 181.527 62.808C181.527 63.048 181.591 63.264 181.719 63.456C181.847 63.632 182.015 63.8 182.223 63.96C182.447 64.104 182.703 64.248 182.991 64.392C183.279 64.52 183.583 64.656 183.903 64.8C184.335 64.992 184.775 65.192 185.223 65.4C185.687 65.592 186.103 65.832 186.471 66.12C186.855 66.408 187.159 66.752 187.383 67.152C187.623 67.552 187.743 68.048 187.743 68.64C187.743 69.696 187.311 70.552 186.447 71.208C185.599 71.864 184.383 72.192 182.799 72.192Z" fill="#22242A"/>
<rect x="41.5" y="109.5" width="379" height="55" rx="1.5" stroke="#D8D8D8"/>
<path d="M58.488 131.8H60.056V141.592H65.064V143H58.488V131.8ZM70.0381 143.128C69.4195 143.128 68.8541 143.027 68.3421 142.824C67.8301 142.621 67.3875 142.333 67.0141 141.96C66.6515 141.587 66.3688 141.144 66.1661 140.632C65.9635 140.12 65.8621 139.549 65.8621 138.92C65.8621 138.301 65.9635 137.736 66.1661 137.224C66.3688 136.701 66.6515 136.253 67.0141 135.88C67.3875 135.507 67.8301 135.219 68.3421 135.016C68.8541 134.813 69.4195 134.712 70.0381 134.712C70.6568 134.712 71.2221 134.813 71.7341 135.016C72.2461 135.219 72.6835 135.507 73.0461 135.88C73.4195 136.253 73.7075 136.701 73.9101 137.224C74.1128 137.736 74.2141 138.301 74.2141 138.92C74.2141 139.549 74.1128 140.12 73.9101 140.632C73.7075 141.144 73.4195 141.587 73.0461 141.96C72.6835 142.333 72.2461 142.621 71.7341 142.824C71.2221 143.027 70.6568 143.128 70.0381 143.128ZM70.0381 141.912C70.3901 141.912 70.7208 141.843 71.0301 141.704C71.3501 141.565 71.6221 141.368 71.8461 141.112C72.0808 140.845 72.2675 140.531 72.4061 140.168C72.5448 139.795 72.6141 139.379 72.6141 138.92C72.6141 138.461 72.5448 138.051 72.4061 137.688C72.2675 137.315 72.0808 137 71.8461 136.744C71.6115 136.477 71.3395 136.275 71.0301 136.136C70.7208 135.997 70.3901 135.928 70.0381 135.928C69.6861 135.928 69.3501 135.997 69.0301 136.136C68.7208 136.275 68.4488 136.477 68.2141 136.744C67.9901 137 67.8088 137.315 67.6701 137.688C67.5315 138.051 67.4621 138.461 67.4621 138.92C67.4621 139.379 67.5315 139.795 67.6701 140.168C67.8088 140.531 67.9901 140.845 68.2141 141.112C68.4488 141.368 68.7208 141.565 69.0301 141.704C69.3501 141.843 69.6861 141.912 70.0381 141.912ZM79.416 146.648C78.9893 146.648 78.5947 146.621 78.232 146.568C77.8693 146.515 77.5493 146.451 77.272 146.376C76.952 146.301 76.6587 146.211 76.392 146.104V144.664C76.6587 144.803 76.952 144.931 77.272 145.048C77.5493 145.144 77.8693 145.229 78.232 145.304C78.5947 145.389 78.9893 145.432 79.416 145.432C81.304 145.432 82.248 144.483 82.248 142.584V141.736H82.2C81.9333 142.131 81.56 142.44 81.08 142.664C80.6107 142.888 80.0933 143 79.528 143C78.9947 143 78.4987 142.904 78.04 142.712C77.592 142.52 77.1973 142.248 76.856 141.896C76.5253 141.533 76.264 141.101 76.072 140.6C75.88 140.088 75.784 139.512 75.784 138.872C75.784 138.211 75.8853 137.624 76.088 137.112C76.2907 136.589 76.5627 136.152 76.904 135.8C77.256 135.448 77.6667 135.181 78.136 135C78.6053 134.808 79.1067 134.712 79.64 134.712C80.2587 134.712 80.7813 134.84 81.208 135.096C81.6347 135.352 81.9973 135.656 82.296 136.008H82.344V134.84H83.752V142.584C83.752 143.949 83.4 144.968 82.696 145.64C82.0027 146.312 80.9093 146.648 79.416 146.648ZM79.848 141.784C80.1787 141.784 80.488 141.72 80.776 141.592C81.0747 141.464 81.3307 141.277 81.544 141.032C81.7573 140.776 81.9227 140.472 82.04 140.12C82.168 139.757 82.232 139.341 82.232 138.872C82.232 138.392 82.168 137.971 82.04 137.608C81.912 137.235 81.736 136.925 81.512 136.68C81.288 136.424 81.0267 136.237 80.728 136.12C80.4293 135.992 80.104 135.928 79.752 135.928C79.4213 135.928 79.112 135.987 78.824 136.104C78.536 136.221 78.2853 136.403 78.072 136.648C77.8587 136.883 77.688 137.181 77.56 137.544C77.4427 137.896 77.384 138.307 77.384 138.776C77.384 139.245 77.448 139.667 77.576 140.04C77.7147 140.403 77.896 140.717 78.12 140.984C78.344 141.24 78.6053 141.437 78.904 141.576C79.2027 141.715 79.5173 141.784 79.848 141.784ZM86.6461 134.84H88.1501V143H86.6461V134.84ZM86.5661 131.48H88.2621V133.176H86.5661V131.48ZM91.0468 134.84H92.5508V136.008H92.5828C92.8921 135.571 93.2761 135.245 93.7348 135.032C94.2041 134.819 94.7268 134.712 95.3028 134.712C96.2628 134.712 97.0201 135 97.5748 135.576C98.1294 136.141 98.4068 137.016 98.4068 138.2V143H96.9028V138.68C96.9028 138.157 96.8548 137.72 96.7588 137.368C96.6734 137.005 96.5454 136.723 96.3748 136.52C96.2148 136.307 96.0121 136.157 95.7668 136.072C95.5321 135.976 95.2708 135.928 94.9828 135.928C94.2468 135.928 93.6548 136.195 93.2068 136.728C92.7694 137.251 92.5508 138.061 92.5508 139.16V143H91.0468V134.84Z" fill="#7B7E86"/>
<rect x="41.5" y="197.5" width="379" height="55" rx="1.5" stroke="#D8D8D8"/>
<path d="M58.488 219.8H62.072C63.4587 219.8 64.4827 220.109 65.144 220.728C65.8053 221.336 66.136 222.205 66.136 223.336C66.136 224.467 65.8053 225.341 65.144 225.96C64.4827 226.568 63.4587 226.872 62.072 226.872H60.056V231H58.488V219.8ZM62.072 225.464C62.8933 225.464 63.496 225.288 63.88 224.936C64.2747 224.573 64.472 224.04 64.472 223.336C64.472 222.632 64.2747 222.104 63.88 221.752C63.496 221.389 62.8933 221.208 62.072 221.208H60.056V225.464H62.072ZM69.7834 231.128C68.93 231.128 68.2527 230.915 67.7514 230.488C67.25 230.051 66.9994 229.448 66.9994 228.68C66.9994 227.784 67.3407 227.101 68.0234 226.632C68.7167 226.152 69.778 225.912 71.2074 225.912H72.7114V225.64C72.7114 225.053 72.5087 224.627 72.1034 224.36C71.698 224.093 71.1594 223.96 70.4874 223.96C70.05 223.96 69.6074 224.013 69.1594 224.12C68.7114 224.216 68.242 224.397 67.7514 224.664V223.256C68.1567 223.075 68.6207 222.941 69.1434 222.856C69.666 222.76 70.178 222.712 70.6794 222.712C71.7994 222.712 72.6687 222.968 73.2874 223.48C73.906 223.981 74.2154 224.797 74.2154 225.928V231H72.6794V229.752H72.6474C72.306 230.253 71.8687 230.611 71.3354 230.824C70.8127 231.027 70.2954 231.128 69.7834 231.128ZM70.1514 229.848C70.5247 229.848 70.866 229.789 71.1754 229.672C71.4954 229.555 71.7674 229.395 71.9914 229.192C72.2154 228.979 72.3914 228.733 72.5194 228.456C72.6474 228.179 72.7114 227.885 72.7114 227.576V227.064H71.2714C70.77 227.064 70.3487 227.101 70.0074 227.176C69.6767 227.251 69.4047 227.357 69.1914 227.496C68.978 227.635 68.8234 227.795 68.7274 227.976C68.642 228.157 68.5994 228.36 68.5994 228.584C68.5994 228.989 68.738 229.304 69.0154 229.528C69.2927 229.741 69.6714 229.848 70.1514 229.848ZM78.6733 231.128C78.1293 231.128 77.6599 231.085 77.2653 231C76.8813 230.904 76.5399 230.797 76.2413 230.68V229.352C76.7853 229.597 77.2546 229.752 77.6493 229.816C78.0546 229.869 78.3479 229.896 78.5293 229.896C79.1479 229.896 79.5959 229.789 79.8733 229.576C80.1506 229.352 80.2893 229.101 80.2893 228.824C80.2893 228.653 80.2413 228.509 80.1453 228.392C80.0599 228.264 79.9426 228.147 79.7933 228.04C79.6439 227.933 79.4679 227.837 79.2653 227.752C79.0626 227.656 78.8493 227.56 78.6253 227.464C78.3159 227.325 78.0119 227.187 77.7133 227.048C77.4253 226.899 77.1693 226.733 76.9453 226.552C76.7213 226.36 76.5399 226.136 76.4013 225.88C76.2626 225.624 76.1933 225.315 76.1933 224.952C76.1933 224.28 76.4599 223.741 76.9933 223.336C77.5373 222.92 78.3266 222.712 79.3613 222.712C79.8946 222.712 80.3639 222.755 80.7693 222.84C81.1746 222.925 81.4359 222.989 81.5533 223.032V224.312C81.2439 224.184 80.9133 224.093 80.5613 224.04C80.2199 223.987 79.8786 223.96 79.5373 223.96C78.9293 223.96 78.4919 224.045 78.2253 224.216C77.9586 224.376 77.8253 224.595 77.8253 224.872C77.8253 225.032 77.8679 225.176 77.9533 225.304C78.0386 225.421 78.1506 225.533 78.2893 225.64C78.4386 225.736 78.6093 225.832 78.8013 225.928C78.9933 226.013 79.1959 226.104 79.4093 226.2C79.6973 226.328 79.9906 226.461 80.2893 226.6C80.5986 226.728 80.8759 226.888 81.1213 227.08C81.3773 227.272 81.5799 227.501 81.7293 227.768C81.8893 228.035 81.9693 228.365 81.9693 228.76C81.9693 229.464 81.6813 230.035 81.1053 230.472C80.5399 230.909 79.7293 231.128 78.6733 231.128ZM86.1889 231.128C85.6449 231.128 85.1755 231.085 84.7809 231C84.3969 230.904 84.0555 230.797 83.7569 230.68V229.352C84.3009 229.597 84.7702 229.752 85.1649 229.816C85.5702 229.869 85.8635 229.896 86.0449 229.896C86.6635 229.896 87.1115 229.789 87.3889 229.576C87.6662 229.352 87.8049 229.101 87.8049 228.824C87.8049 228.653 87.7569 228.509 87.6609 228.392C87.5755 228.264 87.4582 228.147 87.3089 228.04C87.1595 227.933 86.9835 227.837 86.7809 227.752C86.5782 227.656 86.3649 227.56 86.1409 227.464C85.8315 227.325 85.5275 227.187 85.2289 227.048C84.9409 226.899 84.6849 226.733 84.4609 226.552C84.2369 226.36 84.0555 226.136 83.9169 225.88C83.7782 225.624 83.7089 225.315 83.7089 224.952C83.7089 224.28 83.9755 223.741 84.5089 223.336C85.0529 222.92 85.8422 222.712 86.8769 222.712C87.4102 222.712 87.8795 222.755 88.2849 222.84C88.6902 222.925 88.9515 222.989 89.0689 223.032V224.312C88.7595 224.184 88.4289 224.093 88.0769 224.04C87.7355 223.987 87.3942 223.96 87.0529 223.96C86.4449 223.96 86.0075 224.045 85.7409 224.216C85.4742 224.376 85.3409 224.595 85.3409 224.872C85.3409 225.032 85.3835 225.176 85.4689 225.304C85.5542 225.421 85.6662 225.533 85.8049 225.64C85.9542 225.736 86.1249 225.832 86.3169 225.928C86.5089 226.013 86.7115 226.104 86.9249 226.2C87.2129 226.328 87.5062 226.461 87.8049 226.6C88.1142 226.728 88.3915 226.888 88.6369 227.08C88.8929 227.272 89.0955 227.501 89.2449 227.768C89.4049 228.035 89.4849 228.365 89.4849 228.76C89.4849 229.464 89.1969 230.035 88.6209 230.472C88.0555 230.909 87.2449 231.128 86.1889 231.128ZM90.4904 222.84H92.1384L93.9624 229.336L96.0584 222.84H97.3384L99.4184 229.368L101.386 222.84H102.858L100.218 231H98.6344L96.6184 224.824L94.6984 231H93.1144L90.4904 222.84ZM107.913 231.128C107.294 231.128 106.729 231.027 106.217 230.824C105.705 230.621 105.262 230.333 104.889 229.96C104.526 229.587 104.244 229.144 104.041 228.632C103.838 228.12 103.737 227.549 103.737 226.92C103.737 226.301 103.838 225.736 104.041 225.224C104.244 224.701 104.526 224.253 104.889 223.88C105.262 223.507 105.705 223.219 106.217 223.016C106.729 222.813 107.294 222.712 107.913 222.712C108.532 222.712 109.097 222.813 109.609 223.016C110.121 223.219 110.558 223.507 110.921 223.88C111.294 224.253 111.582 224.701 111.785 225.224C111.988 225.736 112.089 226.301 112.089 226.92C112.089 227.549 111.988 228.12 111.785 228.632C111.582 229.144 111.294 229.587 110.921 229.96C110.558 230.333 110.121 230.621 109.609 230.824C109.097 231.027 108.532 231.128 107.913 231.128ZM107.913 229.912C108.265 229.912 108.596 229.843 108.905 229.704C109.225 229.565 109.497 229.368 109.721 229.112C109.956 228.845 110.142 228.531 110.281 228.168C110.42 227.795 110.489 227.379 110.489 226.92C110.489 226.461 110.42 226.051 110.281 225.688C110.142 225.315 109.956 225 109.721 224.744C109.486 224.477 109.214 224.275 108.905 224.136C108.596 223.997 108.265 223.928 107.913 223.928C107.561 223.928 107.225 223.997 106.905 224.136C106.596 224.275 106.324 224.477 106.089 224.744C105.865 225 105.684 225.315 105.545 225.688C105.406 226.051 105.337 226.461 105.337 226.92C105.337 227.379 105.406 227.795 105.545 228.168C105.684 228.531 105.865 228.845 106.089 229.112C106.324 229.368 106.596 229.565 106.905 229.704C107.225 229.843 107.561 229.912 107.913 229.912ZM114.203 222.84H115.611V224.168H115.643C115.91 223.645 116.23 223.272 116.603 223.048C116.987 222.824 117.446 222.712 117.979 222.712C118.128 222.712 118.278 222.723 118.427 222.744C118.587 222.755 118.752 222.771 118.923 222.792V224.104C118.763 224.083 118.608 224.067 118.459 224.056C118.31 224.035 118.166 224.024 118.027 224.024C117.206 224.024 116.614 224.307 116.251 224.872C115.888 225.437 115.707 226.264 115.707 227.352V231H114.203V222.84ZM123.779 231.128C123.203 231.128 122.68 231.021 122.211 230.808C121.742 230.595 121.342 230.296 121.011 229.912C120.68 229.528 120.424 229.075 120.243 228.552C120.072 228.019 119.987 227.443 119.987 226.824C119.987 226.237 120.078 225.693 120.259 225.192C120.44 224.691 120.696 224.259 121.027 223.896C121.358 223.523 121.752 223.235 122.211 223.032C122.68 222.819 123.192 222.712 123.747 222.712C124.366 222.712 124.888 222.829 125.315 223.064C125.752 223.299 126.12 223.587 126.419 223.928H126.451V218.84H127.955V231H126.515V229.848H126.419C126.11 230.243 125.742 230.557 125.315 230.792C124.899 231.016 124.387 231.128 123.779 231.128ZM124.035 229.912C124.387 229.912 124.712 229.837 125.011 229.688C125.31 229.539 125.566 229.336 125.779 229.08C125.992 228.813 126.158 228.499 126.275 228.136C126.392 227.773 126.451 227.373 126.451 226.936C126.451 226.499 126.387 226.099 126.259 225.736C126.142 225.363 125.976 225.043 125.763 224.776C125.55 224.509 125.294 224.301 124.995 224.152C124.696 224.003 124.366 223.928 124.003 223.928C123.662 223.928 123.342 224.003 123.043 224.152C122.744 224.301 122.488 224.509 122.275 224.776C122.062 225.032 121.891 225.341 121.763 225.704C121.646 226.067 121.587 226.461 121.587 226.888C121.587 227.325 121.646 227.731 121.763 228.104C121.891 228.467 122.062 228.787 122.275 229.064C122.499 229.331 122.76 229.539 123.059 229.688C123.358 229.837 123.683 229.912 124.035 229.912Z" fill="#7B7E86"/>
<path d="M392.305 222.081C392.681 221.992 392.999 222.313 392.999 222.7V223.7C392.999 224.418 393.581 225 394.299 225H395.299C395.686 225 396.007 225.318 395.918 225.694C395.605 227.016 394.417 228 392.999 228C391.342 228 389.999 226.657 389.999 225C389.999 223.582 390.983 222.394 392.305 222.081Z" fill="#B1B5BB"/>
<path fill-rule="evenodd" clip-rule="evenodd" d="M392.999 218C388.118 218 384.865 221.655 383.436 223.683C382.873 224.481 382.873 225.519 383.436 226.317C384.865 228.345 388.118 232 392.999 232C397.88 232 401.133 228.345 402.562 226.317C403.125 225.519 403.125 224.481 402.562 223.683C401.133 221.655 397.88 218 392.999 218ZM386.708 221.927C385.761 222.778 385.02 223.691 384.498 224.431C384.252 224.781 384.252 225.219 384.498 225.569C385.02 226.309 385.761 227.222 386.708 228.073C386.254 227.145 385.999 226.102 385.999 225C385.999 223.898 386.254 222.855 386.708 221.927ZM392.999 230.7C389.851 230.7 387.299 228.148 387.299 225C387.299 221.852 389.851 219.3 392.999 219.3C396.147 219.3 398.699 221.852 398.699 225C398.699 228.148 396.147 230.7 392.999 230.7ZM399.29 221.927C400.237 222.778 400.978 223.691 401.5 224.431C401.746 224.781 401.746 225.219 401.5 225.569C400.978 226.309 400.237 227.222 399.29 228.073C399.744 227.145 399.999 226.102 399.999 225C399.999 223.898 399.744 222.855 399.29 221.927Z" fill="#B1B5BB"/>
<path d="M44.234 281.432H41.238V280.2H48.602V281.432H45.606V290H44.234V281.432ZM52.5451 290.112C52.0037 290.112 51.5091 290.023 51.0611 289.846C50.6131 289.669 50.2257 289.417 49.8991 289.09C49.5817 288.763 49.3344 288.376 49.1571 287.928C48.9797 287.48 48.8911 286.981 48.8911 286.43C48.8911 285.889 48.9797 285.394 49.1571 284.946C49.3344 284.489 49.5817 284.097 49.8991 283.77C50.2257 283.443 50.6131 283.191 51.0611 283.014C51.5091 282.837 52.0037 282.748 52.5451 282.748C53.0864 282.748 53.5811 282.837 54.0291 283.014C54.4771 283.191 54.8597 283.443 55.1771 283.77C55.5037 284.097 55.7557 284.489 55.9331 284.946C56.1104 285.394 56.1991 285.889 56.1991 286.43C56.1991 286.981 56.1104 287.48 55.9331 287.928C55.7557 288.376 55.5037 288.763 55.1771 289.09C54.8597 289.417 54.4771 289.669 54.0291 289.846C53.5811 290.023 53.0864 290.112 52.5451 290.112ZM52.5451 289.048C52.8531 289.048 53.1424 288.987 53.4131 288.866C53.6931 288.745 53.9311 288.572 54.1271 288.348C54.3324 288.115 54.4957 287.839 54.6171 287.522C54.7384 287.195 54.7991 286.831 54.7991 286.43C54.7991 286.029 54.7384 285.669 54.6171 285.352C54.4957 285.025 54.3324 284.75 54.1271 284.526C53.9217 284.293 53.6837 284.115 53.4131 283.994C53.1424 283.873 52.8531 283.812 52.5451 283.812C52.2371 283.812 51.9431 283.873 51.6631 283.994C51.3924 284.115 51.1544 284.293 50.9491 284.526C50.7531 284.75 50.5944 285.025 50.4731 285.352C50.3517 285.669 50.2911 286.029 50.2911 286.43C50.2911 286.831 50.3517 287.195 50.4731 287.522C50.5944 287.839 50.7531 288.115 50.9491 288.348C51.1544 288.572 51.3924 288.745 51.6631 288.866C51.9431 288.987 52.2371 289.048 52.5451 289.048ZM58.0487 279.36H59.3647V286.192L62.8227 282.86H64.4607L61.2827 285.828L64.5027 290H62.8927L60.3587 286.64L59.3647 287.578V290H58.0487V279.36ZM66.5596 286.724C66.6343 287.461 66.8863 288.031 67.3156 288.432C67.745 288.824 68.3236 289.02 69.0516 289.02C69.481 289.02 69.901 288.969 70.3116 288.866C70.7316 288.754 71.077 288.619 71.3476 288.46V289.748C71.1236 289.823 70.8156 289.902 70.4236 289.986C70.0316 290.07 69.5463 290.112 68.9676 290.112C67.7543 290.112 66.821 289.776 66.1676 289.104C65.5236 288.432 65.2016 287.499 65.2016 286.304C65.2016 285.763 65.2856 285.273 65.4536 284.834C65.631 284.395 65.869 284.022 66.1676 283.714C66.4756 283.406 66.835 283.168 67.2456 283C67.6563 282.832 68.0996 282.748 68.5756 282.748C69.593 282.748 70.391 283.047 70.9696 283.644C71.5483 284.241 71.8376 285.147 71.8376 286.36V286.724H66.5596ZM68.5616 283.812C68.011 283.812 67.5583 283.989 67.2036 284.344C66.8583 284.689 66.6436 285.156 66.5596 285.744H70.4376C70.4376 285.128 70.2603 284.652 69.9056 284.316C69.551 283.98 69.103 283.812 68.5616 283.812ZM73.7304 282.86H75.0464V283.882H75.0744C75.345 283.499 75.681 283.215 76.0824 283.028C76.493 282.841 76.9504 282.748 77.4544 282.748C78.2944 282.748 78.957 283 79.4424 283.504C79.9277 283.999 80.1704 284.764 80.1704 285.8V290H78.8544V286.22C78.8544 285.763 78.8124 285.38 78.7284 285.072C78.6537 284.755 78.5417 284.507 78.3924 284.33C78.2524 284.143 78.075 284.013 77.8604 283.938C77.655 283.854 77.4264 283.812 77.1744 283.812C76.5304 283.812 76.0124 284.045 75.6204 284.512C75.2377 284.969 75.0464 285.679 75.0464 286.64V290H73.7304V282.86Z" fill="#22242A"/>
<rect x="90" y="277" width="32" height="16" rx="8" fill="#0062FF"/>
<circle cx="114" cy="285" r="6" fill="white"/>
<g filter="url(#filter0_i_632_16544)">
<rect width="380" height="68" transform="translate(41 305)" fill="#FFEFEF"/>
<path fill-rule="evenodd" clip-rule="evenodd" d="M62.1626 338H75.8387C78.1405 338 79.5848 335.515 78.4453 333.515L71.6073 321.513C70.4565 319.493 67.5448 319.493 66.394 321.513L59.556 333.515C58.4165 335.515 59.8609 338 62.1626 338ZM69.6505 331.127C69.6505 331.486 69.3595 331.777 69.0005 331.777C68.6415 331.777 68.3505 331.486 68.3505 331.127V325.981C68.3505 325.622 68.6415 325.331 69.0005 325.331C69.3595 325.331 69.6505 325.622 69.6505 325.981V331.127ZM69.7505 333.881C69.7505 334.295 69.4147 334.631 69.0005 334.631C68.5863 334.631 68.2505 334.295 68.2505 333.881C68.2505 333.467 68.5863 333.131 69.0005 333.131C69.4147 333.131 69.7505 333.467 69.7505 333.881Z" fill="#D92020"/>
<path d="M98.054 330.262C97.942 330.281 97.8253 330.29 97.704 330.29C97.592 330.29 97.4753 330.29 97.354 330.29H95.674V334H94.302V324.2H97.354C98.5487 324.2 99.4307 324.466 100 324.998C100.569 325.53 100.854 326.291 100.854 327.28C100.854 327.933 100.723 328.475 100.462 328.904C100.21 329.333 99.8553 329.665 99.398 329.898L101.498 334H99.804L98.054 330.262ZM97.354 329.128C98.054 329.128 98.5627 328.974 98.88 328.666C99.2067 328.358 99.37 327.896 99.37 327.28C99.37 326.664 99.2067 326.202 98.88 325.894C98.5627 325.586 98.054 325.432 97.354 325.432H95.674V329.128H97.354ZM103.521 330.724C103.595 331.461 103.847 332.031 104.277 332.432C104.706 332.824 105.285 333.02 106.013 333.02C106.442 333.02 106.862 332.969 107.273 332.866C107.693 332.754 108.038 332.619 108.309 332.46V333.748C108.085 333.823 107.777 333.902 107.385 333.986C106.993 334.07 106.507 334.112 105.929 334.112C104.715 334.112 103.782 333.776 103.129 333.104C102.485 332.432 102.163 331.499 102.163 330.304C102.163 329.763 102.247 329.273 102.415 328.834C102.592 328.395 102.83 328.022 103.129 327.714C103.437 327.406 103.796 327.168 104.207 327C104.617 326.832 105.061 326.748 105.537 326.748C106.554 326.748 107.352 327.047 107.931 327.644C108.509 328.241 108.799 329.147 108.799 330.36V330.724H103.521ZM105.523 327.812C104.972 327.812 104.519 327.989 104.165 328.344C103.819 328.689 103.605 329.156 103.521 329.744H107.399C107.399 329.128 107.221 328.652 106.867 328.316C106.512 327.98 106.064 327.812 105.523 327.812ZM109.879 326.86H111.251V326.006C111.251 325.007 111.438 324.298 111.811 323.878C112.194 323.458 112.777 323.248 113.561 323.248C113.795 323.248 114.014 323.262 114.219 323.29C114.425 323.318 114.574 323.341 114.667 323.36V324.424C114.518 324.405 114.383 324.391 114.261 324.382C114.14 324.373 114.023 324.368 113.911 324.368C113.65 324.368 113.431 324.401 113.253 324.466C113.085 324.522 112.95 324.615 112.847 324.746C112.745 324.877 112.67 325.049 112.623 325.264C112.586 325.469 112.567 325.717 112.567 326.006V326.86H114.569V327.924H112.567V334H111.251V327.924H109.879V326.86ZM115.873 326.86H117.105V328.022H117.133C117.366 327.565 117.646 327.238 117.973 327.042C118.309 326.846 118.71 326.748 119.177 326.748C119.308 326.748 119.438 326.757 119.569 326.776C119.709 326.785 119.854 326.799 120.003 326.818V327.966C119.863 327.947 119.728 327.933 119.597 327.924C119.466 327.905 119.34 327.896 119.219 327.896C118.5 327.896 117.982 328.143 117.665 328.638C117.348 329.133 117.189 329.856 117.189 330.808V334H115.873V326.86ZM122.292 330.724C122.367 331.461 122.619 332.031 123.048 332.432C123.477 332.824 124.056 333.02 124.784 333.02C125.213 333.02 125.633 332.969 126.044 332.866C126.464 332.754 126.809 332.619 127.08 332.46V333.748C126.856 333.823 126.548 333.902 126.156 333.986C125.764 334.07 125.279 334.112 124.7 334.112C123.487 334.112 122.553 333.776 121.9 333.104C121.256 332.432 120.934 331.499 120.934 330.304C120.934 329.763 121.018 329.273 121.186 328.834C121.363 328.395 121.601 328.022 121.9 327.714C122.208 327.406 122.567 327.168 122.978 327C123.389 326.832 123.832 326.748 124.308 326.748C125.325 326.748 126.123 327.047 126.702 327.644C127.281 328.241 127.57 329.147 127.57 330.36V330.724H122.292ZM124.294 327.812C123.743 327.812 123.291 327.989 122.936 328.344C122.591 328.689 122.376 329.156 122.292 329.744H126.17C126.17 329.128 125.993 328.652 125.638 328.316C125.283 327.98 124.835 327.812 124.294 327.812ZM131.269 334.112C130.793 334.112 130.382 334.075 130.037 334C129.701 333.916 129.402 333.823 129.141 333.72V332.558C129.617 332.773 130.027 332.908 130.373 332.964C130.727 333.011 130.984 333.034 131.143 333.034C131.684 333.034 132.076 332.941 132.319 332.754C132.561 332.558 132.683 332.339 132.683 332.096C132.683 331.947 132.641 331.821 132.557 331.718C132.482 331.606 132.379 331.503 132.249 331.41C132.118 331.317 131.964 331.233 131.787 331.158C131.609 331.074 131.423 330.99 131.227 330.906C130.956 330.785 130.69 330.663 130.429 330.542C130.177 330.411 129.953 330.267 129.757 330.108C129.561 329.94 129.402 329.744 129.281 329.52C129.159 329.296 129.099 329.025 129.099 328.708C129.099 328.12 129.332 327.649 129.799 327.294C130.275 326.93 130.965 326.748 131.871 326.748C132.337 326.748 132.748 326.785 133.103 326.86C133.457 326.935 133.686 326.991 133.789 327.028V328.148C133.518 328.036 133.229 327.957 132.921 327.91C132.622 327.863 132.323 327.84 132.025 327.84C131.493 327.84 131.11 327.915 130.877 328.064C130.643 328.204 130.527 328.395 130.527 328.638C130.527 328.778 130.564 328.904 130.639 329.016C130.713 329.119 130.811 329.217 130.933 329.31C131.063 329.394 131.213 329.478 131.381 329.562C131.549 329.637 131.726 329.716 131.913 329.8C132.165 329.912 132.421 330.029 132.683 330.15C132.953 330.262 133.196 330.402 133.411 330.57C133.635 330.738 133.812 330.939 133.943 331.172C134.083 331.405 134.153 331.695 134.153 332.04C134.153 332.656 133.901 333.155 133.397 333.538C132.902 333.921 132.193 334.112 131.269 334.112ZM136.039 323.36H137.355V326.86L137.341 327.882H137.383C137.654 327.499 137.99 327.215 138.391 327.028C138.792 326.841 139.25 326.748 139.763 326.748C140.603 326.748 141.266 327 141.751 327.504C142.236 327.999 142.479 328.764 142.479 329.8V334H141.163V330.22C141.163 329.763 141.121 329.38 141.037 329.072C140.962 328.755 140.85 328.507 140.701 328.33C140.561 328.143 140.384 328.013 140.169 327.938C139.964 327.854 139.735 327.812 139.483 327.812C138.839 327.812 138.321 328.045 137.929 328.512C137.546 328.969 137.355 329.679 137.355 330.64V334H136.039V323.36ZM151.394 327.924H149.63V331.774C149.63 332.203 149.738 332.502 149.952 332.67C150.176 332.829 150.438 332.908 150.736 332.908C150.96 332.908 151.198 332.871 151.45 332.796V333.986C151.273 334.033 151.105 334.065 150.946 334.084C150.788 334.103 150.643 334.112 150.512 334.112C149.803 334.112 149.262 333.921 148.888 333.538C148.515 333.146 148.328 332.6 148.328 331.9V327.924H147.026V326.86H148.328V325.082L149.63 324.606V326.86H151.394V327.924ZM153.129 323.36H154.445V326.86L154.431 327.882H154.473C154.743 327.499 155.079 327.215 155.481 327.028C155.882 326.841 156.339 326.748 156.853 326.748C157.693 326.748 158.355 327 158.841 327.504C159.326 327.999 159.569 328.764 159.569 329.8V334H158.253V330.22C158.253 329.763 158.211 329.38 158.127 329.072C158.052 328.755 157.94 328.507 157.791 328.33C157.651 328.143 157.473 328.013 157.259 327.938C157.053 327.854 156.825 327.812 156.573 327.812C155.929 327.812 155.411 328.045 155.019 328.512C154.636 328.969 154.445 329.679 154.445 330.64V334H153.129V323.36ZM162.556 330.724C162.63 331.461 162.882 332.031 163.312 332.432C163.741 332.824 164.32 333.02 165.048 333.02C165.477 333.02 165.897 332.969 166.308 332.866C166.728 332.754 167.073 332.619 167.344 332.46V333.748C167.12 333.823 166.812 333.902 166.42 333.986C166.028 334.07 165.542 334.112 164.964 334.112C163.75 334.112 162.817 333.776 162.164 333.104C161.52 332.432 161.198 331.499 161.198 330.304C161.198 329.763 161.282 329.273 161.45 328.834C161.627 328.395 161.865 328.022 162.164 327.714C162.472 327.406 162.831 327.168 163.242 327C163.652 326.832 164.096 326.748 164.572 326.748C165.589 326.748 166.387 327.047 166.966 327.644C167.544 328.241 167.834 329.147 167.834 330.36V330.724H162.556ZM164.558 327.812C164.007 327.812 163.554 327.989 163.2 328.344C162.854 328.689 162.64 329.156 162.556 329.744H166.434C166.434 329.128 166.256 328.652 165.902 328.316C165.547 327.98 165.099 327.812 164.558 327.812ZM174.255 333.062V337.136H172.939V326.86H174.199V327.882H174.227C174.414 327.63 174.614 327.429 174.829 327.28C175.053 327.131 175.272 327.019 175.487 326.944C175.702 326.86 175.907 326.809 176.103 326.79C176.299 326.762 176.467 326.748 176.607 326.748C177.13 326.748 177.596 326.841 178.007 327.028C178.418 327.205 178.763 327.457 179.043 327.784C179.323 328.111 179.538 328.498 179.687 328.946C179.836 329.385 179.911 329.861 179.911 330.374C179.911 330.878 179.836 331.359 179.687 331.816C179.547 332.264 179.337 332.661 179.057 333.006C178.777 333.342 178.436 333.613 178.035 333.818C177.634 334.014 177.181 334.112 176.677 334.112C176.098 334.112 175.608 334.005 175.207 333.79C174.815 333.566 174.516 333.323 174.311 333.062H174.255ZM176.369 333.048C177.022 333.048 177.54 332.805 177.923 332.32C178.315 331.825 178.511 331.163 178.511 330.332C178.511 329.567 178.32 328.955 177.937 328.498C177.564 328.041 177.055 327.812 176.411 327.812C175.748 327.812 175.221 328.05 174.829 328.526C174.446 329.002 174.255 329.641 174.255 330.444C174.255 331.237 174.446 331.872 174.829 332.348C175.212 332.815 175.725 333.048 176.369 333.048ZM183.537 334.112C182.79 334.112 182.198 333.925 181.759 333.552C181.32 333.169 181.101 332.642 181.101 331.97C181.101 331.186 181.4 330.589 181.997 330.178C182.604 329.758 183.532 329.548 184.783 329.548H186.099V329.31C186.099 328.797 185.922 328.423 185.567 328.19C185.212 327.957 184.741 327.84 184.153 327.84C183.77 327.84 183.383 327.887 182.991 327.98C182.599 328.064 182.188 328.223 181.759 328.456V327.224C182.114 327.065 182.52 326.949 182.977 326.874C183.434 326.79 183.882 326.748 184.321 326.748C185.301 326.748 186.062 326.972 186.603 327.42C187.144 327.859 187.415 328.573 187.415 329.562V334H186.071V332.908H186.043C185.744 333.347 185.362 333.659 184.895 333.846C184.438 334.023 183.985 334.112 183.537 334.112ZM183.859 332.992C184.186 332.992 184.484 332.941 184.755 332.838C185.035 332.735 185.273 332.595 185.469 332.418C185.665 332.231 185.819 332.017 185.931 331.774C186.043 331.531 186.099 331.275 186.099 331.004V330.556H184.839C184.4 330.556 184.032 330.589 183.733 330.654C183.444 330.719 183.206 330.813 183.019 330.934C182.832 331.055 182.697 331.195 182.613 331.354C182.538 331.513 182.501 331.69 182.501 331.886C182.501 332.241 182.622 332.516 182.865 332.712C183.108 332.899 183.439 332.992 183.859 332.992ZM192.212 337.192C191.838 337.192 191.493 337.169 191.176 337.122C190.858 337.075 190.578 337.019 190.336 336.954C190.056 336.889 189.799 336.809 189.566 336.716V335.456C189.799 335.577 190.056 335.689 190.336 335.792C190.578 335.876 190.858 335.951 191.176 336.016C191.493 336.091 191.838 336.128 192.212 336.128C193.864 336.128 194.69 335.297 194.69 333.636V332.894H194.648C194.414 333.239 194.088 333.51 193.668 333.706C193.257 333.902 192.804 334 192.31 334C191.843 334 191.409 333.916 191.008 333.748C190.616 333.58 190.27 333.342 189.972 333.034C189.682 332.717 189.454 332.339 189.286 331.9C189.118 331.452 189.034 330.948 189.034 330.388C189.034 329.809 189.122 329.296 189.3 328.848C189.477 328.391 189.715 328.008 190.014 327.7C190.322 327.392 190.681 327.159 191.092 327C191.502 326.832 191.941 326.748 192.408 326.748C192.949 326.748 193.406 326.86 193.78 327.084C194.153 327.308 194.47 327.574 194.732 327.882H194.774V326.86H196.006V333.636C196.006 334.831 195.698 335.722 195.082 336.31C194.475 336.898 193.518 337.192 192.212 337.192ZM192.59 332.936C192.879 332.936 193.15 332.88 193.402 332.768C193.663 332.656 193.887 332.493 194.074 332.278C194.26 332.054 194.405 331.788 194.508 331.48C194.62 331.163 194.676 330.799 194.676 330.388C194.676 329.968 194.62 329.599 194.508 329.282C194.396 328.955 194.242 328.685 194.046 328.47C193.85 328.246 193.621 328.083 193.36 327.98C193.098 327.868 192.814 327.812 192.506 327.812C192.216 327.812 191.946 327.863 191.694 327.966C191.442 328.069 191.222 328.227 191.036 328.442C190.849 328.647 190.7 328.909 190.588 329.226C190.485 329.534 190.434 329.893 190.434 330.304C190.434 330.715 190.49 331.083 190.602 331.41C190.723 331.727 190.882 332.003 191.078 332.236C191.274 332.46 191.502 332.633 191.764 332.754C192.025 332.875 192.3 332.936 192.59 332.936ZM199.21 330.724C199.285 331.461 199.537 332.031 199.966 332.432C200.395 332.824 200.974 333.02 201.702 333.02C202.131 333.02 202.551 332.969 202.962 332.866C203.382 332.754 203.727 332.619 203.998 332.46V333.748C203.774 333.823 203.466 333.902 203.074 333.986C202.682 334.07 202.197 334.112 201.618 334.112C200.405 334.112 199.471 333.776 198.818 333.104C198.174 332.432 197.852 331.499 197.852 330.304C197.852 329.763 197.936 329.273 198.104 328.834C198.281 328.395 198.519 328.022 198.818 327.714C199.126 327.406 199.485 327.168 199.896 327C200.307 326.832 200.75 326.748 201.226 326.748C202.243 326.748 203.041 327.047 203.62 327.644C204.199 328.241 204.488 329.147 204.488 330.36V330.724H199.21ZM201.212 327.812C200.661 327.812 200.209 327.989 199.854 328.344C199.509 328.689 199.294 329.156 199.21 329.744H203.088C203.088 329.128 202.911 328.652 202.556 328.316C202.201 327.98 201.753 327.812 201.212 327.812ZM213.191 327.924H211.427V331.774C211.427 332.203 211.535 332.502 211.749 332.67C211.973 332.829 212.235 332.908 212.533 332.908C212.757 332.908 212.995 332.871 213.247 332.796V333.986C213.07 334.033 212.902 334.065 212.743 334.084C212.585 334.103 212.44 334.112 212.309 334.112C211.6 334.112 211.059 333.921 210.685 333.538C210.312 333.146 210.125 332.6 210.125 331.9V327.924H208.823V326.86H210.125V325.082L211.427 324.606V326.86H213.191V327.924ZM218.035 334.112C217.494 334.112 216.999 334.023 216.551 333.846C216.103 333.669 215.716 333.417 215.389 333.09C215.072 332.763 214.825 332.376 214.647 331.928C214.47 331.48 214.381 330.981 214.381 330.43C214.381 329.889 214.47 329.394 214.647 328.946C214.825 328.489 215.072 328.097 215.389 327.77C215.716 327.443 216.103 327.191 216.551 327.014C216.999 326.837 217.494 326.748 218.035 326.748C218.577 326.748 219.071 326.837 219.519 327.014C219.967 327.191 220.35 327.443 220.667 327.77C220.994 328.097 221.246 328.489 221.423 328.946C221.601 329.394 221.689 329.889 221.689 330.43C221.689 330.981 221.601 331.48 221.423 331.928C221.246 332.376 220.994 332.763 220.667 333.09C220.35 333.417 219.967 333.669 219.519 333.846C219.071 334.023 218.577 334.112 218.035 334.112ZM218.035 333.048C218.343 333.048 218.633 332.987 218.903 332.866C219.183 332.745 219.421 332.572 219.617 332.348C219.823 332.115 219.986 331.839 220.107 331.522C220.229 331.195 220.289 330.831 220.289 330.43C220.289 330.029 220.229 329.669 220.107 329.352C219.986 329.025 219.823 328.75 219.617 328.526C219.412 328.293 219.174 328.115 218.903 327.994C218.633 327.873 218.343 327.812 218.035 327.812C217.727 327.812 217.433 327.873 217.153 327.994C216.883 328.115 216.645 328.293 216.439 328.526C216.243 328.75 216.085 329.025 215.963 329.352C215.842 329.669 215.781 330.029 215.781 330.43C215.781 330.831 215.842 331.195 215.963 331.522C216.085 331.839 216.243 332.115 216.439 332.348C216.645 332.572 216.883 332.745 217.153 332.866C217.433 332.987 217.727 333.048 218.035 333.048ZM228.6 334.112C227.853 334.112 227.26 333.925 226.822 333.552C226.383 333.169 226.164 332.642 226.164 331.97C226.164 331.186 226.462 330.589 227.06 330.178C227.666 329.758 228.595 329.548 229.846 329.548H231.162V329.31C231.162 328.797 230.984 328.423 230.63 328.19C230.275 327.957 229.804 327.84 229.216 327.84C228.833 327.84 228.446 327.887 228.054 327.98C227.662 328.064 227.251 328.223 226.822 328.456V327.224C227.176 327.065 227.582 326.949 228.04 326.874C228.497 326.79 228.945 326.748 229.384 326.748C230.364 326.748 231.124 326.972 231.666 327.42C232.207 327.859 232.478 328.573 232.478 329.562V334H231.134V332.908H231.106C230.807 333.347 230.424 333.659 229.958 333.846C229.5 334.023 229.048 334.112 228.6 334.112ZM228.922 332.992C229.248 332.992 229.547 332.941 229.818 332.838C230.098 332.735 230.336 332.595 230.532 332.418C230.728 332.231 230.882 332.017 230.994 331.774C231.106 331.531 231.162 331.275 231.162 331.004V330.556H229.902C229.463 330.556 229.094 330.589 228.796 330.654C228.506 330.719 228.268 330.813 228.082 330.934C227.895 331.055 227.76 331.195 227.676 331.354C227.601 331.513 227.564 331.69 227.564 331.886C227.564 332.241 227.685 332.516 227.928 332.712C228.17 332.899 228.502 332.992 228.922 332.992ZM234.782 323.332H236.098V334H234.782V323.332ZM238.843 323.332H240.159V334H238.843V323.332ZM245.871 334.112C245.33 334.112 244.835 334.023 244.387 333.846C243.939 333.669 243.552 333.417 243.225 333.09C242.908 332.763 242.661 332.376 242.483 331.928C242.306 331.48 242.217 330.981 242.217 330.43C242.217 329.889 242.306 329.394 242.483 328.946C242.661 328.489 242.908 328.097 243.225 327.77C243.552 327.443 243.939 327.191 244.387 327.014C244.835 326.837 245.33 326.748 245.871 326.748C246.413 326.748 246.907 326.837 247.355 327.014C247.803 327.191 248.186 327.443 248.503 327.77C248.83 328.097 249.082 328.489 249.259 328.946C249.437 329.394 249.525 329.889 249.525 330.43C249.525 330.981 249.437 331.48 249.259 331.928C249.082 332.376 248.83 332.763 248.503 333.09C248.186 333.417 247.803 333.669 247.355 333.846C246.907 334.023 246.413 334.112 245.871 334.112ZM245.871 333.048C246.179 333.048 246.469 332.987 246.739 332.866C247.019 332.745 247.257 332.572 247.453 332.348C247.659 332.115 247.822 331.839 247.943 331.522C248.065 331.195 248.125 330.831 248.125 330.43C248.125 330.029 248.065 329.669 247.943 329.352C247.822 329.025 247.659 328.75 247.453 328.526C247.248 328.293 247.01 328.115 246.739 327.994C246.469 327.873 246.179 327.812 245.871 327.812C245.563 327.812 245.269 327.873 244.989 327.994C244.719 328.115 244.481 328.293 244.275 328.526C244.079 328.75 243.921 329.025 243.799 329.352C243.678 329.669 243.617 330.029 243.617 330.43C243.617 330.831 243.678 331.195 243.799 331.522C243.921 331.839 244.079 332.115 244.275 332.348C244.481 332.572 244.719 332.745 244.989 332.866C245.269 332.987 245.563 333.048 245.871 333.048ZM250.3 326.86H251.742L253.338 332.544L255.172 326.86H256.292L258.112 332.572L259.834 326.86H261.122L258.812 334H257.426L255.662 328.596L253.982 334H252.596L250.3 326.86ZM269.314 327.924H267.55V331.774C267.55 332.203 267.658 332.502 267.872 332.67C268.096 332.829 268.358 332.908 268.656 332.908C268.88 332.908 269.118 332.871 269.37 332.796V333.986C269.193 334.033 269.025 334.065 268.866 334.084C268.708 334.103 268.563 334.112 268.432 334.112C267.723 334.112 267.182 333.921 266.808 333.538C266.435 333.146 266.248 332.6 266.248 331.9V327.924H264.946V326.86H266.248V325.082L267.55 324.606V326.86H269.314V327.924ZM271.049 323.36H272.365V326.86L272.351 327.882H272.393C272.663 327.499 272.999 327.215 273.401 327.028C273.802 326.841 274.259 326.748 274.773 326.748C275.613 326.748 276.275 327 276.761 327.504C277.246 327.999 277.489 328.764 277.489 329.8V334H276.173V330.22C276.173 329.763 276.131 329.38 276.047 329.072C275.972 328.755 275.86 328.507 275.711 328.33C275.571 328.143 275.393 328.013 275.179 327.938C274.973 327.854 274.745 327.812 274.493 327.812C273.849 327.812 273.331 328.045 272.939 328.512C272.556 328.969 272.365 329.679 272.365 330.64V334H271.049V323.36ZM280.476 330.724C280.55 331.461 280.802 332.031 281.232 332.432C281.661 332.824 282.24 333.02 282.968 333.02C283.397 333.02 283.817 332.969 284.228 332.866C284.648 332.754 284.993 332.619 285.264 332.46V333.748C285.04 333.823 284.732 333.902 284.34 333.986C283.948 334.07 283.462 334.112 282.884 334.112C281.67 334.112 280.737 333.776 280.084 333.104C279.44 332.432 279.118 331.499 279.118 330.304C279.118 329.763 279.202 329.273 279.37 328.834C279.547 328.395 279.785 328.022 280.084 327.714C280.392 327.406 280.751 327.168 281.162 327C281.572 326.832 282.016 326.748 282.492 326.748C283.509 326.748 284.307 327.047 284.886 327.644C285.464 328.241 285.754 329.147 285.754 330.36V330.724H280.476ZM282.478 327.812C281.927 327.812 281.474 327.989 281.12 328.344C280.774 328.689 280.56 329.156 280.476 329.744H284.354C284.354 329.128 284.176 328.652 283.822 328.316C283.467 327.98 283.019 327.812 282.478 327.812ZM291.013 324.2H293.911C294.536 324.2 295.068 324.261 295.507 324.382C295.955 324.494 296.319 324.662 296.599 324.886C296.879 325.101 297.084 325.367 297.215 325.684C297.346 325.992 297.411 326.337 297.411 326.72C297.411 327.252 297.266 327.709 296.977 328.092C296.697 328.475 296.24 328.75 295.605 328.918V328.946C296.352 329.105 296.884 329.394 297.201 329.814C297.528 330.225 297.691 330.729 297.691 331.326C297.691 332.175 297.42 332.833 296.879 333.3C296.347 333.767 295.451 334 294.191 334H291.013V324.2ZM294.191 332.852C294.891 332.852 295.4 332.707 295.717 332.418C296.044 332.129 296.207 331.718 296.207 331.186C296.207 330.663 296.044 330.257 295.717 329.968C295.4 329.679 294.891 329.534 294.191 329.534H292.385V332.852H294.191ZM293.911 328.386C294.658 328.386 295.19 328.251 295.507 327.98C295.834 327.7 295.997 327.327 295.997 326.86C295.997 326.403 295.834 326.039 295.507 325.768C295.19 325.488 294.658 325.348 293.911 325.348H292.385V328.386H293.911ZM302.512 334.112C301.961 334.112 301.462 334.023 301.014 333.846C300.575 333.669 300.202 333.421 299.894 333.104C299.586 332.777 299.348 332.39 299.18 331.942C299.021 331.485 298.942 330.981 298.942 330.43C298.942 329.879 299.026 329.38 299.194 328.932C299.362 328.475 299.6 328.087 299.908 327.77C300.225 327.443 300.603 327.191 301.042 327.014C301.481 326.837 301.975 326.748 302.526 326.748C302.806 326.748 303.053 326.762 303.268 326.79C303.492 326.818 303.683 326.851 303.842 326.888C304.019 326.925 304.173 326.972 304.304 327.028V328.162C304.164 328.097 304.01 328.041 303.842 327.994C303.693 327.947 303.52 327.905 303.324 327.868C303.128 327.831 302.909 327.812 302.666 327.812C301.919 327.812 301.345 328.041 300.944 328.498C300.543 328.946 300.342 329.59 300.342 330.43C300.342 331.27 300.543 331.919 300.944 332.376C301.345 332.824 301.915 333.048 302.652 333.048C302.895 333.048 303.114 333.029 303.31 332.992C303.515 332.955 303.693 332.913 303.842 332.866C304.01 332.819 304.164 332.759 304.304 332.684V333.832C304.164 333.888 304.005 333.935 303.828 333.972C303.669 334.009 303.478 334.042 303.254 334.07C303.03 334.098 302.783 334.112 302.512 334.112ZM309.322 334.112C308.781 334.112 308.286 334.023 307.838 333.846C307.39 333.669 307.003 333.417 306.676 333.09C306.359 332.763 306.112 332.376 305.934 331.928C305.757 331.48 305.668 330.981 305.668 330.43C305.668 329.889 305.757 329.394 305.934 328.946C306.112 328.489 306.359 328.097 306.676 327.77C307.003 327.443 307.39 327.191 307.838 327.014C308.286 326.837 308.781 326.748 309.322 326.748C309.864 326.748 310.358 326.837 310.806 327.014C311.254 327.191 311.637 327.443 311.954 327.77C312.281 328.097 312.533 328.489 312.71 328.946C312.888 329.394 312.976 329.889 312.976 330.43C312.976 330.981 312.888 331.48 312.71 331.928C312.533 332.376 312.281 332.763 311.954 333.09C311.637 333.417 311.254 333.669 310.806 333.846C310.358 334.023 309.864 334.112 309.322 334.112ZM309.322 333.048C309.63 333.048 309.92 332.987 310.19 332.866C310.47 332.745 310.708 332.572 310.904 332.348C311.11 332.115 311.273 331.839 311.394 331.522C311.516 331.195 311.576 330.831 311.576 330.43C311.576 330.029 311.516 329.669 311.394 329.352C311.273 329.025 311.11 328.75 310.904 328.526C310.699 328.293 310.461 328.115 310.19 327.994C309.92 327.873 309.63 327.812 309.322 327.812C309.014 327.812 308.72 327.873 308.44 327.994C308.17 328.115 307.932 328.293 307.726 328.526C307.53 328.75 307.372 329.025 307.25 329.352C307.129 329.669 307.068 330.029 307.068 330.43C307.068 330.831 307.129 331.195 307.25 331.522C307.372 331.839 307.53 332.115 307.726 332.348C307.932 332.572 308.17 332.745 308.44 332.866C308.72 332.987 309.014 333.048 309.322 333.048ZM318.193 324.2H321.329C322.542 324.2 323.438 324.471 324.017 325.012C324.595 325.544 324.885 326.305 324.885 327.294C324.885 328.283 324.595 329.049 324.017 329.59C323.438 330.122 322.542 330.388 321.329 330.388H319.565V334H318.193V324.2ZM321.329 329.156C322.047 329.156 322.575 329.002 322.911 328.694C323.256 328.377 323.429 327.91 323.429 327.294C323.429 326.678 323.256 326.216 322.911 325.908C322.575 325.591 322.047 325.432 321.329 325.432H319.565V329.156H321.329ZM326.657 323.332H327.973V334H326.657V323.332ZM336.724 334H335.408V332.978H335.38C335.109 333.361 334.768 333.645 334.358 333.832C333.956 334.019 333.504 334.112 333 334.112C332.16 334.112 331.497 333.865 331.012 333.37C330.526 332.866 330.284 332.096 330.284 331.06V326.86H331.6V330.64C331.6 331.107 331.637 331.494 331.712 331.802C331.796 332.11 331.908 332.357 332.048 332.544C332.197 332.721 332.374 332.852 332.58 332.936C332.794 333.011 333.028 333.048 333.28 333.048C333.924 333.048 334.437 332.819 334.82 332.362C335.212 331.895 335.408 331.181 335.408 330.22V326.86H336.724V334ZM341.755 337.192C341.381 337.192 341.036 337.169 340.719 337.122C340.401 337.075 340.121 337.019 339.879 336.954C339.599 336.889 339.342 336.809 339.109 336.716V335.456C339.342 335.577 339.599 335.689 339.879 335.792C340.121 335.876 340.401 335.951 340.719 336.016C341.036 336.091 341.381 336.128 341.755 336.128C343.407 336.128 344.233 335.297 344.233 333.636V332.894H344.191C343.957 333.239 343.631 333.51 343.211 333.706C342.8 333.902 342.347 334 341.853 334C341.386 334 340.952 333.916 340.551 333.748C340.159 333.58 339.813 333.342 339.515 333.034C339.225 332.717 338.997 332.339 338.829 331.9C338.661 331.452 338.577 330.948 338.577 330.388C338.577 329.809 338.665 329.296 338.843 328.848C339.02 328.391 339.258 328.008 339.557 327.7C339.865 327.392 340.224 327.159 340.635 327C341.045 326.832 341.484 326.748 341.951 326.748C342.492 326.748 342.949 326.86 343.323 327.084C343.696 327.308 344.013 327.574 344.275 327.882H344.317V326.86H345.549V333.636C345.549 334.831 345.241 335.722 344.625 336.31C344.018 336.898 343.061 337.192 341.755 337.192ZM342.133 332.936C342.422 332.936 342.693 332.88 342.945 332.768C343.206 332.656 343.43 332.493 343.617 332.278C343.803 332.054 343.948 331.788 344.051 331.48C344.163 331.163 344.219 330.799 344.219 330.388C344.219 329.968 344.163 329.599 344.051 329.282C343.939 328.955 343.785 328.685 343.589 328.47C343.393 328.246 343.164 328.083 342.903 327.98C342.641 327.868 342.357 327.812 342.049 327.812C341.759 327.812 341.489 327.863 341.237 327.966C340.985 328.069 340.765 328.227 340.579 328.442C340.392 328.647 340.243 328.909 340.131 329.226C340.028 329.534 339.977 329.893 339.977 330.304C339.977 330.715 340.033 331.083 340.145 331.41C340.266 331.727 340.425 332.003 340.621 332.236C340.817 332.46 341.045 332.633 341.307 332.754C341.568 332.875 341.843 332.936 342.133 332.936ZM348.081 326.86H349.397V334H348.081V326.86ZM348.011 323.92H349.495V325.404H348.011V323.92ZM351.932 326.86H353.248V327.882H353.276C353.546 327.499 353.882 327.215 354.284 327.028C354.694 326.841 355.152 326.748 355.656 326.748C356.496 326.748 357.158 327 357.644 327.504C358.129 327.999 358.372 328.764 358.372 329.8V334H357.056V330.22C357.056 329.763 357.014 329.38 356.93 329.072C356.855 328.755 356.743 328.507 356.594 328.33C356.454 328.143 356.276 328.013 356.062 327.938C355.856 327.854 355.628 327.812 355.376 327.812C354.732 327.812 354.214 328.045 353.822 328.512C353.439 328.969 353.248 329.679 353.248 330.64V334H351.932V326.86ZM97.088 344.2H98.572L102.45 354H100.91L99.972 351.48H95.632L94.694 354H93.21L97.088 344.2ZM96.052 350.36H99.566L97.83 345.67H97.802L96.052 350.36ZM106.397 354.112C105.893 354.112 105.435 354.019 105.025 353.832C104.614 353.645 104.264 353.384 103.975 353.048C103.685 352.712 103.461 352.315 103.303 351.858C103.153 351.391 103.079 350.887 103.079 350.346C103.079 349.833 103.158 349.357 103.317 348.918C103.475 348.479 103.699 348.101 103.989 347.784C104.278 347.457 104.623 347.205 105.025 347.028C105.435 346.841 105.883 346.748 106.369 346.748C106.91 346.748 107.367 346.851 107.741 347.056C108.123 347.261 108.445 347.513 108.707 347.812H108.735V343.36H110.051V354H108.791V352.992H108.707C108.436 353.337 108.114 353.613 107.741 353.818C107.377 354.014 106.929 354.112 106.397 354.112ZM106.621 353.048C106.929 353.048 107.213 352.983 107.475 352.852C107.736 352.721 107.96 352.544 108.147 352.32C108.333 352.087 108.478 351.811 108.581 351.494C108.683 351.177 108.735 350.827 108.735 350.444C108.735 350.061 108.679 349.711 108.567 349.394C108.464 349.067 108.319 348.787 108.133 348.554C107.946 348.321 107.722 348.139 107.461 348.008C107.199 347.877 106.91 347.812 106.593 347.812C106.294 347.812 106.014 347.877 105.753 348.008C105.491 348.139 105.267 348.321 105.081 348.554C104.894 348.778 104.745 349.049 104.633 349.366C104.53 349.683 104.479 350.029 104.479 350.402C104.479 350.785 104.53 351.139 104.633 351.466C104.745 351.783 104.894 352.063 105.081 352.306C105.277 352.539 105.505 352.721 105.767 352.852C106.028 352.983 106.313 353.048 106.621 353.048ZM114.207 354.112C113.46 354.112 112.868 353.925 112.429 353.552C111.99 353.169 111.771 352.642 111.771 351.97C111.771 351.186 112.07 350.589 112.667 350.178C113.274 349.758 114.202 349.548 115.453 349.548H116.769V349.31C116.769 348.797 116.592 348.423 116.237 348.19C115.882 347.957 115.411 347.84 114.823 347.84C114.44 347.84 114.053 347.887 113.661 347.98C113.269 348.064 112.858 348.223 112.429 348.456V347.224C112.784 347.065 113.19 346.949 113.647 346.874C114.104 346.79 114.552 346.748 114.991 346.748C115.971 346.748 116.732 346.972 117.273 347.42C117.814 347.859 118.085 348.573 118.085 349.562V354H116.741V352.908H116.713C116.414 353.347 116.032 353.659 115.565 353.846C115.108 354.023 114.655 354.112 114.207 354.112ZM114.529 352.992C114.856 352.992 115.154 352.941 115.425 352.838C115.705 352.735 115.943 352.595 116.139 352.418C116.335 352.231 116.489 352.017 116.601 351.774C116.713 351.531 116.769 351.275 116.769 351.004V350.556H115.509C115.07 350.556 114.702 350.589 114.403 350.654C114.114 350.719 113.876 350.813 113.689 350.934C113.502 351.055 113.367 351.195 113.283 351.354C113.208 351.513 113.171 351.69 113.171 351.886C113.171 352.241 113.292 352.516 113.535 352.712C113.778 352.899 114.109 352.992 114.529 352.992ZM121.482 353.062V357.136H120.166V346.86H121.426V347.882H121.454C121.64 347.63 121.841 347.429 122.056 347.28C122.28 347.131 122.499 347.019 122.714 346.944C122.928 346.86 123.134 346.809 123.33 346.79C123.526 346.762 123.694 346.748 123.834 346.748C124.356 346.748 124.823 346.841 125.234 347.028C125.644 347.205 125.99 347.457 126.27 347.784C126.55 348.111 126.764 348.498 126.914 348.946C127.063 349.385 127.138 349.861 127.138 350.374C127.138 350.878 127.063 351.359 126.914 351.816C126.774 352.264 126.564 352.661 126.284 353.006C126.004 353.342 125.663 353.613 125.262 353.818C124.86 354.014 124.408 354.112 123.904 354.112C123.325 354.112 122.835 354.005 122.434 353.79C122.042 353.566 121.743 353.323 121.538 353.062H121.482ZM123.596 353.048C124.249 353.048 124.767 352.805 125.15 352.32C125.542 351.825 125.738 351.163 125.738 350.332C125.738 349.567 125.546 348.955 125.164 348.498C124.79 348.041 124.282 347.812 123.638 347.812C122.975 347.812 122.448 348.05 122.056 348.526C121.673 349.002 121.482 349.641 121.482 350.444C121.482 351.237 121.673 351.872 122.056 352.348C122.438 352.815 122.952 353.048 123.596 353.048ZM132.582 347.924H130.818V351.774C130.818 352.203 130.925 352.502 131.14 352.67C131.364 352.829 131.625 352.908 131.924 352.908C132.148 352.908 132.386 352.871 132.638 352.796V353.986C132.461 354.033 132.293 354.065 132.134 354.084C131.975 354.103 131.831 354.112 131.7 354.112C130.991 354.112 130.449 353.921 130.076 353.538C129.703 353.146 129.516 352.6 129.516 351.9V347.924H128.214V346.86H129.516V345.082L130.818 344.606V346.86H132.582V347.924ZM135.13 350.724C135.205 351.461 135.457 352.031 135.886 352.432C136.315 352.824 136.894 353.02 137.622 353.02C138.051 353.02 138.471 352.969 138.882 352.866C139.302 352.754 139.647 352.619 139.918 352.46V353.748C139.694 353.823 139.386 353.902 138.994 353.986C138.602 354.07 138.117 354.112 137.538 354.112C136.325 354.112 135.391 353.776 134.738 353.104C134.094 352.432 133.772 351.499 133.772 350.304C133.772 349.763 133.856 349.273 134.024 348.834C134.201 348.395 134.439 348.022 134.738 347.714C135.046 347.406 135.405 347.168 135.816 347C136.227 346.832 136.67 346.748 137.146 346.748C138.163 346.748 138.961 347.047 139.54 347.644C140.119 348.241 140.408 349.147 140.408 350.36V350.724H135.13ZM137.132 347.812C136.581 347.812 136.129 347.989 135.774 348.344C135.429 348.689 135.214 349.156 135.13 349.744H139.008C139.008 349.128 138.831 348.652 138.476 348.316C138.121 347.98 137.673 347.812 137.132 347.812ZM142.301 346.86H143.533V348.022H143.561C143.794 347.565 144.074 347.238 144.401 347.042C144.737 346.846 145.138 346.748 145.605 346.748C145.735 346.748 145.866 346.757 145.997 346.776C146.137 346.785 146.281 346.799 146.431 346.818V347.966C146.291 347.947 146.155 347.933 146.025 347.924C145.894 347.905 145.768 347.896 145.647 347.896C144.928 347.896 144.41 348.143 144.093 348.638C143.775 349.133 143.617 349.856 143.617 350.808V354H142.301V346.86ZM152.503 353.062V357.136H151.187V346.86H152.447V347.882H152.475C152.662 347.63 152.862 347.429 153.077 347.28C153.301 347.131 153.52 347.019 153.735 346.944C153.95 346.86 154.155 346.809 154.351 346.79C154.547 346.762 154.715 346.748 154.855 346.748C155.378 346.748 155.844 346.841 156.255 347.028C156.666 347.205 157.011 347.457 157.291 347.784C157.571 348.111 157.786 348.498 157.935 348.946C158.084 349.385 158.159 349.861 158.159 350.374C158.159 350.878 158.084 351.359 157.935 351.816C157.795 352.264 157.585 352.661 157.305 353.006C157.025 353.342 156.684 353.613 156.283 353.818C155.882 354.014 155.429 354.112 154.925 354.112C154.346 354.112 153.856 354.005 153.455 353.79C153.063 353.566 152.764 353.323 152.559 353.062H152.503ZM154.617 353.048C155.27 353.048 155.788 352.805 156.171 352.32C156.563 351.825 156.759 351.163 156.759 350.332C156.759 349.567 156.568 348.955 156.185 348.498C155.812 348.041 155.303 347.812 154.659 347.812C153.996 347.812 153.469 348.05 153.077 348.526C152.694 349.002 152.503 349.641 152.503 350.444C152.503 351.237 152.694 351.872 153.077 352.348C153.46 352.815 153.973 353.048 154.617 353.048ZM160.229 343.332H161.545V354H160.229V343.332ZM170.296 354H168.98V352.978H168.952C168.681 353.361 168.341 353.645 167.93 353.832C167.529 354.019 167.076 354.112 166.572 354.112C165.732 354.112 165.069 353.865 164.584 353.37C164.099 352.866 163.856 352.096 163.856 351.06V346.86H165.172V350.64C165.172 351.107 165.209 351.494 165.284 351.802C165.368 352.11 165.48 352.357 165.62 352.544C165.769 352.721 165.947 352.852 166.152 352.936C166.367 353.011 166.6 353.048 166.852 353.048C167.496 353.048 168.009 352.819 168.392 352.362C168.784 351.895 168.98 351.181 168.98 350.22V346.86H170.296V354ZM175.327 357.192C174.954 357.192 174.608 357.169 174.291 357.122C173.974 357.075 173.694 357.019 173.451 356.954C173.171 356.889 172.914 356.809 172.681 356.716V355.456C172.914 355.577 173.171 355.689 173.451 355.792C173.694 355.876 173.974 355.951 174.291 356.016C174.608 356.091 174.954 356.128 175.327 356.128C176.979 356.128 177.805 355.297 177.805 353.636V352.894H177.763C177.53 353.239 177.203 353.51 176.783 353.706C176.372 353.902 175.92 354 175.425 354C174.958 354 174.524 353.916 174.123 353.748C173.731 353.58 173.386 353.342 173.087 353.034C172.798 352.717 172.569 352.339 172.401 351.9C172.233 351.452 172.149 350.948 172.149 350.388C172.149 349.809 172.238 349.296 172.415 348.848C172.592 348.391 172.83 348.008 173.129 347.7C173.437 347.392 173.796 347.159 174.207 347C174.618 346.832 175.056 346.748 175.523 346.748C176.064 346.748 176.522 346.86 176.895 347.084C177.268 347.308 177.586 347.574 177.847 347.882H177.889V346.86H179.121V353.636C179.121 354.831 178.813 355.722 178.197 356.31C177.59 356.898 176.634 357.192 175.327 357.192ZM175.705 352.936C175.994 352.936 176.265 352.88 176.517 352.768C176.778 352.656 177.002 352.493 177.189 352.278C177.376 352.054 177.52 351.788 177.623 351.48C177.735 351.163 177.791 350.799 177.791 350.388C177.791 349.968 177.735 349.599 177.623 349.282C177.511 348.955 177.357 348.685 177.161 348.47C176.965 348.246 176.736 348.083 176.475 347.98C176.214 347.868 175.929 347.812 175.621 347.812C175.332 347.812 175.061 347.863 174.809 347.966C174.557 348.069 174.338 348.227 174.151 348.442C173.964 348.647 173.815 348.909 173.703 349.226C173.6 349.534 173.549 349.893 173.549 350.304C173.549 350.715 173.605 351.083 173.717 351.41C173.838 351.727 173.997 352.003 174.193 352.236C174.389 352.46 174.618 352.633 174.879 352.754C175.14 352.875 175.416 352.936 175.705 352.936ZM181.653 346.86H182.969V354H181.653V346.86ZM181.583 343.92H183.067V345.404H181.583V343.92ZM185.504 346.86H186.82V347.882H186.848C187.118 347.499 187.454 347.215 187.856 347.028C188.266 346.841 188.724 346.748 189.228 346.748C190.068 346.748 190.73 347 191.216 347.504C191.701 347.999 191.944 348.764 191.944 349.8V354H190.628V350.22C190.628 349.763 190.586 349.38 190.502 349.072C190.427 348.755 190.315 348.507 190.166 348.33C190.026 348.143 189.848 348.013 189.634 347.938C189.428 347.854 189.2 347.812 188.948 347.812C188.304 347.812 187.786 348.045 187.394 348.512C187.011 348.969 186.82 349.679 186.82 350.64V354H185.504V346.86ZM199.109 354.112C198.363 354.112 197.77 353.925 197.331 353.552C196.893 353.169 196.673 352.642 196.673 351.97C196.673 351.186 196.972 350.589 197.569 350.178C198.176 349.758 199.105 349.548 200.355 349.548H201.671V349.31C201.671 348.797 201.494 348.423 201.139 348.19C200.785 347.957 200.313 347.84 199.725 347.84C199.343 347.84 198.955 347.887 198.563 347.98C198.171 348.064 197.761 348.223 197.331 348.456V347.224C197.686 347.065 198.092 346.949 198.549 346.874C199.007 346.79 199.455 346.748 199.893 346.748C200.873 346.748 201.634 346.972 202.175 347.42C202.717 347.859 202.987 348.573 202.987 349.562V354H201.643V352.908H201.615C201.317 353.347 200.934 353.659 200.467 353.846C200.01 354.023 199.557 354.112 199.109 354.112ZM199.431 352.992C199.758 352.992 200.057 352.941 200.327 352.838C200.607 352.735 200.845 352.595 201.041 352.418C201.237 352.231 201.391 352.017 201.503 351.774C201.615 351.531 201.671 351.275 201.671 351.004V350.556H200.411C199.973 350.556 199.604 350.589 199.305 350.654C199.016 350.719 198.778 350.813 198.591 350.934C198.405 351.055 198.269 351.195 198.185 351.354C198.111 351.513 198.073 351.69 198.073 351.886C198.073 352.241 198.195 352.516 198.437 352.712C198.68 352.899 199.011 352.992 199.431 352.992ZM208.176 354.112C207.625 354.112 207.126 354.023 206.678 353.846C206.239 353.669 205.866 353.421 205.558 353.104C205.25 352.777 205.012 352.39 204.844 351.942C204.685 351.485 204.606 350.981 204.606 350.43C204.606 349.879 204.69 349.38 204.858 348.932C205.026 348.475 205.264 348.087 205.572 347.77C205.889 347.443 206.267 347.191 206.706 347.014C207.145 346.837 207.639 346.748 208.19 346.748C208.47 346.748 208.717 346.762 208.932 346.79C209.156 346.818 209.347 346.851 209.506 346.888C209.683 346.925 209.837 346.972 209.968 347.028V348.162C209.828 348.097 209.674 348.041 209.506 347.994C209.357 347.947 209.184 347.905 208.988 347.868C208.792 347.831 208.573 347.812 208.33 347.812C207.583 347.812 207.009 348.041 206.608 348.498C206.207 348.946 206.006 349.59 206.006 350.43C206.006 351.27 206.207 351.919 206.608 352.376C207.009 352.824 207.579 353.048 208.316 353.048C208.559 353.048 208.778 353.029 208.974 352.992C209.179 352.955 209.357 352.913 209.506 352.866C209.674 352.819 209.828 352.759 209.968 352.684V353.832C209.828 353.888 209.669 353.935 209.492 353.972C209.333 354.009 209.142 354.042 208.918 354.07C208.694 354.098 208.447 354.112 208.176 354.112ZM214.902 354.112C214.352 354.112 213.852 354.023 213.404 353.846C212.966 353.669 212.592 353.421 212.284 353.104C211.976 352.777 211.738 352.39 211.57 351.942C211.412 351.485 211.332 350.981 211.332 350.43C211.332 349.879 211.416 349.38 211.584 348.932C211.752 348.475 211.99 348.087 212.298 347.77C212.616 347.443 212.994 347.191 213.432 347.014C213.871 346.837 214.366 346.748 214.916 346.748C215.196 346.748 215.444 346.762 215.658 346.79C215.882 346.818 216.074 346.851 216.232 346.888C216.41 346.925 216.564 346.972 216.694 347.028V348.162C216.554 348.097 216.4 348.041 216.232 347.994C216.083 347.947 215.91 347.905 215.714 347.868C215.518 347.831 215.299 347.812 215.056 347.812C214.31 347.812 213.736 348.041 213.334 348.498C212.933 348.946 212.732 349.59 212.732 350.43C212.732 351.27 212.933 351.919 213.334 352.376C213.736 352.824 214.305 353.048 215.042 353.048C215.285 353.048 215.504 353.029 215.7 352.992C215.906 352.955 216.083 352.913 216.232 352.866C216.4 352.819 216.554 352.759 216.694 352.684V353.832C216.554 353.888 216.396 353.935 216.218 353.972C216.06 354.009 215.868 354.042 215.644 354.07C215.42 354.098 215.173 354.112 214.902 354.112ZM219.417 350.724C219.492 351.461 219.744 352.031 220.173 352.432C220.602 352.824 221.181 353.02 221.909 353.02C222.338 353.02 222.758 352.969 223.169 352.866C223.589 352.754 223.934 352.619 224.205 352.46V353.748C223.981 353.823 223.673 353.902 223.281 353.986C222.889 354.07 222.404 354.112 221.825 354.112C220.612 354.112 219.678 353.776 219.025 353.104C218.381 352.432 218.059 351.499 218.059 350.304C218.059 349.763 218.143 349.273 218.311 348.834C218.488 348.395 218.726 348.022 219.025 347.714C219.333 347.406 219.692 347.168 220.103 347C220.514 346.832 220.957 346.748 221.433 346.748C222.45 346.748 223.248 347.047 223.827 347.644C224.406 348.241 224.695 349.147 224.695 350.36V350.724H219.417ZM221.419 347.812C220.868 347.812 220.416 347.989 220.061 348.344C219.716 348.689 219.501 349.156 219.417 349.744H223.295C223.295 349.128 223.118 348.652 222.763 348.316C222.408 347.98 221.96 347.812 221.419 347.812ZM228.394 354.112C227.918 354.112 227.507 354.075 227.162 354C226.826 353.916 226.527 353.823 226.266 353.72V352.558C226.742 352.773 227.152 352.908 227.498 352.964C227.852 353.011 228.109 353.034 228.268 353.034C228.809 353.034 229.201 352.941 229.444 352.754C229.686 352.558 229.808 352.339 229.808 352.096C229.808 351.947 229.766 351.821 229.682 351.718C229.607 351.606 229.504 351.503 229.374 351.41C229.243 351.317 229.089 351.233 228.912 351.158C228.734 351.074 228.548 350.99 228.352 350.906C228.081 350.785 227.815 350.663 227.554 350.542C227.302 350.411 227.078 350.267 226.882 350.108C226.686 349.94 226.527 349.744 226.406 349.52C226.284 349.296 226.224 349.025 226.224 348.708C226.224 348.12 226.457 347.649 226.924 347.294C227.4 346.93 228.09 346.748 228.996 346.748C229.462 346.748 229.873 346.785 230.228 346.86C230.582 346.935 230.811 346.991 230.914 347.028V348.148C230.643 348.036 230.354 347.957 230.046 347.91C229.747 347.863 229.448 347.84 229.15 347.84C228.618 347.84 228.235 347.915 228.002 348.064C227.768 348.204 227.652 348.395 227.652 348.638C227.652 348.778 227.689 348.904 227.764 349.016C227.838 349.119 227.936 349.217 228.058 349.31C228.188 349.394 228.338 349.478 228.506 349.562C228.674 349.637 228.851 349.716 229.038 349.8C229.29 349.912 229.546 350.029 229.808 350.15C230.078 350.262 230.321 350.402 230.536 350.57C230.76 350.738 230.937 350.939 231.068 351.172C231.208 351.405 231.278 351.695 231.278 352.04C231.278 352.656 231.026 353.155 230.522 353.538C230.027 353.921 229.318 354.112 228.394 354.112ZM234.97 354.112C234.494 354.112 234.083 354.075 233.738 354C233.402 353.916 233.103 353.823 232.842 353.72V352.558C233.318 352.773 233.729 352.908 234.074 352.964C234.429 353.011 234.685 353.034 234.844 353.034C235.385 353.034 235.777 352.941 236.02 352.754C236.263 352.558 236.384 352.339 236.384 352.096C236.384 351.947 236.342 351.821 236.258 351.718C236.183 351.606 236.081 351.503 235.95 351.41C235.819 351.317 235.665 351.233 235.488 351.158C235.311 351.074 235.124 350.99 234.928 350.906C234.657 350.785 234.391 350.663 234.13 350.542C233.878 350.411 233.654 350.267 233.458 350.108C233.262 349.94 233.103 349.744 232.982 349.52C232.861 349.296 232.8 349.025 232.8 348.708C232.8 348.12 233.033 347.649 233.5 347.294C233.976 346.93 234.667 346.748 235.572 346.748C236.039 346.748 236.449 346.785 236.804 346.86C237.159 346.935 237.387 346.991 237.49 347.028V348.148C237.219 348.036 236.93 347.957 236.622 347.91C236.323 347.863 236.025 347.84 235.726 347.84C235.194 347.84 234.811 347.915 234.578 348.064C234.345 348.204 234.228 348.395 234.228 348.638C234.228 348.778 234.265 348.904 234.34 349.016C234.415 349.119 234.513 349.217 234.634 349.31C234.765 349.394 234.914 349.478 235.082 349.562C235.25 349.637 235.427 349.716 235.614 349.8C235.866 349.912 236.123 350.029 236.384 350.15C236.655 350.262 236.897 350.402 237.112 350.57C237.336 350.738 237.513 350.939 237.644 351.172C237.784 351.405 237.854 351.695 237.854 352.04C237.854 352.656 237.602 353.155 237.098 353.538C236.603 353.921 235.894 354.112 234.97 354.112ZM246.551 347.924H244.787V351.774C244.787 352.203 244.894 352.502 245.109 352.67C245.333 352.829 245.594 352.908 245.893 352.908C246.117 352.908 246.355 352.871 246.607 352.796V353.986C246.429 354.033 246.261 354.065 246.103 354.084C245.944 354.103 245.799 354.112 245.669 354.112C244.959 354.112 244.418 353.921 244.045 353.538C243.671 353.146 243.485 352.6 243.485 351.9V347.924H242.183V346.86H243.485V345.082L244.787 344.606V346.86H246.551V347.924ZM251.395 354.112C250.853 354.112 250.359 354.023 249.911 353.846C249.463 353.669 249.075 353.417 248.749 353.09C248.431 352.763 248.184 352.376 248.007 351.928C247.829 351.48 247.741 350.981 247.741 350.43C247.741 349.889 247.829 349.394 248.007 348.946C248.184 348.489 248.431 348.097 248.749 347.77C249.075 347.443 249.463 347.191 249.911 347.014C250.359 346.837 250.853 346.748 251.395 346.748C251.936 346.748 252.431 346.837 252.879 347.014C253.327 347.191 253.709 347.443 254.027 347.77C254.353 348.097 254.605 348.489 254.783 348.946C254.96 349.394 255.049 349.889 255.049 350.43C255.049 350.981 254.96 351.48 254.783 351.928C254.605 352.376 254.353 352.763 254.027 353.09C253.709 353.417 253.327 353.669 252.879 353.846C252.431 354.023 251.936 354.112 251.395 354.112ZM251.395 353.048C251.703 353.048 251.992 352.987 252.263 352.866C252.543 352.745 252.781 352.572 252.977 352.348C253.182 352.115 253.345 351.839 253.467 351.522C253.588 351.195 253.649 350.831 253.649 350.43C253.649 350.029 253.588 349.669 253.467 349.352C253.345 349.025 253.182 348.75 252.977 348.526C252.771 348.293 252.533 348.115 252.263 347.994C251.992 347.873 251.703 347.812 251.395 347.812C251.087 347.812 250.793 347.873 250.513 347.994C250.242 348.115 250.004 348.293 249.799 348.526C249.603 348.75 249.444 349.025 249.323 349.352C249.201 349.669 249.141 350.029 249.141 350.43C249.141 350.831 249.201 351.195 249.323 351.522C249.444 351.839 249.603 352.115 249.799 352.348C250.004 352.572 250.242 352.745 250.513 352.866C250.793 352.987 251.087 353.048 251.395 353.048ZM263.709 347.924H261.945V351.774C261.945 352.203 262.052 352.502 262.267 352.67C262.491 352.829 262.752 352.908 263.051 352.908C263.275 352.908 263.513 352.871 263.765 352.796V353.986C263.588 354.033 263.42 354.065 263.261 354.084C263.102 354.103 262.958 354.112 262.827 354.112C262.118 354.112 261.576 353.921 261.203 353.538C260.83 353.146 260.643 352.6 260.643 351.9V347.924H259.341V346.86H260.643V345.082L261.945 344.606V346.86H263.709V347.924ZM265.443 343.36H266.759V346.86L266.745 347.882H266.787C267.058 347.499 267.394 347.215 267.795 347.028C268.197 346.841 268.654 346.748 269.167 346.748C270.007 346.748 270.67 347 271.155 347.504C271.641 347.999 271.883 348.764 271.883 349.8V354H270.567V350.22C270.567 349.763 270.525 349.38 270.441 349.072C270.367 348.755 270.255 348.507 270.105 348.33C269.965 348.143 269.788 348.013 269.573 347.938C269.368 347.854 269.139 347.812 268.887 347.812C268.243 347.812 267.725 348.045 267.333 348.512C266.951 348.969 266.759 349.679 266.759 350.64V354H265.443V343.36ZM274.87 350.724C274.945 351.461 275.197 352.031 275.626 352.432C276.056 352.824 276.634 353.02 277.362 353.02C277.792 353.02 278.212 352.969 278.622 352.866C279.042 352.754 279.388 352.619 279.658 352.46V353.748C279.434 353.823 279.126 353.902 278.734 353.986C278.342 354.07 277.857 354.112 277.278 354.112C276.065 354.112 275.132 353.776 274.478 353.104C273.834 352.432 273.512 351.499 273.512 350.304C273.512 349.763 273.596 349.273 273.764 348.834C273.942 348.395 274.18 348.022 274.478 347.714C274.786 347.406 275.146 347.168 275.556 347C275.967 346.832 276.41 346.748 276.886 346.748C277.904 346.748 278.702 347.047 279.28 347.644C279.859 348.241 280.148 349.147 280.148 350.36V350.724H274.87ZM276.872 347.812C276.322 347.812 275.869 347.989 275.514 348.344C275.169 348.689 274.954 349.156 274.87 349.744H278.748C278.748 349.128 278.571 348.652 278.216 348.316C277.862 347.98 277.414 347.812 276.872 347.812ZM288.109 354.112C287.605 354.112 287.148 354.019 286.737 353.832C286.327 353.645 285.977 353.384 285.687 353.048C285.398 352.712 285.174 352.315 285.015 351.858C284.866 351.391 284.791 350.887 284.791 350.346C284.791 349.833 284.871 349.357 285.029 348.918C285.188 348.479 285.412 348.101 285.701 347.784C285.991 347.457 286.336 347.205 286.737 347.028C287.148 346.841 287.596 346.748 288.081 346.748C288.623 346.748 289.08 346.851 289.453 347.056C289.836 347.261 290.158 347.513 290.419 347.812H290.447V343.36H291.763V354H290.503V352.992H290.419C290.149 353.337 289.827 353.613 289.453 353.818C289.089 354.014 288.641 354.112 288.109 354.112ZM288.333 353.048C288.641 353.048 288.926 352.983 289.187 352.852C289.449 352.721 289.673 352.544 289.859 352.32C290.046 352.087 290.191 351.811 290.293 351.494C290.396 351.177 290.447 350.827 290.447 350.444C290.447 350.061 290.391 349.711 290.279 349.394C290.177 349.067 290.032 348.787 289.845 348.554C289.659 348.321 289.435 348.139 289.173 348.008C288.912 347.877 288.623 347.812 288.305 347.812C288.007 347.812 287.727 347.877 287.465 348.008C287.204 348.139 286.98 348.321 286.793 348.554C286.607 348.778 286.457 349.049 286.345 349.366C286.243 349.683 286.191 350.029 286.191 350.402C286.191 350.785 286.243 351.139 286.345 351.466C286.457 351.783 286.607 352.063 286.793 352.306C286.989 352.539 287.218 352.721 287.479 352.852C287.741 352.983 288.025 353.048 288.333 353.048ZM297.74 354.112C297.198 354.112 296.736 354.019 296.354 353.832C295.98 353.645 295.649 353.37 295.36 353.006H295.332L295.234 354H294.086V343.36H295.402V347.812H295.43C295.691 347.523 296.008 347.275 296.382 347.07C296.764 346.855 297.226 346.748 297.768 346.748C298.253 346.748 298.696 346.841 299.098 347.028C299.508 347.205 299.858 347.457 300.148 347.784C300.437 348.101 300.661 348.479 300.82 348.918C300.978 349.357 301.058 349.833 301.058 350.346C301.058 350.887 300.978 351.391 300.82 351.858C300.67 352.315 300.451 352.712 300.162 353.048C299.872 353.384 299.522 353.645 299.112 353.832C298.701 354.019 298.244 354.112 297.74 354.112ZM297.516 353.048C297.824 353.048 298.108 352.983 298.37 352.852C298.631 352.721 298.855 352.539 299.042 352.306C299.238 352.063 299.387 351.783 299.49 351.466C299.602 351.139 299.658 350.785 299.658 350.402C299.658 350.029 299.602 349.683 299.49 349.366C299.387 349.049 299.238 348.778 299.042 348.554C298.855 348.321 298.631 348.139 298.37 348.008C298.118 347.877 297.842 347.812 297.544 347.812C297.226 347.812 296.937 347.877 296.676 348.008C296.414 348.139 296.186 348.321 295.99 348.554C295.803 348.787 295.658 349.067 295.556 349.394C295.453 349.711 295.402 350.061 295.402 350.444C295.402 350.827 295.453 351.177 295.556 351.494C295.658 351.811 295.803 352.087 295.99 352.32C296.176 352.544 296.4 352.721 296.662 352.852C296.923 352.983 297.208 353.048 297.516 353.048ZM302.713 352.432H304.281V354H302.713V352.432ZM305.054 346.86H306.496L308.68 352.684H308.764L310.99 346.86H312.306L309.464 354H307.896L305.054 346.86ZM317.344 347.924H315.58V351.774C315.58 352.203 315.687 352.502 315.902 352.67C316.126 352.829 316.387 352.908 316.686 352.908C316.91 352.908 317.148 352.871 317.4 352.796V353.986C317.222 354.033 317.054 354.065 316.896 354.084C316.737 354.103 316.592 354.112 316.462 354.112C315.752 354.112 315.211 353.921 314.838 353.538C314.464 353.146 314.278 352.6 314.278 351.9V347.924H312.976V346.86H314.278V345.082L315.58 344.606V346.86H317.344V347.924ZM322.732 354.112C322.191 354.112 321.729 354.019 321.346 353.832C320.973 353.645 320.641 353.37 320.352 353.006H320.324L320.226 354H319.078V343.36H320.394V347.812H320.422C320.683 347.523 321.001 347.275 321.374 347.07C321.757 346.855 322.219 346.748 322.76 346.748C323.245 346.748 323.689 346.841 324.09 347.028C324.501 347.205 324.851 347.457 325.14 347.784C325.429 348.101 325.653 348.479 325.812 348.918C325.971 349.357 326.05 349.833 326.05 350.346C326.05 350.887 325.971 351.391 325.812 351.858C325.663 352.315 325.443 352.712 325.154 353.048C324.865 353.384 324.515 353.645 324.104 353.832C323.693 354.019 323.236 354.112 322.732 354.112ZM322.508 353.048C322.816 353.048 323.101 352.983 323.362 352.852C323.623 352.721 323.847 352.539 324.034 352.306C324.23 352.063 324.379 351.783 324.482 351.466C324.594 351.139 324.65 350.785 324.65 350.402C324.65 350.029 324.594 349.683 324.482 349.366C324.379 349.049 324.23 348.778 324.034 348.554C323.847 348.321 323.623 348.139 323.362 348.008C323.11 347.877 322.835 347.812 322.536 347.812C322.219 347.812 321.929 347.877 321.668 348.008C321.407 348.139 321.178 348.321 320.982 348.554C320.795 348.787 320.651 349.067 320.548 349.394C320.445 349.711 320.394 350.061 320.394 350.444C320.394 350.827 320.445 351.177 320.548 351.494C320.651 351.811 320.795 352.087 320.982 352.32C321.169 352.544 321.393 352.721 321.654 352.852C321.915 352.983 322.2 353.048 322.508 353.048ZM327.705 352.432H329.273V354H327.705V352.432ZM331.615 346.86H332.847V348.022H332.875C333.108 347.565 333.388 347.238 333.715 347.042C334.051 346.846 334.452 346.748 334.919 346.748C335.05 346.748 335.18 346.757 335.311 346.776C335.451 346.785 335.596 346.799 335.745 346.818V347.966C335.605 347.947 335.47 347.933 335.339 347.924C335.208 347.905 335.082 347.896 334.961 347.896C334.242 347.896 333.724 348.143 333.407 348.638C333.09 349.133 332.931 349.856 332.931 350.808V354H331.615V346.86ZM343.505 354H342.189V352.978H342.161C341.89 353.361 341.55 353.645 341.139 353.832C340.738 354.019 340.285 354.112 339.781 354.112C338.941 354.112 338.278 353.865 337.793 353.37C337.308 352.866 337.065 352.096 337.065 351.06V346.86H338.381V350.64C338.381 351.107 338.418 351.494 338.493 351.802C338.577 352.11 338.689 352.357 338.829 352.544C338.978 352.721 339.156 352.852 339.361 352.936C339.576 353.011 339.809 353.048 340.061 353.048C340.705 353.048 341.218 352.819 341.601 352.362C341.993 351.895 342.189 351.181 342.189 350.22V346.86H343.505V354ZM350.362 353.062V357.136H349.046V346.86H350.306V347.882H350.334C350.521 347.63 350.722 347.429 350.936 347.28C351.16 347.131 351.38 347.019 351.594 346.944C351.809 346.86 352.014 346.809 352.21 346.79C352.406 346.762 352.574 346.748 352.714 346.748C353.237 346.748 353.704 346.841 354.114 347.028C354.525 347.205 354.87 347.457 355.15 347.784C355.43 348.111 355.645 348.498 355.794 348.946C355.944 349.385 356.018 349.861 356.018 350.374C356.018 350.878 355.944 351.359 355.794 351.816C355.654 352.264 355.444 352.661 355.164 353.006C354.884 353.342 354.544 353.613 354.142 353.818C353.741 354.014 353.288 354.112 352.784 354.112C352.206 354.112 351.716 354.005 351.314 353.79C350.922 353.566 350.624 353.323 350.418 353.062H350.362ZM352.476 353.048C353.13 353.048 353.648 352.805 354.03 352.32C354.422 351.825 354.618 351.163 354.618 350.332C354.618 349.567 354.427 348.955 354.044 348.498C353.671 348.041 353.162 347.812 352.518 347.812C351.856 347.812 351.328 348.05 350.936 348.526C350.554 349.002 350.362 349.641 350.362 350.444C350.362 351.237 350.554 351.872 350.936 352.348C351.319 352.815 351.832 353.048 352.476 353.048ZM359.644 354.112C358.898 354.112 358.305 353.925 357.866 353.552C357.428 353.169 357.208 352.642 357.208 351.97C357.208 351.186 357.507 350.589 358.104 350.178C358.711 349.758 359.64 349.548 360.89 349.548H362.206V349.31C362.206 348.797 362.029 348.423 361.674 348.19C361.32 347.957 360.848 347.84 360.26 347.84C359.878 347.84 359.49 347.887 359.098 347.98C358.706 348.064 358.296 348.223 357.866 348.456V347.224C358.221 347.065 358.627 346.949 359.084 346.874C359.542 346.79 359.99 346.748 360.428 346.748C361.408 346.748 362.169 346.972 362.71 347.42C363.252 347.859 363.522 348.573 363.522 349.562V354H362.178V352.908H362.15C361.852 353.347 361.469 353.659 361.002 353.846C360.545 354.023 360.092 354.112 359.644 354.112ZM359.966 352.992C360.293 352.992 360.592 352.941 360.862 352.838C361.142 352.735 361.38 352.595 361.576 352.418C361.772 352.231 361.926 352.017 362.038 351.774C362.15 351.531 362.206 351.275 362.206 351.004V350.556H360.946C360.508 350.556 360.139 350.589 359.84 350.654C359.551 350.719 359.313 350.813 359.126 350.934C358.94 351.055 358.804 351.195 358.72 351.354C358.646 351.513 358.608 351.69 358.608 351.886C358.608 352.241 358.73 352.516 358.972 352.712C359.215 352.899 359.546 352.992 359.966 352.992ZM368.319 357.192C367.946 357.192 367.6 357.169 367.283 357.122C366.966 357.075 366.686 357.019 366.443 356.954C366.163 356.889 365.906 356.809 365.673 356.716V355.456C365.906 355.577 366.163 355.689 366.443 355.792C366.686 355.876 366.966 355.951 367.283 356.016C367.6 356.091 367.946 356.128 368.319 356.128C369.971 356.128 370.797 355.297 370.797 353.636V352.894H370.755C370.522 353.239 370.195 353.51 369.775 353.706C369.364 353.902 368.912 354 368.417 354C367.95 354 367.516 353.916 367.115 353.748C366.723 353.58 366.378 353.342 366.079 353.034C365.79 352.717 365.561 352.339 365.393 351.9C365.225 351.452 365.141 350.948 365.141 350.388C365.141 349.809 365.23 349.296 365.407 348.848C365.584 348.391 365.822 348.008 366.121 347.7C366.429 347.392 366.788 347.159 367.199 347C367.61 346.832 368.048 346.748 368.515 346.748C369.056 346.748 369.514 346.86 369.887 347.084C370.26 347.308 370.578 347.574 370.839 347.882H370.881V346.86H372.113V353.636C372.113 354.831 371.805 355.722 371.189 356.31C370.582 356.898 369.626 357.192 368.319 357.192ZM368.697 352.936C368.986 352.936 369.257 352.88 369.509 352.768C369.77 352.656 369.994 352.493 370.181 352.278C370.368 352.054 370.512 351.788 370.615 351.48C370.727 351.163 370.783 350.799 370.783 350.388C370.783 349.968 370.727 349.599 370.615 349.282C370.503 348.955 370.349 348.685 370.153 348.47C369.957 348.246 369.728 348.083 369.467 347.98C369.206 347.868 368.921 347.812 368.613 347.812C368.324 347.812 368.053 347.863 367.801 347.966C367.549 348.069 367.33 348.227 367.143 348.442C366.956 348.647 366.807 348.909 366.695 349.226C366.592 349.534 366.541 349.893 366.541 350.304C366.541 350.715 366.597 351.083 366.709 351.41C366.83 351.727 366.989 352.003 367.185 352.236C367.381 352.46 367.61 352.633 367.871 352.754C368.132 352.875 368.408 352.936 368.697 352.936ZM375.317 350.724C375.392 351.461 375.644 352.031 376.073 352.432C376.503 352.824 377.081 353.02 377.809 353.02C378.239 353.02 378.659 352.969 379.069 352.866C379.489 352.754 379.835 352.619 380.105 352.46V353.748C379.881 353.823 379.573 353.902 379.181 353.986C378.789 354.07 378.304 354.112 377.725 354.112C376.512 354.112 375.579 353.776 374.925 353.104C374.281 352.432 373.959 351.499 373.959 350.304C373.959 349.763 374.043 349.273 374.211 348.834C374.389 348.395 374.627 348.022 374.925 347.714C375.233 347.406 375.593 347.168 376.003 347C376.414 346.832 376.857 346.748 377.333 346.748C378.351 346.748 379.149 347.047 379.727 347.644C380.306 348.241 380.595 349.147 380.595 350.36V350.724H375.317ZM377.319 347.812C376.769 347.812 376.316 347.989 375.961 348.344C375.616 348.689 375.401 349.156 375.317 349.744H379.195C379.195 349.128 379.018 348.652 378.663 348.316C378.309 347.98 377.861 347.812 377.319 347.812Z" fill="#22242A"/>
</g>
<defs>
<filter id="filter0_i_632_16544" x="41" y="305" width="380" height="68" filterUnits="userSpaceOnUse" color-interpolation-filters="sRGB">
<feFlood flood-opacity="0" result="BackgroundImageFix"/>
<feBlend mode="normal" in="SourceGraphic" in2="BackgroundImageFix" result="shape"/>
<feColorMatrix in="SourceAlpha" type="matrix" values="0 0 0 0 0 0 0 0 0 0 0 0 0 0 0 0 0 0 127 0" result="hardAlpha"/>
<feOffset dx="4"/>
<feComposite in2="hardAlpha" operator="arithmetic" k2="-1" k3="1"/>
<feColorMatrix type="matrix" values="0 0 0 0 0.85098 0 0 0 0 0.12549 0 0 0 0 0.12549 0 0 0 1 0"/>
<feBlend mode="normal" in2="shape" result="effect1_innerShadow_632_16544"/>
</filter>
</defs>
</svg>
