<svg width="978" height="502" viewBox="0 0 978 502" fill="none" xmlns="http://www.w3.org/2000/svg">
<g clip-path="url(#clip0_613_34178)">
<rect width="978" height="502" fill="white"/>
<path d="M0 0H978V54H0V0Z" fill="#F4F4F4"/>
<mask id="path-2-inside-1_613_34178" fill="white">
<path d="M0 0H81.5V54H0V0Z"/>
</mask>
<path d="M80.5 0V54H82.5V0H80.5Z" fill="#E0E0E0" mask="url(#path-2-inside-1_613_34178)"/>
<path d="M17.6037 25.1719C17.5639 24.7997 17.3963 24.5099 17.1009 24.3026C16.8082 24.0952 16.4276 23.9915 15.9588 23.9915C15.6293 23.9915 15.3466 24.0412 15.1108 24.1406C14.875 24.2401 14.6946 24.375 14.5696 24.5455C14.4446 24.7159 14.3807 24.9105 14.3778 25.1293C14.3778 25.3111 14.419 25.4687 14.5014 25.6023C14.5866 25.7358 14.7017 25.8494 14.8466 25.9432C14.9915 26.0341 15.152 26.1108 15.3281 26.1733C15.5043 26.2358 15.6818 26.2884 15.8608 26.331L16.679 26.5355C17.0085 26.6122 17.3253 26.7159 17.6293 26.8466C17.9361 26.9773 18.2102 27.142 18.4517 27.3409C18.696 27.5398 18.8892 27.7798 19.0312 28.0611C19.1733 28.3423 19.2443 28.6719 19.2443 29.0497C19.2443 29.5611 19.1136 30.0114 18.8523 30.4006C18.5909 30.7869 18.2131 31.0895 17.7188 31.3082C17.2273 31.5241 16.6321 31.6321 15.9332 31.6321C15.2543 31.6321 14.6648 31.527 14.1648 31.3168C13.6676 31.1065 13.2784 30.7997 12.9972 30.3963C12.7188 29.9929 12.5682 29.5014 12.5455 28.9219H14.1009C14.1236 29.2259 14.2173 29.4787 14.3821 29.6804C14.5469 29.8821 14.7614 30.0327 15.0256 30.1321C15.2926 30.2315 15.5909 30.2812 15.9205 30.2812C16.2642 30.2812 16.5653 30.2301 16.8239 30.1278C17.0852 30.0227 17.2898 29.8778 17.4375 29.6932C17.5852 29.5057 17.6605 29.2869 17.6634 29.0369C17.6605 28.8097 17.5938 28.6222 17.4631 28.4744C17.3324 28.3239 17.1491 28.1989 16.9134 28.0994C16.6804 27.9972 16.4077 27.9062 16.0952 27.8267L15.1023 27.571C14.3835 27.3864 13.8153 27.1065 13.3977 26.7315C12.983 26.3537 12.7756 25.8523 12.7756 25.2273C12.7756 24.7131 12.9148 24.2628 13.1932 23.8764C13.4744 23.4901 13.8565 23.1903 14.3395 22.9773C14.8224 22.7614 15.3693 22.6534 15.9801 22.6534C16.5994 22.6534 17.142 22.7614 17.608 22.9773C18.0767 23.1903 18.4446 23.4872 18.7116 23.8679C18.9787 24.2457 19.1165 24.6804 19.125 25.1719H17.6037ZM23.4833 31.6278C22.8271 31.6278 22.2603 31.4915 21.783 31.2188C21.3086 30.9432 20.9435 30.554 20.6879 30.0511C20.4322 29.5455 20.3043 28.9503 20.3043 28.2656C20.3043 27.5923 20.4322 27.0014 20.6879 26.4929C20.9464 25.9815 21.3072 25.5838 21.7702 25.2997C22.2333 25.0128 22.7773 24.8693 23.4023 24.8693C23.8058 24.8693 24.1864 24.9347 24.5444 25.0653C24.9052 25.1932 25.2234 25.392 25.4989 25.6619C25.7773 25.9318 25.9961 26.2756 26.1552 26.6932C26.3143 27.108 26.3938 27.6023 26.3938 28.1761V28.6491H21.0288V27.6094H24.9151C24.9123 27.3139 24.8484 27.0511 24.7234 26.821C24.5984 26.5881 24.4237 26.4048 24.1992 26.2713C23.9776 26.1378 23.7191 26.071 23.4237 26.071C23.1083 26.071 22.8313 26.1477 22.5927 26.3011C22.354 26.4517 22.168 26.6506 22.0344 26.8977C21.9038 27.142 21.837 27.4105 21.8342 27.7031V28.6108C21.8342 28.9915 21.9038 29.3182 22.043 29.5909C22.1822 29.8608 22.3768 30.0682 22.6268 30.2131C22.8768 30.3551 23.1694 30.4261 23.5046 30.4261C23.729 30.4261 23.9322 30.3949 24.114 30.3324C24.2958 30.267 24.4535 30.1719 24.587 30.0469C24.7205 29.9219 24.8214 29.767 24.8896 29.5824L26.3299 29.7443C26.239 30.125 26.0657 30.4574 25.81 30.7415C25.5572 31.0227 25.2333 31.2415 24.8384 31.3977C24.4435 31.5511 23.9918 31.6278 23.4833 31.6278ZM27.6989 31.5V24.9545H29.1946V26.0455H29.2628C29.3821 25.6676 29.5866 25.3764 29.8764 25.1719C30.169 24.9645 30.5028 24.8608 30.8778 24.8608C30.9631 24.8608 31.0582 24.8651 31.1634 24.8736C31.2713 24.8793 31.3608 24.8892 31.4318 24.9034V26.3224C31.3665 26.2997 31.2628 26.2798 31.1207 26.2628C30.9815 26.2429 30.8466 26.233 30.7159 26.233C30.4347 26.233 30.1818 26.294 29.9574 26.4162C29.7358 26.5355 29.5611 26.7017 29.4332 26.9148C29.3054 27.1278 29.2415 27.3736 29.2415 27.652V31.5H27.6989ZM38.5025 24.9545L36.1715 31.5H34.467L32.136 24.9545H33.7809L35.2852 29.8168H35.3533L36.8619 24.9545H38.5025ZM39.57 31.5V24.9545H41.1126V31.5H39.57ZM40.3455 24.0256C40.1012 24.0256 39.891 23.9446 39.7148 23.7827C39.5387 23.6179 39.4506 23.4205 39.4506 23.1903C39.4506 22.9574 39.5387 22.7599 39.7148 22.598C39.891 22.4332 40.1012 22.3509 40.3455 22.3509C40.5927 22.3509 40.8029 22.4332 40.9762 22.598C41.1523 22.7599 41.2404 22.9574 41.2404 23.1903C41.2404 23.4205 41.1523 23.6179 40.9762 23.7827C40.8029 23.9446 40.5927 24.0256 40.3455 24.0256ZM45.554 31.6278C44.9006 31.6278 44.3395 31.4844 43.8707 31.1974C43.4048 30.9105 43.0455 30.5142 42.7926 30.0085C42.5426 29.5 42.4176 28.9148 42.4176 28.2528C42.4176 27.5881 42.5455 27.0014 42.8011 26.4929C43.0568 25.9815 43.4176 25.5838 43.8835 25.2997C44.3523 25.0128 44.9063 24.8693 45.5455 24.8693C46.0767 24.8693 46.5469 24.9673 46.956 25.1634C47.3679 25.3565 47.696 25.6307 47.9403 25.9858C48.1847 26.3381 48.3239 26.75 48.358 27.2216H46.8835C46.8239 26.9062 46.6818 26.6435 46.4574 26.4332C46.2358 26.2202 45.9389 26.1136 45.5668 26.1136C45.2514 26.1136 44.9744 26.1989 44.7358 26.3693C44.4972 26.5369 44.3111 26.7784 44.1776 27.0938C44.0469 27.4091 43.9815 27.7869 43.9815 28.2273C43.9815 28.6733 44.0469 29.0568 44.1776 29.3778C44.3082 29.696 44.4915 29.9418 44.7273 30.1151C44.9659 30.2855 45.2457 30.3707 45.5668 30.3707C45.794 30.3707 45.9972 30.3281 46.1761 30.2429C46.358 30.1548 46.5099 30.0284 46.6321 29.8636C46.7543 29.6989 46.8381 29.4986 46.8835 29.2628H48.358C48.321 29.7259 48.1847 30.1364 47.9489 30.4943C47.7131 30.8494 47.392 31.1278 46.9858 31.3295C46.5795 31.5284 46.1023 31.6278 45.554 31.6278ZM52.5224 31.6278C51.8661 31.6278 51.2994 31.4915 50.8221 31.2188C50.3477 30.9432 49.9826 30.554 49.7269 30.0511C49.4712 29.5455 49.3434 28.9503 49.3434 28.2656C49.3434 27.5923 49.4712 27.0014 49.7269 26.4929C49.9854 25.9815 50.3462 25.5838 50.8093 25.2997C51.2724 25.0128 51.8164 24.8693 52.4414 24.8693C52.8448 24.8693 53.2255 24.9347 53.5835 25.0653C53.9442 25.1932 54.2624 25.392 54.538 25.6619C54.8164 25.9318 55.0352 26.2756 55.1942 26.6932C55.3533 27.108 55.4329 27.6023 55.4329 28.1761V28.6491H50.0678V27.6094H53.9542C53.9513 27.3139 53.8874 27.0511 53.7624 26.821C53.6374 26.5881 53.4627 26.4048 53.2383 26.2713C53.0167 26.1378 52.7582 26.071 52.4627 26.071C52.1474 26.071 51.8704 26.1477 51.6317 26.3011C51.3931 26.4517 51.207 26.6506 51.0735 26.8977C50.9428 27.142 50.8761 27.4105 50.8732 27.7031V28.6108C50.8732 28.9915 50.9428 29.3182 51.082 29.5909C51.2212 29.8608 51.4158 30.0682 51.6658 30.2131C51.9158 30.3551 52.2085 30.4261 52.5437 30.4261C52.7681 30.4261 52.9712 30.3949 53.1531 30.3324C53.3349 30.267 53.4925 30.1719 53.6261 30.0469C53.7596 29.9219 53.8604 29.767 53.9286 29.5824L55.369 29.7443C55.2781 30.125 55.1048 30.4574 54.8491 30.7415C54.5962 31.0227 54.2724 31.2415 53.8775 31.3977C53.4826 31.5511 53.0309 31.6278 52.5224 31.6278Z" fill="black"/>
<mask id="path-5-inside-2_613_34178" fill="white">
<path d="M81.5 0H163V54H81.5V0Z"/>
</mask>
<path d="M162 0V54H164V0H162Z" fill="#E0E0E0" mask="url(#path-5-inside-2_613_34178)"/>
<path d="M94.3608 31.5V22.7727H95.9418V26.4673H99.9858V22.7727H101.571V31.5H99.9858V27.7926H95.9418V31.5H94.3608ZM102.907 24.098V22.7727H109.87V24.098H107.173V31.5H105.604V24.098H102.907ZM110.829 24.098V22.7727H117.792V24.098H115.094V31.5H113.526V24.098H110.829ZM119.134 31.5V22.7727H122.407C123.077 22.7727 123.64 22.8977 124.094 23.1477C124.552 23.3977 124.897 23.7415 125.13 24.179C125.366 24.6136 125.484 25.108 125.484 25.6619C125.484 26.2216 125.366 26.7187 125.13 27.1534C124.894 27.5881 124.546 27.9304 124.086 28.1804C123.626 28.4276 123.059 28.5511 122.386 28.5511H120.217V27.2514H122.173C122.565 27.2514 122.886 27.1832 123.136 27.0469C123.386 26.9105 123.57 26.723 123.69 26.4844C123.812 26.2457 123.873 25.9716 123.873 25.6619C123.873 25.3523 123.812 25.0795 123.69 24.8438C123.57 24.608 123.384 24.4247 123.131 24.294C122.881 24.1605 122.559 24.0938 122.164 24.0938H120.715V31.5H119.134Z" fill="black"/>
<mask id="path-8-inside-3_613_34178" fill="white">
<path d="M163 0H244.5V54H163V0Z"/>
</mask>
<path d="M243.5 0V54H245.5V0H243.5Z" fill="#E0E0E0" mask="url(#path-8-inside-3_613_34178)"/>
<path d="M175.861 22.7727H177.795L180.386 29.0966H180.489L183.08 22.7727H185.014V31.5H183.497V25.5043H183.416L181.004 31.4744H179.871L177.459 25.4915H177.378V31.5H175.861V22.7727ZM189.565 31.6278C188.909 31.6278 188.342 31.4915 187.865 31.2188C187.391 30.9432 187.026 30.554 186.77 30.0511C186.514 29.5455 186.386 28.9503 186.386 28.2656C186.386 27.5923 186.514 27.0014 186.77 26.4929C187.028 25.9815 187.389 25.5838 187.852 25.2997C188.315 25.0128 188.859 24.8693 189.484 24.8693C189.888 24.8693 190.268 24.9347 190.626 25.0653C190.987 25.1932 191.305 25.392 191.581 25.6619C191.859 25.9318 192.078 26.2756 192.237 26.6932C192.396 27.108 192.476 27.6023 192.476 28.1761V28.6491H187.111V27.6094H190.997C190.994 27.3139 190.93 27.0511 190.805 26.821C190.68 26.5881 190.506 26.4048 190.281 26.2713C190.06 26.1378 189.801 26.071 189.506 26.071C189.19 26.071 188.913 26.1477 188.675 26.3011C188.436 26.4517 188.25 26.6506 188.116 26.8977C187.986 27.142 187.919 27.4105 187.916 27.7031V28.6108C187.916 28.9915 187.986 29.3182 188.125 29.5909C188.264 29.8608 188.459 30.0682 188.709 30.2131C188.959 30.3551 189.251 30.4261 189.587 30.4261C189.811 30.4261 190.014 30.3949 190.196 30.3324C190.378 30.267 190.536 30.1719 190.669 30.0469C190.803 29.9219 190.903 29.767 190.972 29.5824L192.412 29.7443C192.321 30.125 192.148 30.4574 191.892 30.7415C191.639 31.0227 191.315 31.2415 190.92 31.3977C190.526 31.5511 190.074 31.6278 189.565 31.6278ZM197.049 24.9545V26.1477H193.287V24.9545H197.049ZM194.216 23.3864H195.758V29.5312C195.758 29.7386 195.789 29.8977 195.852 30.0085C195.917 30.1165 196.002 30.1903 196.108 30.2301C196.213 30.2699 196.329 30.2898 196.457 30.2898C196.554 30.2898 196.642 30.2827 196.721 30.2685C196.804 30.2543 196.866 30.2415 196.909 30.2301L197.169 31.4361C197.086 31.4645 196.968 31.4957 196.815 31.5298C196.664 31.5639 196.48 31.5838 196.261 31.5895C195.875 31.6009 195.527 31.5426 195.217 31.4148C194.907 31.2841 194.662 31.0824 194.48 30.8097C194.301 30.5369 194.213 30.196 194.216 29.7869V23.3864ZM200.023 27.6648V31.5H198.48V22.7727H199.989V26.0668H200.065C200.219 25.6974 200.456 25.4062 200.777 25.1932C201.101 24.9773 201.513 24.8693 202.013 24.8693C202.467 24.8693 202.864 24.9645 203.202 25.1548C203.54 25.3452 203.801 25.6236 203.986 25.9901C204.173 26.3565 204.267 26.804 204.267 27.3324V31.5H202.724V27.571C202.724 27.1307 202.611 26.7884 202.384 26.544C202.159 26.2969 201.844 26.1733 201.438 26.1733C201.165 26.1733 200.92 26.233 200.705 26.3523C200.491 26.4687 200.324 26.6378 200.202 26.8594C200.082 27.081 200.023 27.3494 200.023 27.6648ZM208.695 31.6278C208.055 31.6278 207.501 31.4872 207.033 31.206C206.564 30.9247 206.2 30.5312 205.942 30.0256C205.686 29.5199 205.558 28.929 205.558 28.2528C205.558 27.5767 205.686 26.9844 205.942 26.4759C206.2 25.9673 206.564 25.5724 207.033 25.2912C207.501 25.0099 208.055 24.8693 208.695 24.8693C209.334 24.8693 209.888 25.0099 210.357 25.2912C210.825 25.5724 211.188 25.9673 211.443 26.4759C211.702 26.9844 211.831 27.5767 211.831 28.2528C211.831 28.929 211.702 29.5199 211.443 30.0256C211.188 30.5312 210.825 30.9247 210.357 31.206C209.888 31.4872 209.334 31.6278 208.695 31.6278ZM208.703 30.392C209.05 30.392 209.339 30.2969 209.572 30.1065C209.805 29.9134 209.979 29.6548 210.092 29.331C210.209 29.0071 210.267 28.6463 210.267 28.2486C210.267 27.848 210.209 27.4858 210.092 27.1619C209.979 26.8352 209.805 26.5753 209.572 26.3821C209.339 26.1889 209.05 26.0923 208.703 26.0923C208.348 26.0923 208.053 26.1889 207.817 26.3821C207.584 26.5753 207.409 26.8352 207.293 27.1619C207.179 27.4858 207.122 27.848 207.122 28.2486C207.122 28.6463 207.179 29.0071 207.293 29.331C207.409 29.6548 207.584 29.9134 207.817 30.1065C208.053 30.2969 208.348 30.392 208.703 30.392ZM215.569 31.6151C215.055 31.6151 214.595 31.483 214.189 31.2188C213.782 30.9545 213.461 30.571 213.225 30.0682C212.99 29.5653 212.872 28.9545 212.872 28.2358C212.872 27.5085 212.991 26.8949 213.23 26.3949C213.471 25.892 213.797 25.5128 214.206 25.2571C214.615 24.9986 215.071 24.8693 215.574 24.8693C215.957 24.8693 216.272 24.9347 216.52 25.0653C216.767 25.1932 216.963 25.348 217.108 25.5298C217.252 25.7088 217.365 25.8778 217.444 26.0369H217.508V22.7727H219.055V31.5H217.538V30.4688H217.444C217.365 30.6278 217.25 30.7969 217.099 30.9759C216.949 31.152 216.75 31.3026 216.502 31.4276C216.255 31.5526 215.944 31.6151 215.569 31.6151ZM216 30.3494C216.326 30.3494 216.605 30.2614 216.835 30.0852C217.065 29.9062 217.24 29.6577 217.359 29.3395C217.478 29.0213 217.538 28.6506 217.538 28.2273C217.538 27.804 217.478 27.4361 217.359 27.1236C217.243 26.8111 217.069 26.5682 216.839 26.3949C216.612 26.2216 216.332 26.1349 216 26.1349C215.656 26.1349 215.369 26.2244 215.139 26.4034C214.909 26.5824 214.735 26.8295 214.619 27.1449C214.502 27.4602 214.444 27.821 214.444 28.2273C214.444 28.6364 214.502 29.0014 214.619 29.3224C214.738 29.6406 214.913 29.892 215.143 30.0767C215.376 30.2585 215.662 30.3494 216 30.3494Z" fill="black"/>
<mask id="path-11-inside-4_613_34178" fill="white">
<path d="M244.5 0H326V54H244.5V0Z"/>
</mask>
<path d="M325 0V54H327V0H325Z" fill="#E0E0E0" mask="url(#path-11-inside-4_613_34178)"/>
<path d="M257.361 31.5V22.7727H258.942V26.4673H262.986V22.7727H264.571V31.5H262.986V27.7926H258.942V31.5H257.361ZM265.907 24.098V22.7727H272.87V24.098H270.173V31.5H268.604V24.098H265.907ZM273.829 24.098V22.7727H280.792V24.098H278.094V31.5H276.526V24.098H273.829ZM282.134 31.5V22.7727H285.407C286.077 22.7727 286.64 22.8977 287.094 23.1477C287.552 23.3977 287.897 23.7415 288.13 24.179C288.366 24.6136 288.484 25.108 288.484 25.6619C288.484 26.2216 288.366 26.7187 288.13 27.1534C287.894 27.5881 287.546 27.9304 287.086 28.1804C286.626 28.4276 286.059 28.5511 285.386 28.5511H283.217V27.2514H285.173C285.565 27.2514 285.886 27.1832 286.136 27.0469C286.386 26.9105 286.57 26.723 286.69 26.4844C286.812 26.2457 286.873 25.9716 286.873 25.6619C286.873 25.3523 286.812 25.0795 286.69 24.8438C286.57 24.608 286.384 24.4247 286.131 24.294C285.881 24.1605 285.559 24.0938 285.164 24.0938H283.715V31.5H282.134Z" fill="black"/>
<mask id="path-14-inside-5_613_34178" fill="white">
<path d="M326 0H407.5V54H326V0Z"/>
</mask>
<path d="M406.5 0V54H408.5V0H406.5Z" fill="#E0E0E0" mask="url(#path-14-inside-5_613_34178)"/>
<path d="M338.861 31.5V22.7727H344.537V24.098H340.442V26.4673H344.243V27.7926H340.442V30.1747H344.571V31.5H338.861ZM346.082 31.5V24.9545H347.577V26.0455H347.646C347.765 25.6676 347.969 25.3764 348.259 25.1719C348.552 24.9645 348.886 24.8608 349.261 24.8608C349.346 24.8608 349.441 24.8651 349.546 24.8736C349.654 24.8793 349.744 24.8892 349.815 24.9034V26.3224C349.749 26.2997 349.646 26.2798 349.504 26.2628C349.364 26.2429 349.229 26.233 349.099 26.233C348.817 26.233 348.565 26.294 348.34 26.4162C348.119 26.5355 347.944 26.7017 347.816 26.9148C347.688 27.1278 347.624 27.3736 347.624 27.652V31.5H346.082ZM350.839 31.5V24.9545H352.335V26.0455H352.403C352.523 25.6676 352.727 25.3764 353.017 25.1719C353.31 24.9645 353.643 24.8608 354.018 24.8608C354.104 24.8608 354.199 24.8651 354.304 24.8736C354.412 24.8793 354.501 24.8892 354.572 24.9034V26.3224C354.507 26.2997 354.403 26.2798 354.261 26.2628C354.122 26.2429 353.987 26.233 353.857 26.233C353.575 26.233 353.322 26.294 353.098 26.4162C352.876 26.5355 352.702 26.7017 352.574 26.9148C352.446 27.1278 352.382 27.3736 352.382 27.652V31.5H350.839ZM358.183 31.6278C357.544 31.6278 356.99 31.4872 356.521 31.206C356.052 30.9247 355.689 30.5312 355.43 30.0256C355.174 29.5199 355.047 28.929 355.047 28.2528C355.047 27.5767 355.174 26.9844 355.43 26.4759C355.689 25.9673 356.052 25.5724 356.521 25.2912C356.99 25.0099 357.544 24.8693 358.183 24.8693C358.822 24.8693 359.376 25.0099 359.845 25.2912C360.314 25.5724 360.676 25.9673 360.931 26.4759C361.19 26.9844 361.319 27.5767 361.319 28.2528C361.319 28.929 361.19 29.5199 360.931 30.0256C360.676 30.5312 360.314 30.9247 359.845 31.206C359.376 31.4872 358.822 31.6278 358.183 31.6278ZM358.191 30.392C358.538 30.392 358.828 30.2969 359.061 30.1065C359.294 29.9134 359.467 29.6548 359.581 29.331C359.697 29.0071 359.755 28.6463 359.755 28.2486C359.755 27.848 359.697 27.4858 359.581 27.1619C359.467 26.8352 359.294 26.5753 359.061 26.3821C358.828 26.1889 358.538 26.0923 358.191 26.0923C357.836 26.0923 357.541 26.1889 357.305 26.3821C357.072 26.5753 356.897 26.8352 356.781 27.1619C356.667 27.4858 356.61 27.848 356.61 28.2486C356.61 28.6463 356.667 29.0071 356.781 29.331C356.897 29.6548 357.072 29.9134 357.305 30.1065C357.541 30.2969 357.836 30.392 358.191 30.392ZM362.629 31.5V24.9545H364.124V26.0455H364.192C364.312 25.6676 364.516 25.3764 364.806 25.1719C365.099 24.9645 365.433 24.8608 365.808 24.8608C365.893 24.8608 365.988 24.8651 366.093 24.8736C366.201 24.8793 366.29 24.8892 366.362 24.9034V26.3224C366.296 26.2997 366.192 26.2798 366.05 26.2628C365.911 26.2429 365.776 26.233 365.646 26.233C365.364 26.233 365.112 26.294 364.887 26.4162C364.665 26.5355 364.491 26.7017 364.363 26.9148C364.235 27.1278 364.171 27.3736 364.171 27.652V31.5H362.629Z" fill="black"/>
<mask id="path-17-inside-6_613_34178" fill="white">
<path d="M407.5 0H489V54H407.5V0Z"/>
</mask>
<path d="M488 0V54H490V0H488Z" fill="#E0E0E0" mask="url(#path-17-inside-6_613_34178)"/>
<path d="M420.361 24V15.2727H423.702C424.332 15.2727 424.857 15.3722 425.274 15.571C425.695 15.767 426.009 16.0355 426.216 16.3764C426.426 16.7173 426.531 17.1037 426.531 17.5355C426.531 17.8906 426.463 18.1946 426.327 18.4474C426.19 18.6974 426.007 18.9006 425.777 19.0568C425.547 19.2131 425.29 19.3253 425.006 19.3935V19.4787C425.315 19.4957 425.612 19.5909 425.896 19.7642C426.183 19.9347 426.418 20.1761 426.599 20.4886C426.781 20.8011 426.872 21.179 426.872 21.6222C426.872 22.0739 426.763 22.4801 426.544 22.8409C426.325 23.1989 425.996 23.4815 425.555 23.6889C425.115 23.8963 424.561 24 423.893 24H420.361ZM421.942 22.679H423.642C424.216 22.679 424.629 22.5696 424.882 22.3509C425.138 22.1293 425.266 21.8452 425.266 21.4986C425.266 21.2401 425.202 21.0071 425.074 20.7997C424.946 20.5895 424.764 20.4247 424.528 20.3054C424.293 20.1832 424.011 20.1222 423.685 20.1222H421.942V22.679ZM421.942 18.9844H423.506C423.778 18.9844 424.024 18.9347 424.243 18.8352C424.462 18.733 424.634 18.5895 424.759 18.4048C424.886 18.2173 424.95 17.9957 424.95 17.7401C424.95 17.402 424.831 17.1236 424.592 16.9048C424.357 16.6861 424.006 16.5767 423.54 16.5767H421.942V18.9844ZM430.063 24.1321C429.648 24.1321 429.275 24.0582 428.942 23.9105C428.613 23.7599 428.351 23.5384 428.158 23.2457C427.968 22.9531 427.873 22.5923 427.873 22.1634C427.873 21.794 427.941 21.4886 428.077 21.2472C428.213 21.0057 428.4 20.8125 428.635 20.6676C428.871 20.5227 429.137 20.4134 429.432 20.3395C429.73 20.2628 430.039 20.2074 430.357 20.1733C430.74 20.1335 431.051 20.098 431.29 20.0668C431.529 20.0327 431.702 19.9815 431.81 19.9134C431.921 19.8423 431.976 19.733 431.976 19.5852V19.5597C431.976 19.2386 431.881 18.9901 431.691 18.8139C431.5 18.6378 431.226 18.5497 430.868 18.5497C430.49 18.5497 430.191 18.6321 429.969 18.7969C429.75 18.9616 429.603 19.1562 429.526 19.3807L428.086 19.1761C428.199 18.7784 428.387 18.446 428.648 18.179C428.909 17.9091 429.229 17.7074 429.607 17.5739C429.985 17.4375 430.402 17.3693 430.86 17.3693C431.175 17.3693 431.489 17.4062 431.801 17.4801C432.114 17.554 432.4 17.6761 432.658 17.8466C432.917 18.0142 433.124 18.2429 433.28 18.5327C433.439 18.8224 433.519 19.1847 433.519 19.6193V24H432.036V23.1009H431.985C431.891 23.2827 431.759 23.4531 431.588 23.6122C431.421 23.7685 431.209 23.8949 430.953 23.9915C430.701 24.0852 430.404 24.1321 430.063 24.1321ZM430.463 22.9986C430.773 22.9986 431.042 22.9375 431.269 22.8153C431.496 22.6903 431.671 22.5256 431.793 22.321C431.918 22.1165 431.98 21.8935 431.98 21.652V20.8807C431.932 20.9205 431.85 20.9574 431.733 20.9915C431.62 21.0256 431.492 21.0554 431.35 21.081C431.208 21.1065 431.067 21.1293 430.928 21.1491C430.789 21.169 430.668 21.1861 430.566 21.2003C430.336 21.2315 430.13 21.2827 429.948 21.3537C429.766 21.4247 429.623 21.5241 429.517 21.652C429.412 21.777 429.36 21.9389 429.36 22.1378C429.36 22.4219 429.463 22.6364 429.671 22.7812C429.878 22.9261 430.142 22.9986 430.463 22.9986ZM436.613 20.1648V24H435.07V17.4545H436.544V18.5668H436.621C436.772 18.2003 437.012 17.9091 437.341 17.6932C437.674 17.4773 438.084 17.3693 438.573 17.3693C439.025 17.3693 439.418 17.4659 439.753 17.6591C440.091 17.8523 440.353 18.1321 440.537 18.4986C440.725 18.8651 440.817 19.3097 440.814 19.8324V24H439.272V20.071C439.272 19.6335 439.158 19.2912 438.931 19.044C438.706 18.7969 438.395 18.6733 437.998 18.6733C437.728 18.6733 437.488 18.733 437.277 18.8523C437.07 18.9687 436.907 19.1378 436.787 19.3594C436.671 19.581 436.613 19.8494 436.613 20.1648ZM443.789 21.946L443.784 20.0838H444.032L446.384 17.4545H448.186L445.293 20.6761H444.973L443.789 21.946ZM442.382 24V15.2727H443.925V24H442.382ZM446.49 24L444.36 21.0213L445.4 19.9347L448.336 24H446.49ZM425.466 34.1847L424.06 34.3381C424.02 34.196 423.95 34.0625 423.851 33.9375C423.754 33.8125 423.624 33.7116 423.459 33.6349C423.294 33.5582 423.092 33.5199 422.854 33.5199C422.533 33.5199 422.263 33.5895 422.044 33.7287C421.828 33.8679 421.722 34.0483 421.724 34.2699C421.722 34.4602 421.791 34.6151 421.933 34.7344C422.078 34.8537 422.317 34.9517 422.649 35.0284L423.766 35.267C424.385 35.4006 424.845 35.6122 425.146 35.902C425.45 36.1918 425.604 36.571 425.607 37.0398C425.604 37.4517 425.483 37.8153 425.244 38.1307C425.009 38.4432 424.68 38.6875 424.26 38.8636C423.839 39.0398 423.357 39.1278 422.811 39.1278C422.01 39.1278 421.365 38.9602 420.876 38.625C420.388 38.2869 420.097 37.8168 420.003 37.2145L421.507 37.0696C421.575 37.3651 421.72 37.5881 421.942 37.7386C422.163 37.8892 422.452 37.9645 422.807 37.9645C423.173 37.9645 423.467 37.8892 423.689 37.7386C423.913 37.5881 424.026 37.402 424.026 37.1804C424.026 36.9929 423.953 36.8381 423.808 36.7159C423.666 36.5937 423.445 36.5 423.143 36.4347L422.027 36.2003C421.399 36.0696 420.935 35.8494 420.634 35.5398C420.332 35.2273 420.183 34.8324 420.186 34.3551C420.183 33.9517 420.293 33.6023 420.514 33.3068C420.739 33.0085 421.05 32.7784 421.447 32.6165C421.848 32.4517 422.31 32.3693 422.832 32.3693C423.599 32.3693 424.203 32.5327 424.643 32.8594C425.087 33.1861 425.361 33.6278 425.466 34.1847ZM429.776 39.1278C429.12 39.1278 428.553 38.9915 428.076 38.7188C427.602 38.4432 427.237 38.054 426.981 37.5511C426.725 37.0455 426.597 36.4503 426.597 35.7656C426.597 35.0923 426.725 34.5014 426.981 33.9929C427.239 33.4815 427.6 33.0838 428.063 32.7997C428.526 32.5128 429.07 32.3693 429.695 32.3693C430.099 32.3693 430.479 32.4347 430.837 32.5653C431.198 32.6932 431.516 32.892 431.792 33.1619C432.07 33.4318 432.289 33.7756 432.448 34.1932C432.607 34.608 432.687 35.1023 432.687 35.6761V36.1491H427.322V35.1094H431.208C431.205 34.8139 431.141 34.5511 431.016 34.321C430.891 34.0881 430.717 33.9048 430.492 33.7713C430.271 33.6378 430.012 33.571 429.717 33.571C429.401 33.571 429.124 33.6477 428.886 33.8011C428.647 33.9517 428.461 34.1506 428.327 34.3977C428.197 34.642 428.13 34.9105 428.127 35.2031V36.1108C428.127 36.4915 428.197 36.8182 428.336 37.0909C428.475 37.3608 428.67 37.5682 428.92 37.7131C429.17 37.8551 429.462 37.9261 429.798 37.9261C430.022 37.9261 430.225 37.8949 430.407 37.8324C430.589 37.767 430.746 37.6719 430.88 37.5469C431.013 37.4219 431.114 37.267 431.183 37.0824L432.623 37.2443C432.532 37.625 432.359 37.9574 432.103 38.2415C431.85 38.5227 431.526 38.7415 431.131 38.8977C430.737 39.0511 430.285 39.1278 429.776 39.1278ZM433.992 39V32.4545H435.488V33.5455H435.556C435.675 33.1676 435.88 32.8764 436.169 32.6719C436.462 32.4645 436.796 32.3608 437.171 32.3608C437.256 32.3608 437.351 32.3651 437.456 32.3736C437.564 32.3793 437.654 32.3892 437.725 32.4034V33.8224C437.659 33.7997 437.556 33.7798 437.414 33.7628C437.275 33.7429 437.14 33.733 437.009 33.733C436.728 33.733 436.475 33.794 436.25 33.9162C436.029 34.0355 435.854 34.2017 435.726 34.4148C435.598 34.6278 435.534 34.8736 435.534 35.152V39H433.992ZM444.795 32.4545L442.464 39H440.76L438.429 32.4545H440.074L441.578 37.3168H441.646L443.155 32.4545H444.795ZM445.863 39V32.4545H447.406V39H445.863ZM446.638 31.5256C446.394 31.5256 446.184 31.4446 446.008 31.2827C445.832 31.1179 445.744 30.9205 445.744 30.6903C445.744 30.4574 445.832 30.2599 446.008 30.098C446.184 29.9332 446.394 29.8509 446.638 29.8509C446.886 29.8509 447.096 29.9332 447.269 30.098C447.445 30.2599 447.533 30.4574 447.533 30.6903C447.533 30.9205 447.445 31.1179 447.269 31.2827C447.096 31.4446 446.886 31.5256 446.638 31.5256ZM451.847 39.1278C451.194 39.1278 450.632 38.9844 450.164 38.6974C449.698 38.4105 449.338 38.0142 449.086 37.5085C448.836 37 448.711 36.4148 448.711 35.7528C448.711 35.0881 448.838 34.5014 449.094 33.9929C449.35 33.4815 449.711 33.0838 450.176 32.7997C450.645 32.5128 451.199 32.3693 451.838 32.3693C452.37 32.3693 452.84 32.4673 453.249 32.6634C453.661 32.8565 453.989 33.1307 454.233 33.4858C454.478 33.8381 454.617 34.25 454.651 34.7216H453.176C453.117 34.4062 452.975 34.1435 452.75 33.9332C452.529 33.7202 452.232 33.6136 451.86 33.6136C451.544 33.6136 451.267 33.6989 451.029 33.8693C450.79 34.0369 450.604 34.2784 450.471 34.5938C450.34 34.9091 450.275 35.2869 450.275 35.7273C450.275 36.1733 450.34 36.5568 450.471 36.8778C450.601 37.196 450.784 37.4418 451.02 37.6151C451.259 37.7855 451.539 37.8707 451.86 37.8707C452.087 37.8707 452.29 37.8281 452.469 37.7429C452.651 37.6548 452.803 37.5284 452.925 37.3636C453.047 37.1989 453.131 36.9986 453.176 36.7628H454.651C454.614 37.2259 454.478 37.6364 454.242 37.9943C454.006 38.3494 453.685 38.6278 453.279 38.8295C452.873 39.0284 452.395 39.1278 451.847 39.1278ZM458.815 39.1278C458.159 39.1278 457.592 38.9915 457.115 38.7188C456.641 38.4432 456.276 38.054 456.02 37.5511C455.764 37.0455 455.636 36.4503 455.636 35.7656C455.636 35.0923 455.764 34.5014 456.02 33.9929C456.278 33.4815 456.639 33.0838 457.102 32.7997C457.565 32.5128 458.109 32.3693 458.734 32.3693C459.138 32.3693 459.518 32.4347 459.876 32.5653C460.237 32.6932 460.555 32.892 460.831 33.1619C461.109 33.4318 461.328 33.7756 461.487 34.1932C461.646 34.608 461.726 35.1023 461.726 35.6761V36.1491H456.361V35.1094H460.247C460.244 34.8139 460.18 34.5511 460.055 34.321C459.93 34.0881 459.756 33.9048 459.531 33.7713C459.31 33.6378 459.051 33.571 458.756 33.571C458.44 33.571 458.163 33.6477 457.925 33.8011C457.686 33.9517 457.5 34.1506 457.366 34.3977C457.236 34.642 457.169 34.9105 457.166 35.2031V36.1108C457.166 36.4915 457.236 36.8182 457.375 37.0909C457.514 37.3608 457.709 37.5682 457.959 37.7131C458.209 37.8551 458.501 37.9261 458.837 37.9261C459.061 37.9261 459.264 37.8949 459.446 37.8324C459.628 37.767 459.786 37.6719 459.919 37.5469C460.053 37.4219 460.153 37.267 460.222 37.0824L461.662 37.2443C461.571 37.625 461.398 37.9574 461.142 38.2415C460.889 38.5227 460.565 38.7415 460.17 38.8977C459.776 39.0511 459.324 39.1278 458.815 39.1278Z" fill="black"/>
<mask id="path-20-inside-7_613_34178" fill="white">
<path d="M489 0H570.5V54H489V0Z"/>
</mask>
<path d="M569.5 0V54H571.5V0H569.5Z" fill="#E0E0E0" mask="url(#path-20-inside-7_613_34178)"/>
<path d="M501.861 22.7727H503.795L506.386 29.0966H506.489L509.08 22.7727H511.014V31.5H509.497V25.5043H509.416L507.004 31.4744H505.871L503.459 25.4915H503.378V31.5H501.861V22.7727ZM515.565 31.6278C514.909 31.6278 514.342 31.4915 513.865 31.2188C513.391 30.9432 513.026 30.554 512.77 30.0511C512.514 29.5455 512.386 28.9503 512.386 28.2656C512.386 27.5923 512.514 27.0014 512.77 26.4929C513.028 25.9815 513.389 25.5838 513.852 25.2997C514.315 25.0128 514.859 24.8693 515.484 24.8693C515.888 24.8693 516.268 24.9347 516.626 25.0653C516.987 25.1932 517.305 25.392 517.581 25.6619C517.859 25.9318 518.078 26.2756 518.237 26.6932C518.396 27.108 518.476 27.6023 518.476 28.1761V28.6491H513.111V27.6094H516.997C516.994 27.3139 516.93 27.0511 516.805 26.821C516.68 26.5881 516.506 26.4048 516.281 26.2713C516.06 26.1378 515.801 26.071 515.506 26.071C515.19 26.071 514.913 26.1477 514.675 26.3011C514.436 26.4517 514.25 26.6506 514.116 26.8977C513.986 27.142 513.919 27.4105 513.916 27.7031V28.6108C513.916 28.9915 513.986 29.3182 514.125 29.5909C514.264 29.8608 514.459 30.0682 514.709 30.2131C514.959 30.3551 515.251 30.4261 515.587 30.4261C515.811 30.4261 516.014 30.3949 516.196 30.3324C516.378 30.267 516.536 30.1719 516.669 30.0469C516.803 29.9219 516.903 29.767 516.972 29.5824L518.412 29.7443C518.321 30.125 518.148 30.4574 517.892 30.7415C517.639 31.0227 517.315 31.2415 516.92 31.3977C516.526 31.5511 516.074 31.6278 515.565 31.6278ZM523.049 24.9545V26.1477H519.287V24.9545H523.049ZM520.216 23.3864H521.758V29.5312C521.758 29.7386 521.789 29.8977 521.852 30.0085C521.917 30.1165 522.002 30.1903 522.108 30.2301C522.213 30.2699 522.329 30.2898 522.457 30.2898C522.554 30.2898 522.642 30.2827 522.721 30.2685C522.804 30.2543 522.866 30.2415 522.909 30.2301L523.169 31.4361C523.086 31.4645 522.968 31.4957 522.815 31.5298C522.664 31.5639 522.48 31.5838 522.261 31.5895C521.875 31.6009 521.527 31.5426 521.217 31.4148C520.907 31.2841 520.662 31.0824 520.48 30.8097C520.301 30.5369 520.213 30.196 520.216 29.7869V23.3864ZM526.023 27.6648V31.5H524.48V22.7727H525.989V26.0668H526.065C526.219 25.6974 526.456 25.4062 526.777 25.1932C527.101 24.9773 527.513 24.8693 528.013 24.8693C528.467 24.8693 528.864 24.9645 529.202 25.1548C529.54 25.3452 529.801 25.6236 529.986 25.9901C530.173 26.3565 530.267 26.804 530.267 27.3324V31.5H528.724V27.571C528.724 27.1307 528.611 26.7884 528.384 26.544C528.159 26.2969 527.844 26.1733 527.438 26.1733C527.165 26.1733 526.92 26.233 526.705 26.3523C526.491 26.4687 526.324 26.6378 526.202 26.8594C526.082 27.081 526.023 27.3494 526.023 27.6648ZM534.695 31.6278C534.055 31.6278 533.501 31.4872 533.033 31.206C532.564 30.9247 532.2 30.5312 531.942 30.0256C531.686 29.5199 531.558 28.929 531.558 28.2528C531.558 27.5767 531.686 26.9844 531.942 26.4759C532.2 25.9673 532.564 25.5724 533.033 25.2912C533.501 25.0099 534.055 24.8693 534.695 24.8693C535.334 24.8693 535.888 25.0099 536.357 25.2912C536.825 25.5724 537.188 25.9673 537.443 26.4759C537.702 26.9844 537.831 27.5767 537.831 28.2528C537.831 28.929 537.702 29.5199 537.443 30.0256C537.188 30.5312 536.825 30.9247 536.357 31.206C535.888 31.4872 535.334 31.6278 534.695 31.6278ZM534.703 30.392C535.05 30.392 535.339 30.2969 535.572 30.1065C535.805 29.9134 535.979 29.6548 536.092 29.331C536.209 29.0071 536.267 28.6463 536.267 28.2486C536.267 27.848 536.209 27.4858 536.092 27.1619C535.979 26.8352 535.805 26.5753 535.572 26.3821C535.339 26.1889 535.05 26.0923 534.703 26.0923C534.348 26.0923 534.053 26.1889 533.817 26.3821C533.584 26.5753 533.409 26.8352 533.293 27.1619C533.179 27.4858 533.122 27.848 533.122 28.2486C533.122 28.6463 533.179 29.0071 533.293 29.331C533.409 29.6548 533.584 29.9134 533.817 30.1065C534.053 30.2969 534.348 30.392 534.703 30.392ZM541.569 31.6151C541.055 31.6151 540.595 31.483 540.189 31.2188C539.782 30.9545 539.461 30.571 539.225 30.0682C538.99 29.5653 538.872 28.9545 538.872 28.2358C538.872 27.5085 538.991 26.8949 539.23 26.3949C539.471 25.892 539.797 25.5128 540.206 25.2571C540.615 24.9986 541.071 24.8693 541.574 24.8693C541.957 24.8693 542.272 24.9347 542.52 25.0653C542.767 25.1932 542.963 25.348 543.108 25.5298C543.252 25.7088 543.365 25.8778 543.444 26.0369H543.508V22.7727H545.055V31.5H543.538V30.4688H543.444C543.365 30.6278 543.25 30.7969 543.099 30.9759C542.949 31.152 542.75 31.3026 542.502 31.4276C542.255 31.5526 541.944 31.6151 541.569 31.6151ZM542 30.3494C542.326 30.3494 542.605 30.2614 542.835 30.0852C543.065 29.9062 543.24 29.6577 543.359 29.3395C543.478 29.0213 543.538 28.6506 543.538 28.2273C543.538 27.804 543.478 27.4361 543.359 27.1236C543.243 26.8111 543.069 26.5682 542.839 26.3949C542.612 26.2216 542.332 26.1349 542 26.1349C541.656 26.1349 541.369 26.2244 541.139 26.4034C540.909 26.5824 540.735 26.8295 540.619 27.1449C540.502 27.4602 540.444 27.821 540.444 28.2273C540.444 28.6364 540.502 29.0014 540.619 29.3224C540.738 29.6406 540.913 29.892 541.143 30.0767C541.376 30.2585 541.662 30.3494 542 30.3494Z" fill="black"/>
<mask id="path-23-inside-8_613_34178" fill="white">
<path d="M570.5 0H652V54H570.5V0Z"/>
</mask>
<path d="M651 0V54H653V0H651Z" fill="#E0E0E0" mask="url(#path-23-inside-8_613_34178)"/>
<path d="M583.361 31.5V22.7727H589.037V24.098H584.942V26.4673H588.743V27.7926H584.942V30.1747H589.071V31.5H583.361ZM590.582 31.5V24.9545H592.077V26.0455H592.146C592.265 25.6676 592.469 25.3764 592.759 25.1719C593.052 24.9645 593.386 24.8608 593.761 24.8608C593.846 24.8608 593.941 24.8651 594.046 24.8736C594.154 24.8793 594.244 24.8892 594.315 24.9034V26.3224C594.249 26.2997 594.146 26.2798 594.004 26.2628C593.864 26.2429 593.729 26.233 593.599 26.233C593.317 26.233 593.065 26.294 592.84 26.4162C592.619 26.5355 592.444 26.7017 592.316 26.9148C592.188 27.1278 592.124 27.3736 592.124 27.652V31.5H590.582ZM595.339 31.5V24.9545H596.835V26.0455H596.903C597.023 25.6676 597.227 25.3764 597.517 25.1719C597.81 24.9645 598.143 24.8608 598.518 24.8608C598.604 24.8608 598.699 24.8651 598.804 24.8736C598.912 24.8793 599.001 24.8892 599.072 24.9034V26.3224C599.007 26.2997 598.903 26.2798 598.761 26.2628C598.622 26.2429 598.487 26.233 598.357 26.233C598.075 26.233 597.822 26.294 597.598 26.4162C597.376 26.5355 597.202 26.7017 597.074 26.9148C596.946 27.1278 596.882 27.3736 596.882 27.652V31.5H595.339ZM602.683 31.6278C602.044 31.6278 601.49 31.4872 601.021 31.206C600.552 30.9247 600.189 30.5312 599.93 30.0256C599.674 29.5199 599.547 28.929 599.547 28.2528C599.547 27.5767 599.674 26.9844 599.93 26.4759C600.189 25.9673 600.552 25.5724 601.021 25.2912C601.49 25.0099 602.044 24.8693 602.683 24.8693C603.322 24.8693 603.876 25.0099 604.345 25.2912C604.814 25.5724 605.176 25.9673 605.431 26.4759C605.69 26.9844 605.819 27.5767 605.819 28.2528C605.819 28.929 605.69 29.5199 605.431 30.0256C605.176 30.5312 604.814 30.9247 604.345 31.206C603.876 31.4872 603.322 31.6278 602.683 31.6278ZM602.691 30.392C603.038 30.392 603.328 30.2969 603.561 30.1065C603.794 29.9134 603.967 29.6548 604.081 29.331C604.197 29.0071 604.255 28.6463 604.255 28.2486C604.255 27.848 604.197 27.4858 604.081 27.1619C603.967 26.8352 603.794 26.5753 603.561 26.3821C603.328 26.1889 603.038 26.0923 602.691 26.0923C602.336 26.0923 602.041 26.1889 601.805 26.3821C601.572 26.5753 601.397 26.8352 601.281 27.1619C601.167 27.4858 601.11 27.848 601.11 28.2486C601.11 28.6463 601.167 29.0071 601.281 29.331C601.397 29.6548 601.572 29.9134 601.805 30.1065C602.041 30.2969 602.336 30.392 602.691 30.392ZM607.129 31.5V24.9545H608.624V26.0455H608.692C608.812 25.6676 609.016 25.3764 609.306 25.1719C609.599 24.9645 609.933 24.8608 610.308 24.8608C610.393 24.8608 610.488 24.8651 610.593 24.8736C610.701 24.8793 610.79 24.8892 610.862 24.9034V26.3224C610.796 26.2997 610.692 26.2798 610.55 26.2628C610.411 26.2429 610.276 26.233 610.146 26.233C609.864 26.233 609.612 26.294 609.387 26.4162C609.165 26.5355 608.991 26.7017 608.863 26.9148C608.735 27.1278 608.671 27.3736 608.671 27.652V31.5H607.129Z" fill="black"/>
<mask id="path-26-inside-9_613_34178" fill="white">
<path d="M652 0H733.5V54H652V0Z"/>
</mask>
<path d="M732.5 0V54H734.5V0H732.5Z" fill="#E0E0E0" mask="url(#path-26-inside-9_613_34178)"/>
<path d="M664.861 31.5V22.7727H670.452V24.098H666.442V26.4673H670.068V27.7926H666.442V31.5H664.861ZM671.73 31.5V24.9545H673.226V26.0455H673.294C673.413 25.6676 673.618 25.3764 673.908 25.1719C674.2 24.9645 674.534 24.8608 674.909 24.8608C674.994 24.8608 675.089 24.8651 675.195 24.8736C675.303 24.8793 675.392 24.8892 675.463 24.9034V26.3224C675.398 26.2997 675.294 26.2798 675.152 26.2628C675.013 26.2429 674.878 26.233 674.747 26.233C674.466 26.233 674.213 26.294 673.989 26.4162C673.767 26.5355 673.592 26.7017 673.464 26.9148C673.337 27.1278 673.273 27.3736 673.273 27.652V31.5H671.73ZM679.074 31.6278C678.434 31.6278 677.88 31.4872 677.412 31.206C676.943 30.9247 676.579 30.5312 676.321 30.0256C676.065 29.5199 675.937 28.929 675.937 28.2528C675.937 27.5767 676.065 26.9844 676.321 26.4759C676.579 25.9673 676.943 25.5724 677.412 25.2912C677.88 25.0099 678.434 24.8693 679.074 24.8693C679.713 24.8693 680.267 25.0099 680.735 25.2912C681.204 25.5724 681.566 25.9673 681.822 26.4759C682.081 26.9844 682.21 27.5767 682.21 28.2528C682.21 28.929 682.081 29.5199 681.822 30.0256C681.566 30.5312 681.204 30.9247 680.735 31.206C680.267 31.4872 679.713 31.6278 679.074 31.6278ZM679.082 30.392C679.429 30.392 679.718 30.2969 679.951 30.1065C680.184 29.9134 680.358 29.6548 680.471 29.331C680.588 29.0071 680.646 28.6463 680.646 28.2486C680.646 27.848 680.588 27.4858 680.471 27.1619C680.358 26.8352 680.184 26.5753 679.951 26.3821C679.718 26.1889 679.429 26.0923 679.082 26.0923C678.727 26.0923 678.431 26.1889 678.196 26.3821C677.963 26.5753 677.788 26.8352 677.672 27.1619C677.558 27.4858 677.501 27.848 677.501 28.2486C677.501 28.6463 677.558 29.0071 677.672 29.331C677.788 29.6548 677.963 29.9134 678.196 30.1065C678.431 30.2969 678.727 30.392 679.082 30.392ZM685.062 27.6648V31.5H683.519V24.9545H684.994V26.0668H685.07C685.221 25.7003 685.461 25.4091 685.79 25.1932C686.123 24.9773 686.533 24.8693 687.022 24.8693C687.474 24.8693 687.867 24.9659 688.202 25.1591C688.54 25.3523 688.802 25.6321 688.987 25.9986C689.174 26.3651 689.266 26.8097 689.263 27.3324V31.5H687.721V27.571C687.721 27.1335 687.607 26.7912 687.38 26.544C687.156 26.2969 686.844 26.1733 686.447 26.1733C686.177 26.1733 685.937 26.233 685.727 26.3523C685.519 26.4687 685.356 26.6378 685.237 26.8594C685.12 27.081 685.062 27.3494 685.062 27.6648ZM694.1 24.9545V26.1477H690.337V24.9545H694.1ZM691.266 23.3864H692.809V29.5312C692.809 29.7386 692.84 29.8977 692.903 30.0085C692.968 30.1165 693.053 30.1903 693.158 30.2301C693.263 30.2699 693.38 30.2898 693.508 30.2898C693.604 30.2898 693.692 30.2827 693.772 30.2685C693.854 30.2543 693.917 30.2415 693.96 30.2301L694.219 31.4361C694.137 31.4645 694.019 31.4957 693.866 31.5298C693.715 31.5639 693.531 31.5838 693.312 31.5895C692.925 31.6009 692.577 31.5426 692.268 31.4148C691.958 31.2841 691.712 31.0824 691.531 30.8097C691.352 30.5369 691.263 30.196 691.266 29.7869V23.3864Z" fill="black"/>
<mask id="path-29-inside-10_613_34178" fill="white">
<path d="M733.5 0H815V54H733.5V0Z"/>
</mask>
<path d="M814 0V54H816V0H814Z" fill="#E0E0E0" mask="url(#path-29-inside-10_613_34178)"/>
<path d="M751.862 22.7727H753.443V28.4744C753.443 29.0994 753.295 29.6491 753 30.1236C752.707 30.598 752.295 30.9687 751.764 31.2358C751.233 31.5 750.612 31.6321 749.902 31.6321C749.189 31.6321 748.567 31.5 748.036 31.2358C747.504 30.9687 747.092 30.598 746.8 30.1236C746.507 29.6491 746.361 29.0994 746.361 28.4744V22.7727H747.942V28.3423C747.942 28.706 748.021 29.0298 748.18 29.3139C748.342 29.598 748.57 29.821 748.862 29.983C749.155 30.142 749.501 30.2216 749.902 30.2216C750.303 30.2216 750.649 30.142 750.942 29.983C751.237 29.821 751.464 29.598 751.624 29.3139C751.783 29.0298 751.862 28.706 751.862 28.3423V22.7727ZM756.743 22.7727V31.5H755.162V22.7727H756.743Z" fill="black"/>
<mask id="path-32-inside-11_613_34178" fill="white">
<path d="M815 0H896.5V54H815V0Z"/>
</mask>
<path d="M895.5 0V54H897.5V0H895.5Z" fill="#E0E0E0" mask="url(#path-32-inside-11_613_34178)"/>
<path d="M829.697 31.5L827.234 22.7727H828.935L830.507 29.1861H830.588L832.267 22.7727H833.814L835.497 29.1903H835.574L837.146 22.7727H838.847L836.384 31.5H834.824L833.077 25.3764H833.009L831.257 31.5H829.697ZM842.062 31.6278C841.423 31.6278 840.869 31.4872 840.4 31.206C839.931 30.9247 839.567 30.5312 839.309 30.0256C839.053 29.5199 838.925 28.929 838.925 28.2528C838.925 27.5767 839.053 26.9844 839.309 26.4759C839.567 25.9673 839.931 25.5724 840.4 25.2912C840.869 25.0099 841.423 24.8693 842.062 24.8693C842.701 24.8693 843.255 25.0099 843.724 25.2912C844.192 25.5724 844.555 25.9673 844.81 26.4759C845.069 26.9844 845.198 27.5767 845.198 28.2528C845.198 28.929 845.069 29.5199 844.81 30.0256C844.555 30.5312 844.192 30.9247 843.724 31.206C843.255 31.4872 842.701 31.6278 842.062 31.6278ZM842.07 30.392C842.417 30.392 842.707 30.2969 842.94 30.1065C843.173 29.9134 843.346 29.6548 843.46 29.331C843.576 29.0071 843.634 28.6463 843.634 28.2486C843.634 27.848 843.576 27.4858 843.46 27.1619C843.346 26.8352 843.173 26.5753 842.94 26.3821C842.707 26.1889 842.417 26.0923 842.07 26.0923C841.715 26.0923 841.42 26.1889 841.184 26.3821C840.951 26.5753 840.776 26.8352 840.66 27.1619C840.546 27.4858 840.489 27.848 840.489 28.2486C840.489 28.6463 840.546 29.0071 840.66 29.331C840.776 29.6548 840.951 29.9134 841.184 30.1065C841.42 30.2969 841.715 30.392 842.07 30.392ZM846.507 31.5V24.9545H848.003V26.0455H848.071C848.191 25.6676 848.395 25.3764 848.685 25.1719C848.978 24.9645 849.311 24.8608 849.686 24.8608C849.772 24.8608 849.867 24.8651 849.972 24.8736C850.08 24.8793 850.169 24.8892 850.24 24.9034V26.3224C850.175 26.2997 850.071 26.2798 849.929 26.2628C849.79 26.2429 849.655 26.233 849.525 26.233C849.243 26.233 848.99 26.294 848.766 26.4162C848.544 26.5355 848.37 26.7017 848.242 26.9148C848.114 27.1278 848.05 27.3736 848.05 27.652V31.5H846.507ZM853.425 31.6151C852.911 31.6151 852.45 31.483 852.044 31.2188C851.638 30.9545 851.317 30.571 851.081 30.0682C850.845 29.5653 850.727 28.9545 850.727 28.2358C850.727 27.5085 850.847 26.8949 851.085 26.3949C851.327 25.892 851.652 25.5128 852.061 25.2571C852.47 24.9986 852.926 24.8693 853.429 24.8693C853.813 24.8693 854.128 24.9347 854.375 25.0653C854.622 25.1932 854.818 25.348 854.963 25.5298C855.108 25.7088 855.22 25.8778 855.3 26.0369H855.364V22.7727H856.911V31.5H855.393V30.4688H855.3C855.22 30.6278 855.105 30.7969 854.955 30.9759C854.804 31.152 854.605 31.3026 854.358 31.4276C854.111 31.5526 853.8 31.6151 853.425 31.6151ZM853.855 30.3494C854.182 30.3494 854.46 30.2614 854.69 30.0852C854.92 29.9062 855.095 29.6577 855.214 29.3395C855.334 29.0213 855.393 28.6506 855.393 28.2273C855.393 27.804 855.334 27.4361 855.214 27.1236C855.098 26.8111 854.925 26.5682 854.695 26.3949C854.467 26.2216 854.188 26.1349 853.855 26.1349C853.511 26.1349 853.224 26.2244 852.994 26.4034C852.764 26.5824 852.591 26.8295 852.474 27.1449C852.358 27.4602 852.3 27.821 852.3 28.2273C852.3 28.6364 852.358 29.0014 852.474 29.3224C852.594 29.6406 852.768 29.892 852.999 30.0767C853.232 30.2585 853.517 30.3494 853.855 30.3494ZM858.554 31.5V24.9545H860.097V31.5H858.554ZM859.33 24.0256C859.086 24.0256 858.875 23.9446 858.699 23.7827C858.523 23.6179 858.435 23.4205 858.435 23.1903C858.435 22.9574 858.523 22.7599 858.699 22.598C858.875 22.4332 859.086 22.3509 859.33 22.3509C859.577 22.3509 859.787 22.4332 859.961 22.598C860.137 22.7599 860.225 22.9574 860.225 23.1903C860.225 23.4205 860.137 23.6179 859.961 23.7827C859.787 23.9446 859.577 24.0256 859.33 24.0256ZM863.226 27.6648V31.5H861.683V24.9545H863.158V26.0668H863.234C863.385 25.7003 863.625 25.4091 863.955 25.1932C864.287 24.9773 864.697 24.8693 865.186 24.8693C865.638 24.8693 866.031 24.9659 866.366 25.1591C866.705 25.3523 866.966 25.6321 867.151 25.9986C867.338 26.3651 867.43 26.8097 867.428 27.3324V31.5H865.885V27.571C865.885 27.1335 865.771 26.7912 865.544 26.544C865.32 26.2969 865.009 26.1733 864.611 26.1733C864.341 26.1733 864.101 26.233 863.891 26.3523C863.683 26.4687 863.52 26.6378 863.401 26.8594C863.284 27.081 863.226 27.3494 863.226 27.6648ZM871.842 34.0909C871.288 34.0909 870.813 34.0156 870.415 33.8651C870.017 33.7173 869.697 33.5185 869.456 33.2685C869.214 33.0185 869.047 32.7415 868.953 32.4375L870.342 32.1009C870.405 32.2287 870.496 32.3551 870.615 32.4801C870.734 32.608 870.895 32.7131 871.097 32.7955C871.301 32.8807 871.558 32.9233 871.868 32.9233C872.305 32.9233 872.668 32.8168 872.955 32.6037C873.241 32.3935 873.385 32.0469 873.385 31.5639V30.3239H873.308C873.229 30.483 873.112 30.6463 872.959 30.8139C872.808 30.9815 872.608 31.1222 872.358 31.2358C872.111 31.3494 871.8 31.4062 871.425 31.4062C870.922 31.4062 870.466 31.2884 870.057 31.0526C869.651 30.8139 869.327 30.4588 869.085 29.9872C868.847 29.5128 868.727 28.919 868.727 28.206C868.727 27.4872 868.847 26.8807 869.085 26.3864C869.327 25.8892 869.652 25.5128 870.061 25.2571C870.47 24.9986 870.926 24.8693 871.429 24.8693C871.813 24.8693 872.128 24.9347 872.375 25.0653C872.625 25.1932 872.824 25.348 872.972 25.5298C873.119 25.7088 873.232 25.8778 873.308 26.0369H873.393V24.9545H874.915V31.6065C874.915 32.1662 874.781 32.6293 874.514 32.9957C874.247 33.3622 873.882 33.6364 873.419 33.8182C872.956 34 872.43 34.0909 871.842 34.0909ZM871.855 30.196C872.182 30.196 872.46 30.1165 872.69 29.9574C872.92 29.7983 873.095 29.5696 873.214 29.2713C873.334 28.973 873.393 28.6151 873.393 28.1974C873.393 27.7855 873.334 27.4247 873.214 27.1151C873.098 26.8054 872.925 26.5653 872.695 26.3949C872.467 26.2216 872.188 26.1349 871.855 26.1349C871.511 26.1349 871.224 26.2244 870.994 26.4034C870.764 26.5824 870.591 26.8281 870.474 27.1406C870.358 27.4503 870.3 27.8026 870.3 28.1974C870.3 28.598 870.358 28.9489 870.474 29.25C870.594 29.5483 870.768 29.7812 870.999 29.9489C871.232 30.1136 871.517 30.196 871.855 30.196Z" fill="black"/>
<mask id="path-35-inside-12_613_34178" fill="white">
<path d="M896.5 0H978V54H896.5V0Z"/>
</mask>
<path d="M977 0V54H979V0H977Z" fill="#E0E0E0" mask="url(#path-35-inside-12_613_34178)"/>
<path d="M916.831 25.7173H915.237C915.192 25.456 915.108 25.2244 914.986 25.0227C914.864 24.8182 914.712 24.6449 914.53 24.5028C914.348 24.3608 914.141 24.2543 913.908 24.1832C913.678 24.1094 913.429 24.0724 913.162 24.0724C912.688 24.0724 912.267 24.1918 911.901 24.4304C911.534 24.6662 911.247 25.0128 911.04 25.4702C910.832 25.9247 910.729 26.4801 910.729 27.1364C910.729 27.804 910.832 28.3665 911.04 28.8239C911.25 29.2784 911.537 29.6222 911.901 29.8551C912.267 30.0852 912.686 30.2003 913.158 30.2003C913.419 30.2003 913.663 30.1662 913.891 30.098C914.121 30.027 914.327 29.9233 914.509 29.7869C914.693 29.6506 914.848 29.483 914.973 29.2841C915.101 29.0852 915.189 28.858 915.237 28.6023L916.831 28.6108C916.771 29.0256 916.642 29.4148 916.443 29.7784C916.247 30.142 915.99 30.4631 915.672 30.7415C915.354 31.017 914.982 31.233 914.555 31.3892C914.129 31.5426 913.656 31.6193 913.136 31.6193C912.369 31.6193 911.685 31.4418 911.082 31.0866C910.48 30.7315 910.006 30.2188 909.659 29.5483C909.313 28.8778 909.139 28.0739 909.139 27.1364C909.139 26.196 909.314 25.392 909.663 24.7244C910.013 24.054 910.489 23.5412 911.091 23.1861C911.693 22.831 912.375 22.6534 913.136 22.6534C913.622 22.6534 914.074 22.7216 914.491 22.858C914.909 22.9943 915.281 23.1946 915.608 23.4588C915.935 23.7202 916.203 24.0412 916.413 24.4219C916.626 24.7997 916.766 25.2315 916.831 25.7173ZM921.066 31.6278C920.426 31.6278 919.873 31.4872 919.404 31.206C918.935 30.9247 918.571 30.5312 918.313 30.0256C918.057 29.5199 917.929 28.929 917.929 28.2528C917.929 27.5767 918.057 26.9844 918.313 26.4759C918.571 25.9673 918.935 25.5724 919.404 25.2912C919.873 25.0099 920.426 24.8693 921.066 24.8693C921.705 24.8693 922.259 25.0099 922.728 25.2912C923.196 25.5724 923.559 25.9673 923.814 26.4759C924.073 26.9844 924.202 27.5767 924.202 28.2528C924.202 28.929 924.073 29.5199 923.814 30.0256C923.559 30.5312 923.196 30.9247 922.728 31.206C922.259 31.4872 921.705 31.6278 921.066 31.6278ZM921.074 30.392C921.421 30.392 921.711 30.2969 921.944 30.1065C922.176 29.9134 922.35 29.6548 922.463 29.331C922.58 29.0071 922.638 28.6463 922.638 28.2486C922.638 27.848 922.58 27.4858 922.463 27.1619C922.35 26.8352 922.176 26.5753 921.944 26.3821C921.711 26.1889 921.421 26.0923 921.074 26.0923C920.719 26.0923 920.424 26.1889 920.188 26.3821C919.955 26.5753 919.78 26.8352 919.664 27.1619C919.55 27.4858 919.493 27.848 919.493 28.2486C919.493 28.6463 919.55 29.0071 919.664 29.331C919.78 29.6548 919.955 29.9134 920.188 30.1065C920.424 30.2969 920.719 30.392 921.074 30.392ZM925.511 31.5V24.9545H926.986V26.0668H927.062C927.199 25.6918 927.425 25.3991 927.74 25.1889C928.055 24.9759 928.432 24.8693 928.869 24.8693C929.312 24.8693 929.686 24.9773 929.99 25.1932C930.297 25.4062 930.513 25.6974 930.638 26.0668H930.706C930.851 25.7031 931.095 25.4134 931.439 25.1974C931.786 24.9787 932.196 24.8693 932.67 24.8693C933.273 24.8693 933.764 25.0597 934.145 25.4403C934.526 25.821 934.716 26.3764 934.716 27.1065V31.5H933.169V27.3452C933.169 26.9389 933.061 26.642 932.845 26.4545C932.629 26.2642 932.365 26.169 932.053 26.169C931.68 26.169 931.389 26.2855 931.179 26.5185C930.972 26.7486 930.868 27.0483 930.868 27.4176V31.5H929.355V27.2812C929.355 26.9432 929.253 26.6733 929.048 26.4716C928.847 26.2699 928.582 26.169 928.256 26.169C928.034 26.169 927.832 26.2259 927.651 26.3395C927.469 26.4503 927.324 26.608 927.216 26.8125C927.108 27.0142 927.054 27.25 927.054 27.5199V31.5H925.511ZM936.281 31.5V24.9545H937.755V26.0668H937.832C937.968 25.6918 938.194 25.3991 938.51 25.1889C938.825 24.9759 939.201 24.8693 939.639 24.8693C940.082 24.8693 940.456 24.9773 940.76 25.1932C941.066 25.4062 941.282 25.6974 941.407 26.0668H941.475C941.62 25.7031 941.865 25.4134 942.208 25.1974C942.555 24.9787 942.966 24.8693 943.44 24.8693C944.042 24.8693 944.534 25.0597 944.914 25.4403C945.295 25.821 945.485 26.3764 945.485 27.1065V31.5H943.939V27.3452C943.939 26.9389 943.831 26.642 943.615 26.4545C943.399 26.2642 943.135 26.169 942.822 26.169C942.45 26.169 942.159 26.2855 941.949 26.5185C941.741 26.7486 941.637 27.0483 941.637 27.4176V31.5H940.125V27.2812C940.125 26.9432 940.022 26.6733 939.818 26.4716C939.616 26.2699 939.352 26.169 939.025 26.169C938.804 26.169 938.602 26.2259 938.42 26.3395C938.238 26.4503 938.093 26.608 937.985 26.8125C937.877 27.0142 937.824 27.25 937.824 27.5199V31.5H936.281ZM949.948 31.6278C949.292 31.6278 948.725 31.4915 948.248 31.2188C947.773 30.9432 947.408 30.554 947.153 30.0511C946.897 29.5455 946.769 28.9503 946.769 28.2656C946.769 27.5923 946.897 27.0014 947.153 26.4929C947.411 25.9815 947.772 25.5838 948.235 25.2997C948.698 25.0128 949.242 24.8693 949.867 24.8693C950.271 24.8693 950.651 24.9347 951.009 25.0653C951.37 25.1932 951.688 25.392 951.964 25.6619C952.242 25.9318 952.461 26.2756 952.62 26.6932C952.779 27.108 952.859 27.6023 952.859 28.1761V28.6491H947.494V27.6094H951.38C951.377 27.3139 951.313 27.0511 951.188 26.821C951.063 26.5881 950.888 26.4048 950.664 26.2713C950.442 26.1378 950.184 26.071 949.888 26.071C949.573 26.071 949.296 26.1477 949.058 26.3011C948.819 26.4517 948.633 26.6506 948.499 26.8977C948.369 27.142 948.302 27.4105 948.299 27.7031V28.6108C948.299 28.9915 948.369 29.3182 948.508 29.5909C948.647 29.8608 948.842 30.0682 949.092 30.2131C949.342 30.3551 949.634 30.4261 949.969 30.4261C950.194 30.4261 950.397 30.3949 950.579 30.3324C950.761 30.267 950.918 30.1719 951.052 30.0469C951.185 29.9219 951.286 29.767 951.354 29.5824L952.795 29.7443C952.704 30.125 952.531 30.4574 952.275 30.7415C952.022 31.0227 951.698 31.2415 951.303 31.3977C950.908 31.5511 950.457 31.6278 949.948 31.6278ZM955.706 27.6648V31.5H954.164V24.9545H955.638V26.0668H955.715C955.865 25.7003 956.105 25.4091 956.435 25.1932C956.767 24.9773 957.178 24.8693 957.667 24.8693C958.118 24.8693 958.512 24.9659 958.847 25.1591C959.185 25.3523 959.446 25.6321 959.631 25.9986C959.819 26.3651 959.911 26.8097 959.908 27.3324V31.5H958.365V27.571C958.365 27.1335 958.252 26.7912 958.025 26.544C957.8 26.2969 957.489 26.1733 957.091 26.1733C956.821 26.1733 956.581 26.233 956.371 26.3523C956.164 26.4687 956 26.6378 955.881 26.8594C955.765 27.081 955.706 27.3494 955.706 27.6648ZM964.745 24.9545V26.1477H960.982V24.9545H964.745ZM961.911 23.3864H963.453V29.5312C963.453 29.7386 963.485 29.8977 963.547 30.0085C963.613 30.1165 963.698 30.1903 963.803 30.2301C963.908 30.2699 964.025 30.2898 964.152 30.2898C964.249 30.2898 964.337 30.2827 964.417 30.2685C964.499 30.2543 964.561 30.2415 964.604 30.2301L964.864 31.4361C964.782 31.4645 964.664 31.4957 964.51 31.5298C964.36 31.5639 964.175 31.5838 963.956 31.5895C963.57 31.6009 963.222 31.5426 962.912 31.4148C962.603 31.2841 962.357 31.0824 962.175 30.8097C961.996 30.5369 961.908 30.196 961.911 29.7869V23.3864Z" fill="black"/>
<mask id="path-38-inside-13_613_34178" fill="white">
<path d="M0 54H978V177H0V54Z"/>
</mask>
<path d="M978 176H0V178H978V176Z" fill="#E0E0E0" mask="url(#path-38-inside-13_613_34178)"/>
<mask id="path-40-inside-14_613_34178" fill="white">
<path d="M0 54H81.5V176H0V54Z"/>
</mask>
<path d="M80.5 54V176H82.5V54H80.5Z" fill="#E0E0E0" mask="url(#path-40-inside-14_613_34178)"/>
<path d="M11.46 114.36H19.404V117.96H11.46V114.36ZM18.3272 114.36H26.2712V117.96H18.3272V114.36ZM25.1944 114.36H29.7064V117.96H25.1944V114.36ZM28.628 114.36H36.572V117.96H28.628V114.36ZM35.4952 114.36H43.4392V117.96H35.4952V114.36Z" fill="black"/>
<mask id="path-43-inside-15_613_34178" fill="white">
<path d="M81.5 54H163V176H81.5V54Z"/>
</mask>
<path d="M162 54V176H164V54H162Z" fill="#E0E0E0" mask="url(#path-43-inside-15_613_34178)"/>
<path d="M92.96 114.36H100.904V117.96H92.96V114.36ZM99.8272 114.36H107.771V117.96H99.8272V114.36ZM106.694 114.36H114.638V117.96H106.694V114.36ZM113.562 114.36H118.074V117.96H113.562V114.36Z" fill="black"/>
<mask id="path-46-inside-16_613_34178" fill="white">
<path d="M163 54H244.5V176H163V54Z"/>
</mask>
<path d="M243.5 54V176H245.5V54H243.5Z" fill="#E0E0E0" mask="url(#path-46-inside-16_613_34178)"/>
<path d="M174.46 114.36H178.972V117.96H174.46V114.36ZM177.894 114.36H185.838V117.96H177.894V114.36ZM184.761 114.36H192.705V117.96H184.761V114.36ZM191.628 114.36H196.14V117.96H191.628V114.36ZM195.062 114.36H203.006V117.96H195.062V114.36Z" fill="black"/>
<mask id="path-49-inside-17_613_34178" fill="white">
<path d="M244.5 54H326V176H244.5V54Z"/>
</mask>
<path d="M325 54V176H327V54H325Z" fill="#E0E0E0" mask="url(#path-49-inside-17_613_34178)"/>
<path d="M255.96 114.36H263.904V117.96H255.96V114.36ZM262.827 114.36H270.771V117.96H262.827V114.36ZM269.694 114.36H277.638V117.96H269.694V114.36Z" fill="black"/>
<mask id="path-52-inside-18_613_34178" fill="white">
<path d="M326 54H407.5V176H326V54Z"/>
</mask>
<path d="M406.5 54V176H408.5V54H406.5Z" fill="#E0E0E0" mask="url(#path-52-inside-18_613_34178)"/>
<path d="M337.46 107.36H345.404V110.96H337.46V107.36ZM344.327 107.36H348.839V110.96H344.327V107.36ZM347.761 107.36H355.705V110.96H347.761V107.36ZM354.628 107.36H362.572V110.96H354.628V107.36ZM361.495 107.36H369.439V110.96H361.495V107.36ZM368.362 107.36H376.306V110.96H368.362V107.36ZM375.23 107.36H379.742V110.96H375.23V107.36ZM378.663 107.36H386.607V110.96H378.663V107.36ZM385.53 107.36H393.474V110.96H385.53V107.36ZM337.46 121.36H345.404V124.96H337.46V121.36ZM344.327 121.36H352.271V124.96H344.327V121.36ZM351.194 121.36H355.706V124.96H351.194V121.36ZM354.628 121.36H359.14V124.96H354.628V121.36ZM358.062 121.36H366.006V124.96H358.062V121.36ZM364.929 121.36H369.441V124.96H364.929V121.36ZM368.362 121.36H376.306V124.96H368.362V121.36Z" fill="black"/>
<mask id="path-55-inside-19_613_34178" fill="white">
<path d="M407.5 54H489V176H407.5V54Z"/>
</mask>
<path d="M488 54V176H490V54H488Z" fill="#E0E0E0" mask="url(#path-55-inside-19_613_34178)"/>
<path d="M418.96 114.36H426.904V117.96H418.96V114.36ZM425.827 114.36H433.771V117.96H425.827V114.36Z" fill="black"/>
<mask id="path-58-inside-20_613_34178" fill="white">
<path d="M489 54H570.5V176H489V54Z"/>
</mask>
<path d="M569.5 54V176H571.5V54H569.5Z" fill="#E0E0E0" mask="url(#path-58-inside-20_613_34178)"/>
<path d="M500.46 107.36H508.404V110.96H500.46V107.36ZM507.327 107.36H515.271V110.96H507.327V107.36ZM514.194 107.36H518.706V110.96H514.194V107.36ZM517.628 107.36H525.572V110.96H517.628V107.36ZM524.495 107.36H532.439V110.96H524.495V107.36ZM531.362 107.36H539.306V110.96H531.362V107.36ZM538.23 107.36H542.742V110.96H538.23V107.36ZM541.663 107.36H546.175V110.96H541.663V107.36ZM545.097 107.36H553.041V110.96H545.097V107.36ZM500.46 121.36H508.404V124.96H500.46V121.36ZM507.327 121.36H511.839V124.96H507.327V121.36ZM510.761 121.36H518.705V124.96H510.761V121.36Z" fill="black"/>
<mask id="path-61-inside-21_613_34178" fill="white">
<path d="M570.5 54H652V176H570.5V54Z"/>
</mask>
<path d="M651 54V176H653V54H651Z" fill="#E0E0E0" mask="url(#path-61-inside-21_613_34178)"/>
<path d="M581.96 100.36H589.904V103.96H581.96V100.36ZM588.827 100.36H596.771V103.96H588.827V100.36ZM595.694 100.36H600.206V103.96H595.694V100.36ZM599.128 100.36H607.072V103.96H599.128V100.36ZM605.995 100.36H613.939V103.96H605.995V100.36ZM612.862 100.36H620.806V103.96H612.862V100.36ZM619.73 100.36H624.242V103.96H619.73V100.36ZM623.163 100.36H627.675V103.96H623.163V100.36ZM626.597 100.36H634.541V103.96H626.597V100.36ZM581.96 114.36H589.904V117.96H581.96V114.36ZM588.827 114.36H593.339V117.96H588.827V114.36ZM592.261 114.36H596.773V117.96H592.261V114.36ZM595.694 114.36H603.638V117.96H595.694V114.36ZM602.562 114.36H610.506V117.96H602.562V114.36ZM609.429 114.36H617.373V117.96H609.429V114.36ZM616.296 114.36H624.24V117.96H616.296V114.36ZM623.163 114.36H631.107V117.96H623.163V114.36ZM630.03 114.36H637.974V117.96H630.03V114.36ZM581.96 128.36H589.904V131.96H581.96V128.36ZM588.827 128.36H593.339V131.96H588.827V128.36ZM592.261 128.36H596.773V131.96H592.261V128.36ZM595.694 128.36H603.638V131.96H595.694V128.36ZM602.562 128.36H610.506V131.96H602.562V128.36Z" fill="black"/>
<mask id="path-64-inside-22_613_34178" fill="white">
<path d="M652 54H733.5V176H652V54Z"/>
</mask>
<path d="M732.5 54V176H734.5V54H732.5Z" fill="#E0E0E0" mask="url(#path-64-inside-22_613_34178)"/>
<path d="M663.46 100.36H671.404V103.96H663.46V100.36ZM670.327 100.36H678.271V103.96H670.327V100.36ZM677.194 100.36H685.138V103.96H677.194V100.36ZM684.062 100.36H692.006V103.96H684.062V100.36ZM690.929 100.36H698.873V103.96H690.929V100.36ZM697.796 100.36H705.74V103.96H697.796V100.36ZM704.663 100.36H709.175V103.96H704.663V100.36ZM663.46 114.36H671.404V117.96H663.46V114.36ZM670.327 114.36H678.271V117.96H670.327V114.36ZM677.194 114.36H685.138V117.96H677.194V114.36ZM684.062 114.36H688.574V117.96H684.062V114.36ZM687.495 114.36H695.439V117.96H687.495V114.36ZM694.362 114.36H702.306V117.96H694.362V114.36ZM663.46 128.36H671.404V131.96H663.46V128.36ZM670.327 128.36H678.271V131.96H670.327V128.36ZM677.194 128.36H685.138V131.96H677.194V128.36ZM684.062 128.36H692.006V131.96H684.062V128.36ZM690.929 128.36H695.441V131.96H690.929V128.36ZM694.362 128.36H702.306V131.96H694.362V128.36ZM701.23 128.36H709.174V131.96H701.23V128.36Z" fill="black"/>
<mask id="path-67-inside-23_613_34178" fill="white">
<path d="M733.5 54H815V176H733.5V54Z"/>
</mask>
<path d="M814 54V176H816V54H814Z" fill="#E0E0E0" mask="url(#path-67-inside-23_613_34178)"/>
<path d="M744.96 114.36H752.904V117.96H744.96V114.36ZM751.827 114.36H759.771V117.96H751.827V114.36ZM758.694 114.36H766.638V117.96H758.694V114.36Z" fill="black"/>
<mask id="path-70-inside-24_613_34178" fill="white">
<path d="M815 54H896.5V176H815V54Z"/>
</mask>
<path d="M895.5 54V176H897.5V54H895.5Z" fill="#E0E0E0" mask="url(#path-70-inside-24_613_34178)"/>
<path d="M826.46 72.36H834.404V75.96H826.46V72.36ZM833.327 72.36H841.271V75.96H833.327V72.36ZM840.194 72.36H848.138V75.96H840.194V72.36ZM847.062 72.36H855.006V75.96H847.062V72.36ZM853.929 72.36H861.873V75.96H853.929V72.36ZM860.796 72.36H868.74V75.96H860.796V72.36ZM867.663 72.36H875.607V75.96H867.663V72.36ZM874.53 72.36H882.474V75.96H874.53V72.36ZM826.46 86.36H834.404V89.96H826.46V86.36ZM833.327 86.36H841.271V89.96H833.327V86.36ZM840.194 86.36H848.138V89.96H840.194V86.36ZM826.46 100.36H834.404V103.96H826.46V100.36ZM833.327 100.36H841.271V103.96H833.327V100.36ZM840.194 100.36H848.138V103.96H840.194V100.36ZM847.062 100.36H855.006V103.96H847.062V100.36ZM853.929 100.36H861.873V103.96H853.929V100.36ZM860.796 100.36H868.74V103.96H860.796V100.36ZM867.663 100.36H875.607V103.96H867.663V100.36ZM874.53 100.36H882.474V103.96H874.53V100.36ZM826.46 114.36H830.972V117.96H826.46V114.36ZM829.894 114.36H837.838V117.96H829.894V114.36ZM836.761 114.36H844.705V117.96H836.761V114.36ZM843.628 114.36H851.572V117.96H843.628V114.36ZM857.69 114.36H865.634V117.96H857.69V114.36ZM864.558 114.36H872.502V117.96H864.558V114.36ZM871.425 114.36H879.369V117.96H871.425V114.36ZM826.46 128.36H834.404V131.96H826.46V128.36ZM833.327 128.36H841.271V131.96H833.327V128.36ZM840.194 128.36H848.138V131.96H840.194V128.36ZM847.062 128.36H855.006V131.96H847.062V128.36ZM853.929 128.36H861.873V131.96H853.929V128.36ZM860.796 128.36H868.74V131.96H860.796V128.36ZM867.663 128.36H872.175V131.96H867.663V128.36ZM826.46 142.36H834.404V145.96H826.46V142.36ZM833.327 142.36H841.271V145.96H833.327V142.36ZM840.194 142.36H848.138V145.96H840.194V142.36ZM847.062 142.36H851.574V145.96H847.062V142.36ZM850.495 142.36H858.439V145.96H850.495V142.36ZM857.362 142.36H865.306V145.96H857.362V142.36ZM864.23 142.36H872.174V145.96H864.23V142.36ZM871.097 142.36H875.609V145.96H871.097V142.36ZM874.53 142.36H882.474V145.96H874.53V142.36ZM826.46 156.36H834.404V159.96H826.46V156.36ZM833.327 156.36H841.271V159.96H833.327V156.36ZM840.194 156.36H848.138V159.96H840.194V156.36ZM847.062 156.36H855.006V159.96H847.062V156.36ZM853.929 156.36H858.441V159.96H853.929V156.36ZM857.362 156.36H865.306V159.96H857.362V156.36ZM864.23 156.36H872.174V159.96H864.23V156.36Z" fill="black"/>
<mask id="path-73-inside-25_613_34178" fill="white">
<path d="M896.5 54H978V176H896.5V54Z"/>
</mask>
<path d="M977 54V176H979V54H977Z" fill="#E0E0E0" mask="url(#path-73-inside-25_613_34178)"/>
<mask id="path-75-inside-26_613_34178" fill="white">
<path d="M0 177H978V258H0V177Z"/>
</mask>
<path d="M978 257H0V259H978V257Z" fill="#E0E0E0" mask="url(#path-75-inside-26_613_34178)"/>
<mask id="path-77-inside-27_613_34178" fill="white">
<path d="M0 177H81.5V257H0V177Z"/>
</mask>
<path d="M80.5 177V257H82.5V177H80.5Z" fill="#E0E0E0" mask="url(#path-77-inside-27_613_34178)"/>
<mask id="path-79-inside-28_613_34178" fill="white">
<path d="M81.5 177H163V257H81.5V177Z"/>
</mask>
<path d="M162 177V257H164V177H162Z" fill="#E0E0E0" mask="url(#path-79-inside-28_613_34178)"/>
<mask id="path-81-inside-29_613_34178" fill="white">
<path d="M163 177H244.5V257H163V177Z"/>
</mask>
<path d="M243.5 177V257H245.5V177H243.5Z" fill="#E0E0E0" mask="url(#path-81-inside-29_613_34178)"/>
<mask id="path-83-inside-30_613_34178" fill="white">
<path d="M244.5 177H326V257H244.5V177Z"/>
</mask>
<path d="M325 177V257H327V177H325Z" fill="#E0E0E0" mask="url(#path-83-inside-30_613_34178)"/>
<path d="M255.96 216.36H263.904V219.96H255.96V216.36ZM262.827 216.36H270.771V219.96H262.827V216.36ZM269.694 216.36H277.638V219.96H269.694V216.36Z" fill="black"/>
<mask id="path-86-inside-31_613_34178" fill="white">
<path d="M326 177H407.5V257H326V177Z"/>
</mask>
<path d="M406.5 177V257H408.5V177H406.5Z" fill="#E0E0E0" mask="url(#path-86-inside-31_613_34178)"/>
<path d="M337.46 209.36H341.972V212.96H337.46V209.36ZM340.894 209.36H348.838V212.96H340.894V209.36ZM347.761 209.36H355.705V212.96H347.761V209.36ZM354.628 209.36H362.572V212.96H354.628V209.36ZM361.495 209.36H366.007V212.96H361.495V209.36ZM364.929 209.36H372.873V212.96H364.929V209.36ZM371.796 209.36H379.74V212.96H371.796V209.36ZM378.663 209.36H383.175V212.96H378.663V209.36ZM382.097 209.36H390.041V212.96H382.097V209.36ZM388.964 209.36H393.476V212.96H388.964V209.36ZM337.46 223.36H341.972V226.96H337.46V223.36ZM340.894 223.36H345.406V226.96H340.894V223.36ZM344.327 223.36H352.271V226.96H344.327V223.36ZM351.194 223.36H359.138V226.96H351.194V223.36Z" fill="black"/>
<mask id="path-89-inside-32_613_34178" fill="white">
<path d="M407.5 177H489V257H407.5V177Z"/>
</mask>
<path d="M488 177V257H490V177H488Z" fill="#E0E0E0" mask="url(#path-89-inside-32_613_34178)"/>
<mask id="path-91-inside-33_613_34178" fill="white">
<path d="M489 177H570.5V257H489V177Z"/>
</mask>
<path d="M569.5 177V257H571.5V177H569.5Z" fill="#E0E0E0" mask="url(#path-91-inside-33_613_34178)"/>
<mask id="path-93-inside-34_613_34178" fill="white">
<path d="M570.5 177H652V257H570.5V177Z"/>
</mask>
<path d="M651 177V257H653V177H651Z" fill="#E0E0E0" mask="url(#path-93-inside-34_613_34178)"/>
<mask id="path-95-inside-35_613_34178" fill="white">
<path d="M652 177H733.5V257H652V177Z"/>
</mask>
<path d="M732.5 177V257H734.5V177H732.5Z" fill="#E0E0E0" mask="url(#path-95-inside-35_613_34178)"/>
<mask id="path-97-inside-36_613_34178" fill="white">
<path d="M733.5 177H815V257H733.5V177Z"/>
</mask>
<path d="M814 177V257H816V177H814Z" fill="#E0E0E0" mask="url(#path-97-inside-36_613_34178)"/>
<mask id="path-99-inside-37_613_34178" fill="white">
<path d="M815 177H896.5V257H815V177Z"/>
</mask>
<path d="M895.5 177V257H897.5V177H895.5Z" fill="#E0E0E0" mask="url(#path-99-inside-37_613_34178)"/>
<path d="M826.46 202.36H830.972V205.96H826.46V202.36ZM837.089 202.36H841.601V205.96H837.089V202.36ZM840.522 202.36H848.467V205.96H840.522V202.36ZM847.39 202.36H855.334V205.96H847.39V202.36ZM854.257 202.36H862.201V205.96H854.257V202.36ZM861.124 202.36H865.636V205.96H861.124V202.36ZM864.558 202.36H872.502V205.96H864.558V202.36ZM871.425 202.36H879.369V205.96H871.425V202.36ZM826.46 216.36H834.404V219.96H826.46V216.36ZM833.327 216.36H841.271V219.96H833.327V216.36ZM840.194 216.36H848.138V219.96H840.194V216.36ZM847.062 216.36H855.006V219.96H847.062V216.36ZM853.929 216.36H861.873V219.96H853.929V216.36ZM860.796 216.36H868.74V219.96H860.796V216.36ZM826.46 230.36H834.404V233.96H826.46V230.36ZM833.327 230.36H841.271V233.96H833.327V230.36ZM840.194 230.36H844.706V233.96H840.194V230.36Z" fill="black"/>
<mask id="path-102-inside-38_613_34178" fill="white">
<path d="M896.5 177H978V257H896.5V177Z"/>
</mask>
<path d="M977 177V257H979V177H977Z" fill="#E0E0E0" mask="url(#path-102-inside-38_613_34178)"/>
<path d="M907.96 195.36H915.904V198.96H907.96V195.36ZM914.827 195.36H922.771V198.96H914.827V195.36ZM921.694 195.36H929.638V198.96H921.694V195.36ZM928.562 195.36H936.506V198.96H928.562V195.36ZM935.429 195.36H943.373V198.96H935.429V195.36ZM942.296 195.36H950.24V198.96H942.296V195.36ZM949.163 195.36H957.107V198.96H949.163V195.36ZM956.03 195.36H963.974V198.96H956.03V195.36ZM907.96 209.36H912.472V212.96H907.96V209.36ZM911.394 209.36H919.338V212.96H911.394V209.36ZM918.261 209.36H926.205V212.96H918.261V209.36ZM925.128 209.36H933.072V212.96H925.128V209.36ZM939.19 209.36H947.134V212.96H939.19V209.36ZM907.96 223.36H915.904V226.96H907.96V223.36ZM914.827 223.36H922.771V226.96H914.827V223.36ZM921.694 223.36H929.638V226.96H921.694V223.36ZM928.562 223.36H936.506V226.96H928.562V223.36ZM935.429 223.36H943.373V226.96H935.429V223.36ZM942.296 223.36H950.24V226.96H942.296V223.36ZM907.96 237.36H915.904V240.96H907.96V237.36ZM914.827 237.36H922.771V240.96H914.827V237.36ZM921.694 237.36H929.638V240.96H921.694V237.36ZM928.562 237.36H936.506V240.96H928.562V237.36ZM935.429 237.36H943.373V240.96H935.429V237.36ZM942.296 237.36H950.24V240.96H942.296V237.36Z" fill="black"/>
<mask id="path-105-inside-39_613_34178" fill="white">
<path d="M0 258H978V465H0V258Z"/>
</mask>
<path d="M978 464H0V466H978V464Z" fill="#E0E0E0" mask="url(#path-105-inside-39_613_34178)"/>
<mask id="path-107-inside-40_613_34178" fill="white">
<path d="M0 258H81.5V464H0V258Z"/>
</mask>
<path d="M80.5 258V464H82.5V258H80.5Z" fill="#E0E0E0" mask="url(#path-107-inside-40_613_34178)"/>
<path d="M11.46 360.36H19.404V363.96H11.46V360.36ZM18.3272 360.36H26.2712V363.96H18.3272V360.36ZM25.1944 360.36H29.7064V363.96H25.1944V360.36ZM28.628 360.36H36.572V363.96H28.628V360.36ZM35.4952 360.36H43.4392V363.96H35.4952V360.36Z" fill="black"/>
<mask id="path-110-inside-41_613_34178" fill="white">
<path d="M81.5 258H163V464H81.5V258Z"/>
</mask>
<path d="M162 258V464H164V258H162Z" fill="#E0E0E0" mask="url(#path-110-inside-41_613_34178)"/>
<path d="M92.96 360.36H100.904V363.96H92.96V360.36ZM99.8272 360.36H107.771V363.96H99.8272V360.36ZM106.694 360.36H114.638V363.96H106.694V360.36ZM113.562 360.36H118.074V363.96H113.562V360.36Z" fill="black"/>
<mask id="path-113-inside-42_613_34178" fill="white">
<path d="M163 258H244.5V464H163V258Z"/>
</mask>
<path d="M243.5 258V464H245.5V258H243.5Z" fill="#E0E0E0" mask="url(#path-113-inside-42_613_34178)"/>
<path d="M174.46 360.36H178.972V363.96H174.46V360.36ZM177.894 360.36H185.838V363.96H177.894V360.36ZM184.761 360.36H192.705V363.96H184.761V360.36ZM191.628 360.36H196.14V363.96H191.628V360.36ZM195.062 360.36H203.006V363.96H195.062V360.36Z" fill="black"/>
<mask id="path-116-inside-43_613_34178" fill="white">
<path d="M244.5 258H326V464H244.5V258Z"/>
</mask>
<path d="M325 258V464H327V258H325Z" fill="#E0E0E0" mask="url(#path-116-inside-43_613_34178)"/>
<path d="M255.96 360.36H263.904V363.96H255.96V360.36ZM262.827 360.36H270.771V363.96H262.827V360.36ZM269.694 360.36H277.638V363.96H269.694V360.36Z" fill="black"/>
<mask id="path-119-inside-44_613_34178" fill="white">
<path d="M326 258H407.5V464H326V258Z"/>
</mask>
<path d="M406.5 258V464H408.5V258H406.5Z" fill="#E0E0E0" mask="url(#path-119-inside-44_613_34178)"/>
<path d="M337.46 353.36H341.972V356.96H337.46V353.36ZM340.894 353.36H348.838V356.96H340.894V353.36ZM347.761 353.36H352.273V356.96H347.761V353.36ZM351.194 353.36H355.706V356.96H351.194V353.36ZM354.628 353.36H362.572V356.96H354.628V353.36ZM361.495 353.36H366.007V356.96H361.495V353.36ZM364.929 353.36H369.441V356.96H364.929V353.36ZM368.362 353.36H376.306V356.96H368.362V353.36ZM375.23 353.36H379.742V356.96H375.23V353.36ZM378.663 353.36H383.175V356.96H378.663V353.36ZM382.097 353.36H390.041V356.96H382.097V353.36ZM337.46 367.36H345.404V370.96H337.46V367.36ZM344.327 367.36H352.271V370.96H344.327V367.36ZM351.194 367.36H359.138V370.96H351.194V367.36ZM358.062 367.36H366.006V370.96H358.062V367.36ZM364.929 367.36H372.873V370.96H364.929V367.36ZM371.796 367.36H379.74V370.96H371.796V367.36ZM378.663 367.36H386.607V370.96H378.663V367.36Z" fill="black"/>
<mask id="path-122-inside-45_613_34178" fill="white">
<path d="M407.5 258H489V464H407.5V258Z"/>
</mask>
<path d="M488 258V464H490V258H488Z" fill="#E0E0E0" mask="url(#path-122-inside-45_613_34178)"/>
<path d="M418.96 360.36H426.904V363.96H418.96V360.36ZM425.827 360.36H433.771V363.96H425.827V360.36Z" fill="black"/>
<mask id="path-125-inside-46_613_34178" fill="white">
<path d="M489 258H570.5V464H489V258Z"/>
</mask>
<path d="M569.5 258V464H571.5V258H569.5Z" fill="#E0E0E0" mask="url(#path-125-inside-46_613_34178)"/>
<path d="M500.46 353.36H508.404V356.96H500.46V353.36ZM507.327 353.36H515.271V356.96H507.327V353.36ZM514.194 353.36H518.706V356.96H514.194V353.36ZM517.628 353.36H525.572V356.96H517.628V353.36ZM524.495 353.36H532.439V356.96H524.495V353.36ZM531.362 353.36H539.306V356.96H531.362V353.36ZM538.23 353.36H542.742V356.96H538.23V353.36ZM541.663 353.36H546.175V356.96H541.663V353.36ZM545.097 353.36H553.041V356.96H545.097V353.36ZM500.46 367.36H508.404V370.96H500.46V367.36ZM507.327 367.36H511.839V370.96H507.327V367.36ZM510.761 367.36H518.705V370.96H510.761V367.36Z" fill="black"/>
<mask id="path-128-inside-47_613_34178" fill="white">
<path d="M570.5 258H652V464H570.5V258Z"/>
</mask>
<path d="M651 258V464H653V258H651Z" fill="#E0E0E0" mask="url(#path-128-inside-47_613_34178)"/>
<path d="M581.96 346.36H589.904V349.96H581.96V346.36ZM588.827 346.36H596.771V349.96H588.827V346.36ZM595.694 346.36H600.206V349.96H595.694V346.36ZM599.128 346.36H603.64V349.96H599.128V346.36ZM602.562 346.36H610.506V349.96H602.562V346.36ZM609.429 346.36H613.941V349.96H609.429V346.36ZM612.862 346.36H620.806V349.96H612.862V346.36ZM619.73 346.36H627.674V349.96H619.73V346.36ZM626.597 346.36H634.541V349.96H626.597V346.36ZM581.96 360.36H589.904V363.96H581.96V360.36ZM588.827 360.36H596.771V363.96H588.827V360.36ZM595.694 360.36H603.638V363.96H595.694V360.36ZM602.562 360.36H610.506V363.96H602.562V360.36ZM609.429 360.36H617.373V363.96H609.429V360.36ZM616.296 360.36H624.24V363.96H616.296V360.36ZM623.163 360.36H631.107V363.96H623.163V360.36ZM630.03 360.36H634.542V363.96H630.03V360.36ZM581.96 374.36H586.472V377.96H581.96V374.36ZM585.394 374.36H593.338V377.96H585.394V374.36ZM592.261 374.36H600.205V377.96H592.261V374.36Z" fill="black"/>
<mask id="path-131-inside-48_613_34178" fill="white">
<path d="M652 258H733.5V464H652V258Z"/>
</mask>
<path d="M732.5 258V464H734.5V258H732.5Z" fill="#E0E0E0" mask="url(#path-131-inside-48_613_34178)"/>
<path d="M663.46 339.36H671.404V342.96H663.46V339.36ZM670.327 339.36H678.271V342.96H670.327V339.36ZM677.194 339.36H685.138V342.96H677.194V339.36ZM684.062 339.36H692.006V342.96H684.062V339.36ZM690.929 339.36H698.873V342.96H690.929V339.36ZM663.46 353.36H671.404V356.96H663.46V353.36ZM670.327 353.36H678.271V356.96H670.327V353.36ZM677.194 353.36H685.138V356.96H677.194V353.36ZM684.062 353.36H692.006V356.96H684.062V353.36ZM690.929 353.36H698.873V356.96H690.929V353.36ZM697.796 353.36H705.74V356.96H697.796V353.36ZM704.663 353.36H712.607V356.96H704.663V353.36ZM711.53 353.36H719.474V356.96H711.53V353.36ZM663.46 367.36H671.404V370.96H663.46V367.36ZM670.327 367.36H678.271V370.96H670.327V367.36ZM677.194 367.36H685.138V370.96H677.194V367.36ZM663.46 381.36H671.404V384.96H663.46V381.36ZM670.327 381.36H678.271V384.96H670.327V381.36ZM677.194 381.36H685.138V384.96H677.194V381.36ZM684.062 381.36H692.006V384.96H684.062V381.36ZM690.929 381.36H695.441V384.96H690.929V381.36ZM694.362 381.36H702.306V384.96H694.362V381.36ZM701.23 381.36H709.174V384.96H701.23V381.36Z" fill="black"/>
<mask id="path-134-inside-49_613_34178" fill="white">
<path d="M733.5 258H815V464H733.5V258Z"/>
</mask>
<path d="M814 258V464H816V258H814Z" fill="#E0E0E0" mask="url(#path-134-inside-49_613_34178)"/>
<path d="M744.96 360.36H752.904V363.96H744.96V360.36ZM751.827 360.36H759.771V363.96H751.827V360.36Z" fill="black"/>
<mask id="path-137-inside-50_613_34178" fill="white">
<path d="M815 258H896.5V464H815V258Z"/>
</mask>
<path d="M895.5 258V464H897.5V258H895.5Z" fill="#E0E0E0" mask="url(#path-137-inside-50_613_34178)"/>
<path d="M826.46 276.36H834.404V279.96H826.46V276.36ZM840.522 276.36H848.467V279.96H840.522V276.36ZM847.39 276.36H855.334V279.96H847.39V276.36ZM854.257 276.36H862.201V279.96H854.257V276.36ZM826.46 290.36H834.404V293.96H826.46V290.36ZM833.327 290.36H841.271V293.96H833.327V290.36ZM840.194 290.36H848.138V293.96H840.194V290.36ZM847.062 290.36H855.006V293.96H847.062V290.36ZM853.929 290.36H861.873V293.96H853.929V290.36ZM860.796 290.36H868.74V293.96H860.796V290.36ZM867.663 290.36H875.607V293.96H867.663V290.36ZM874.53 290.36H882.474V293.96H874.53V290.36ZM826.46 304.36H834.404V307.96H826.46V304.36ZM833.327 304.36H841.271V307.96H833.327V304.36ZM840.194 304.36H848.138V307.96H840.194V304.36ZM826.46 318.36H834.404V321.96H826.46V318.36ZM833.327 318.36H841.271V321.96H833.327V318.36ZM840.194 318.36H848.138V321.96H840.194V318.36ZM847.062 318.36H855.006V321.96H847.062V318.36ZM853.929 318.36H858.441V321.96H853.929V318.36ZM857.362 318.36H865.306V321.96H857.362V318.36ZM864.23 318.36H872.174V321.96H864.23V318.36ZM826.46 332.36H834.404V335.96H826.46V332.36ZM833.327 332.36H841.271V335.96H833.327V332.36ZM840.194 332.36H848.138V335.96H840.194V332.36ZM826.46 346.36H834.404V349.96H826.46V346.36ZM833.327 346.36H841.271V349.96H833.327V346.36ZM840.194 346.36H848.138V349.96H840.194V346.36ZM847.062 346.36H855.006V349.96H847.062V346.36ZM853.929 346.36H861.873V349.96H853.929V346.36ZM826.46 360.36H834.404V363.96H826.46V360.36ZM840.522 360.36H848.467V363.96H840.522V360.36ZM847.39 360.36H855.334V363.96H847.39V360.36ZM854.257 360.36H858.769V363.96H854.257V360.36ZM857.69 360.36H865.634V363.96H857.69V360.36ZM864.558 360.36H872.502V363.96H864.558V360.36ZM871.425 360.36H879.369V363.96H871.425V360.36ZM826.46 374.36H834.404V377.96H826.46V374.36ZM833.327 374.36H837.839V377.96H833.327V374.36ZM836.761 374.36H841.273V377.96H836.761V374.36ZM840.194 374.36H848.138V377.96H840.194V374.36ZM847.062 374.36H855.006V377.96H847.062V374.36ZM853.929 374.36H861.873V377.96H853.929V374.36ZM860.796 374.36H868.74V377.96H860.796V374.36ZM867.663 374.36H872.175V377.96H867.663V374.36ZM826.46 388.36H834.404V391.96H826.46V388.36ZM833.327 388.36H841.271V391.96H833.327V388.36ZM840.194 388.36H848.138V391.96H840.194V388.36ZM847.062 388.36H855.006V391.96H847.062V388.36ZM853.929 388.36H861.873V391.96H853.929V388.36ZM860.796 388.36H868.74V391.96H860.796V388.36ZM867.663 388.36H875.607V391.96H867.663V388.36ZM826.46 402.36H834.404V405.96H826.46V402.36ZM833.327 402.36H837.839V405.96H833.327V402.36ZM836.761 402.36H844.705V405.96H836.761V402.36ZM826.46 416.36H834.404V419.96H826.46V416.36ZM833.327 416.36H841.271V419.96H833.327V416.36ZM840.194 416.36H848.138V419.96H840.194V416.36ZM847.062 416.36H855.006V419.96H847.062V416.36ZM853.929 416.36H861.873V419.96H853.929V416.36ZM826.46 430.36H834.404V433.96H826.46V430.36ZM833.327 430.36H841.271V433.96H833.327V430.36ZM840.194 430.36H848.138V433.96H840.194V430.36ZM847.062 430.36H855.006V433.96H847.062V430.36ZM853.929 430.36H861.873V433.96H853.929V430.36ZM867.991 430.36H875.935V433.96H867.991V430.36ZM826.46 444.36H834.404V447.96H826.46V444.36ZM833.327 444.36H841.271V447.96H833.327V444.36ZM840.194 444.36H848.138V447.96H840.194V444.36ZM847.062 444.36H855.006V447.96H847.062V444.36ZM853.929 444.36H858.441V447.96H853.929V444.36Z" fill="black"/>
<mask id="path-140-inside-51_613_34178" fill="white">
<path d="M896.5 258H978V464H896.5V258Z"/>
</mask>
<path d="M977 258V464H979V258H977Z" fill="#E0E0E0" mask="url(#path-140-inside-51_613_34178)"/>
<mask id="path-142-inside-52_613_34178" fill="white">
<path d="M0 465H978V532H0V465Z"/>
</mask>
<path d="M978 531H0V533H978V531Z" fill="#E0E0E0" mask="url(#path-142-inside-52_613_34178)"/>
<mask id="path-144-inside-53_613_34178" fill="white">
<path d="M0 465H81.5V531H0V465Z"/>
</mask>
<path d="M80.5 465V531H82.5V465H80.5Z" fill="#E0E0E0" mask="url(#path-144-inside-53_613_34178)"/>
<mask id="path-146-inside-54_613_34178" fill="white">
<path d="M81.5 465H163V531H81.5V465Z"/>
</mask>
<path d="M162 465V531H164V465H162Z" fill="#E0E0E0" mask="url(#path-146-inside-54_613_34178)"/>
<mask id="path-148-inside-55_613_34178" fill="white">
<path d="M163 465H244.5V531H163V465Z"/>
</mask>
<path d="M243.5 465V531H245.5V465H243.5Z" fill="#E0E0E0" mask="url(#path-148-inside-55_613_34178)"/>
<mask id="path-150-inside-56_613_34178" fill="white">
<path d="M244.5 465H326V531H244.5V465Z"/>
</mask>
<path d="M325 465V531H327V465H325Z" fill="#E0E0E0" mask="url(#path-150-inside-56_613_34178)"/>
<path d="M255.96 497.36H263.904V500.96H255.96V497.36ZM262.827 497.36H270.771V500.96H262.827V497.36ZM269.694 497.36H277.638V500.96H269.694V497.36Z" fill="black"/>
<mask id="path-153-inside-57_613_34178" fill="white">
<path d="M326 465H407.5V531H326V465Z"/>
</mask>
<path d="M406.5 465V531H408.5V465H406.5Z" fill="#E0E0E0" mask="url(#path-153-inside-57_613_34178)"/>
<path d="M337.46 490.36H341.972V493.96H337.46V490.36ZM340.894 490.36H348.838V493.96H340.894V490.36ZM347.761 490.36H352.273V493.96H347.761V490.36ZM351.194 490.36H359.138V493.96H351.194V490.36ZM358.062 490.36H362.574V493.96H358.062V490.36ZM361.495 490.36H369.439V493.96H361.495V490.36ZM368.362 490.36H376.306V493.96H368.362V490.36ZM375.23 490.36H379.742V493.96H375.23V490.36ZM378.663 490.36H386.607V493.96H378.663V490.36ZM385.53 490.36H390.042V493.96H385.53V490.36ZM337.46 504.36H341.972V507.96H337.46V504.36ZM340.894 504.36H348.838V507.96H340.894V504.36ZM347.761 504.36H352.273V507.96H347.761V504.36Z" fill="black"/>
<mask id="path-156-inside-58_613_34178" fill="white">
<path d="M407.5 465H489V531H407.5V465Z"/>
</mask>
<path d="M488 465V531H490V465H488Z" fill="#E0E0E0" mask="url(#path-156-inside-58_613_34178)"/>
<path d="M418.96 497.36H426.904V500.96H418.96V497.36ZM425.827 497.36H433.771V500.96H425.827V497.36Z" fill="black"/>
<mask id="path-159-inside-59_613_34178" fill="white">
<path d="M489 465H570.5V531H489V465Z"/>
</mask>
<path d="M569.5 465V531H571.5V465H569.5Z" fill="#E0E0E0" mask="url(#path-159-inside-59_613_34178)"/>
<path d="M500.46 490.36H508.404V493.96H500.46V490.36ZM507.327 490.36H515.271V493.96H507.327V490.36ZM514.194 490.36H518.706V493.96H514.194V490.36ZM517.628 490.36H525.572V493.96H517.628V490.36ZM524.495 490.36H532.439V493.96H524.495V490.36ZM531.362 490.36H539.306V493.96H531.362V490.36ZM538.23 490.36H542.742V493.96H538.23V490.36ZM541.663 490.36H546.175V493.96H541.663V490.36ZM545.097 490.36H553.041V493.96H545.097V490.36ZM500.46 504.36H508.404V507.96H500.46V504.36ZM507.327 504.36H511.839V507.96H507.327V504.36ZM510.761 504.36H518.705V507.96H510.761V504.36Z" fill="black"/>
<mask id="path-162-inside-60_613_34178" fill="white">
<path d="M570.5 465H652V531H570.5V465Z"/>
</mask>
<path d="M651 465V531H653V465H651Z" fill="#E0E0E0" mask="url(#path-162-inside-60_613_34178)"/>
<path d="M581.96 483.36H589.904V486.96H581.96V483.36ZM588.827 483.36H596.771V486.96H588.827V483.36ZM595.694 483.36H600.206V486.96H595.694V483.36ZM599.128 483.36H607.072V486.96H599.128V483.36ZM605.995 483.36H613.939V486.96H605.995V483.36ZM612.862 483.36H617.374V486.96H612.862V483.36ZM616.296 483.36H620.808V486.96H616.296V483.36ZM619.73 483.36H627.674V486.96H619.73V483.36ZM626.597 483.36H634.541V486.96H626.597V483.36ZM633.464 483.36H637.976V486.96H633.464V483.36ZM581.96 497.36H589.904V500.96H581.96V497.36ZM588.827 497.36H596.771V500.96H588.827V497.36ZM595.694 497.36H603.638V500.96H595.694V497.36ZM602.562 497.36H610.506V500.96H602.562V497.36ZM609.429 497.36H613.941V500.96H609.429V497.36ZM612.862 497.36H617.374V500.96H612.862V497.36ZM616.296 497.36H624.24V500.96H616.296V497.36ZM623.163 497.36H631.107V500.96H623.163V497.36ZM630.03 497.36H637.974V500.96H630.03V497.36ZM581.96 511.36H589.904V514.96H581.96V511.36ZM588.827 511.36H596.771V514.96H588.827V511.36ZM595.694 511.36H603.638V514.96H595.694V511.36ZM602.562 511.36H607.074V514.96H602.562V511.36ZM605.995 511.36H610.507V514.96H605.995V511.36ZM609.429 511.36H617.373V514.96H609.429V511.36ZM616.296 511.36H624.24V514.96H616.296V511.36Z" fill="black"/>
<mask id="path-165-inside-61_613_34178" fill="white">
<path d="M652 465H733.5V531H652V465Z"/>
</mask>
<path d="M732.5 465V531H734.5V465H732.5Z" fill="#E0E0E0" mask="url(#path-165-inside-61_613_34178)"/>
<mask id="path-167-inside-62_613_34178" fill="white">
<path d="M733.5 465H815V531H733.5V465Z"/>
</mask>
<path d="M814 465V531H816V465H814Z" fill="#E0E0E0" mask="url(#path-167-inside-62_613_34178)"/>
<path d="M744.96 497.36H752.904V500.96H744.96V497.36ZM751.827 497.36H759.771V500.96H751.827V497.36Z" fill="black"/>
<mask id="path-170-inside-63_613_34178" fill="white">
<path d="M815 465H896.5V531H815V465Z"/>
</mask>
<path d="M895.5 465V531H897.5V465H895.5Z" fill="#E0E0E0" mask="url(#path-170-inside-63_613_34178)"/>
<mask id="path-172-inside-64_613_34178" fill="white">
<path d="M896.5 465H978V531H896.5V465Z"/>
</mask>
<path d="M977 465V531H979V465H977Z" fill="#E0E0E0" mask="url(#path-172-inside-64_613_34178)"/>
</g>
<defs>
<clipPath id="clip0_613_34178">
<rect width="978" height="502" fill="white"/>
</clipPath>
</defs>
</svg>
