<?xml version="1.0" encoding="UTF-8" standalone="no"?><!DOCTYPE svg PUBLIC "-//W3C//DTD SVG 1.1//EN" "http://www.w3.org/Graphics/SVG/1.1/DTD/svg11.dtd"><svg width="100%" height="100%" viewBox="0 0 1440 901" version="1.1" xmlns="http://www.w3.org/2000/svg" xmlns:xlink="http://www.w3.org/1999/xlink" xml:space="preserve" xmlns:serif="http://www.serif.com/" style="fill-rule:evenodd;clip-rule:evenodd;stroke-linecap:round;stroke-linejoin:round;stroke-miterlimit:1.5;"><rect id="cal" x="0" y="0.343" width="1440" height="900" style="fill:none;"/><path d="M82.792,77.556c-13.737,-38.645 -72.826,44.665 -3.993,53.269c16.392,2.049 56.738,-15.976 32.876,-57.734c-0.399,-0.698 -43.38,-39.438 -60.139,13.632" style="fill:none;stroke:#171717;stroke-width:9.59px;"/><path d="M148.352,94.675c2.742,-2.855 213.681,-9.741 215.906,-8.608" style="fill:none;stroke:#171717;stroke-width:9.59px;"/><path d="M55.828,199.921c4.94,1.55 4.946,-3.76 64.668,-2.541c22.04,0.45 46.452,-1.787 52.923,0.802" style="fill:none;stroke:#171717;stroke-width:9.59px;"/><path d="M136.001,237.554c-21.149,-10.352 -74.311,4.96 -81.258,7.937c-1.441,0.618 -0.974,1.266 -5.993,30.579c42.897,-3.9 42.617,2.268 85.378,-0.108c24.374,-1.354 5.245,-13.759 4.009,-38.489" style="fill:none;stroke:#171717;stroke-width:9.59px;"/><path d="M264.4,234.083c-34.048,-4.072 -78.046,4.029 -78.953,8.201c-0.532,2.445 -4.879,22.44 -0.802,31.273c2.662,5.768 4.676,-5.394 79.384,-2.406c14.757,0.59 9.154,-7.104 15.527,-39.366c-33.168,2.48 -39.376,1.963 -42.79,1.679" style="fill:none;stroke:#171717;stroke-width:9.59px;"/><path d="M435.78,37.741c-5.352,15.094 4.845,795.071 -4.819,787.754" style="fill:none;stroke:#171717;stroke-width:9.59px;"/><path d="M438.971,121.756c34.679,-9.472 589.023,-22.249 603.809,-21.183c176.635,12.737 199.031,-8.5 373.667,-8.5" style="fill:none;stroke:#171717;stroke-width:9.59px;"/><path d="M1405.99,10.684c-0.8,-0.606 -5.913,146.501 -6.356,159.246c-4.803,138.196 -13.721,137.418 -6.933,425.242c1.728,73.295 2.988,260.443 1.155,265.994" style="fill:none;stroke:#171717;stroke-width:9.59px;"/><path d="M56.055,445.983c7.75,-1.283 128.043,-0.629 154.683,-5.069" style="fill:none;stroke:#171717;stroke-width:9.59px;"/><path d="M61.143,529.73c-7.194,2.9 3.849,9.135 5.164,2.775c2.254,-10.904 -15.493,2.775 -8.607,5.552c5.564,2.242 18.503,-13.271 4.303,-10.409" style="fill:none;stroke:#171717;stroke-width:9.59px;"/><path d="M58.253,590.037c-7.194,2.9 3.849,9.135 5.163,2.776c2.255,-10.905 -15.492,2.775 -8.606,5.551c5.564,2.242 18.503,-13.271 4.303,-10.408" style="fill:none;stroke:#171717;stroke-width:9.59px;"/><path d="M55.363,665.951c-7.194,2.9 3.849,9.135 5.163,2.775c2.254,-10.904 -15.492,2.775 -8.606,5.551c5.564,2.243 18.503,-13.27 4.303,-10.408" style="fill:none;stroke:#171717;stroke-width:9.59px;"/><path d="M54.977,735.699c-7.194,2.9 3.849,9.135 5.164,2.776c2.254,-10.905 -15.493,2.775 -8.606,5.551c5.563,2.242 18.503,-13.271 4.303,-10.408" style="fill:none;stroke:#171717;stroke-width:9.59px;"/><path d="M144.532,529.279c-5.248,-7.481 -11.167,12.386 -2.491,7.39c4.626,-2.665 4.453,-12.563 -0,-10.408c-7.135,3.451 -6.428,7.877 1.721,6.938" style="fill:none;stroke:#171717;stroke-width:9.59px;"/><path d="M141.642,589.586c-5.248,-7.481 -11.167,12.386 -2.491,7.39c4.626,-2.664 4.453,-12.563 -0,-10.408c-7.135,3.451 -6.428,7.877 1.721,6.939" style="fill:none;stroke:#171717;stroke-width:9.59px;"/><path d="M138.751,665.499c-5.247,-7.48 -11.166,12.387 -2.491,7.391c4.627,-2.665 4.454,-12.563 0,-10.408c-7.134,3.451 -6.427,7.877 1.722,6.938" style="fill:none;stroke:#171717;stroke-width:9.59px;"/><path d="M138.366,735.248c-5.248,-7.481 -11.167,12.386 -2.491,7.39c4.626,-2.664 4.454,-12.563 0,-10.408c-7.135,3.451 -6.428,7.877 1.721,6.939" style="fill:none;stroke:#171717;stroke-width:9.59px;"/><path d="M217.11,528.622c-4.847,-4.217 -3.811,5.327 0.665,3.883c2.864,-0.923 -2.286,-4.38 -0.861,-2.081" style="fill:none;stroke:#171717;stroke-width:9.59px;"/><path d="M214.22,588.929c-4.847,-4.216 -3.811,5.327 0.665,3.884c2.864,-0.924 -2.287,-4.381 -0.861,-2.082" style="fill:none;stroke:#171717;stroke-width:9.59px;"/><path d="M211.33,664.843c-4.847,-4.217 -3.811,5.327 0.665,3.883c2.864,-0.923 -2.287,-4.38 -0.861,-2.081" style="fill:none;stroke:#171717;stroke-width:9.59px;"/><path d="M210.944,734.591c-4.846,-4.216 -3.811,5.327 0.665,3.884c2.864,-0.924 -2.286,-4.381 -0.86,-2.082" style="fill:none;stroke:#171717;stroke-width:9.59px;"/><path d="M297.53,591.933c0.899,-4.282 3.223,2.951 7.72,0.88c7.33,-3.378 -3.106,-7.87 -10.328,-2.776c-8.505,6 9.445,3.588 10.328,3.47" style="fill:none;stroke:#171717;stroke-width:9.59px;"/><path d="M294.64,667.847c0.898,-4.283 3.223,2.951 7.719,0.879c7.331,-3.377 -3.105,-7.87 -10.327,-2.775c-8.505,6 9.445,3.588 10.327,3.469" style="fill:none;stroke:#171717;stroke-width:9.59px;"/><path d="M294.255,737.595c0.898,-4.282 3.223,2.951 7.719,0.88c7.331,-3.378 -3.106,-7.87 -10.327,-2.776c-8.505,6 9.444,3.588 10.327,3.47" style="fill:none;stroke:#171717;stroke-width:9.59px;"/><path d="M389.953,529.279c-3.617,1.902 1.353,-6.015 -2.637,-4.406c-7.836,3.159 5.163,8.331 6.885,1.388c4.518,-18.215 -7.436,4.275 -7.745,4.857c-2.715,5.106 1.783,2.99 7.745,1.387" style="fill:none;stroke:#171717;stroke-width:9.59px;"/><path d="M387.063,589.586c-3.618,1.902 1.353,-6.014 -2.637,-4.406c-7.836,3.159 5.163,8.331 6.885,1.388c4.518,-18.214 -7.436,4.275 -7.745,4.857c-2.715,5.106 1.783,2.99 7.745,1.388" style="fill:none;stroke:#171717;stroke-width:9.59px;"/><path d="M384.173,665.499c-3.618,1.903 1.353,-6.014 -2.637,-4.405c-7.836,3.159 5.163,8.331 6.885,1.388c4.518,-18.215 -7.436,4.275 -7.746,4.857c-2.714,5.106 1.784,2.99 7.746,1.387" style="fill:none;stroke:#171717;stroke-width:9.59px;"/><path d="M383.787,735.248c-3.617,1.902 1.354,-6.014 -2.636,-4.406c-7.836,3.159 5.162,8.331 6.885,1.388c4.518,-18.214 -7.437,4.275 -7.746,4.857c-2.714,5.106 1.784,2.99 7.746,1.388" style="fill:none;stroke:#171717;stroke-width:9.59px;"/><path d="M666.78,33.125c1.629,-1.843 2.755,-2.979 0.363,-1.766c-5.113,2.594 -1.9,792.632 -2.394,794.136" style="fill:none;stroke:#171717;stroke-width:9.59px;"/><path d="M860.465,20.757c-1.818,13.024 19.235,195.47 4.165,406.456c-23.079,323.115 6.501,380.495 -5.984,399.496" style="fill:none;stroke:#171717;stroke-width:9.59px;"/><path d="M1041.77,16.788c-2.539,24.473 13.271,306.762 2.394,604.709c-0.617,16.898 -7.399,202.673 -5.985,211.283" style="fill:none;stroke:#171717;stroke-width:9.59px;"/><path d="M1230.88,9.502c-0,50.132 -35.695,468.774 -21.544,586.495c3.486,29.005 -0.752,231.728 1.196,257.426" style="fill:none;stroke:#171717;stroke-width:9.59px;"/><path d="M284.295,511.988c-1.309,18.323 -2.038,32.909 -2.181,35.773c22.001,-0.93 22.018,0.974 43.625,-4.534c0.791,-14.392 0.029,-14.195 2.181,-28.185c0,-0 -2.872,-5.335 -3.122,-5.799c-3.168,0.255 -39.414,3.177 -39.63,2.745" style="stroke:#171717;stroke-width:9.59px;"/><path d="M475.385,369.582c-1.811,38.52 0.819,38.05 -2.845,77.026c90.502,-13.32 89.906,-16.082 146.48,-18.569c6.136,-0.27 5.868,-1.289 11.377,1.376c6.411,3.1 5.951,-75.289 -6.399,-68.773c-34.836,18.378 -119.818,1.524 -144.347,11.691" style="fill:none;stroke:#171717;stroke-width:9.59px;"/><path d="M475.745,499.915c-1.143,28.192 -0.883,27.861 -3.404,56.165c31.192,0 30.662,9.492 61.475,4.724c34.617,-5.357 44.31,5.136 100.938,-11.704c1.375,-51.346 3.34,-51.961 -0.536,-57.583" style="fill:none;stroke:#171717;stroke-width:9.59px;"/><path d="M472.489,496.766c1.352,2.615 157.847,-3.069 162.815,-7.873" style="fill:none;stroke:#171717;stroke-width:9.59px;"/><path d="M704.771,441.126c-2.892,29.374 -3.167,28.938 -4.924,58.792c114.573,-5.407 122.74,-7.664 133.005,-10.501c1.503,-34.159 0.812,-44.524 0.554,-48.387c-38.936,6.759 -38.956,1.569 -74.906,4.296c-1.883,0.143 -32.321,5.109 -61.869,2.624" style="fill:none;stroke:#171717;stroke-width:9.59px;"/><path d="M895.67,520.55c-0.048,-0.275 -2.324,-13.267 -3.119,-1.738c-0.419,6.085 -2.913,42.268 -4.342,76.111c114.367,3.687 123.177,16.058 125.91,0.525c7.282,-41.376 3.361,-41.427 7.654,-82.947c-105.023,-1.572 -131.102,5.749 -129.222,2.112" style="fill:none;stroke:#171717;stroke-width:9.59px;"/><path d="M1081.42,345.069c-0.964,27.961 -2.479,27.518 -3.291,55.783c38.294,-4.056 56.077,-9.223 110.749,-12.216c-0.447,-24.62 0.468,-24.418 -4.465,-48.477c-8.169,1.141 -92.251,12.887 -102.993,5.96" style="fill:none;stroke:#171717;stroke-width:9.59px;"/><path d="M1246.4,407.008c4.891,18.923 0.818,18.946 -6.26,61.944c10.11,-0.196 77.971,-1.508 126.345,-3.689c-0.661,-27.743 -2.084,-59.391 -2.316,-64.554c-85.617,2.671 -112.393,5.718 -122.111,6.824" style="fill:none;stroke:#171717;stroke-width:9.59px;"/><path d="M1264.22,45.806c41.144,-1.953 40.638,-3.166 81.561,-6.049" style="fill:none;stroke:#171717;stroke-width:9.59px;"/><path d="M1068.29,59.379c7.336,-4.851 57.145,-2.046 57.145,-6.472" style="fill:none;stroke:#171717;stroke-width:9.59px;"/><path d="M883.822,59.499c46.4,-0.021 46.117,2.206 92.369,-0.839" style="fill:none;stroke:#171717;stroke-width:9.59px;"/><path d="M686.316,70.172c0.871,-0.217 -3.52,0.211 -2.649,-0.006c24.094,-6.007 23.706,-4.187 48.302,-4.931" style="fill:none;stroke:#171717;stroke-width:9.59px;"/><path d="M463.792,79.2c3.35,-4.424 3.855,-0.168 55.433,-5.747" style="fill:none;stroke:#171717;stroke-width:9.59px;"/><path d="M52.636,800.469c-0.096,0.574 -3.979,23.873 3.255,6.511c3.223,-7.734 -6.771,-11.605 -7.441,-5.581c-0.739,6.651 2.116,6.271 8.371,4.186" style="fill:none;stroke:#171717;stroke-width:9.59px;"/><path d="M132.625,800.469c-9.376,2.344 1.055,12.308 4.186,6.046c4.367,-8.734 -9.117,-7.841 -8.371,1.86c0.062,0.802 5.768,9.171 8.371,-5.581c-2.126,5.315 -2.9,5.417 -1.86,6.976" style="fill:none;stroke:#171717;stroke-width:9.59px;"/><path d="M51.381,335.691c8.838,-0.261 87.395,-2.581 110.315,-6.748" style="fill:none;stroke:#171717;stroke-width:9.59px;"/><path d="M53.42,381.91c-2.059,-3.118 152.027,-1.541 179.018,-6.039" style="fill:none;stroke:#171717;stroke-width:9.59px;"/><path d="M256.127,367.484c0.654,1.09 2.033,3.389 6.659,14.43c15.791,-13.26 14.479,-14.337 15.004,-15.476c-1.784,-0.145 -23.937,-1.943 -22.379,-0.385" style="fill:none;stroke:#171717;stroke-width:9.59px;"/><path d="M266.846,371.292c-1.542,-0.507 -3.709,0.052 -3.924,0.483c-1.059,2.118 0.505,0.141 2.503,-0.715" style="fill:none;stroke:#171717;stroke-width:9.59px;"/></svg>