<?xml version="1.0" encoding="UTF-8" standalone="no"?><!DOCTYPE svg PUBLIC "-//W3C//DTD SVG 1.1//EN" "http://www.w3.org/Graphics/SVG/1.1/DTD/svg11.dtd"><svg width="100%" height="100%" viewBox="0 0 1419 799" version="1.1" xmlns="http://www.w3.org/2000/svg" xmlns:xlink="http://www.w3.org/1999/xlink" xml:space="preserve" xmlns:serif="http://www.serif.com/" style="fill-rule:evenodd;clip-rule:evenodd;stroke-linecap:round;stroke-linejoin:round;stroke-miterlimit:1.5;"><rect id="Artboard2" x="0" y="0.489" width="1418.11" height="798.368" style="fill:none;"/><path d="M218.716,117.918c-5.907,134.896 -16.414,224.101 -11.319,246.743c9.986,44.385 -15.071,241.802 3.35,327.764" style="fill:none;stroke:#171717;stroke-width:9.59px;"/><path d="M211.916,689.006c61.206,-25.813 60.372,-26.875 120.556,-54.652c4.723,-2.18 45.004,-20.772 59.745,-25.685" style="fill:none;stroke:#171717;stroke-width:9.59px;"/><path d="M229.391,113.429c0.801,0.235 -2.694,1.405 -1.893,1.64c1.309,0.383 7.544,-3.359 20.66,5.583c40.553,27.65 43.713,20.917 86.547,45.228c4.231,2.402 50.358,28.582 52.487,30.711" style="fill:none;stroke:#171717;stroke-width:9.59px;"/><path d="M122.524,121.211c1.75,21.872 -4.936,131.648 1.675,287.003c0.719,16.886 -7.669,199.997 -0.558,285.327" style="fill:none;stroke:#171717;stroke-width:9.59px;"/><path d="M124.758,690.749c71.268,-27.715 81.808,-38.255 77.055,-33.502" style="fill:none;stroke:#171717;stroke-width:9.59px;"/><path d="M126.624,120.863c4.75,-9.966 90.252,29.195 91.382,29.383" style="fill:none;stroke:#171717;stroke-width:9.59px;"/><path d="M19.55,120.863c-17.073,64.954 -2.846,252.412 -2.558,272.275c0.774,53.377 -10.464,253.978 -1.117,293.703" style="fill:none;stroke:#171717;stroke-width:9.59px;"/><path d="M15.242,688.925c7.415,-6.137 120.102,-41.717 104.49,-33.911" style="fill:none;stroke:#171717;stroke-width:9.59px;"/><path d="M24.251,116.744c6.352,-0 5.889,2.406 77.613,16.751c0.559,0.112 22.093,8.725 24.01,9.492" style="fill:none;stroke:#171717;stroke-width:9.59px;"/><path d="M1058.06,212.388c-6.482,3.035 75.289,-28.652 81.821,-31.183c6.246,-2.42 72.525,-28.103 76.496,-34.06" style="fill:none;stroke:#171717;stroke-width:9.59px;"/><path d="M1217.2,149.584c-0.26,16.303 -16.36,172.24 -11.441,428.065c0.09,4.665 4.779,37.438 2.234,46.345" style="fill:none;stroke:#171717;stroke-width:9.59px;"/><path d="M1044.73,569.47c0.357,0.568 50.228,6.181 114.135,47.265c38.903,25.009 43.132,18.097 46.345,23.451" style="fill:none;stroke:#171717;stroke-width:9.59px;"/><path d="M1224.75,181.764c0.075,-0.059 -0.003,-0.013 78.73,-37.411c2.428,-1.153 18.571,-8.821 31.269,-12.284" style="fill:none;stroke:#171717;stroke-width:9.59px;"/><path d="M1333.63,133.744c-1.592,15.127 3.413,32.123 1.117,185.937c-1.877,125.798 7.659,214.597 5.584,312.13" style="fill:none;stroke:#171717;stroke-width:9.59px;"/><path d="M1208,592.167c0.883,-0.295 60.092,10.397 74.263,24.568c2.092,2.091 18.788,18.787 33.502,15.634c12.065,-2.585 13.349,-3.897 21.777,5.584" style="fill:none;stroke:#171717;stroke-width:9.59px;"/><path d="M1339.77,167.804c2.13,-4.258 64.57,-18.305 67.563,-20.101" style="fill:none;stroke:#171717;stroke-width:9.59px;"/><path d="M1354.35,611.673c-33.249,-11.101 15.587,8.258 54.107,17.904" style="fill:none;stroke:#171717;stroke-width:9.59px;"/><path d="M1407.71,148.49c-1.936,1.936 -4.255,83.705 -4.021,114.418c0.71,93.124 1.799,93.139 5.74,297.093c0.65,33.656 2.246,33.29 0.343,66.595c-0.334,5.854 0.335,0.671 0,0" style="fill:none;stroke:#171717;stroke-width:9.59px;"/><path d="M335.253,335.377l-45.167,-13.529l-30.767,-32.75l-22.066,-48.463l-5.687,54.012l6.55,29.456l14.518,29.926l-7.232,6.655l5.267,43.13l23.199,32.333c17.955,19.091 37.221,31.013 57.992,34.694c8.953,-9.403 8.308,-33.553 -0.249,-69.858c9.422,-19.597 10.535,-41.493 3.642,-65.606Z" style="fill:#e5f20d;"/><path d="M388.524,308.135c-10.931,-2.511 -20.389,-0.459 -28.144,6.878c7.914,32.322 21.549,54.999 36.869,74.836c0.765,-27.383 -0.764,-54.675 -8.725,-81.714Z" style="fill:#f20d0d;"/><path d="M397.39,406.235l-18.183,-8.641c-13.06,-37.379 -26.281,-65.824 -40.145,-58.725c5.422,28.381 2.813,48.884 -7.192,62.132c7.452,35.389 7.765,58.333 2.937,72.314l23.957,11.903c5.034,22.928 12.026,42.708 27.377,49.041l13.8,-4.539l-2.551,-123.485Z" style="fill:#0d28f2;"/><path d="M395.748,449.18l-19.314,16.347l-0.464,19.597l21.013,-11.77l-1.235,-24.174Z" style="fill:#fff;"/><path d="M371.311,404.791l-12.601,4.636l5.162,12.939l17.138,-3.347l-9.699,-14.228Z" style="fill:#fff;"/><g><clipPath id="_clip1"><path d="M392.868,212.542c1.056,23.106 1.446,23.084 1.446,46.205l0,311.215c-32.009,1.962 -64.019,3.925 -96.029,5.887c-75.903,4.654 -75.905,4.821 -94.25,4.667c-0.001,-125.059 -0.002,-250.117 -0.003,-375.175c21.797,-0.126 21.792,0.241 188.836,7.201Z"/></clipPath><g clip-path="url(#_clip1)"><g><g><path d="M235.225,238.041c-9.885,79.5 3.053,82.836 19.305,120.698c0.898,2.091 55.197,43.656 79.543,40.644" style="fill:none;stroke:#171717;stroke-width:9.59px;"/><path d="M236.426,236.766c-0.472,12.146 27.607,64.288 36.961,72.511c30.515,26.823 46.673,23.869 62.473,28.118" style="fill:none;stroke:#171717;stroke-width:9.59px;"/><path d="M334.666,336.376c0.228,-6.642 12.696,23.658 5.33,49.361c-0.341,1.188 -5.117,11.546 -5.327,11.856" style="fill:none;stroke:#171717;stroke-width:9.59px;"/><path d="M245.721,356.068c-0.151,5.105 0.152,13.427 0,18.535c-0.651,21.983 11.894,45.974 33.968,66.394c23.265,21.521 49.714,32.141 54.98,30.642" style="fill:none;stroke:#171717;stroke-width:9.59px;"/><path d="M331.075,403.825c-0.933,2.805 12.07,37.409 2.998,66.063" style="fill:none;stroke:#171717;stroke-width:9.59px;"/><path d="M449.275,353.611c21.378,3.029 21.593,2.427 38.994,-10c0.737,-0.526 10.247,-7.088 12.648,-17.961" style="fill:none;stroke:#171717;stroke-width:9.59px;"/><path d="M501.393,324.071c0.27,10.371 0.776,29.24 -0.457,38.262c-1.623,11.875 -4.855,15.86 -13.858,26.349c-5.545,6.459 -13.628,12.954 -21.937,14.308c-10.972,1.788 -13.153,9.773 -15.866,6.661" style="fill:none;stroke:#171717;stroke-width:9.59px;"/><path d="M447.444,351.892c-5.579,26.886 -1.626,55.105 2.236,58.449" style="fill:none;stroke:#171717;stroke-width:9.59px;"/><path d="M448.179,472.176c-0.712,0.887 0.456,0.204 9.458,-8.595c9.5,-9.285 9.631,-8.662 18.756,-19.651l1.433,-1.977c5.353,-7.848 12.592,-14.525 15.965,-34.548c3.301,-19.596 0.934,-24.845 2.133,-28.996" style="fill:none;stroke:#171717;stroke-width:9.59px;"/><path d="M451.694,409.385c-3.371,4.432 -7.578,42.739 -3.435,62.914" style="fill:none;stroke:#171717;stroke-width:9.59px;"/><path d="M337.676,329.763c-2.733,-9.224 8.598,-34.22 22.247,-12.109c7.773,-20.969 29.785,-5.611 30.462,-9.698c0.009,-0.05 3.107,-6.058 3.259,-6.193c0.819,-0.729 2.43,-3.118 2.633,-3.419c1.894,5.344 3.789,10.689 5.683,16.033c17.007,1.843 23.126,-3.778 26.391,23.665" style="fill:none;stroke:#171717;stroke-width:9.59px;"/><path d="M428.571,336.651c5.728,-4.936 16.883,-2.708 17.028,-2.628c0.24,0.132 3.152,1.497 3.195,4.152c0.038,2.299 -1.807,6.344 -2.784,11.036" style="fill:none;stroke:#171717;stroke-width:9.59px;"/><path d="M339.764,474.901c3.636,0.399 4.982,3.141 7.048,5.191c2.982,2.958 6.95,3.565 9.539,3.749c9.04,0.644 11.179,57.972 35.543,49.458c28.393,-9.922 30.654,-34.262 32.686,-38.814c1.545,-3.463 20.312,-19.88 21.225,-20.783" style="fill:none;stroke:#171717;stroke-width:9.59px;"/><path d="M411.73,418.002c1.003,-3.029 0.662,-4.219 2.371,-7.145c0.409,-0.702 2.498,-6.444 2.707,-7.019c7.809,2.329 8.012,2.931 15.044,6.012c-4.055,3.218 -4.612,8.716 -5.522,11.867c-0.906,3.137 -2.273,4.738 -5.576,4.382c-3.058,-0.33 -6.167,-3.593 -8.284,-7.006" style="fill:none;stroke:#171717;stroke-width:9.59px;"/><path d="M381.151,419.62c-0.852,-3.594 -5.552,-8.225 -9.716,-15.598c-5.524,1.976 -5.654,3.983 -11.738,4.246c-2.37,0.102 3.302,12.833 3.313,12.859c0.983,2.283 12.212,1.55 15.296,-0.868" style="fill:none;stroke:#171717;stroke-width:9.59px;"/><path d="M361.212,319.172c-3.296,-0.187 31.165,74.148 33.676,75.479c5.528,2.932 13.026,-23.146 22.674,-37.147c0.662,-0.961 4.445,-6.404 6.574,-11.096c1.625,-3.58 1.908,-6.194 3.332,-8.203" style="fill:none;stroke:#171717;stroke-width:9.59px;"/><path d="M397.062,344.457c0.101,0.45 -6.819,21.005 0.298,18.272c3.694,-1.418 0.465,-18.34 0,-19.169" style="fill:none;stroke:#171717;stroke-width:9.59px;"/><path d="M391.894,311.554c1.187,13.468 7.119,17.529 9.136,5.204" style="fill:none;stroke:#171717;stroke-width:9.59px;"/><path d="M340.178,338.364c3.315,-9.098 21.525,4.611 33.375,48.696c1.561,5.807 7.662,14.279 8.4,15.303c0.992,1.378 2.492,2.749 14.421,4.149c17.539,2.06 17.831,-22.238 21.875,-25.559c6.045,-4.962 5.95,-14.846 10.102,-20.208c0.257,-0.333 3.499,-4.809 10.363,-13.721c1.085,-1.41 5.591,0.501 6.473,-1.761" style="fill:none;stroke:#171717;stroke-width:9.59px;"/><path d="M377.45,465.549c-0.559,-1.302 21.901,-18.785 22.362,-18.488c8.797,5.663 17.911,10.785 18.208,9.475" style="fill:none;stroke:#171717;stroke-width:9.59px;"/><path d="M417.199,457.915c-0.004,0.343 0.008,-0.832 -0.046,-4.282c-0.022,1.156 -0.035,1.129 -0.05,2.622c-0.101,10.052 -0.147,10.164 1.432,19.569c-1.106,-1.354 -1.814,-5.341 -8.646,-3.715c-6.969,1.659 -7.294,0.582 -14.19,0.705c-8.878,8.523 -8.811,9.574 -20.554,14.844c0.319,-17.979 1.848,-18.223 1.848,-22.532" style="fill:none;stroke:#171717;stroke-width:9.59px;"/><path d="M393.247,480.154c-0.281,5.96 2.314,10.148 -0.602,33.925c-0.145,1.182 -1.423,11.604 -2.26,14.475" style="fill:none;stroke:#171717;stroke-width:9.59px;"/><path d="M401.759,479.031c0.627,1.905 -0.027,35.577 4.333,41.413" style="fill:none;stroke:#171717;stroke-width:9.59px;"/></g></g></g></g><g><clipPath id="_clip2"><path d="M1193.68,187.046c-0.009,4.47 -0.123,326.568 0.064,423.922c-17.596,0.371 -21.478,-0.996 -48.41,-5.8c-29.291,-5.225 -61.786,-10.754 -95.925,-16.081c-3.351,-21.958 -6.702,-43.915 -10.052,-65.872c-0.538,-4.355 -0.413,-4.369 -0.413,-8.806l0,-261.999c0.276,-6.307 0.569,-6.228 1.499,-12.385c0.745,-4.929 1.49,-9.858 2.234,-14.787c38.439,-10.505 77.127,-21.444 112.313,-31.553c16.681,-4.792 22.472,-7.235 38.69,-6.639Z"/></clipPath><g clip-path="url(#_clip2)"><g><g><g><path d="M1165.57,352.669l0,57.14c-73.536,-3.088 -147.072,-6.177 -220.608,-9.265l0,-33.603c73.536,-4.757 147.072,-9.515 220.608,-14.272Z" style="fill:#0d79f2;"/><path d="M951.88,282.166c-10.189,-1.862 -6.591,16.125 -7.373,52.996c-0.292,13.771 -0.403,102.047 -0.435,103.046c-0.04,1.261 1.456,47.38 1.161,50.045" style="fill:none;stroke:#171717;stroke-width:10.42px;"/><path d="M945.848,517.384c0.056,-0.487 33.978,5.013 38.726,3.314c3.088,-1.104 23.155,18.635 47.899,19.138c14.823,0.301 15.122,-2.762 29.277,5.33c7.215,4.125 63.932,10.122 76.636,16.695c7.957,4.116 17.706,6.222 28.176,6.162" style="fill:none;stroke:#171717;stroke-width:10.42px;"/><path d="M951.223,290.227c6.007,-2.029 29.555,-10.146 137.43,-43.126c33.759,-10.321 82.1,-25.204 81.843,-25.463" style="fill:none;stroke:#171717;stroke-width:10.42px;"/><path d="M949.689,321.238c0.559,-0.185 35.501,-8.09 96.614,-22.023c58.917,-13.432 115.38,-26.389 118.173,-26.806" style="fill:none;stroke:#171717;stroke-width:10.42px;"/><path d="M950.154,369.25c-1.997,4.754 2.879,1.002 12.168,-0.415c1.949,-0.297 18.012,-0.569 34.894,-2.241c5.222,-0.517 94.476,-15.733 133.317,-16.114c9.923,-0.097 36.163,4.637 32.947,0.627" style="fill:#0d79f2;stroke:#0d79f2;stroke-width:10.42px;"/><path d="M947.696,403.117c2.32,-2.377 23.954,3.144 37.38,2.179c39.165,-2.813 149.353,5.104 150.106,5.124c5.587,0.152 11.175,0.304 16.762,0.457c0.87,0.024 10.737,0.306 10.873,0.372" style="fill:#0d79f2;stroke:#0d79f2;stroke-width:10.42px;"/><path d="M962.049,291.117c1.628,-1.315 1.935,1.656 23.224,-6.589c29.238,-11.324 30.049,-10.009 36.902,-14.203" style="fill:none;stroke:#171717;stroke-width:10.42px;"/><path d="M962.68,335.372c34.062,-4.458 34.933,-5.581 74.635,-13.652" style="fill:none;stroke:#171717;stroke-width:10.42px;"/><path d="M1170.5,226.498c0.405,11.054 -2.408,175.825 -2.35,180.152c2.06,154.312 0.684,156.538 2.03,170.955" style="fill:none;stroke:#171717;stroke-width:10.42px;"/><path d="M1125.02,308c8.68,-5.719 9.505,-2.049 18.659,-4.25" style="fill:none;stroke:#171717;stroke-width:10.42px;"/><path d="M962.544,355.073c0.646,-1.964 60.061,-8.545 74.532,-11.356c16.63,-3.23 63.057,-6.033 63.713,-8.748" style="fill:none;stroke:#171717;stroke-width:10.42px;"/><path d="M960.865,377.258c4.383,-1.805 33.542,-0.873 44.134,-3.426" style="fill:none;stroke:#fff;stroke-width:10.42px;"/><path d="M1139.25,383.552c12.17,-0.609 12.277,0.449 15.684,-1.832" style="fill:none;stroke:#fff;stroke-width:10.42px;"/><path d="M960.718,407.86c36.094,3.437 36.462,1.699 37.328,1.717c1.162,0.025 14.713,0.315 14.529,0.566" style="fill:none;stroke:#171717;stroke-width:10.42px;"/><path d="M1123.8,430.887c11.152,2.545 11.786,1.874 29.508,2.603" style="fill:none;stroke:#171717;stroke-width:10.42px;"/><path d="M963.179,427.835c63.569,2.819 64.03,3.47 64.497,3.686" style="fill:none;stroke:#171717;stroke-width:10.42px;"/><path d="M1107.48,456.576c5.768,-1.99 48.87,9.579 46.81,6.567" style="fill:none;stroke:#171717;stroke-width:10.42px;"/><path d="M962.188,449.186c1.923,0.127 2.741,1.134 28.48,4.751c7.071,0.993 7.612,-1.909 14.972,0.923" style="fill:none;stroke:#171717;stroke-width:10.42px;"/><path d="M961.685,480.293c-0.719,-2.633 43.705,9.722 46.103,9.227" style="fill:none;stroke:#171717;stroke-width:10.42px;"/><path d="M1125.32,537.088c2.027,0.49 2.04,0.231 25.399,5.126" style="fill:none;stroke:#171717;stroke-width:10.42px;"/><path d="M1069.97,378.924l-0.725,-3.83c0.448,4.056 1.969,14.601 2.113,16.174" style="fill:none;stroke:#fff;stroke-width:10.42px;"/><path d="M1071.85,372.189c1.98,0.378 2.512,-0.047 4.314,2.348c2.728,3.628 3.519,2.988 6.775,4.249c0.305,0.664 1.045,3.718 1.37,4.43c0.047,0.102 0.061,0.053 0.825,0.736" style="fill:none;stroke:#fff;stroke-width:10.42px;"/><path d="M1074.05,392.3c4.878,-3.734 7.937,-5.773 8.334,-6.849c0.855,-2.317 1.506,-1.379 1.917,-1.493" style="fill:none;stroke:#fff;stroke-width:10.42px;"/><path d="M1079.12,391.338c2.621,2.866 5.132,7.117 6.555,11.977c0.244,0.83 1.36,2.94 1.487,3.18l-0.383,-0.528" style="fill:none;stroke:#fff;stroke-width:10.42px;"/></g></g></g></g></g><g><rect x="394.678" y="72.086" width="649.764" height="668.43" style="fill:#171717;"/><ellipse cx="729.158" cy="402.397" rx="227.422" ry="229.191" style="fill:#f20d0d;"/><path d="M397.292,72.034c-13.606,-6.049 2.242,9.294 -7.308,185.978c-0.79,14.605 4.228,14.144 9.492,182.587c1.099,35.167 -10.273,284.882 -1.675,302.079" style="fill:none;stroke:#171717;stroke-width:9.59px;"/><path d="M395.585,744.031c2.052,1.221 1.797,1.404 3.891,0.88c45.549,-11.387 48.772,6.001 375.784,-3.908c249.554,-7.562 279.802,-2.219 259.643,-7.259" style="fill:none;stroke:#171717;stroke-width:9.59px;"/><path d="M393.526,76.34c0.17,0.093 4.799,-5.876 8.742,-4.824c38.089,10.157 47.493,-4.579 61.421,-3.351c59.992,5.294 264.871,-2.351 292.028,0.559c93.825,10.053 94.877,-5.299 180.912,5.025c33.403,4.009 56.768,-7.276 112.233,-2.233" style="fill:none;stroke:#171717;stroke-width:9.59px;"/><path d="M1052.2,77.559c-5.058,-4.228 -3.932,2.932 -6.133,82.179c-2.33,83.878 -9.726,83.364 -4.467,167.512c2.472,39.553 -2.132,410.859 -2.233,410.961" style="fill:none;stroke:#171717;stroke-width:9.59px;"/></g><g><path d="M730.287,429.784c1.765,-3.849 5.283,-0.632 36.128,-38.675c13.562,-16.726 15.851,-15.048 18.323,-21.846" style="fill:none;stroke:#171717;stroke-width:9.59px;"/><path d="M874.546,443.789c0.477,-8.49 25.974,-35.917 26.472,-37.411" style="fill:none;stroke:#171717;stroke-width:9.59px;"/><path d="M586.579,393.305c-5.647,-2.331 10.833,4.471 57.09,50.728" style="fill:none;stroke:#171717;stroke-width:9.59px;"/><path d="M644.621,449.119c-0.497,37.278 3.765,119.263 -0.952,120.206c-5.509,1.102 -5.884,10.405 -5.884,4.846" style="fill:none;stroke:#171717;stroke-width:9.59px;"/><path d="M640.208,575.902c-4.061,2.03 10.403,1.586 19.728,15.575c1.162,1.743 9.518,14.277 18.344,18.69" style="fill:none;stroke:#171717;stroke-width:9.59px;"/><path d="M679.083,612.833c0.707,-8.001 7.334,-3.247 25.848,-27.932" style="fill:none;stroke:#171717;stroke-width:9.59px;"/><path d="M703.893,579.363c-6.734,-5.387 -3.097,-65.565 -0.346,-87.567" style="fill:none;stroke:#171717;stroke-width:9.59px;"/><path d="M703.893,490.412c0.651,0.868 6.615,8.821 10.729,8.306" style="fill:none;stroke:#171717;stroke-width:9.59px;"/><path d="M716.007,498.718c8.631,-11.509 30.514,-31.61 55.032,-62.992c3.708,-4.747 24.795,-25.834 26.996,-28.035" style="fill:none;stroke:#171717;stroke-width:9.59px;"/><path d="M799.766,409.421c6.23,0 1.771,73.567 1.384,79.952c-2.448,40.405 1.639,57.893 -4.499,64.031" style="fill:none;stroke:#171717;stroke-width:9.59px;"/><path d="M796.829,554.816c-1.149,-2.412 3.598,7.561 23.011,24.201c6.19,5.305 8.194,1.963 13.845,7.614" style="fill:none;stroke:#171717;stroke-width:9.59px;"/><path d="M832.147,587.703c2.38,-2.622 26.891,-22.704 28.881,-26.684" style="fill:none;stroke:#171717;stroke-width:9.59px;"/><path d="M859.643,464.799c4.262,68.191 -0.152,95.278 1.731,96.22" style="fill:none;stroke:#171717;stroke-width:9.59px;"/><path d="M860.682,463.069c-9.732,-9.732 2.841,1.878 9.345,10.383c2.092,-2.546 1.053,-3.354 31.496,-31.15c3.654,-3.336 2.646,-4.031 6.23,-7.614" style="fill:none;stroke:#171717;stroke-width:9.59px;"/><path d="M905.33,403.884c0.999,-1.997 -0.058,1.294 3.461,27.689" style="fill:none;stroke:#171717;stroke-width:9.59px;"/><path d="M675.511,200.715c-1.28,3.843 215.939,186.777 232.588,200.4" style="fill:none;stroke:#171717;stroke-width:9.59px;"/><path d="M641.312,241.677c3.943,-10.313 28.333,-40.797 30.738,-42" style="fill:none;stroke:#171717;stroke-width:9.59px;"/><path d="M641.531,242.155c-6.494,2.923 0.116,34.777 -0.285,36.782" style="fill:none;stroke:#171717;stroke-width:9.59px;"/><path d="M639.516,275.476c5.161,12.043 35.246,34.207 47.071,46.033" style="fill:none;stroke:#171717;stroke-width:9.59px;"/><path d="M687.782,321.224c0.036,0.053 -2.688,57.26 -2.926,62.239" style="fill:none;stroke:#171717;stroke-width:9.59px;"/><path d="M622.318,329.093c4.481,3.889 45.662,39.629 54.578,50.217c5.597,6.647 11.703,10.177 6.576,7.614" style="fill:none;stroke:#171717;stroke-width:9.59px;"/><path d="M826.763,441.956c3.504,9.638 0.373,39.742 1.038,55.032c0.544,12.509 -0.881,59.547 -1.038,64.723" style="fill:none;stroke:#171717;stroke-width:9.59px;"/><path d="M813.052,427.891c-0.795,7.481 -2.085,105.552 -2.903,125.167" style="fill:none;stroke:#171717;stroke-width:9.59px;"/><path d="M668.57,469.326c-2.934,2.862 4.25,3.688 1.75,51.198c-0.822,15.612 -0.563,63.684 -1.731,63.684" style="fill:none;stroke:#171717;stroke-width:9.59px;"/><path d="M656.041,456.761c-1.647,95.477 -1.269,106.43 -0.95,115.679" style="fill:none;stroke:#171717;stroke-width:9.59px;"/><path d="M710.724,342.515c-0.432,15.418 0.536,33.479 -0.947,52.024" style="fill:none;stroke:#171717;stroke-width:9.59px;"/><path d="M695.894,333.097c-1.962,-1.06 0.73,1.24 0.73,27.869c0,1.717 0,22.151 -0.692,21.459" style="fill:none;stroke:#171717;stroke-width:9.59px;"/><path d="M696.624,267.861c0.346,3.807 0.96,11.782 1.039,12.806" style="fill:none;stroke:#171717;stroke-width:9.59px;"/><path d="M711.58,277.925c-0.003,0.071 -1.532,3.887 0.273,13.818" style="fill:none;stroke:#171717;stroke-width:9.59px;"/><path d="M825.032,376.887c-0.723,4.338 -0.257,4.1 0.346,13.152" style="fill:none;stroke:#171717;stroke-width:9.59px;"/><path d="M812.572,366.157c-0.992,-0.496 -2.462,0.441 0.692,13.845" style="fill:none;stroke:#171717;stroke-width:9.59px;"/><path d="M733.766,287.381c0.648,-0.373 56.298,46.002 61.154,50.049c0.813,0.677 8.01,6.675 9.345,9.345" style="fill:none;stroke:#171717;stroke-width:9.59px;"/><path d="M624.287,370.311c2.019,1.586 36.406,34.113 50.186,41.533c2.806,1.511 11.999,6.461 30.804,25.266c3.937,3.937 4.891,2.859 7.268,7.615" style="fill:none;stroke:#171717;stroke-width:9.59px;"/><path d="M845.482,563.264l0.317,7.1l0.692,-8.999c-0.234,4.44 -0.725,4.301 0,8.653" style="fill:none;stroke:#171717;stroke-width:9.59px;"/><path d="M668.762,180.245c-4.455,1.188 -23.182,2.166 -50.8,19.921c-9.526,6.124 -13.002,1.249 -52.461,38.515c-13.824,13.057 -64.806,84.179 -63.749,144.432c0.41,23.351 -2.643,150.067 107.245,219.47" style="fill:none;stroke:#f20d0d;stroke-width:9.59px;"/><path d="M667.766,179.249c45.644,-2.174 119.188,-11.585 172.654,22.909c7.605,4.907 16.354,2.358 26.23,15.938c0.843,1.16 5.328,1.676 6.64,2.988" style="fill:none;stroke:#f20d0d;stroke-width:9.59px;"/><path d="M607.763,600.702c50.275,31.276 149.669,31.314 151.31,30.767c20.535,-6.845 40.398,-4.346 46.484,-11.953" style="fill:none;stroke:#f20d0d;stroke-width:9.59px;"/><path d="M872.838,220.095c13.231,23.153 67.565,68.737 73.827,112.568c22.208,155.457 -23.984,178.421 -30.7,192.973c-31.522,68.296 -127.455,97.681 -126.456,98.68" style="fill:none;stroke:#f20d0d;stroke-width:9.59px;"/><path d="M620.205,327.172c-1.556,2.014 -27.806,33.328 -30.064,37.092c-5.935,9.892 -2.718,11.883 -3.905,28.503" style="fill:none;stroke:#171717;stroke-width:9.59px;"/></g><path d="M371.93,353.86c-0.174,0.789 -0.369,1.676 -0.786,10.063" style="fill:none;stroke:#171717;stroke-width:9.59px;"/></svg>