<svg width="460" height="440" viewBox="0 0 460 440" fill="none" xmlns="http://www.w3.org/2000/svg">
<g clip-path="url(#clip0_656_12411)">
<rect width="460" height="440" rx="8" fill="white"/>
<path d="M45.352 67.24C44.888 67.24 44.328 67.192 43.672 67.096C43.016 67 42.296 66.816 41.512 66.544V64.336C41.768 64.448 42.064 64.552 42.4 64.648C42.736 64.744 43.08 64.832 43.432 64.912C43.784 64.976 44.128 65.032 44.464 65.08C44.8 65.112 45.112 65.128 45.4 65.128C45.944 65.128 46.432 65.056 46.864 64.912C47.296 64.752 47.656 64.552 47.944 64.312C48.248 64.056 48.472 63.768 48.616 63.448C48.776 63.112 48.856 62.768 48.856 62.416C48.856 62.032 48.76 61.688 48.568 61.384C48.392 61.08 48.152 60.808 47.848 60.568C47.56 60.312 47.216 60.08 46.816 59.872C46.432 59.664 46.024 59.456 45.592 59.248C45.08 59.008 44.568 58.752 44.056 58.48C43.56 58.192 43.104 57.864 42.688 57.496C42.288 57.128 41.96 56.704 41.704 56.224C41.448 55.744 41.32 55.168 41.32 54.496C41.32 53.84 41.44 53.232 41.68 52.672C41.92 52.112 42.272 51.632 42.736 51.232C43.216 50.832 43.808 50.52 44.512 50.296C45.216 50.072 46.032 49.96 46.96 49.96C47.872 49.96 48.64 50.04 49.264 50.2C49.888 50.344 50.336 50.464 50.608 50.56V52.768C49.936 52.48 49.264 52.296 48.592 52.216C47.92 52.12 47.376 52.072 46.96 52.072C45.84 52.072 45.04 52.28 44.56 52.696C44.096 53.112 43.864 53.608 43.864 54.184C43.864 54.552 43.944 54.88 44.104 55.168C44.28 55.44 44.512 55.696 44.8 55.936C45.088 56.16 45.416 56.376 45.784 56.584C46.152 56.776 46.544 56.968 46.96 57.16C47.488 57.4 48.016 57.664 48.544 57.952C49.072 58.24 49.544 58.584 49.96 58.984C50.392 59.368 50.736 59.832 50.992 60.376C51.264 60.92 51.4 61.568 51.4 62.32C51.4 63.04 51.272 63.704 51.016 64.312C50.76 64.904 50.376 65.416 49.864 65.848C49.352 66.28 48.72 66.624 47.968 66.88C47.216 67.12 46.344 67.24 45.352 67.24ZM56.2306 61.384C56.3586 62.648 56.7906 63.624 57.5266 64.312C58.2626 64.984 59.2546 65.32 60.5026 65.32C61.2386 65.32 61.9586 65.232 62.6626 65.056C63.3826 64.864 63.9746 64.632 64.4386 64.36V66.568C64.0546 66.696 63.5266 66.832 62.8546 66.976C62.1826 67.12 61.3506 67.192 60.3586 67.192C58.2786 67.192 56.6786 66.616 55.5586 65.464C54.4546 64.312 53.9026 62.712 53.9026 60.664C53.9026 59.736 54.0466 58.896 54.3346 58.144C54.6386 57.392 55.0466 56.752 55.5586 56.224C56.0866 55.696 56.7026 55.288 57.4066 55C58.1106 54.712 58.8706 54.568 59.6866 54.568C61.4306 54.568 62.7986 55.08 63.7906 56.104C64.7826 57.128 65.2786 58.68 65.2786 60.76V61.384H56.2306ZM59.6626 56.392C58.7186 56.392 57.9426 56.696 57.3346 57.304C56.7426 57.896 56.3746 58.696 56.2306 59.704H62.8786C62.8786 58.648 62.5746 57.832 61.9666 57.256C61.3586 56.68 60.5906 56.392 59.6626 56.392ZM68.8833 48.712H71.1393V67H68.8833V48.712ZM76.9962 61.384C77.1242 62.648 77.5562 63.624 78.2922 64.312C79.0282 64.984 80.0202 65.32 81.2682 65.32C82.0042 65.32 82.7242 65.232 83.4282 65.056C84.1482 64.864 84.7402 64.632 85.2042 64.36V66.568C84.8202 66.696 84.2922 66.832 83.6202 66.976C82.9482 67.12 82.1162 67.192 81.1242 67.192C79.0442 67.192 77.4442 66.616 76.3242 65.464C75.2202 64.312 74.6682 62.712 74.6682 60.664C74.6682 59.736 74.8122 58.896 75.1002 58.144C75.4042 57.392 75.8122 56.752 76.3242 56.224C76.8522 55.696 77.4682 55.288 78.1722 55C78.8762 54.712 79.6362 54.568 80.4522 54.568C82.1962 54.568 83.5642 55.08 84.5562 56.104C85.5482 57.128 86.0442 58.68 86.0442 60.76V61.384H76.9962ZM80.4282 56.392C79.4842 56.392 78.7082 56.696 78.1002 57.304C77.5082 57.896 77.1402 58.696 76.9962 59.704H83.6442C83.6442 58.648 83.3402 57.832 82.7322 57.256C82.1242 56.68 81.3562 56.392 80.4282 56.392ZM94.5929 67.192C93.6489 67.192 92.7929 67.04 92.0249 66.736C91.2729 66.432 90.6329 66.008 90.1049 65.464C89.5769 64.904 89.1689 64.24 88.8809 63.472C88.6089 62.688 88.4729 61.824 88.4729 60.88C88.4729 59.936 88.6169 59.08 88.9049 58.312C89.1929 57.528 89.6009 56.864 90.1289 56.32C90.6729 55.76 91.3209 55.328 92.0729 55.024C92.8249 54.72 93.6729 54.568 94.6169 54.568C95.0969 54.568 95.5209 54.592 95.8889 54.64C96.2729 54.688 96.6009 54.744 96.8729 54.808C97.1769 54.872 97.4409 54.952 97.6649 55.048V56.992C97.4249 56.88 97.1609 56.784 96.8729 56.704C96.6169 56.624 96.3209 56.552 95.9849 56.488C95.6489 56.424 95.2729 56.392 94.8569 56.392C93.5769 56.392 92.5929 56.784 91.9049 57.568C91.2169 58.336 90.8729 59.44 90.8729 60.88C90.8729 62.32 91.2169 63.432 91.9049 64.216C92.5929 64.984 93.5689 65.368 94.8329 65.368C95.2489 65.368 95.6249 65.336 95.9609 65.272C96.3129 65.208 96.6169 65.136 96.8729 65.056C97.1609 64.976 97.4249 64.872 97.6649 64.744V66.712C97.4249 66.808 97.1529 66.888 96.8489 66.952C96.5769 67.016 96.2489 67.072 95.8649 67.12C95.4809 67.168 95.0569 67.192 94.5929 67.192ZM107.081 56.584H104.057V63.184C104.057 63.92 104.241 64.432 104.609 64.72C104.993 64.992 105.441 65.128 105.953 65.128C106.337 65.128 106.745 65.064 107.177 64.936V66.976C106.873 67.056 106.585 67.112 106.313 67.144C106.041 67.176 105.793 67.192 105.569 67.192C104.353 67.192 103.425 66.864 102.785 66.208C102.145 65.536 101.825 64.6 101.825 63.4V56.584H99.5933V54.76H101.825V51.712L104.057 50.896V54.76H107.081V56.584ZM120.89 67.192C119.946 67.192 119.09 67.04 118.322 66.736C117.57 66.432 116.93 66.008 116.402 65.464C115.874 64.904 115.466 64.24 115.178 63.472C114.906 62.688 114.77 61.824 114.77 60.88C114.77 59.936 114.914 59.08 115.202 58.312C115.49 57.528 115.898 56.864 116.426 56.32C116.97 55.76 117.618 55.328 118.37 55.024C119.122 54.72 119.97 54.568 120.914 54.568C121.394 54.568 121.818 54.592 122.186 54.64C122.57 54.688 122.898 54.744 123.17 54.808C123.474 54.872 123.738 54.952 123.962 55.048V56.992C123.722 56.88 123.458 56.784 123.17 56.704C122.914 56.624 122.618 56.552 122.282 56.488C121.946 56.424 121.57 56.392 121.154 56.392C119.874 56.392 118.89 56.784 118.202 57.568C117.514 58.336 117.17 59.44 117.17 60.88C117.17 62.32 117.514 63.432 118.202 64.216C118.89 64.984 119.866 65.368 121.13 65.368C121.546 65.368 121.922 65.336 122.258 65.272C122.61 65.208 122.914 65.136 123.17 65.056C123.458 64.976 123.722 64.872 123.962 64.744V66.712C123.722 66.808 123.45 66.888 123.146 66.952C122.874 67.016 122.546 67.072 122.162 67.12C121.778 67.168 121.354 67.192 120.89 67.192ZM132.565 67.192C131.637 67.192 130.789 67.04 130.021 66.736C129.253 66.432 128.589 66 128.029 65.44C127.485 64.88 127.061 64.216 126.757 63.448C126.453 62.68 126.301 61.824 126.301 60.88C126.301 59.952 126.453 59.104 126.757 58.336C127.061 57.552 127.485 56.88 128.029 56.32C128.589 55.76 129.253 55.328 130.021 55.024C130.789 54.72 131.637 54.568 132.565 54.568C133.493 54.568 134.341 54.72 135.109 55.024C135.877 55.328 136.533 55.76 137.077 56.32C137.637 56.88 138.069 57.552 138.373 58.336C138.677 59.104 138.829 59.952 138.829 60.88C138.829 61.824 138.677 62.68 138.373 63.448C138.069 64.216 137.637 64.88 137.077 65.44C136.533 66 135.877 66.432 135.109 66.736C134.341 67.04 133.493 67.192 132.565 67.192ZM132.565 65.368C133.093 65.368 133.589 65.264 134.053 65.056C134.533 64.848 134.941 64.552 135.277 64.168C135.629 63.768 135.909 63.296 136.117 62.752C136.325 62.192 136.429 61.568 136.429 60.88C136.429 60.192 136.325 59.576 136.117 59.032C135.909 58.472 135.629 58 135.277 57.616C134.925 57.216 134.517 56.912 134.053 56.704C133.589 56.496 133.093 56.392 132.565 56.392C132.037 56.392 131.533 56.496 131.053 56.704C130.589 56.912 130.181 57.216 129.829 57.616C129.493 58 129.221 58.472 129.013 59.032C128.805 59.576 128.701 60.192 128.701 60.88C128.701 61.568 128.805 62.192 129.013 62.752C129.221 63.296 129.493 63.768 129.829 64.168C130.181 64.552 130.589 64.848 131.053 65.056C131.533 65.264 132.037 65.368 132.565 65.368ZM142 54.76H144.112V56.536H144.16C144.576 55.864 145.136 55.368 145.84 55.048C146.56 54.728 147.28 54.568 148 54.568C148.864 54.568 149.592 54.776 150.184 55.192C150.792 55.608 151.248 56.192 151.552 56.944C151.968 56.16 152.52 55.568 153.208 55.168C153.896 54.768 154.696 54.568 155.608 54.568C156.28 54.568 156.864 54.688 157.36 54.928C157.872 55.152 158.296 55.472 158.632 55.888C158.968 56.288 159.216 56.768 159.376 57.328C159.552 57.888 159.64 58.496 159.64 59.152V67H157.384V59.704C157.384 58.744 157.216 57.952 156.88 57.328C156.544 56.704 155.952 56.392 155.104 56.392C154.56 56.392 154.088 56.52 153.688 56.776C153.288 57.032 152.96 57.368 152.704 57.784C152.448 58.2 152.256 58.672 152.128 59.2C152 59.728 151.936 60.272 151.936 60.832V67H149.704V59.704C149.704 58.712 149.528 57.912 149.176 57.304C148.824 56.696 148.24 56.392 147.424 56.392C146.912 56.392 146.456 56.512 146.056 56.752C145.672 56.976 145.344 57.288 145.072 57.688C144.8 58.088 144.592 58.56 144.448 59.104C144.32 59.648 144.256 60.224 144.256 60.832V67H142V54.76ZM165.466 65.392V72.376H163.21V54.76H165.37V56.512H165.418C165.738 56.08 166.082 55.736 166.45 55.48C166.834 55.224 167.21 55.032 167.578 54.904C167.946 54.76 168.298 54.672 168.634 54.64C168.97 54.592 169.258 54.568 169.498 54.568C170.394 54.568 171.194 54.728 171.898 55.048C172.602 55.352 173.194 55.784 173.674 56.344C174.154 56.904 174.522 57.568 174.778 58.336C175.034 59.088 175.162 59.904 175.162 60.784C175.162 61.648 175.034 62.472 174.778 63.256C174.538 64.024 174.178 64.704 173.698 65.296C173.218 65.872 172.634 66.336 171.946 66.688C171.258 67.024 170.482 67.192 169.618 67.192C168.626 67.192 167.786 67.008 167.098 66.64C166.426 66.256 165.914 65.84 165.562 65.392H165.466ZM169.09 65.368C170.21 65.368 171.098 64.952 171.754 64.12C172.426 63.272 172.762 62.136 172.762 60.712C172.762 59.4 172.434 58.352 171.778 57.568C171.138 56.784 170.266 56.392 169.162 56.392C168.026 56.392 167.122 56.8 166.45 57.616C165.794 58.432 165.466 59.528 165.466 60.904C165.466 62.264 165.794 63.352 166.45 64.168C167.106 64.968 167.986 65.368 169.09 65.368ZM181.378 67.192C180.098 67.192 179.082 66.872 178.33 66.232C177.578 65.576 177.202 64.672 177.202 63.52C177.202 62.176 177.714 61.152 178.738 60.448C179.778 59.728 181.37 59.368 183.514 59.368H185.77V58.96C185.77 58.08 185.466 57.44 184.858 57.04C184.25 56.64 183.442 56.44 182.434 56.44C181.778 56.44 181.114 56.52 180.442 56.68C179.77 56.824 179.066 57.096 178.33 57.496V55.384C178.938 55.112 179.634 54.912 180.418 54.784C181.202 54.64 181.97 54.568 182.722 54.568C184.402 54.568 185.706 54.952 186.634 55.72C187.562 56.472 188.026 57.696 188.026 59.392V67H185.722V65.128H185.674C185.162 65.88 184.506 66.416 183.706 66.736C182.922 67.04 182.146 67.192 181.378 67.192ZM181.93 65.272C182.49 65.272 183.002 65.184 183.466 65.008C183.946 64.832 184.354 64.592 184.69 64.288C185.026 63.968 185.29 63.6 185.482 63.184C185.674 62.768 185.77 62.328 185.77 61.864V61.096H183.61C182.858 61.096 182.226 61.152 181.714 61.264C181.218 61.376 180.81 61.536 180.49 61.744C180.17 61.952 179.938 62.192 179.794 62.464C179.666 62.736 179.602 63.04 179.602 63.376C179.602 63.984 179.81 64.456 180.226 64.792C180.642 65.112 181.21 65.272 181.93 65.272ZM191.617 54.76H193.873V56.512H193.921C194.385 55.856 194.961 55.368 195.649 55.048C196.353 54.728 197.137 54.568 198.001 54.568C199.441 54.568 200.577 55 201.409 55.864C202.241 56.712 202.657 58.024 202.657 59.8V67H200.401V60.52C200.401 59.736 200.329 59.08 200.185 58.552C200.057 58.008 199.865 57.584 199.609 57.28C199.369 56.96 199.065 56.736 198.697 56.608C198.345 56.464 197.953 56.392 197.521 56.392C196.417 56.392 195.529 56.792 194.857 57.592C194.201 58.376 193.873 59.592 193.873 61.24V67H191.617V54.76ZM207.06 72.376C206.9 72.376 206.756 72.368 206.628 72.352C206.5 72.352 206.396 72.344 206.316 72.328C206.204 72.312 206.108 72.288 206.028 72.256V70.408C206.108 70.424 206.196 70.44 206.292 70.456C206.372 70.472 206.46 70.48 206.556 70.48C206.668 70.48 206.788 70.48 206.916 70.48C207.604 70.48 208.108 70.288 208.428 69.904C208.764 69.52 209.068 68.952 209.34 68.2L209.556 67.6L204.54 54.76H207.012L210.732 64.792H210.9L214.692 54.76H216.972L211.884 67.48C211.516 68.376 211.18 69.136 210.876 69.76C210.588 70.384 210.268 70.888 209.916 71.272C209.564 71.656 209.164 71.936 208.716 72.112C208.268 72.288 207.716 72.376 207.06 72.376Z" fill="#22242A"/>
<rect width="408" height="40" transform="translate(24 140)" fill="white"/>
<path d="M46 166.16C45.1787 166.16 44.4427 166.016 43.792 165.728C43.152 165.44 42.608 165.04 42.16 164.528C41.712 164.016 41.3707 163.408 41.136 162.704C40.9013 162 40.784 161.232 40.784 160.4C40.784 159.557 40.9013 158.784 41.136 158.08C41.3813 157.376 41.728 156.768 42.176 156.256C42.624 155.744 43.168 155.349 43.808 155.072C44.4587 154.784 45.1893 154.64 46 154.64C46.8213 154.64 47.552 154.784 48.192 155.072C48.8427 155.36 49.392 155.76 49.84 156.272C50.288 156.784 50.6293 157.392 50.864 158.096C51.0987 158.8 51.216 159.568 51.216 160.4C51.216 161.243 51.0933 162.016 50.848 162.72C50.6133 163.424 50.272 164.032 49.824 164.544C49.376 165.056 48.8267 165.456 48.176 165.744C47.536 166.021 46.8107 166.16 46 166.16ZM46 164.752C46.576 164.752 47.0827 164.64 47.52 164.416C47.968 164.181 48.3413 163.867 48.64 163.472C48.9387 163.067 49.1627 162.603 49.312 162.08C49.472 161.557 49.552 160.997 49.552 160.4C49.552 159.792 49.472 159.227 49.312 158.704C49.152 158.171 48.9173 157.707 48.608 157.312C48.3093 156.917 47.9413 156.608 47.504 156.384C47.0667 156.16 46.5653 156.048 46 156.048C45.424 156.048 44.9173 156.165 44.48 156.4C44.0427 156.624 43.6693 156.933 43.36 157.328C43.0613 157.723 42.832 158.187 42.672 158.72C42.5227 159.243 42.448 159.803 42.448 160.4C42.448 161.008 42.5227 161.579 42.672 162.112C42.832 162.635 43.0613 163.093 43.36 163.488C43.6693 163.872 44.0427 164.181 44.48 164.416C44.9173 164.64 45.424 164.752 46 164.752ZM53.1718 157.84H54.5798V159.168H54.6118C54.8784 158.645 55.1984 158.272 55.5718 158.048C55.9558 157.824 56.4144 157.712 56.9478 157.712C57.0971 157.712 57.2464 157.723 57.3958 157.744C57.5558 157.755 57.7211 157.771 57.8918 157.792V159.104C57.7318 159.083 57.5771 159.067 57.4278 159.056C57.2784 159.035 57.1344 159.024 56.9958 159.024C56.1744 159.024 55.5824 159.307 55.2198 159.872C54.8571 160.437 54.6758 161.264 54.6758 162.352V166H53.1718V157.84ZM59.8961 157.84H61.4001V166H59.8961V157.84ZM59.8161 154.48H61.5121V156.176H59.8161V154.48ZM65.3048 162.256C65.3901 163.099 65.6781 163.749 66.1688 164.208C66.6594 164.656 67.3208 164.88 68.1528 164.88C68.6434 164.88 69.1234 164.821 69.5928 164.704C70.0728 164.576 70.4674 164.421 70.7768 164.24V165.712C70.5208 165.797 70.1688 165.888 69.7208 165.984C69.2728 166.08 68.7181 166.128 68.0568 166.128C66.6701 166.128 65.6034 165.744 64.8568 164.976C64.1208 164.208 63.7528 163.141 63.7528 161.776C63.7528 161.157 63.8488 160.597 64.0408 160.096C64.2434 159.595 64.5154 159.168 64.8568 158.816C65.2088 158.464 65.6194 158.192 66.0888 158C66.5581 157.808 67.0648 157.712 67.6088 157.712C68.7714 157.712 69.6834 158.053 70.3448 158.736C71.0061 159.419 71.3368 160.453 71.3368 161.84V162.256H65.3048ZM67.5928 158.928C66.9634 158.928 66.4461 159.131 66.0408 159.536C65.6461 159.931 65.4008 160.464 65.3048 161.136H69.7368C69.7368 160.432 69.5341 159.888 69.1288 159.504C68.7234 159.12 68.2114 158.928 67.5928 158.928ZM73.4999 157.84H75.0039V159.008H75.0359C75.3452 158.571 75.7292 158.245 76.1879 158.032C76.6572 157.819 77.1799 157.712 77.7559 157.712C78.7159 157.712 79.4732 158 80.0279 158.576C80.5825 159.141 80.8599 160.016 80.8599 161.2V166H79.3559V161.68C79.3559 161.157 79.3079 160.72 79.2119 160.368C79.1265 160.005 78.9985 159.723 78.8279 159.52C78.6679 159.307 78.4652 159.157 78.2199 159.072C77.9852 158.976 77.7239 158.928 77.4359 158.928C76.6999 158.928 76.1079 159.195 75.6599 159.728C75.2225 160.251 75.0039 161.061 75.0039 162.16V166H73.4999V157.84ZM87.3615 159.056H85.3455V163.456C85.3455 163.947 85.4682 164.288 85.7135 164.48C85.9695 164.661 86.2682 164.752 86.6095 164.752C86.8655 164.752 87.1375 164.709 87.4255 164.624V165.984C87.2228 166.037 87.0308 166.075 86.8495 166.096C86.6682 166.117 86.5028 166.128 86.3535 166.128C85.5428 166.128 84.9242 165.909 84.4975 165.472C84.0708 165.024 83.8575 164.4 83.8575 163.6V159.056H82.3695V157.84H83.8575V155.808L85.3455 155.264V157.84H87.3615V159.056ZM88.8956 160.496H93.5356V161.904H88.8956V160.496ZM95.9099 154.8H102.198V156.208H97.4779V159.488H101.878V160.896H97.4779V164.592H102.198V166H95.9099V154.8ZM106.471 161.728L103.59 157.84H105.463L107.479 160.864L109.527 157.84H111.207L108.359 161.728L111.383 166H109.527L107.351 162.736L105.174 166H103.383L106.471 161.728ZM114.519 164.928V169.584H113.015V157.84H114.455V159.008H114.487C114.7 158.72 114.93 158.491 115.175 158.32C115.431 158.149 115.682 158.021 115.927 157.936C116.172 157.84 116.407 157.781 116.631 157.76C116.855 157.728 117.047 157.712 117.207 157.712C117.804 157.712 118.338 157.819 118.807 158.032C119.276 158.235 119.671 158.523 119.991 158.896C120.311 159.269 120.556 159.712 120.727 160.224C120.898 160.725 120.983 161.269 120.983 161.856C120.983 162.432 120.898 162.981 120.727 163.504C120.567 164.016 120.327 164.469 120.007 164.864C119.687 165.248 119.298 165.557 118.839 165.792C118.38 166.016 117.863 166.128 117.287 166.128C116.626 166.128 116.066 166.005 115.607 165.76C115.159 165.504 114.818 165.227 114.583 164.928H114.519ZM116.935 164.912C117.682 164.912 118.274 164.635 118.711 164.08C119.159 163.515 119.383 162.757 119.383 161.808C119.383 160.933 119.164 160.235 118.727 159.712C118.3 159.189 117.719 158.928 116.983 158.928C116.226 158.928 115.623 159.2 115.175 159.744C114.738 160.288 114.519 161.019 114.519 161.936C114.519 162.843 114.738 163.568 115.175 164.112C115.612 164.645 116.199 164.912 116.935 164.912ZM123.109 157.84H124.517V159.168H124.549C124.816 158.645 125.136 158.272 125.509 158.048C125.893 157.824 126.352 157.712 126.885 157.712C127.035 157.712 127.184 157.723 127.333 157.744C127.493 157.755 127.659 157.771 127.829 157.792V159.104C127.669 159.083 127.515 159.067 127.365 159.056C127.216 159.035 127.072 159.024 126.933 159.024C126.112 159.024 125.52 159.307 125.157 159.872C124.795 160.437 124.613 161.264 124.613 162.352V166H123.109V157.84ZM130.445 162.256C130.531 163.099 130.819 163.749 131.309 164.208C131.8 164.656 132.461 164.88 133.293 164.88C133.784 164.88 134.264 164.821 134.733 164.704C135.213 164.576 135.608 164.421 135.917 164.24V165.712C135.661 165.797 135.309 165.888 134.861 165.984C134.413 166.08 133.859 166.128 133.197 166.128C131.811 166.128 130.744 165.744 129.997 164.976C129.261 164.208 128.893 163.141 128.893 161.776C128.893 161.157 128.989 160.597 129.181 160.096C129.384 159.595 129.656 159.168 129.997 158.816C130.349 158.464 130.76 158.192 131.229 158C131.699 157.808 132.205 157.712 132.749 157.712C133.912 157.712 134.824 158.053 135.485 158.736C136.147 159.419 136.477 160.453 136.477 161.84V162.256H130.445ZM132.733 158.928C132.104 158.928 131.587 159.131 131.181 159.536C130.787 159.931 130.541 160.464 130.445 161.136H134.877C134.877 160.432 134.675 159.888 134.269 159.504C133.864 159.12 133.352 158.928 132.733 158.928ZM140.705 166.128C140.161 166.128 139.691 166.085 139.297 166C138.913 165.904 138.571 165.797 138.273 165.68V164.352C138.817 164.597 139.286 164.752 139.681 164.816C140.086 164.869 140.379 164.896 140.561 164.896C141.179 164.896 141.627 164.789 141.905 164.576C142.182 164.352 142.321 164.101 142.321 163.824C142.321 163.653 142.273 163.509 142.177 163.392C142.091 163.264 141.974 163.147 141.825 163.04C141.675 162.933 141.499 162.837 141.297 162.752C141.094 162.656 140.881 162.56 140.657 162.464C140.347 162.325 140.043 162.187 139.745 162.048C139.457 161.899 139.201 161.733 138.977 161.552C138.753 161.36 138.571 161.136 138.433 160.88C138.294 160.624 138.225 160.315 138.225 159.952C138.225 159.28 138.491 158.741 139.025 158.336C139.569 157.92 140.358 157.712 141.393 157.712C141.926 157.712 142.395 157.755 142.801 157.84C143.206 157.925 143.467 157.989 143.585 158.032V159.312C143.275 159.184 142.945 159.093 142.593 159.04C142.251 158.987 141.91 158.96 141.569 158.96C140.961 158.96 140.523 159.045 140.257 159.216C139.99 159.376 139.857 159.595 139.857 159.872C139.857 160.032 139.899 160.176 139.985 160.304C140.07 160.421 140.182 160.533 140.321 160.64C140.47 160.736 140.641 160.832 140.833 160.928C141.025 161.013 141.227 161.104 141.441 161.2C141.729 161.328 142.022 161.461 142.321 161.6C142.63 161.728 142.907 161.888 143.153 162.08C143.409 162.272 143.611 162.501 143.761 162.768C143.921 163.035 144.001 163.365 144.001 163.76C144.001 164.464 143.713 165.035 143.137 165.472C142.571 165.909 141.761 166.128 140.705 166.128ZM148.22 166.128C147.676 166.128 147.207 166.085 146.812 166C146.428 165.904 146.087 165.797 145.788 165.68V164.352C146.332 164.597 146.801 164.752 147.196 164.816C147.601 164.869 147.895 164.896 148.076 164.896C148.695 164.896 149.143 164.789 149.42 164.576C149.697 164.352 149.836 164.101 149.836 163.824C149.836 163.653 149.788 163.509 149.692 163.392C149.607 163.264 149.489 163.147 149.34 163.04C149.191 162.933 149.015 162.837 148.812 162.752C148.609 162.656 148.396 162.56 148.172 162.464C147.863 162.325 147.559 162.187 147.26 162.048C146.972 161.899 146.716 161.733 146.492 161.552C146.268 161.36 146.087 161.136 145.948 160.88C145.809 160.624 145.74 160.315 145.74 159.952C145.74 159.28 146.007 158.741 146.54 158.336C147.084 157.92 147.873 157.712 148.908 157.712C149.441 157.712 149.911 157.755 150.316 157.84C150.721 157.925 150.983 157.989 151.1 158.032V159.312C150.791 159.184 150.46 159.093 150.108 159.04C149.767 158.987 149.425 158.96 149.084 158.96C148.476 158.96 148.039 159.045 147.772 159.216C147.505 159.376 147.372 159.595 147.372 159.872C147.372 160.032 147.415 160.176 147.5 160.304C147.585 160.421 147.697 160.533 147.836 160.64C147.985 160.736 148.156 160.832 148.348 160.928C148.54 161.013 148.743 161.104 148.956 161.2C149.244 161.328 149.537 161.461 149.836 161.6C150.145 161.728 150.423 161.888 150.668 162.08C150.924 162.272 151.127 162.501 151.276 162.768C151.436 163.035 151.516 163.365 151.516 163.76C151.516 164.464 151.228 165.035 150.652 165.472C150.087 165.909 149.276 166.128 148.22 166.128Z" fill="#22242A"/>
<rect width="408" height="40" transform="translate(24 180)" fill="white"/>
<path d="M44.672 194.8H46.368L50.8 206H49.04L47.968 203.12H43.008L41.936 206H40.24L44.672 194.8ZM43.488 201.84H47.504L45.52 196.48H45.488L43.488 201.84ZM57.2025 206.16C56.2852 206.16 55.4638 206.027 54.7385 205.76C54.0238 205.483 53.4105 205.093 52.8985 204.592C52.3972 204.091 52.0132 203.488 51.7465 202.784C51.4798 202.069 51.3465 201.275 51.3465 200.4C51.3465 199.547 51.4852 198.768 51.7625 198.064C52.0398 197.349 52.4292 196.741 52.9305 196.24C53.4425 195.728 54.0558 195.333 54.7705 195.056C55.4958 194.779 56.3065 194.64 57.2025 194.64C57.5758 194.64 57.9225 194.667 58.2425 194.72C58.5625 194.763 58.8452 194.811 59.0905 194.864C59.3678 194.928 59.6238 195.003 59.8585 195.088V196.624C59.6238 196.517 59.3678 196.421 59.0905 196.336C58.8452 196.261 58.5625 196.197 58.2425 196.144C57.9225 196.08 57.5758 196.048 57.2025 196.048C56.5625 196.048 55.9812 196.149 55.4585 196.352C54.9465 196.555 54.5092 196.843 54.1465 197.216C53.7838 197.589 53.5012 198.048 53.2985 198.592C53.1065 199.125 53.0105 199.728 53.0105 200.4C53.0105 201.072 53.1065 201.68 53.2985 202.224C53.5012 202.757 53.7838 203.211 54.1465 203.584C54.5092 203.957 54.9465 204.245 55.4585 204.448C55.9812 204.651 56.5625 204.752 57.2025 204.752C57.5758 204.752 57.9225 204.731 58.2425 204.688C58.5625 204.635 58.8452 204.576 59.0905 204.512C59.3678 204.437 59.6238 204.352 59.8585 204.256V205.792C59.6238 205.867 59.3678 205.931 59.0905 205.984C58.8452 206.037 58.5625 206.08 58.2425 206.112C57.9225 206.144 57.5758 206.16 57.2025 206.16ZM62.1286 194.8H64.6726L67.5526 200.96L70.4486 194.8H72.9126V206H71.3446V196.336H71.2966L68.1606 202.8H66.8806L63.7446 196.336H63.6966V206H62.1286V194.8ZM75.8943 194.8H82.1823V196.208H77.4623V199.488H81.8623V200.896H77.4623V204.592H82.1823V206H75.8943V194.8Z" fill="#22242A"/>
<rect y="406" width="460" height="32" fill="white"/>
<g clip-path="url(#clip1_656_12411)">
<rect x="40" y="126" width="380" height="2" fill="#E5E7EB"/>
<g clip-path="url(#clip2_656_12411)">
<g clip-path="url(#clip3_656_12411)">
<path d="M41.484 103.2H42.856V113H41.484V103.2ZM47.302 113.112C46.826 113.112 46.4153 113.075 46.07 113C45.734 112.916 45.4353 112.823 45.174 112.72V111.558C45.65 111.773 46.0607 111.908 46.406 111.964C46.7607 112.011 47.0173 112.034 47.176 112.034C47.7173 112.034 48.1093 111.941 48.352 111.754C48.5947 111.558 48.716 111.339 48.716 111.096C48.716 110.947 48.674 110.821 48.59 110.718C48.5153 110.606 48.4127 110.503 48.282 110.41C48.1513 110.317 47.9973 110.233 47.82 110.158C47.6427 110.074 47.456 109.99 47.26 109.906C46.9893 109.785 46.7233 109.663 46.462 109.542C46.21 109.411 45.986 109.267 45.79 109.108C45.594 108.94 45.4353 108.744 45.314 108.52C45.1927 108.296 45.132 108.025 45.132 107.708C45.132 107.12 45.3653 106.649 45.832 106.294C46.308 105.93 46.9987 105.748 47.904 105.748C48.3707 105.748 48.7813 105.785 49.136 105.86C49.4907 105.935 49.7193 105.991 49.822 106.028V107.148C49.5513 107.036 49.262 106.957 48.954 106.91C48.6553 106.863 48.3567 106.84 48.058 106.84C47.526 106.84 47.1433 106.915 46.91 107.064C46.6767 107.204 46.56 107.395 46.56 107.638C46.56 107.778 46.5973 107.904 46.672 108.016C46.7467 108.119 46.8447 108.217 46.966 108.31C47.0967 108.394 47.246 108.478 47.414 108.562C47.582 108.637 47.7593 108.716 47.946 108.8C48.198 108.912 48.4547 109.029 48.716 109.15C48.9867 109.262 49.2293 109.402 49.444 109.57C49.668 109.738 49.8453 109.939 49.976 110.172C50.116 110.405 50.186 110.695 50.186 111.04C50.186 111.656 49.934 112.155 49.43 112.538C48.9353 112.921 48.226 113.112 47.302 113.112ZM55.2502 113.112C54.7088 113.112 54.2142 113.023 53.7662 112.846C53.3182 112.669 52.9308 112.417 52.6042 112.09C52.2868 111.763 52.0395 111.376 51.8622 110.928C51.6848 110.48 51.5962 109.981 51.5962 109.43C51.5962 108.889 51.6848 108.394 51.8622 107.946C52.0395 107.489 52.2868 107.097 52.6042 106.77C52.9308 106.443 53.3182 106.191 53.7662 106.014C54.2142 105.837 54.7088 105.748 55.2502 105.748C55.7915 105.748 56.2862 105.837 56.7342 106.014C57.1822 106.191 57.5648 106.443 57.8822 106.77C58.2088 107.097 58.4608 107.489 58.6382 107.946C58.8155 108.394 58.9042 108.889 58.9042 109.43C58.9042 109.981 58.8155 110.48 58.6382 110.928C58.4608 111.376 58.2088 111.763 57.8822 112.09C57.5648 112.417 57.1822 112.669 56.7342 112.846C56.2862 113.023 55.7915 113.112 55.2502 113.112ZM55.2502 112.048C55.5582 112.048 55.8475 111.987 56.1182 111.866C56.3982 111.745 56.6362 111.572 56.8322 111.348C57.0375 111.115 57.2008 110.839 57.3222 110.522C57.4435 110.195 57.5042 109.831 57.5042 109.43C57.5042 109.029 57.4435 108.669 57.3222 108.352C57.2008 108.025 57.0375 107.75 56.8322 107.526C56.6268 107.293 56.3888 107.115 56.1182 106.994C55.8475 106.873 55.5582 106.812 55.2502 106.812C54.9422 106.812 54.6482 106.873 54.3682 106.994C54.0975 107.115 53.8595 107.293 53.6542 107.526C53.4582 107.75 53.2995 108.025 53.1782 108.352C53.0568 108.669 52.9962 109.029 52.9962 109.43C52.9962 109.831 53.0568 110.195 53.1782 110.522C53.2995 110.839 53.4582 111.115 53.6542 111.348C53.8595 111.572 54.0975 111.745 54.3682 111.866C54.6482 111.987 54.9422 112.048 55.2502 112.048ZM60.9638 102.332H62.2798V113H60.9638V102.332ZM66.6483 113.112C65.9017 113.112 65.309 112.925 64.8703 112.552C64.4317 112.169 64.2123 111.642 64.2123 110.97C64.2123 110.186 64.511 109.589 65.1083 109.178C65.715 108.758 66.6437 108.548 67.8943 108.548H69.2103V108.31C69.2103 107.797 69.033 107.423 68.6783 107.19C68.3237 106.957 67.8523 106.84 67.2643 106.84C66.8817 106.84 66.4943 106.887 66.1023 106.98C65.7103 107.064 65.2997 107.223 64.8703 107.456V106.224C65.225 106.065 65.631 105.949 66.0883 105.874C66.5457 105.79 66.9937 105.748 67.4323 105.748C68.4123 105.748 69.173 105.972 69.7143 106.42C70.2557 106.859 70.5263 107.573 70.5263 108.562V113H69.1823V111.908H69.1543C68.8557 112.347 68.473 112.659 68.0063 112.846C67.549 113.023 67.0963 113.112 66.6483 113.112ZM66.9703 111.992C67.297 111.992 67.5957 111.941 67.8663 111.838C68.1463 111.735 68.3843 111.595 68.5803 111.418C68.7763 111.231 68.9303 111.017 69.0423 110.774C69.1543 110.531 69.2103 110.275 69.2103 110.004V109.556H67.9503C67.5117 109.556 67.143 109.589 66.8443 109.654C66.555 109.719 66.317 109.813 66.1303 109.934C65.9437 110.055 65.8083 110.195 65.7243 110.354C65.6497 110.513 65.6123 110.69 65.6123 110.886C65.6123 111.241 65.7337 111.516 65.9763 111.712C66.219 111.899 66.5503 111.992 66.9703 111.992ZM76.205 106.924H74.441V110.774C74.441 111.203 74.5483 111.502 74.763 111.67C74.987 111.829 75.2483 111.908 75.547 111.908C75.771 111.908 76.009 111.871 76.261 111.796V112.986C76.0837 113.033 75.9157 113.065 75.757 113.084C75.5983 113.103 75.4537 113.112 75.323 113.112C74.6137 113.112 74.0723 112.921 73.699 112.538C73.3257 112.146 73.139 111.6 73.139 110.9V106.924H71.837V105.86H73.139V104.082L74.441 103.606V105.86H76.205V106.924ZM78.753 109.724C78.8277 110.461 79.0797 111.031 79.509 111.432C79.9383 111.824 80.517 112.02 81.245 112.02C81.6743 112.02 82.0943 111.969 82.505 111.866C82.925 111.754 83.2703 111.619 83.541 111.46V112.748C83.317 112.823 83.009 112.902 82.617 112.986C82.225 113.07 81.7397 113.112 81.161 113.112C79.9477 113.112 79.0143 112.776 78.361 112.104C77.717 111.432 77.395 110.499 77.395 109.304C77.395 108.763 77.479 108.273 77.647 107.834C77.8243 107.395 78.0623 107.022 78.361 106.714C78.669 106.406 79.0283 106.168 79.439 106C79.8497 105.832 80.293 105.748 80.769 105.748C81.7863 105.748 82.5843 106.047 83.163 106.644C83.7417 107.241 84.031 108.147 84.031 109.36V109.724H78.753ZM80.755 106.812C80.2043 106.812 79.7517 106.989 79.397 107.344C79.0517 107.689 78.837 108.156 78.753 108.744H82.631C82.631 108.128 82.4537 107.652 82.099 107.316C81.7443 106.98 81.2963 106.812 80.755 106.812ZM88.7657 113.112C88.2617 113.112 87.8044 113.019 87.3937 112.832C86.9831 112.645 86.6331 112.384 86.3437 112.048C86.0544 111.712 85.8304 111.315 85.6717 110.858C85.5224 110.391 85.4477 109.887 85.4477 109.346C85.4477 108.833 85.5271 108.357 85.6857 107.918C85.8444 107.479 86.0684 107.101 86.3577 106.784C86.6471 106.457 86.9924 106.205 87.3937 106.028C87.8044 105.841 88.2524 105.748 88.7377 105.748C89.2791 105.748 89.7364 105.851 90.1097 106.056C90.4924 106.261 90.8144 106.513 91.0757 106.812H91.1037V102.36H92.4197V113H91.1597V111.992H91.0757C90.8051 112.337 90.4831 112.613 90.1097 112.818C89.7457 113.014 89.2977 113.112 88.7657 113.112ZM88.9897 112.048C89.2977 112.048 89.5824 111.983 89.8437 111.852C90.1051 111.721 90.3291 111.544 90.5157 111.32C90.7024 111.087 90.8471 110.811 90.9497 110.494C91.0524 110.177 91.1037 109.827 91.1037 109.444C91.1037 109.061 91.0477 108.711 90.9357 108.394C90.8331 108.067 90.6884 107.787 90.5017 107.554C90.3151 107.321 90.0911 107.139 89.8297 107.008C89.5684 106.877 89.2791 106.812 88.9617 106.812C88.6631 106.812 88.3831 106.877 88.1217 107.008C87.8604 107.139 87.6364 107.321 87.4497 107.554C87.2631 107.778 87.1137 108.049 87.0017 108.366C86.8991 108.683 86.8477 109.029 86.8477 109.402C86.8477 109.785 86.8991 110.139 87.0017 110.466C87.1137 110.783 87.2631 111.063 87.4497 111.306C87.6457 111.539 87.8744 111.721 88.1357 111.852C88.3971 111.983 88.6817 112.048 88.9897 112.048ZM97.0306 105.86H98.4726L100.069 111.544L101.903 105.86H103.023L104.843 111.572L106.565 105.86H107.853L105.543 113H104.157L102.393 107.596L100.713 113H99.3266L97.0306 105.86ZM109.444 105.86H110.76V113H109.444V105.86ZM109.374 102.92H110.858V104.404H109.374V102.92ZM113.295 105.86H114.611V106.882H114.639C114.909 106.499 115.245 106.215 115.647 106.028C116.057 105.841 116.515 105.748 117.019 105.748C117.859 105.748 118.521 106 119.007 106.504C119.492 106.999 119.735 107.764 119.735 108.8V113H118.419V109.22C118.419 108.763 118.377 108.38 118.293 108.072C118.218 107.755 118.106 107.507 117.957 107.33C117.817 107.143 117.639 107.013 117.425 106.938C117.219 106.854 116.991 106.812 116.739 106.812C116.095 106.812 115.577 107.045 115.185 107.512C114.802 107.969 114.611 108.679 114.611 109.64V113H113.295V105.86ZM124.682 113.112C124.178 113.112 123.72 113.019 123.31 112.832C122.899 112.645 122.549 112.384 122.26 112.048C121.97 111.712 121.746 111.315 121.588 110.858C121.438 110.391 121.364 109.887 121.364 109.346C121.364 108.833 121.443 108.357 121.602 107.918C121.76 107.479 121.984 107.101 122.274 106.784C122.563 106.457 122.908 106.205 123.31 106.028C123.72 105.841 124.168 105.748 124.654 105.748C125.195 105.748 125.652 105.851 126.026 106.056C126.408 106.261 126.73 106.513 126.992 106.812H127.02V102.36H128.336V113H127.076V111.992H126.992C126.721 112.337 126.399 112.613 126.026 112.818C125.662 113.014 125.214 113.112 124.682 113.112ZM124.906 112.048C125.214 112.048 125.498 111.983 125.76 111.852C126.021 111.721 126.245 111.544 126.432 111.32C126.618 111.087 126.763 110.811 126.866 110.494C126.968 110.177 127.02 109.827 127.02 109.444C127.02 109.061 126.964 108.711 126.852 108.394C126.749 108.067 126.604 107.787 126.418 107.554C126.231 107.321 126.007 107.139 125.746 107.008C125.484 106.877 125.195 106.812 124.878 106.812C124.579 106.812 124.299 106.877 124.038 107.008C123.776 107.139 123.552 107.321 123.366 107.554C123.179 107.778 123.03 108.049 122.918 108.366C122.815 108.683 122.764 109.029 122.764 109.402C122.764 109.785 122.815 110.139 122.918 110.466C123.03 110.783 123.179 111.063 123.366 111.306C123.562 111.539 123.79 111.721 124.052 111.852C124.313 111.983 124.598 112.048 124.906 112.048ZM133.836 113.112C133.295 113.112 132.8 113.023 132.352 112.846C131.904 112.669 131.517 112.417 131.19 112.09C130.873 111.763 130.625 111.376 130.448 110.928C130.271 110.48 130.182 109.981 130.182 109.43C130.182 108.889 130.271 108.394 130.448 107.946C130.625 107.489 130.873 107.097 131.19 106.77C131.517 106.443 131.904 106.191 132.352 106.014C132.8 105.837 133.295 105.748 133.836 105.748C134.377 105.748 134.872 105.837 135.32 106.014C135.768 106.191 136.151 106.443 136.468 106.77C136.795 107.097 137.047 107.489 137.224 107.946C137.401 108.394 137.49 108.889 137.49 109.43C137.49 109.981 137.401 110.48 137.224 110.928C137.047 111.376 136.795 111.763 136.468 112.09C136.151 112.417 135.768 112.669 135.32 112.846C134.872 113.023 134.377 113.112 133.836 113.112ZM133.836 112.048C134.144 112.048 134.433 111.987 134.704 111.866C134.984 111.745 135.222 111.572 135.418 111.348C135.623 111.115 135.787 110.839 135.908 110.522C136.029 110.195 136.09 109.831 136.09 109.43C136.09 109.029 136.029 108.669 135.908 108.352C135.787 108.025 135.623 107.75 135.418 107.526C135.213 107.293 134.975 107.115 134.704 106.994C134.433 106.873 134.144 106.812 133.836 106.812C133.528 106.812 133.234 106.873 132.954 106.994C132.683 107.115 132.445 107.293 132.24 107.526C132.044 107.75 131.885 108.025 131.764 108.352C131.643 108.669 131.582 109.029 131.582 109.43C131.582 109.831 131.643 110.195 131.764 110.522C131.885 110.839 132.044 111.115 132.24 111.348C132.445 111.572 132.683 111.745 132.954 111.866C133.234 111.987 133.528 112.048 133.836 112.048ZM138.265 105.86H139.707L141.303 111.544L143.137 105.86H144.257L146.077 111.572L147.799 105.86H149.087L146.777 113H145.391L143.627 107.596L141.947 113H140.561L138.265 105.86Z" fill="#22242A"/>
<rect x="158" y="100" width="17" height="16" rx="8" fill="#0062FF"/>
<path d="M166.482 112.109C166.024 112.109 165.611 112.018 165.244 111.836C164.876 111.654 164.582 111.404 164.361 111.086C164.139 110.768 164.018 110.406 163.998 110H164.935C164.972 110.362 165.136 110.661 165.427 110.898C165.722 111.133 166.073 111.25 166.482 111.25C166.81 111.25 167.102 111.173 167.357 111.02C167.615 110.866 167.817 110.655 167.962 110.387C168.111 110.116 168.185 109.81 168.185 109.469C168.185 109.12 168.108 108.809 167.955 108.535C167.804 108.259 167.595 108.042 167.33 107.883C167.064 107.724 166.761 107.643 166.419 107.641C166.175 107.638 165.923 107.676 165.666 107.754C165.408 107.829 165.195 107.927 165.029 108.047L164.123 107.937L164.607 104H168.763V104.859H165.419L165.138 107.219H165.185C165.349 107.089 165.555 106.98 165.802 106.895C166.05 106.809 166.307 106.766 166.576 106.766C167.065 106.766 167.501 106.883 167.884 107.117C168.27 107.349 168.572 107.667 168.791 108.07C169.012 108.474 169.123 108.935 169.123 109.453C169.123 109.964 169.008 110.419 168.779 110.82C168.552 111.219 168.24 111.534 167.841 111.766C167.443 111.995 166.99 112.109 166.482 112.109Z" fill="white"/>
</g>
<rect x="40" y="126" width="135" height="2" fill="#0062FF"/>
<g clip-path="url(#clip4_656_12411)">
<path d="M208.145 103.545H209.511L212.724 111.393H212.835L216.048 103.545H217.415V113H216.344V105.817H216.251L213.297 113H212.263L209.308 105.817H209.216V113H208.145V103.545ZM224.031 110.101V105.909H225.121V113H224.031V111.8H223.957C223.791 112.16 223.533 112.466 223.182 112.718C222.831 112.968 222.388 113.092 221.852 113.092C221.409 113.092 221.015 112.995 220.671 112.801C220.326 112.605 220.055 112.309 219.858 111.915C219.661 111.518 219.563 111.018 219.563 110.415V105.909H220.652V110.341C220.652 110.858 220.797 111.27 221.086 111.578C221.378 111.886 221.751 112.04 222.203 112.04C222.474 112.04 222.749 111.971 223.03 111.832C223.313 111.694 223.55 111.481 223.741 111.195C223.934 110.909 224.031 110.544 224.031 110.101ZM228.206 103.545V113H227.116V103.545H228.206ZM233.285 105.909V106.832H229.61V105.909H233.285ZM230.681 104.21H231.771V110.969C231.771 111.277 231.815 111.507 231.905 111.661C231.997 111.812 232.114 111.914 232.256 111.966C232.4 112.015 232.553 112.04 232.713 112.04C232.833 112.04 232.931 112.034 233.008 112.021C233.085 112.006 233.147 111.994 233.193 111.984L233.414 112.963C233.34 112.991 233.237 113.018 233.105 113.046C232.973 113.077 232.805 113.092 232.602 113.092C232.294 113.092 231.992 113.026 231.697 112.894C231.405 112.761 231.161 112.56 230.968 112.289C230.777 112.018 230.681 111.677 230.681 111.264V104.21ZM234.924 113V105.909H236.013V113H234.924ZM235.478 104.727C235.266 104.727 235.082 104.655 234.929 104.51C234.778 104.366 234.702 104.192 234.702 103.989C234.702 103.786 234.778 103.612 234.929 103.467C235.082 103.322 235.266 103.25 235.478 103.25C235.69 103.25 235.872 103.322 236.023 103.467C236.177 103.612 236.253 103.786 236.253 103.989C236.253 104.192 236.177 104.366 236.023 104.51C235.872 104.655 235.69 104.727 235.478 104.727ZM240.89 113.148C240.225 113.148 239.652 112.991 239.172 112.677C238.692 112.363 238.323 111.931 238.064 111.38C237.806 110.829 237.676 110.199 237.676 109.491C237.676 108.771 237.809 108.136 238.074 107.585C238.341 107.031 238.714 106.598 239.191 106.288C239.671 105.974 240.231 105.817 240.871 105.817C241.37 105.817 241.819 105.909 242.219 106.094C242.619 106.278 242.947 106.537 243.202 106.869C243.458 107.202 243.616 107.589 243.678 108.033H242.588C242.505 107.71 242.321 107.423 242.034 107.174C241.751 106.922 241.37 106.795 240.89 106.795C240.465 106.795 240.092 106.906 239.772 107.128C239.455 107.346 239.208 107.656 239.029 108.056C238.854 108.453 238.766 108.919 238.766 109.455C238.766 110.002 238.852 110.479 239.025 110.886C239.2 111.292 239.446 111.607 239.763 111.832C240.083 112.057 240.459 112.169 240.89 112.169C241.173 112.169 241.43 112.12 241.661 112.021C241.891 111.923 242.087 111.781 242.247 111.597C242.407 111.412 242.521 111.19 242.588 110.932H243.678C243.616 111.35 243.464 111.727 243.221 112.063C242.981 112.395 242.662 112.66 242.265 112.857C241.871 113.051 241.413 113.148 240.89 113.148ZM246.36 103.545V113H245.271V103.545H246.36ZM248.356 113V105.909H249.445V113H248.356ZM248.91 104.727C248.697 104.727 248.514 104.655 248.36 104.51C248.209 104.366 248.134 104.192 248.134 103.989C248.134 103.786 248.209 103.612 248.36 103.467C248.514 103.322 248.697 103.25 248.91 103.25C249.122 103.25 249.303 103.322 249.454 103.467C249.608 103.612 249.685 103.786 249.685 103.989C249.685 104.192 249.608 104.366 249.454 104.51C249.303 104.655 249.122 104.727 248.91 104.727ZM254.414 113.148C253.73 113.148 253.141 112.997 252.645 112.695C252.153 112.391 251.773 111.966 251.505 111.421C251.24 110.873 251.108 110.236 251.108 109.51C251.108 108.784 251.24 108.143 251.505 107.589C251.773 107.032 252.145 106.598 252.622 106.288C253.102 105.974 253.663 105.817 254.303 105.817C254.672 105.817 255.037 105.878 255.397 106.001C255.757 106.125 256.085 106.325 256.38 106.602C256.676 106.875 256.911 107.239 257.086 107.691C257.262 108.143 257.35 108.701 257.35 109.362V109.824H251.884V108.882H256.242C256.242 108.482 256.162 108.125 256.002 107.811C255.845 107.497 255.62 107.249 255.328 107.068C255.038 106.886 254.697 106.795 254.303 106.795C253.869 106.795 253.493 106.903 253.176 107.119C252.862 107.331 252.621 107.608 252.452 107.95C252.282 108.291 252.198 108.657 252.198 109.048V109.676C252.198 110.212 252.29 110.666 252.475 111.038C252.662 111.407 252.922 111.689 253.255 111.883C253.587 112.074 253.973 112.169 254.414 112.169C254.7 112.169 254.958 112.129 255.189 112.049C255.423 111.966 255.625 111.843 255.794 111.68C255.963 111.513 256.094 111.307 256.186 111.061L257.239 111.357C257.128 111.714 256.942 112.027 256.68 112.298C256.419 112.566 256.095 112.775 255.711 112.926C255.326 113.074 254.894 113.148 254.414 113.148ZM260.096 108.734V113H259.007V105.909H260.059V107.017H260.152C260.318 106.657 260.57 106.368 260.909 106.149C261.247 105.928 261.684 105.817 262.22 105.817C262.7 105.817 263.12 105.915 263.48 106.112C263.84 106.306 264.12 106.602 264.32 106.999C264.521 107.393 264.621 107.891 264.621 108.494V113H263.531V108.568C263.531 108.011 263.386 107.577 263.097 107.266C262.808 106.952 262.411 106.795 261.906 106.795C261.558 106.795 261.247 106.871 260.974 107.022C260.703 107.172 260.489 107.393 260.332 107.682C260.175 107.971 260.096 108.322 260.096 108.734ZM269.695 105.909V106.832H266.021V105.909H269.695ZM267.092 104.21H268.181V110.969C268.181 111.277 268.226 111.507 268.315 111.661C268.407 111.812 268.524 111.914 268.666 111.966C268.81 112.015 268.963 112.04 269.123 112.04C269.243 112.04 269.341 112.034 269.418 112.021C269.495 112.006 269.557 111.994 269.603 111.984L269.824 112.963C269.751 112.991 269.648 113.018 269.515 113.046C269.383 113.077 269.215 113.092 269.012 113.092C268.704 113.092 268.403 113.026 268.107 112.894C267.815 112.761 267.572 112.56 267.378 112.289C267.187 112.018 267.092 111.677 267.092 111.264V104.21Z" fill="#7B7E86"/>
<rect x="279" y="100" width="17" height="16" rx="8" fill="#0062FF"/>
<path d="M287.482 112.109C287.024 112.109 286.611 112.018 286.244 111.836C285.876 111.654 285.582 111.404 285.361 111.086C285.139 110.768 285.018 110.406 284.998 110H285.935C285.972 110.362 286.136 110.661 286.427 110.898C286.722 111.133 287.073 111.25 287.482 111.25C287.81 111.25 288.102 111.173 288.357 111.02C288.615 110.866 288.817 110.655 288.962 110.387C289.111 110.116 289.185 109.81 289.185 109.469C289.185 109.12 289.108 108.809 288.955 108.535C288.804 108.259 288.595 108.042 288.33 107.883C288.064 107.724 287.761 107.643 287.419 107.641C287.175 107.638 286.923 107.676 286.666 107.754C286.408 107.829 286.195 107.927 286.029 108.047L285.123 107.937L285.607 104H289.763V104.859H286.419L286.138 107.219H286.185C286.349 107.089 286.555 106.98 286.802 106.895C287.05 106.809 287.307 106.766 287.576 106.766C288.065 106.766 288.501 106.883 288.884 107.117C289.27 107.349 289.572 107.667 289.791 108.07C290.012 108.474 290.123 108.935 290.123 109.453C290.123 109.964 290.008 110.419 289.779 110.82C289.552 111.219 289.24 111.534 288.841 111.766C288.443 111.995 287.99 112.109 287.482 112.109Z" fill="white"/>
</g>
</g>
</g>
</g>
<rect x="1" y="1" width="458" height="438" rx="7" stroke="black" stroke-width="2"/>
<defs>
<clipPath id="clip0_656_12411">
<rect width="460" height="440" rx="8" fill="white"/>
</clipPath>
<clipPath id="clip1_656_12411">
<rect width="380" height="40" fill="white" transform="translate(40 88)"/>
</clipPath>
<clipPath id="clip2_656_12411">
<rect width="256" height="40" fill="white" transform="translate(40 88)"/>
</clipPath>
<clipPath id="clip3_656_12411">
<rect width="135" height="20" fill="white" transform="translate(40 98)"/>
</clipPath>
<clipPath id="clip4_656_12411">
<rect width="89" height="20" fill="white" transform="translate(207 98)"/>
</clipPath>
</defs>
</svg>
