<svg width="569" height="502" viewBox="0 0 569 502" fill="none" xmlns="http://www.w3.org/2000/svg">
<g clip-path="url(#clip0_613_38808)">
<rect width="569" height="502" fill="white"/>
<path d="M0 0H569V39H0V0Z" fill="#F4F4F4"/>
<mask id="path-2-inside-1_613_38808" fill="white">
<path d="M0 0H113.8V39H0V0Z"/>
</mask>
<path d="M112.8 0V39H114.8V0H112.8Z" fill="#E0E0E0" mask="url(#path-2-inside-1_613_38808)"/>
<path d="M17.6037 17.6719C17.5639 17.2997 17.3963 17.0099 17.1009 16.8026C16.8082 16.5952 16.4276 16.4915 15.9588 16.4915C15.6293 16.4915 15.3466 16.5412 15.1108 16.6406C14.875 16.7401 14.6946 16.875 14.5696 17.0455C14.4446 17.2159 14.3807 17.4105 14.3778 17.6293C14.3778 17.8111 14.419 17.9687 14.5014 18.1023C14.5866 18.2358 14.7017 18.3494 14.8466 18.4432C14.9915 18.5341 15.152 18.6108 15.3281 18.6733C15.5043 18.7358 15.6818 18.7884 15.8608 18.831L16.679 19.0355C17.0085 19.1122 17.3253 19.2159 17.6293 19.3466C17.9361 19.4773 18.2102 19.642 18.4517 19.8409C18.696 20.0398 18.8892 20.2798 19.0312 20.5611C19.1733 20.8423 19.2443 21.1719 19.2443 21.5497C19.2443 22.0611 19.1136 22.5114 18.8523 22.9006C18.5909 23.2869 18.2131 23.5895 17.7188 23.8082C17.2273 24.0241 16.6321 24.1321 15.9332 24.1321C15.2543 24.1321 14.6648 24.027 14.1648 23.8168C13.6676 23.6065 13.2784 23.2997 12.9972 22.8963C12.7188 22.4929 12.5682 22.0014 12.5455 21.4219H14.1009C14.1236 21.7259 14.2173 21.9787 14.3821 22.1804C14.5469 22.3821 14.7614 22.5327 15.0256 22.6321C15.2926 22.7315 15.5909 22.7812 15.9205 22.7812C16.2642 22.7812 16.5653 22.7301 16.8239 22.6278C17.0852 22.5227 17.2898 22.3778 17.4375 22.1932C17.5852 22.0057 17.6605 21.7869 17.6634 21.5369C17.6605 21.3097 17.5938 21.1222 17.4631 20.9744C17.3324 20.8239 17.1491 20.6989 16.9134 20.5994C16.6804 20.4972 16.4077 20.4062 16.0952 20.3267L15.1023 20.071C14.3835 19.8864 13.8153 19.6065 13.3977 19.2315C12.983 18.8537 12.7756 18.3523 12.7756 17.7273C12.7756 17.2131 12.9148 16.7628 13.1932 16.3764C13.4744 15.9901 13.8565 15.6903 14.3395 15.4773C14.8224 15.2614 15.3693 15.1534 15.9801 15.1534C16.5994 15.1534 17.142 15.2614 17.608 15.4773C18.0767 15.6903 18.4446 15.9872 18.7116 16.3679C18.9787 16.7457 19.1165 17.1804 19.125 17.6719H17.6037ZM23.854 17.4545V18.6477H20.0913V17.4545H23.854ZM21.0202 15.8864H22.5629V22.0312C22.5629 22.2386 22.5941 22.3977 22.6566 22.5085C22.7219 22.6165 22.8072 22.6903 22.9123 22.7301C23.0174 22.7699 23.1339 22.7898 23.2617 22.7898C23.3583 22.7898 23.4464 22.7827 23.5259 22.7685C23.6083 22.7543 23.6708 22.7415 23.7134 22.7301L23.9734 23.9361C23.891 23.9645 23.7731 23.9957 23.6197 24.0298C23.4691 24.0639 23.2844 24.0838 23.0657 24.0895C22.6793 24.1009 22.3313 24.0426 22.0217 23.9148C21.712 23.7841 21.4663 23.5824 21.2844 23.3097C21.1055 23.0369 21.0174 22.696 21.0202 22.2869V15.8864ZM27.9716 24.1278C27.3153 24.1278 26.7486 23.9915 26.2713 23.7188C25.7969 23.4432 25.4318 23.054 25.1761 22.5511C24.9205 22.0455 24.7926 21.4503 24.7926 20.7656C24.7926 20.0923 24.9205 19.5014 25.1761 18.9929C25.4347 18.4815 25.7955 18.0838 26.2585 17.7997C26.7216 17.5128 27.2656 17.3693 27.8906 17.3693C28.294 17.3693 28.6747 17.4347 29.0327 17.5653C29.3935 17.6932 29.7116 17.892 29.9872 18.1619C30.2656 18.4318 30.4844 18.7756 30.6435 19.1932C30.8026 19.608 30.8821 20.1023 30.8821 20.6761V21.1491H25.517V20.1094H29.4034C29.4006 19.8139 29.3366 19.5511 29.2116 19.321C29.0866 19.0881 28.9119 18.9048 28.6875 18.7713C28.4659 18.6378 28.2074 18.571 27.9119 18.571C27.5966 18.571 27.3196 18.6477 27.081 18.8011C26.8423 18.9517 26.6563 19.1506 26.5227 19.3977C26.392 19.642 26.3253 19.9105 26.3224 20.2031V21.1108C26.3224 21.4915 26.392 21.8182 26.5312 22.0909C26.6705 22.3608 26.8651 22.5682 27.1151 22.7131C27.3651 22.8551 27.6577 22.9261 27.9929 22.9261C28.2173 22.9261 28.4205 22.8949 28.6023 22.8324C28.7841 22.767 28.9418 22.6719 29.0753 22.5469C29.2088 22.4219 29.3097 22.267 29.3778 22.0824L30.8182 22.2443C30.7273 22.625 30.554 22.9574 30.2983 23.2415C30.0455 23.5227 29.7216 23.7415 29.3267 23.8977C28.9318 24.0511 28.4801 24.1278 27.9716 24.1278ZM32.1871 26.4545V17.4545H33.7042V18.5369H33.7937C33.8732 18.3778 33.9854 18.2088 34.1303 18.0298C34.2752 17.848 34.4712 17.6932 34.7184 17.5653C34.9656 17.4347 35.2809 17.3693 35.6644 17.3693C36.1701 17.3693 36.6261 17.4986 37.0323 17.7571C37.4414 18.0128 37.7653 18.392 38.0039 18.8949C38.2454 19.3949 38.3661 20.0085 38.3661 20.7358C38.3661 21.4545 38.2482 22.0653 38.0124 22.5682C37.7766 23.071 37.4556 23.4545 37.0494 23.7188C36.6431 23.983 36.1829 24.1151 35.6687 24.1151C35.2937 24.1151 34.9826 24.0526 34.7354 23.9276C34.4883 23.8026 34.2894 23.652 34.1388 23.4759C33.9911 23.2969 33.8761 23.1278 33.7937 22.9688H33.7298V26.4545H32.1871ZM33.6999 20.7273C33.6999 21.1506 33.7596 21.5213 33.8789 21.8395C34.0011 22.1577 34.1758 22.4062 34.4031 22.5852C34.6332 22.7614 34.9116 22.8494 35.2383 22.8494C35.5792 22.8494 35.8647 22.7585 36.0948 22.5767C36.3249 22.392 36.4982 22.1406 36.6147 21.8224C36.734 21.5014 36.7937 21.1364 36.7937 20.7273C36.7937 20.321 36.7354 19.9602 36.619 19.6449C36.5025 19.3295 36.3292 19.0824 36.0991 18.9034C35.869 18.7244 35.582 18.6349 35.2383 18.6349C34.9087 18.6349 34.6289 18.7216 34.3988 18.8949C34.1687 19.0682 33.994 19.3111 33.8746 19.6236C33.7582 19.9361 33.6999 20.304 33.6999 20.7273Z" fill="black"/>
<mask id="path-5-inside-2_613_38808" fill="white">
<path d="M113.801 0H227.601V39H113.801V0Z"/>
</mask>
<path d="M226.601 0V39H228.601V0H226.601Z" fill="#E0E0E0" mask="url(#path-5-inside-2_613_38808)"/>
<path d="M134.132 18.2173H132.538C132.493 17.956 132.409 17.7244 132.287 17.5227C132.164 17.3182 132.012 17.1449 131.831 17.0028C131.649 16.8608 131.441 16.7543 131.208 16.6832C130.978 16.6094 130.73 16.5724 130.463 16.5724C129.988 16.5724 129.568 16.6918 129.201 16.9304C128.835 17.1662 128.548 17.5128 128.341 17.9702C128.133 18.4247 128.029 18.9801 128.029 19.6364C128.029 20.304 128.133 20.8665 128.341 21.3239C128.551 21.7784 128.838 22.1222 129.201 22.3551C129.568 22.5852 129.987 22.7003 130.458 22.7003C130.72 22.7003 130.964 22.6662 131.191 22.598C131.422 22.527 131.627 22.4233 131.809 22.2869C131.994 22.1506 132.149 21.983 132.274 21.7841C132.402 21.5852 132.49 21.358 132.538 21.1023L134.132 21.1108C134.072 21.5256 133.943 21.9148 133.744 22.2784C133.548 22.642 133.291 22.9631 132.973 23.2415C132.654 23.517 132.282 23.733 131.856 23.8892C131.43 24.0426 130.957 24.1193 130.437 24.1193C129.67 24.1193 128.985 23.9418 128.383 23.5866C127.781 23.2315 127.306 22.7188 126.96 22.0483C126.613 21.3778 126.44 20.5739 126.44 19.6364C126.44 18.696 126.615 17.892 126.964 17.2244C127.314 16.554 127.789 16.0412 128.392 15.6861C128.994 15.331 129.676 15.1534 130.437 15.1534C130.923 15.1534 131.375 15.2216 131.792 15.358C132.21 15.4943 132.582 15.6946 132.909 15.9588C133.235 16.2202 133.504 16.5412 133.714 16.9219C133.927 17.2997 134.066 17.7315 134.132 18.2173ZM137.395 24.1321C136.98 24.1321 136.607 24.0582 136.274 23.9105C135.945 23.7599 135.683 23.5384 135.49 23.2457C135.3 22.9531 135.205 22.5923 135.205 22.1634C135.205 21.794 135.273 21.4886 135.409 21.2472C135.545 21.0057 135.732 20.8125 135.967 20.6676C136.203 20.5227 136.469 20.4134 136.764 20.3395C137.063 20.2628 137.371 20.2074 137.689 20.1733C138.072 20.1335 138.384 20.098 138.622 20.0668C138.861 20.0327 139.034 19.9815 139.142 19.9134C139.253 19.8423 139.308 19.733 139.308 19.5852V19.5597C139.308 19.2386 139.213 18.9901 139.023 18.8139C138.832 18.6378 138.558 18.5497 138.2 18.5497C137.822 18.5497 137.523 18.6321 137.301 18.7969C137.082 18.9616 136.935 19.1562 136.858 19.3807L135.418 19.1761C135.531 18.7784 135.719 18.446 135.98 18.179C136.241 17.9091 136.561 17.7074 136.939 17.5739C137.317 17.4375 137.734 17.3693 138.192 17.3693C138.507 17.3693 138.821 17.4062 139.134 17.4801C139.446 17.554 139.732 17.6761 139.99 17.8466C140.249 18.0142 140.456 18.2429 140.612 18.5327C140.771 18.8224 140.851 19.1847 140.851 19.6193V24H139.368V23.1009H139.317C139.223 23.2827 139.091 23.4531 138.92 23.6122C138.753 23.7685 138.541 23.8949 138.286 23.9915C138.033 24.0852 137.736 24.1321 137.395 24.1321ZM137.795 22.9986C138.105 22.9986 138.374 22.9375 138.601 22.8153C138.828 22.6903 139.003 22.5256 139.125 22.321C139.25 22.1165 139.312 21.8935 139.312 21.652V20.8807C139.264 20.9205 139.182 20.9574 139.065 20.9915C138.952 21.0256 138.824 21.0554 138.682 21.081C138.54 21.1065 138.399 21.1293 138.26 21.1491C138.121 21.169 138 21.1861 137.898 21.2003C137.668 21.2315 137.462 21.2827 137.28 21.3537C137.098 21.4247 136.955 21.5241 136.849 21.652C136.744 21.777 136.692 21.9389 136.692 22.1378C136.692 22.4219 136.795 22.6364 137.003 22.7812C137.21 22.9261 137.474 22.9986 137.795 22.9986ZM146.574 21.2472V17.4545H148.116V24H146.621V22.8366H146.553C146.405 23.2031 146.162 23.5028 145.824 23.7358C145.489 23.9687 145.075 24.0852 144.584 24.0852C144.155 24.0852 143.776 23.9901 143.446 23.7997C143.119 23.6065 142.864 23.3267 142.679 22.9602C142.494 22.5909 142.402 22.1449 142.402 21.6222V17.4545H143.945V21.3835C143.945 21.7983 144.058 22.1278 144.286 22.3722C144.513 22.6165 144.811 22.7386 145.18 22.7386C145.408 22.7386 145.628 22.6832 145.841 22.5724C146.054 22.4616 146.229 22.2969 146.365 22.0781C146.504 21.8565 146.574 21.5795 146.574 21.2472ZM154.876 19.1847L153.47 19.3381C153.43 19.196 153.36 19.0625 153.261 18.9375C153.164 18.8125 153.034 18.7116 152.869 18.6349C152.704 18.5582 152.502 18.5199 152.264 18.5199C151.943 18.5199 151.673 18.5895 151.454 18.7287C151.238 18.8679 151.132 19.0483 151.135 19.2699C151.132 19.4602 151.201 19.6151 151.343 19.7344C151.488 19.8537 151.727 19.9517 152.059 20.0284L153.176 20.267C153.795 20.4006 154.255 20.6122 154.556 20.902C154.86 21.1918 155.014 21.571 155.017 22.0398C155.014 22.4517 154.893 22.8153 154.654 23.1307C154.419 23.4432 154.091 23.6875 153.67 23.8636C153.25 24.0398 152.767 24.1278 152.221 24.1278C151.42 24.1278 150.775 23.9602 150.287 23.625C149.798 23.2869 149.507 22.8168 149.413 22.2145L150.917 22.0696C150.985 22.3651 151.13 22.5881 151.352 22.7386C151.574 22.8892 151.862 22.9645 152.217 22.9645C152.583 22.9645 152.877 22.8892 153.099 22.7386C153.324 22.5881 153.436 22.402 153.436 22.1804C153.436 21.9929 153.363 21.8381 153.218 21.7159C153.076 21.5937 152.855 21.5 152.554 21.4347L151.437 21.2003C150.809 21.0696 150.345 20.8494 150.044 20.5398C149.743 20.2273 149.593 19.8324 149.596 19.3551C149.593 18.9517 149.703 18.6023 149.924 18.3068C150.149 18.0085 150.46 17.7784 150.858 17.6165C151.258 17.4517 151.72 17.3693 152.243 17.3693C153.01 17.3693 153.613 17.5327 154.054 17.8594C154.497 18.1861 154.771 18.6278 154.876 19.1847ZM159.186 24.1278C158.53 24.1278 157.963 23.9915 157.486 23.7188C157.012 23.4432 156.647 23.054 156.391 22.5511C156.135 22.0455 156.007 21.4503 156.007 20.7656C156.007 20.0923 156.135 19.5014 156.391 18.9929C156.65 18.4815 157.01 18.0838 157.473 17.7997C157.936 17.5128 158.48 17.3693 159.105 17.3693C159.509 17.3693 159.89 17.4347 160.248 17.5653C160.608 17.6932 160.926 17.892 161.202 18.1619C161.48 18.4318 161.699 18.7756 161.858 19.1932C162.017 19.608 162.097 20.1023 162.097 20.6761V21.1491H156.732V20.1094H160.618C160.615 19.8139 160.551 19.5511 160.426 19.321C160.301 19.0881 160.127 18.9048 159.902 18.7713C159.681 18.6378 159.422 18.571 159.127 18.571C158.811 18.571 158.534 18.6477 158.296 18.8011C158.057 18.9517 157.871 19.1506 157.738 19.3977C157.607 19.642 157.54 19.9105 157.537 20.2031V21.1108C157.537 21.4915 157.607 21.8182 157.746 22.0909C157.885 22.3608 158.08 22.5682 158.33 22.7131C158.58 22.8551 158.873 22.9261 159.208 22.9261C159.432 22.9261 159.635 22.8949 159.817 22.8324C159.999 22.767 160.157 22.6719 160.29 22.5469C160.424 22.4219 160.525 22.267 160.593 22.0824L162.033 22.2443C161.942 22.625 161.769 22.9574 161.513 23.2415C161.26 23.5227 160.936 23.7415 160.542 23.8977C160.147 24.0511 159.695 24.1278 159.186 24.1278ZM166.964 14.8636L164.152 25.3125H162.801L165.614 14.8636H166.964ZM167.949 24V17.4545H169.423V18.5668H169.5C169.636 18.1918 169.862 17.8991 170.178 17.6889C170.493 17.4759 170.869 17.3693 171.307 17.3693C171.75 17.3693 172.124 17.4773 172.428 17.6932C172.734 17.9062 172.95 18.1974 173.075 18.5668H173.143C173.288 18.2031 173.533 17.9134 173.876 17.6974C174.223 17.4787 174.634 17.3693 175.108 17.3693C175.71 17.3693 176.202 17.5597 176.582 17.9403C176.963 18.321 177.153 18.8764 177.153 19.6065V24H175.607V19.8452C175.607 19.4389 175.499 19.142 175.283 18.9545C175.067 18.7642 174.803 18.669 174.49 18.669C174.118 18.669 173.827 18.7855 173.616 19.0185C173.409 19.2486 173.305 19.5483 173.305 19.9176V24H171.793V19.7812C171.793 19.4432 171.69 19.1733 171.486 18.9716C171.284 18.7699 171.02 18.669 170.693 18.669C170.472 18.669 170.27 18.7259 170.088 18.8395C169.906 18.9503 169.761 19.108 169.653 19.3125C169.545 19.5142 169.491 19.75 169.491 20.0199V24H167.949ZM181.616 24.1278C180.96 24.1278 180.393 23.9915 179.916 23.7188C179.441 23.4432 179.076 23.054 178.821 22.5511C178.565 22.0455 178.437 21.4503 178.437 20.7656C178.437 20.0923 178.565 19.5014 178.821 18.9929C179.079 18.4815 179.44 18.0838 179.903 17.7997C180.366 17.5128 180.91 17.3693 181.535 17.3693C181.939 17.3693 182.319 17.4347 182.677 17.5653C183.038 17.6932 183.356 17.892 183.632 18.1619C183.91 18.4318 184.129 18.7756 184.288 19.1932C184.447 19.608 184.527 20.1023 184.527 20.6761V21.1491H179.162V20.1094H183.048C183.045 19.8139 182.981 19.5511 182.856 19.321C182.731 19.0881 182.556 18.9048 182.332 18.7713C182.11 18.6378 181.852 18.571 181.556 18.571C181.241 18.571 180.964 18.6477 180.725 18.8011C180.487 18.9517 180.301 19.1506 180.167 19.3977C180.037 19.642 179.97 19.9105 179.967 20.2031V21.1108C179.967 21.4915 180.037 21.8182 180.176 22.0909C180.315 22.3608 180.51 22.5682 180.76 22.7131C181.01 22.8551 181.302 22.9261 181.637 22.9261C181.862 22.9261 182.065 22.8949 182.247 22.8324C182.429 22.767 182.586 22.6719 182.72 22.5469C182.853 22.4219 182.954 22.267 183.022 22.0824L184.463 22.2443C184.372 22.625 184.199 22.9574 183.943 23.2415C183.69 23.5227 183.366 23.7415 182.971 23.8977C182.576 24.0511 182.125 24.1278 181.616 24.1278ZM189.1 17.4545V18.6477H185.337V17.4545H189.1ZM186.266 15.8864H187.809V22.0312C187.809 22.2386 187.84 22.3977 187.903 22.5085C187.968 22.6165 188.053 22.6903 188.158 22.7301C188.263 22.7699 188.38 22.7898 188.508 22.7898C188.604 22.7898 188.692 22.7827 188.772 22.7685C188.854 22.7543 188.917 22.7415 188.96 22.7301L189.219 23.9361C189.137 23.9645 189.019 23.9957 188.866 24.0298C188.715 24.0639 188.531 24.0838 188.312 24.0895C187.925 24.1009 187.577 24.0426 187.268 23.9148C186.958 23.7841 186.712 23.5824 186.531 23.3097C186.352 23.0369 186.263 22.696 186.266 22.2869V15.8864ZM192.074 20.1648V24H190.531V15.2727H192.039V18.5668H192.116C192.27 18.1974 192.507 17.9062 192.828 17.6932C193.152 17.4773 193.564 17.3693 194.064 17.3693C194.518 17.3693 194.914 17.4645 195.252 17.6548C195.591 17.8452 195.852 18.1236 196.037 18.4901C196.224 18.8565 196.318 19.304 196.318 19.8324V24H194.775V20.071C194.775 19.6307 194.662 19.2884 194.434 19.044C194.21 18.7969 193.895 18.6733 193.488 18.6733C193.216 18.6733 192.971 18.733 192.755 18.8523C192.542 18.9687 192.375 19.1378 192.252 19.3594C192.133 19.581 192.074 19.8494 192.074 20.1648ZM200.745 24.1278C200.106 24.1278 199.552 23.9872 199.083 23.706C198.615 23.4247 198.251 23.0312 197.993 22.5256C197.737 22.0199 197.609 21.429 197.609 20.7528C197.609 20.0767 197.737 19.4844 197.993 18.9759C198.251 18.4673 198.615 18.0724 199.083 17.7912C199.552 17.5099 200.106 17.3693 200.745 17.3693C201.385 17.3693 201.939 17.5099 202.407 17.7912C202.876 18.0724 203.238 18.4673 203.494 18.9759C203.752 19.4844 203.882 20.0767 203.882 20.7528C203.882 21.429 203.752 22.0199 203.494 22.5256C203.238 23.0312 202.876 23.4247 202.407 23.706C201.939 23.9872 201.385 24.1278 200.745 24.1278ZM200.754 22.892C201.1 22.892 201.39 22.7969 201.623 22.6065C201.856 22.4134 202.029 22.1548 202.143 21.831C202.26 21.5071 202.318 21.1463 202.318 20.7486C202.318 20.348 202.26 19.9858 202.143 19.6619C202.029 19.3352 201.856 19.0753 201.623 18.8821C201.39 18.6889 201.1 18.5923 200.754 18.5923C200.399 18.5923 200.103 18.6889 199.868 18.8821C199.635 19.0753 199.46 19.3352 199.343 19.6619C199.23 19.9858 199.173 20.348 199.173 20.7486C199.173 21.1463 199.23 21.5071 199.343 21.831C199.46 22.1548 199.635 22.4134 199.868 22.6065C200.103 22.7969 200.399 22.892 200.754 22.892ZM207.62 24.1151C207.106 24.1151 206.646 23.983 206.239 23.7188C205.833 23.4545 205.512 23.071 205.276 22.5682C205.04 22.0653 204.923 21.4545 204.923 20.7358C204.923 20.0085 205.042 19.3949 205.281 18.8949C205.522 18.392 205.847 18.0128 206.256 17.7571C206.665 17.4986 207.121 17.3693 207.624 17.3693C208.008 17.3693 208.323 17.4347 208.57 17.5653C208.817 17.6932 209.013 17.848 209.158 18.0298C209.303 18.2088 209.415 18.3778 209.495 18.5369H209.559V15.2727H211.106V24H209.589V22.9688H209.495C209.415 23.1278 209.3 23.2969 209.15 23.4759C208.999 23.652 208.8 23.8026 208.553 23.9276C208.306 24.0526 207.995 24.1151 207.62 24.1151ZM208.05 22.8494C208.377 22.8494 208.656 22.7614 208.886 22.5852C209.116 22.4062 209.29 22.1577 209.41 21.8395C209.529 21.5213 209.589 21.1506 209.589 20.7273C209.589 20.304 209.529 19.9361 209.41 19.6236C209.293 19.3111 209.12 19.0682 208.89 18.8949C208.663 18.7216 208.383 18.6349 208.05 18.6349C207.707 18.6349 207.42 18.7244 207.19 18.9034C206.96 19.0824 206.786 19.3295 206.67 19.6449C206.553 19.9602 206.495 20.321 206.495 20.7273C206.495 21.1364 206.553 21.5014 206.67 21.8224C206.789 22.1406 206.964 22.392 207.194 22.5767C207.427 22.7585 207.712 22.8494 208.05 22.8494Z" fill="black"/>
<mask id="path-8-inside-3_613_38808" fill="white">
<path d="M227.6 0H341.4V39H227.6V0Z"/>
</mask>
<path d="M340.4 0V39H342.4V0H340.4Z" fill="#E0E0E0" mask="url(#path-8-inside-3_613_38808)"/>
<path d="M242.297 24L239.834 15.2727H241.534L243.107 21.6861H243.188L244.867 15.2727H246.414L248.097 21.6903H248.173L249.746 15.2727H251.446L248.983 24H247.423L245.676 17.8764H245.608L243.857 24H242.297ZM254.661 24.1278C254.022 24.1278 253.468 23.9872 252.999 23.706C252.531 23.4247 252.167 23.0312 251.909 22.5256C251.653 22.0199 251.525 21.429 251.525 20.7528C251.525 20.0767 251.653 19.4844 251.909 18.9759C252.167 18.4673 252.531 18.0724 252.999 17.7912C253.468 17.5099 254.022 17.3693 254.661 17.3693C255.301 17.3693 255.855 17.5099 256.323 17.7912C256.792 18.0724 257.154 18.4673 257.41 18.9759C257.669 19.4844 257.798 20.0767 257.798 20.7528C257.798 21.429 257.669 22.0199 257.41 22.5256C257.154 23.0312 256.792 23.4247 256.323 23.706C255.855 23.9872 255.301 24.1278 254.661 24.1278ZM254.67 22.892C255.017 22.892 255.306 22.7969 255.539 22.6065C255.772 22.4134 255.945 22.1548 256.059 21.831C256.176 21.5071 256.234 21.1463 256.234 20.7486C256.234 20.348 256.176 19.9858 256.059 19.6619C255.945 19.3352 255.772 19.0753 255.539 18.8821C255.306 18.6889 255.017 18.5923 254.67 18.5923C254.315 18.5923 254.019 18.6889 253.784 18.8821C253.551 19.0753 253.376 19.3352 253.259 19.6619C253.146 19.9858 253.089 20.348 253.089 20.7486C253.089 21.1463 253.146 21.5071 253.259 21.831C253.376 22.1548 253.551 22.4134 253.784 22.6065C254.019 22.7969 254.315 22.892 254.67 22.892ZM259.107 24V17.4545H260.603V18.5455H260.671C260.79 18.1676 260.995 17.8764 261.285 17.6719C261.577 17.4645 261.911 17.3608 262.286 17.3608C262.371 17.3608 262.466 17.3651 262.572 17.3736C262.68 17.3793 262.769 17.3892 262.84 17.4034V18.8224C262.775 18.7997 262.671 18.7798 262.529 18.7628C262.39 18.7429 262.255 18.733 262.124 18.733C261.843 18.733 261.59 18.794 261.366 18.9162C261.144 19.0355 260.969 19.2017 260.841 19.4148C260.714 19.6278 260.65 19.8736 260.65 20.152V24H259.107ZM266.024 24.1151C265.51 24.1151 265.05 23.983 264.644 23.7188C264.237 23.4545 263.916 23.071 263.681 22.5682C263.445 22.0653 263.327 21.4545 263.327 20.7358C263.327 20.0085 263.446 19.3949 263.685 18.8949C263.926 18.392 264.252 18.0128 264.661 17.7571C265.07 17.4986 265.526 17.3693 266.029 17.3693C266.412 17.3693 266.727 17.4347 266.975 17.5653C267.222 17.6932 267.418 17.848 267.563 18.0298C267.708 18.2088 267.82 18.3778 267.899 18.5369H267.963V15.2727H269.51V24H267.993V22.9688H267.899C267.82 23.1278 267.705 23.2969 267.554 23.4759C267.404 23.652 267.205 23.8026 266.958 23.9276C266.71 24.0526 266.399 24.1151 266.024 24.1151ZM266.455 22.8494C266.781 22.8494 267.06 22.7614 267.29 22.5852C267.52 22.4062 267.695 22.1577 267.814 21.8395C267.933 21.5213 267.993 21.1506 267.993 20.7273C267.993 20.304 267.933 19.9361 267.814 19.6236C267.698 19.3111 267.524 19.0682 267.294 18.8949C267.067 18.7216 266.787 18.6349 266.455 18.6349C266.111 18.6349 265.824 18.7244 265.594 18.9034C265.364 19.0824 265.191 19.3295 265.074 19.6449C264.958 19.9602 264.899 20.321 264.899 20.7273C264.899 21.1364 264.958 21.5014 265.074 21.8224C265.193 22.1406 265.368 22.392 265.598 22.5767C265.831 22.7585 266.117 22.8494 266.455 22.8494ZM271.154 24V17.4545H272.697V24H271.154ZM271.93 16.5256C271.685 16.5256 271.475 16.4446 271.299 16.2827C271.123 16.1179 271.035 15.9205 271.035 15.6903C271.035 15.4574 271.123 15.2599 271.299 15.098C271.475 14.9332 271.685 14.8509 271.93 14.8509C272.177 14.8509 272.387 14.9332 272.56 15.098C272.736 15.2599 272.824 15.4574 272.824 15.6903C272.824 15.9205 272.736 16.1179 272.56 16.2827C272.387 16.4446 272.177 16.5256 271.93 16.5256ZM275.825 20.1648V24H274.283V17.4545H275.757V18.5668H275.834C275.985 18.2003 276.225 17.9091 276.554 17.6932C276.887 17.4773 277.297 17.3693 277.786 17.3693C278.237 17.3693 278.631 17.4659 278.966 17.6591C279.304 17.8523 279.566 18.1321 279.75 18.4986C279.938 18.8651 280.03 19.3097 280.027 19.8324V24H278.485V20.071C278.485 19.6335 278.371 19.2912 278.144 19.044C277.919 18.7969 277.608 18.6733 277.21 18.6733C276.941 18.6733 276.7 18.733 276.49 18.8523C276.283 18.9687 276.119 19.1378 276 19.3594C275.884 19.581 275.825 19.8494 275.825 20.1648ZM284.442 26.5909C283.888 26.5909 283.412 26.5156 283.014 26.3651C282.617 26.2173 282.297 26.0185 282.056 25.7685C281.814 25.5185 281.646 25.2415 281.553 24.9375L282.942 24.6009C283.004 24.7287 283.095 24.8551 283.215 24.9801C283.334 25.108 283.494 25.2131 283.696 25.2955C283.901 25.3807 284.158 25.4233 284.468 25.4233C284.905 25.4233 285.267 25.3168 285.554 25.1037C285.841 24.8935 285.985 24.5469 285.985 24.0639V22.8239H285.908C285.828 22.983 285.712 23.1463 285.558 23.3139C285.408 23.4815 285.208 23.6222 284.958 23.7358C284.71 23.8494 284.399 23.9062 284.024 23.9062C283.521 23.9062 283.066 23.7884 282.656 23.5526C282.25 23.3139 281.926 22.9588 281.685 22.4872C281.446 22.0128 281.327 21.419 281.327 20.706C281.327 19.9872 281.446 19.3807 281.685 18.8864C281.926 18.3892 282.252 18.0128 282.661 17.7571C283.07 17.4986 283.526 17.3693 284.029 17.3693C284.412 17.3693 284.727 17.4347 284.975 17.5653C285.225 17.6932 285.423 17.848 285.571 18.0298C285.719 18.2088 285.831 18.3778 285.908 18.5369H285.993V17.4545H287.514V24.1065C287.514 24.6662 287.381 25.1293 287.114 25.4957C286.847 25.8622 286.482 26.1364 286.019 26.3182C285.556 26.5 285.03 26.5909 284.442 26.5909ZM284.455 22.696C284.781 22.696 285.06 22.6165 285.29 22.4574C285.52 22.2983 285.695 22.0696 285.814 21.7713C285.933 21.473 285.993 21.1151 285.993 20.6974C285.993 20.2855 285.933 19.9247 285.814 19.6151C285.698 19.3054 285.524 19.0653 285.294 18.8949C285.067 18.7216 284.787 18.6349 284.455 18.6349C284.111 18.6349 283.824 18.7244 283.594 18.9034C283.364 19.0824 283.191 19.3281 283.074 19.6406C282.958 19.9503 282.899 20.3026 282.899 20.6974C282.899 21.098 282.958 21.4489 283.074 21.75C283.193 22.0483 283.368 22.2812 283.598 22.4489C283.831 22.6136 284.117 22.696 284.455 22.696Z" fill="black"/>
<mask id="path-11-inside-4_613_38808" fill="white">
<path d="M341.4 0H455.2V39H341.4V0Z"/>
</mask>
<path d="M454.2 0V39H456.2V0H454.2Z" fill="#E0E0E0" mask="url(#path-11-inside-4_613_38808)"/>
<path d="M361.731 18.2173H360.138C360.092 17.956 360.008 17.7244 359.886 17.5227C359.764 17.3182 359.612 17.1449 359.43 17.0028C359.248 16.8608 359.041 16.7543 358.808 16.6832C358.578 16.6094 358.329 16.5724 358.062 16.5724C357.588 16.5724 357.167 16.6918 356.801 16.9304C356.434 17.1662 356.148 17.5128 355.94 17.9702C355.733 18.4247 355.629 18.9801 355.629 19.6364C355.629 20.304 355.733 20.8665 355.94 21.3239C356.15 21.7784 356.437 22.1222 356.801 22.3551C357.167 22.5852 357.586 22.7003 358.058 22.7003C358.319 22.7003 358.564 22.6662 358.791 22.598C359.021 22.527 359.227 22.4233 359.409 22.2869C359.594 22.1506 359.748 21.983 359.873 21.7841C360.001 21.5852 360.089 21.358 360.138 21.1023L361.731 21.1108C361.672 21.5256 361.542 21.9148 361.344 22.2784C361.148 22.642 360.89 22.9631 360.572 23.2415C360.254 23.517 359.882 23.733 359.456 23.8892C359.03 24.0426 358.557 24.1193 358.037 24.1193C357.27 24.1193 356.585 23.9418 355.983 23.5866C355.381 23.2315 354.906 22.7188 354.559 22.0483C354.213 21.3778 354.04 20.5739 354.04 19.6364C354.04 18.696 354.214 17.892 354.564 17.2244C354.913 16.554 355.389 16.0412 355.991 15.6861C356.594 15.331 357.275 15.1534 358.037 15.1534C358.523 15.1534 358.974 15.2216 359.392 15.358C359.809 15.4943 360.182 15.6946 360.508 15.9588C360.835 16.2202 361.104 16.5412 361.314 16.9219C361.527 17.2997 361.666 17.7315 361.731 18.2173ZM364.654 20.1648V24H363.111V15.2727H364.619V18.5668H364.696C364.85 18.1974 365.087 17.9062 365.408 17.6932C365.732 17.4773 366.144 17.3693 366.644 17.3693C367.098 17.3693 367.494 17.4645 367.833 17.6548C368.171 17.8452 368.432 18.1236 368.617 18.4901C368.804 18.8565 368.898 19.304 368.898 19.8324V24H367.355V20.071C367.355 19.6307 367.242 19.2884 367.014 19.044C366.79 18.7969 366.475 18.6733 366.068 18.6733C365.796 18.6733 365.551 18.733 365.335 18.8523C365.122 18.9687 364.955 19.1378 364.833 19.3594C364.713 19.581 364.654 19.8494 364.654 20.1648ZM372.354 24.1321C371.939 24.1321 371.566 24.0582 371.233 23.9105C370.904 23.7599 370.642 23.5384 370.449 23.2457C370.259 22.9531 370.164 22.5923 370.164 22.1634C370.164 21.794 370.232 21.4886 370.368 21.2472C370.504 21.0057 370.691 20.8125 370.926 20.6676C371.162 20.5227 371.428 20.4134 371.723 20.3395C372.021 20.2628 372.33 20.2074 372.648 20.1733C373.031 20.1335 373.343 20.098 373.581 20.0668C373.82 20.0327 373.993 19.9815 374.101 19.9134C374.212 19.8423 374.267 19.733 374.267 19.5852V19.5597C374.267 19.2386 374.172 18.9901 373.982 18.8139C373.791 18.6378 373.517 18.5497 373.159 18.5497C372.781 18.5497 372.482 18.6321 372.26 18.7969C372.041 18.9616 371.894 19.1562 371.817 19.3807L370.377 19.1761C370.49 18.7784 370.678 18.446 370.939 18.179C371.2 17.9091 371.52 17.7074 371.898 17.5739C372.276 17.4375 372.693 17.3693 373.151 17.3693C373.466 17.3693 373.78 17.4062 374.093 17.4801C374.405 17.554 374.691 17.6761 374.949 17.8466C375.208 18.0142 375.415 18.2429 375.571 18.5327C375.73 18.8224 375.81 19.1847 375.81 19.6193V24H374.327V23.1009H374.276C374.182 23.2827 374.05 23.4531 373.879 23.6122C373.712 23.7685 373.5 23.8949 373.244 23.9915C372.992 24.0852 372.695 24.1321 372.354 24.1321ZM372.754 22.9986C373.064 22.9986 373.333 22.9375 373.56 22.8153C373.787 22.6903 373.962 22.5256 374.084 22.321C374.209 22.1165 374.271 21.8935 374.271 21.652V20.8807C374.223 20.9205 374.141 20.9574 374.024 20.9915C373.911 21.0256 373.783 21.0554 373.641 21.081C373.499 21.1065 373.358 21.1293 373.219 21.1491C373.08 21.169 372.959 21.1861 372.857 21.2003C372.627 21.2315 372.421 21.2827 372.239 21.3537C372.057 21.4247 371.914 21.5241 371.808 21.652C371.703 21.777 371.651 21.9389 371.651 22.1378C371.651 22.4219 371.754 22.6364 371.962 22.7812C372.169 22.9261 372.433 22.9986 372.754 22.9986ZM378.904 20.1648V24H377.361V17.4545H378.835V18.5668H378.912C379.063 18.2003 379.303 17.9091 379.632 17.6932C379.965 17.4773 380.375 17.3693 380.864 17.3693C381.316 17.3693 381.709 17.4659 382.044 17.6591C382.382 17.8523 382.644 18.1321 382.828 18.4986C383.016 18.8651 383.108 19.3097 383.105 19.8324V24H381.563V20.071C381.563 19.6335 381.449 19.2912 381.222 19.044C380.997 18.7969 380.686 18.6733 380.289 18.6733C380.019 18.6733 379.779 18.733 379.568 18.8523C379.361 18.9687 379.198 19.1378 379.078 19.3594C378.962 19.581 378.904 19.8494 378.904 20.1648ZM387.52 26.5909C386.966 26.5909 386.49 26.5156 386.093 26.3651C385.695 26.2173 385.375 26.0185 385.134 25.7685C384.892 25.5185 384.725 25.2415 384.631 24.9375L386.02 24.6009C386.083 24.7287 386.173 24.8551 386.293 24.9801C386.412 25.108 386.573 25.2131 386.774 25.2955C386.979 25.3807 387.236 25.4233 387.546 25.4233C387.983 25.4233 388.345 25.3168 388.632 25.1037C388.919 24.8935 389.063 24.5469 389.063 24.0639V22.8239H388.986C388.906 22.983 388.79 23.1463 388.637 23.3139C388.486 23.4815 388.286 23.6222 388.036 23.7358C387.789 23.8494 387.477 23.9062 387.102 23.9062C386.6 23.9062 386.144 23.7884 385.735 23.5526C385.328 23.3139 385.004 22.9588 384.763 22.4872C384.524 22.0128 384.405 21.419 384.405 20.706C384.405 19.9872 384.524 19.3807 384.763 18.8864C385.004 18.3892 385.33 18.0128 385.739 17.7571C386.148 17.4986 386.604 17.3693 387.107 17.3693C387.49 17.3693 387.806 17.4347 388.053 17.5653C388.303 17.6932 388.502 17.848 388.649 18.0298C388.797 18.2088 388.909 18.3778 388.986 18.5369H389.071V17.4545H390.593V24.1065C390.593 24.6662 390.459 25.1293 390.192 25.4957C389.925 25.8622 389.56 26.1364 389.097 26.3182C388.634 26.5 388.108 26.5909 387.52 26.5909ZM387.533 22.696C387.86 22.696 388.138 22.6165 388.368 22.4574C388.598 22.2983 388.773 22.0696 388.892 21.7713C389.012 21.473 389.071 21.1151 389.071 20.6974C389.071 20.2855 389.012 19.9247 388.892 19.6151C388.776 19.3054 388.602 19.0653 388.372 18.8949C388.145 18.7216 387.865 18.6349 387.533 18.6349C387.189 18.6349 386.902 18.7244 386.672 18.9034C386.442 19.0824 386.269 19.3281 386.152 19.6406C386.036 19.9503 385.977 20.3026 385.977 20.6974C385.977 21.098 386.036 21.4489 386.152 21.75C386.271 22.0483 386.446 22.2812 386.676 22.4489C386.909 22.6136 387.195 22.696 387.533 22.696ZM395.071 24.1278C394.415 24.1278 393.848 23.9915 393.371 23.7188C392.896 23.4432 392.531 23.054 392.276 22.5511C392.02 22.0455 391.892 21.4503 391.892 20.7656C391.892 20.0923 392.02 19.5014 392.276 18.9929C392.534 18.4815 392.895 18.0838 393.358 17.7997C393.821 17.5128 394.365 17.3693 394.99 17.3693C395.394 17.3693 395.774 17.4347 396.132 17.5653C396.493 17.6932 396.811 17.892 397.087 18.1619C397.365 18.4318 397.584 18.7756 397.743 19.1932C397.902 19.608 397.982 20.1023 397.982 20.6761V21.1491H392.617V20.1094H396.503C396.5 19.8139 396.436 19.5511 396.311 19.321C396.186 19.0881 396.012 18.9048 395.787 18.7713C395.566 18.6378 395.307 18.571 395.012 18.571C394.696 18.571 394.419 18.6477 394.181 18.8011C393.942 18.9517 393.756 19.1506 393.622 19.3977C393.492 19.642 393.425 19.9105 393.422 20.2031V21.1108C393.422 21.4915 393.492 21.8182 393.631 22.0909C393.77 22.3608 393.965 22.5682 394.215 22.7131C394.465 22.8551 394.757 22.9261 395.093 22.9261C395.317 22.9261 395.52 22.8949 395.702 22.8324C395.884 22.767 396.041 22.6719 396.175 22.5469C396.308 22.4219 396.409 22.267 396.477 22.0824L397.918 22.2443C397.827 22.625 397.654 22.9574 397.398 23.2415C397.145 23.5227 396.821 23.7415 396.426 23.8977C396.031 24.0511 395.58 24.1278 395.071 24.1278ZM404.46 19.1847L403.054 19.3381C403.014 19.196 402.944 19.0625 402.845 18.9375C402.748 18.8125 402.618 18.7116 402.453 18.6349C402.288 18.5582 402.086 18.5199 401.848 18.5199C401.527 18.5199 401.257 18.5895 401.038 18.7287C400.822 18.8679 400.716 19.0483 400.719 19.2699C400.716 19.4602 400.785 19.6151 400.927 19.7344C401.072 19.8537 401.311 19.9517 401.643 20.0284L402.76 20.267C403.379 20.4006 403.839 20.6122 404.14 20.902C404.444 21.1918 404.598 21.571 404.601 22.0398C404.598 22.4517 404.477 22.8153 404.238 23.1307C404.003 23.4432 403.675 23.6875 403.254 23.8636C402.834 24.0398 402.351 24.1278 401.805 24.1278C401.004 24.1278 400.359 23.9602 399.871 23.625C399.382 23.2869 399.091 22.8168 398.997 22.2145L400.501 22.0696C400.569 22.3651 400.714 22.5881 400.936 22.7386C401.157 22.8892 401.446 22.9645 401.801 22.9645C402.167 22.9645 402.461 22.8892 402.683 22.7386C402.907 22.5881 403.02 22.402 403.02 22.1804C403.02 21.9929 402.947 21.8381 402.802 21.7159C402.66 21.5937 402.439 21.5 402.138 21.4347L401.021 21.2003C400.393 21.0696 399.929 20.8494 399.628 20.5398C399.327 20.2273 399.177 19.8324 399.18 19.3551C399.177 18.9517 399.287 18.6023 399.508 18.3068C399.733 18.0085 400.044 17.7784 400.442 17.6165C400.842 17.4517 401.304 17.3693 401.827 17.3693C402.594 17.3693 403.197 17.5327 403.638 17.8594C404.081 18.1861 404.355 18.6278 404.46 19.1847Z" fill="black"/>
<mask id="path-14-inside-5_613_38808" fill="white">
<path d="M455.199 0H568.999V39H455.199V0Z"/>
</mask>
<path d="M567.999 0V39H569.999V0H567.999Z" fill="#E0E0E0" mask="url(#path-14-inside-5_613_38808)"/>
<path d="M468.06 24V15.2727H473.736V16.598H469.641V18.9673H473.442V20.2926H469.641V22.6747H473.77V24H468.06ZM475.281 24V17.4545H476.777V18.5455H476.845C476.964 18.1676 477.169 17.8764 477.458 17.6719C477.751 17.4645 478.085 17.3608 478.46 17.3608C478.545 17.3608 478.64 17.3651 478.745 17.3736C478.853 17.3793 478.943 17.3892 479.014 17.4034V18.8224C478.949 18.7997 478.845 18.7798 478.703 18.7628C478.564 18.7429 478.429 18.733 478.298 18.733C478.017 18.733 477.764 18.794 477.539 18.9162C477.318 19.0355 477.143 19.2017 477.015 19.4148C476.887 19.6278 476.824 19.8736 476.824 20.152V24H475.281ZM480.039 24V17.4545H481.534V18.5455H481.603C481.722 18.1676 481.926 17.8764 482.216 17.6719C482.509 17.4645 482.843 17.3608 483.218 17.3608C483.303 17.3608 483.398 17.3651 483.503 17.3736C483.611 17.3793 483.701 17.3892 483.772 17.4034V18.8224C483.706 18.7997 483.603 18.7798 483.461 18.7628C483.321 18.7429 483.186 18.733 483.056 18.733C482.775 18.733 482.522 18.794 482.297 18.9162C482.076 19.0355 481.901 19.2017 481.773 19.4148C481.645 19.6278 481.581 19.8736 481.581 20.152V24H480.039ZM487.382 24.1278C486.743 24.1278 486.189 23.9872 485.72 23.706C485.251 23.4247 484.888 23.0312 484.629 22.5256C484.374 22.0199 484.246 21.429 484.246 20.7528C484.246 20.0767 484.374 19.4844 484.629 18.9759C484.888 18.4673 485.251 18.0724 485.72 17.7912C486.189 17.5099 486.743 17.3693 487.382 17.3693C488.021 17.3693 488.575 17.5099 489.044 17.7912C489.513 18.0724 489.875 18.4673 490.131 18.9759C490.389 19.4844 490.518 20.0767 490.518 20.7528C490.518 21.429 490.389 22.0199 490.131 22.5256C489.875 23.0312 489.513 23.4247 489.044 23.706C488.575 23.9872 488.021 24.1278 487.382 24.1278ZM487.391 22.892C487.737 22.892 488.027 22.7969 488.26 22.6065C488.493 22.4134 488.666 22.1548 488.78 21.831C488.896 21.5071 488.955 21.1463 488.955 20.7486C488.955 20.348 488.896 19.9858 488.78 19.6619C488.666 19.3352 488.493 19.0753 488.26 18.8821C488.027 18.6889 487.737 18.5923 487.391 18.5923C487.036 18.5923 486.74 18.6889 486.504 18.8821C486.271 19.0753 486.097 19.3352 485.98 19.6619C485.866 19.9858 485.81 20.348 485.81 20.7486C485.81 21.1463 485.866 21.5071 485.98 21.831C486.097 22.1548 486.271 22.4134 486.504 22.6065C486.74 22.7969 487.036 22.892 487.391 22.892ZM491.828 24V17.4545H493.324V18.5455H493.392C493.511 18.1676 493.716 17.8764 494.005 17.6719C494.298 17.4645 494.632 17.3608 495.007 17.3608C495.092 17.3608 495.187 17.3651 495.292 17.3736C495.4 17.3793 495.49 17.3892 495.561 17.4034V18.8224C495.495 18.7997 495.392 18.7798 495.25 18.7628C495.11 18.7429 494.975 18.733 494.845 18.733C494.564 18.733 494.311 18.794 494.086 18.9162C493.865 19.0355 493.69 19.2017 493.562 19.4148C493.434 19.6278 493.37 19.8736 493.37 20.152V24H491.828ZM502.831 17.4545V18.6477H499.068V17.4545H502.831ZM499.997 15.8864H501.539V22.0312C501.539 22.2386 501.571 22.3977 501.633 22.5085C501.699 22.6165 501.784 22.6903 501.889 22.7301C501.994 22.7699 502.11 22.7898 502.238 22.7898C502.335 22.7898 502.423 22.7827 502.502 22.7685C502.585 22.7543 502.647 22.7415 502.69 22.7301L502.95 23.9361C502.868 23.9645 502.75 23.9957 502.596 24.0298C502.446 24.0639 502.261 24.0838 502.042 24.0895C501.656 24.1009 501.308 24.0426 500.998 23.9148C500.689 23.7841 500.443 23.5824 500.261 23.3097C500.082 23.0369 499.994 22.696 499.997 22.2869V15.8864ZM505.08 26.4545C504.869 26.4545 504.675 26.4375 504.496 26.4034C504.32 26.3722 504.179 26.3352 504.074 26.2926L504.432 25.0909C504.656 25.1563 504.857 25.1875 505.033 25.1847C505.209 25.1818 505.364 25.1264 505.497 25.0185C505.634 24.9134 505.749 24.7372 505.842 24.4901L505.974 24.1364L503.601 17.4545H505.237L506.746 22.3977H506.814L508.327 17.4545H509.967L507.347 24.7926C507.224 25.1392 507.063 25.4361 506.861 25.6832C506.659 25.9332 506.412 26.1236 506.119 26.2543C505.83 26.3878 505.483 26.4545 505.08 26.4545ZM511.035 26.4545V17.4545H512.552V18.5369H512.641C512.721 18.3778 512.833 18.2088 512.978 18.0298C513.123 17.848 513.319 17.6932 513.566 17.5653C513.813 17.4347 514.129 17.3693 514.512 17.3693C515.018 17.3693 515.474 17.4986 515.88 17.7571C516.289 18.0128 516.613 18.392 516.852 18.8949C517.093 19.3949 517.214 20.0085 517.214 20.7358C517.214 21.4545 517.096 22.0653 516.86 22.5682C516.624 23.071 516.303 23.4545 515.897 23.7188C515.491 23.983 515.031 24.1151 514.516 24.1151C514.141 24.1151 513.83 24.0526 513.583 23.9276C513.336 23.8026 513.137 23.652 512.987 23.4759C512.839 23.2969 512.724 23.1278 512.641 22.9688H512.577V26.4545H511.035ZM512.548 20.7273C512.548 21.1506 512.607 21.5213 512.727 21.8395C512.849 22.1577 513.023 22.4062 513.251 22.5852C513.481 22.7614 513.759 22.8494 514.086 22.8494C514.427 22.8494 514.712 22.7585 514.942 22.5767C515.173 22.392 515.346 22.1406 515.462 21.8224C515.582 21.5014 515.641 21.1364 515.641 20.7273C515.641 20.321 515.583 19.9602 515.467 19.6449C515.35 19.3295 515.177 19.0824 514.947 18.9034C514.717 18.7244 514.43 18.6349 514.086 18.6349C513.756 18.6349 513.477 18.7216 513.246 18.8949C513.016 19.0682 512.842 19.3111 512.722 19.6236C512.606 19.9361 512.548 20.304 512.548 20.7273ZM521.433 24.1278C520.776 24.1278 520.21 23.9915 519.732 23.7188C519.258 23.4432 518.893 23.054 518.637 22.5511C518.381 22.0455 518.254 21.4503 518.254 20.7656C518.254 20.0923 518.381 19.5014 518.637 18.9929C518.896 18.4815 519.256 18.0838 519.719 17.7997C520.183 17.5128 520.727 17.3693 521.352 17.3693C521.755 17.3693 522.136 17.4347 522.494 17.5653C522.854 17.6932 523.173 17.892 523.448 18.1619C523.727 18.4318 523.945 18.7756 524.104 19.1932C524.263 19.608 524.343 20.1023 524.343 20.6761V21.1491H518.978V20.1094H522.864C522.862 19.8139 522.798 19.5511 522.673 19.321C522.548 19.0881 522.373 18.9048 522.148 18.7713C521.927 18.6378 521.668 18.571 521.373 18.571C521.058 18.571 520.781 18.6477 520.542 18.8011C520.303 18.9517 520.117 19.1506 519.984 19.3977C519.853 19.642 519.786 19.9105 519.783 20.2031V21.1108C519.783 21.4915 519.853 21.8182 519.992 22.0909C520.131 22.3608 520.326 22.5682 520.576 22.7131C520.826 22.8551 521.119 22.9261 521.454 22.9261C521.678 22.9261 521.881 22.8949 522.063 22.8324C522.245 22.767 522.403 22.6719 522.536 22.5469C522.67 22.4219 522.771 22.267 522.839 22.0824L524.279 22.2443C524.188 22.625 524.015 22.9574 523.759 23.2415C523.506 23.5227 523.183 23.7415 522.788 23.8977C522.393 24.0511 521.941 24.1278 521.433 24.1278Z" fill="black"/>
<mask id="path-17-inside-6_613_38808" fill="white">
<path d="M0 39H569V79H0V39Z"/>
</mask>
<path d="M569 78H0V80H569V78Z" fill="#E0E0E0" mask="url(#path-17-inside-6_613_38808)"/>
<mask id="path-19-inside-7_613_38808" fill="white">
<path d="M0 39H113.8V78H0V39Z"/>
</mask>
<path d="M112.8 39V78H114.8V39H112.8Z" fill="#E0E0E0" mask="url(#path-19-inside-7_613_38808)"/>
<path d="M26.8604 57.86H31.3724V61.46H26.8604V57.86ZM30.294 57.86H38.238V61.46H30.294V57.86ZM37.1612 57.86H45.1052V61.46H37.1612V57.86ZM44.0284 57.86H48.5404V61.46H44.0284V57.86ZM47.462 57.86H55.406V61.46H47.462V57.86ZM61.5245 57.86H69.4685V61.46H61.5245V57.86ZM68.3916 57.86H72.9036V61.46H68.3916V57.86ZM71.8252 57.86H79.7692V61.46H71.8252V57.86ZM78.6924 57.86H86.6364V61.46H78.6924V57.86Z" fill="black"/>
<mask id="path-22-inside-8_613_38808" fill="white">
<path d="M113.801 39H227.601V78H113.801V39Z"/>
</mask>
<path d="M226.601 39V78H228.601V39H226.601Z" fill="#E0E0E0" mask="url(#path-22-inside-8_613_38808)"/>
<path d="M125.261 57.86H133.205V61.46H125.261V57.86ZM132.128 57.86H140.072V61.46H132.128V57.86ZM138.995 57.86H143.507V61.46H138.995V57.86ZM142.429 57.86H146.941V61.46H142.429V57.86ZM145.862 57.86H153.806V61.46H145.862V57.86ZM152.73 57.86H160.674V61.46H152.73V57.86ZM159.597 57.86H164.109V61.46H159.597V57.86ZM163.03 57.86H167.542V61.46H163.03V57.86ZM166.464 57.86H174.408V61.46H166.464V57.86ZM173.331 57.86H181.275V61.46H173.331V57.86Z" fill="black"/>
<mask id="path-25-inside-9_613_38808" fill="white">
<path d="M227.6 39H341.4V78H227.6V39Z"/>
</mask>
<path d="M340.4 39V78H342.4V39H340.4Z" fill="#E0E0E0" mask="url(#path-25-inside-9_613_38808)"/>
<mask id="path-27-inside-10_613_38808" fill="white">
<path d="M341.4 39H455.2V78H341.4V39Z"/>
</mask>
<path d="M454.2 39V78H456.2V39H454.2Z" fill="#E0E0E0" mask="url(#path-27-inside-10_613_38808)"/>
<mask id="path-29-inside-11_613_38808" fill="white">
<path d="M455.199 39H568.999V78H455.199V39Z"/>
</mask>
<path d="M567.999 39V78H569.999V39H567.999Z" fill="#E0E0E0" mask="url(#path-29-inside-11_613_38808)"/>
<mask id="path-31-inside-12_613_38808" fill="white">
<path d="M0 79H569V146H0V79Z"/>
</mask>
<path d="M569 145H0V147H569V145Z" fill="#E0E0E0" mask="url(#path-31-inside-12_613_38808)"/>
<mask id="path-33-inside-13_613_38808" fill="white">
<path d="M0 79H113.8V145H0V79Z"/>
</mask>
<path d="M112.8 79V145H114.8V79H112.8Z" fill="#E0E0E0" mask="url(#path-33-inside-13_613_38808)"/>
<mask id="path-35-inside-14_613_38808" fill="white">
<path d="M113.801 79H227.601V145H113.801V79Z"/>
</mask>
<path d="M226.601 79V145H228.601V79H226.601Z" fill="#E0E0E0" mask="url(#path-35-inside-14_613_38808)"/>
<path d="M125.261 104.36H133.205V107.96H125.261V104.36ZM132.128 104.36H136.64V107.96H132.128V104.36ZM135.562 104.36H143.506V107.96H135.562V104.36ZM142.429 104.36H150.373V107.96H142.429V104.36ZM149.296 104.36H153.808V107.96H149.296V104.36ZM152.73 104.36H160.674V107.96H152.73V104.36ZM159.597 104.36H164.109V107.96H159.597V104.36ZM163.03 104.36H170.974V107.96H163.03V104.36ZM169.897 104.36H177.842V107.96H169.897V104.36ZM176.765 104.36H184.709V107.96H176.765V104.36ZM183.632 104.36H188.144V107.96H183.632V104.36ZM125.261 118.36H133.205V121.96H125.261V118.36ZM132.128 118.36H140.072V121.96H132.128V118.36ZM138.995 118.36H143.507V121.96H138.995V118.36ZM142.429 118.36H150.373V121.96H142.429V118.36ZM149.296 118.36H157.24V121.96H149.296V118.36ZM163.358 118.36H171.302V121.96H163.358V118.36ZM177.421 118.36H185.365V121.96H177.421V118.36ZM184.288 118.36H192.232V121.96H184.288V118.36ZM191.155 118.36H199.099V121.96H191.155V118.36ZM198.022 118.36H205.967V121.96H198.022V118.36Z" fill="black"/>
<mask id="path-38-inside-15_613_38808" fill="white">
<path d="M227.6 79H341.4V145H227.6V79Z"/>
</mask>
<path d="M340.4 79V145H342.4V79H340.4Z" fill="#E0E0E0" mask="url(#path-38-inside-15_613_38808)"/>
<path d="M239.06 97.36H247.004V100.96H239.06V97.36ZM245.927 97.36H253.871V100.96H245.927V97.36ZM252.794 97.36H260.738V100.96H252.794V97.36ZM259.661 97.36H267.605V100.96H259.661V97.36ZM266.528 97.36H274.472V100.96H266.528V97.36ZM273.396 97.36H277.908V100.96H273.396V97.36ZM276.829 97.36H284.773V100.96H276.829V97.36ZM290.892 97.36H298.836V100.96H290.892V97.36ZM297.759 97.36H305.703V100.96H297.759V97.36ZM304.626 97.36H309.138V100.96H304.626V97.36ZM308.06 97.36H316.004V100.96H308.06V97.36ZM314.927 97.36H322.871V100.96H314.927V97.36ZM239.06 111.36H247.004V114.96H239.06V111.36ZM253.122 111.36H261.066V114.96H253.122V111.36ZM259.989 111.36H267.933V114.96H259.989V111.36ZM266.856 111.36H274.8V114.96H266.856V111.36ZM273.724 111.36H281.668V114.96H273.724V111.36ZM280.591 111.36H288.535V114.96H280.591V111.36ZM287.458 111.36H295.402V114.96H287.458V111.36ZM294.325 111.36H298.837V114.96H294.325V111.36ZM239.06 125.36H247.004V128.96H239.06V125.36ZM245.927 125.36H250.439V128.96H245.927V125.36ZM249.36 125.36H257.304V128.96H249.36V125.36ZM256.228 125.36H264.172V128.96H256.228V125.36ZM263.095 125.36H271.039V128.96H263.095V125.36ZM277.157 125.36H285.101V128.96H277.157V125.36ZM284.024 125.36H291.968V128.96H284.024V125.36ZM290.892 125.36H298.836V128.96H290.892V125.36ZM297.759 125.36H302.271V128.96H297.759V125.36ZM301.192 125.36H309.136V128.96H301.192V125.36Z" fill="black"/>
<mask id="path-41-inside-16_613_38808" fill="white">
<path d="M341.4 79H455.2V145H341.4V79Z"/>
</mask>
<path d="M454.2 79V145H456.2V79H454.2Z" fill="#E0E0E0" mask="url(#path-41-inside-16_613_38808)"/>
<mask id="path-43-inside-17_613_38808" fill="white">
<path d="M455.199 79H568.999V145H455.199V79Z"/>
</mask>
<path d="M567.999 79V145H569.999V79H567.999Z" fill="#E0E0E0" mask="url(#path-43-inside-17_613_38808)"/>
<mask id="path-45-inside-18_613_38808" fill="white">
<path d="M0 146H569V199H0V146Z"/>
</mask>
<path d="M569 198H0V200H569V198Z" fill="#E0E0E0" mask="url(#path-45-inside-18_613_38808)"/>
<mask id="path-47-inside-19_613_38808" fill="white">
<path d="M0 146H113.8V198H0V146Z"/>
</mask>
<path d="M112.8 146V198H114.8V146H112.8Z" fill="#E0E0E0" mask="url(#path-47-inside-19_613_38808)"/>
<mask id="path-49-inside-20_613_38808" fill="white">
<path d="M113.801 146H227.601V198H113.801V146Z"/>
</mask>
<path d="M226.601 146V198H228.601V146H226.601Z" fill="#E0E0E0" mask="url(#path-49-inside-20_613_38808)"/>
<path d="M125.261 164.36H133.205V167.96H125.261V164.36ZM132.128 164.36H136.64V167.96H132.128V164.36ZM135.562 164.36H143.506V167.96H135.562V164.36ZM142.429 164.36H150.373V167.96H142.429V164.36ZM149.296 164.36H153.808V167.96H149.296V164.36ZM152.73 164.36H160.674V167.96H152.73V164.36ZM159.597 164.36H164.109V167.96H159.597V164.36ZM163.03 164.36H170.974V167.96H163.03V164.36ZM169.897 164.36H177.842V167.96H169.897V164.36ZM176.765 164.36H184.709V167.96H176.765V164.36ZM183.632 164.36H188.144V167.96H183.632V164.36ZM125.261 178.36H133.205V181.96H125.261V178.36ZM132.128 178.36H140.072V181.96H132.128V178.36ZM138.995 178.36H143.507V181.96H138.995V178.36ZM142.429 178.36H150.373V181.96H142.429V178.36ZM149.296 178.36H157.24V181.96H149.296V178.36Z" fill="black"/>
<mask id="path-52-inside-21_613_38808" fill="white">
<path d="M227.6 146H341.4V198H227.6V146Z"/>
</mask>
<path d="M340.4 146V198H342.4V146H340.4Z" fill="#E0E0E0" mask="url(#path-52-inside-21_613_38808)"/>
<path d="M239.06 164.36H247.004V167.96H239.06V164.36ZM245.927 164.36H253.871V167.96H245.927V164.36ZM252.794 164.36H260.738V167.96H252.794V164.36ZM259.661 164.36H267.605V167.96H259.661V164.36ZM266.528 164.36H274.472V167.96H266.528V164.36ZM273.396 164.36H277.908V167.96H273.396V164.36ZM276.829 164.36H284.773V167.96H276.829V164.36ZM290.892 164.36H298.836V167.96H290.892V164.36ZM297.759 164.36H305.703V167.96H297.759V164.36ZM304.626 164.36H309.138V167.96H304.626V164.36ZM308.06 164.36H316.004V167.96H308.06V164.36ZM314.927 164.36H322.871V167.96H314.927V164.36ZM321.794 164.36H326.306V167.96H321.794V164.36ZM239.06 178.36H247.004V181.96H239.06V178.36ZM245.927 178.36H250.439V181.96H245.927V178.36ZM249.36 178.36H257.304V181.96H249.36V178.36ZM256.228 178.36H264.172V181.96H256.228V178.36ZM263.095 178.36H271.039V181.96H263.095V178.36ZM277.157 178.36H285.101V181.96H277.157V178.36ZM284.024 178.36H291.968V181.96H284.024V178.36ZM290.892 178.36H298.836V181.96H290.892V178.36ZM297.759 178.36H302.271V181.96H297.759V178.36ZM301.192 178.36H309.136V181.96H301.192V178.36Z" fill="black"/>
<mask id="path-55-inside-22_613_38808" fill="white">
<path d="M341.4 146H455.2V198H341.4V146Z"/>
</mask>
<path d="M454.2 146V198H456.2V146H454.2Z" fill="#E0E0E0" mask="url(#path-55-inside-22_613_38808)"/>
<mask id="path-57-inside-23_613_38808" fill="white">
<path d="M455.199 146H568.999V198H455.199V146Z"/>
</mask>
<path d="M567.999 146V198H569.999V146H567.999Z" fill="#E0E0E0" mask="url(#path-57-inside-23_613_38808)"/>
<path d="M466.659 171.36H474.603V174.96H466.659V171.36ZM473.526 171.36H481.47V174.96H473.526V171.36ZM480.394 171.36H488.338V174.96H480.394V171.36ZM487.261 171.36H495.205V174.96H487.261V171.36ZM494.128 171.36H502.072V174.96H494.128V171.36ZM500.995 171.36H508.939V174.96H500.995V171.36Z" fill="black"/>
<mask id="path-60-inside-24_613_38808" fill="white">
<path d="M0 199H569V266H0V199Z"/>
</mask>
<path d="M569 265H0V267H569V265Z" fill="#E0E0E0" mask="url(#path-60-inside-24_613_38808)"/>
<mask id="path-62-inside-25_613_38808" fill="white">
<path d="M0 199H113.8V265H0V199Z"/>
</mask>
<path d="M112.8 199V265H114.8V199H112.8Z" fill="#E0E0E0" mask="url(#path-62-inside-25_613_38808)"/>
<mask id="path-64-inside-26_613_38808" fill="white">
<path d="M113.801 199H227.601V265H113.801V199Z"/>
</mask>
<path d="M226.601 199V265H228.601V199H226.601Z" fill="#E0E0E0" mask="url(#path-64-inside-26_613_38808)"/>
<path d="M125.261 224.36H133.205V227.96H125.261V224.36ZM132.128 224.36H136.64V227.96H132.128V224.36ZM135.562 224.36H143.506V227.96H135.562V224.36ZM142.429 224.36H150.373V227.96H142.429V224.36ZM149.296 224.36H153.808V227.96H149.296V224.36ZM152.73 224.36H160.674V227.96H152.73V224.36ZM159.597 224.36H164.109V227.96H159.597V224.36ZM163.03 224.36H170.974V227.96H163.03V224.36ZM169.897 224.36H177.842V227.96H169.897V224.36ZM176.765 224.36H184.709V227.96H176.765V224.36ZM183.632 224.36H188.144V227.96H183.632V224.36ZM125.261 238.36H133.205V241.96H125.261V238.36ZM132.128 238.36H140.072V241.96H132.128V238.36ZM138.995 238.36H146.939V241.96H138.995V238.36ZM145.862 238.36H153.806V241.96H145.862V238.36Z" fill="black"/>
<mask id="path-67-inside-27_613_38808" fill="white">
<path d="M227.6 199H341.4V265H227.6V199Z"/>
</mask>
<path d="M340.4 199V265H342.4V199H340.4Z" fill="#E0E0E0" mask="url(#path-67-inside-27_613_38808)"/>
<path d="M239.06 217.36H247.004V220.96H239.06V217.36ZM245.927 217.36H253.871V220.96H245.927V217.36ZM252.794 217.36H260.738V220.96H252.794V217.36ZM259.661 217.36H267.605V220.96H259.661V217.36ZM266.528 217.36H274.472V220.96H266.528V217.36ZM273.396 217.36H277.908V220.96H273.396V217.36ZM276.829 217.36H284.773V220.96H276.829V217.36ZM239.06 231.36H247.004V234.96H239.06V231.36ZM245.927 231.36H253.871V234.96H245.927V231.36ZM252.794 231.36H260.738V234.96H252.794V231.36ZM259.661 231.36H267.605V234.96H259.661V231.36ZM266.528 231.36H274.472V234.96H266.528V231.36ZM273.396 231.36H281.34V234.96H273.396V231.36ZM280.263 231.36H284.775V234.96H280.263V231.36ZM290.892 231.36H298.836V234.96H290.892V231.36ZM297.759 231.36H302.271V234.96H297.759V231.36ZM301.192 231.36H309.136V234.96H301.192V231.36ZM308.06 231.36H316.004V234.96H308.06V231.36ZM314.927 231.36H322.871V234.96H314.927V231.36ZM239.06 245.36H247.004V248.96H239.06V245.36ZM245.927 245.36H253.871V248.96H245.927V245.36ZM252.794 245.36H260.738V248.96H252.794V245.36ZM259.661 245.36H264.173V248.96H259.661V245.36ZM263.095 245.36H271.039V248.96H263.095V245.36Z" fill="black"/>
<mask id="path-70-inside-28_613_38808" fill="white">
<path d="M341.4 199H455.2V265H341.4V199Z"/>
</mask>
<path d="M454.2 199V265H456.2V199H454.2Z" fill="#E0E0E0" mask="url(#path-70-inside-28_613_38808)"/>
<mask id="path-72-inside-29_613_38808" fill="white">
<path d="M455.199 199H568.999V265H455.199V199Z"/>
</mask>
<path d="M567.999 199V265H569.999V199H567.999Z" fill="#E0E0E0" mask="url(#path-72-inside-29_613_38808)"/>
<path d="M466.659 231.36H474.603V234.96H466.659V231.36ZM473.526 231.36H481.47V234.96H473.526V231.36ZM480.394 231.36H488.338V234.96H480.394V231.36ZM487.261 231.36H495.205V234.96H487.261V231.36ZM494.128 231.36H502.072V234.96H494.128V231.36ZM500.995 231.36H508.939V234.96H500.995V231.36Z" fill="black"/>
<mask id="path-75-inside-30_613_38808" fill="white">
<path d="M0 266H569V306H0V266Z"/>
</mask>
<path d="M569 305H0V307H569V305Z" fill="#E0E0E0" mask="url(#path-75-inside-30_613_38808)"/>
<mask id="path-77-inside-31_613_38808" fill="white">
<path d="M0 266H113.8V305H0V266Z"/>
</mask>
<path d="M112.8 266V305H114.8V266H112.8Z" fill="#E0E0E0" mask="url(#path-77-inside-31_613_38808)"/>
<mask id="path-79-inside-32_613_38808" fill="white">
<path d="M113.801 266H227.601V305H113.801V266Z"/>
</mask>
<path d="M226.601 266V305H228.601V266H226.601Z" fill="#E0E0E0" mask="url(#path-79-inside-32_613_38808)"/>
<path d="M125.261 284.86H133.205V288.46H125.261V284.86ZM132.128 284.86H140.072V288.46H132.128V284.86ZM138.995 284.86H146.939V288.46H138.995V284.86ZM145.862 284.86H150.374V288.46H145.862V284.86ZM156.491 284.86H161.003V288.46H156.491V284.86ZM159.925 284.86H164.437V288.46H159.925V284.86ZM163.358 284.86H171.302V288.46H163.358V284.86ZM170.226 284.86H178.17V288.46H170.226V284.86ZM177.093 284.86H181.605V288.46H177.093V284.86ZM180.526 284.86H188.47V288.46H180.526V284.86Z" fill="black"/>
<mask id="path-82-inside-33_613_38808" fill="white">
<path d="M227.6 266H341.4V305H227.6V266Z"/>
</mask>
<path d="M340.4 266V305H342.4V266H340.4Z" fill="#E0E0E0" mask="url(#path-82-inside-33_613_38808)"/>
<mask id="path-84-inside-34_613_38808" fill="white">
<path d="M341.4 266H455.2V305H341.4V266Z"/>
</mask>
<path d="M454.2 266V305H456.2V266H454.2Z" fill="#E0E0E0" mask="url(#path-84-inside-34_613_38808)"/>
<mask id="path-86-inside-35_613_38808" fill="white">
<path d="M455.199 266H568.999V305H455.199V266Z"/>
</mask>
<path d="M567.999 266V305H569.999V266H567.999Z" fill="#E0E0E0" mask="url(#path-86-inside-35_613_38808)"/>
<mask id="path-88-inside-36_613_38808" fill="white">
<path d="M0 306H569V457H0V306Z"/>
</mask>
<path d="M569 456H0V458H569V456Z" fill="#E0E0E0" mask="url(#path-88-inside-36_613_38808)"/>
<mask id="path-90-inside-37_613_38808" fill="white">
<path d="M0 306H113.8V456H0V306Z"/>
</mask>
<path d="M112.8 306V456H114.8V306H112.8Z" fill="#E0E0E0" mask="url(#path-90-inside-37_613_38808)"/>
<mask id="path-92-inside-38_613_38808" fill="white">
<path d="M113.801 306H227.601V456H113.801V306Z"/>
</mask>
<path d="M226.601 306V456H228.601V306H226.601Z" fill="#E0E0E0" mask="url(#path-92-inside-38_613_38808)"/>
<path d="M125.261 380.36H129.773V383.96H125.261V380.36ZM128.694 380.36H136.638V383.96H128.694V380.36ZM135.562 380.36H143.506V383.96H135.562V380.36ZM142.429 380.36H150.373V383.96H142.429V380.36ZM149.296 380.36H153.808V383.96H149.296V380.36ZM152.73 380.36H160.674V383.96H152.73V380.36ZM159.597 380.36H167.541V383.96H159.597V380.36ZM166.464 380.36H170.976V383.96H166.464V380.36ZM169.897 380.36H177.842V383.96H169.897V380.36ZM176.765 380.36H181.277V383.96H176.765V380.36ZM180.198 380.36H184.71V383.96H180.198V380.36ZM183.632 380.36H188.144V383.96H183.632V380.36ZM187.065 380.36H195.009V383.96H187.065V380.36ZM193.933 380.36H201.877V383.96H193.933V380.36Z" fill="black"/>
<mask id="path-95-inside-39_613_38808" fill="white">
<path d="M227.6 306H341.4V456H227.6V306Z"/>
</mask>
<path d="M340.4 306V456H342.4V306H340.4Z" fill="#E0E0E0" mask="url(#path-95-inside-39_613_38808)"/>
<path d="M239.06 324.36H247.004V327.96H239.06V324.36ZM245.927 324.36H253.871V327.96H245.927V324.36ZM252.794 324.36H260.738V327.96H252.794V324.36ZM259.661 324.36H264.173V327.96H259.661V324.36ZM263.095 324.36H271.039V327.96H263.095V324.36ZM269.962 324.36H277.906V327.96H269.962V324.36ZM239.06 338.36H247.004V341.96H239.06V338.36ZM245.927 338.36H253.871V341.96H245.927V338.36ZM252.794 338.36H260.738V341.96H252.794V338.36ZM259.661 338.36H267.605V341.96H259.661V338.36ZM266.528 338.36H274.472V341.96H266.528V338.36ZM273.396 338.36H281.34V341.96H273.396V338.36ZM280.263 338.36H288.207V341.96H280.263V338.36ZM287.13 338.36H295.074V341.96H287.13V338.36ZM293.997 338.36H301.941V341.96H293.997V338.36ZM300.864 338.36H308.808V341.96H300.864V338.36ZM307.731 338.36H315.675V341.96H307.731V338.36ZM314.599 338.36H322.543V341.96H314.599V338.36ZM321.466 338.36H325.978V341.96H321.466V338.36ZM239.06 352.36H247.004V355.96H239.06V352.36ZM245.927 352.36H253.871V355.96H245.927V352.36ZM252.794 352.36H260.738V355.96H252.794V352.36ZM266.856 352.36H274.8V355.96H266.856V352.36ZM273.724 352.36H278.236V355.96H273.724V352.36ZM277.157 352.36H285.101V355.96H277.157V352.36ZM284.024 352.36H291.968V355.96H284.024V352.36ZM290.892 352.36H298.836V355.96H290.892V352.36ZM297.759 352.36H305.703V355.96H297.759V352.36ZM304.626 352.36H312.57V355.96H304.626V352.36ZM311.493 352.36H319.437V355.96H311.493V352.36ZM239.06 366.36H247.004V369.96H239.06V366.36ZM253.122 366.36H261.066V369.96H253.122V366.36ZM259.989 366.36H267.933V369.96H259.989V366.36ZM266.856 366.36H274.8V369.96H266.856V366.36ZM273.724 366.36H278.236V369.96H273.724V366.36ZM277.157 366.36H285.101V369.96H277.157V366.36ZM284.024 366.36H291.968V369.96H284.024V366.36ZM290.892 366.36H298.836V369.96H290.892V366.36ZM297.759 366.36H302.271V369.96H297.759V366.36ZM239.06 380.36H247.004V383.96H239.06V380.36ZM245.927 380.36H253.871V383.96H245.927V380.36ZM252.794 380.36H260.738V383.96H252.794V380.36ZM259.661 380.36H267.605V383.96H259.661V380.36ZM266.528 380.36H271.04V383.96H266.528V380.36ZM269.962 380.36H277.906V383.96H269.962V380.36ZM276.829 380.36H281.341V383.96H276.829V380.36ZM280.263 380.36H288.207V383.96H280.263V380.36ZM287.13 380.36H295.074V383.96H287.13V380.36ZM293.997 380.36H301.941V383.96H293.997V380.36ZM308.06 380.36H316.004V383.96H308.06V380.36ZM239.06 394.36H247.004V397.96H239.06V394.36ZM245.927 394.36H253.871V397.96H245.927V394.36ZM252.794 394.36H260.738V397.96H252.794V394.36ZM259.661 394.36H267.605V397.96H259.661V394.36ZM266.528 394.36H274.472V397.96H266.528V394.36ZM273.396 394.36H281.34V397.96H273.396V394.36ZM280.263 394.36H288.207V397.96H280.263V394.36ZM287.13 394.36H295.074V397.96H287.13V394.36ZM293.997 394.36H301.941V397.96H293.997V394.36ZM239.06 408.36H247.004V411.96H239.06V408.36ZM245.927 408.36H253.871V411.96H245.927V408.36ZM252.794 408.36H260.738V411.96H252.794V408.36ZM259.661 408.36H267.605V411.96H259.661V408.36ZM266.528 408.36H274.472V411.96H266.528V408.36ZM280.591 408.36H288.535V411.96H280.591V408.36ZM287.458 408.36H295.402V411.96H287.458V408.36ZM294.325 408.36H302.269V411.96H294.325V408.36ZM239.06 422.36H247.004V425.96H239.06V422.36ZM253.122 422.36H261.066V425.96H253.122V422.36ZM259.989 422.36H267.933V425.96H259.989V422.36ZM266.856 422.36H274.8V425.96H266.856V422.36ZM273.724 422.36H281.668V425.96H273.724V422.36ZM280.591 422.36H288.535V425.96H280.591V422.36ZM287.458 422.36H295.402V425.96H287.458V422.36ZM294.325 422.36H302.269V425.96H294.325V422.36ZM301.192 422.36H305.704V425.96H301.192V422.36ZM304.626 422.36H312.57V425.96H304.626V422.36ZM311.493 422.36H319.437V425.96H311.493V422.36ZM318.36 422.36H322.872V425.96H318.36V422.36ZM239.06 436.36H247.004V439.96H239.06V436.36ZM245.927 436.36H253.871V439.96H245.927V436.36ZM252.794 436.36H260.738V439.96H252.794V436.36Z" fill="black"/>
<mask id="path-98-inside-40_613_38808" fill="white">
<path d="M341.4 306H455.2V456H341.4V306Z"/>
</mask>
<path d="M454.2 306V456H456.2V306H454.2Z" fill="#E0E0E0" mask="url(#path-98-inside-40_613_38808)"/>
<mask id="path-100-inside-41_613_38808" fill="white">
<path d="M455.199 306H568.999V456H455.199V306Z"/>
</mask>
<path d="M567.999 306V456H569.999V306H567.999Z" fill="#E0E0E0" mask="url(#path-100-inside-41_613_38808)"/>
<path d="M466.659 373.36H474.603V376.96H466.659V373.36ZM473.526 373.36H481.47V376.96H473.526V373.36ZM480.394 373.36H488.338V376.96H480.394V373.36ZM487.261 373.36H495.205V376.96H487.261V373.36ZM494.128 373.36H502.072V376.96H494.128V373.36ZM500.995 373.36H508.939V376.96H500.995V373.36ZM507.862 373.36H512.374V376.96H507.862V373.36ZM511.296 373.36H519.24V376.96H511.296V373.36ZM518.163 373.36H526.107V376.96H518.163V373.36ZM525.03 373.36H532.974V376.96H525.03V373.36ZM531.897 373.36H536.41V376.96H531.897V373.36ZM535.331 373.36H543.275V376.96H535.331V373.36ZM542.198 373.36H550.142V376.96H542.198V373.36ZM549.065 373.36H553.577V376.96H549.065V373.36ZM466.659 387.36H474.603V390.96H466.659V387.36ZM473.526 387.36H481.47V390.96H473.526V387.36ZM480.394 387.36H488.338V390.96H480.394V387.36ZM487.261 387.36H495.205V390.96H487.261V387.36ZM494.128 387.36H502.072V390.96H494.128V387.36ZM500.995 387.36H505.507V390.96H500.995V387.36ZM504.429 387.36H508.941V390.96H504.429V387.36Z" fill="black"/>
<mask id="path-103-inside-42_613_38808" fill="white">
<path d="M0 457H569V622H0V457Z"/>
</mask>
<path d="M569 621H0V623H569V621Z" fill="#E0E0E0" mask="url(#path-103-inside-42_613_38808)"/>
<mask id="path-105-inside-43_613_38808" fill="white">
<path d="M0 457H113.8V621H0V457Z"/>
</mask>
<path d="M112.8 457V621H114.8V457H112.8Z" fill="#E0E0E0" mask="url(#path-105-inside-43_613_38808)"/>
<mask id="path-107-inside-44_613_38808" fill="white">
<path d="M113.801 457H227.601V621H113.801V457Z"/>
</mask>
<path d="M226.601 457V621H228.601V457H226.601Z" fill="#E0E0E0" mask="url(#path-107-inside-44_613_38808)"/>
<mask id="path-109-inside-45_613_38808" fill="white">
<path d="M227.6 457H341.4V621H227.6V457Z"/>
</mask>
<path d="M340.4 457V621H342.4V457H340.4Z" fill="#E0E0E0" mask="url(#path-109-inside-45_613_38808)"/>
<path d="M239.06 475.36H247.004V478.96H239.06V475.36ZM245.927 475.36H253.871V478.96H245.927V475.36ZM252.794 475.36H260.738V478.96H252.794V475.36ZM259.661 475.36H264.173V478.96H259.661V475.36ZM263.095 475.36H271.039V478.96H263.095V475.36ZM269.962 475.36H277.906V478.96H269.962V475.36ZM239.06 489.36H247.004V492.96H239.06V489.36ZM245.927 489.36H253.871V492.96H245.927V489.36ZM252.794 489.36H260.738V492.96H252.794V489.36ZM259.661 489.36H267.605V492.96H259.661V489.36ZM266.528 489.36H274.472V492.96H266.528V489.36ZM273.396 489.36H281.34V492.96H273.396V489.36ZM280.263 489.36H288.207V492.96H280.263V489.36ZM287.13 489.36H295.074V492.96H287.13V489.36ZM293.997 489.36H301.941V492.96H293.997V489.36ZM300.864 489.36H308.808V492.96H300.864V489.36ZM307.731 489.36H315.675V492.96H307.731V489.36ZM314.599 489.36H322.543V492.96H314.599V489.36ZM321.466 489.36H325.978V492.96H321.466V489.36ZM239.06 503.36H247.004V506.96H239.06V503.36ZM253.122 503.36H261.066V506.96H253.122V503.36ZM259.989 503.36H267.933V506.96H259.989V503.36ZM266.856 503.36H274.8V506.96H266.856V503.36ZM239.06 517.36H247.004V520.96H239.06V517.36ZM245.927 517.36H253.871V520.96H245.927V517.36ZM252.794 517.36H260.738V520.96H252.794V517.36ZM259.661 517.36H267.605V520.96H259.661V517.36ZM266.528 517.36H274.472V520.96H266.528V517.36ZM273.396 517.36H281.34V520.96H273.396V517.36ZM280.263 517.36H288.207V520.96H280.263V517.36ZM287.13 517.36H295.074V520.96H287.13V517.36ZM293.997 517.36H301.941V520.96H293.997V517.36ZM300.864 517.36H308.808V520.96H300.864V517.36ZM307.731 517.36H315.675V520.96H307.731V517.36ZM239.06 531.36H247.004V534.96H239.06V531.36ZM245.927 531.36H253.871V534.96H245.927V531.36ZM252.794 531.36H260.738V534.96H252.794V531.36ZM259.661 531.36H267.605V534.96H259.661V531.36ZM266.528 531.36H271.04V534.96H266.528V531.36ZM269.962 531.36H277.906V534.96H269.962V531.36ZM276.829 531.36H284.773V534.96H276.829V531.36ZM290.892 531.36H298.836V534.96H290.892V531.36ZM297.759 531.36H305.703V534.96H297.759V531.36ZM304.626 531.36H312.57V534.96H304.626V531.36ZM239.06 545.36H247.004V548.96H239.06V545.36ZM245.927 545.36H253.871V548.96H245.927V545.36ZM252.794 545.36H260.738V548.96H252.794V545.36ZM259.661 545.36H267.605V548.96H259.661V545.36ZM266.528 545.36H274.472V548.96H266.528V545.36ZM273.396 545.36H277.908V548.96H273.396V545.36ZM276.829 545.36H284.773V548.96H276.829V545.36ZM290.892 545.36H298.836V548.96H290.892V545.36ZM239.06 559.36H247.004V562.96H239.06V559.36ZM245.927 559.36H253.871V562.96H245.927V559.36ZM252.794 559.36H257.306V562.96H252.794V559.36ZM256.228 559.36H264.172V562.96H256.228V559.36ZM263.095 559.36H271.039V562.96H263.095V559.36ZM269.962 559.36H277.906V562.96H269.962V559.36ZM276.829 559.36H284.773V562.96H276.829V559.36ZM283.696 559.36H288.208V562.96H283.696V559.36ZM287.13 559.36H291.642V562.96H287.13V559.36ZM290.564 559.36H298.508V562.96H290.564V559.36ZM297.431 559.36H305.375V562.96H297.431V559.36ZM304.298 559.36H312.242V562.96H304.298V559.36ZM311.165 559.36H319.109V562.96H311.165V559.36ZM318.032 559.36H322.544V562.96H318.032V559.36ZM239.06 573.36H247.004V576.96H239.06V573.36ZM245.927 573.36H253.871V576.96H245.927V573.36ZM252.794 573.36H260.738V576.96H252.794V573.36ZM259.661 573.36H267.605V576.96H259.661V573.36ZM266.528 573.36H274.472V576.96H266.528V573.36ZM273.396 573.36H281.34V576.96H273.396V573.36ZM280.263 573.36H288.207V576.96H280.263V573.36ZM287.13 573.36H295.074V576.96H287.13V573.36ZM293.997 573.36H298.509V576.96H293.997V573.36ZM297.431 573.36H305.375V576.96H297.431V573.36ZM239.06 587.36H247.004V590.96H239.06V587.36ZM245.927 587.36H253.871V590.96H245.927V587.36ZM252.794 587.36H260.738V590.96H252.794V587.36ZM259.661 587.36H267.605V590.96H259.661V587.36ZM266.528 587.36H274.472V590.96H266.528V587.36ZM280.591 587.36H288.535V590.96H280.591V587.36ZM287.458 587.36H295.402V590.96H287.458V587.36ZM294.325 587.36H302.269V590.96H294.325V587.36ZM301.192 587.36H309.136V590.96H301.192V587.36ZM308.06 587.36H316.004V590.96H308.06V587.36ZM239.06 601.36H247.004V604.96H239.06V601.36ZM253.122 601.36H261.066V604.96H253.122V601.36ZM259.989 601.36H267.933V604.96H259.989V601.36ZM266.856 601.36H274.8V604.96H266.856V601.36ZM273.724 601.36H281.668V604.96H273.724V601.36ZM280.591 601.36H285.103V604.96H280.591V601.36Z" fill="black"/>
<mask id="path-112-inside-46_613_38808" fill="white">
<path d="M341.4 457H455.2V621H341.4V457Z"/>
</mask>
<path d="M454.2 457V621H456.2V457H454.2Z" fill="#E0E0E0" mask="url(#path-112-inside-46_613_38808)"/>
<mask id="path-114-inside-47_613_38808" fill="white">
<path d="M455.199 457H568.999V621H455.199V457Z"/>
</mask>
<path d="M567.999 457V621H569.999V457H567.999Z" fill="#E0E0E0" mask="url(#path-114-inside-47_613_38808)"/>
</g>
<defs>
<clipPath id="clip0_613_38808">
<rect width="569" height="502" fill="white"/>
</clipPath>
</defs>
</svg>
