<svg width="1200" height="675" viewBox="0 0 1200 675" fill="none" xmlns="http://www.w3.org/2000/svg">
<g clip-path="url(#clip0_654_13099)">
<rect width="1200" height="675" fill="white"/>
<path d="M10.2792 583.391C10.2792 512.349 5.65513 441.703 7.38902 370.613C7.69399 358.109 7.4771 345.871 9.57617 333.509C11.2641 323.569 12.8481 313.371 13.0912 303.28C13.513 285.778 14.4798 266.843 16.9969 249.538C18.8539 236.771 18.7153 222.97 18.7153 210.092C18.7153 193.272 21.5274 176.573 21.5274 159.787C21.5274 133.514 21.0252 106.257 27.8545 80.7374C30.948 69.1774 32.5954 55.0572 39.2589 44.8056C52.0498 25.1274 88.089 25.6545 107.607 21.7624C144.723 14.3614 180.722 11.1391 218.527 11.1391C263.181 11.1391 308.227 7.39751 352.881 9.81121C383.677 11.4759 413.949 9.7331 444.741 9.7331" stroke="black" stroke-width="8" stroke-linecap="round"/>
<path d="M589.218 295.051C585.672 297.63 579.838 296.512 575.744 296.512C561.564 296.512 547.365 296.186 533.214 297.242C517.878 298.387 502.832 303.549 487.599 303.817C456.983 304.354 432.673 318.564 408.868 335.877C400.087 342.263 392.06 349.383 386.953 359.172C379.802 372.877 368.437 385.596 364.227 400.566C360.063 415.373 354 432.13 354 447.561C354 457.788 354 468.015 354 478.241C354 492.724 358.821 507.229 359.925 521.584C360.88 533.998 366.592 542.88 372.993 552.67C377.083 558.926 384.571 561.908 389.064 567.524C391.671 570.783 410.357 575.341 412.439 571.176" stroke="#14AE5C" stroke-width="8" stroke-linecap="round"/>
<path d="M220.532 118.111C216.921 122.172 217.753 131.944 216.879 137.185C215.109 147.807 214.196 158.39 212.09 168.92C210.632 176.213 210.305 198.597 210.305 191.16" stroke="#1655F5" stroke-width="8" stroke-linecap="round"/>
<path d="M220.531 116.65C248.934 116.65 278.268 110.998 306.404 107.559C312.105 106.863 317.352 104.962 323.125 104.962C329.891 104.962 326.677 105.187 325.803 109.994C324.086 119.44 322.8 130.499 322.8 140.026" stroke="#1655F5" stroke-width="8" stroke-linecap="round"/>
<path d="M163.554 367.938C162.727 375.383 156.071 385.217 153.003 391.639C147.763 402.607 141.657 412.701 134.984 422.806C129.083 431.742 117.069 441.391 113.556 451.539C112.649 454.159 109.408 458.212 113.556 458.519C122.037 459.147 129.798 461.441 138.555 461.441C146.508 461.441 154.351 459.98 162.093 459.98" stroke="#1655F5" stroke-width="8" stroke-linecap="round"/>
<path d="M74.4336 99.1182C94.381 99.1182 111.842 97.6572 131.412 97.6572" stroke="#F53410" stroke-width="8" stroke-linecap="round"/>
<path d="M106.576 175.089C79.1173 190.344 63.6322 225.877 52.52 253.657C45.6262 270.892 38.2131 293.318 37.9102 312.097C37.4048 343.434 36.4492 374.872 36.4492 406.411C36.4492 435.718 38.6643 464.971 40.5075 494.232C41.6982 513.134 40.0249 537.288 48.1371 554.944C54.3385 568.441 65.8859 585.625 81.7396 585.625" stroke="#F53410" stroke-width="8" stroke-linecap="round"/>
<path d="M159.318 587.609C160.473 573.756 160.609 560.167 160.724 546.21C161.071 504.309 166.607 463.789 170.567 422.323C175.205 373.744 174.707 325.041 184.627 277.19C189.054 255.837 193.151 234.434 200.093 213.607C203.871 202.274 210.263 190.133 218.684 181.58C226.858 173.278 239.741 168.115 249.304 161.74C269.373 148.36 295.213 146.219 318.512 142.993C341.887 139.756 366.599 144.711 390.219 144.711C412.135 144.711 434.034 146.117 455.99 146.117" stroke="black" stroke-width="8" stroke-linecap="round"/>
<path d="M256.334 584.797C256.594 580.119 257.891 575.226 258.599 570.581C264.494 531.936 266.628 493.54 267.504 454.428C268.129 426.527 268.971 399.105 274.612 371.706C277.98 355.35 279.587 339.469 285.548 323.745C291.108 309.08 295.783 293.941 299.14 278.596C301.18 269.267 312.559 265.459 320.542 261.568C337.454 253.325 358.396 255.787 376.549 255.787C388.996 255.787 401.556 253.163 414.121 252.975C432.755 252.697 451.413 252.975 470.05 252.975" stroke="black" stroke-width="8" stroke-linecap="round"/>
<path d="M295.043 30.4521C295.043 40.6906 296.504 71.3712 296.504 61.1327" stroke="#F53410" stroke-width="8" stroke-linecap="round"/>
<path d="M86.2051 586.203C87.9275 583.835 87.6111 580.965 87.6111 578.158C87.6111 555.348 89.8637 532.645 88.7828 509.809C87.9274 491.74 85.7773 474.278 86.9862 456.146C88.1333 438.939 89.4564 421.863 88.8609 404.592C88.3654 390.222 86.2997 375.937 86.2051 361.552C86.1186 348.417 87.5034 335.317 87.6111 322.183C87.7697 302.829 91.4978 283.954 95.4223 265.005C103.843 224.345 107.227 183.774 118.7 143.618C128.535 109.194 145.803 70.1922 187.361 70.1922C231.704 70.1922 275.972 64.5681 320.386 64.5681C345.703 64.5681 370.919 65.9742 396.312 65.9742C415.478 65.9742 435.737 63.1621 454.584 63.1621" stroke="black" stroke-width="8" stroke-linecap="round"/>
<path d="M612.61 615.436C612.61 631.115 611.436 646.75 611.23 662.431C610.974 681.898 611.875 701.284 609.363 720.626C607.078 738.225 604.34 755.775 602.383 773.384C600.606 789.38 598 805.403 598 821.434" stroke="#FFA629" stroke-width="8" stroke-linecap="round"/>
<path d="M619.914 612.514C636.28 611.15 654.037 606.865 670.399 608.455C676.527 609.051 682.42 609.592 688.58 609.592" stroke="#FFA629" stroke-width="8" stroke-linecap="round"/>
<path d="M86.5328 583.879C86.5328 614.101 85.3145 643.892 85.3145 674.038" stroke="black" stroke-width="8" stroke-linecap="round"/>
<path d="M405.746 58.7605C412.984 52.2464 422.738 48.3413 430.114 41.7033C433.315 38.8219 440.471 38.0466 442.297 34.3931" stroke="#F53410" stroke-width="8" stroke-linecap="round"/>
<path d="M590.939 52.6687C597.809 51.9054 605.683 45.7923 611.652 42.6509C616.237 40.2378 621.26 38.0828 626.272 36.8298" stroke="#F53410" stroke-width="8" stroke-linecap="round"/>
<path d="M809.027 61.1972C821.883 49.7696 842.74 50.6338 855.326 38.0481" stroke="#F53410" stroke-width="8" stroke-linecap="round"/>
<path d="M1018.59 57.542C1024.15 56.9244 1031.79 52.3714 1037.13 50.2318C1042.47 48.096 1048.09 45.9933 1052.97 42.9216C1057.02 40.3737 1067.72 39.6946 1069.76 35.6113" stroke="#F53410" stroke-width="8" stroke-linecap="round"/>
<path d="M597.032 105.059C596.672 108.293 586.981 115.013 584.036 116.836C578.261 120.411 570.046 124.048 565.083 128.478C560.646 132.44 553.557 136.543 548.297 139.173" stroke="#1655F5" stroke-width="8" stroke-linecap="round"/>
<path d="M598.25 107.495C606.496 111.619 614.464 116.581 622.617 120.897C627.717 123.597 630.021 126.723 634.192 129.968C639.555 134.139 645.871 139.834 651.858 142.828" stroke="#1655F5" stroke-width="8" stroke-linecap="round"/>
<path d="M876.039 137.955C876.492 130.252 875.215 119.213 877.325 111.827C877.873 109.909 878.258 106.359 880.506 106.277C897.318 105.666 914.042 105.059 930.866 105.059C951.847 105.059 972.946 106.666 993.883 107.428C1014.75 108.187 1035.46 106.277 1056.29 106.277C1071.83 106.277 1088.24 105.403 1103.74 104.111C1118.05 102.918 1134.84 106.849 1148.68 102.893C1158.16 100.186 1171.67 102.622 1181.85 102.622C1187.61 102.622 1193.49 103.84 1198.91 103.84" stroke="#1655F5" stroke-width="8" stroke-linecap="round"/>
<path d="M721.961 341.757C722.805 332.468 727.472 322.514 731.708 314.344C736.799 304.526 743.275 300.177 752.962 295.527C765.156 289.674 782.678 291.804 795.876 291.804C814.786 291.804 835.402 295.759 853.951 299.385C867.09 301.954 899.843 306.768 899.843 325.309C899.843 330.516 901.062 337.104 901.062 342.976" stroke="#14AE5C" stroke-width="8" stroke-linecap="round"/>
<path d="M1048.48 347.849C1049.83 334.358 1062.35 321.435 1070.14 311.298C1077.16 302.176 1086.89 301.551 1097.49 301.551C1115.41 301.551 1133.34 301.409 1151.23 303.717C1160.05 304.855 1170.6 304.203 1178.85 307.914C1184.85 310.611 1190.4 311.242 1196.18 314.953C1201.48 318.361 1204.25 321.081 1208.36 325.648C1214.27 332.218 1210.53 340.513 1210.53 347.849" stroke="#14AE5C" stroke-width="8" stroke-linecap="round"/>
<path d="M404.529 672.82C424.108 628.769 416.706 577.969 424.023 531.218C427.709 507.671 430.115 483.849 430.115 460.011C430.115 447.292 432.552 434.448 432.552 421.835C432.552 416.066 433.216 406.905 435.598 401.665C438.012 396.353 436.025 386.369 439.862 382.306C446.349 375.437 455.952 368.603 465.516 367.009C474.899 365.445 483.942 363.595 493.47 362.744C505.149 361.702 516.857 362.729 528.533 361.864C566.641 359.042 605.326 360.081 643.33 362.135C712.526 365.875 781.692 365.79 850.995 365.79C897.882 365.79 944.318 360.101 990.973 356.991C1059.5 352.422 1127.91 354.825 1196.47 354.825" stroke="black" stroke-width="8" stroke-linecap="round"/>
<path d="M676.227 671.602C676.678 667.536 682.422 663.19 684.823 660.501C692.375 652.043 698.867 642.76 704.655 633.02C709.535 624.81 713.942 615.844 721.306 609.533C724.535 606.765 731.434 608.247 735.25 608.247C753.441 608.247 771.386 609.635 789.535 610.413C807.683 611.19 825.658 611.537 843.82 611.969C857.157 612.287 870.457 613.127 883.756 614.068C890.559 614.549 897.479 613.12 904.333 613.12C924.481 613.12 944.63 613.12 964.778 613.12C991.853 613.12 1018.84 609.465 1046 609.465C1063.12 609.465 1080.07 608.247 1097.11 608.247C1114.36 608.247 1131.74 610.683 1148.96 610.683C1165.17 610.683 1181.25 608.247 1197.69 608.247" stroke="black" stroke-width="8" stroke-linecap="round"/>
<path d="M846.9 490C842.099 503.869 838.372 519.037 838.372 533.794C838.372 536.948 839.17 541.118 838.304 544.15C837.231 547.906 798.784 543.783 794.984 543.608C772.043 542.554 748.778 542.39 726.281 542.39" stroke="#FFA629" stroke-width="8" stroke-linecap="round"/>
<path d="M1050.37 589.907C1056.27 576.625 1049.43 558.957 1054.63 545.436C1055.48 543.237 1054.54 540.466 1056.73 539.006C1058.26 537.983 1062.39 538.72 1064.04 538.803C1075.71 539.386 1087.33 540.188 1099.03 540.563C1125.79 541.42 1152.16 540.24 1178.84 539.953C1186.47 539.871 1193.85 541.172 1201.45 541.172C1206.8 541.172 1212.19 540.691 1217.28 542.39" stroke="#FFA629" stroke-width="8" stroke-linecap="round"/>
<path d="M9.77572 580.224C9.77572 595.86 9.77572 611.495 9.77572 627.131C9.77572 632.084 8.31977 639.713 10.3849 644.256C11.3809 646.447 13.5195 660.83 11.9417 662.802C10.3013 664.853 9.49209 676.008 10.9941 675.257" stroke="black" stroke-width="8" stroke-linecap="round"/>
<path d="M158.418 586.316C158.418 590.58 158.418 594.844 158.418 599.109C158.418 604.71 160.855 610.12 160.855 615.557C160.855 622.586 163.138 629.529 161.802 636.54C159.409 649.106 159.636 662.406 159.636 675.257" stroke="black" stroke-width="8" stroke-linecap="round"/>
<path d="M258.325 586.316C258.325 607.57 253.451 628.57 253.451 649.942C253.451 658.673 254.67 667.579 254.67 676.475" stroke="black" stroke-width="8" stroke-linecap="round"/>
<path d="M467.883 251.263C514.678 251.263 561.528 251.957 608.266 252.482C639.55 252.833 670.803 253.39 702.081 253.7C712.678 253.805 722.641 254.394 733.217 253.7C744.133 252.984 754.841 252.482 765.775 252.482C804.162 252.482 842.437 254.918 880.911 254.918C919.683 254.918 958.6 252.482 997.333 252.482C1014.34 252.482 1031 253.097 1047.96 254.309C1059.11 255.105 1071.98 256.306 1083.16 254.309C1101.43 251.048 1120.39 250.045 1138.94 250.045C1160.03 250.045 1181.32 251.263 1202.56 251.263" stroke="black" stroke-width="8" stroke-linecap="round"/>
<path d="M454.482 145.265C515.6 145.265 576.801 143.027 637.848 145.874C699.228 148.736 760.726 147.702 822.16 147.702C862.908 147.702 902.24 144.556 942.576 139.85C973.496 136.243 1005.1 137.664 1036.19 137.955C1058.19 138.16 1080.1 136.736 1102.05 136.736C1121.49 136.736 1140.86 139.173 1160.19 139.173C1175.82 139.173 1191.99 141.61 1207.44 141.61" stroke="black" stroke-width="8" stroke-linecap="round"/>
<path d="M452.045 61.1973C526.664 61.1973 601.193 64.8524 675.819 64.8524C756.661 64.8524 837.459 66.2925 918.276 67.2214C957.845 67.6763 997.36 68.5075 1036.93 68.5075C1047.58 68.5075 1057.99 66.7965 1068.68 67.5599C1075.72 68.063 1084.05 69.7314 1091.15 68.4398C1115.19 64.068 1140.62 62.4255 1164.79 63.634C1174.17 64.1029 1191.53 71.8036 1200.13 66.0708" stroke="black" stroke-width="8" stroke-linecap="round"/>
<path d="M438.643 10.0255C463.5 6.91834 491.895 10.0255 517.701 10.0255C542.329 10.0255 566.849 11.2439 591.481 11.2439C631.438 11.2439 671.318 14.899 711.287 14.899C753.476 14.899 795.511 14.899 837.727 14.899C859.827 14.899 881.698 17.3357 903.722 17.3357C918.016 17.3357 932.224 16.4197 946.433 16.1173C1000.88 14.959 1055.63 14.899 1109.97 14.899C1121.34 14.899 1132.71 14.899 1144.08 14.899C1151.88 14.899 1160.97 16.0365 1168.72 14.6282C1178.63 12.8259 1193.1 16.743 1201.34 11.2439" stroke="black" stroke-width="8" stroke-linecap="round"/>
<path d="M534.895 672.82C535.361 663.961 541.05 654.459 543.355 645.948C547.773 629.636 550.324 612.933 552.493 596.198C554.342 581.939 558.588 568.636 561.699 554.638C564.006 544.254 567.694 534.04 568.941 523.434C569.751 516.549 571.679 507.74 576.387 502.248C584.682 492.57 598.681 494.05 610.637 493.652C643.625 492.552 676.584 492.128 709.528 490.132C732.921 488.714 756.42 488.292 779.855 487.56C802.345 486.857 824.924 483.972 847.407 483.972C866.876 483.972 887.162 482.707 906.498 480.588C919.698 479.141 933.179 480.953 946.434 480.046C961.784 478.997 977.075 479.099 992.461 479.099C1032.37 479.099 1072.33 478.693 1112.13 477.88C1121.92 477.681 1136.14 478.353 1145.3 474.496C1151.65 471.823 1160.36 474.692 1166.96 472.736C1177.02 469.755 1190.75 471.789 1201.34 471.789" stroke="black" stroke-width="8" stroke-linecap="round"/>
</g>
<defs>
<clipPath id="clip0_654_13099">
<rect width="1200" height="675" fill="white"/>
</clipPath>
</defs>
</svg>
