<?xml version="1.0" encoding="UTF-8" standalone="no"?><!DOCTYPE svg PUBLIC "-//W3C//DTD SVG 1.1//EN" "http://www.w3.org/Graphics/SVG/1.1/DTD/svg11.dtd"><svg width="100%" height="100%" viewBox="0 0 4380 2713" version="1.1" xmlns="http://www.w3.org/2000/svg" xmlns:xlink="http://www.w3.org/1999/xlink" xml:space="preserve" xmlns:serif="http://www.serif.com/" style="fill-rule:evenodd;clip-rule:evenodd;stroke-linecap:square;stroke-linejoin:round;stroke-miterlimit:1.41421;"><rect id="Artboard2" x="3.573" y="1.616" width="4375" height="2708.33" style="fill:none;"/><clipPath id="_clip1"><rect x="3.573" y="1.616" width="4375" height="2708.33"/></clipPath><g clip-path="url(#_clip1)"><rect x="-334.928" y="-272.701" width="5252.37" height="3411.82" style="fill:#e9645d;"/><path d="M636.486,800.976l677.251,0l-0,1255.29l271.763,-0l-0,-1255.29l401.173,0l0,884.308c0,603.917 336.469,957.64 841.171,957.64c500.389,0 828.23,-358.036 828.23,-957.64l-0,-1203.52l-1397.64,-0l0,-427.056l-271.763,-0l0,427.056l-401.173,-0l-0,-427.056l-271.763,-0l-0,427.056l-677.251,-0l0,319.213Zm2730.57,0l0,858.426c0,427.056 -207.057,668.623 -556.467,668.623c-358.036,-0 -552.153,-241.567 -552.153,-668.623l0,-858.426l1108.62,0Z" style="fill:#fff;fill-rule:nonzero;"/><g><path d="M1449.04,94.572l-0,24.678" style="fill:none;stroke:#e9645d;stroke-width:4.17px;"/><path d="M1449.04,33.009l-0,24.678" style="fill:none;stroke:#e9645d;stroke-width:4.17px;"/><path d="M1449.04,169.955l-0,24.678" style="fill:none;stroke:#e9645d;stroke-width:4.17px;"/><path d="M1449.04,245.338l-0,24.678" style="fill:none;stroke:#e9645d;stroke-width:4.17px;"/><path d="M1449.04,320.722l-0,24.678" style="fill:none;stroke:#e9645d;stroke-width:4.17px;"/><path d="M1449.04,396.105l-0,24.678" style="fill:none;stroke:#e9645d;stroke-width:4.17px;"/><path d="M1449.04,471.488l-0,24.678" style="fill:none;stroke:#e9645d;stroke-width:4.17px;"/><path d="M1449.04,546.871l-0,24.678" style="fill:none;stroke:#e9645d;stroke-width:4.17px;"/><path d="M1449.04,697.638l-0,24.678" style="fill:none;stroke:#e9645d;stroke-width:4.17px;"/><path d="M1449.04,773.021l-0,24.678" style="fill:none;stroke:#e9645d;stroke-width:4.17px;"/><path d="M1449.04,848.404l-0,24.679" style="fill:none;stroke:#e9645d;stroke-width:4.17px;"/><path d="M1449.04,923.788l-0,24.678" style="fill:none;stroke:#e9645d;stroke-width:4.17px;"/><path d="M1449.04,999.171l-0,24.678" style="fill:none;stroke:#e9645d;stroke-width:4.17px;"/><path d="M1449.04,1074.55l-0,24.678" style="fill:none;stroke:#e9645d;stroke-width:4.17px;"/><path d="M1449.04,1149.94l-0,24.679" style="fill:none;stroke:#e9645d;stroke-width:4.17px;"/><path d="M1449.04,1225.32l-0,24.678" style="fill:none;stroke:#e9645d;stroke-width:4.17px;"/><path d="M1449.04,1300.7l-0,24.678" style="fill:none;stroke:#e9645d;stroke-width:4.17px;"/><path d="M1449.04,1376.09l-0,24.678" style="fill:none;stroke:#e9645d;stroke-width:4.17px;"/><path d="M1449.04,1451.47l-0,24.679" style="fill:none;stroke:#e9645d;stroke-width:4.17px;"/><path d="M1449.04,1526.85l-0,24.678" style="fill:none;stroke:#e9645d;stroke-width:4.17px;"/><path d="M1449.04,1602.24l-0,24.678" style="fill:none;stroke:#e9645d;stroke-width:4.17px;"/><path d="M1449.04,1677.62l-0,24.678" style="fill:none;stroke:#e9645d;stroke-width:4.17px;"/><path d="M1449.04,1753l-0,24.679" style="fill:none;stroke:#e9645d;stroke-width:4.17px;"/><path d="M1449.04,1828.39l-0,24.678" style="fill:none;stroke:#e9645d;stroke-width:4.17px;"/><path d="M1449.04,1903.77l-0,24.678" style="fill:none;stroke:#e9645d;stroke-width:4.17px;"/><path d="M1449.04,1979.15l-0,24.678" style="fill:none;stroke:#e9645d;stroke-width:4.17px;"/><path d="M1449.04,2054.54l-0,24.679" style="fill:none;stroke:#e9645d;stroke-width:4.17px;"/></g><g><path d="M2123.36,16.513l0,24.678" style="fill:none;stroke:#e9645d;stroke-width:4.17px;"/><path d="M2123.36,91.896l0,24.678" style="fill:none;stroke:#e9645d;stroke-width:4.17px;"/><path d="M2123.36,167.279l0,24.679" style="fill:none;stroke:#e9645d;stroke-width:4.17px;"/><path d="M2123.36,318.046l0,24.678" style="fill:none;stroke:#e9645d;stroke-width:4.17px;"/><path d="M2123.36,393.429l0,24.678" style="fill:none;stroke:#e9645d;stroke-width:4.17px;"/><path d="M2123.36,468.812l0,24.679" style="fill:none;stroke:#e9645d;stroke-width:4.17px;"/><path d="M2123.36,544.196l0,24.678" style="fill:none;stroke:#e9645d;stroke-width:4.17px;"/><path d="M2123.36,619.579l0,24.678" style="fill:none;stroke:#e9645d;stroke-width:4.17px;"/><path d="M2123.36,694.962l0,24.678" style="fill:none;stroke:#e9645d;stroke-width:4.17px;"/><path d="M2123.36,770.345l0,24.679" style="fill:none;stroke:#e9645d;stroke-width:4.17px;"/><path d="M2123.36,845.729l0,24.678" style="fill:none;stroke:#e9645d;stroke-width:4.17px;"/><path d="M2123.36,921.112l0,24.678" style="fill:none;stroke:#e9645d;stroke-width:4.17px;"/><path d="M2123.36,996.495l0,24.678" style="fill:none;stroke:#e9645d;stroke-width:4.17px;"/><path d="M2123.36,1071.88l0,24.678" style="fill:none;stroke:#e9645d;stroke-width:4.17px;"/><path d="M2123.36,1147.26l0,24.678" style="fill:none;stroke:#e9645d;stroke-width:4.17px;"/><path d="M2123.36,1222.64l0,24.678" style="fill:none;stroke:#e9645d;stroke-width:4.17px;"/><path d="M2123.36,1298.03l0,24.678" style="fill:none;stroke:#e9645d;stroke-width:4.17px;"/><path d="M2123.36,1373.41l0,24.678" style="fill:none;stroke:#e9645d;stroke-width:4.17px;"/><path d="M2123.36,1448.8l0,24.678" style="fill:none;stroke:#e9645d;stroke-width:4.17px;"/><path d="M2123.36,1524.18l0,24.678" style="fill:none;stroke:#e9645d;stroke-width:4.17px;"/><path d="M2123.36,1599.56l0,24.678" style="fill:none;stroke:#e9645d;stroke-width:4.17px;"/><path d="M2123.36,1674.94l0,24.678" style="fill:none;stroke:#e9645d;stroke-width:4.17px;"/></g><g><path d="M3515.12,19.332l-0,24.679" style="fill:none;stroke:#e9645d;stroke-width:4.17px;"/><path d="M3515.12,94.716l-0,24.678" style="fill:none;stroke:#e9645d;stroke-width:4.17px;"/><path d="M3515.12,170.099l-0,24.678" style="fill:none;stroke:#e9645d;stroke-width:4.17px;"/><path d="M3515.12,320.865l-0,24.679" style="fill:none;stroke:#e9645d;stroke-width:4.17px;"/><path d="M3515.12,396.249l-0,24.678" style="fill:none;stroke:#e9645d;stroke-width:4.17px;"/><path d="M3515.12,471.632l-0,24.678" style="fill:none;stroke:#e9645d;stroke-width:4.17px;"/><path d="M3515.12,547.015l-0,24.678" style="fill:none;stroke:#e9645d;stroke-width:4.17px;"/><path d="M3515.12,622.399l-0,24.678" style="fill:none;stroke:#e9645d;stroke-width:4.17px;"/><path d="M3515.12,697.782l-0,24.678" style="fill:none;stroke:#e9645d;stroke-width:4.17px;"/><path d="M3515.12,773.165l-0,24.678" style="fill:none;stroke:#e9645d;stroke-width:4.17px;"/><path d="M3515.12,848.548l-0,24.678" style="fill:none;stroke:#e9645d;stroke-width:4.17px;"/><path d="M3515.12,923.932l-0,24.678" style="fill:none;stroke:#e9645d;stroke-width:4.17px;"/><path d="M3515.12,999.315l-0,24.678" style="fill:none;stroke:#e9645d;stroke-width:4.17px;"/><path d="M3515.12,1074.7l-0,24.678" style="fill:none;stroke:#e9645d;stroke-width:4.17px;"/><path d="M3515.12,1150.08l-0,24.678" style="fill:none;stroke:#e9645d;stroke-width:4.17px;"/><path d="M3515.12,1225.46l-0,24.678" style="fill:none;stroke:#e9645d;stroke-width:4.17px;"/><path d="M3515.12,1300.85l-0,24.678" style="fill:none;stroke:#e9645d;stroke-width:4.17px;"/><path d="M3515.12,1376.23l-0,24.678" style="fill:none;stroke:#e9645d;stroke-width:4.17px;"/><path d="M3515.12,1451.61l-0,24.679" style="fill:none;stroke:#e9645d;stroke-width:4.17px;"/><path d="M3515.12,1527l-0,24.678" style="fill:none;stroke:#e9645d;stroke-width:4.17px;"/><path d="M3515.12,1602.38l-0,24.678" style="fill:none;stroke:#e9645d;stroke-width:4.17px;"/><path d="M3515.12,1677.76l-0,24.678" style="fill:none;stroke:#e9645d;stroke-width:4.17px;"/></g><g><g><path d="M2621.13,646.913l-24.678,-0" style="fill:none;stroke:#e9645d;stroke-width:4.17px;"/><path d="M2682.69,646.913l-24.678,-0" style="fill:none;stroke:#e9645d;stroke-width:4.17px;"/><path d="M2545.75,646.913l-24.678,-0" style="fill:none;stroke:#e9645d;stroke-width:4.17px;"/><path d="M2470.36,646.913l-24.678,-0" style="fill:none;stroke:#e9645d;stroke-width:4.17px;"/><path d="M2394.98,646.913l-24.679,-0" style="fill:none;stroke:#e9645d;stroke-width:4.17px;"/><path d="M2319.6,646.913l-24.678,-0" style="fill:none;stroke:#e9645d;stroke-width:4.17px;"/><path d="M2244.21,646.913l-24.678,-0" style="fill:none;stroke:#e9645d;stroke-width:4.17px;"/><path d="M2168.83,646.913l-24.678,-0" style="fill:none;stroke:#e9645d;stroke-width:4.17px;"/><path d="M2093.45,646.913l-24.678,-0" style="fill:none;stroke:#e9645d;stroke-width:4.17px;"/><path d="M2018.06,646.913l-24.678,-0" style="fill:none;stroke:#e9645d;stroke-width:4.17px;"/><path d="M1942.68,646.913l-24.678,-0" style="fill:none;stroke:#e9645d;stroke-width:4.17px;"/><path d="M1867.3,646.913l-24.678,-0" style="fill:none;stroke:#e9645d;stroke-width:4.17px;"/><path d="M1791.91,646.913l-24.678,-0" style="fill:none;stroke:#e9645d;stroke-width:4.17px;"/><path d="M1716.53,646.913l-24.678,-0" style="fill:none;stroke:#e9645d;stroke-width:4.17px;"/><path d="M1641.15,646.913l-24.678,-0" style="fill:none;stroke:#e9645d;stroke-width:4.17px;"/><path d="M1565.76,646.913l-24.679,-0" style="fill:none;stroke:#e9645d;stroke-width:4.17px;"/><path d="M1490.38,646.913l-24.678,-0" style="fill:none;stroke:#e9645d;stroke-width:4.17px;"/><path d="M1415,646.913l-24.678,-0" style="fill:none;stroke:#e9645d;stroke-width:4.17px;"/><path d="M1339.61,646.913l-24.678,-0" style="fill:none;stroke:#e9645d;stroke-width:4.17px;"/><path d="M1264.23,646.913l-24.679,-0" style="fill:none;stroke:#e9645d;stroke-width:4.17px;"/><path d="M1188.85,646.913l-24.678,-0" style="fill:none;stroke:#e9645d;stroke-width:4.17px;"/><path d="M1113.46,646.913l-24.678,-0" style="fill:none;stroke:#e9645d;stroke-width:4.17px;"/><path d="M1038.08,646.913l-24.678,-0" style="fill:none;stroke:#e9645d;stroke-width:4.17px;"/><path d="M962.698,646.913l-24.679,-0" style="fill:none;stroke:#e9645d;stroke-width:4.17px;"/><path d="M887.314,646.913l-24.678,-0" style="fill:none;stroke:#e9645d;stroke-width:4.17px;"/><path d="M811.931,646.913l-24.678,-0" style="fill:none;stroke:#e9645d;stroke-width:4.17px;"/><path d="M736.548,646.913l-24.678,-0" style="fill:none;stroke:#e9645d;stroke-width:4.17px;"/><path d="M661.165,646.913l-24.679,-0" style="fill:none;stroke:#e9645d;stroke-width:4.17px;"/></g><g><path d="M4408.15,646.913l-24.679,-0" style="fill:none;stroke:#e9645d;stroke-width:4.17px;"/><path d="M4332.77,646.913l-24.678,-0" style="fill:none;stroke:#e9645d;stroke-width:4.17px;"/><path d="M4257.39,646.913l-24.678,-0" style="fill:none;stroke:#e9645d;stroke-width:4.17px;"/><path d="M4182.01,646.913l-24.678,-0" style="fill:none;stroke:#e9645d;stroke-width:4.17px;"/><path d="M4106.62,646.913l-24.678,-0" style="fill:none;stroke:#e9645d;stroke-width:4.17px;"/><path d="M4031.24,646.913l-24.678,-0" style="fill:none;stroke:#e9645d;stroke-width:4.17px;"/><path d="M3955.86,646.913l-24.678,-0" style="fill:none;stroke:#e9645d;stroke-width:4.17px;"/><path d="M3880.47,646.913l-24.678,-0" style="fill:none;stroke:#e9645d;stroke-width:4.17px;"/><path d="M3805.09,646.913l-24.678,-0" style="fill:none;stroke:#e9645d;stroke-width:4.17px;"/><path d="M3729.7,646.913l-24.678,-0" style="fill:none;stroke:#e9645d;stroke-width:4.17px;"/><path d="M3654.32,646.913l-24.678,-0" style="fill:none;stroke:#e9645d;stroke-width:4.17px;"/><path d="M3578.94,646.913l-24.679,-0" style="fill:none;stroke:#e9645d;stroke-width:4.17px;"/><path d="M3503.56,646.913l-24.678,-0" style="fill:none;stroke:#e9645d;stroke-width:4.17px;"/><path d="M3428.17,646.913l-24.678,-0" style="fill:none;stroke:#e9645d;stroke-width:4.17px;"/><path d="M3352.79,646.913l-24.678,-0" style="fill:none;stroke:#e9645d;stroke-width:4.17px;"/><path d="M3277.41,646.913l-24.679,-0" style="fill:none;stroke:#e9645d;stroke-width:4.17px;"/><path d="M3202.02,646.913l-24.678,-0" style="fill:none;stroke:#e9645d;stroke-width:4.17px;"/><path d="M3126.64,646.913l-24.678,-0" style="fill:none;stroke:#e9645d;stroke-width:4.17px;"/><path d="M3051.26,646.913l-24.678,-0" style="fill:none;stroke:#e9645d;stroke-width:4.17px;"/><path d="M2975.87,646.913l-24.679,-0" style="fill:none;stroke:#e9645d;stroke-width:4.17px;"/><path d="M2900.49,646.913l-24.678,-0" style="fill:none;stroke:#e9645d;stroke-width:4.17px;"/><path d="M2825.11,646.913l-24.678,-0" style="fill:none;stroke:#e9645d;stroke-width:4.17px;"/><path d="M2749.72,646.913l-24.678,-0" style="fill:none;stroke:#e9645d;stroke-width:4.17px;"/></g></g><clipPath id="_clip2"><rect x="2123.36" y="1729.6" width="1391.76" height="776.617"/></clipPath><g clip-path="url(#_clip2)"><ellipse cx="2819.24" cy="1761.81" rx="695.877" ry="744.412" style="fill:none;stroke:#e9645d;stroke-width:4.17px;stroke-dasharray:37.5,37.5,0,0;"/></g><g><path d="M2288.09,519.819c-0,-6.781 5.497,-12.279 12.279,-12.279c68.908,0 404.452,0 404.452,0l-0,101.986l-404.452,0c-6.782,0 -12.279,-5.498 -12.279,-12.279c-0,-19.618 -0,-57.81 -0,-77.428Z" style="fill:#e9645d;stroke:#fff;stroke-width:0.83px;"/><path d="M2361.1,548.149c0,-5.73 -4.653,-10.383 -10.384,-10.383l-24.168,-0c-5.731,-0 -10.384,4.653 -10.384,10.383l0,20.768c0,5.731 4.653,10.383 10.384,10.383l24.168,0c5.731,0 10.384,-4.652 10.384,-10.383l0,-20.768Z" style="fill:#fff;stroke:#e9645d;stroke-width:4.17px;"/><path d="M2683.66,548.149c-0,-5.73 -4.653,-10.383 -10.384,-10.383l-64.336,-0c-5.731,-0 -10.383,4.653 -10.383,10.383l-0,20.768c-0,5.731 4.652,10.383 10.383,10.383l64.336,0c5.731,0 10.384,-4.652 10.384,-10.383l-0,-20.768Z" style="fill:#fff;stroke:#e9645d;stroke-width:4.17px;"/><path d="M2311.77,510.904l6.009,-6.009" style="fill:none;stroke:#e9645d;stroke-width:0.83px;"/><path d="M2311.77,607.549l6.009,6.008" style="fill:none;stroke:#e9645d;stroke-width:0.83px;"/><path d="M2361.1,558.533l237.454,0" style="fill:none;stroke:#fff;stroke-width:0.83px;"/></g><g><path d="M3448.87,765.678c-0,6.782 -5.498,12.279 -12.28,12.279c-68.908,0 -404.451,0 -404.451,0l-0,-101.986l404.451,0c6.782,0 12.28,5.498 12.28,12.28c-0,19.617 -0,57.81 -0,77.427Z" style="fill:#e9645d;stroke:#fff;stroke-width:0.83px;"/><path d="M3375.86,737.348c0,5.731 4.653,10.384 10.384,10.384l24.168,-0c5.731,-0 10.384,-4.653 10.384,-10.384l0,-20.767c0,-5.731 -4.653,-10.384 -10.384,-10.384l-24.168,0c-5.731,0 -10.384,4.653 -10.384,10.384l0,20.767Z" style="fill:#fff;stroke:#e9645d;stroke-width:4.17px;"/><path d="M3053.31,737.348c-0,5.731 4.652,10.384 10.383,10.384l64.336,-0c5.731,-0 10.384,-4.653 10.384,-10.384l-0,-20.767c-0,-5.731 -4.653,-10.384 -10.384,-10.384l-64.336,0c-5.731,0 -10.383,4.653 -10.383,10.384l-0,20.767Z" style="fill:#fff;stroke:#e9645d;stroke-width:4.17px;"/><path d="M3425.2,774.593l-6.008,6.009" style="fill:none;stroke:#e9645d;stroke-width:0.83px;"/><path d="M3425.2,677.949l-6.008,-6.009" style="fill:none;stroke:#e9645d;stroke-width:0.83px;"/><path d="M3375.86,726.964l-237.453,0" style="fill:none;stroke:#fff;stroke-width:0.83px;"/></g><g><path d="M2319.08,2175.79c3.39,-5.873 10.9,-7.885 16.773,-4.494c59.677,34.454 350.266,202.226 350.266,202.226l-50.993,88.322c-0,-0 -290.589,-167.772 -350.266,-202.226c-5.873,-3.391 -7.885,-10.901 -4.494,-16.774c9.808,-16.989 28.905,-50.065 38.714,-67.054Z" style="fill:#e9645d;stroke:#fff;stroke-width:0.83px;"/><path d="M2368.15,2236.83c2.866,-4.963 1.163,-11.318 -3.8,-14.184l-20.931,-12.084c-4.963,-2.866 -11.319,-1.162 -14.184,3.801l-10.384,17.984c-2.865,4.964 -1.162,11.319 3.801,14.185l20.93,12.084c4.963,2.865 11.319,1.162 14.185,-3.801l10.383,-17.985Z" style="fill:#fff;stroke:#e9645d;stroke-width:4.17px;"/><path d="M2647.49,2398.11c2.865,-4.963 1.162,-11.319 -3.801,-14.184l-55.717,-32.168c-4.963,-2.866 -11.319,-1.163 -14.184,3.8l-10.384,17.985c-2.865,4.963 -1.162,11.319 3.801,14.184l55.717,32.168c4.963,2.866 11.319,1.163 14.184,-3.8l10.384,-17.985Z" style="fill:#fff;stroke:#e9645d;stroke-width:4.17px;"/><path d="M2344.04,2179.91l8.208,-2.199" style="fill:none;stroke:#e9645d;stroke-width:0.83px;"/><path d="M2295.72,2263.61l2.199,8.208" style="fill:none;stroke:#e9645d;stroke-width:0.83px;"/><path d="M2362.95,2245.83l205.641,118.727" style="fill:none;stroke:#fff;stroke-width:0.83px;"/></g><g><path d="M2971.39,2439.6c0.392,3.233 -0.517,6.489 -2.526,9.052c-2.009,2.564 -4.954,4.224 -8.187,4.615c-49.394,5.986 -232.029,28.118 -232.029,28.118l-12.269,-101.246c-0,0 182.635,-22.131 232.03,-28.117c3.233,-0.392 6.489,0.517 9.052,2.526c2.563,2.009 4.223,4.954 4.615,8.187c2.36,19.475 6.954,57.39 9.314,76.865Z" style="fill:#e9645d;stroke:#fff;stroke-width:0.83px;"/><path d="M2925.64,2420.39c0.441,3.634 3.748,6.226 7.382,5.786l13.167,-1.596c3.633,-0.44 6.226,-3.747 5.785,-7.381l-3.401,-28.066c-0.44,-3.633 -3.747,-6.226 -7.381,-5.785l-13.167,1.595c-3.633,0.441 -6.226,3.748 -5.786,7.381l3.401,28.066Z" style="fill:#fff;stroke:#e9645d;stroke-width:4.17px;"/><path d="M2736.16,2439.57c0.689,5.689 5.868,9.749 11.557,9.059l29.258,-3.545c5.689,-0.69 9.748,-5.868 9.059,-11.558l-2.499,-20.616c-0.689,-5.689 -5.868,-9.748 -11.557,-9.059l-29.257,3.545c-5.689,0.69 -9.749,5.869 -9.059,11.558l2.498,20.616Z" style="fill:#fff;stroke:#e9645d;stroke-width:4.17px;"/><path d="M2958.58,2450.14l-2.798,6.392" style="fill:none;stroke:#e9645d;stroke-width:0.83px;"/><path d="M2946.96,2354.19l-4.244,-5.538" style="fill:none;stroke:#e9645d;stroke-width:0.83px;"/><path d="M2923.94,2406.36l-139.157,16.863" style="fill:none;stroke:#fff;stroke-width:0.83px;"/></g><g><path d="M1350.29,519.819c0,-6.781 5.498,-12.279 12.279,-12.279c68.909,0 404.452,0 404.452,0l0,101.986l-404.452,0c-6.781,0 -12.279,-5.498 -12.279,-12.279c0,-19.618 0,-57.81 0,-77.428Z" style="fill:#e9645d;stroke:#fff;stroke-width:0.83px;"/><path d="M1423.3,548.149c0,-5.73 -4.652,-10.383 -10.383,-10.383l-24.169,-0c-5.731,-0 -10.383,4.653 -10.383,10.383l-0,20.768c-0,5.731 4.652,10.383 10.383,10.383l24.169,0c5.731,0 10.383,-4.652 10.383,-10.383l0,-20.768Z" style="fill:#fff;stroke:#e9645d;stroke-width:4.17px;"/><path d="M1745.85,548.149c0,-5.73 -4.653,-10.383 -10.383,-10.383l-64.336,-0c-5.731,-0 -10.384,4.653 -10.384,10.383l-0,20.768c-0,5.731 4.653,10.383 10.384,10.383l64.336,0c5.73,0 10.383,-4.652 10.383,-10.383l0,-20.768Z" style="fill:#fff;stroke:#e9645d;stroke-width:4.17px;"/><path d="M1373.96,510.904l6.009,-6.009" style="fill:none;stroke:#e9645d;stroke-width:0.83px;"/><path d="M1373.96,607.549l6.009,6.008" style="fill:none;stroke:#e9645d;stroke-width:0.83px;"/><path d="M1423.3,558.533l237.454,0" style="fill:none;stroke:#fff;stroke-width:0.83px;"/></g><g><path d="M1342.06,2019.47c-6.781,-0 -12.279,-5.498 -12.279,-12.279c0,-68.909 0,-404.452 0,-404.452l101.986,0l0,404.452c0,6.781 -5.498,12.279 -12.279,12.279c-19.618,-0 -57.81,-0 -77.428,-0Z" style="fill:#e9645d;stroke:#fff;stroke-width:0.83px;"/><path d="M1370.39,1946.46c-5.731,-0 -10.384,4.653 -10.384,10.383l-0,24.169c-0,5.731 4.653,10.383 10.384,10.383l20.767,0c5.731,0 10.383,-4.652 10.383,-10.383l0,-24.169c0,-5.73 -4.652,-10.383 -10.383,-10.383l-20.767,-0Z" style="fill:#fff;stroke:#e9645d;stroke-width:4.17px;"/><path d="M1370.39,1623.9c-5.731,0 -10.384,4.653 -10.384,10.384l-0,64.336c-0,5.731 4.653,10.383 10.384,10.383l20.767,0c5.731,0 10.383,-4.652 10.383,-10.383l0,-64.336c0,-5.731 -4.652,-10.384 -10.383,-10.384l-20.767,0Z" style="fill:#fff;stroke:#e9645d;stroke-width:4.17px;"/><path d="M1333.14,1995.8l-6.009,-6.009" style="fill:none;stroke:#e9645d;stroke-width:0.83px;"/><path d="M1429.79,1995.8l6.008,-6.009" style="fill:none;stroke:#e9645d;stroke-width:0.83px;"/><path d="M1380.77,1946.46l0,-237.454" style="fill:none;stroke:#fff;stroke-width:0.83px;"/></g><path d="M2693.42,2347.03c40.027,2.49 70.66,34.477 68.365,71.387c-2.296,36.909 -36.657,64.853 -76.684,62.364c-40.027,-2.49 -70.66,-34.477 -68.364,-71.387c2.295,-36.909 36.656,-64.853 76.683,-62.364Z" style="fill:none;"/><clipPath id="_clip3"><path d="M2693.42,2347.03c40.027,2.49 70.66,34.477 68.365,71.387c-2.296,36.909 -36.657,64.853 -76.684,62.364c-40.027,-2.49 -70.66,-34.477 -68.364,-71.387c2.295,-36.909 36.656,-64.853 76.683,-62.364Z"/></clipPath><g clip-path="url(#_clip3)"><path d="M2691.83,2376.55l-49.739,91.315" style="fill:none;stroke:#e9645d;stroke-width:0.83px;"/><path d="M2700.64,2377.09l-37.093,99.946" style="fill:none;stroke:#e9645d;stroke-width:0.83px;"/><path d="M2709.02,2377.62l-23.881,106.485" style="fill:none;stroke:#e9645d;stroke-width:0.83px;"/><path d="M2709.02,2377.62l-8.547,116.588" style="fill:none;stroke:#e9645d;stroke-width:0.83px;"/><path d="M2697.47,2377.91l-42.272,93.733" style="fill:none;stroke:#e9645d;stroke-width:0.83px;"/><path d="M2706.9,2377.28l-29.477,101.397" style="fill:none;stroke:#e9645d;stroke-width:0.83px;"/><path d="M2713.99,2380.48l-0.001,110.994" style="fill:none;stroke:#e9645d;stroke-width:0.83px;"/></g></g></svg>