<svg width="462" height="442" viewBox="0 0 462 442" fill="none" xmlns="http://www.w3.org/2000/svg">
<rect x="1" y="1" width="460" height="440" rx="8" fill="white"/>
<rect x="1" y="1" width="460" height="440" rx="8" stroke="black" stroke-width="2"/>
<g clip-path="url(#clip0_656_11699)">
<path d="M50.6194 32.1235C50.5111 32.2401 50.3694 32.2985 50.2194 32.2985C50.0861 32.2985 49.9611 32.2568 49.8527 32.1568L44.8194 27.5818C44.5611 27.3485 44.5611 26.9485 44.8194 26.7151L49.8527 22.1401C50.0777 21.9401 50.4194 21.9568 50.6194 22.1735C50.8194 22.3985 50.8111 22.7401 50.5861 22.9401L46.5564 26.6068H55.6361C55.9352 26.6068 56.1777 26.8493 56.1777 27.1485C56.1777 27.4476 55.9352 27.6901 55.6361 27.6901H46.5564L50.5861 31.3568C50.8027 31.5568 50.8194 31.8985 50.6194 32.1235Z" fill="#0062FF"/>
<path d="M68.302 22.2H69.674V26.302H74.406V22.2H75.778V32H74.406V27.534H69.674V32H68.302V22.2ZM81.2795 32.112C80.7381 32.112 80.2435 32.0233 79.7955 31.846C79.3475 31.6687 78.9601 31.4167 78.6335 31.09C78.3161 30.7633 78.0688 30.376 77.8915 29.928C77.7141 29.48 77.6255 28.9807 77.6255 28.43C77.6255 27.8887 77.7141 27.394 77.8915 26.946C78.0688 26.4887 78.3161 26.0967 78.6335 25.77C78.9601 25.4433 79.3475 25.1913 79.7955 25.014C80.2435 24.8367 80.7381 24.748 81.2795 24.748C81.8208 24.748 82.3155 24.8367 82.7635 25.014C83.2115 25.1913 83.5941 25.4433 83.9115 25.77C84.2381 26.0967 84.4901 26.4887 84.6675 26.946C84.8448 27.394 84.9335 27.8887 84.9335 28.43C84.9335 28.9807 84.8448 29.48 84.6675 29.928C84.4901 30.376 84.2381 30.7633 83.9115 31.09C83.5941 31.4167 83.2115 31.6687 82.7635 31.846C82.3155 32.0233 81.8208 32.112 81.2795 32.112ZM81.2795 31.048C81.5875 31.048 81.8768 30.9873 82.1475 30.866C82.4275 30.7447 82.6655 30.572 82.8615 30.348C83.0668 30.1147 83.2301 29.8393 83.3515 29.522C83.4728 29.1953 83.5335 28.8313 83.5335 28.43C83.5335 28.0287 83.4728 27.6693 83.3515 27.352C83.2301 27.0253 83.0668 26.75 82.8615 26.526C82.6561 26.2927 82.4181 26.1153 82.1475 25.994C81.8768 25.8727 81.5875 25.812 81.2795 25.812C80.9715 25.812 80.6775 25.8727 80.3975 25.994C80.1268 26.1153 79.8888 26.2927 79.6835 26.526C79.4875 26.75 79.3288 27.0253 79.2075 27.352C79.0861 27.6693 79.0255 28.0287 79.0255 28.43C79.0255 28.8313 79.0861 29.1953 79.2075 29.522C79.3288 29.8393 79.4875 30.1147 79.6835 30.348C79.8888 30.572 80.1268 30.7447 80.3975 30.866C80.6775 30.9873 80.9715 31.048 81.2795 31.048ZM86.7831 24.86H88.0151V25.896H88.0431C88.2858 25.504 88.6124 25.2147 89.0231 25.028C89.4431 24.8413 89.8631 24.748 90.2831 24.748C90.7871 24.748 91.2118 24.8693 91.5571 25.112C91.9118 25.3547 92.1778 25.6953 92.3551 26.134C92.5978 25.6767 92.9198 25.3313 93.3211 25.098C93.7224 24.8647 94.1891 24.748 94.7211 24.748C95.1131 24.748 95.4538 24.818 95.7431 24.958C96.0418 25.0887 96.2891 25.2753 96.4851 25.518C96.6811 25.7513 96.8258 26.0313 96.9191 26.358C97.0218 26.6847 97.0731 27.0393 97.0731 27.422V32H95.7571V27.744C95.7571 27.184 95.6591 26.722 95.4631 26.358C95.2671 25.994 94.9218 25.812 94.4271 25.812C94.1098 25.812 93.8344 25.8867 93.6011 26.036C93.3678 26.1853 93.1764 26.3813 93.0271 26.624C92.8778 26.8667 92.7658 27.142 92.6911 27.45C92.6164 27.758 92.5791 28.0753 92.5791 28.402V32H91.2771V27.744C91.2771 27.1653 91.1744 26.6987 90.9691 26.344C90.7638 25.9893 90.4231 25.812 89.9471 25.812C89.6484 25.812 89.3824 25.882 89.1491 26.022C88.9251 26.1527 88.7338 26.3347 88.5751 26.568C88.4164 26.8013 88.2951 27.0767 88.2111 27.394C88.1364 27.7113 88.0991 28.0473 88.0991 28.402V32H86.7831V24.86ZM100.052 28.724C100.126 29.4613 100.378 30.0307 100.808 30.432C101.237 30.824 101.816 31.02 102.544 31.02C102.973 31.02 103.393 30.9687 103.804 30.866C104.224 30.754 104.569 30.6187 104.84 30.46V31.748C104.616 31.8227 104.308 31.902 103.916 31.986C103.524 32.07 103.038 32.112 102.46 32.112C101.246 32.112 100.313 31.776 99.6598 31.104C99.0158 30.432 98.6938 29.4987 98.6938 28.304C98.6938 27.7627 98.7778 27.2727 98.9458 26.834C99.1231 26.3953 99.3611 26.022 99.6598 25.714C99.9678 25.406 100.327 25.168 100.738 25C101.148 24.832 101.592 24.748 102.068 24.748C103.085 24.748 103.883 25.0467 104.462 25.644C105.04 26.2413 105.33 27.1467 105.33 28.36V28.724H100.052ZM102.054 25.812C101.503 25.812 101.05 25.9893 100.696 26.344C100.35 26.6893 100.136 27.156 100.052 27.744H103.93C103.93 27.128 103.752 26.652 103.398 26.316C103.043 25.98 102.595 25.812 102.054 25.812Z" fill="#0062FF"/>
</g>
<path d="M43.232 55.2H52.664V57.312H45.584V62.232H52.184V64.344H45.584V69.888H52.664V72H43.232V55.2ZM55.9529 59.76H58.2089V61.512H58.2569C58.7209 60.856 59.2969 60.368 59.9849 60.048C60.6889 59.728 61.4729 59.568 62.3369 59.568C63.7769 59.568 64.9129 60 65.7449 60.864C66.5769 61.712 66.9929 63.024 66.9929 64.8V72H64.7369V65.52C64.7369 64.736 64.6649 64.08 64.5209 63.552C64.3929 63.008 64.2009 62.584 63.9449 62.28C63.7049 61.96 63.4009 61.736 63.0329 61.608C62.6809 61.464 62.2889 61.392 61.8569 61.392C60.7529 61.392 59.8649 61.792 59.1929 62.592C58.5369 63.376 58.2089 64.592 58.2089 66.24V72H55.9529V59.76ZM76.7454 61.584H73.7214V68.184C73.7214 68.92 73.9054 69.432 74.2734 69.72C74.6574 69.992 75.1054 70.128 75.6174 70.128C76.0014 70.128 76.4094 70.064 76.8414 69.936V71.976C76.5374 72.056 76.2494 72.112 75.9774 72.144C75.7054 72.176 75.4574 72.192 75.2334 72.192C74.0174 72.192 73.0894 71.864 72.4494 71.208C71.8094 70.536 71.4894 69.6 71.4894 68.4V61.584H69.2574V59.76H71.4894V56.712L73.7214 55.896V59.76H76.7454V61.584ZM81.1134 66.384C81.2414 67.648 81.6734 68.624 82.4094 69.312C83.1454 69.984 84.1374 70.32 85.3854 70.32C86.1214 70.32 86.8414 70.232 87.5454 70.056C88.2654 69.864 88.8574 69.632 89.3214 69.36V71.568C88.9374 71.696 88.4094 71.832 87.7374 71.976C87.0654 72.12 86.2334 72.192 85.2414 72.192C83.1614 72.192 81.5614 71.616 80.4414 70.464C79.3374 69.312 78.7854 67.712 78.7854 65.664C78.7854 64.736 78.9294 63.896 79.2174 63.144C79.5214 62.392 79.9294 61.752 80.4414 61.224C80.9694 60.696 81.5854 60.288 82.2894 60C82.9934 59.712 83.7534 59.568 84.5694 59.568C86.3134 59.568 87.6814 60.08 88.6734 61.104C89.6654 62.128 90.1614 63.68 90.1614 65.76V66.384H81.1134ZM84.5454 61.392C83.6014 61.392 82.8254 61.696 82.2174 62.304C81.6254 62.896 81.2574 63.696 81.1134 64.704H87.7614C87.7614 63.648 87.4574 62.832 86.8494 62.256C86.2414 61.68 85.4734 61.392 84.5454 61.392ZM93.4061 59.76H95.5181V61.752H95.5661C95.9661 60.968 96.4461 60.408 97.0061 60.072C97.5821 59.736 98.2701 59.568 99.0701 59.568C99.2941 59.568 99.5181 59.584 99.7421 59.616C99.9821 59.632 100.23 59.656 100.486 59.688V61.656C100.246 61.624 100.014 61.6 99.7901 61.584C99.5661 61.552 99.3501 61.536 99.1421 61.536C97.9101 61.536 97.0221 61.96 96.4781 62.808C95.9341 63.656 95.6621 64.896 95.6621 66.528V72H93.4061V59.76ZM114.808 61.584H111.784V68.184C111.784 68.92 111.968 69.432 112.336 69.72C112.72 69.992 113.168 70.128 113.68 70.128C114.064 70.128 114.472 70.064 114.904 69.936V71.976C114.6 72.056 114.312 72.112 114.04 72.144C113.768 72.176 113.52 72.192 113.296 72.192C112.08 72.192 111.152 71.864 110.512 71.208C109.872 70.536 109.552 69.6 109.552 68.4V61.584H107.32V59.76H109.552V56.712L111.784 55.896V59.76H114.808V61.584ZM117.781 53.76H120.037V59.76L120.013 61.512H120.085C120.549 60.856 121.125 60.368 121.813 60.048C122.501 59.728 123.285 59.568 124.165 59.568C125.605 59.568 126.741 60 127.573 60.864C128.405 61.712 128.821 63.024 128.821 64.8V72H126.565V65.52C126.565 64.736 126.493 64.08 126.349 63.552C126.221 63.008 126.029 62.584 125.773 62.28C125.533 61.96 125.229 61.736 124.861 61.608C124.509 61.464 124.117 61.392 123.685 61.392C122.581 61.392 121.693 61.792 121.021 62.592C120.365 63.376 120.037 64.592 120.037 66.24V72H117.781V53.76ZM133.942 66.384C134.07 67.648 134.502 68.624 135.238 69.312C135.974 69.984 136.966 70.32 138.214 70.32C138.95 70.32 139.67 70.232 140.374 70.056C141.094 69.864 141.686 69.632 142.15 69.36V71.568C141.766 71.696 141.238 71.832 140.566 71.976C139.894 72.12 139.062 72.192 138.07 72.192C135.99 72.192 134.39 71.616 133.27 70.464C132.166 69.312 131.614 67.712 131.614 65.664C131.614 64.736 131.758 63.896 132.046 63.144C132.35 62.392 132.758 61.752 133.27 61.224C133.798 60.696 134.414 60.288 135.118 60C135.822 59.712 136.582 59.568 137.398 59.568C139.142 59.568 140.51 60.08 141.502 61.104C142.494 62.128 142.99 63.68 142.99 65.76V66.384H133.942ZM137.374 61.392C136.43 61.392 135.654 61.696 135.046 62.304C134.454 62.896 134.086 63.696 133.942 64.704H140.59C140.59 63.648 140.286 62.832 139.678 62.256C139.07 61.68 138.302 61.392 137.374 61.392ZM155.125 72.24C154.661 72.24 154.101 72.192 153.445 72.096C152.789 72 152.069 71.816 151.285 71.544V69.336C151.541 69.448 151.837 69.552 152.173 69.648C152.509 69.744 152.853 69.832 153.205 69.912C153.557 69.976 153.901 70.032 154.237 70.08C154.573 70.112 154.885 70.128 155.173 70.128C155.717 70.128 156.205 70.056 156.637 69.912C157.069 69.752 157.429 69.552 157.717 69.312C158.021 69.056 158.245 68.768 158.389 68.448C158.549 68.112 158.629 67.768 158.629 67.416C158.629 67.032 158.533 66.688 158.341 66.384C158.165 66.08 157.925 65.808 157.621 65.568C157.333 65.312 156.989 65.08 156.589 64.872C156.205 64.664 155.797 64.456 155.365 64.248C154.853 64.008 154.341 63.752 153.829 63.48C153.333 63.192 152.877 62.864 152.461 62.496C152.061 62.128 151.733 61.704 151.477 61.224C151.221 60.744 151.093 60.168 151.093 59.496C151.093 58.84 151.213 58.232 151.453 57.672C151.693 57.112 152.045 56.632 152.509 56.232C152.989 55.832 153.581 55.52 154.285 55.296C154.989 55.072 155.805 54.96 156.733 54.96C157.645 54.96 158.413 55.04 159.037 55.2C159.661 55.344 160.109 55.464 160.381 55.56V57.768C159.709 57.48 159.037 57.296 158.365 57.216C157.693 57.12 157.149 57.072 156.733 57.072C155.613 57.072 154.813 57.28 154.333 57.696C153.869 58.112 153.637 58.608 153.637 59.184C153.637 59.552 153.717 59.88 153.877 60.168C154.053 60.44 154.285 60.696 154.573 60.936C154.861 61.16 155.189 61.376 155.557 61.584C155.925 61.776 156.317 61.968 156.733 62.16C157.261 62.4 157.789 62.664 158.317 62.952C158.845 63.24 159.317 63.584 159.733 63.984C160.165 64.368 160.509 64.832 160.765 65.376C161.037 65.92 161.173 66.568 161.173 67.32C161.173 68.04 161.045 68.704 160.789 69.312C160.533 69.904 160.149 70.416 159.637 70.848C159.125 71.28 158.493 71.624 157.741 71.88C156.989 72.12 156.117 72.24 155.125 72.24ZM164.732 55.2H168.548L172.868 64.44L177.212 55.2H180.908V72H178.556V57.504H178.484L173.78 67.2H171.86L167.156 57.504H167.084V72H164.732V55.2ZM188.5 72.24C188.036 72.24 187.476 72.192 186.82 72.096C186.164 72 185.444 71.816 184.66 71.544V69.336C184.916 69.448 185.212 69.552 185.548 69.648C185.884 69.744 186.228 69.832 186.58 69.912C186.932 69.976 187.276 70.032 187.612 70.08C187.948 70.112 188.26 70.128 188.548 70.128C189.092 70.128 189.58 70.056 190.012 69.912C190.444 69.752 190.804 69.552 191.092 69.312C191.396 69.056 191.62 68.768 191.764 68.448C191.924 68.112 192.004 67.768 192.004 67.416C192.004 67.032 191.908 66.688 191.716 66.384C191.54 66.08 191.3 65.808 190.996 65.568C190.708 65.312 190.364 65.08 189.964 64.872C189.58 64.664 189.172 64.456 188.74 64.248C188.228 64.008 187.716 63.752 187.204 63.48C186.708 63.192 186.252 62.864 185.836 62.496C185.436 62.128 185.108 61.704 184.852 61.224C184.596 60.744 184.468 60.168 184.468 59.496C184.468 58.84 184.588 58.232 184.828 57.672C185.068 57.112 185.42 56.632 185.884 56.232C186.364 55.832 186.956 55.52 187.66 55.296C188.364 55.072 189.18 54.96 190.108 54.96C191.02 54.96 191.788 55.04 192.412 55.2C193.036 55.344 193.484 55.464 193.756 55.56V57.768C193.084 57.48 192.412 57.296 191.74 57.216C191.068 57.12 190.524 57.072 190.108 57.072C188.988 57.072 188.188 57.28 187.708 57.696C187.244 58.112 187.012 58.608 187.012 59.184C187.012 59.552 187.092 59.88 187.252 60.168C187.428 60.44 187.66 60.696 187.948 60.936C188.236 61.16 188.564 61.376 188.932 61.584C189.3 61.776 189.692 61.968 190.108 62.16C190.636 62.4 191.164 62.664 191.692 62.952C192.22 63.24 192.692 63.584 193.108 63.984C193.54 64.368 193.884 64.832 194.14 65.376C194.412 65.92 194.548 66.568 194.548 67.32C194.548 68.04 194.42 68.704 194.164 69.312C193.908 69.904 193.524 70.416 193.012 70.848C192.5 71.28 191.868 71.624 191.116 71.88C190.364 72.12 189.492 72.24 188.5 72.24ZM208.702 72.192C207.758 72.192 206.902 72.04 206.134 71.736C205.382 71.432 204.742 71.008 204.214 70.464C203.686 69.904 203.278 69.24 202.99 68.472C202.718 67.688 202.582 66.824 202.582 65.88C202.582 64.936 202.726 64.08 203.014 63.312C203.302 62.528 203.71 61.864 204.238 61.32C204.782 60.76 205.43 60.328 206.182 60.024C206.934 59.72 207.782 59.568 208.726 59.568C209.206 59.568 209.63 59.592 209.998 59.64C210.382 59.688 210.71 59.744 210.982 59.808C211.286 59.872 211.55 59.952 211.774 60.048V61.992C211.534 61.88 211.27 61.784 210.982 61.704C210.726 61.624 210.43 61.552 210.094 61.488C209.758 61.424 209.382 61.392 208.966 61.392C207.686 61.392 206.702 61.784 206.014 62.568C205.326 63.336 204.982 64.44 204.982 65.88C204.982 67.32 205.326 68.432 206.014 69.216C206.702 69.984 207.678 70.368 208.942 70.368C209.358 70.368 209.734 70.336 210.07 70.272C210.422 70.208 210.726 70.136 210.982 70.056C211.27 69.976 211.534 69.872 211.774 69.744V71.712C211.534 71.808 211.262 71.888 210.958 71.952C210.686 72.016 210.358 72.072 209.974 72.12C209.59 72.168 209.166 72.192 208.702 72.192ZM220.378 72.192C219.45 72.192 218.602 72.04 217.834 71.736C217.066 71.432 216.402 71 215.842 70.44C215.298 69.88 214.874 69.216 214.57 68.448C214.266 67.68 214.114 66.824 214.114 65.88C214.114 64.952 214.266 64.104 214.57 63.336C214.874 62.552 215.298 61.88 215.842 61.32C216.402 60.76 217.066 60.328 217.834 60.024C218.602 59.72 219.45 59.568 220.378 59.568C221.306 59.568 222.154 59.72 222.922 60.024C223.69 60.328 224.346 60.76 224.89 61.32C225.45 61.88 225.882 62.552 226.186 63.336C226.49 64.104 226.642 64.952 226.642 65.88C226.642 66.824 226.49 67.68 226.186 68.448C225.882 69.216 225.45 69.88 224.89 70.44C224.346 71 223.69 71.432 222.922 71.736C222.154 72.04 221.306 72.192 220.378 72.192ZM220.378 70.368C220.906 70.368 221.402 70.264 221.866 70.056C222.346 69.848 222.754 69.552 223.09 69.168C223.442 68.768 223.722 68.296 223.93 67.752C224.138 67.192 224.242 66.568 224.242 65.88C224.242 65.192 224.138 64.576 223.93 64.032C223.722 63.472 223.442 63 223.09 62.616C222.738 62.216 222.33 61.912 221.866 61.704C221.402 61.496 220.906 61.392 220.378 61.392C219.85 61.392 219.346 61.496 218.866 61.704C218.402 61.912 217.994 62.216 217.642 62.616C217.306 63 217.034 63.472 216.826 64.032C216.618 64.576 216.514 65.192 216.514 65.88C216.514 66.568 216.618 67.192 216.826 67.752C217.034 68.296 217.306 68.768 217.642 69.168C217.994 69.552 218.402 69.848 218.866 70.056C219.346 70.264 219.85 70.368 220.378 70.368ZM234.684 72.192C233.82 72.192 233.036 72.032 232.332 71.712C231.628 71.392 231.028 70.944 230.532 70.368C230.036 69.792 229.652 69.112 229.38 68.328C229.124 67.528 228.996 66.664 228.996 65.736C228.996 64.856 229.132 64.04 229.404 63.288C229.676 62.536 230.06 61.888 230.556 61.344C231.052 60.784 231.644 60.352 232.332 60.048C233.036 59.728 233.804 59.568 234.636 59.568C235.564 59.568 236.348 59.744 236.988 60.096C237.644 60.448 238.196 60.88 238.644 61.392H238.692V53.76H240.948V72H238.788V70.272H238.644C238.18 70.864 237.628 71.336 236.988 71.688C236.364 72.024 235.596 72.192 234.684 72.192ZM235.068 70.368C235.596 70.368 236.084 70.256 236.532 70.032C236.98 69.808 237.364 69.504 237.684 69.12C238.004 68.72 238.252 68.248 238.428 67.704C238.604 67.16 238.692 66.56 238.692 65.904C238.692 65.248 238.596 64.648 238.404 64.104C238.228 63.544 237.98 63.064 237.66 62.664C237.34 62.264 236.956 61.952 236.508 61.728C236.06 61.504 235.564 61.392 235.02 61.392C234.508 61.392 234.028 61.504 233.58 61.728C233.132 61.952 232.748 62.264 232.428 62.664C232.108 63.048 231.852 63.512 231.66 64.056C231.484 64.6 231.396 65.192 231.396 65.832C231.396 66.488 231.484 67.096 231.66 67.656C231.852 68.2 232.108 68.68 232.428 69.096C232.764 69.496 233.156 69.808 233.604 70.032C234.052 70.256 234.54 70.368 235.068 70.368ZM246.442 66.384C246.57 67.648 247.002 68.624 247.738 69.312C248.474 69.984 249.466 70.32 250.714 70.32C251.45 70.32 252.17 70.232 252.874 70.056C253.594 69.864 254.186 69.632 254.65 69.36V71.568C254.266 71.696 253.738 71.832 253.066 71.976C252.394 72.12 251.562 72.192 250.57 72.192C248.49 72.192 246.89 71.616 245.77 70.464C244.666 69.312 244.114 67.712 244.114 65.664C244.114 64.736 244.258 63.896 244.546 63.144C244.85 62.392 245.258 61.752 245.77 61.224C246.298 60.696 246.914 60.288 247.618 60C248.322 59.712 249.082 59.568 249.898 59.568C251.642 59.568 253.01 60.08 254.002 61.104C254.994 62.128 255.49 63.68 255.49 65.76V66.384H246.442ZM249.874 61.392C248.93 61.392 248.154 61.696 247.546 62.304C246.954 62.896 246.586 63.696 246.442 64.704H253.09C253.09 63.648 252.786 62.832 252.178 62.256C251.57 61.68 250.802 61.392 249.874 61.392Z" fill="#22242A"/>
<rect x="42" y="110" width="378" height="54" rx="3" fill="white"/>
<rect x="42" y="110" width="378" height="54" rx="3" stroke="#0062FF" stroke-width="2"/>
<path d="M61 140.088C60.6267 140.088 60.2747 140.019 59.944 139.88C59.624 139.741 59.3413 139.555 59.096 139.32C58.8613 139.075 58.6747 138.787 58.536 138.456C58.3973 138.125 58.328 137.773 58.328 137.4C58.328 137.027 58.3973 136.68 58.536 136.36C58.6747 136.029 58.8613 135.747 59.096 135.512C59.3413 135.267 59.624 135.075 59.944 134.936C60.2747 134.797 60.6267 134.728 61 134.728C61.3733 134.728 61.72 134.797 62.04 134.936C62.3707 135.075 62.6533 135.267 62.888 135.512C63.1333 135.747 63.3253 136.029 63.464 136.36C63.6027 136.68 63.672 137.027 63.672 137.4C63.672 137.773 63.6027 138.125 63.464 138.456C63.3253 138.787 63.1333 139.075 62.888 139.32C62.6533 139.555 62.3707 139.741 62.04 139.88C61.72 140.019 61.3733 140.088 61 140.088ZM72.6875 140.088C72.3142 140.088 71.9622 140.019 71.6315 139.88C71.3115 139.741 71.0288 139.555 70.7835 139.32C70.5488 139.075 70.3622 138.787 70.2235 138.456C70.0848 138.125 70.0155 137.773 70.0155 137.4C70.0155 137.027 70.0848 136.68 70.2235 136.36C70.3622 136.029 70.5488 135.747 70.7835 135.512C71.0288 135.267 71.3115 135.075 71.6315 134.936C71.9622 134.797 72.3142 134.728 72.6875 134.728C73.0608 134.728 73.4075 134.797 73.7275 134.936C74.0582 135.075 74.3408 135.267 74.5755 135.512C74.8208 135.747 75.0128 136.029 75.1515 136.36C75.2902 136.68 75.3595 137.027 75.3595 137.4C75.3595 137.773 75.2902 138.125 75.1515 138.456C75.0128 138.787 74.8208 139.075 74.5755 139.32C74.3408 139.555 74.0582 139.741 73.7275 139.88C73.4075 140.019 73.0608 140.088 72.6875 140.088ZM84.375 140.088C84.0017 140.088 83.6497 140.019 83.319 139.88C82.999 139.741 82.7163 139.555 82.471 139.32C82.2363 139.075 82.0497 138.787 81.911 138.456C81.7723 138.125 81.703 137.773 81.703 137.4C81.703 137.027 81.7723 136.68 81.911 136.36C82.0497 136.029 82.2363 135.747 82.471 135.512C82.7163 135.267 82.999 135.075 83.319 134.936C83.6497 134.797 84.0017 134.728 84.375 134.728C84.7483 134.728 85.095 134.797 85.415 134.936C85.7457 135.075 86.0283 135.267 86.263 135.512C86.5083 135.747 86.7003 136.029 86.839 136.36C86.9777 136.68 87.047 137.027 87.047 137.4C87.047 137.773 86.9777 138.125 86.839 138.456C86.7003 138.787 86.5083 139.075 86.263 139.32C86.0283 139.555 85.7457 139.741 85.415 139.88C85.095 140.019 84.7483 140.088 84.375 140.088ZM96.0625 140.088C95.6892 140.088 95.3372 140.019 95.0065 139.88C94.6865 139.741 94.4038 139.555 94.1585 139.32C93.9238 139.075 93.7372 138.787 93.5985 138.456C93.4598 138.125 93.3905 137.773 93.3905 137.4C93.3905 137.027 93.4598 136.68 93.5985 136.36C93.7372 136.029 93.9238 135.747 94.1585 135.512C94.4038 135.267 94.6865 135.075 95.0065 134.936C95.3372 134.797 95.6892 134.728 96.0625 134.728C96.4358 134.728 96.7825 134.797 97.1025 134.936C97.4332 135.075 97.7158 135.267 97.9505 135.512C98.1958 135.747 98.3878 136.029 98.5265 136.36C98.6652 136.68 98.7345 137.027 98.7345 137.4C98.7345 137.773 98.6652 138.125 98.5265 138.456C98.3878 138.787 98.1958 139.075 97.9505 139.32C97.7158 139.555 97.4332 139.741 97.1025 139.88C96.7825 140.019 96.4358 140.088 96.0625 140.088ZM107.75 140.088C107.377 140.088 107.025 140.019 106.694 139.88C106.374 139.741 106.091 139.555 105.846 139.32C105.611 139.075 105.425 138.787 105.286 138.456C105.147 138.125 105.078 137.773 105.078 137.4C105.078 137.027 105.147 136.68 105.286 136.36C105.425 136.029 105.611 135.747 105.846 135.512C106.091 135.267 106.374 135.075 106.694 134.936C107.025 134.797 107.377 134.728 107.75 134.728C108.123 134.728 108.47 134.797 108.79 134.936C109.121 135.075 109.403 135.267 109.638 135.512C109.883 135.747 110.075 136.029 110.214 136.36C110.353 136.68 110.422 137.027 110.422 137.4C110.422 137.773 110.353 138.125 110.214 138.456C110.075 138.787 109.883 139.075 109.638 139.32C109.403 139.555 109.121 139.741 108.79 139.88C108.47 140.019 108.123 140.088 107.75 140.088ZM119.438 140.088C119.064 140.088 118.712 140.019 118.382 139.88C118.062 139.741 117.779 139.555 117.534 139.32C117.299 139.075 117.112 138.787 116.974 138.456C116.835 138.125 116.766 137.773 116.766 137.4C116.766 137.027 116.835 136.68 116.974 136.36C117.112 136.029 117.299 135.747 117.534 135.512C117.779 135.267 118.062 135.075 118.382 134.936C118.712 134.797 119.064 134.728 119.438 134.728C119.811 134.728 120.158 134.797 120.478 134.936C120.808 135.075 121.091 135.267 121.326 135.512C121.571 135.747 121.763 136.029 121.902 136.36C122.04 136.68 122.11 137.027 122.11 137.4C122.11 137.773 122.04 138.125 121.902 138.456C121.763 138.787 121.571 139.075 121.326 139.32C121.091 139.555 120.808 139.741 120.478 139.88C120.158 140.019 119.811 140.088 119.438 140.088Z" fill="#7B7E86"/>
<path d="M46.81 204.14C46.0073 204.14 45.2887 204.023 44.654 203.79C44.0287 203.547 43.492 203.207 43.044 202.768C42.6053 202.329 42.2693 201.802 42.036 201.186C41.8027 200.561 41.686 199.865 41.686 199.1C41.686 198.353 41.8073 197.672 42.05 197.056C42.2927 196.431 42.6333 195.899 43.072 195.46C43.52 195.012 44.0567 194.667 44.682 194.424C45.3167 194.181 46.026 194.06 46.81 194.06C47.1367 194.06 47.44 194.083 47.72 194.13C48 194.167 48.2473 194.209 48.462 194.256C48.7047 194.312 48.9287 194.377 49.134 194.452V195.796C48.9287 195.703 48.7047 195.619 48.462 195.544C48.2473 195.479 48 195.423 47.72 195.376C47.44 195.32 47.1367 195.292 46.81 195.292C46.25 195.292 45.7413 195.381 45.284 195.558C44.836 195.735 44.4533 195.987 44.136 196.314C43.8187 196.641 43.5713 197.042 43.394 197.518C43.226 197.985 43.142 198.512 43.142 199.1C43.142 199.688 43.226 200.22 43.394 200.696C43.5713 201.163 43.8187 201.559 44.136 201.886C44.4533 202.213 44.836 202.465 45.284 202.642C45.7413 202.819 46.25 202.908 46.81 202.908C47.1367 202.908 47.44 202.889 47.72 202.852C48 202.805 48.2473 202.754 48.462 202.698C48.7047 202.633 48.9287 202.558 49.134 202.474V203.818C48.9287 203.883 48.7047 203.939 48.462 203.986C48.2473 204.033 48 204.07 47.72 204.098C47.44 204.126 47.1367 204.14 46.81 204.14ZM53.9533 204.112C53.4119 204.112 52.9173 204.023 52.4693 203.846C52.0213 203.669 51.6339 203.417 51.3073 203.09C50.9899 202.763 50.7426 202.376 50.5653 201.928C50.3879 201.48 50.2993 200.981 50.2993 200.43C50.2993 199.889 50.3879 199.394 50.5653 198.946C50.7426 198.489 50.9899 198.097 51.3073 197.77C51.6339 197.443 52.0213 197.191 52.4693 197.014C52.9173 196.837 53.4119 196.748 53.9533 196.748C54.4946 196.748 54.9893 196.837 55.4373 197.014C55.8853 197.191 56.2679 197.443 56.5853 197.77C56.9119 198.097 57.1639 198.489 57.3413 198.946C57.5186 199.394 57.6073 199.889 57.6073 200.43C57.6073 200.981 57.5186 201.48 57.3413 201.928C57.1639 202.376 56.9119 202.763 56.5853 203.09C56.2679 203.417 55.8853 203.669 55.4373 203.846C54.9893 204.023 54.4946 204.112 53.9533 204.112ZM53.9533 203.048C54.2613 203.048 54.5506 202.987 54.8213 202.866C55.1013 202.745 55.3393 202.572 55.5353 202.348C55.7406 202.115 55.9039 201.839 56.0253 201.522C56.1466 201.195 56.2073 200.831 56.2073 200.43C56.2073 200.029 56.1466 199.669 56.0253 199.352C55.9039 199.025 55.7406 198.75 55.5353 198.526C55.3299 198.293 55.0919 198.115 54.8213 197.994C54.5506 197.873 54.2613 197.812 53.9533 197.812C53.6453 197.812 53.3513 197.873 53.0713 197.994C52.8006 198.115 52.5626 198.293 52.3573 198.526C52.1613 198.75 52.0026 199.025 51.8813 199.352C51.7599 199.669 51.6993 200.029 51.6993 200.43C51.6993 200.831 51.7599 201.195 51.8813 201.522C52.0026 201.839 52.1613 202.115 52.3573 202.348C52.5626 202.572 52.8006 202.745 53.0713 202.866C53.3513 202.987 53.6453 203.048 53.9533 203.048ZM62.2989 204.112C61.7949 204.112 61.3376 204.019 60.9269 203.832C60.5163 203.645 60.1663 203.384 59.8769 203.048C59.5876 202.712 59.3636 202.315 59.2049 201.858C59.0556 201.391 58.9809 200.887 58.9809 200.346C58.9809 199.833 59.0603 199.357 59.2189 198.918C59.3776 198.479 59.6016 198.101 59.8909 197.784C60.1803 197.457 60.5256 197.205 60.9269 197.028C61.3376 196.841 61.7856 196.748 62.2709 196.748C62.8123 196.748 63.2696 196.851 63.6429 197.056C64.0256 197.261 64.3476 197.513 64.6089 197.812H64.6369V193.36H65.9529V204H64.6929V202.992H64.6089C64.3383 203.337 64.0163 203.613 63.6429 203.818C63.2789 204.014 62.8309 204.112 62.2989 204.112ZM62.5229 203.048C62.8309 203.048 63.1156 202.983 63.3769 202.852C63.6383 202.721 63.8623 202.544 64.0489 202.32C64.2356 202.087 64.3803 201.811 64.4829 201.494C64.5856 201.177 64.6369 200.827 64.6369 200.444C64.6369 200.061 64.5809 199.711 64.4689 199.394C64.3663 199.067 64.2216 198.787 64.0349 198.554C63.8483 198.321 63.6243 198.139 63.3629 198.008C63.1016 197.877 62.8123 197.812 62.4949 197.812C62.1963 197.812 61.9163 197.877 61.6549 198.008C61.3936 198.139 61.1696 198.321 60.9829 198.554C60.7963 198.778 60.6469 199.049 60.5349 199.366C60.4323 199.683 60.3809 200.029 60.3809 200.402C60.3809 200.785 60.4323 201.139 60.5349 201.466C60.6469 201.783 60.7963 202.063 60.9829 202.306C61.1789 202.539 61.4076 202.721 61.6689 202.852C61.9303 202.983 62.2149 203.048 62.5229 203.048ZM69.1573 200.724C69.2319 201.461 69.4839 202.031 69.9133 202.432C70.3426 202.824 70.9213 203.02 71.6493 203.02C72.0786 203.02 72.4986 202.969 72.9093 202.866C73.3293 202.754 73.6746 202.619 73.9453 202.46V203.748C73.7213 203.823 73.4133 203.902 73.0213 203.986C72.6293 204.07 72.1439 204.112 71.5653 204.112C70.3519 204.112 69.4186 203.776 68.7653 203.104C68.1213 202.432 67.7993 201.499 67.7993 200.304C67.7993 199.763 67.8833 199.273 68.0513 198.834C68.2286 198.395 68.4666 198.022 68.7653 197.714C69.0733 197.406 69.4326 197.168 69.8433 197C70.2539 196.832 70.6973 196.748 71.1733 196.748C72.1906 196.748 72.9886 197.047 73.5673 197.644C74.1459 198.241 74.4353 199.147 74.4353 200.36V200.724H69.1573ZM71.1593 197.812C70.6086 197.812 70.1559 197.989 69.8013 198.344C69.4559 198.689 69.2413 199.156 69.1573 199.744H73.0353C73.0353 199.128 72.8579 198.652 72.5033 198.316C72.1486 197.98 71.7006 197.812 71.1593 197.812ZM78.6166 196.86H80.0586L81.6546 202.544L83.4886 196.86H84.6086L86.4286 202.572L88.1506 196.86H89.4386L87.1286 204H85.7426L83.9786 198.596L82.2986 204H80.9126L78.6166 196.86ZM92.5858 204.112C91.8392 204.112 91.2465 203.925 90.8078 203.552C90.3692 203.169 90.1498 202.642 90.1498 201.97C90.1498 201.186 90.4485 200.589 91.0458 200.178C91.6525 199.758 92.5812 199.548 93.8318 199.548H95.1478V199.31C95.1478 198.797 94.9705 198.423 94.6158 198.19C94.2612 197.957 93.7898 197.84 93.2018 197.84C92.8192 197.84 92.4318 197.887 92.0398 197.98C91.6478 198.064 91.2372 198.223 90.8078 198.456V197.224C91.1625 197.065 91.5685 196.949 92.0258 196.874C92.4832 196.79 92.9312 196.748 93.3698 196.748C94.3498 196.748 95.1105 196.972 95.6518 197.42C96.1932 197.859 96.4638 198.573 96.4638 199.562V204H95.1198V202.908H95.0918C94.7932 203.347 94.4105 203.659 93.9438 203.846C93.4865 204.023 93.0338 204.112 92.5858 204.112ZM92.9078 202.992C93.2345 202.992 93.5332 202.941 93.8038 202.838C94.0838 202.735 94.3218 202.595 94.5178 202.418C94.7138 202.231 94.8678 202.017 94.9798 201.774C95.0918 201.531 95.1478 201.275 95.1478 201.004V200.556H93.8878C93.4492 200.556 93.0805 200.589 92.7818 200.654C92.4925 200.719 92.2545 200.813 92.0678 200.934C91.8812 201.055 91.7458 201.195 91.6618 201.354C91.5872 201.513 91.5498 201.69 91.5498 201.886C91.5498 202.241 91.6712 202.516 91.9138 202.712C92.1565 202.899 92.4878 202.992 92.9078 202.992ZM100.364 204.112C99.8885 204.112 99.4778 204.075 99.1325 204C98.7965 203.916 98.4978 203.823 98.2365 203.72V202.558C98.7125 202.773 99.1232 202.908 99.4685 202.964C99.8232 203.011 100.08 203.034 100.238 203.034C100.78 203.034 101.172 202.941 101.414 202.754C101.657 202.558 101.778 202.339 101.778 202.096C101.778 201.947 101.736 201.821 101.652 201.718C101.578 201.606 101.475 201.503 101.344 201.41C101.214 201.317 101.06 201.233 100.882 201.158C100.705 201.074 100.518 200.99 100.322 200.906C100.052 200.785 99.7858 200.663 99.5245 200.542C99.2725 200.411 99.0485 200.267 98.8525 200.108C98.6565 199.94 98.4978 199.744 98.3765 199.52C98.2552 199.296 98.1945 199.025 98.1945 198.708C98.1945 198.12 98.4278 197.649 98.8945 197.294C99.3705 196.93 100.061 196.748 100.966 196.748C101.433 196.748 101.844 196.785 102.198 196.86C102.553 196.935 102.782 196.991 102.884 197.028V198.148C102.614 198.036 102.324 197.957 102.016 197.91C101.718 197.863 101.419 197.84 101.12 197.84C100.588 197.84 100.206 197.915 99.9725 198.064C99.7392 198.204 99.6225 198.395 99.6225 198.638C99.6225 198.778 99.6598 198.904 99.7345 199.016C99.8092 199.119 99.9072 199.217 100.028 199.31C100.159 199.394 100.308 199.478 100.476 199.562C100.644 199.637 100.822 199.716 101.008 199.8C101.26 199.912 101.517 200.029 101.778 200.15C102.049 200.262 102.292 200.402 102.506 200.57C102.73 200.738 102.908 200.939 103.038 201.172C103.178 201.405 103.248 201.695 103.248 202.04C103.248 202.656 102.996 203.155 102.492 203.538C101.998 203.921 101.288 204.112 100.364 204.112ZM110.167 204.112C109.691 204.112 109.281 204.075 108.935 204C108.599 203.916 108.301 203.823 108.039 203.72V202.558C108.515 202.773 108.926 202.908 109.271 202.964C109.626 203.011 109.883 203.034 110.041 203.034C110.583 203.034 110.975 202.941 111.217 202.754C111.46 202.558 111.581 202.339 111.581 202.096C111.581 201.947 111.539 201.821 111.455 201.718C111.381 201.606 111.278 201.503 111.147 201.41C111.017 201.317 110.863 201.233 110.685 201.158C110.508 201.074 110.321 200.99 110.125 200.906C109.855 200.785 109.589 200.663 109.327 200.542C109.075 200.411 108.851 200.267 108.655 200.108C108.459 199.94 108.301 199.744 108.179 199.52C108.058 199.296 107.997 199.025 107.997 198.708C107.997 198.12 108.231 197.649 108.697 197.294C109.173 196.93 109.864 196.748 110.769 196.748C111.236 196.748 111.647 196.785 112.001 196.86C112.356 196.935 112.585 196.991 112.687 197.028V198.148C112.417 198.036 112.127 197.957 111.819 197.91C111.521 197.863 111.222 197.84 110.923 197.84C110.391 197.84 110.009 197.915 109.775 198.064C109.542 198.204 109.425 198.395 109.425 198.638C109.425 198.778 109.463 198.904 109.537 199.016C109.612 199.119 109.71 199.217 109.831 199.31C109.962 199.394 110.111 199.478 110.279 199.562C110.447 199.637 110.625 199.716 110.811 199.8C111.063 199.912 111.32 200.029 111.581 200.15C111.852 200.262 112.095 200.402 112.309 200.57C112.533 200.738 112.711 200.939 112.841 201.172C112.981 201.405 113.051 201.695 113.051 202.04C113.051 202.656 112.799 203.155 112.295 203.538C111.801 203.921 111.091 204.112 110.167 204.112ZM115.819 200.724C115.894 201.461 116.146 202.031 116.575 202.432C117.005 202.824 117.583 203.02 118.311 203.02C118.741 203.02 119.161 202.969 119.571 202.866C119.991 202.754 120.337 202.619 120.607 202.46V203.748C120.383 203.823 120.075 203.902 119.683 203.986C119.291 204.07 118.806 204.112 118.227 204.112C117.014 204.112 116.081 203.776 115.427 203.104C114.783 202.432 114.461 201.499 114.461 200.304C114.461 199.763 114.545 199.273 114.713 198.834C114.891 198.395 115.129 198.022 115.427 197.714C115.735 197.406 116.095 197.168 116.505 197C116.916 196.832 117.359 196.748 117.835 196.748C118.853 196.748 119.651 197.047 120.229 197.644C120.808 198.241 121.097 199.147 121.097 200.36V200.724H115.819ZM117.821 197.812C117.271 197.812 116.818 197.989 116.463 198.344C116.118 198.689 115.903 199.156 115.819 199.744H119.697C119.697 199.128 119.52 198.652 119.165 198.316C118.811 197.98 118.363 197.812 117.821 197.812ZM122.99 196.86H124.306V197.882H124.334C124.605 197.499 124.941 197.215 125.342 197.028C125.753 196.841 126.21 196.748 126.714 196.748C127.554 196.748 128.217 197 128.702 197.504C129.187 197.999 129.43 198.764 129.43 199.8V204H128.114V200.22C128.114 199.763 128.072 199.38 127.988 199.072C127.913 198.755 127.801 198.507 127.652 198.33C127.512 198.143 127.335 198.013 127.12 197.938C126.915 197.854 126.686 197.812 126.434 197.812C125.79 197.812 125.272 198.045 124.88 198.512C124.497 198.969 124.306 199.679 124.306 200.64V204H122.99V196.86ZM135.119 197.924H133.355V201.774C133.355 202.203 133.462 202.502 133.677 202.67C133.901 202.829 134.162 202.908 134.461 202.908C134.685 202.908 134.923 202.871 135.175 202.796V203.986C134.998 204.033 134.83 204.065 134.671 204.084C134.512 204.103 134.368 204.112 134.237 204.112C133.528 204.112 132.986 203.921 132.613 203.538C132.24 203.146 132.053 202.6 132.053 201.9V197.924H130.751V196.86H132.053V195.082L133.355 194.606V196.86H135.119V197.924ZM143.664 197.924H141.9V201.774C141.9 202.203 142.007 202.502 142.222 202.67C142.446 202.829 142.707 202.908 143.006 202.908C143.23 202.908 143.468 202.871 143.72 202.796V203.986C143.543 204.033 143.375 204.065 143.216 204.084C143.057 204.103 142.913 204.112 142.782 204.112C142.073 204.112 141.531 203.921 141.158 203.538C140.785 203.146 140.598 202.6 140.598 201.9V197.924H139.296V196.86H140.598V195.082L141.9 194.606V196.86H143.664V197.924ZM148.508 204.112C147.967 204.112 147.472 204.023 147.024 203.846C146.576 203.669 146.189 203.417 145.862 203.09C145.545 202.763 145.297 202.376 145.12 201.928C144.943 201.48 144.854 200.981 144.854 200.43C144.854 199.889 144.943 199.394 145.12 198.946C145.297 198.489 145.545 198.097 145.862 197.77C146.189 197.443 146.576 197.191 147.024 197.014C147.472 196.837 147.967 196.748 148.508 196.748C149.049 196.748 149.544 196.837 149.992 197.014C150.44 197.191 150.823 197.443 151.14 197.77C151.467 198.097 151.719 198.489 151.896 198.946C152.073 199.394 152.162 199.889 152.162 200.43C152.162 200.981 152.073 201.48 151.896 201.928C151.719 202.376 151.467 202.763 151.14 203.09C150.823 203.417 150.44 203.669 149.992 203.846C149.544 204.023 149.049 204.112 148.508 204.112ZM148.508 203.048C148.816 203.048 149.105 202.987 149.376 202.866C149.656 202.745 149.894 202.572 150.09 202.348C150.295 202.115 150.459 201.839 150.58 201.522C150.701 201.195 150.762 200.831 150.762 200.43C150.762 200.029 150.701 199.669 150.58 199.352C150.459 199.025 150.295 198.75 150.09 198.526C149.885 198.293 149.647 198.115 149.376 197.994C149.105 197.873 148.816 197.812 148.508 197.812C148.2 197.812 147.906 197.873 147.626 197.994C147.355 198.115 147.117 198.293 146.912 198.526C146.716 198.75 146.557 199.025 146.436 199.352C146.315 199.669 146.254 200.029 146.254 200.43C146.254 200.831 146.315 201.195 146.436 201.522C146.557 201.839 146.716 202.115 146.912 202.348C147.117 202.572 147.355 202.745 147.626 202.866C147.906 202.987 148.2 203.048 148.508 203.048Z" fill="#22242A"/>
<path d="M162.582 198.876L164.08 197.266L161.952 196.832L162.414 195.46L164.402 196.356L164.15 194.2H165.62L165.368 196.328L167.314 195.46L167.762 196.832L165.634 197.266L167.09 198.876L165.9 199.702L164.85 197.812L163.758 199.688L162.582 198.876ZM175.088 205.96C174.621 205.335 174.243 204.723 173.954 204.126C173.664 203.538 173.436 202.978 173.268 202.446C173.1 201.914 172.983 201.419 172.918 200.962C172.852 200.495 172.82 200.071 172.82 199.688C172.829 199.296 172.866 198.871 172.932 198.414C172.997 197.947 173.114 197.453 173.282 196.93C173.45 196.398 173.678 195.838 173.968 195.25C174.257 194.662 174.63 194.051 175.088 193.416H176.684C176.413 193.836 176.152 194.289 175.9 194.774C175.648 195.259 175.424 195.773 175.228 196.314C175.041 196.846 174.887 197.397 174.766 197.966C174.644 198.535 174.584 199.109 174.584 199.688C174.593 200.267 174.654 200.841 174.766 201.41C174.878 201.97 175.027 202.516 175.214 203.048C175.41 203.58 175.629 204.093 175.872 204.588C176.114 205.083 176.371 205.54 176.642 205.96H175.088ZM178.4 198.876L179.898 197.266L177.77 196.832L178.232 195.46L180.22 196.356L179.968 194.2H181.438L181.186 196.328L183.132 195.46L183.58 196.832L181.452 197.266L182.908 198.876L181.718 199.702L180.668 197.812L179.576 199.688L178.4 198.876ZM186.098 198.876L187.596 197.266L185.468 196.832L185.93 195.46L187.918 196.356L187.666 194.2H189.136L188.884 196.328L190.83 195.46L191.278 196.832L189.15 197.266L190.606 198.876L189.416 199.702L188.366 197.812L187.274 199.688L186.098 198.876ZM193.795 198.876L195.293 197.266L193.165 196.832L193.627 195.46L195.615 196.356L195.363 194.2H196.833L196.581 196.328L198.527 195.46L198.975 196.832L196.847 197.266L198.303 198.876L197.113 199.702L196.063 197.812L194.971 199.688L193.795 198.876ZM200.05 205.96C200.321 205.54 200.577 205.083 200.82 204.588C201.072 204.103 201.296 203.594 201.492 203.062C201.688 202.521 201.842 201.97 201.954 201.41C202.075 200.841 202.141 200.267 202.15 199.688C202.141 199.109 202.075 198.535 201.954 197.966C201.842 197.397 201.688 196.846 201.492 196.314C201.305 195.773 201.086 195.259 200.834 194.774C200.582 194.289 200.321 193.836 200.05 193.416H201.646C202.103 194.041 202.477 194.648 202.766 195.236C203.065 195.824 203.298 196.384 203.466 196.916C203.634 197.448 203.751 197.952 203.816 198.428C203.881 198.895 203.914 199.315 203.914 199.688C203.914 200.08 203.877 200.509 203.802 200.976C203.737 201.433 203.62 201.928 203.452 202.46C203.284 202.983 203.055 203.538 202.766 204.126C202.477 204.714 202.103 205.325 201.646 205.96H200.05ZM209.613 198.876L211.111 197.266L208.983 196.832L209.445 195.46L211.433 196.356L211.181 194.2H212.651L212.399 196.328L214.345 195.46L214.793 196.832L212.665 197.266L214.121 198.876L212.931 199.702L211.881 197.812L210.789 199.688L209.613 198.876ZM217.311 198.876L218.809 197.266L216.681 196.832L217.143 195.46L219.131 196.356L218.879 194.2H220.349L220.097 196.328L222.043 195.46L222.491 196.832L220.363 197.266L221.819 198.876L220.629 199.702L219.579 197.812L218.487 199.688L217.311 198.876ZM225.008 198.876L226.506 197.266L224.378 196.832L224.84 195.46L226.828 196.356L226.576 194.2H228.046L227.794 196.328L229.74 195.46L230.188 196.832L228.06 197.266L229.516 198.876L228.326 199.702L227.276 197.812L226.184 199.688L225.008 198.876ZM231.865 198.974H235.995V200.64H231.865V198.974ZM237.275 202.544C237.405 202.441 237.527 202.343 237.639 202.25C237.751 202.157 237.858 202.059 237.961 201.956C238.605 201.396 239.174 200.892 239.669 200.444C240.163 199.996 240.579 199.581 240.915 199.198C241.251 198.815 241.503 198.451 241.671 198.106C241.848 197.761 241.937 197.411 241.937 197.056C241.937 196.561 241.773 196.193 241.447 195.95C241.129 195.698 240.677 195.572 240.089 195.572C239.622 195.572 239.174 195.637 238.745 195.768C238.325 195.899 237.937 196.062 237.583 196.258V194.634C238.553 194.251 239.491 194.06 240.397 194.06C240.929 194.06 241.409 194.116 241.839 194.228C242.268 194.34 242.632 194.513 242.931 194.746C243.239 194.979 243.472 195.278 243.631 195.642C243.799 195.997 243.883 196.417 243.883 196.902C243.883 197.303 243.817 197.681 243.687 198.036C243.565 198.381 243.365 198.741 243.085 199.114C242.814 199.487 242.459 199.889 242.021 200.318C241.582 200.738 241.045 201.223 240.411 201.774C240.28 201.905 240.149 202.031 240.019 202.152C239.888 202.264 239.757 202.376 239.627 202.488H244.023V204H237.275V202.544ZM248.056 204.14C247.636 204.131 247.22 204.098 246.81 204.042C246.399 203.986 246.012 203.897 245.648 203.776V202.18C246.068 202.329 246.446 202.441 246.782 202.516C247.118 202.591 247.472 202.628 247.846 202.628C248.639 202.628 249.246 202.479 249.666 202.18C250.095 201.881 250.31 201.433 250.31 200.836C250.31 200.528 250.249 200.267 250.128 200.052C250.006 199.828 249.834 199.651 249.61 199.52C249.395 199.38 249.138 199.282 248.84 199.226C248.541 199.161 248.219 199.128 247.874 199.128C247.556 199.128 247.216 199.156 246.852 199.212C246.497 199.259 246.17 199.333 245.872 199.436C245.946 198.559 246.012 197.691 246.068 196.832C246.124 195.964 246.175 195.087 246.222 194.2H251.766V195.712H247.65L247.51 197.826C247.743 197.798 247.948 197.775 248.126 197.756C248.312 197.737 248.513 197.728 248.728 197.728C249.81 197.728 250.664 197.985 251.29 198.498C251.924 199.011 252.242 199.767 252.242 200.766C252.242 201.839 251.878 202.67 251.15 203.258C250.422 203.846 249.39 204.14 248.056 204.14ZM253.713 198.974H257.843V200.64H253.713V198.974ZM263.322 201.956H258.87V200.402L262.902 194.2H265.184V200.472H266.332V201.956H265.184V204H263.322V201.956ZM263.322 200.472V196.23H263.294L260.55 200.472H263.322ZM270.785 204.14C270.263 204.14 269.787 204.075 269.357 203.944C268.928 203.804 268.559 203.613 268.251 203.37C267.943 203.127 267.705 202.843 267.537 202.516C267.369 202.18 267.285 201.811 267.285 201.41C267.285 200.822 267.458 200.313 267.803 199.884C268.149 199.445 268.62 199.119 269.217 198.904V198.876C268.685 198.605 268.265 198.283 267.957 197.91C267.649 197.527 267.495 197.051 267.495 196.482C267.495 196.099 267.57 195.759 267.719 195.46C267.878 195.161 268.097 194.909 268.377 194.704C268.667 194.489 269.007 194.331 269.399 194.228C269.801 194.116 270.244 194.06 270.729 194.06C271.205 194.06 271.639 194.116 272.031 194.228C272.423 194.34 272.759 194.503 273.039 194.718C273.319 194.923 273.534 195.175 273.683 195.474C273.833 195.763 273.907 196.085 273.907 196.44C273.907 196.776 273.847 197.075 273.725 197.336C273.604 197.588 273.455 197.812 273.277 198.008C273.109 198.195 272.927 198.353 272.731 198.484C272.545 198.605 272.381 198.703 272.241 198.778V198.792C272.839 199.044 273.319 199.385 273.683 199.814C274.047 200.234 274.229 200.752 274.229 201.368C274.229 201.797 274.145 202.185 273.977 202.53C273.819 202.875 273.59 203.169 273.291 203.412C272.993 203.645 272.629 203.827 272.199 203.958C271.779 204.079 271.308 204.14 270.785 204.14ZM270.813 202.642C271.261 202.642 271.621 202.521 271.891 202.278C272.162 202.035 272.297 201.704 272.297 201.284C272.297 201.06 272.251 200.864 272.157 200.696C272.073 200.519 271.952 200.36 271.793 200.22C271.644 200.08 271.462 199.954 271.247 199.842C271.033 199.73 270.799 199.618 270.547 199.506C270.053 199.767 269.707 200.043 269.511 200.332C269.315 200.621 269.217 200.929 269.217 201.256C269.217 201.499 269.259 201.709 269.343 201.886C269.437 202.054 269.558 202.194 269.707 202.306C269.857 202.418 270.025 202.502 270.211 202.558C270.407 202.614 270.608 202.642 270.813 202.642ZM270.981 198.274C271.364 198.022 271.644 197.77 271.821 197.518C271.999 197.257 272.087 196.977 272.087 196.678C272.087 196.277 271.952 195.992 271.681 195.824C271.411 195.647 271.093 195.558 270.729 195.558C270.347 195.558 270.015 195.647 269.735 195.824C269.455 196.001 269.315 196.267 269.315 196.622C269.315 196.977 269.465 197.285 269.763 197.546C270.062 197.807 270.468 198.05 270.981 198.274Z" fill="#22242A"/>
<rect x="41" y="317" width="380" height="56" rx="4" fill="#E5E7EB"/>
<path d="M170.036 346.888C169.951 346.899 169.86 346.909 169.764 346.92C169.679 346.92 169.593 346.92 169.508 346.92H167.892V351H165.844V339.8H169.428C170.847 339.8 171.892 340.115 172.564 340.744C173.236 341.373 173.572 342.243 173.572 343.352C173.572 344.109 173.428 344.739 173.14 345.24C172.863 345.731 172.452 346.115 171.908 346.392L174.26 351H171.892L170.036 346.888ZM169.476 345.256C170.148 345.256 170.639 345.091 170.948 344.76C171.268 344.429 171.428 343.96 171.428 343.352C171.428 342.755 171.268 342.301 170.948 341.992C170.639 341.683 170.148 341.528 169.476 341.528H167.892V345.256H169.476ZM176.892 347.384C177.105 348.845 177.969 349.576 179.484 349.576C179.91 349.576 180.358 349.528 180.828 349.432C181.297 349.336 181.718 349.219 182.092 349.08V350.76C181.825 350.835 181.452 350.915 180.972 351C180.502 351.096 179.953 351.144 179.324 351.144C177.894 351.144 176.796 350.76 176.028 349.992C175.27 349.213 174.892 348.141 174.892 346.776C174.892 346.136 174.988 345.56 175.18 345.048C175.382 344.536 175.66 344.104 176.012 343.752C176.364 343.389 176.78 343.112 177.26 342.92C177.75 342.717 178.284 342.616 178.86 342.616C180.076 342.616 181.009 342.984 181.66 343.72C182.31 344.456 182.635 345.528 182.635 346.936V347.384H176.892ZM178.86 344.184C178.305 344.184 177.862 344.36 177.532 344.712C177.201 345.064 176.993 345.528 176.908 346.104H180.668C180.689 345.496 180.529 345.027 180.188 344.696C179.846 344.355 179.404 344.184 178.86 344.184ZM186.783 351.144C186.239 351.144 185.759 351.101 185.343 351.016C184.937 350.941 184.569 350.84 184.239 350.712V349.144C184.772 349.357 185.247 349.496 185.663 349.56C186.089 349.624 186.42 349.656 186.655 349.656C187.167 349.656 187.529 349.571 187.743 349.4C187.956 349.229 188.063 349.032 188.063 348.808C188.063 348.659 188.02 348.531 187.935 348.424C187.849 348.307 187.732 348.205 187.583 348.12C187.433 348.024 187.257 347.933 187.055 347.848C186.863 347.763 186.655 347.667 186.431 347.56C186.153 347.443 185.881 347.315 185.615 347.176C185.348 347.027 185.108 346.851 184.895 346.648C184.692 346.445 184.521 346.211 184.383 345.944C184.255 345.667 184.191 345.341 184.191 344.968C184.191 344.2 184.484 343.619 185.071 343.224C185.657 342.819 186.441 342.616 187.423 342.616C187.988 342.616 188.479 342.669 188.895 342.776C189.311 342.872 189.593 342.947 189.743 343V344.52C189.423 344.381 189.081 344.28 188.719 344.216C188.356 344.152 188.004 344.12 187.663 344.12C187.161 344.12 186.793 344.189 186.559 344.328C186.324 344.467 186.207 344.659 186.207 344.904C186.207 345.053 186.244 345.181 186.319 345.288C186.404 345.395 186.511 345.491 186.639 345.576C186.777 345.661 186.932 345.747 187.103 345.832C187.284 345.907 187.471 345.992 187.663 346.088C187.951 346.216 188.239 346.349 188.527 346.488C188.825 346.616 189.097 346.776 189.343 346.968C189.588 347.16 189.785 347.395 189.935 347.672C190.095 347.939 190.175 348.275 190.175 348.68C190.175 349.501 189.865 350.12 189.247 350.536C188.628 350.941 187.807 351.144 186.783 351.144ZM193.61 347.384C193.824 348.845 194.688 349.576 196.202 349.576C196.629 349.576 197.077 349.528 197.546 349.432C198.016 349.336 198.437 349.219 198.81 349.08V350.76C198.544 350.835 198.17 350.915 197.69 351C197.221 351.096 196.672 351.144 196.042 351.144C194.613 351.144 193.514 350.76 192.746 349.992C191.989 349.213 191.61 348.141 191.61 346.776C191.61 346.136 191.706 345.56 191.898 345.048C192.101 344.536 192.378 344.104 192.73 343.752C193.082 343.389 193.498 343.112 193.978 342.92C194.469 342.717 195.002 342.616 195.578 342.616C196.794 342.616 197.728 342.984 198.378 343.72C199.029 344.456 199.354 345.528 199.354 346.936V347.384H193.61ZM195.578 344.184C195.024 344.184 194.581 344.36 194.25 344.712C193.92 345.064 193.712 345.528 193.626 346.104H197.386C197.408 345.496 197.248 345.027 196.906 344.696C196.565 344.355 196.122 344.184 195.578 344.184ZM201.309 342.76H203.197V344.008H203.229C203.528 343.581 203.901 343.245 204.349 343C204.808 342.744 205.336 342.616 205.933 342.616C206.872 342.616 207.597 342.915 208.109 343.512C208.632 344.099 208.893 344.963 208.893 346.104V351H206.925V346.68C206.925 345.795 206.781 345.171 206.493 344.808C206.216 344.445 205.821 344.264 205.309 344.264C204.68 344.264 204.184 344.509 203.821 345C203.459 345.48 203.277 346.205 203.277 347.176V351H201.309V342.76ZM214.307 351.144C213.731 351.144 213.208 351.032 212.739 350.808C212.28 350.584 211.891 350.28 211.571 349.896C211.251 349.501 211.006 349.043 210.835 348.52C210.664 347.987 210.579 347.416 210.579 346.808C210.579 346.243 210.664 345.709 210.835 345.208C211.006 344.696 211.251 344.248 211.571 343.864C211.891 343.48 212.275 343.176 212.723 342.952C213.182 342.728 213.694 342.616 214.259 342.616C214.75 342.616 215.208 342.712 215.635 342.904C216.062 343.096 216.446 343.384 216.787 343.768V338.888H218.755V351H216.899V349.752C216.59 350.211 216.227 350.557 215.811 350.792C215.395 351.027 214.894 351.144 214.307 351.144ZM214.739 349.624C215.038 349.624 215.315 349.56 215.571 349.432C215.838 349.293 216.062 349.107 216.243 348.872C216.424 348.627 216.568 348.339 216.675 348.008C216.782 347.677 216.835 347.309 216.835 346.904C216.835 346.499 216.782 346.131 216.675 345.8C216.568 345.459 216.419 345.171 216.227 344.936C216.046 344.691 215.822 344.504 215.555 344.376C215.299 344.237 215.016 344.168 214.707 344.168C214.408 344.168 214.131 344.237 213.875 344.376C213.619 344.504 213.4 344.685 213.219 344.92C213.038 345.155 212.894 345.443 212.787 345.784C212.68 346.115 212.627 346.477 212.627 346.872C212.627 347.277 212.68 347.651 212.787 347.992C212.894 348.323 213.038 348.611 213.219 348.856C213.411 349.101 213.635 349.293 213.891 349.432C214.147 349.56 214.43 349.624 214.739 349.624ZM228.569 351.144C227.907 351.144 227.315 351.043 226.793 350.84C226.281 350.637 225.838 350.355 225.465 349.992C225.102 349.619 224.825 349.171 224.633 348.648C224.441 348.115 224.345 347.528 224.345 346.888C224.345 346.259 224.441 345.683 224.633 345.16C224.825 344.637 225.102 344.189 225.465 343.816C225.827 343.432 226.265 343.139 226.777 342.936C227.299 342.723 227.891 342.616 228.553 342.616C229.097 342.616 229.55 342.659 229.913 342.744C230.275 342.829 230.505 342.888 230.601 342.92V344.472C230.483 344.44 230.275 344.381 229.977 344.296C229.678 344.211 229.305 344.168 228.857 344.168C228.057 344.168 227.443 344.397 227.017 344.856C226.601 345.304 226.393 345.976 226.393 346.872C226.393 347.8 226.617 348.488 227.065 348.936C227.523 349.373 228.137 349.592 228.905 349.592C229.353 349.592 229.726 349.549 230.025 349.464C230.334 349.368 230.531 349.304 230.617 349.272V350.856C230.553 350.877 230.339 350.931 229.977 351.016C229.614 351.101 229.145 351.144 228.569 351.144ZM236.288 351.144C235.659 351.144 235.083 351.043 234.56 350.84C234.037 350.637 233.589 350.349 233.216 349.976C232.843 349.603 232.549 349.155 232.336 348.632C232.133 348.109 232.032 347.528 232.032 346.888C232.032 346.248 232.133 345.667 232.336 345.144C232.549 344.621 232.843 344.173 233.216 343.8C233.6 343.416 234.048 343.123 234.56 342.92C235.083 342.717 235.659 342.616 236.288 342.616C236.917 342.616 237.493 342.717 238.016 342.92C238.539 343.123 238.987 343.416 239.36 343.8C239.733 344.173 240.021 344.621 240.224 345.144C240.437 345.667 240.544 346.248 240.544 346.888C240.544 347.528 240.437 348.115 240.224 348.648C240.021 349.171 239.733 349.619 239.36 349.992C238.987 350.355 238.539 350.637 238.016 350.84C237.493 351.043 236.917 351.144 236.288 351.144ZM236.288 349.544C236.608 349.544 236.901 349.48 237.168 349.352C237.435 349.224 237.664 349.048 237.856 348.824C238.059 348.589 238.213 348.312 238.32 347.992C238.437 347.661 238.496 347.293 238.496 346.888C238.496 346.493 238.437 346.131 238.32 345.8C238.213 345.469 238.059 345.187 237.856 344.952C237.664 344.717 237.429 344.536 237.152 344.408C236.885 344.28 236.597 344.216 236.288 344.216C235.968 344.216 235.675 344.28 235.408 344.408C235.141 344.536 234.907 344.717 234.704 344.952C234.512 345.187 234.357 345.469 234.24 345.8C234.133 346.131 234.08 346.493 234.08 346.888C234.08 347.293 234.133 347.661 234.24 347.992C234.357 348.312 234.512 348.589 234.704 348.824C234.907 349.059 235.141 349.24 235.408 349.368C235.685 349.485 235.979 349.544 236.288 349.544ZM245.682 351.144C245.106 351.144 244.583 351.032 244.114 350.808C243.655 350.584 243.266 350.28 242.946 349.896C242.626 349.501 242.381 349.043 242.21 348.52C242.039 347.987 241.954 347.416 241.954 346.808C241.954 346.243 242.039 345.709 242.21 345.208C242.381 344.696 242.626 344.248 242.946 343.864C243.266 343.48 243.65 343.176 244.098 342.952C244.557 342.728 245.069 342.616 245.634 342.616C246.125 342.616 246.583 342.712 247.01 342.904C247.437 343.096 247.821 343.384 248.162 343.768V338.888H250.13V351H248.274V349.752C247.965 350.211 247.602 350.557 247.186 350.792C246.77 351.027 246.269 351.144 245.682 351.144ZM246.114 349.624C246.413 349.624 246.69 349.56 246.946 349.432C247.213 349.293 247.437 349.107 247.618 348.872C247.799 348.627 247.943 348.339 248.05 348.008C248.157 347.677 248.21 347.309 248.21 346.904C248.21 346.499 248.157 346.131 248.05 345.8C247.943 345.459 247.794 345.171 247.602 344.936C247.421 344.691 247.197 344.504 246.93 344.376C246.674 344.237 246.391 344.168 246.082 344.168C245.783 344.168 245.506 344.237 245.25 344.376C244.994 344.504 244.775 344.685 244.594 344.92C244.413 345.155 244.269 345.443 244.162 345.784C244.055 346.115 244.002 346.477 244.002 346.872C244.002 347.277 244.055 347.651 244.162 347.992C244.269 348.323 244.413 348.611 244.594 348.856C244.786 349.101 245.01 349.293 245.266 349.432C245.522 349.56 245.805 349.624 246.114 349.624ZM254.032 347.384C254.245 348.845 255.109 349.576 256.624 349.576C257.051 349.576 257.499 349.528 257.968 349.432C258.437 349.336 258.859 349.219 259.232 349.08V350.76C258.965 350.835 258.592 350.915 258.112 351C257.643 351.096 257.093 351.144 256.464 351.144C255.035 351.144 253.936 350.76 253.168 349.992C252.411 349.213 252.032 348.141 252.032 346.776C252.032 346.136 252.128 345.56 252.32 345.048C252.523 344.536 252.8 344.104 253.152 343.752C253.504 343.389 253.92 343.112 254.4 342.92C254.891 342.717 255.424 342.616 256 342.616C257.216 342.616 258.149 342.984 258.8 343.72C259.451 344.456 259.776 345.528 259.776 346.936V347.384H254.032ZM256 344.184C255.445 344.184 255.003 344.36 254.672 344.712C254.341 345.064 254.133 345.528 254.048 346.104H257.808C257.829 345.496 257.669 345.027 257.328 344.696C256.987 344.355 256.544 344.184 256 344.184ZM268.251 349.432V342.104L266.075 343.672L265.147 342.312L268.475 339.8H270.219V349.432H272.715V351H264.939V349.432H268.251ZM274.7 342.792H276.78V344.824H274.7V342.792ZM274.7 348.968H276.78V351H274.7V348.968ZM281.888 351.144C281.334 351.144 280.795 351.101 280.272 351.016C279.75 350.931 279.248 350.797 278.768 350.616V348.92C279.174 349.123 279.627 349.277 280.128 349.384C280.64 349.491 281.158 349.544 281.68 349.544C282.523 349.544 283.174 349.384 283.632 349.064C284.091 348.744 284.32 348.296 284.32 347.72C284.32 347.165 284.096 346.739 283.648 346.44C283.211 346.131 282.56 345.976 281.696 345.976H280.288V344.44H281.632C282.507 344.44 283.126 344.291 283.488 343.992C283.851 343.693 284.032 343.309 284.032 342.84C284.032 341.784 283.254 341.256 281.696 341.256C281.152 341.256 280.651 341.309 280.192 341.416C279.744 341.523 279.35 341.656 279.008 341.816V340.136C279.435 339.976 279.878 339.859 280.336 339.784C280.795 339.699 281.339 339.656 281.968 339.656C283.302 339.656 284.31 339.912 284.992 340.424C285.686 340.925 286.032 341.624 286.032 342.52C286.032 343.192 285.824 343.757 285.408 344.216C285.003 344.675 284.432 344.979 283.696 345.128V345.16C284.155 345.224 284.55 345.341 284.88 345.512C285.222 345.672 285.499 345.869 285.712 346.104C285.936 346.339 286.096 346.605 286.192 346.904C286.299 347.192 286.352 347.501 286.352 347.832C286.352 348.397 286.23 348.888 285.984 349.304C285.739 349.72 285.408 350.067 284.992 350.344C284.587 350.611 284.112 350.813 283.568 350.952C283.035 351.08 282.475 351.144 281.888 351.144ZM291.938 351.16C291.362 351.16 290.834 351.085 290.354 350.936C289.874 350.787 289.458 350.573 289.106 350.296C288.764 350.019 288.492 349.693 288.29 349.32C288.098 348.936 288.002 348.509 288.002 348.04C288.002 347.347 288.199 346.755 288.594 346.264C288.999 345.773 289.543 345.405 290.226 345.16V345.128C289.596 344.819 289.106 344.445 288.754 344.008C288.412 343.571 288.242 343.027 288.242 342.376C288.242 341.939 288.332 341.549 288.514 341.208C288.695 340.867 288.946 340.584 289.266 340.36C289.586 340.125 289.964 339.949 290.402 339.832C290.85 339.704 291.335 339.64 291.858 339.64C292.38 339.64 292.86 339.704 293.298 339.832C293.746 339.96 294.124 340.141 294.434 340.376C294.754 340.6 294.999 340.877 295.17 341.208C295.351 341.539 295.442 341.907 295.442 342.312C295.442 342.717 295.367 343.075 295.218 343.384C295.068 343.683 294.892 343.939 294.69 344.152C294.487 344.365 294.274 344.547 294.05 344.696C293.836 344.835 293.66 344.941 293.522 345.016V345.032C294.194 345.309 294.743 345.699 295.17 346.2C295.596 346.691 295.81 347.293 295.81 348.008C295.81 348.509 295.714 348.957 295.522 349.352C295.34 349.736 295.079 350.067 294.738 350.344C294.407 350.611 294.002 350.813 293.522 350.952C293.042 351.091 292.514 351.16 291.938 351.16ZM291.97 349.56C292.524 349.56 292.962 349.411 293.282 349.112C293.612 348.803 293.778 348.403 293.778 347.912C293.778 347.645 293.724 347.416 293.618 347.224C293.522 347.021 293.378 346.84 293.186 346.68C293.004 346.52 292.78 346.371 292.514 346.232C292.258 346.093 291.97 345.955 291.65 345.816C291.031 346.147 290.604 346.483 290.37 346.824C290.146 347.155 290.034 347.507 290.034 347.88C290.034 348.179 290.087 348.435 290.194 348.648C290.3 348.861 290.444 349.037 290.626 349.176C290.807 349.304 291.015 349.4 291.25 349.464C291.484 349.528 291.724 349.56 291.97 349.56ZM292.178 344.488C292.647 344.168 292.983 343.859 293.186 343.56C293.399 343.261 293.506 342.941 293.506 342.6C293.506 342.355 293.458 342.147 293.362 341.976C293.276 341.805 293.159 341.667 293.01 341.56C292.86 341.443 292.684 341.363 292.482 341.32C292.29 341.267 292.087 341.24 291.874 341.24C291.404 341.24 290.999 341.352 290.658 341.576C290.327 341.8 290.162 342.12 290.162 342.536C290.162 342.941 290.338 343.299 290.69 343.608C291.042 343.917 291.538 344.211 292.178 344.488Z" fill="#9A9EA5"/>
<path d="M201.802 402.2H203.622L208.046 410.18H208.074L208.046 408.934V402.2H209.418V412H207.598L203.174 404.02H203.146L203.174 405.14V412H201.802V402.2ZM214.93 412.112C214.389 412.112 213.894 412.023 213.446 411.846C212.998 411.669 212.611 411.417 212.284 411.09C211.967 410.763 211.719 410.376 211.542 409.928C211.365 409.48 211.276 408.981 211.276 408.43C211.276 407.889 211.365 407.394 211.542 406.946C211.719 406.489 211.967 406.097 212.284 405.77C212.611 405.443 212.998 405.191 213.446 405.014C213.894 404.837 214.389 404.748 214.93 404.748C215.471 404.748 215.966 404.837 216.414 405.014C216.862 405.191 217.245 405.443 217.562 405.77C217.889 406.097 218.141 406.489 218.318 406.946C218.495 407.394 218.584 407.889 218.584 408.43C218.584 408.981 218.495 409.48 218.318 409.928C218.141 410.376 217.889 410.763 217.562 411.09C217.245 411.417 216.862 411.669 216.414 411.846C215.966 412.023 215.471 412.112 214.93 412.112ZM214.93 411.048C215.238 411.048 215.527 410.987 215.798 410.866C216.078 410.745 216.316 410.572 216.512 410.348C216.717 410.115 216.881 409.839 217.002 409.522C217.123 409.195 217.184 408.831 217.184 408.43C217.184 408.029 217.123 407.669 217.002 407.352C216.881 407.025 216.717 406.75 216.512 406.526C216.307 406.293 216.069 406.115 215.798 405.994C215.527 405.873 215.238 405.812 214.93 405.812C214.622 405.812 214.328 405.873 214.048 405.994C213.777 406.115 213.539 406.293 213.334 406.526C213.138 406.75 212.979 407.025 212.858 407.352C212.737 407.669 212.676 408.029 212.676 408.43C212.676 408.831 212.737 409.195 212.858 409.522C212.979 409.839 213.138 410.115 213.334 410.348C213.539 410.572 213.777 410.745 214.048 410.866C214.328 410.987 214.622 411.048 214.93 411.048ZM226.754 412.112C226.203 412.112 225.704 412.023 225.256 411.846C224.817 411.669 224.444 411.421 224.136 411.104C223.828 410.777 223.59 410.39 223.422 409.942C223.263 409.485 223.184 408.981 223.184 408.43C223.184 407.879 223.268 407.38 223.436 406.932C223.604 406.475 223.842 406.087 224.15 405.77C224.467 405.443 224.845 405.191 225.284 405.014C225.723 404.837 226.217 404.748 226.768 404.748C227.048 404.748 227.295 404.762 227.51 404.79C227.734 404.818 227.925 404.851 228.084 404.888C228.261 404.925 228.415 404.972 228.546 405.028V406.162C228.406 406.097 228.252 406.041 228.084 405.994C227.935 405.947 227.762 405.905 227.566 405.868C227.37 405.831 227.151 405.812 226.908 405.812C226.161 405.812 225.587 406.041 225.186 406.498C224.785 406.946 224.584 407.59 224.584 408.43C224.584 409.27 224.785 409.919 225.186 410.376C225.587 410.824 226.157 411.048 226.894 411.048C227.137 411.048 227.356 411.029 227.552 410.992C227.757 410.955 227.935 410.913 228.084 410.866C228.252 410.819 228.406 410.759 228.546 410.684V411.832C228.406 411.888 228.247 411.935 228.07 411.972C227.911 412.009 227.72 412.042 227.496 412.07C227.272 412.098 227.025 412.112 226.754 412.112ZM233.565 412.112C233.023 412.112 232.529 412.023 232.081 411.846C231.633 411.669 231.245 411.417 230.919 411.09C230.601 410.763 230.354 410.376 230.177 409.928C229.999 409.48 229.911 408.981 229.911 408.43C229.911 407.889 229.999 407.394 230.177 406.946C230.354 406.489 230.601 406.097 230.919 405.77C231.245 405.443 231.633 405.191 232.081 405.014C232.529 404.837 233.023 404.748 233.565 404.748C234.106 404.748 234.601 404.837 235.049 405.014C235.497 405.191 235.879 405.443 236.197 405.77C236.523 406.097 236.775 406.489 236.953 406.946C237.13 407.394 237.219 407.889 237.219 408.43C237.219 408.981 237.13 409.48 236.953 409.928C236.775 410.376 236.523 410.763 236.197 411.09C235.879 411.417 235.497 411.669 235.049 411.846C234.601 412.023 234.106 412.112 233.565 412.112ZM233.565 411.048C233.873 411.048 234.162 410.987 234.433 410.866C234.713 410.745 234.951 410.572 235.147 410.348C235.352 410.115 235.515 409.839 235.637 409.522C235.758 409.195 235.819 408.831 235.819 408.43C235.819 408.029 235.758 407.669 235.637 407.352C235.515 407.025 235.352 406.75 235.147 406.526C234.941 406.293 234.703 406.115 234.433 405.994C234.162 405.873 233.873 405.812 233.565 405.812C233.257 405.812 232.963 405.873 232.683 405.994C232.412 406.115 232.174 406.293 231.969 406.526C231.773 406.75 231.614 407.025 231.493 407.352C231.371 407.669 231.311 408.029 231.311 408.43C231.311 408.831 231.371 409.195 231.493 409.522C231.614 409.839 231.773 410.115 231.969 410.348C232.174 410.572 232.412 410.745 232.683 410.866C232.963 410.987 233.257 411.048 233.565 411.048ZM241.91 412.112C241.406 412.112 240.949 412.019 240.538 411.832C240.128 411.645 239.778 411.384 239.488 411.048C239.199 410.712 238.975 410.315 238.816 409.858C238.667 409.391 238.592 408.887 238.592 408.346C238.592 407.833 238.672 407.357 238.83 406.918C238.989 406.479 239.213 406.101 239.502 405.784C239.792 405.457 240.137 405.205 240.538 405.028C240.949 404.841 241.397 404.748 241.882 404.748C242.424 404.748 242.881 404.851 243.254 405.056C243.637 405.261 243.959 405.513 244.22 405.812H244.248V401.36H245.564V412H244.304V410.992H244.22C243.95 411.337 243.628 411.613 243.254 411.818C242.89 412.014 242.442 412.112 241.91 412.112ZM242.134 411.048C242.442 411.048 242.727 410.983 242.988 410.852C243.25 410.721 243.474 410.544 243.66 410.32C243.847 410.087 243.992 409.811 244.094 409.494C244.197 409.177 244.248 408.827 244.248 408.444C244.248 408.061 244.192 407.711 244.08 407.394C243.978 407.067 243.833 406.787 243.646 406.554C243.46 406.321 243.236 406.139 242.974 406.008C242.713 405.877 242.424 405.812 242.106 405.812C241.808 405.812 241.528 405.877 241.266 406.008C241.005 406.139 240.781 406.321 240.594 406.554C240.408 406.778 240.258 407.049 240.146 407.366C240.044 407.683 239.992 408.029 239.992 408.402C239.992 408.785 240.044 409.139 240.146 409.466C240.258 409.783 240.408 410.063 240.594 410.306C240.79 410.539 241.019 410.721 241.28 410.852C241.542 410.983 241.826 411.048 242.134 411.048ZM248.769 408.724C248.843 409.461 249.095 410.031 249.525 410.432C249.954 410.824 250.533 411.02 251.261 411.02C251.69 411.02 252.11 410.969 252.521 410.866C252.941 410.754 253.286 410.619 253.557 410.46V411.748C253.333 411.823 253.025 411.902 252.633 411.986C252.241 412.07 251.755 412.112 251.177 412.112C249.963 412.112 249.03 411.776 248.377 411.104C247.733 410.432 247.411 409.499 247.411 408.304C247.411 407.763 247.495 407.273 247.663 406.834C247.84 406.395 248.078 406.022 248.377 405.714C248.685 405.406 249.044 405.168 249.455 405C249.865 404.832 250.309 404.748 250.785 404.748C251.802 404.748 252.6 405.047 253.179 405.644C253.757 406.241 254.047 407.147 254.047 408.36V408.724H248.769ZM250.771 405.812C250.22 405.812 249.767 405.989 249.413 406.344C249.067 406.689 248.853 407.156 248.769 407.744H252.647C252.647 407.128 252.469 406.652 252.115 406.316C251.76 405.98 251.312 405.812 250.771 405.812ZM256.649 408.99C256.649 408.626 256.7 408.313 256.803 408.052C256.906 407.781 257.032 407.534 257.181 407.31C257.33 407.086 257.494 406.881 257.671 406.694C257.848 406.498 258.012 406.302 258.161 406.106C258.31 405.901 258.436 405.686 258.539 405.462C258.642 405.229 258.693 404.963 258.693 404.664C258.693 404.225 258.553 403.88 258.273 403.628C258.002 403.376 257.582 403.25 257.013 403.25C256.966 403.25 256.868 403.255 256.719 403.264C256.579 403.264 256.406 403.283 256.201 403.32C256.005 403.348 255.79 403.404 255.557 403.488C255.324 403.563 255.09 403.67 254.857 403.81V402.522C255.286 402.335 255.697 402.214 256.089 402.158C256.49 402.093 256.826 402.06 257.097 402.06C257.592 402.06 258.03 402.125 258.413 402.256C258.796 402.377 259.118 402.55 259.379 402.774C259.64 402.998 259.836 403.264 259.967 403.572C260.107 403.871 260.177 404.197 260.177 404.552C260.177 404.888 260.121 405.196 260.009 405.476C259.906 405.747 259.771 405.999 259.603 406.232C259.435 406.465 259.258 406.689 259.071 406.904C258.884 407.109 258.707 407.324 258.539 407.548C258.371 407.763 258.231 407.996 258.119 408.248C258.016 408.491 257.965 408.761 257.965 409.06V409.27H256.649V408.99ZM256.523 410.432H258.091V412H256.523V410.432Z" fill="#0062FF"/>
<defs>
<clipPath id="clip0_656_11699">
<rect width="66" height="20" fill="white" transform="translate(41 17)"/>
</clipPath>
</defs>
</svg>
