<svg width="793" height="675" viewBox="0 0 793 675" fill="none" xmlns="http://www.w3.org/2000/svg">
<path fill-rule="evenodd" clip-rule="evenodd" d="M740.745 9.35455C740.801 9.4593 740.854 9.55985 740.906 9.65578C742.738 13.0744 742.929 16.9402 743.05 19.3853L743.065 19.6798C743.216 22.6577 743.347 24.2212 743.891 25.4451C747.358 33.2605 748.623 41.6432 749.625 49.2935C749.734 50.1291 749.841 50.9551 749.946 51.7719C750.838 58.7008 751.646 64.9721 753.552 70.8481C761.469 95.2457 761.764 119.05 762.059 142.802C762.11 146.899 762.161 150.994 762.251 155.091C762.94 186.466 763.856 216.11 768.993 246.7C771.517 261.729 770.274 276.709 769.103 290.823C769.043 291.549 768.983 292.272 768.924 292.993C767.688 308.01 766.743 322.099 769.752 336.002C772.803 350.107 774.819 364.27 776.795 378.186L776.82 378.366C778.797 392.289 780.739 405.965 783.645 419.517C797.199 482.718 797.36 551.052 775.231 613.355C772.028 622.374 769.406 630.042 769.406 638.151C769.406 638.744 769.466 640.224 769.535 641.723C769.568 642.422 769.6 643.075 769.624 643.565L769.626 643.596C769.638 643.84 769.648 644.048 769.655 644.194C769.658 644.264 769.661 644.335 769.664 644.392C769.665 644.415 769.667 644.467 769.668 644.524C769.668 644.536 769.671 644.631 769.67 644.748C769.67 644.766 769.669 644.791 769.669 644.82C769.668 644.849 769.667 644.881 769.666 644.918C769.664 644.972 769.657 645.132 769.635 645.336C769.622 645.447 769.578 645.731 769.545 645.904C769.474 646.21 769.139 647.156 768.819 647.768C767.56 649.255 762.936 650.642 760.16 649.554C759.803 649.235 759.441 648.828 759.12 648.422C759.002 648.411 758.861 648.4 758.696 648.391C757.142 648.313 754.804 648.599 751.933 649.201C749.154 649.783 746.278 650.572 743.755 651.29C743.389 651.394 743.014 651.501 742.636 651.61C740.718 652.161 738.733 652.731 737.56 652.93C709.253 657.722 681.718 659.728 652.629 654.329C627.834 649.728 600.935 650.231 574.234 650.73C565.907 650.886 557.599 651.041 549.379 651.041C503.678 651.041 457.733 651.446 412.086 652.607C399.169 652.936 386.342 654.315 373.333 655.905C370.688 656.228 368.032 656.56 365.365 656.894C354.995 658.191 344.473 659.508 333.905 660.37C320.475 661.465 307.025 662.179 293.672 662.886L293.615 662.889C280.253 663.597 266.989 664.299 253.772 665.374C228.26 667.447 202.799 667.821 177.567 668.167L176.409 668.183C151.506 668.523 126.828 668.861 102.17 670.761C94.3586 671.362 86.7592 671.836 79.2102 672.307C69.8786 672.888 60.624 673.465 51.1409 674.273C50.7889 674.303 50.4218 674.335 50.0412 674.368C47.0405 674.629 43.2044 674.963 39.3847 674.997C35.1739 675.035 30.2946 674.732 26.1426 673.202C13.5493 668.561 9.38871 656.772 8.19725 646.424C7.16286 637.44 8.14995 627.845 8.81433 621.387C8.91757 620.383 9.01302 619.455 9.09188 618.617C9.90028 610.026 11.3998 601.539 12.8505 593.327L12.993 592.52C14.5023 583.972 15.9364 575.71 16.6362 567.421C18.0005 551.261 17.8719 535.09 17.741 518.624C17.702 513.717 17.6627 508.785 17.6627 503.818C17.6627 482.305 17.9431 461.045 18.2228 439.831C18.5569 414.492 18.8901 389.219 18.7437 363.662C18.5961 337.911 15.9054 312.307 13.1777 286.351L13.073 285.354C10.3204 259.158 7.56385 232.603 7.56385 205.774C7.56385 160.935 8.15264 116.662 11.7579 71.7146C11.938 69.47 12.112 67.7835 12.2784 66.53C11.5565 67.0998 10.6923 67.5116 9.72814 67.7023C8.80975 67.884 7.98542 68.0288 7.3373 68.1085C7.07505 68.1407 6.55165 68.2009 5.98606 68.1871C5.9813 68.187 5.97537 68.1869 5.96832 68.1867C5.78996 68.1832 4.89233 68.1656 3.8804 67.7785C3.39824 67.594 1.91079 66.9686 0.884261 65.2901C-0.425454 63.1486 -0.0661719 60.9199 0.59234 59.546C1.12546 58.4338 1.863 57.778 2.12736 57.5522C2.47168 57.258 2.78152 57.0596 2.95993 56.9515C3.32053 56.7331 3.64286 56.5864 3.8142 56.5113C4.18635 56.3483 4.57109 56.2118 4.88297 56.1071C5.54136 55.8861 6.40507 55.632 7.4314 55.3522C13.0138 53.8304 18.3316 53.0266 23.4355 52.4083C25.2473 52.1888 26.9887 51.9966 28.7017 51.8076C31.9515 51.4489 35.0988 51.1015 38.4302 50.6004C62.1729 47.0294 86.2123 47.3524 109.819 47.6696C118.546 47.7868 127.214 47.9033 135.785 47.8219C156.905 47.6215 177.599 44.5901 198.674 41.5031C209.355 39.9384 220.134 38.3595 231.116 37.1276C250.875 34.9109 270.713 33.7258 290.405 32.6317C292.161 32.5342 293.917 32.4373 295.67 32.3405C313.628 31.3495 331.448 30.3661 349.186 28.6821C368.885 26.812 388.663 24.7143 408.483 22.6121C442.559 18.9981 476.762 15.3705 510.91 12.8623C523.577 11.9318 536.609 10.5824 549.841 9.21225C585.819 5.48689 623.286 1.6073 658.987 5.57231C662.309 5.94125 665.532 6.35786 668.685 6.76533C680.067 8.23623 690.528 9.58813 701.369 8.14955C704.857 7.6867 708.069 6.4358 711.879 4.82022C712.196 4.68573 712.519 4.54783 712.848 4.40749C716.266 2.94817 720.302 1.22533 724.733 0.335148C729.175 -0.55728 733.017 0.354785 736.036 2.92169C738.378 4.91249 739.849 7.67271 740.745 9.35455ZM24.0486 69.145C23.9506 70.0241 23.8395 71.1786 23.7195 72.674C20.1539 117.126 19.5639 161.009 19.5639 205.774C19.5639 231.876 22.2457 257.818 25.0073 284.1L25.1394 285.357C27.8482 311.131 30.5925 337.242 30.7435 363.594C30.889 388.996 30.5535 414.666 30.2188 440.27C29.9405 461.562 29.6627 482.808 29.6627 503.818C29.6627 508.566 29.7012 513.356 29.74 518.176C29.8732 534.744 30.0092 551.664 28.5936 568.431C27.8413 577.342 26.3085 586.121 24.8102 594.607L24.7005 595.228C23.2256 603.578 21.8011 611.644 21.0391 619.741C20.9474 620.716 20.8435 621.741 20.7353 622.808C20.071 629.364 19.2477 637.488 20.1185 645.051C21.1347 653.877 24.1707 659.686 30.2916 661.942C32.3463 662.699 35.4457 663.032 39.2762 662.998C42.5964 662.968 45.9496 662.677 48.9918 662.414C49.3738 662.381 49.7508 662.348 50.1223 662.317C59.509 661.517 69.1866 660.91 78.7833 660.309C86.3839 659.833 93.9338 659.36 101.248 658.796C126.289 656.867 151.294 656.525 176.083 656.186L177.403 656.168C202.688 655.821 227.753 655.449 252.8 653.413C266.187 652.325 279.595 651.615 292.903 650.91L293.037 650.903C306.418 650.194 319.698 649.489 332.929 648.41C343.214 647.571 353.407 646.296 363.747 645.002C366.446 644.665 369.155 644.326 371.878 643.993C384.953 642.396 398.257 640.955 411.781 640.611C457.558 639.446 503.611 639.041 549.379 639.041C557.068 639.041 565.024 638.89 573.133 638.737C600.076 638.227 628.704 637.685 654.818 642.531C681.979 647.571 707.961 645.77 735.556 641.098L735.557 641.098C735.562 641.097 735.602 641.09 735.686 641.072C735.773 641.052 735.888 641.026 736.033 640.99C736.185 640.952 736.357 640.907 736.55 640.856C736.73 640.808 736.929 640.754 737.147 640.693C737.743 640.528 738.404 640.339 739.152 640.124C739.564 640.006 740.003 639.881 740.472 639.747C743.033 639.019 746.253 638.13 749.471 637.456C751.994 636.927 754.8 636.466 757.438 636.39C757.787 626.615 760.972 617.649 763.889 609.436L763.923 609.339C785.132 549.626 785.123 483.636 771.912 422.034C768.917 408.068 766.925 394.038 764.967 380.246L764.914 379.873C762.929 365.893 760.969 352.155 758.023 338.54C754.587 322.658 755.741 306.875 756.964 292.009C757.011 291.439 757.058 290.87 757.105 290.303C758.302 275.804 759.427 262.193 757.159 248.688C751.861 217.141 750.942 186.702 750.254 155.355C750.159 151.048 750.104 146.817 750.049 142.648C749.735 118.861 749.447 97.0779 742.138 74.5517C739.862 67.5374 738.911 60.1017 738.046 53.3284C737.939 52.4922 737.833 51.6662 737.727 50.8523C736.72 43.1723 735.609 36.3688 732.922 30.3122C731.399 26.8808 731.22 23.1689 731.102 20.7305C731.095 20.5776 731.088 20.4296 731.08 20.2871C730.93 17.3149 730.745 16.1 730.329 15.3249C729.793 14.3238 729.41 13.6174 729.017 13.013C728.636 12.4283 728.39 12.1712 728.264 12.0644C728.237 12.0412 728.218 12.0279 728.208 12.0212C728.208 12.021 728.207 12.0209 728.206 12.0207C728.183 12.0154 727.871 11.9444 727.096 12.1001C723.932 12.7357 721.004 13.9805 717.371 15.5248C717.106 15.6376 716.837 15.7519 716.564 15.8678C712.745 17.4875 708.205 19.3475 702.947 20.0453C690.388 21.7119 677.911 20.0849 666.326 18.5742C663.376 18.1895 660.483 17.8123 657.662 17.499C623.341 13.6872 587.848 17.3615 552.302 21.0411C538.785 22.4404 525.26 23.8405 511.789 24.83C477.794 27.327 443.982 30.9144 410.071 34.5121C390.207 36.6196 370.309 38.7307 350.32 40.6284C332.333 42.336 314.276 43.3323 296.358 44.3209C294.594 44.4182 292.832 44.5154 291.071 44.6133C271.372 45.7077 251.84 46.878 232.453 49.0528C222.337 50.1876 211.994 51.6983 201.517 53.2287C179.946 56.3795 157.804 59.6135 135.899 59.8214C126.714 59.9085 117.679 59.7873 108.747 59.6674C85.4818 59.3552 62.9172 59.0524 40.215 62.467C36.6642 63.001 33.0916 63.3963 29.6936 63.7722C28.0398 63.9552 26.4273 64.1336 24.8787 64.3212C24.8361 64.3264 24.7935 64.3315 24.7508 64.3367C24.7831 64.55 24.7996 64.7254 24.8093 64.8457C24.8564 65.4297 24.8364 66.0051 24.7833 66.5053C24.7349 66.9619 24.6209 67.7354 24.2993 68.5713C24.2407 68.7234 24.1595 68.9199 24.0486 69.145ZM5.81529 56.2043C5.81582 56.2041 5.82854 56.2026 5.85183 56.2007C5.8264 56.2036 5.81475 56.2046 5.81529 56.2043ZM759.662 648.521C759.655 648.525 759.594 648.513 759.497 648.474C759.621 648.498 759.67 648.518 759.662 648.521ZM758.791 647.989C758.536 647.734 758.272 647.367 758.071 646.844C758.163 647.057 758.432 647.497 758.791 647.989Z" fill="#1E1E1E"/>
<path fill-rule="evenodd" clip-rule="evenodd" d="M444.233 68.5489C445.413 70.3295 445.962 72.3561 445.992 74.4402C446.161 86.19 443.885 97.544 438.209 108.513C437.651 109.593 436.77 110.784 436.183 111.577L436.003 111.821C435.31 112.759 434.691 113.598 434.16 114.428C433.855 114.904 433.649 115.273 433.514 115.545C433.886 116.903 433.836 118.51 432.994 120.06C432.102 121.699 430.748 122.42 430.324 122.634C429.341 123.131 428.382 123.285 428.071 123.336L428.066 123.337C427.183 123.479 426.142 123.532 425.226 123.557C423.282 123.61 420.707 123.56 418.147 123.467C413.195 123.286 407.319 122.904 405.568 122.606C389.076 119.799 371.682 121.053 354.451 123.351C337.292 125.638 320.169 126.176 303.285 126.706C295.377 126.955 287.522 127.201 279.739 127.625C267.209 128.308 254.88 129.767 242.34 131.251C240.029 131.524 237.71 131.799 235.381 132.069C220.515 133.796 205.346 135.352 189.767 135.352C179.434 135.352 168.759 134.711 158.238 134.079C154.575 133.86 150.932 133.641 147.327 133.451C133.203 132.705 119.468 132.378 106.403 133.9C94.4691 135.289 82.6277 139.114 73.313 145.213C73.2107 145.317 73.076 145.457 72.9059 145.637C72.5629 146 72.1763 146.42 71.7488 146.884C71.5754 147.073 71.3952 147.268 71.2085 147.47C70.6023 148.127 69.9198 148.859 69.3367 149.441C69.0565 149.72 68.6997 150.065 68.3315 150.373C68.1574 150.519 67.8564 150.763 67.4784 151.003C67.2887 151.124 66.9758 151.31 66.5714 151.486C66.2322 151.633 65.4359 151.95 64.3693 151.994C61.1361 152.129 59.2438 150.014 58.5133 148.88C57.8011 147.774 57.477 146.619 57.3093 145.902C56.9492 144.362 56.8071 142.514 56.7459 140.761C56.6193 137.135 56.8032 132.403 57.0807 127.738C57.3079 123.918 57.6065 120.011 57.8788 116.595C57.1054 115.31 56.81 113.734 57.1727 112.157C57.3839 111.239 57.6136 109.104 57.8559 106.853C57.9512 105.968 58.0484 105.064 58.1472 104.209C58.2214 103.567 58.3051 102.892 58.3948 102.362C58.4271 102.171 58.5128 101.664 58.681 101.139C58.7308 100.983 58.8192 100.725 58.9576 100.422C59.0635 100.19 59.3634 99.5576 59.9489 98.899C59.9649 98.881 59.9822 98.8618 60.0007 98.8416L60.0007 96.2758H72.9456C74.9265 96.2758 76.5287 95.5082 79.7413 93.9691C80.0088 93.841 80.2875 93.7074 80.5785 93.5686C84.0473 91.9133 88.8756 89.8109 95.1695 90.7972C96.1125 90.945 96.4768 90.8544 98.7098 90.2989C99.0631 90.2111 99.4632 90.1115 99.9198 89.9995C114.069 86.5269 128.361 85.7988 142.299 85.3017C164.92 84.4949 187.214 81.7113 209.804 78.8908C212.524 78.5513 215.248 78.2111 217.977 77.8739C243.265 74.7492 268.937 71.8815 295.188 72.1943C299.146 72.2415 303.1 72.296 307.05 72.3505C326.158 72.6141 345.177 72.8765 364.101 72.296C377.177 71.8948 389.579 69.6065 402.553 67.2128C407.362 66.3254 412.25 65.4235 417.28 64.5978C417.602 64.5451 418.017 64.4706 418.508 64.3823C421.255 63.8891 426.395 62.9662 431.021 63.001C433.714 63.0212 437.083 63.3458 439.986 64.829C441.524 65.6146 443.073 66.7984 444.233 68.5489ZM70.5495 108.276C70.4617 109.854 70.2787 112.117 70.0808 114.565C70.0622 114.795 70.0434 115.027 70.0246 115.261C69.7095 119.165 69.3311 123.885 69.0595 128.45C68.9471 130.34 68.8552 132.17 68.7931 133.88C79.5723 127.344 92.4367 123.445 105.015 121.98C119.137 120.336 133.712 120.715 147.96 121.467C151.766 121.668 155.534 121.894 159.269 122.118C169.679 122.743 179.825 123.352 189.767 123.352C204.602 123.352 219.181 121.87 233.996 120.149C236.273 119.885 238.557 119.614 240.848 119.343C253.381 117.859 266.143 116.348 279.086 115.643C287.468 115.186 295.631 114.932 303.685 114.681C320.224 114.165 336.302 113.664 352.865 111.456C370.42 109.115 389.265 107.659 407.581 110.776L407.583 110.776C407.599 110.779 407.697 110.793 407.911 110.817C408.135 110.842 408.426 110.871 408.784 110.903C409.497 110.967 410.411 111.037 411.46 111.107C413.558 111.248 416.123 111.385 418.585 111.475C419.856 111.521 421.071 111.554 422.162 111.569C422.702 110.183 423.426 108.94 424.05 107.963C424.808 106.778 425.653 105.634 426.296 104.766L426.442 104.568C426.793 104.092 427.064 103.723 427.28 103.411C427.484 103.115 427.553 102.993 427.555 102.992C427.555 102.992 427.554 102.994 427.552 102.998C432.107 94.1947 434.044 85.0619 434 75.326C433.41 75.1658 432.42 75.0118 430.931 75.0006C427.555 74.9753 423.827 75.6334 420.969 76.138C420.341 76.2488 419.755 76.3522 419.224 76.4394C414.711 77.1801 410.137 78.0246 405.506 78.8795C392.252 81.3262 378.534 83.8588 364.469 84.2903C345.252 84.8798 325.916 84.6126 306.803 84.3485C302.873 84.2942 298.953 84.2401 295.045 84.1935C269.684 83.8913 244.725 86.66 219.449 89.7833C216.73 90.1192 214.007 90.4594 211.279 90.8002C188.756 93.6137 165.914 96.4671 142.726 97.2941C128.778 97.7916 115.603 98.5066 102.78 101.654C102.489 101.725 102.182 101.806 101.859 101.89C99.6975 102.457 96.8423 103.206 93.3117 102.653C90.8127 102.261 88.816 102.934 85.7466 104.399C85.4495 104.54 85.1314 104.697 84.7934 104.863C82.0008 106.236 77.8509 108.276 72.9456 108.276H70.5495ZM69.0119 143.236C69.0115 143.237 69.0063 143.221 68.9976 143.185C69.0079 143.217 69.0123 143.235 69.0119 143.236ZM73.5126 145.019C73.5119 145.02 73.4945 145.037 73.4626 145.065C73.4974 145.032 73.5133 145.018 73.5126 145.019Z" fill="#1E1E1E"/>
<path fill-rule="evenodd" clip-rule="evenodd" d="M642.999 226.563C642.999 226.63 642.999 226.694 642.999 226.75C642.999 234.743 642.268 242.78 641.567 250.493C641.41 252.222 641.254 253.935 641.108 255.628C640.299 265.032 639.775 273.993 640.679 282.796C640.779 283.775 641.055 284.954 641.464 286.515C641.508 286.685 641.556 286.864 641.605 287.05C641.948 288.347 642.382 289.986 642.609 291.478C642.837 292.968 643.157 295.909 641.6 298.608C639.65 301.988 636.189 302.873 633.471 302.873C631.633 302.873 629.795 302.873 627.958 302.873C585.995 302.87 544.273 302.867 502.501 304.552C500.035 304.652 497.567 304.75 495.098 304.848C466.395 305.991 437.497 307.141 409.346 310.346C392.941 312.214 376.447 312.39 360.325 312.563C359.539 312.571 358.754 312.579 357.97 312.588C340.985 312.774 324.407 313.046 308.072 315.245C302.591 315.983 297.04 316.839 291.43 317.704C275.711 320.128 259.528 322.623 243.12 322.79C238.106 322.841 233.141 322.851 228.211 322.86C212.184 322.891 196.53 322.922 180.746 324.367C177.324 324.681 173.912 324.985 170.51 325.289C141.749 327.854 113.713 330.356 86.4763 337.698C84.4359 338.248 82.1226 338.096 80.0555 336.803C78.2041 335.645 77.2008 333.973 76.654 332.746C75.5997 330.382 75.3192 327.559 75.2226 325.449C75.1174 323.153 75.2061 320.795 75.3077 318.943C75.3473 318.222 75.3909 317.543 75.4275 316.975C75.4381 316.81 75.448 316.655 75.4571 316.511C75.4781 316.179 75.4942 315.911 75.5049 315.694C75.5102 315.587 75.5137 315.504 75.5158 315.44C75.5179 315.374 75.518 315.346 75.518 315.346C75.518 314.806 75.4707 313.114 75.4065 310.821C75.3174 307.639 75.1959 303.299 75.1238 299.274C75.0708 296.318 75.0437 293.466 75.1004 291.657C75.0448 291.637 74.9879 291.616 74.9301 291.594C74.6048 291.469 73.6568 291.086 72.7616 290.186C71.6302 289.048 70.5206 286.924 71.2038 284.363C71.7177 282.437 72.994 281.406 73.3674 281.117C74.2122 280.464 75.0676 280.169 75.2722 280.098C75.2791 280.096 75.2853 280.094 75.2907 280.092C75.9119 279.876 76.5698 279.736 77.0049 279.65C78.7972 279.298 81.8632 278.931 83.557 278.931C91.1406 278.931 95.212 277.934 101.672 276.352C104.122 275.752 106.915 275.067 110.374 274.322C146.189 266.6 181.001 264.742 216.233 262.862C226.636 262.307 237.075 261.75 247.587 261.039C303.301 257.273 358.061 253.368 413.296 246.592C431.835 244.318 450.428 241.791 469.072 239.257C511.756 233.454 554.708 227.616 597.892 224.698C600.788 224.503 604.053 224.516 607.283 224.558C607.966 224.566 608.649 224.576 609.331 224.586C611.959 224.625 614.584 224.664 617.208 224.629C623.307 224.549 628.375 224.058 631.92 222.764C632.088 222.505 632.344 222.154 632.692 221.799C633 221.485 633.709 220.825 634.836 220.395C636.162 219.889 637.886 219.787 639.557 220.582C641.005 221.27 641.772 222.332 642.103 222.874C642.457 223.452 642.635 223.965 642.717 224.23C642.882 224.761 642.935 225.198 642.951 225.334C642.974 225.527 642.984 225.685 642.988 225.772C642.997 225.946 642.999 226.102 642.999 226.179C643 226.277 643 226.425 642.999 226.563ZM631.33 223.934C631.275 224.046 631.269 224.086 631.299 224.013L631.323 223.951L631.325 223.948C631.326 223.945 631.327 223.941 631.33 223.934ZM87.5303 290.836C87.5599 291.042 87.5887 291.256 87.617 291.475C87.772 292.675 87.5609 293.838 87.0703 294.852C87.0756 296.061 87.0937 297.491 87.1218 299.059C87.1861 302.645 87.303 306.909 87.3932 310.2C87.4638 312.774 87.518 314.753 87.518 315.346C87.518 315.946 87.4488 317.035 87.3798 318.12C87.3473 318.632 87.3148 319.142 87.2897 319.6C87.1948 321.33 87.1327 323.212 87.21 324.9C87.2131 324.968 87.2164 325.035 87.22 325.101C114.317 318.242 142.092 315.77 169.412 313.338C172.833 313.033 176.247 312.729 179.651 312.417C196.023 310.918 212.41 310.887 228.546 310.857C233.388 310.848 238.208 310.839 242.998 310.791C258.478 310.633 273.402 308.333 288.846 305.952C294.63 305.061 300.486 304.158 306.472 303.352C323.64 301.041 340.92 300.774 357.838 300.589C358.56 300.581 359.281 300.573 360.002 300.565C376.283 300.39 392.214 300.219 407.989 298.423C436.601 295.166 465.933 293.999 494.551 292.86C497.045 292.761 499.534 292.662 502.017 292.562C544.038 290.866 585.981 290.87 627.881 290.873C628.654 290.873 629.427 290.873 630.201 290.873C630.14 290.64 630.075 290.393 630.006 290.131C629.958 289.946 629.907 289.754 629.855 289.553C629.456 288.029 628.948 286.03 628.741 284.021C627.714 274.019 628.335 264.099 629.153 254.599C629.309 252.778 629.473 250.979 629.634 249.196C630.057 244.534 630.469 239.986 630.728 235.477C626.315 236.344 621.628 236.572 617.365 236.628C614.557 236.665 611.717 236.623 609.073 236.584C608.412 236.574 607.763 236.565 607.129 236.557C603.883 236.515 601.06 236.512 598.701 236.671C555.935 239.56 513.646 245.31 471.155 251.086C452.414 253.634 433.635 256.187 414.757 258.503C359.159 265.323 304.101 269.247 248.397 273.012C237.506 273.748 226.825 274.319 216.28 274.883C181.238 276.757 147.693 278.551 112.903 286.052C110.141 286.648 107.687 287.25 105.371 287.818C99.4714 289.266 94.4676 290.493 87.5303 290.836ZM630.799 293.862C630.798 293.861 630.797 293.837 630.8 293.792C630.802 293.841 630.8 293.863 630.799 293.862ZM75.5644 291.999C75.5644 291.999 75.5653 292.003 75.5671 292.012C75.5652 292.004 75.5643 292 75.5644 291.999ZM78.1468 280.11C78.147 280.11 78.1531 280.11 78.1645 280.112C78.1523 280.111 78.1466 280.11 78.1468 280.11Z" fill="#1E1E1E"/>
<path fill-rule="evenodd" clip-rule="evenodd" d="M172.547 160.413C162.504 161.039 148.569 161.544 141.324 160.824C128.037 159.505 114.465 160.656 100.525 161.839C95.9724 162.225 91.3803 162.615 86.7461 162.922C85.7171 162.991 83.9113 163.155 81.9078 163.337C80.021 163.508 77.9589 163.696 76.2053 163.834C75.3707 163.9 74.5875 163.955 73.9948 163.982C73.7296 163.994 73.3481 164.007 72.9798 163.995C72.9765 163.995 72.9728 163.995 72.9686 163.995C72.8449 163.991 72.3535 163.976 71.7824 163.854C71.7782 163.853 71.7724 163.852 71.7653 163.85C71.5858 163.813 70.5071 163.592 69.4314 162.795C68.7939 162.322 67.6073 161.235 67.1615 159.349C66.6804 157.314 67.3543 155.636 67.9791 154.68C68.9018 153.267 70.1771 152.657 70.3187 152.589C70.324 152.586 70.3277 152.585 70.3297 152.584C70.6942 152.4 71.0038 152.291 71.1476 152.242C71.4594 152.136 71.7387 152.066 71.8899 152.031C72.2281 151.95 72.6172 151.875 73.0028 151.805C73.8026 151.661 74.9665 151.476 76.5415 151.24C77.5435 151.09 78.5246 151.198 79.418 151.512C79.7829 151.48 80.1503 151.446 80.5156 151.414C82.7519 151.212 84.9106 151.018 85.9506 150.949C90.0796 150.674 94.344 150.311 98.6979 149.94C112.881 148.732 128.014 147.443 142.51 148.883C148.642 149.492 161.632 149.07 171.801 148.436C174.624 148.261 177.132 148.075 179.125 147.901C180.043 147.33 181.128 147 182.289 147C183.169 147 183.922 147.013 184.516 147.044C184.805 147.059 185.15 147.082 185.497 147.127C185.668 147.15 185.924 147.188 186.217 147.255C186.411 147.299 187.071 147.45 187.812 147.848L187.818 147.851C188.066 147.984 191.465 149.802 190.954 153.907C190.734 155.678 189.813 156.831 189.296 157.364C188.758 157.918 188.232 158.247 187.956 158.405C187.103 158.895 186.258 159.087 186.112 159.12C186.104 159.122 186.099 159.123 186.095 159.124C185.534 159.257 184.88 159.353 184.332 159.425C182.004 159.732 177.613 160.098 172.547 160.413Z" fill="#1E1E1E"/>
<path fill-rule="evenodd" clip-rule="evenodd" d="M149.316 390.317C146.24 390.446 143.221 390.572 140.681 390.567C123.679 390.536 107.769 390.51 92.359 394.376C91.5864 394.57 90.8975 394.796 90.1891 395.037C90.1257 395.059 90.0552 395.083 89.9785 395.11C89.4069 395.307 88.4951 395.621 87.6894 395.796C87.6822 395.798 87.6748 395.799 87.6669 395.801C87.028 395.94 84.1059 396.576 81.5476 394.483C79.021 392.415 79 389.44 79 388.638C79 385.324 81.6863 382.638 85 382.638C85.9454 382.638 86.8398 382.857 87.6353 383.246C88.1742 383.078 88.7796 382.902 89.4389 382.737C106.317 378.502 123.514 378.535 140.032 378.566C140.256 378.566 140.48 378.567 140.703 378.567C142.949 378.571 145.71 378.457 148.899 378.324L148.956 378.322C152.074 378.192 155.534 378.047 158.992 378.009C165.686 377.936 173.401 378.225 179.092 380.352C179.66 380.564 180.865 381.11 181.828 382.417C182.967 383.962 183.187 385.767 182.863 387.258C182.592 388.503 181.997 389.338 181.716 389.695C181.393 390.107 181.083 390.391 180.903 390.546C180.343 391.029 179.789 391.315 179.698 391.362C179.694 391.365 179.691 391.366 179.689 391.367C179.357 391.542 179.016 391.688 178.831 391.766C178.392 391.951 177.819 392.174 177.315 392.37C177.224 392.405 177.134 392.44 177.045 392.475C176.601 392.647 176.184 392.809 175.817 392.956C175.399 393.123 175.239 393.196 175.239 393.194C175.238 393.193 175.251 393.187 175.273 393.175C172.337 394.712 168.712 393.579 167.175 390.643C167.097 390.495 167.027 390.346 166.963 390.195C164.608 390.031 161.968 389.978 159.123 390.009C155.859 390.044 152.562 390.182 149.4 390.314L149.316 390.317Z" fill="#1E1E1E"/>
<path fill-rule="evenodd" clip-rule="evenodd" d="M670.812 407.815C670.692 410.314 670.601 412.204 670.607 413.305C670.607 413.294 670.608 413.304 670.611 413.339C670.621 413.452 670.654 413.823 670.754 414.583C670.868 415.457 671.03 416.562 671.222 417.871L671.261 418.136C671.633 420.666 672.095 423.81 672.446 426.877C672.801 429.98 673.084 433.332 672.977 436.021C672.927 437.289 672.777 438.946 672.225 440.468C671.757 441.758 669.98 445.413 665.554 445.413C661.699 445.413 657.828 445.605 653.779 445.806L653.722 445.809C649.74 446.007 645.583 446.213 641.384 446.213C627.849 446.213 614.364 446.618 600.793 447.027L600.695 447.029C587.186 447.436 573.59 447.845 559.949 447.845C530.138 447.845 500.342 451.269 470.144 454.809L468.372 455.017C438.863 458.477 408.962 461.984 378.907 462.236C355.372 462.433 331.904 464.39 308.194 466.367L306.413 466.515C282.177 468.535 257.689 470.53 233.089 470.53C214.284 470.53 195.819 468.378 177.814 466.279C174.086 465.845 170.378 465.413 166.691 465.002C145.018 462.591 123.844 460.898 102.256 463.425C101.575 463.505 100.855 463.577 100.107 463.651C97.9468 463.866 95.5591 464.104 93.2384 464.621C91.7181 464.96 90.6709 465.335 90.0611 465.669C90.0498 465.675 90.039 465.681 90.0285 465.687C89.862 466.168 89.6668 466.667 89.4354 467.139C89.2668 467.483 88.9929 467.992 88.5835 468.519C88.2448 468.954 87.3725 469.985 85.845 470.579C83.8785 471.344 81.7512 471.033 80.1249 469.922C78.859 469.056 78.249 467.954 78.0161 467.493C77.518 466.508 77.3236 465.517 77.2388 465.05C76.8683 463.012 76.7696 459.592 76.7125 456.339C76.6831 454.661 76.6638 452.922 76.6446 451.189C76.5803 445.397 76.5168 439.671 76.079 436.518C76.0601 436.382 75.9984 435.991 75.9093 435.426C75.63 433.657 75.0813 430.179 74.7333 427.47C74.6707 426.983 74.6095 426.485 74.5525 425.988C72.48 425.779 70.3626 425.53 68.6693 425.287C67.6238 425.137 66.5966 424.97 65.7669 424.79C65.3787 424.706 64.8496 424.58 64.3277 424.399C64.0874 424.315 63.6186 424.141 63.1007 423.844C62.8393 423.693 62.409 423.423 61.9535 423C61.5305 422.608 60.7666 421.793 60.3245 420.497C59.8119 418.995 59.9043 417.334 60.6181 415.878C61.2351 414.62 62.1246 413.898 62.6131 413.558C63.5373 412.914 64.4314 412.678 64.6854 412.611L64.6858 412.611C65.3826 412.427 66.08 412.357 66.5204 412.32C67.53 412.236 68.9284 412.201 70.6998 412.201C72.3606 412.201 73.8639 412.875 74.9503 413.966C76.6 414.14 78.2214 414.287 79.5108 414.383C80.4808 414.208 81.3565 414.296 82.107 414.505C105.84 414.566 129.128 413.85 152.531 413.131C171.235 412.556 190.012 411.979 209.148 411.794C262.387 411.28 316.607 407.544 369.891 403.695C418.373 400.192 466.925 397.593 515.412 394.998C527.838 394.333 540.26 393.668 552.676 392.988C576.706 391.672 599.732 389.021 623.607 385.86C629.807 385.039 636.351 385.11 642.375 385.174C642.973 385.181 643.566 385.187 644.153 385.192C650.881 385.255 656.918 385.2 662.314 384.128C664.199 383.754 666.055 384.217 667.503 385.271C668.744 386.174 669.409 387.301 669.747 387.99C670.413 389.348 670.679 390.833 670.819 391.856C671.124 394.085 671.16 396.911 671.118 399.565C671.074 402.294 670.938 405.19 670.82 407.66L670.812 407.815ZM90.3617 426.495C111.278 426.396 132.369 425.753 153.37 425.113C172.138 424.541 190.833 423.971 209.264 423.793C262.927 423.275 317.499 419.511 370.756 415.664C419.115 412.17 467.524 409.579 515.998 406.984C528.438 406.318 540.883 405.651 553.332 404.97C577.815 403.629 601.192 400.932 625.182 397.756C630.486 397.054 636.172 397.112 642.373 397.175C642.925 397.181 643.481 397.187 644.041 397.192C648.888 397.237 654.049 397.244 659.123 396.717C659.136 397.519 659.135 398.409 659.119 399.374C659.08 401.883 658.953 404.593 658.834 407.084L658.812 407.536C658.704 409.764 658.6 411.931 658.607 413.363C658.611 414.2 658.743 415.281 658.856 416.141C658.984 417.126 659.161 418.33 659.349 419.615L659.38 419.822C659.757 422.389 660.195 425.369 660.524 428.242C660.75 430.221 660.908 432.009 660.97 433.486C658.358 433.564 655.779 433.692 653.266 433.817L653.184 433.821C649.136 434.022 645.256 434.213 641.384 434.213C627.638 434.213 613.974 434.624 600.432 435.032L600.423 435.032C586.854 435.441 573.409 435.845 559.949 435.845C529.327 435.845 498.85 439.362 468.746 442.891L467.252 443.066C437.544 446.549 408.203 449.99 378.807 450.236C354.814 450.437 330.954 452.427 307.373 454.394L305.417 454.557C281.121 456.582 257.115 458.53 233.089 458.53C215.046 458.53 197.402 456.476 179.417 454.383C175.634 453.943 171.837 453.501 168.018 453.076C146.214 450.65 123.891 448.811 100.861 451.507C100.497 451.549 100.016 451.597 99.4464 451.653C97.251 451.869 93.7468 452.214 90.6297 452.908C90.0003 453.048 89.3425 453.211 88.6731 453.403C88.6669 452.859 88.661 452.302 88.6551 451.736C88.5929 445.821 88.5198 438.863 87.965 434.868C87.8912 434.337 87.772 433.587 87.6272 432.675C87.5575 432.237 87.4819 431.761 87.4025 431.254C89.0876 430.268 90.2224 428.495 90.3617 426.495ZM89.0613 462.979C89.0608 462.98 89.0555 462.959 89.0466 462.911C89.0573 462.954 89.0618 462.978 89.0613 462.979ZM67.3609 424.295C67.3607 424.295 67.3675 424.294 67.3822 424.292C67.3685 424.294 67.3612 424.295 67.3609 424.295ZM89.7546 465.864C89.7539 465.864 89.7619 465.856 89.7807 465.842C89.7646 465.857 89.7553 465.864 89.7546 465.864Z" fill="#1E1E1E"/>
<path fill-rule="evenodd" clip-rule="evenodd" d="M707.888 524.981C707.973 525.986 708 527.136 708 528.384C708 534.74 706.703 538.583 704.073 544.153C704.075 544.148 704.045 544.213 703.988 544.373C703.933 544.527 703.866 544.735 703.789 545.005C703.632 545.549 703.459 546.252 703.271 547.121C702.896 548.861 702.508 551.061 702.102 553.611C701.631 556.573 701.168 559.791 700.684 563.155C700.319 565.689 699.942 568.305 699.541 570.956C698.637 576.936 697.628 582.96 696.457 587.505C695.885 589.724 695.182 591.973 694.262 593.763C693.811 594.639 693.118 595.789 692.063 596.765C690.946 597.798 688.982 599.003 686.373 598.73C676.301 597.679 666.584 599.029 656.172 600.797C654.986 600.998 653.788 601.206 652.58 601.415C643.378 603.009 633.53 604.715 623.213 604.715C606.07 604.715 588.944 606.115 571.538 607.542L571.401 607.553C554.121 608.97 536.563 610.409 518.919 610.409C510.161 610.409 501.47 609.961 492.95 609.522L491.675 609.456C482.693 608.995 473.889 608.567 465.047 608.656C447.48 608.833 429.904 610.48 412.14 612.144C408.091 612.523 404.033 612.903 399.963 613.267C397.343 613.501 394.727 613.738 392.114 613.975C368.963 616.072 346.038 618.149 322.252 618.149C311.675 618.149 301.155 617.553 290.844 616.958L290.232 616.923C280.077 616.337 270.129 615.762 260.218 615.718C245.395 615.652 231.038 616.984 216.303 618.351C209.276 619.003 202.163 619.663 194.871 620.183C181.422 621.142 167.512 620.739 153.998 620.348C146.897 620.143 139.905 619.94 133.147 619.94C131.041 619.94 128.946 619.932 126.864 619.924C114.45 619.874 102.449 619.826 90.7282 621.568C90.5798 621.591 90.4277 621.613 90.2735 621.637C89.4287 621.764 88.521 621.901 87.8105 621.959C87.3756 621.995 86.6665 622.037 85.8787 621.941C85.1048 621.846 83.6638 621.552 82.3213 620.419C80.8477 619.176 80.2815 617.604 80.0942 616.462C79.931 615.466 80.0191 614.608 80.0684 614.202C80.1312 613.683 80.2844 612.894 80.3912 612.345C80.4257 612.167 80.4555 612.014 80.4757 611.903C82.0072 603.516 82.4336 594.703 82.8705 585.674C83.0201 582.583 83.1709 579.467 83.3676 576.334C83.3746 576.223 83.3864 575.996 83.4035 575.669C83.5122 573.581 83.8328 567.426 84.4512 561.507C84.7981 558.186 85.2617 554.695 85.8898 551.91C85.949 551.434 86.064 550.975 86.2281 550.54C86.5068 549.513 86.8597 548.451 87.321 547.501C87.6353 546.854 88.1587 545.92 89.0035 545.07C89.8749 544.194 91.5111 543.011 93.8473 543.011C97.6129 543.011 100.275 545.349 101.442 548.127C101.684 548.257 101.894 548.383 102.063 548.488C102.672 548.869 103.283 549.327 103.678 549.622L103.684 549.627C103.722 549.655 103.758 549.682 103.794 549.708C104.174 549.993 104.429 550.184 104.647 550.335C111.636 552.399 119.728 553.237 127.917 554.085C129.585 554.258 131.257 554.431 132.925 554.615C181.072 559.928 232.347 554.568 280.907 549.094C319.921 544.696 359.191 542.725 398.341 541.128C405.424 540.839 412.501 540.563 419.571 540.286C451.645 539.032 483.595 537.783 515.414 535.415C531.25 534.237 547.209 532.79 563.223 531.338C586.62 529.217 610.134 527.086 633.547 525.765C638.627 525.478 644.441 525.419 650.244 525.361C654.52 525.318 658.791 525.275 662.757 525.141C672.654 524.806 681.884 523.918 689.59 521.425C691.328 520.863 692.741 520.171 693.975 519.504C694.289 519.334 694.589 519.168 694.895 518.998L694.986 518.947C695.254 518.797 695.543 518.636 695.816 518.488C696.357 518.196 697.208 517.744 698.126 517.435C698.953 517.156 700.924 516.602 703.147 517.456C705.618 518.406 706.737 520.411 707.207 521.653C707.655 522.836 707.81 524.059 707.888 524.981ZM104.884 550.488C104.884 550.489 104.868 550.48 104.835 550.46C104.867 550.477 104.883 550.487 104.884 550.488ZM96.7733 559.443C96.6355 560.493 96.5063 561.605 96.3862 562.754C95.811 568.26 95.5144 573.888 95.3935 576.182C95.3713 576.603 95.355 576.911 95.344 577.086C95.1721 579.824 95.0343 582.685 94.8929 585.622C94.5262 593.235 94.1352 601.355 93.0607 609.156C104.452 607.823 116.018 607.874 127.057 607.922C129.107 607.931 131.138 607.94 133.147 607.94C140.669 607.94 148.015 608.157 155.265 608.371C168.34 608.757 181.103 609.134 194.018 608.213C200.76 607.732 207.586 607.1 214.472 606.463C229.523 605.07 244.866 603.65 260.271 603.718C270.506 603.764 280.732 604.354 290.791 604.935L291.535 604.978C301.889 605.576 312.074 606.149 322.252 606.149C345.462 606.149 367.838 604.123 391.062 602.021C393.661 601.786 396.271 601.549 398.895 601.315C402.849 600.961 406.829 600.588 410.829 600.213C428.622 598.545 446.809 596.839 464.926 596.657C474.187 596.564 483.338 597.012 492.291 597.472L493.473 597.533C502.07 597.976 510.479 598.409 518.919 598.409C536.037 598.409 553.151 597.009 570.558 595.582L570.66 595.574C587.951 594.157 605.533 592.715 623.213 592.715C632.429 592.715 641.215 591.198 650.516 589.592C651.723 589.384 652.937 589.174 654.163 588.966C663.648 587.355 673.668 585.87 684.265 586.518C684.441 585.967 684.633 585.302 684.836 584.511C685.837 580.627 686.77 575.157 687.676 569.162C688.046 566.718 688.415 564.155 688.78 561.621C689.282 558.139 689.776 554.712 690.252 551.726C690.669 549.101 691.097 546.651 691.541 544.591C691.953 542.682 692.479 540.602 693.222 539.028C694.663 535.977 695.414 534.05 695.756 531.937C694.993 532.249 694.17 532.556 693.284 532.842C683.92 535.872 673.308 536.791 663.163 537.134C658.448 537.293 654.022 537.332 649.772 537.369C644.384 537.416 639.279 537.46 634.223 537.746C610.884 539.063 587.862 541.153 564.718 543.254C548.687 544.709 532.598 546.169 516.304 547.382C484.254 549.767 452.048 551.026 419.965 552.28C412.913 552.556 405.867 552.831 398.83 553.118C359.716 554.714 320.809 556.672 282.251 561.018C233.864 566.473 181.289 572.025 131.608 566.543C130.141 566.381 128.607 566.224 127.025 566.061C118.684 565.206 109.003 564.214 100.684 561.674C99.9876 561.461 99.417 561.175 99.0445 560.97C98.6471 560.752 98.2882 560.521 97.9977 560.325C97.5674 560.034 97.1228 559.705 96.7733 559.443ZM683.513 588.413C683.513 588.412 683.518 588.403 683.529 588.387C683.518 588.405 683.513 588.414 683.513 588.413ZM86.7786 610.003C86.779 610.003 86.7893 610.002 86.8086 610.001C86.7879 610.003 86.7783 610.003 86.7786 610.003Z" fill="#9747FF"/>
<path fill-rule="evenodd" clip-rule="evenodd" d="M469.001 564C472.314 564 475.001 566.686 475.001 570C475.001 572.713 473.819 575.005 471.986 576.569C470.366 577.952 468.503 578.556 467.125 578.847C464.376 579.426 461.452 579.189 459.566 578.804C447.654 576.371 433.553 578.749 420.278 580.987L420.251 580.992C406.453 583.318 392.925 582.451 380.067 581.337C378.492 581.201 376.929 581.061 375.377 580.922C364.049 579.908 353.287 578.945 342.47 579.705C342.473 579.705 342.461 579.707 342.433 579.711C342.27 579.736 341.577 579.841 340.122 580.1C338.608 580.37 336.594 580.746 334.232 581.191C332.827 581.456 331.301 581.745 329.695 582.049C325.926 582.764 321.709 583.563 317.546 584.334C311.614 585.431 305.7 586.487 301.234 587.174C299.023 587.513 297.046 587.782 295.563 587.91C294.862 587.971 294.04 588.023 293.286 587.989C292.965 587.975 292.255 587.933 291.459 587.699C291.072 587.585 290.284 587.32 289.461 586.707C288.57 586.044 287.346 584.727 287.058 582.656C286.602 579.374 288.892 576.344 292.174 575.887C292.907 575.785 293.628 575.82 294.31 575.973C294.374 575.968 294.446 575.962 294.525 575.955C295.598 575.862 297.255 575.644 299.412 575.313C303.683 574.657 309.442 573.629 315.362 572.534C319.499 571.768 323.67 570.978 327.429 570.265C329.043 569.959 330.582 569.668 332.009 569.399C334.372 568.953 336.438 568.568 338.016 568.287C339.401 568.04 340.845 567.79 341.629 567.735C353.474 566.902 365.256 567.962 376.489 568.972C378.038 569.111 379.576 569.25 381.103 569.382C393.914 570.492 406.099 571.209 418.256 569.159C418.616 569.098 418.979 569.037 419.346 568.975C431.858 566.86 447.836 564.161 461.966 567.046C462.278 567.11 462.779 567.176 463.342 567.191C463.466 567.195 463.584 567.195 463.696 567.193C464.703 565.294 466.701 564 469.001 564ZM464.798 567.066C464.798 567.066 464.787 567.07 464.764 567.077C464.785 567.069 464.797 567.065 464.798 567.066ZM298.944 581.004C298.909 580.754 298.859 580.511 298.796 580.274C298.858 580.505 298.908 580.748 298.944 581.004Z" fill="#9747FF"/>
<path fill-rule="evenodd" clip-rule="evenodd" d="M131.065 183.456C131.103 184.243 131.12 185.423 131.12 187.013C131.12 188.058 130.853 189.041 130.383 189.896C130.233 192.504 130.103 195.32 130.04 197.199C132.131 196.83 135.665 195.984 139.229 195.131C140.467 194.834 141.71 194.537 142.896 194.259C145.019 193.76 147.186 193.269 148.484 193.09C148.762 193.052 149.399 192.967 150.091 192.996C150.097 192.996 150.104 192.997 150.112 192.997C150.338 193.005 151.454 193.046 152.656 193.648C153.36 194 154.682 194.84 155.461 196.558C156.31 198.43 156.009 200.196 155.565 201.303C154.916 202.922 153.729 203.798 153.557 203.925C153.55 203.93 153.545 203.934 153.541 203.937C153.172 204.217 152.829 204.416 152.629 204.528C152.204 204.764 151.743 204.977 151.338 205.154C150.102 205.694 148.784 205.784 147.565 205.497C147 205.624 146.356 205.773 145.638 205.941C144.657 206.172 143.565 206.433 142.427 206.706C138.687 207.601 134.443 208.618 131.951 209.047C131.16 209.184 130.461 209.318 129.807 209.444C129.765 209.452 129.723 209.461 129.68 209.469C129.096 209.582 128.478 209.701 127.925 209.791C127.351 209.885 126.589 209.992 125.789 210C125.004 210.007 123.745 209.93 122.407 209.32C119.065 207.794 118.375 204.61 118.185 203.322C117.999 202.064 118 200.504 118 199.156C118 199.091 118 199.025 118 198.961C118 196.911 118.292 190.596 118.574 186.465C118.646 185.416 118.72 184.449 118.794 183.691C118.83 183.318 118.872 182.937 118.921 182.598C118.944 182.432 118.978 182.215 119.025 181.983C119.026 181.979 119.027 181.975 119.028 181.969C119.055 181.835 119.17 181.267 119.444 180.638C119.446 180.634 119.448 180.628 119.451 180.62C119.534 180.426 120.062 179.178 121.37 178.199C122.226 177.559 123.697 176.837 125.589 177.032C127.413 177.22 128.632 178.161 129.254 178.791C130.265 179.815 130.628 180.942 130.694 181.145C130.696 181.153 130.698 181.159 130.7 181.164C130.823 181.54 130.887 181.855 130.916 182.015C131.02 182.575 131.05 183.155 131.065 183.456ZM150.187 204.97C150.186 204.971 150.17 204.973 150.139 204.976C150.173 204.971 150.188 204.97 150.187 204.97ZM130.802 184.281C130.803 184.277 130.803 184.275 130.803 184.275C130.803 184.275 130.803 184.277 130.802 184.281ZM119.069 183.874C119.068 183.865 119.068 183.859 119.068 183.859C119.068 183.859 119.069 183.864 119.069 183.874Z" fill="#1E1E1E"/>
<path fill-rule="evenodd" clip-rule="evenodd" d="M163.293 181.136C167.257 175.341 175.142 172.88 182.983 173.005C188.285 173.089 193.021 174.881 195.803 179.018C198.448 182.95 198.337 187.565 197.371 191.206C196.383 194.933 194.302 198.538 191.646 201.397C189.012 204.231 185.405 206.76 181.13 207.594C177.267 208.348 173.592 208.062 170.382 206.639C167.16 205.211 164.786 202.802 163.315 199.985C162.027 197.516 161.431 194.759 161.486 191.991C161.478 191.964 161.471 191.936 161.464 191.909C160.428 188.036 161.166 184.245 163.293 181.136ZM177.966 195.95C178.234 195.92 178.523 195.877 178.832 195.817C179.914 195.605 181.389 194.806 182.855 193.229C184.297 191.676 185.333 189.785 185.772 188.13C186.234 186.39 185.861 185.737 185.846 185.715C185.836 185.701 185.819 185.678 185.776 185.642C185.731 185.605 185.63 185.532 185.436 185.445C185.037 185.266 184.225 185.026 182.792 185.003C180.845 184.972 179.221 185.163 177.894 185.469C178.071 186.227 178.222 187.167 178.222 188.054C178.222 189.889 177.398 191.532 176.1 192.632C177.102 193.538 177.729 194.711 177.966 195.95Z" fill="#1E1E1E"/>
<path fill-rule="evenodd" clip-rule="evenodd" d="M231.97 183.577C231.967 183.797 231.965 183.986 231.965 184.125C231.965 184.938 231.803 185.713 231.51 186.421C232.323 186.729 233.252 187.179 234.116 187.852C235.418 188.869 237.009 190.791 237 193.62C236.992 196.147 235.682 197.975 234.776 198.974C233.804 200.047 232.59 200.95 231.36 201.727C230.087 202.531 228.558 203.347 226.781 204.187C220.368 207.219 214.08 208.104 208.988 205.339C203.757 202.497 201.998 197.043 202 192.459C202.002 187.824 203.697 182.907 206.782 179.062C209.944 175.12 214.803 172.058 220.983 172.001C224.293 171.971 228.739 172.696 230.908 177.002C231.753 178.68 231.908 180.35 231.956 181.367C231.988 182.05 231.977 182.942 231.97 183.577ZM220.038 185.067C219.99 184.76 219.965 184.445 219.965 184.125C219.965 184.121 219.965 184.117 219.965 184.114C219.114 184.281 218.331 184.63 217.619 185.145C218.4 185.106 219.213 185.079 220.038 185.067ZM227.285 197.653C227.284 197.653 227.273 197.649 227.252 197.64C227.275 197.648 227.285 197.653 227.285 197.653ZM222.038 184.054C222.038 184.054 222.038 184.054 222.036 184.054L222.038 184.054Z" fill="#1E1E1E"/>
<path fill-rule="evenodd" clip-rule="evenodd" d="M254.157 173.076C257.822 173.602 260.72 176.741 260.985 180.562C261.153 182.989 259.853 185.18 257.841 186.263C257.878 187.487 257.911 188.778 257.913 190.074C257.918 193.324 257.739 197 256.799 200.54C255.948 203.743 252.662 205.649 249.46 204.799C246.257 203.949 244.35 200.663 245.2 197.46C245.738 195.437 245.918 192.998 245.913 190.093C245.911 188.659 245.865 187.205 245.817 185.675L245.815 185.604C245.768 184.129 245.719 182.567 245.719 181.049C245.719 179.378 246.12 177.155 247.787 175.336C249.597 173.36 252.065 172.775 254.157 173.076Z" fill="#1E1E1E"/>
<path fill-rule="evenodd" clip-rule="evenodd" d="M314.96 172.501C314.96 172.509 314.96 172.517 314.96 172.525C314.96 175.588 313.274 177.96 312.245 179.218C312.073 179.427 311.896 179.633 311.714 179.837C311.516 181.499 311.401 183.361 311.533 185.011C311.603 185.888 311.728 186.491 311.84 186.875C314.756 187.284 317 189.788 317 192.817C317 196.131 314.314 198.817 311 198.817C306.899 198.817 303.78 196.772 301.919 193.844C301.136 192.612 300.605 191.28 300.244 189.967C300.078 190.158 299.904 190.359 299.722 190.568C299.606 190.701 299.488 190.837 299.367 190.976C298.182 192.34 296.759 193.978 295.313 195.565C293.738 197.291 292.002 199.107 290.387 200.528C289.588 201.231 288.676 201.966 287.723 202.558C286.989 203.014 285.296 204 283.154 204C280.714 204 279.211 202.605 278.68 202.026C278.093 201.386 277.775 200.763 277.642 200.487C277.356 199.891 277.205 199.342 277.139 199.094C276.986 198.508 276.874 197.865 276.793 197.34C276.621 196.228 276.462 194.823 276.327 193.502C276.191 192.173 276.068 190.824 275.972 189.774L275.969 189.736C275.913 189.12 275.873 188.698 275.849 188.434C275.823 188.16 275.813 188.056 275.818 188.084C275.676 187.209 275.278 183.946 275.096 180.953C275.008 179.497 274.949 177.791 275.063 176.385C275.11 175.814 275.226 174.612 275.728 173.429C275.962 172.876 276.612 171.506 278.138 170.503C280.11 169.208 282.361 169.261 284.067 170.004C285.079 170.444 286.216 171.123 287.22 172.047C288.112 172.868 289.637 174.564 289.957 177.118C290.252 179.469 289.144 181.673 287.287 182.888C287.325 183.284 287.364 183.667 287.403 184.028C287.464 184.594 287.522 185.092 287.571 185.479C287.595 185.672 287.616 185.833 287.633 185.957C287.642 186.019 287.649 186.069 287.654 186.107L287.658 186.132C288.581 185.094 289.48 184.06 290.314 183.1C290.432 182.963 290.549 182.829 290.665 182.696L290.738 182.612C291.865 181.315 293.113 179.878 293.941 179.106C294.823 178.282 296.072 177.342 297.095 176.573C297.124 176.551 297.153 176.529 297.181 176.508C297.226 176.474 297.27 176.441 297.314 176.407C298.419 175.576 299.518 174.749 300.542 173.904C300.556 173.838 300.57 173.774 300.583 173.712C300.767 172.875 301.11 172.184 301.205 171.994C301.208 171.987 301.211 171.982 301.213 171.976C301.377 171.646 301.56 171.318 301.736 171.022C302.082 170.439 302.539 169.745 303.043 169.107C303.292 168.791 303.624 168.398 304.019 168.014C304.309 167.732 305.088 166.995 306.251 166.504C306.872 166.241 307.997 165.879 309.413 166.039C311.014 166.22 312.432 167.008 313.425 168.175C314.964 169.981 314.961 172.046 314.96 172.501ZM281.391 192.365C281.256 192.449 281.266 192.424 281.4 192.359C281.397 192.361 281.394 192.363 281.391 192.365ZM287.04 177.214C287.041 177.216 287.038 177.242 287.03 177.29C287.036 177.237 287.04 177.213 287.04 177.214ZM312.493 176.504C312.493 176.504 312.491 176.506 312.488 176.51C312.491 176.506 312.493 176.504 312.493 176.504ZM303.24 171.223C303.243 171.223 303.231 171.247 303.199 171.296C303.222 171.248 303.238 171.224 303.24 171.223Z" fill="#1E1E1E"/>
<path fill-rule="evenodd" clip-rule="evenodd" d="M691.931 189.194C673.284 190.803 648.188 192.432 635.426 192.432C626.42 192.432 581.841 195.008 539.147 197.637C517.881 198.946 497.194 200.261 481.824 201.26C474.138 201.76 467.786 202.18 463.358 202.481C461.142 202.631 459.415 202.751 458.247 202.836C457.659 202.879 457.228 202.911 456.951 202.934C456.893 202.939 456.847 202.943 456.811 202.946C456.546 202.981 456.275 203 456 203C452.686 203 450 200.314 450 197C450.742 194.11 453.385 191.6 454.021 191.335C454.271 191.254 454.657 191.151 454.792 191.122C455.004 191.078 455.176 191.055 455.222 191.048L455.224 191.048C455.352 191.031 455.467 191.019 455.522 191.014C455.654 191.001 455.813 190.987 455.974 190.974C456.306 190.947 456.781 190.911 457.377 190.867C458.575 190.78 460.324 190.659 462.545 190.508C466.99 190.206 473.355 189.785 481.046 189.286C496.429 188.286 517.13 186.97 538.409 185.66C580.804 183.049 625.938 180.432 635.426 180.432C647.629 180.432 672.281 178.845 690.899 177.238C696.664 176.74 701.753 176.249 705.659 175.813C706.748 174.694 708.271 174 709.956 174C711.557 174 712.862 174.025 713.852 174.082C714.337 174.11 714.849 174.151 715.329 174.22C715.567 174.254 715.885 174.307 716.235 174.395C716.494 174.46 717.195 174.644 717.96 175.089C718.397 175.343 721.156 177.02 720.994 180.616C720.856 183.665 718.635 185.166 718.336 185.369L718.319 185.38C717.365 186.03 716.355 186.304 716.112 186.37L716.083 186.378C715.281 186.599 714.264 186.78 713.278 186.933C709.18 187.572 701.23 188.391 691.931 189.194Z" fill="#1E1E1E"/>
<path fill-rule="evenodd" clip-rule="evenodd" d="M549.069 153.437C549.243 154.388 549.347 154.955 549.399 155.175C550.705 160.683 549.85 165.745 547.132 170.074C544.544 174.199 540.543 177.224 536.262 179.514C529.307 183.236 522.573 182.583 517.344 178.85C512.568 175.439 509.687 169.94 508.403 164.852C508.057 163.481 508.014 161.675 508.003 160.559C507.989 159.187 508.029 157.702 508.089 156.502C508.118 155.901 508.154 155.334 508.195 154.862C508.196 154.851 508.197 154.836 508.198 154.82C508.22 154.557 508.288 153.732 508.485 153.021C508.526 152.87 508.616 152.563 508.776 152.196C508.778 152.191 508.78 152.185 508.783 152.179C508.873 151.969 509.331 150.906 510.414 149.989C511.07 149.434 512.273 148.67 513.964 148.577C515.735 148.479 517.131 149.165 518.004 149.85C519.342 150.9 519.83 152.219 519.912 152.441C519.915 152.449 519.918 152.455 519.92 152.46C520.175 153.134 520.254 153.726 520.269 153.845C520.27 153.85 520.271 153.854 520.271 153.858C520.301 154.077 520.317 154.272 520.327 154.405C520.362 154.9 520.372 155.56 520.372 156.296C520.372 157.002 520.25 157.679 520.026 158.308C520.005 159.017 519.995 159.757 520.002 160.436C520.01 161.191 520.039 161.64 520.053 161.846C520.063 162.006 520.064 162.02 520.038 161.916C520.865 165.193 522.541 167.815 524.318 169.084C525.642 170.03 527.459 170.615 530.601 168.934C533.894 167.172 535.91 165.381 536.969 163.695C537.899 162.213 538.322 160.469 537.723 157.942C537.634 157.568 537.528 157.021 537.423 156.459C536.436 155.39 535.834 153.961 535.834 152.391C535.834 151.513 535.853 150.7 535.918 150.026C535.947 149.72 536.007 149.195 536.16 148.623C536.233 148.349 536.391 147.812 536.719 147.205C536.973 146.733 537.808 145.305 539.649 144.503C541.985 143.485 544.153 144.18 545.401 145.003C546.421 145.677 546.977 146.489 547.173 146.789C547.616 147.467 547.847 148.112 547.924 148.331C548.13 148.91 548.285 149.539 548.389 149.99C548.614 150.969 548.84 152.189 549.018 153.156C549.036 153.253 549.053 153.347 549.069 153.437ZM520.18 155.601C520.18 155.602 520.178 155.616 520.175 155.641C520.178 155.613 520.18 155.6 520.18 155.601ZM547.862 151.181C547.863 151.177 547.863 151.174 547.863 151.171C547.866 151.148 547.866 151.153 547.862 151.181Z" fill="#1E1E1E"/>
<path fill-rule="evenodd" clip-rule="evenodd" d="M573.303 142.153C576.02 141.891 579.396 141.875 582.109 142.835C584.469 143.67 586.115 145.111 587.235 146.727C587.831 147.586 588.282 148.535 588.57 149.203C591.178 149.855 593.11 152.214 593.11 155.024C593.11 158.338 590.424 161.024 587.11 161.024C586.913 161.024 586.715 161.019 586.518 161.01C589.44 162.514 592.269 164.08 594.114 165.423C594.681 165.835 595.359 166.371 595.963 167.008L595.971 167.018C596.337 167.404 597.775 168.922 597.977 171.279C598.106 172.781 597.704 174.382 596.665 175.718C595.736 176.911 594.607 177.499 593.889 177.785C592.553 178.317 591.234 178.36 590.511 178.36C588.409 178.36 580.811 178.557 574.272 178.861C571.372 178.996 568.802 179.147 567.055 179.301C565.904 179.912 564.546 180.155 563.164 179.902C562.909 179.855 562.534 179.779 562.126 179.652C562.12 179.65 562.113 179.648 562.104 179.645C561.891 179.581 560.726 179.229 559.669 178.252C559.026 177.658 557.844 176.288 557.727 174.131C557.606 171.907 558.694 170.363 559.383 169.637C560.454 168.509 561.705 168.092 561.899 168.028C561.908 168.025 561.914 168.023 561.918 168.021C563.002 167.646 564.431 167.501 565.182 167.425L565.194 167.423C566.783 167.262 568.999 167.116 571.426 166.988C570.631 166.611 569.854 166.244 569.106 165.891L568.922 165.804C568.781 165.738 568.64 165.671 568.499 165.605C565.63 164.251 562.838 162.933 561.667 162.223C560.021 161.224 558.285 159.856 557.161 157.926C555.867 155.703 555.604 153.07 556.628 150.611C557.507 148.498 559.088 147.109 560.305 146.26C561.596 145.36 563.044 144.676 564.421 144.154C567.181 143.107 570.384 142.434 573.303 142.153ZM590.614 166.356C590.615 166.357 590.59 166.359 590.535 166.36C590.585 166.355 590.612 166.355 590.614 166.356ZM579.464 157.525C578.567 156.383 578.09 155.25 577.853 154.688C577.848 154.675 577.842 154.662 577.837 154.65C577.735 154.408 577.651 154.214 577.583 154.061C577.44 154.045 577.267 154.029 577.06 154.018C576.351 153.98 575.46 154 574.454 154.097C573.877 154.153 573.294 154.23 572.719 154.326C573.143 154.527 573.586 154.736 574.045 154.953L574.281 155.064C575.879 155.819 577.65 156.655 579.464 157.525ZM567.075 156.175C567.074 156.175 567.085 156.164 567.113 156.144C567.089 156.165 567.076 156.175 567.075 156.175Z" fill="#1E1E1E"/>
<path fill-rule="evenodd" clip-rule="evenodd" d="M620.92 149.282C621.035 150.016 621.074 150.741 621.074 151.419C621.074 152.851 620.573 154.166 619.735 155.197C620.206 154.967 620.704 154.747 621.226 154.538C622.193 154.017 623.357 153.358 624.567 152.615C625.793 151.861 626.976 151.076 628.013 150.305C626.701 150.026 625.209 149.778 623.614 149.574C622.717 149.46 621.813 149.362 620.92 149.282ZM632.236 151.627C632.286 151.66 632.273 151.657 632.219 151.616C632.226 151.62 632.232 151.624 632.236 151.627ZM631.089 147.465C631.094 147.455 631.097 147.449 631.098 147.449C631.098 147.449 631.095 147.454 631.089 147.465ZM641.73 153.011C642.5 151.53 643.201 149.39 642.688 146.925C642.089 144.052 640.03 142.394 638.854 141.617C637.526 140.739 636.008 140.118 634.629 139.66C631.826 138.73 628.402 138.089 625.135 137.671C621.82 137.248 618.395 137.02 615.483 137.001C614.029 136.992 612.629 137.034 611.393 137.145C610.301 137.243 608.832 137.433 607.529 137.932C604.86 138.952 603.384 141.06 602.689 142.968C602.048 144.724 601.96 146.53 602.013 147.966C602.12 150.874 602.901 154.16 603.751 157.041C605.1 161.611 606.973 166.278 608.059 168.904C607.176 169.899 606.507 171.288 606.507 172.981C606.507 176.294 609.193 178.981 612.507 178.981C612.975 178.981 613.431 178.927 613.869 178.825C614.178 178.867 614.584 178.928 615.101 179.015C616.278 179.213 617.553 179.454 618.999 179.729C620.294 179.974 621.727 180.246 623.35 180.535C626.541 181.104 630.121 181.672 633.337 181.897C634.946 182.009 636.604 182.047 638.159 181.921C639.619 181.803 641.487 181.507 643.206 180.628C647.166 178.604 649.733 174.629 650.97 171.11C652.15 167.755 652.856 162.614 649.997 158.466C648.009 155.581 645.061 154.036 642.415 153.211C642.188 153.141 641.96 153.074 641.73 153.011ZM613.181 178.751C613.184 178.751 613.186 178.752 613.189 178.752C613.115 178.752 613.107 178.748 613.181 178.751ZM621.253 167.942C621.196 167.726 621.136 167.501 621.073 167.268C621.436 167.272 621.724 167.242 621.892 167.221C622.299 167.17 622.613 167.087 622.737 167.054C623.019 166.977 623.241 166.895 623.325 166.863C623.53 166.786 623.717 166.705 623.838 166.652C624.105 166.534 624.421 166.384 624.756 166.22C625.158 166.023 625.647 165.775 626.201 165.484C628.168 164.789 631.198 164.168 634.287 164.134C636.163 164.114 637.725 164.319 638.843 164.668C639.487 164.868 639.83 165.065 639.995 165.183C639.997 165.216 639.999 165.255 640 165.298C640.007 165.721 639.918 166.366 639.649 167.13C639.384 167.884 639.004 168.583 638.588 169.125C638.267 169.544 638.003 169.768 637.854 169.874C637.75 169.895 637.539 169.932 637.19 169.96C636.454 170.02 635.449 170.015 634.175 169.926C631.625 169.748 628.562 169.275 625.456 168.722C624.172 168.493 622.786 168.231 621.454 167.98C621.387 167.967 621.32 167.955 621.253 167.942ZM639.97 164.997C639.97 164.997 639.971 165 639.973 165.007C639.971 165.001 639.97 164.998 639.97 164.997ZM624.317 166.34C624.308 166.346 624.303 166.349 624.303 166.349C624.303 166.348 624.308 166.346 624.317 166.34Z" fill="#1E1E1E"/>
<path fill-rule="evenodd" clip-rule="evenodd" d="M388.391 210.187C387.735 210.405 387.095 210.616 386.497 210.811C382.044 212.257 377.67 212.365 373.828 212.209C371.983 212.134 370.45 212.02 369.022 211.915C367.082 211.771 365.335 211.642 363.256 211.642C356.141 211.642 349.023 212.449 341.521 213.326L340.884 213.401C333.682 214.244 326.112 215.13 318.429 215.211C317.599 215.22 316.769 215.229 315.938 215.238C299.99 215.403 283.82 215.571 268.399 217.088C259.024 218.009 250.043 217.912 241.402 217.775C240.967 217.768 240.532 217.761 240.099 217.754C231.84 217.621 223.897 217.493 215.71 218.123C207.688 218.739 199.73 219.772 191.592 220.829C189.245 221.133 186.883 221.44 184.501 221.739C173.965 223.062 163.156 224.217 152.193 224.217C140.721 224.217 117.491 226.128 99.9088 228.072C94.6904 228.649 90.0836 229.217 86.4974 229.723C85.3984 231.11 83.6991 232 81.7919 232C80.2607 232 78.9801 231.969 77.9856 231.897C77.4994 231.861 76.9545 231.807 76.4268 231.71C76.1636 231.662 75.8018 231.586 75.4018 231.459C75.081 231.357 74.3223 231.097 73.527 230.519C72.7667 229.967 70.9819 228.352 71.0001 225.543C71.0168 222.976 72.5629 221.456 73.0583 221.014C74.0534 220.125 75.167 219.734 75.437 219.639C75.4478 219.635 75.4573 219.632 75.4653 219.629C76.3209 219.324 77.3681 219.089 78.3065 218.901C82.2424 218.112 89.8115 217.115 98.5901 216.145C116.209 214.197 140.007 212.217 152.193 212.217C162.369 212.217 172.562 211.144 183.006 209.832C185.273 209.548 187.56 209.251 189.861 208.952C198.049 207.889 206.423 206.801 214.79 206.158C223.551 205.484 232.01 205.621 240.15 205.753C240.632 205.761 241.112 205.769 241.592 205.776C250.261 205.913 258.613 205.992 267.225 205.145C283.188 203.576 299.845 203.403 315.657 203.24C316.541 203.231 317.423 203.221 318.302 203.212C325.339 203.137 332.357 202.316 339.744 201.452L340.127 201.407C347.544 200.54 355.336 199.642 363.256 199.642C365.569 199.642 368.295 199.831 370.695 199.997C372.051 200.091 373.303 200.177 374.316 200.219C377.635 200.354 380.34 200.193 382.79 199.398C383.375 199.207 384.094 198.969 384.88 198.707C387.263 197.916 390.265 196.918 392.056 196.445C392.525 196.321 393.523 196.058 394.473 196.009C394.734 195.996 395.34 195.975 396.071 196.118C396.495 196.2 398.785 196.653 400.167 199.003C401.809 201.797 400.613 204.359 400.192 205.095C399.71 205.937 399.134 206.472 398.925 206.662C398.125 207.387 397.061 207.971 396.455 208.302C395.625 208.753 394.528 209.309 393.144 209.98C391.595 210.731 389.882 210.755 388.391 210.187Z" fill="#9747FF"/>
<path fill-rule="evenodd" clip-rule="evenodd" d="M180.668 257.236C178.744 257.534 176.759 257.842 174.736 258.103C170.592 258.637 165.914 258.564 161.743 258.499C160.924 258.486 160.125 258.474 159.354 258.466C154.269 258.416 150.159 258.566 147.015 259.486C143.814 260.423 138.36 260.963 132.823 261.423C130.615 261.607 128.323 261.782 125.985 261.961C122.06 262.261 118.003 262.57 113.992 262.948C107.594 263.551 101.871 264.283 97.8344 265.276C96.2571 265.664 95.19 266.034 94.5315 266.328C93.6223 268.486 91.488 270 89 270C85.6863 270 83 267.314 83 264C83 259.694 86.1745 257.27 87.99 256.212C90.0213 255.027 92.5308 254.223 94.9669 253.624C99.9353 252.401 106.427 251.608 112.866 251.001C116.954 250.616 121.246 250.288 125.265 249.981C127.573 249.804 129.791 249.634 131.828 249.465C137.787 248.969 141.865 248.49 143.645 247.969C148.714 246.486 154.501 246.418 159.471 246.467C160.409 246.476 161.322 246.489 162.209 246.502C166.379 246.562 169.996 246.615 173.201 246.201C174.517 246.032 176.059 245.794 177.725 245.536C182.244 244.839 187.678 244 192 244C195.314 244 198 246.686 198 250C198 253.314 195.314 256 192 256C188.649 256 184.798 256.597 180.668 257.236ZM93.8408 266.704C93.8389 266.703 93.8577 266.688 93.9029 266.659C93.8652 266.689 93.8427 266.704 93.8408 266.704Z" fill="#1E1E1E"/>
</svg>
