<svg width="1200" height="675" viewBox="0 0 1200 675" fill="none" xmlns="http://www.w3.org/2000/svg">
<g clip-path="url(#clip0_654_13070)">
<rect width="1200" height="675" fill="white"/>
<path d="M1054.48 -33.2299C1004.16 -39.0365 947.59 -54.622 898.489 -32.5269C887.362 -27.5195 884.298 -15.3451 878.649 -5.81239C869.68 9.32246 861.918 23.866 855.606 40.5083C849.345 57.0151 843.778 76.649 843.576 94.4059C843.328 116.294 841.769 139.432 843.889 161.27C849.505 219.114 927.308 232.083 972.15 238.133C990.36 240.59 1008.9 239.414 1027.14 237.82C1049.94 235.828 1077.48 233.174 1098.14 222.12C1108.33 216.672 1115.18 206.077 1123.53 198.296C1133.25 189.243 1146.46 177.442 1151.96 165.332C1158.96 149.941 1156.43 126.482 1153.53 109.872C1150.32 91.5211 1143.08 73.0411 1135.25 56.1308C1129.16 42.9859 1119.95 28.8771 1110.72 17.6995C1101.68 6.75501 1089.21 -2.08978 1079.16 -12.1395C1066.96 -24.3438 1051.74 -38.854 1033.39 -38.854" stroke="black" stroke-width="8" stroke-linecap="round"/>
<path d="M908.255 51.1316C907.92 51.1734 906.109 83.2124 906.927 88.938C907.931 95.9663 1007.71 91.9063 1020.74 91.9063C1041.92 91.9063 1062.96 90.5003 1084.01 90.5003C1092.77 90.5003 1096.97 88.3832 1094.94 79.2521C1093.79 74.0756 1092.44 69.7155 1092.44 64.4107C1092.44 59.2813 1092.44 54.1519 1092.44 49.0225C1092.44 40.2479 1073.38 43.2149 1068.39 43.0079C1041.86 41.9086 1015.88 45.5075 989.492 45.5075C972.654 45.5075 955.742 46.0858 939.187 46.9135C929.049 47.4204 917.877 45.1121 908.255 48.3195" stroke="black" stroke-width="8" stroke-linecap="round"/>
<path d="M936.375 70.8159C951.107 66.6067 967.146 69.2343 982.227 67.3009C991.262 66.1425 1000.54 66.5979 1009.64 66.5979C1020.37 66.5979 1031.1 66.5979 1041.83 66.5979" stroke="black" stroke-width="8" stroke-linecap="round"/>
<path d="M1013.71 145.335C1005.42 145.335 991.116 137.764 984.18 143.929C979.624 147.978 974.81 156.489 975.822 163.067C978.672 181.591 998.272 181.892 1013.71 181.892C1020.39 181.892 1025.96 178.712 1028.08 172.362C1029.19 169.034 1030.29 161.981 1027.06 159.395C1023.69 156.7 1021.78 151.382 1017.22 148.85C1012.73 146.354 1010.69 142.523 1005.27 142.523" stroke="black" stroke-width="8" stroke-linecap="round"/>
<path d="M1110.72 145.335C1087.06 134.82 1076.96 158.177 1071.04 176.58C1068.91 183.195 1069.51 190.599 1072.76 196.733C1078.82 208.18 1099.76 198.151 1107.83 195.327C1120.35 190.947 1129 182.74 1129 168.457C1129 160.491 1130.33 155.923 1122.13 151.819C1116.34 148.927 1111.35 148.304 1105.1 146.741" stroke="black" stroke-width="8" stroke-linecap="round"/>
<path d="M1102.29 173.456C1106.6 173.456 1110.49 176.268 1114.94 176.268" stroke="black" stroke-width="8" stroke-linecap="round"/>
<path d="M1003.86 150.959V160.802" stroke="black" stroke-width="8" stroke-linecap="round"/>
<path d="M135.683 369.044C135.683 373.601 133.327 398.591 136.308 399.664C140.517 401.179 147.13 400.076 151.461 400.289C162.314 400.821 173.085 401.382 183.956 401.382C203.237 401.382 221.919 400.255 241.056 397.945C251.434 396.693 262.42 396.599 272.848 397.477C275.141 397.67 294.536 401.132 295.657 397.321C297.534 390.941 295.173 382.839 294.642 376.465C294.306 372.433 296.387 368.871 295.891 364.904C295.461 361.464 252.389 367.048 245.04 367.716C224.892 369.548 204.025 370.6 183.8 370.45C169.266 370.342 154.694 370.45 139.901 370.45" stroke="black" stroke-width="8" stroke-linecap="round"/>
<path d="M139.9 446.375C166.2 446.375 192.817 445.121 219.106 443.876C252.387 442.299 285.166 435.127 318.544 435.127C346.47 435.127 374.752 436.166 402.671 435.049C416.381 434.5 429.936 430.909 443.602 430.909" stroke="black" stroke-width="8" stroke-linecap="round"/>
<path d="M156.773 478.714C199.529 478.714 242.153 485.222 284.878 481.838C306.6 480.118 328.565 478.714 350.336 478.714C384.223 478.714 421.207 481.526 453.445 481.526" stroke="black" stroke-width="8" stroke-linecap="round"/>
<path d="M159.586 522.301C190.466 522.301 222.209 520.895 253.399 520.895C279.877 520.895 306.133 523.34 332.527 523.707C337.548 523.776 341.695 522.728 346.587 522.379C357.815 521.577 368.99 524.405 380.254 523.628C386.445 523.201 392.185 520.895 398.61 520.895" stroke="black" stroke-width="8" stroke-linecap="round"/>
<path d="M155.367 567.293C173.347 567.293 190.876 564.481 208.796 564.481" stroke="black" stroke-width="8" stroke-linecap="round"/>
<path d="M144.198 619.941C140.102 605.606 151.336 603.85 162.398 603.85C163.645 601.356 168.822 602.444 171.616 602.444C176.956 602.444 178.684 602.296 180.364 607.756C183.01 616.356 182.529 621.526 175.599 628.455C164.948 639.106 148.078 633.52 144.198 619.941Z" stroke="black" stroke-width="8" stroke-linecap="round"/>
<path d="M243.947 619.316C249.439 618.767 254.267 616.569 260.038 616.504C275.995 616.325 291.964 616.504 307.921 616.504C328.813 616.504 349.653 617.91 370.49 617.91C385.494 617.91 430.487 616.504 415.482 616.504" stroke="black" stroke-width="8" stroke-linecap="round"/>
<path d="M449.226 603.85C457.435 608.196 484.409 608.837 475.784 612.286C469.899 614.64 463.749 614.886 458.365 618.613C454.45 621.324 450.832 626.28 446.414 627.753" stroke="black" stroke-width="8" stroke-linecap="round"/>
<path d="M409.857 381.698C427.195 379.964 444.204 378.886 461.88 378.886" stroke="black" stroke-width="8" stroke-linecap="round"/>
<path d="M93.5013 671.339C93.5013 625.654 88.7193 580.044 85.8463 534.486C83.5947 498.782 86.3732 463.149 87.9553 427.55C88.8771 406.81 93.5013 386.45 93.5013 365.607C93.5013 351.585 94.9073 338.045 94.9073 324.051C94.9073 316.764 136.741 314.499 142.478 313.584C157.255 311.228 171.773 306.249 186.143 302.258C197.532 299.094 212.851 300.508 224.652 300.227C239.767 299.867 254.915 300.149 270.036 300.149C298.943 300.149 327.583 298.424 356.428 300.227C376.895 301.506 397.129 302.961 417.668 302.961C430.531 302.961 443.393 302.961 456.256 302.961C463.247 302.961 484.507 299.654 490.313 305.46C509.609 324.757 504.98 350.483 502.655 374.902C500.051 402.235 499.691 429.443 498.358 456.764C494.805 529.61 497.03 748.49 497.03 675.557" stroke="black" stroke-width="8" stroke-linecap="round"/>
<path d="M840.503 85.0652C823.9 85.0652 804.744 96.2459 789.48 101.851C770.895 108.676 752.174 116.014 733.139 121.463C708.823 128.423 683.356 131.848 658.515 136.421C643.457 139.193 628.675 141.586 613.475 143.069C587.823 145.571 561.792 143.083 536.027 145.811C494.935 150.162 455.088 163.723 415.283 174.148C394.15 179.683 362.652 183.617 348.055 201.737C333.642 219.629 317.465 233.3 314.068 257.081C313.255 262.767 305.704 291.831 310.993 294.476" stroke="black" stroke-width="8" stroke-linecap="round"/>
<path d="M842 103.015C826.46 103.015 813.257 106.748 800.45 114.981C791 121.056 781.125 125.524 770.202 128.111C752.539 132.294 733.21 130.104 715.523 134.759C699.769 138.904 686.926 143.401 670.732 143.401C658.087 143.401 642.984 144.095 631.093 148.719C616.339 154.457 602.56 155.94 586.968 156.946C570.524 158.007 556.179 160.166 540.099 162.846C525.476 165.284 510.197 164.9 495.807 168.497C481.401 172.099 463.815 172.766 448.939 173.317C444.87 173.468 438.782 176.698 434.812 177.804C426.918 180.004 419.073 181.33 411.212 183.455C392.164 188.603 373.787 189.438 362.682 206.889C358.452 213.536 354.503 220.368 350.632 227.249C347.981 231.961 342.405 237.277 342.405 242.871C342.405 244.19 340.917 250.108 340.162 251.015C338.542 252.959 338.167 258.996 337.835 261.652C337.084 267.662 334.674 274.299 333.348 280.266C332.661 283.354 331.069 294.909 328.943 295.972" stroke="black" stroke-width="8" stroke-linecap="round"/>
<path d="M1037.95 444.055C1027.8 421.23 1009.63 404.807 990.915 388.379C960.749 361.9 923.223 342.049 884.547 331.871C830.352 317.609 772.666 313.364 719.345 332.619C696.722 340.788 677.768 357.438 665.58 378.157C659.594 388.334 651.978 396.582 649.043 408.322C645.268 423.425 644.146 436.981 645.719 452.365C650.618 500.269 684.001 557.473 726.991 580.837C761.139 599.396 801.231 605.59 839.674 608.509C875.685 611.244 911.998 612.705 948.119 611.501C972.943 610.673 997.868 605.892 1014.02 586.156C1027.09 570.18 1036.9 548.199 1040.61 527.82C1044.54 506.218 1043.93 484.595 1043.93 462.753C1043.93 459.168 1043.46 450.989 1041.69 447.795C1040.27 445.238 1038.06 437.378 1036.45 436.576" stroke="black" stroke-width="8" stroke-linecap="round"/>
<path d="M740.286 391.703C740.286 406.16 740.837 421.078 740.286 435.413C740.156 438.78 737.639 449.551 741.781 450.038C764.562 452.719 787.75 454.046 810.754 455.689C858.79 459.12 907.539 460.509 955.68 460.509C962.474 460.509 970.638 463.363 970.638 455.191C970.638 446.749 973.629 438.708 973.629 430.261C973.629 426.377 975.932 415.574 974.793 412.644C974.048 410.729 974.096 406.742 971.801 406.66C964.067 406.384 956.273 406.66 948.533 406.66C898.806 406.66 848.597 408.211 799.452 399.846C787.024 397.731 772.697 396.19 760.063 396.19C756.221 396.19 741.573 393.842 743.277 394.694" stroke="black" stroke-width="8" stroke-linecap="round"/>
<path d="M765.715 426.106C777.044 426.106 788.373 426.106 799.703 426.106C810.529 426.106 823.039 424.52 833.773 426.854C848.367 430.026 863.643 428.332 878.232 430.926C898.846 434.59 921.169 435.081 942.218 435.081" stroke="black" stroke-width="8" stroke-linecap="round"/>
<path d="M839.007 505.383C830.244 504.867 814.529 502.083 809.424 512.862C806.945 518.093 808.369 534.163 812.083 538.29C826.435 554.238 866.882 565.069 876.734 539.454C879.635 531.913 883.892 529.753 879.726 521.836C875.642 514.076 866.016 508.633 858.452 505.05C847.914 500.059 828.094 500.193 818.066 506.879" stroke="black" stroke-width="8" stroke-linecap="round"/>
<path d="M844.992 527.82C844.992 523.225 843.496 519.366 843.496 514.358" stroke="black" stroke-width="8" stroke-linecap="round"/>
<path d="M990.083 550.257C979.335 546.008 962.964 537.964 951.109 542.113C944.472 544.436 931.447 549.67 928.755 557.071C921.351 577.434 936.335 584.66 955.763 584.66C965.056 584.66 993.074 586.369 993.074 571.198C993.074 566.174 987.091 563.094 987.091 557.736C987.091 553.661 982.702 551.949 981.108 548.761" stroke="black" stroke-width="8" stroke-linecap="round"/>
<path d="M954.184 565.214C958.585 565.214 978.94 563.87 981.108 568.206" stroke="black" stroke-width="8" stroke-linecap="round"/>
<path d="M669.984 375.249C663.701 375.249 658.077 371.539 652.034 370.18C633.1 365.919 612.999 366.904 593.865 362.95C574.136 358.874 553.143 355.214 534.199 348.657C524.143 345.176 513.32 331.871 502.455 331.871" stroke="black" stroke-width="8" stroke-linecap="round"/>
<path d="M653.53 394.694C635.283 386.584 609.719 384.224 589.959 384.224C578.257 384.224 563.432 385.386 552.647 380.484C545.1 377.053 535.915 376.266 529.379 370.761C521.656 364.258 511.698 358.929 502.455 354.308" stroke="black" stroke-width="8" stroke-linecap="round"/>
</g>
<defs>
<clipPath id="clip0_654_13070">
<rect width="1200" height="675" fill="white"/>
</clipPath>
</defs>
</svg>
