<svg width="462" height="462" viewBox="0 0 462 462" fill="none" xmlns="http://www.w3.org/2000/svg">
<rect x="1" y="1" width="460" height="460" rx="8" fill="white"/>
<rect x="1" y="1" width="460" height="460" rx="8" stroke="black" stroke-width="2"/>
<path d="M41.288 55.2H43.904L48.92 69.888H48.992L54.032 55.2H56.552L50.408 72H47.408L41.288 55.2ZM62.6221 57.312H57.4861V55.2H70.1101V57.312H64.9741V72H62.6221V57.312ZM72.7398 55.2H77.7078C78.7798 55.2 79.6918 55.304 80.4438 55.512C81.2118 55.704 81.8358 55.992 82.3158 56.376C82.7958 56.744 83.1478 57.2 83.3718 57.744C83.5958 58.272 83.7078 58.864 83.7078 59.52C83.7078 60.432 83.4598 61.216 82.9638 61.872C82.4838 62.528 81.6998 63 80.6118 63.288V63.336C81.8918 63.608 82.8038 64.104 83.3478 64.824C83.9078 65.528 84.1878 66.392 84.1878 67.416C84.1878 68.872 83.7238 70 82.7958 70.8C81.8838 71.6 80.3478 72 78.1878 72H72.7398V55.2ZM78.1878 70.032C79.3878 70.032 80.2598 69.784 80.8038 69.288C81.3638 68.792 81.6438 68.088 81.6438 67.176C81.6438 66.28 81.3638 65.584 80.8038 65.088C80.2598 64.592 79.3878 64.344 78.1878 64.344H75.0918V70.032H78.1878ZM77.7078 62.376C78.9878 62.376 79.8998 62.144 80.4438 61.68C81.0038 61.2 81.2838 60.56 81.2838 59.76C81.2838 58.976 81.0038 58.352 80.4438 57.888C79.8998 57.408 78.9878 57.168 77.7078 57.168H75.0918V62.376H77.7078ZM92.9195 55.2H97.8875C98.9595 55.2 99.8715 55.304 100.624 55.512C101.392 55.704 102.016 55.992 102.496 56.376C102.976 56.744 103.328 57.2 103.552 57.744C103.776 58.272 103.888 58.864 103.888 59.52C103.888 60.432 103.64 61.216 103.144 61.872C102.664 62.528 101.88 63 100.792 63.288V63.336C102.072 63.608 102.984 64.104 103.528 64.824C104.088 65.528 104.368 66.392 104.368 67.416C104.368 68.872 103.904 70 102.976 70.8C102.064 71.6 100.528 72 98.3675 72H92.9195V55.2ZM98.3675 70.032C99.5675 70.032 100.44 69.784 100.984 69.288C101.544 68.792 101.824 68.088 101.824 67.176C101.824 66.28 101.544 65.584 100.984 65.088C100.44 64.592 99.5675 64.344 98.3675 64.344H95.2715V70.032H98.3675ZM97.8875 62.376C99.1675 62.376 100.08 62.144 100.624 61.68C101.184 61.2 101.464 60.56 101.464 59.76C101.464 58.976 101.184 58.352 100.624 57.888C100.08 57.408 99.1675 57.168 97.8875 57.168H95.2715V62.376H97.8875ZM117.984 72H115.728V70.248H115.68C115.216 70.904 114.632 71.392 113.928 71.712C113.24 72.032 112.464 72.192 111.6 72.192C110.16 72.192 109.024 71.768 108.192 70.92C107.36 70.056 106.944 68.736 106.944 66.96V59.76H109.2V66.24C109.2 67.04 109.264 67.704 109.392 68.232C109.536 68.76 109.728 69.184 109.968 69.504C110.224 69.808 110.528 70.032 110.88 70.176C111.248 70.304 111.648 70.368 112.08 70.368C113.184 70.368 114.064 69.976 114.72 69.192C115.392 68.392 115.728 67.168 115.728 65.52V59.76H117.984V72ZM125.072 72.192C124.256 72.192 123.552 72.128 122.96 72C122.384 71.856 121.872 71.696 121.424 71.52V69.528C122.24 69.896 122.944 70.128 123.536 70.224C124.144 70.304 124.584 70.344 124.856 70.344C125.784 70.344 126.456 70.184 126.872 69.864C127.288 69.528 127.496 69.152 127.496 68.736C127.496 68.48 127.424 68.264 127.28 68.088C127.152 67.896 126.976 67.72 126.752 67.56C126.528 67.4 126.264 67.256 125.96 67.128C125.656 66.984 125.336 66.84 125 66.696C124.536 66.488 124.08 66.28 123.632 66.072C123.2 65.848 122.816 65.6 122.48 65.328C122.144 65.04 121.872 64.704 121.664 64.32C121.456 63.936 121.352 63.472 121.352 62.928C121.352 61.92 121.752 61.112 122.552 60.504C123.368 59.88 124.552 59.568 126.104 59.568C126.904 59.568 127.608 59.632 128.216 59.76C128.824 59.888 129.216 59.984 129.392 60.048V61.968C128.928 61.776 128.432 61.64 127.904 61.56C127.392 61.48 126.88 61.44 126.368 61.44C125.456 61.44 124.8 61.568 124.4 61.824C124 62.064 123.8 62.392 123.8 62.808C123.8 63.048 123.864 63.264 123.992 63.456C124.12 63.632 124.288 63.8 124.496 63.96C124.72 64.104 124.976 64.248 125.264 64.392C125.552 64.52 125.856 64.656 126.176 64.8C126.608 64.992 127.048 65.192 127.496 65.4C127.96 65.592 128.376 65.832 128.744 66.12C129.128 66.408 129.432 66.752 129.656 67.152C129.896 67.552 130.016 68.048 130.016 68.64C130.016 69.696 129.584 70.552 128.72 71.208C127.872 71.864 126.656 72.192 125.072 72.192ZM133.375 59.76H135.631V72H133.375V59.76ZM133.255 54.72H135.799V57.264H133.255V54.72ZM139.976 59.76H142.232V61.512H142.28C142.744 60.856 143.32 60.368 144.008 60.048C144.712 59.728 145.496 59.568 146.36 59.568C147.8 59.568 148.936 60 149.768 60.864C150.6 61.712 151.016 63.024 151.016 64.8V72H148.76V65.52C148.76 64.736 148.688 64.08 148.544 63.552C148.416 63.008 148.224 62.584 147.968 62.28C147.728 61.96 147.424 61.736 147.056 61.608C146.704 61.464 146.312 61.392 145.88 61.392C144.776 61.392 143.888 61.792 143.216 62.592C142.56 63.376 142.232 64.592 142.232 66.24V72H139.976V59.76ZM156.137 66.384C156.265 67.648 156.697 68.624 157.433 69.312C158.169 69.984 159.161 70.32 160.409 70.32C161.145 70.32 161.865 70.232 162.569 70.056C163.289 69.864 163.881 69.632 164.345 69.36V71.568C163.961 71.696 163.433 71.832 162.761 71.976C162.089 72.12 161.257 72.192 160.265 72.192C158.185 72.192 156.585 71.616 155.465 70.464C154.361 69.312 153.809 67.712 153.809 65.664C153.809 64.736 153.953 63.896 154.241 63.144C154.545 62.392 154.953 61.752 155.465 61.224C155.993 60.696 156.609 60.288 157.313 60C158.017 59.712 158.777 59.568 159.593 59.568C161.337 59.568 162.705 60.08 163.697 61.104C164.689 62.128 165.185 63.68 165.185 65.76V66.384H156.137ZM159.569 61.392C158.625 61.392 157.849 61.696 157.241 62.304C156.649 62.896 156.281 63.696 156.137 64.704H162.785C162.785 63.648 162.481 62.832 161.873 62.256C161.265 61.68 160.497 61.392 159.569 61.392ZM171.526 72.192C170.71 72.192 170.006 72.128 169.414 72C168.838 71.856 168.326 71.696 167.878 71.52V69.528C168.694 69.896 169.398 70.128 169.99 70.224C170.598 70.304 171.038 70.344 171.31 70.344C172.238 70.344 172.91 70.184 173.326 69.864C173.742 69.528 173.95 69.152 173.95 68.736C173.95 68.48 173.878 68.264 173.734 68.088C173.606 67.896 173.43 67.72 173.206 67.56C172.982 67.4 172.718 67.256 172.414 67.128C172.11 66.984 171.79 66.84 171.454 66.696C170.99 66.488 170.534 66.28 170.086 66.072C169.654 65.848 169.27 65.6 168.934 65.328C168.598 65.04 168.326 64.704 168.118 64.32C167.91 63.936 167.806 63.472 167.806 62.928C167.806 61.92 168.206 61.112 169.006 60.504C169.822 59.88 171.006 59.568 172.558 59.568C173.358 59.568 174.062 59.632 174.67 59.76C175.278 59.888 175.67 59.984 175.846 60.048V61.968C175.382 61.776 174.886 61.64 174.358 61.56C173.846 61.48 173.334 61.44 172.822 61.44C171.91 61.44 171.254 61.568 170.854 61.824C170.454 62.064 170.254 62.392 170.254 62.808C170.254 63.048 170.318 63.264 170.446 63.456C170.574 63.632 170.742 63.8 170.95 63.96C171.174 64.104 171.43 64.248 171.718 64.392C172.006 64.52 172.31 64.656 172.63 64.8C173.062 64.992 173.502 65.192 173.95 65.4C174.414 65.592 174.83 65.832 175.198 66.12C175.582 66.408 175.886 66.752 176.11 67.152C176.35 67.552 176.47 68.048 176.47 68.64C176.47 69.696 176.038 70.552 175.174 71.208C174.326 71.864 173.11 72.192 171.526 72.192ZM182.799 72.192C181.983 72.192 181.279 72.128 180.687 72C180.111 71.856 179.599 71.696 179.151 71.52V69.528C179.967 69.896 180.671 70.128 181.263 70.224C181.871 70.304 182.311 70.344 182.583 70.344C183.511 70.344 184.183 70.184 184.599 69.864C185.015 69.528 185.223 69.152 185.223 68.736C185.223 68.48 185.151 68.264 185.007 68.088C184.879 67.896 184.703 67.72 184.479 67.56C184.255 67.4 183.991 67.256 183.687 67.128C183.383 66.984 183.063 66.84 182.727 66.696C182.263 66.488 181.807 66.28 181.359 66.072C180.927 65.848 180.543 65.6 180.207 65.328C179.871 65.04 179.599 64.704 179.391 64.32C179.183 63.936 179.079 63.472 179.079 62.928C179.079 61.92 179.479 61.112 180.279 60.504C181.095 59.88 182.279 59.568 183.831 59.568C184.631 59.568 185.335 59.632 185.943 59.76C186.551 59.888 186.943 59.984 187.119 60.048V61.968C186.655 61.776 186.159 61.64 185.631 61.56C185.119 61.48 184.607 61.44 184.095 61.44C183.183 61.44 182.527 61.568 182.127 61.824C181.727 62.064 181.527 62.392 181.527 62.808C181.527 63.048 181.591 63.264 181.719 63.456C181.847 63.632 182.015 63.8 182.223 63.96C182.447 64.104 182.703 64.248 182.991 64.392C183.279 64.52 183.583 64.656 183.903 64.8C184.335 64.992 184.775 65.192 185.223 65.4C185.687 65.592 186.103 65.832 186.471 66.12C186.855 66.408 187.159 66.752 187.383 67.152C187.623 67.552 187.743 68.048 187.743 68.64C187.743 69.696 187.311 70.552 186.447 71.208C185.599 71.864 184.383 72.192 182.799 72.192Z" fill="#22242A"/>
<rect x="41.5" y="109.5" width="379" height="55" rx="3.5" fill="white"/>
<rect x="41.5" y="109.5" width="379" height="55" rx="3.5" stroke="#B1B5BB"/>
<path d="M58.302 119.2H59.674V127.768H64.056V129H58.302V119.2ZM68.4084 129.112C67.867 129.112 67.3724 129.023 66.9244 128.846C66.4764 128.669 66.089 128.417 65.7624 128.09C65.445 127.763 65.1977 127.376 65.0204 126.928C64.843 126.48 64.7544 125.981 64.7544 125.43C64.7544 124.889 64.843 124.394 65.0204 123.946C65.1977 123.489 65.445 123.097 65.7624 122.77C66.089 122.443 66.4764 122.191 66.9244 122.014C67.3724 121.837 67.867 121.748 68.4084 121.748C68.9497 121.748 69.4444 121.837 69.8924 122.014C70.3404 122.191 70.723 122.443 71.0404 122.77C71.367 123.097 71.619 123.489 71.7964 123.946C71.9737 124.394 72.0624 124.889 72.0624 125.43C72.0624 125.981 71.9737 126.48 71.7964 126.928C71.619 127.376 71.367 127.763 71.0404 128.09C70.723 128.417 70.3404 128.669 69.8924 128.846C69.4444 129.023 68.9497 129.112 68.4084 129.112ZM68.4084 128.048C68.7164 128.048 69.0057 127.987 69.2764 127.866C69.5564 127.745 69.7944 127.572 69.9904 127.348C70.1957 127.115 70.359 126.839 70.4804 126.522C70.6017 126.195 70.6624 125.831 70.6624 125.43C70.6624 125.029 70.6017 124.669 70.4804 124.352C70.359 124.025 70.1957 123.75 69.9904 123.526C69.785 123.293 69.547 123.115 69.2764 122.994C69.0057 122.873 68.7164 122.812 68.4084 122.812C68.1004 122.812 67.8064 122.873 67.5264 122.994C67.2557 123.115 67.0177 123.293 66.8124 123.526C66.6164 123.75 66.4577 124.025 66.3364 124.352C66.215 124.669 66.1544 125.029 66.1544 125.43C66.1544 125.831 66.215 126.195 66.3364 126.522C66.4577 126.839 66.6164 127.115 66.8124 127.348C67.0177 127.572 67.2557 127.745 67.5264 127.866C67.8064 127.987 68.1004 128.048 68.4084 128.048ZM76.614 132.192C76.2407 132.192 75.8953 132.169 75.578 132.122C75.2607 132.075 74.9807 132.019 74.738 131.954C74.458 131.889 74.2013 131.809 73.968 131.716V130.456C74.2013 130.577 74.458 130.689 74.738 130.792C74.9807 130.876 75.2607 130.951 75.578 131.016C75.8953 131.091 76.2407 131.128 76.614 131.128C78.266 131.128 79.092 130.297 79.092 128.636V127.894H79.05C78.8167 128.239 78.49 128.51 78.07 128.706C77.6593 128.902 77.2067 129 76.712 129C76.2453 129 75.8113 128.916 75.41 128.748C75.018 128.58 74.6727 128.342 74.374 128.034C74.0847 127.717 73.856 127.339 73.688 126.9C73.52 126.452 73.436 125.948 73.436 125.388C73.436 124.809 73.5247 124.296 73.702 123.848C73.8793 123.391 74.1173 123.008 74.416 122.7C74.724 122.392 75.0833 122.159 75.494 122C75.9047 121.832 76.3433 121.748 76.81 121.748C77.3513 121.748 77.8087 121.86 78.182 122.084C78.5553 122.308 78.8727 122.574 79.134 122.882H79.176V121.86H80.408V128.636C80.408 129.831 80.1 130.722 79.484 131.31C78.8773 131.898 77.9207 132.192 76.614 132.192ZM76.992 127.936C77.2813 127.936 77.552 127.88 77.804 127.768C78.0653 127.656 78.2893 127.493 78.476 127.278C78.6627 127.054 78.8073 126.788 78.91 126.48C79.022 126.163 79.078 125.799 79.078 125.388C79.078 124.968 79.022 124.599 78.91 124.282C78.798 123.955 78.644 123.685 78.448 123.47C78.252 123.246 78.0233 123.083 77.762 122.98C77.5007 122.868 77.216 122.812 76.908 122.812C76.6187 122.812 76.348 122.863 76.096 122.966C75.844 123.069 75.6247 123.227 75.438 123.442C75.2513 123.647 75.102 123.909 74.99 124.226C74.8873 124.534 74.836 124.893 74.836 125.304C74.836 125.715 74.892 126.083 75.004 126.41C75.1253 126.727 75.284 127.003 75.48 127.236C75.676 127.46 75.9047 127.633 76.166 127.754C76.4273 127.875 76.7027 127.936 76.992 127.936ZM82.9404 121.86H84.2564V129H82.9404V121.86ZM82.8704 118.92H84.3544V120.404H82.8704V118.92ZM86.7909 121.86H88.1069V122.882H88.1349C88.4056 122.499 88.7416 122.215 89.1429 122.028C89.5536 121.841 90.0109 121.748 90.5149 121.748C91.3549 121.748 92.0176 122 92.5029 122.504C92.9882 122.999 93.2309 123.764 93.2309 124.8V129H91.9149V125.22C91.9149 124.763 91.8729 124.38 91.7889 124.072C91.7142 123.755 91.6022 123.507 91.4529 123.33C91.3129 123.143 91.1356 123.013 90.9209 122.938C90.7156 122.854 90.4869 122.812 90.2349 122.812C89.5909 122.812 89.0729 123.045 88.6809 123.512C88.2982 123.969 88.1069 124.679 88.1069 125.64V129H86.7909V121.86Z" fill="#7B7E86"/>
<path d="M58.488 140.8H61.032L63.912 146.96L66.808 140.8H69.272V152H67.704V142.336H67.656L64.52 148.8H63.24L60.104 142.336H60.056V152H58.488V140.8ZM74.0334 152.128C73.18 152.128 72.5027 151.915 72.0014 151.488C71.5 151.051 71.2494 150.448 71.2494 149.68C71.2494 148.784 71.5907 148.101 72.2734 147.632C72.9667 147.152 74.028 146.912 75.4574 146.912H76.9614V146.64C76.9614 146.053 76.7587 145.627 76.3534 145.36C75.948 145.093 75.4094 144.96 74.7374 144.96C74.3 144.96 73.8574 145.013 73.4094 145.12C72.9614 145.216 72.492 145.397 72.0014 145.664V144.256C72.4067 144.075 72.8707 143.941 73.3934 143.856C73.916 143.76 74.428 143.712 74.9294 143.712C76.0494 143.712 76.9187 143.968 77.5374 144.48C78.156 144.981 78.4654 145.797 78.4654 146.928V152H76.9294V150.752H76.8974C76.556 151.253 76.1187 151.611 75.5854 151.824C75.0627 152.027 74.5454 152.128 74.0334 152.128ZM74.4014 150.848C74.7747 150.848 75.116 150.789 75.4254 150.672C75.7454 150.555 76.0174 150.395 76.2414 150.192C76.4654 149.979 76.6414 149.733 76.7694 149.456C76.8974 149.179 76.9614 148.885 76.9614 148.576V148.064H75.5214C75.02 148.064 74.5987 148.101 74.2574 148.176C73.9267 148.251 73.6547 148.357 73.4414 148.496C73.228 148.635 73.0734 148.795 72.9774 148.976C72.892 149.157 72.8494 149.36 72.8494 149.584C72.8494 149.989 72.988 150.304 73.2654 150.528C73.5427 150.741 73.9214 150.848 74.4014 150.848ZM80.8593 139.84H82.3633V147.648L86.3153 143.84H88.1873L84.5553 147.232L88.2353 152H86.3953L83.4993 148.16L82.3633 149.232V152H80.8593V139.84ZM91.8303 152.128C90.9769 152.128 90.2996 151.915 89.7983 151.488C89.2969 151.051 89.0463 150.448 89.0463 149.68C89.0463 148.784 89.3876 148.101 90.0703 147.632C90.7636 147.152 91.8249 146.912 93.2543 146.912H94.7583V146.64C94.7583 146.053 94.5556 145.627 94.1503 145.36C93.7449 145.093 93.2063 144.96 92.5343 144.96C92.0969 144.96 91.6543 145.013 91.2063 145.12C90.7583 145.216 90.2889 145.397 89.7983 145.664V144.256C90.2036 144.075 90.6676 143.941 91.1903 143.856C91.7129 143.76 92.2249 143.712 92.7263 143.712C93.8463 143.712 94.7156 143.968 95.3343 144.48C95.9529 144.981 96.2623 145.797 96.2623 146.928V152H94.7263V150.752H94.6943C94.3529 151.253 93.9156 151.611 93.3823 151.824C92.8596 152.027 92.3423 152.128 91.8303 152.128ZM92.1983 150.848C92.5716 150.848 92.9129 150.789 93.2223 150.672C93.5423 150.555 93.8143 150.395 94.0383 150.192C94.2623 149.979 94.4383 149.733 94.5663 149.456C94.6943 149.179 94.7583 148.885 94.7583 148.576V148.064H93.3183C92.8169 148.064 92.3956 148.101 92.0543 148.176C91.7236 148.251 91.4516 148.357 91.2383 148.496C91.0249 148.635 90.8703 148.795 90.7743 148.976C90.6889 149.157 90.6463 149.36 90.6463 149.584C90.6463 149.989 90.7849 150.304 91.0623 150.528C91.3396 150.741 91.7183 150.848 92.1983 150.848ZM98.6561 143.84H100.064V145.168H100.096C100.363 144.645 100.683 144.272 101.056 144.048C101.44 143.824 101.899 143.712 102.432 143.712C102.581 143.712 102.731 143.723 102.88 143.744C103.04 143.755 103.205 143.771 103.376 143.792V145.104C103.216 145.083 103.061 145.067 102.912 145.056C102.763 145.035 102.619 145.024 102.48 145.024C101.659 145.024 101.067 145.307 100.704 145.872C100.341 146.437 100.16 147.264 100.16 148.352V152H98.6561V143.84ZM109.589 147.728C109.461 147.749 109.327 147.76 109.189 147.76C109.061 147.76 108.927 147.76 108.789 147.76H106.869V152H105.301V140.8H108.789C110.154 140.8 111.162 141.104 111.812 141.712C112.463 142.32 112.789 143.189 112.789 144.32C112.789 145.067 112.639 145.685 112.341 146.176C112.053 146.667 111.647 147.045 111.125 147.312L113.525 152H111.589L109.589 147.728ZM108.789 146.432C109.589 146.432 110.17 146.256 110.533 145.904C110.906 145.552 111.093 145.024 111.093 144.32C111.093 143.616 110.906 143.088 110.533 142.736C110.17 142.384 109.589 142.208 108.789 142.208H106.869V146.432H108.789ZM113.688 140.8H115.448L118.12 150.4H118.152L120.536 140.8H122.808L125.224 150.4H125.256L127.928 140.8H129.624L126.184 152H124.12L121.688 142.208H121.656L119.208 152H117.064L113.688 140.8ZM130.36 150.4C130.702 150.123 131.032 149.856 131.352 149.6C131.672 149.333 132.003 149.061 132.344 148.784C132.974 148.283 133.523 147.829 133.992 147.424C134.472 147.008 134.867 146.619 135.176 146.256C135.496 145.883 135.736 145.525 135.896 145.184C136.056 144.832 136.136 144.464 136.136 144.08C136.136 143.387 135.918 142.88 135.48 142.56C135.054 142.24 134.478 142.08 133.752 142.08C133.134 142.08 132.579 142.16 132.088 142.32C131.598 142.469 131.155 142.651 130.76 142.864V141.328C131.379 141.072 131.96 140.901 132.504 140.816C133.059 140.72 133.56 140.672 134.008 140.672C134.499 140.672 134.963 140.736 135.4 140.864C135.848 140.992 136.238 141.184 136.568 141.44C136.91 141.696 137.176 142.021 137.368 142.416C137.571 142.811 137.672 143.28 137.672 143.824C137.672 144.421 137.55 144.976 137.304 145.488C137.07 145.989 136.728 146.485 136.28 146.976C135.843 147.456 135.31 147.952 134.68 148.464C134.051 148.965 133.347 149.52 132.568 150.128L131.992 150.576V150.592H137.832V152H130.36V150.4Z" fill="#22242A"/>
<rect x="41.5" y="189.5" width="379" height="55" rx="3.5" fill="white"/>
<rect x="41.5" y="189.5" width="379" height="55" rx="3.5" stroke="#B1B5BB"/>
<path d="M58.302 199.2H61.438C62.6513 199.2 63.5473 199.471 64.126 200.012C64.7047 200.544 64.994 201.305 64.994 202.294C64.994 203.283 64.7047 204.049 64.126 204.59C63.5473 205.122 62.6513 205.388 61.438 205.388H59.674V209H58.302V199.2ZM61.438 204.156C62.1567 204.156 62.684 204.002 63.02 203.694C63.3653 203.377 63.538 202.91 63.538 202.294C63.538 201.678 63.3653 201.216 63.02 200.908C62.684 200.591 62.1567 200.432 61.438 200.432H59.674V204.156H61.438ZM68.1855 209.112C67.4388 209.112 66.8461 208.925 66.4075 208.552C65.9688 208.169 65.7495 207.642 65.7495 206.97C65.7495 206.186 66.0481 205.589 66.6455 205.178C67.2521 204.758 68.1808 204.548 69.4315 204.548H70.7475V204.31C70.7475 203.797 70.5701 203.423 70.2155 203.19C69.8608 202.957 69.3895 202.84 68.8015 202.84C68.4188 202.84 68.0315 202.887 67.6395 202.98C67.2475 203.064 66.8368 203.223 66.4075 203.456V202.224C66.7621 202.065 67.1681 201.949 67.6255 201.874C68.0828 201.79 68.5308 201.748 68.9695 201.748C69.9495 201.748 70.7101 201.972 71.2515 202.42C71.7928 202.859 72.0635 203.573 72.0635 204.562V209H70.7195V207.908H70.6915C70.3928 208.347 70.0101 208.659 69.5435 208.846C69.0861 209.023 68.6335 209.112 68.1855 209.112ZM68.5075 207.992C68.8341 207.992 69.1328 207.941 69.4035 207.838C69.6835 207.735 69.9215 207.595 70.1175 207.418C70.3135 207.231 70.4675 207.017 70.5795 206.774C70.6915 206.531 70.7475 206.275 70.7475 206.004V205.556H69.4875C69.0488 205.556 68.6801 205.589 68.3815 205.654C68.0921 205.719 67.8541 205.813 67.6675 205.934C67.4808 206.055 67.3455 206.195 67.2615 206.354C67.1868 206.513 67.1495 206.69 67.1495 206.886C67.1495 207.241 67.2708 207.516 67.5135 207.712C67.7561 207.899 68.0875 207.992 68.5075 207.992ZM75.9641 209.112C75.4881 209.112 75.0774 209.075 74.7321 209C74.3961 208.916 74.0974 208.823 73.8361 208.72V207.558C74.3121 207.773 74.7228 207.908 75.0681 207.964C75.4228 208.011 75.6794 208.034 75.8381 208.034C76.3794 208.034 76.7714 207.941 77.0141 207.754C77.2568 207.558 77.3781 207.339 77.3781 207.096C77.3781 206.947 77.3361 206.821 77.2521 206.718C77.1774 206.606 77.0748 206.503 76.9441 206.41C76.8134 206.317 76.6594 206.233 76.4821 206.158C76.3048 206.074 76.1181 205.99 75.9221 205.906C75.6514 205.785 75.3854 205.663 75.1241 205.542C74.8721 205.411 74.6481 205.267 74.4521 205.108C74.2561 204.94 74.0974 204.744 73.9761 204.52C73.8548 204.296 73.7941 204.025 73.7941 203.708C73.7941 203.12 74.0274 202.649 74.4941 202.294C74.9701 201.93 75.6608 201.748 76.5661 201.748C77.0328 201.748 77.4434 201.785 77.7981 201.86C78.1528 201.935 78.3814 201.991 78.4841 202.028V203.148C78.2134 203.036 77.9241 202.957 77.6161 202.91C77.3174 202.863 77.0188 202.84 76.7201 202.84C76.1881 202.84 75.8054 202.915 75.5721 203.064C75.3388 203.204 75.2221 203.395 75.2221 203.638C75.2221 203.778 75.2594 203.904 75.3341 204.016C75.4088 204.119 75.5068 204.217 75.6281 204.31C75.7588 204.394 75.9081 204.478 76.0761 204.562C76.2441 204.637 76.4214 204.716 76.6081 204.8C76.8601 204.912 77.1168 205.029 77.3781 205.15C77.6488 205.262 77.8914 205.402 78.1061 205.57C78.3301 205.738 78.5074 205.939 78.6381 206.172C78.7781 206.405 78.8481 206.695 78.8481 207.04C78.8481 207.656 78.5961 208.155 78.0921 208.538C77.5974 208.921 76.8881 209.112 75.9641 209.112ZM82.5403 209.112C82.0643 209.112 81.6536 209.075 81.3083 209C80.9723 208.916 80.6736 208.823 80.4123 208.72V207.558C80.8883 207.773 81.2989 207.908 81.6443 207.964C81.9989 208.011 82.2556 208.034 82.4143 208.034C82.9556 208.034 83.3476 207.941 83.5903 207.754C83.8329 207.558 83.9543 207.339 83.9543 207.096C83.9543 206.947 83.9123 206.821 83.8283 206.718C83.7536 206.606 83.6509 206.503 83.5203 206.41C83.3896 206.317 83.2356 206.233 83.0583 206.158C82.8809 206.074 82.6943 205.99 82.4983 205.906C82.2276 205.785 81.9616 205.663 81.7003 205.542C81.4483 205.411 81.2243 205.267 81.0283 205.108C80.8323 204.94 80.6736 204.744 80.5523 204.52C80.4309 204.296 80.3703 204.025 80.3703 203.708C80.3703 203.12 80.6036 202.649 81.0703 202.294C81.5463 201.93 82.2369 201.748 83.1423 201.748C83.6089 201.748 84.0196 201.785 84.3743 201.86C84.7289 201.935 84.9576 201.991 85.0603 202.028V203.148C84.7896 203.036 84.5003 202.957 84.1923 202.91C83.8936 202.863 83.5949 202.84 83.2963 202.84C82.7643 202.84 82.3816 202.915 82.1483 203.064C81.9149 203.204 81.7983 203.395 81.7983 203.638C81.7983 203.778 81.8356 203.904 81.9103 204.016C81.9849 204.119 82.0829 204.217 82.2043 204.31C82.3349 204.394 82.4843 204.478 82.6523 204.562C82.8203 204.637 82.9976 204.716 83.1843 204.8C83.4363 204.912 83.6929 205.029 83.9543 205.15C84.2249 205.262 84.4676 205.402 84.6823 205.57C84.9063 205.738 85.0836 205.939 85.2143 206.172C85.3543 206.405 85.4243 206.695 85.4243 207.04C85.4243 207.656 85.1723 208.155 84.6683 208.538C84.1736 208.921 83.4643 209.112 82.5403 209.112ZM86.3041 201.86H87.7461L89.3421 207.544L91.1761 201.86H92.2961L94.1161 207.572L95.8381 201.86H97.1261L94.8161 209H93.4301L91.6661 203.596L89.9861 209H88.6001L86.3041 201.86ZM101.549 209.112C101.008 209.112 100.513 209.023 100.065 208.846C99.617 208.669 99.2297 208.417 98.903 208.09C98.5857 207.763 98.3383 207.376 98.161 206.928C97.9837 206.48 97.895 205.981 97.895 205.43C97.895 204.889 97.9837 204.394 98.161 203.946C98.3383 203.489 98.5857 203.097 98.903 202.77C99.2297 202.443 99.617 202.191 100.065 202.014C100.513 201.837 101.008 201.748 101.549 201.748C102.09 201.748 102.585 201.837 103.033 202.014C103.481 202.191 103.864 202.443 104.181 202.77C104.508 203.097 104.76 203.489 104.937 203.946C105.114 204.394 105.203 204.889 105.203 205.43C105.203 205.981 105.114 206.48 104.937 206.928C104.76 207.376 104.508 207.763 104.181 208.09C103.864 208.417 103.481 208.669 103.033 208.846C102.585 209.023 102.09 209.112 101.549 209.112ZM101.549 208.048C101.857 208.048 102.146 207.987 102.417 207.866C102.697 207.745 102.935 207.572 103.131 207.348C103.336 207.115 103.5 206.839 103.621 206.522C103.742 206.195 103.803 205.831 103.803 205.43C103.803 205.029 103.742 204.669 103.621 204.352C103.5 204.025 103.336 203.75 103.131 203.526C102.926 203.293 102.688 203.115 102.417 202.994C102.146 202.873 101.857 202.812 101.549 202.812C101.241 202.812 100.947 202.873 100.667 202.994C100.396 203.115 100.158 203.293 99.953 203.526C99.757 203.75 99.5983 204.025 99.477 204.352C99.3557 204.669 99.295 205.029 99.295 205.43C99.295 205.831 99.3557 206.195 99.477 206.522C99.5983 206.839 99.757 207.115 99.953 207.348C100.158 207.572 100.396 207.745 100.667 207.866C100.947 207.987 101.241 208.048 101.549 208.048ZM107.053 201.86H108.285V203.022H108.313C108.546 202.565 108.826 202.238 109.153 202.042C109.489 201.846 109.89 201.748 110.357 201.748C110.487 201.748 110.618 201.757 110.749 201.776C110.889 201.785 111.033 201.799 111.183 201.818V202.966C111.043 202.947 110.907 202.933 110.777 202.924C110.646 202.905 110.52 202.896 110.399 202.896C109.68 202.896 109.162 203.143 108.845 203.638C108.527 204.133 108.369 204.856 108.369 205.808V209H107.053V201.86ZM115.432 209.112C114.928 209.112 114.47 209.019 114.06 208.832C113.649 208.645 113.299 208.384 113.01 208.048C112.72 207.712 112.496 207.315 112.338 206.858C112.188 206.391 112.114 205.887 112.114 205.346C112.114 204.833 112.193 204.357 112.352 203.918C112.51 203.479 112.734 203.101 113.024 202.784C113.313 202.457 113.658 202.205 114.06 202.028C114.47 201.841 114.918 201.748 115.404 201.748C115.945 201.748 116.402 201.851 116.776 202.056C117.158 202.261 117.48 202.513 117.742 202.812H117.77V198.36H119.086V209H117.826V207.992H117.742C117.471 208.337 117.149 208.613 116.776 208.818C116.412 209.014 115.964 209.112 115.432 209.112ZM115.656 208.048C115.964 208.048 116.248 207.983 116.51 207.852C116.771 207.721 116.995 207.544 117.182 207.32C117.368 207.087 117.513 206.811 117.616 206.494C117.718 206.177 117.77 205.827 117.77 205.444C117.77 205.061 117.714 204.711 117.602 204.394C117.499 204.067 117.354 203.787 117.168 203.554C116.981 203.321 116.757 203.139 116.496 203.008C116.234 202.877 115.945 202.812 115.628 202.812C115.329 202.812 115.049 202.877 114.788 203.008C114.526 203.139 114.302 203.321 114.116 203.554C113.929 203.778 113.78 204.049 113.668 204.366C113.565 204.683 113.514 205.029 113.514 205.402C113.514 205.785 113.565 206.139 113.668 206.466C113.78 206.783 113.929 207.063 114.116 207.306C114.312 207.539 114.54 207.721 114.802 207.852C115.063 207.983 115.348 208.048 115.656 208.048Z" fill="#7B7E86"/>
<path d="M61 229.088C60.6267 229.088 60.2747 229.019 59.944 228.88C59.624 228.741 59.3413 228.555 59.096 228.32C58.8613 228.075 58.6747 227.787 58.536 227.456C58.3973 227.125 58.328 226.773 58.328 226.4C58.328 226.027 58.3973 225.68 58.536 225.36C58.6747 225.029 58.8613 224.747 59.096 224.512C59.3413 224.267 59.624 224.075 59.944 223.936C60.2747 223.797 60.6267 223.728 61 223.728C61.3733 223.728 61.72 223.797 62.04 223.936C62.3707 224.075 62.6533 224.267 62.888 224.512C63.1333 224.747 63.3253 225.029 63.464 225.36C63.6027 225.68 63.672 226.027 63.672 226.4C63.672 226.773 63.6027 227.125 63.464 227.456C63.3253 227.787 63.1333 228.075 62.888 228.32C62.6533 228.555 62.3707 228.741 62.04 228.88C61.72 229.019 61.3733 229.088 61 229.088ZM72.6875 229.088C72.3142 229.088 71.9622 229.019 71.6315 228.88C71.3115 228.741 71.0288 228.555 70.7835 228.32C70.5488 228.075 70.3622 227.787 70.2235 227.456C70.0848 227.125 70.0155 226.773 70.0155 226.4C70.0155 226.027 70.0848 225.68 70.2235 225.36C70.3622 225.029 70.5488 224.747 70.7835 224.512C71.0288 224.267 71.3115 224.075 71.6315 223.936C71.9622 223.797 72.3142 223.728 72.6875 223.728C73.0608 223.728 73.4075 223.797 73.7275 223.936C74.0582 224.075 74.3408 224.267 74.5755 224.512C74.8208 224.747 75.0128 225.029 75.1515 225.36C75.2902 225.68 75.3595 226.027 75.3595 226.4C75.3595 226.773 75.2902 227.125 75.1515 227.456C75.0128 227.787 74.8208 228.075 74.5755 228.32C74.3408 228.555 74.0582 228.741 73.7275 228.88C73.4075 229.019 73.0608 229.088 72.6875 229.088ZM84.375 229.088C84.0017 229.088 83.6497 229.019 83.319 228.88C82.999 228.741 82.7163 228.555 82.471 228.32C82.2363 228.075 82.0497 227.787 81.911 227.456C81.7723 227.125 81.703 226.773 81.703 226.4C81.703 226.027 81.7723 225.68 81.911 225.36C82.0497 225.029 82.2363 224.747 82.471 224.512C82.7163 224.267 82.999 224.075 83.319 223.936C83.6497 223.797 84.0017 223.728 84.375 223.728C84.7483 223.728 85.095 223.797 85.415 223.936C85.7457 224.075 86.0283 224.267 86.263 224.512C86.5083 224.747 86.7003 225.029 86.839 225.36C86.9777 225.68 87.047 226.027 87.047 226.4C87.047 226.773 86.9777 227.125 86.839 227.456C86.7003 227.787 86.5083 228.075 86.263 228.32C86.0283 228.555 85.7457 228.741 85.415 228.88C85.095 229.019 84.7483 229.088 84.375 229.088ZM96.0625 229.088C95.6892 229.088 95.3372 229.019 95.0065 228.88C94.6865 228.741 94.4038 228.555 94.1585 228.32C93.9238 228.075 93.7372 227.787 93.5985 227.456C93.4598 227.125 93.3905 226.773 93.3905 226.4C93.3905 226.027 93.4598 225.68 93.5985 225.36C93.7372 225.029 93.9238 224.747 94.1585 224.512C94.4038 224.267 94.6865 224.075 95.0065 223.936C95.3372 223.797 95.6892 223.728 96.0625 223.728C96.4358 223.728 96.7825 223.797 97.1025 223.936C97.4332 224.075 97.7158 224.267 97.9505 224.512C98.1958 224.747 98.3878 225.029 98.5265 225.36C98.6652 225.68 98.7345 226.027 98.7345 226.4C98.7345 226.773 98.6652 227.125 98.5265 227.456C98.3878 227.787 98.1958 228.075 97.9505 228.32C97.7158 228.555 97.4332 228.741 97.1025 228.88C96.7825 229.019 96.4358 229.088 96.0625 229.088ZM107.75 229.088C107.377 229.088 107.025 229.019 106.694 228.88C106.374 228.741 106.091 228.555 105.846 228.32C105.611 228.075 105.425 227.787 105.286 227.456C105.147 227.125 105.078 226.773 105.078 226.4C105.078 226.027 105.147 225.68 105.286 225.36C105.425 225.029 105.611 224.747 105.846 224.512C106.091 224.267 106.374 224.075 106.694 223.936C107.025 223.797 107.377 223.728 107.75 223.728C108.123 223.728 108.47 223.797 108.79 223.936C109.121 224.075 109.403 224.267 109.638 224.512C109.883 224.747 110.075 225.029 110.214 225.36C110.353 225.68 110.422 226.027 110.422 226.4C110.422 226.773 110.353 227.125 110.214 227.456C110.075 227.787 109.883 228.075 109.638 228.32C109.403 228.555 109.121 228.741 108.79 228.88C108.47 229.019 108.123 229.088 107.75 229.088ZM119.438 229.088C119.064 229.088 118.712 229.019 118.382 228.88C118.062 228.741 117.779 228.555 117.534 228.32C117.299 228.075 117.112 227.787 116.974 227.456C116.835 227.125 116.766 226.773 116.766 226.4C116.766 226.027 116.835 225.68 116.974 225.36C117.112 225.029 117.299 224.747 117.534 224.512C117.779 224.267 118.062 224.075 118.382 223.936C118.712 223.797 119.064 223.728 119.438 223.728C119.811 223.728 120.158 223.797 120.478 223.936C120.808 224.075 121.091 224.267 121.326 224.512C121.571 224.747 121.763 225.029 121.902 225.36C122.04 225.68 122.11 226.027 122.11 226.4C122.11 226.773 122.04 227.125 121.902 227.456C121.763 227.787 121.571 228.075 121.326 228.32C121.091 228.555 120.808 228.741 120.478 228.88C120.158 229.019 119.811 229.088 119.438 229.088ZM131.125 229.088C130.752 229.088 130.4 229.019 130.069 228.88C129.749 228.741 129.466 228.555 129.221 228.32C128.986 228.075 128.8 227.787 128.661 227.456C128.522 227.125 128.453 226.773 128.453 226.4C128.453 226.027 128.522 225.68 128.661 225.36C128.8 225.029 128.986 224.747 129.221 224.512C129.466 224.267 129.749 224.075 130.069 223.936C130.4 223.797 130.752 223.728 131.125 223.728C131.498 223.728 131.845 223.797 132.165 223.936C132.496 224.075 132.778 224.267 133.013 224.512C133.258 224.747 133.45 225.029 133.589 225.36C133.728 225.68 133.797 226.027 133.797 226.4C133.797 226.773 133.728 227.125 133.589 227.456C133.45 227.787 133.258 228.075 133.013 228.32C132.778 228.555 132.496 228.741 132.165 228.88C131.845 229.019 131.498 229.088 131.125 229.088ZM142.812 229.088C142.439 229.088 142.087 229.019 141.757 228.88C141.437 228.741 141.154 228.555 140.909 228.32C140.674 228.075 140.487 227.787 140.349 227.456C140.21 227.125 140.141 226.773 140.141 226.4C140.141 226.027 140.21 225.68 140.349 225.36C140.487 225.029 140.674 224.747 140.909 224.512C141.154 224.267 141.437 224.075 141.757 223.936C142.087 223.797 142.439 223.728 142.812 223.728C143.186 223.728 143.533 223.797 143.853 223.936C144.183 224.075 144.466 224.267 144.701 224.512C144.946 224.747 145.138 225.029 145.277 225.36C145.415 225.68 145.485 226.027 145.485 226.4C145.485 226.773 145.415 227.125 145.277 227.456C145.138 227.787 144.946 228.075 144.701 228.32C144.466 228.555 144.183 228.741 143.853 228.88C143.533 229.019 143.186 229.088 142.812 229.088ZM154.5 229.088C154.127 229.088 153.775 229.019 153.444 228.88C153.124 228.741 152.841 228.555 152.596 228.32C152.361 228.075 152.175 227.787 152.036 227.456C151.897 227.125 151.828 226.773 151.828 226.4C151.828 226.027 151.897 225.68 152.036 225.36C152.175 225.029 152.361 224.747 152.596 224.512C152.841 224.267 153.124 224.075 153.444 223.936C153.775 223.797 154.127 223.728 154.5 223.728C154.873 223.728 155.22 223.797 155.54 223.936C155.871 224.075 156.153 224.267 156.388 224.512C156.633 224.747 156.825 225.029 156.964 225.36C157.103 225.68 157.172 226.027 157.172 226.4C157.172 226.773 157.103 227.125 156.964 227.456C156.825 227.787 156.633 228.075 156.388 228.32C156.153 228.555 155.871 228.741 155.54 228.88C155.22 229.019 154.873 229.088 154.5 229.088ZM166.188 229.088C165.814 229.088 165.462 229.019 165.132 228.88C164.812 228.741 164.529 228.555 164.284 228.32C164.049 228.075 163.862 227.787 163.724 227.456C163.585 227.125 163.516 226.773 163.516 226.4C163.516 226.027 163.585 225.68 163.724 225.36C163.862 225.029 164.049 224.747 164.284 224.512C164.529 224.267 164.812 224.075 165.132 223.936C165.462 223.797 165.814 223.728 166.188 223.728C166.561 223.728 166.908 223.797 167.228 223.936C167.558 224.075 167.841 224.267 168.076 224.512C168.321 224.747 168.513 225.029 168.652 225.36C168.79 225.68 168.86 226.027 168.86 226.4C168.86 226.773 168.79 227.125 168.652 227.456C168.513 227.787 168.321 228.075 168.076 228.32C167.841 228.555 167.558 228.741 167.228 228.88C166.908 229.019 166.561 229.088 166.188 229.088ZM177.875 229.088C177.502 229.088 177.15 229.019 176.819 228.88C176.499 228.741 176.216 228.555 175.971 228.32C175.736 228.075 175.55 227.787 175.411 227.456C175.272 227.125 175.203 226.773 175.203 226.4C175.203 226.027 175.272 225.68 175.411 225.36C175.55 225.029 175.736 224.747 175.971 224.512C176.216 224.267 176.499 224.075 176.819 223.936C177.15 223.797 177.502 223.728 177.875 223.728C178.248 223.728 178.595 223.797 178.915 223.936C179.246 224.075 179.528 224.267 179.763 224.512C180.008 224.747 180.2 225.029 180.339 225.36C180.478 225.68 180.547 226.027 180.547 226.4C180.547 226.773 180.478 227.125 180.339 227.456C180.2 227.787 180.008 228.075 179.763 228.32C179.528 228.555 179.246 228.741 178.915 228.88C178.595 229.019 178.248 229.088 177.875 229.088ZM189.562 229.088C189.189 229.088 188.837 229.019 188.507 228.88C188.187 228.741 187.904 228.555 187.659 228.32C187.424 228.075 187.237 227.787 187.099 227.456C186.96 227.125 186.891 226.773 186.891 226.4C186.891 226.027 186.96 225.68 187.099 225.36C187.237 225.029 187.424 224.747 187.659 224.512C187.904 224.267 188.187 224.075 188.507 223.936C188.837 223.797 189.189 223.728 189.562 223.728C189.936 223.728 190.283 223.797 190.603 223.936C190.933 224.075 191.216 224.267 191.451 224.512C191.696 224.747 191.888 225.029 192.027 225.36C192.165 225.68 192.235 226.027 192.235 226.4C192.235 226.773 192.165 227.125 192.027 227.456C191.888 227.787 191.696 228.075 191.451 228.32C191.216 228.555 190.933 228.741 190.603 228.88C190.283 229.019 189.936 229.088 189.562 229.088ZM201.25 229.088C200.877 229.088 200.525 229.019 200.194 228.88C199.874 228.741 199.591 228.555 199.346 228.32C199.111 228.075 198.925 227.787 198.786 227.456C198.647 227.125 198.578 226.773 198.578 226.4C198.578 226.027 198.647 225.68 198.786 225.36C198.925 225.029 199.111 224.747 199.346 224.512C199.591 224.267 199.874 224.075 200.194 223.936C200.525 223.797 200.877 223.728 201.25 223.728C201.623 223.728 201.97 223.797 202.29 223.936C202.621 224.075 202.903 224.267 203.138 224.512C203.383 224.747 203.575 225.029 203.714 225.36C203.853 225.68 203.922 226.027 203.922 226.4C203.922 226.773 203.853 227.125 203.714 227.456C203.575 227.787 203.383 228.075 203.138 228.32C202.903 228.555 202.621 228.741 202.29 228.88C201.97 229.019 201.623 229.088 201.25 229.088ZM212.938 229.088C212.564 229.088 212.212 229.019 211.882 228.88C211.562 228.741 211.279 228.555 211.034 228.32C210.799 228.075 210.612 227.787 210.474 227.456C210.335 227.125 210.266 226.773 210.266 226.4C210.266 226.027 210.335 225.68 210.474 225.36C210.612 225.029 210.799 224.747 211.034 224.512C211.279 224.267 211.562 224.075 211.882 223.936C212.212 223.797 212.564 223.728 212.938 223.728C213.311 223.728 213.658 223.797 213.978 223.936C214.308 224.075 214.591 224.267 214.826 224.512C215.071 224.747 215.263 225.029 215.402 225.36C215.54 225.68 215.61 226.027 215.61 226.4C215.61 226.773 215.54 227.125 215.402 227.456C215.263 227.787 215.071 228.075 214.826 228.32C214.591 228.555 214.308 228.741 213.978 228.88C213.658 229.019 213.311 229.088 212.938 229.088ZM224.625 229.088C224.252 229.088 223.9 229.019 223.569 228.88C223.249 228.741 222.966 228.555 222.721 228.32C222.486 228.075 222.3 227.787 222.161 227.456C222.022 227.125 221.953 226.773 221.953 226.4C221.953 226.027 222.022 225.68 222.161 225.36C222.3 225.029 222.486 224.747 222.721 224.512C222.966 224.267 223.249 224.075 223.569 223.936C223.9 223.797 224.252 223.728 224.625 223.728C224.998 223.728 225.345 223.797 225.665 223.936C225.996 224.075 226.278 224.267 226.513 224.512C226.758 224.747 226.95 225.029 227.089 225.36C227.228 225.68 227.297 226.027 227.297 226.4C227.297 226.773 227.228 227.125 227.089 227.456C226.95 227.787 226.758 228.075 226.513 228.32C226.278 228.555 225.996 228.741 225.665 228.88C225.345 229.019 224.998 229.088 224.625 229.088ZM236.312 229.088C235.939 229.088 235.587 229.019 235.257 228.88C234.937 228.741 234.654 228.555 234.409 228.32C234.174 228.075 233.987 227.787 233.849 227.456C233.71 227.125 233.641 226.773 233.641 226.4C233.641 226.027 233.71 225.68 233.849 225.36C233.987 225.029 234.174 224.747 234.409 224.512C234.654 224.267 234.937 224.075 235.257 223.936C235.587 223.797 235.939 223.728 236.312 223.728C236.686 223.728 237.033 223.797 237.353 223.936C237.683 224.075 237.966 224.267 238.201 224.512C238.446 224.747 238.638 225.029 238.777 225.36C238.915 225.68 238.985 226.027 238.985 226.4C238.985 226.773 238.915 227.125 238.777 227.456C238.638 227.787 238.446 228.075 238.201 228.32C237.966 228.555 237.683 228.741 237.353 228.88C237.033 229.019 236.686 229.088 236.312 229.088ZM248 229.088C247.627 229.088 247.275 229.019 246.944 228.88C246.624 228.741 246.341 228.555 246.096 228.32C245.861 228.075 245.675 227.787 245.536 227.456C245.397 227.125 245.328 226.773 245.328 226.4C245.328 226.027 245.397 225.68 245.536 225.36C245.675 225.029 245.861 224.747 246.096 224.512C246.341 224.267 246.624 224.075 246.944 223.936C247.275 223.797 247.627 223.728 248 223.728C248.373 223.728 248.72 223.797 249.04 223.936C249.371 224.075 249.653 224.267 249.888 224.512C250.133 224.747 250.325 225.029 250.464 225.36C250.603 225.68 250.672 226.027 250.672 226.4C250.672 226.773 250.603 227.125 250.464 227.456C250.325 227.787 250.133 228.075 249.888 228.32C249.653 228.555 249.371 228.741 249.04 228.88C248.72 229.019 248.373 229.088 248 229.088ZM259.688 229.088C259.314 229.088 258.962 229.019 258.632 228.88C258.312 228.741 258.029 228.555 257.784 228.32C257.549 228.075 257.362 227.787 257.224 227.456C257.085 227.125 257.016 226.773 257.016 226.4C257.016 226.027 257.085 225.68 257.224 225.36C257.362 225.029 257.549 224.747 257.784 224.512C258.029 224.267 258.312 224.075 258.632 223.936C258.962 223.797 259.314 223.728 259.688 223.728C260.061 223.728 260.408 223.797 260.728 223.936C261.058 224.075 261.341 224.267 261.576 224.512C261.821 224.747 262.013 225.029 262.152 225.36C262.29 225.68 262.36 226.027 262.36 226.4C262.36 226.773 262.29 227.125 262.152 227.456C262.013 227.787 261.821 228.075 261.576 228.32C261.341 228.555 261.058 228.741 260.728 228.88C260.408 229.019 260.061 229.088 259.688 229.088Z" fill="#22242A"/>
<path d="M392.305 214.081C392.681 213.992 392.999 214.313 392.999 214.7V215.7C392.999 216.418 393.581 217 394.299 217H395.299C395.686 217 396.007 217.318 395.918 217.694C395.605 219.016 394.417 220 392.999 220C391.342 220 389.999 218.657 389.999 217C389.999 215.582 390.983 214.394 392.305 214.081Z" fill="#7B7E86"/>
<path fill-rule="evenodd" clip-rule="evenodd" d="M392.999 210C388.118 210 384.865 213.655 383.436 215.683C382.873 216.481 382.873 217.519 383.436 218.317C384.865 220.345 388.118 224 392.999 224C397.88 224 401.133 220.345 402.562 218.317C403.125 217.519 403.125 216.481 402.562 215.683C401.133 213.655 397.88 210 392.999 210ZM386.708 213.927C385.761 214.778 385.02 215.691 384.498 216.431C384.252 216.781 384.252 217.219 384.498 217.569C385.02 218.309 385.761 219.222 386.708 220.073C386.254 219.145 385.999 218.102 385.999 217C385.999 215.898 386.254 214.855 386.708 213.927ZM392.999 222.7C389.851 222.7 387.299 220.148 387.299 217C387.299 213.852 389.851 211.3 392.999 211.3C396.147 211.3 398.699 213.852 398.699 217C398.699 220.148 396.147 222.7 392.999 222.7ZM399.29 213.927C400.237 214.778 400.978 215.691 401.5 216.431C401.746 216.781 401.746 217.219 401.5 217.569C400.978 218.309 400.237 219.222 399.29 220.073C399.744 219.145 399.999 218.102 399.999 217C399.999 215.898 399.744 214.855 399.29 213.927Z" fill="#7B7E86"/>
<path d="M44.234 273.432H41.238V272.2H48.602V273.432H45.606V282H44.234V273.432ZM52.5451 282.112C52.0037 282.112 51.5091 282.023 51.0611 281.846C50.6131 281.669 50.2257 281.417 49.8991 281.09C49.5817 280.763 49.3344 280.376 49.1571 279.928C48.9797 279.48 48.8911 278.981 48.8911 278.43C48.8911 277.889 48.9797 277.394 49.1571 276.946C49.3344 276.489 49.5817 276.097 49.8991 275.77C50.2257 275.443 50.6131 275.191 51.0611 275.014C51.5091 274.837 52.0037 274.748 52.5451 274.748C53.0864 274.748 53.5811 274.837 54.0291 275.014C54.4771 275.191 54.8597 275.443 55.1771 275.77C55.5037 276.097 55.7557 276.489 55.9331 276.946C56.1104 277.394 56.1991 277.889 56.1991 278.43C56.1991 278.981 56.1104 279.48 55.9331 279.928C55.7557 280.376 55.5037 280.763 55.1771 281.09C54.8597 281.417 54.4771 281.669 54.0291 281.846C53.5811 282.023 53.0864 282.112 52.5451 282.112ZM52.5451 281.048C52.8531 281.048 53.1424 280.987 53.4131 280.866C53.6931 280.745 53.9311 280.572 54.1271 280.348C54.3324 280.115 54.4957 279.839 54.6171 279.522C54.7384 279.195 54.7991 278.831 54.7991 278.43C54.7991 278.029 54.7384 277.669 54.6171 277.352C54.4957 277.025 54.3324 276.75 54.1271 276.526C53.9217 276.293 53.6837 276.115 53.4131 275.994C53.1424 275.873 52.8531 275.812 52.5451 275.812C52.2371 275.812 51.9431 275.873 51.6631 275.994C51.3924 276.115 51.1544 276.293 50.9491 276.526C50.7531 276.75 50.5944 277.025 50.4731 277.352C50.3517 277.669 50.2911 278.029 50.2911 278.43C50.2911 278.831 50.3517 279.195 50.4731 279.522C50.5944 279.839 50.7531 280.115 50.9491 280.348C51.1544 280.572 51.3924 280.745 51.6631 280.866C51.9431 280.987 52.2371 281.048 52.5451 281.048ZM58.0487 271.36H59.3647V278.192L62.8227 274.86H64.4607L61.2827 277.828L64.5027 282H62.8927L60.3587 278.64L59.3647 279.578V282H58.0487V271.36ZM66.5596 278.724C66.6343 279.461 66.8863 280.031 67.3156 280.432C67.745 280.824 68.3236 281.02 69.0516 281.02C69.481 281.02 69.901 280.969 70.3116 280.866C70.7316 280.754 71.077 280.619 71.3476 280.46V281.748C71.1236 281.823 70.8156 281.902 70.4236 281.986C70.0316 282.07 69.5463 282.112 68.9676 282.112C67.7543 282.112 66.821 281.776 66.1676 281.104C65.5236 280.432 65.2016 279.499 65.2016 278.304C65.2016 277.763 65.2856 277.273 65.4536 276.834C65.631 276.395 65.869 276.022 66.1676 275.714C66.4756 275.406 66.835 275.168 67.2456 275C67.6563 274.832 68.0996 274.748 68.5756 274.748C69.593 274.748 70.391 275.047 70.9696 275.644C71.5483 276.241 71.8376 277.147 71.8376 278.36V278.724H66.5596ZM68.5616 275.812C68.011 275.812 67.5583 275.989 67.2036 276.344C66.8583 276.689 66.6436 277.156 66.5596 277.744H70.4376C70.4376 277.128 70.2603 276.652 69.9056 276.316C69.551 275.98 69.103 275.812 68.5616 275.812ZM73.7304 274.86H75.0464V275.882H75.0744C75.345 275.499 75.681 275.215 76.0824 275.028C76.493 274.841 76.9504 274.748 77.4544 274.748C78.2944 274.748 78.957 275 79.4424 275.504C79.9277 275.999 80.1704 276.764 80.1704 277.8V282H78.8544V278.22C78.8544 277.763 78.8124 277.38 78.7284 277.072C78.6537 276.755 78.5417 276.507 78.3924 276.33C78.2524 276.143 78.075 276.013 77.8604 275.938C77.655 275.854 77.4264 275.812 77.1744 275.812C76.5304 275.812 76.0124 276.045 75.6204 276.512C75.2377 276.969 75.0464 277.679 75.0464 278.64V282H73.7304V274.86Z" fill="#22242A"/>
<rect x="90" y="269" width="28" height="16" rx="8" fill="#7B7E86"/>
<circle cx="98" cy="277" r="6" fill="white"/>
<rect x="41" y="337" width="380" height="56" rx="4" fill="#0062FF"/>
<path d="M208.568 371.16C208.227 371.16 207.821 371.128 207.352 371.064C206.893 371.011 206.392 370.893 205.848 370.712V368.856C206.051 368.941 206.269 369.016 206.504 369.08C206.739 369.144 206.973 369.203 207.208 369.256C207.453 369.299 207.688 369.336 207.912 369.368C208.147 369.389 208.36 369.4 208.552 369.4C209.224 369.4 209.736 369.267 210.088 369C210.44 368.723 210.616 368.365 210.616 367.928C210.616 367.693 210.557 367.485 210.44 367.304C210.333 367.123 210.184 366.963 209.992 366.824C209.8 366.675 209.576 366.541 209.32 366.424C209.075 366.296 208.819 366.168 208.552 366.04C208.211 365.88 207.875 365.709 207.544 365.528C207.213 365.347 206.909 365.133 206.632 364.888C206.365 364.632 206.147 364.339 205.976 364.008C205.816 363.667 205.736 363.261 205.736 362.792C205.736 361.789 206.083 361.016 206.776 360.472C207.48 359.917 208.456 359.64 209.704 359.64C210.205 359.64 210.675 359.683 211.112 359.768C211.549 359.843 211.912 359.933 212.2 360.04V361.784C211.795 361.635 211.368 361.533 210.92 361.48C210.472 361.427 210.093 361.4 209.784 361.4C209.123 361.4 208.637 361.501 208.328 361.704C208.029 361.907 207.88 362.189 207.88 362.552C207.88 362.776 207.928 362.979 208.024 363.16C208.131 363.331 208.269 363.485 208.44 363.624C208.621 363.763 208.829 363.891 209.064 364.008C209.299 364.125 209.544 364.248 209.8 364.376C210.141 364.536 210.488 364.707 210.84 364.888C211.192 365.069 211.507 365.288 211.784 365.544C212.072 365.8 212.307 366.109 212.488 366.472C212.669 366.835 212.76 367.272 212.76 367.784C212.76 368.851 212.392 369.683 211.656 370.28C210.931 370.867 209.901 371.16 208.568 371.16ZM214.828 362.76H216.796V371H214.828V362.76ZM214.78 359.384H216.86V361.224H214.78V359.384ZM222.589 374.616C222.194 374.616 221.826 374.595 221.485 374.552C221.144 374.509 220.84 374.456 220.573 374.392C220.306 374.339 220.082 374.28 219.901 374.216C219.72 374.163 219.592 374.125 219.517 374.104V372.408C219.592 372.44 219.72 372.488 219.901 372.552C220.093 372.627 220.317 372.696 220.573 372.76C220.84 372.835 221.138 372.899 221.469 372.952C221.8 373.016 222.141 373.048 222.493 373.048C223.378 373.048 224.034 372.835 224.461 372.408C224.888 371.981 225.101 371.315 225.101 370.408V369.8H225.037C224.76 370.173 224.392 370.467 223.933 370.68C223.485 370.893 223 371 222.477 371C221.933 371 221.437 370.899 220.989 370.696C220.541 370.483 220.157 370.195 219.837 369.832C219.517 369.459 219.266 369.016 219.085 368.504C218.914 367.992 218.829 367.432 218.829 366.824C218.829 366.184 218.92 365.608 219.101 365.096C219.293 364.573 219.549 364.131 219.869 363.768C220.2 363.395 220.594 363.112 221.053 362.92C221.512 362.717 222.013 362.616 222.557 362.616C223.165 362.616 223.672 362.744 224.077 363C224.493 363.256 224.84 363.56 225.117 363.912H225.165V362.76H227.005V370.408C227.005 371.859 226.648 372.92 225.933 373.592C225.218 374.275 224.104 374.616 222.589 374.616ZM222.973 369.48C223.272 369.48 223.544 369.421 223.789 369.304C224.045 369.176 224.264 369 224.445 368.776C224.637 368.552 224.786 368.275 224.893 367.944C225 367.613 225.053 367.24 225.053 366.824C225.053 366.397 225 366.019 224.893 365.688C224.786 365.357 224.637 365.08 224.445 364.856C224.253 364.632 224.024 364.461 223.757 364.344C223.501 364.227 223.224 364.168 222.925 364.168C222.338 364.168 221.848 364.387 221.453 364.824C221.069 365.261 220.877 365.901 220.877 366.744C220.877 367.16 220.93 367.539 221.037 367.88C221.144 368.221 221.293 368.509 221.485 368.744C221.677 368.979 221.901 369.16 222.157 369.288C222.413 369.416 222.685 369.48 222.973 369.48ZM229.403 362.76H231.291V364.008H231.323C231.622 363.581 231.995 363.245 232.443 363C232.902 362.744 233.43 362.616 234.027 362.616C234.966 362.616 235.691 362.915 236.203 363.512C236.726 364.099 236.987 364.963 236.987 366.104V371H235.019V366.68C235.019 365.795 234.875 365.171 234.587 364.808C234.31 364.445 233.915 364.264 233.403 364.264C232.774 364.264 232.278 364.509 231.915 365C231.552 365.48 231.371 366.205 231.371 367.176V371H229.403V362.76ZM243 362.76H244.968V371H243V362.76ZM242.952 359.384H245.032V361.224H242.952V359.384ZM247.497 362.76H249.385V364.008H249.417C249.716 363.581 250.089 363.245 250.537 363C250.996 362.744 251.524 362.616 252.121 362.616C253.06 362.616 253.785 362.915 254.297 363.512C254.82 364.099 255.081 364.963 255.081 366.104V371H253.113V366.68C253.113 365.795 252.969 365.171 252.681 364.808C252.404 364.445 252.009 364.264 251.497 364.264C250.868 364.264 250.372 364.509 250.009 365C249.646 365.48 249.465 366.205 249.465 367.176V371H247.497V362.76Z" fill="white"/>
<path d="M172.802 422.2H178.29V423.432H174.174V426.302H178.122V427.534H174.174V432H172.802V422.2ZM183.113 432.112C182.572 432.112 182.077 432.023 181.629 431.846C181.181 431.669 180.794 431.417 180.467 431.09C180.15 430.763 179.903 430.376 179.725 429.928C179.548 429.48 179.459 428.981 179.459 428.43C179.459 427.889 179.548 427.394 179.725 426.946C179.903 426.489 180.15 426.097 180.467 425.77C180.794 425.443 181.181 425.191 181.629 425.014C182.077 424.837 182.572 424.748 183.113 424.748C183.655 424.748 184.149 424.837 184.597 425.014C185.045 425.191 185.428 425.443 185.745 425.77C186.072 426.097 186.324 426.489 186.501 426.946C186.679 427.394 186.767 427.889 186.767 428.43C186.767 428.981 186.679 429.48 186.501 429.928C186.324 430.376 186.072 430.763 185.745 431.09C185.428 431.417 185.045 431.669 184.597 431.846C184.149 432.023 183.655 432.112 183.113 432.112ZM183.113 431.048C183.421 431.048 183.711 430.987 183.981 430.866C184.261 430.745 184.499 430.572 184.695 430.348C184.901 430.115 185.064 429.839 185.185 429.522C185.307 429.195 185.367 428.831 185.367 428.43C185.367 428.029 185.307 427.669 185.185 427.352C185.064 427.025 184.901 426.75 184.695 426.526C184.49 426.293 184.252 426.115 183.981 425.994C183.711 425.873 183.421 425.812 183.113 425.812C182.805 425.812 182.511 425.873 182.231 425.994C181.961 426.115 181.723 426.293 181.517 426.526C181.321 426.75 181.163 427.025 181.041 427.352C180.92 427.669 180.859 428.029 180.859 428.43C180.859 428.831 180.92 429.195 181.041 429.522C181.163 429.839 181.321 430.115 181.517 430.348C181.723 430.572 181.961 430.745 182.231 430.866C182.511 430.987 182.805 431.048 183.113 431.048ZM188.617 424.86H189.849V426.022H189.877C190.11 425.565 190.39 425.238 190.717 425.042C191.053 424.846 191.454 424.748 191.921 424.748C192.052 424.748 192.182 424.757 192.313 424.776C192.453 424.785 192.598 424.799 192.747 424.818V425.966C192.607 425.947 192.472 425.933 192.341 425.924C192.21 425.905 192.084 425.896 191.963 425.896C191.244 425.896 190.726 426.143 190.409 426.638C190.092 427.133 189.933 427.856 189.933 428.808V432H188.617V424.86ZM196.856 435.192C196.483 435.192 196.138 435.169 195.82 435.122C195.503 435.075 195.223 435.019 194.98 434.954C194.7 434.889 194.444 434.809 194.21 434.716V433.456C194.444 433.577 194.7 433.689 194.98 433.792C195.223 433.876 195.503 433.951 195.82 434.016C196.138 434.091 196.483 434.128 196.856 434.128C198.508 434.128 199.334 433.297 199.334 431.636V430.894H199.292C199.059 431.239 198.732 431.51 198.312 431.706C197.902 431.902 197.449 432 196.954 432C196.488 432 196.054 431.916 195.652 431.748C195.26 431.58 194.915 431.342 194.616 431.034C194.327 430.717 194.098 430.339 193.93 429.9C193.762 429.452 193.678 428.948 193.678 428.388C193.678 427.809 193.767 427.296 193.944 426.848C194.122 426.391 194.36 426.008 194.658 425.7C194.966 425.392 195.326 425.159 195.736 425C196.147 424.832 196.586 424.748 197.052 424.748C197.594 424.748 198.051 424.86 198.424 425.084C198.798 425.308 199.115 425.574 199.376 425.882H199.418V424.86H200.65V431.636C200.65 432.831 200.342 433.722 199.726 434.31C199.12 434.898 198.163 435.192 196.856 435.192ZM197.234 430.936C197.524 430.936 197.794 430.88 198.046 430.768C198.308 430.656 198.532 430.493 198.718 430.278C198.905 430.054 199.05 429.788 199.152 429.48C199.264 429.163 199.32 428.799 199.32 428.388C199.32 427.968 199.264 427.599 199.152 427.282C199.04 426.955 198.886 426.685 198.69 426.47C198.494 426.246 198.266 426.083 198.004 425.98C197.743 425.868 197.458 425.812 197.15 425.812C196.861 425.812 196.59 425.863 196.338 425.966C196.086 426.069 195.867 426.227 195.68 426.442C195.494 426.647 195.344 426.909 195.232 427.226C195.13 427.534 195.078 427.893 195.078 428.304C195.078 428.715 195.134 429.083 195.246 429.41C195.368 429.727 195.526 430.003 195.722 430.236C195.918 430.46 196.147 430.633 196.408 430.754C196.67 430.875 196.945 430.936 197.234 430.936ZM206.151 432.112C205.609 432.112 205.115 432.023 204.667 431.846C204.219 431.669 203.831 431.417 203.505 431.09C203.187 430.763 202.94 430.376 202.763 429.928C202.585 429.48 202.497 428.981 202.497 428.43C202.497 427.889 202.585 427.394 202.763 426.946C202.94 426.489 203.187 426.097 203.505 425.77C203.831 425.443 204.219 425.191 204.667 425.014C205.115 424.837 205.609 424.748 206.151 424.748C206.692 424.748 207.187 424.837 207.635 425.014C208.083 425.191 208.465 425.443 208.783 425.77C209.109 426.097 209.361 426.489 209.539 426.946C209.716 427.394 209.805 427.889 209.805 428.43C209.805 428.981 209.716 429.48 209.539 429.928C209.361 430.376 209.109 430.763 208.783 431.09C208.465 431.417 208.083 431.669 207.635 431.846C207.187 432.023 206.692 432.112 206.151 432.112ZM206.151 431.048C206.459 431.048 206.748 430.987 207.019 430.866C207.299 430.745 207.537 430.572 207.733 430.348C207.938 430.115 208.101 429.839 208.223 429.522C208.344 429.195 208.405 428.831 208.405 428.43C208.405 428.029 208.344 427.669 208.223 427.352C208.101 427.025 207.938 426.75 207.733 426.526C207.527 426.293 207.289 426.115 207.019 425.994C206.748 425.873 206.459 425.812 206.151 425.812C205.843 425.812 205.549 425.873 205.269 425.994C204.998 426.115 204.76 426.293 204.555 426.526C204.359 426.75 204.2 427.025 204.079 427.352C203.957 427.669 203.897 428.029 203.897 428.43C203.897 428.831 203.957 429.195 204.079 429.522C204.2 429.839 204.359 430.115 204.555 430.348C204.76 430.572 204.998 430.745 205.269 430.866C205.549 430.987 205.843 431.048 206.151 431.048ZM215.238 425.924H213.474V429.774C213.474 430.203 213.582 430.502 213.796 430.67C214.02 430.829 214.282 430.908 214.58 430.908C214.804 430.908 215.042 430.871 215.294 430.796V431.986C215.117 432.033 214.949 432.065 214.79 432.084C214.632 432.103 214.487 432.112 214.356 432.112C213.647 432.112 213.106 431.921 212.732 431.538C212.359 431.146 212.172 430.6 212.172 429.9V425.924H210.87V424.86H212.172V423.082L213.474 422.606V424.86H215.238V425.924ZM221.501 431.062V435.136H220.185V424.86H221.445V425.882H221.473C221.66 425.63 221.86 425.429 222.075 425.28C222.299 425.131 222.518 425.019 222.733 424.944C222.948 424.86 223.153 424.809 223.349 424.79C223.545 424.762 223.713 424.748 223.853 424.748C224.376 424.748 224.842 424.841 225.253 425.028C225.664 425.205 226.009 425.457 226.289 425.784C226.569 426.111 226.784 426.498 226.933 426.946C227.082 427.385 227.157 427.861 227.157 428.374C227.157 428.878 227.082 429.359 226.933 429.816C226.793 430.264 226.583 430.661 226.303 431.006C226.023 431.342 225.682 431.613 225.281 431.818C224.88 432.014 224.427 432.112 223.923 432.112C223.344 432.112 222.854 432.005 222.453 431.79C222.061 431.566 221.762 431.323 221.557 431.062H221.501ZM223.615 431.048C224.268 431.048 224.786 430.805 225.169 430.32C225.561 429.825 225.757 429.163 225.757 428.332C225.757 427.567 225.566 426.955 225.183 426.498C224.81 426.041 224.301 425.812 223.657 425.812C222.994 425.812 222.467 426.05 222.075 426.526C221.692 427.002 221.501 427.641 221.501 428.444C221.501 429.237 221.692 429.872 222.075 430.348C222.458 430.815 222.971 431.048 223.615 431.048ZM230.783 432.112C230.036 432.112 229.444 431.925 229.005 431.552C228.566 431.169 228.347 430.642 228.347 429.97C228.347 429.186 228.646 428.589 229.243 428.178C229.85 427.758 230.778 427.548 232.029 427.548H233.345V427.31C233.345 426.797 233.168 426.423 232.813 426.19C232.458 425.957 231.987 425.84 231.399 425.84C231.016 425.84 230.629 425.887 230.237 425.98C229.845 426.064 229.434 426.223 229.005 426.456V425.224C229.36 425.065 229.766 424.949 230.223 424.874C230.68 424.79 231.128 424.748 231.567 424.748C232.547 424.748 233.308 424.972 233.849 425.42C234.39 425.859 234.661 426.573 234.661 427.562V432H233.317V430.908H233.289C232.99 431.347 232.608 431.659 232.141 431.846C231.684 432.023 231.231 432.112 230.783 432.112ZM231.105 430.992C231.432 430.992 231.73 430.941 232.001 430.838C232.281 430.735 232.519 430.595 232.715 430.418C232.911 430.231 233.065 430.017 233.177 429.774C233.289 429.531 233.345 429.275 233.345 429.004V428.556H232.085C231.646 428.556 231.278 428.589 230.979 428.654C230.69 428.719 230.452 428.813 230.265 428.934C230.078 429.055 229.943 429.195 229.859 429.354C229.784 429.513 229.747 429.69 229.747 429.886C229.747 430.241 229.868 430.516 230.111 430.712C230.354 430.899 230.685 430.992 231.105 430.992ZM238.562 432.112C238.086 432.112 237.675 432.075 237.33 432C236.994 431.916 236.695 431.823 236.434 431.72V430.558C236.91 430.773 237.32 430.908 237.666 430.964C238.02 431.011 238.277 431.034 238.436 431.034C238.977 431.034 239.369 430.941 239.612 430.754C239.854 430.558 239.976 430.339 239.976 430.096C239.976 429.947 239.934 429.821 239.85 429.718C239.775 429.606 239.672 429.503 239.542 429.41C239.411 429.317 239.257 429.233 239.08 429.158C238.902 429.074 238.716 428.99 238.52 428.906C238.249 428.785 237.983 428.663 237.722 428.542C237.47 428.411 237.246 428.267 237.05 428.108C236.854 427.94 236.695 427.744 236.574 427.52C236.452 427.296 236.392 427.025 236.392 426.708C236.392 426.12 236.625 425.649 237.092 425.294C237.568 424.93 238.258 424.748 239.164 424.748C239.63 424.748 240.041 424.785 240.396 424.86C240.75 424.935 240.979 424.991 241.082 425.028V426.148C240.811 426.036 240.522 425.957 240.214 425.91C239.915 425.863 239.616 425.84 239.318 425.84C238.786 425.84 238.403 425.915 238.17 426.064C237.936 426.204 237.82 426.395 237.82 426.638C237.82 426.778 237.857 426.904 237.932 427.016C238.006 427.119 238.104 427.217 238.226 427.31C238.356 427.394 238.506 427.478 238.674 427.562C238.842 427.637 239.019 427.716 239.206 427.8C239.458 427.912 239.714 428.029 239.976 428.15C240.246 428.262 240.489 428.402 240.704 428.57C240.928 428.738 241.105 428.939 241.236 429.172C241.376 429.405 241.446 429.695 241.446 430.04C241.446 430.656 241.194 431.155 240.69 431.538C240.195 431.921 239.486 432.112 238.562 432.112ZM245.138 432.112C244.662 432.112 244.251 432.075 243.906 432C243.57 431.916 243.271 431.823 243.01 431.72V430.558C243.486 430.773 243.897 430.908 244.242 430.964C244.597 431.011 244.853 431.034 245.012 431.034C245.553 431.034 245.945 430.941 246.188 430.754C246.431 430.558 246.552 430.339 246.552 430.096C246.552 429.947 246.51 429.821 246.426 429.718C246.351 429.606 246.249 429.503 246.118 429.41C245.987 429.317 245.833 429.233 245.656 429.158C245.479 429.074 245.292 428.99 245.096 428.906C244.825 428.785 244.559 428.663 244.298 428.542C244.046 428.411 243.822 428.267 243.626 428.108C243.43 427.94 243.271 427.744 243.15 427.52C243.029 427.296 242.968 427.025 242.968 426.708C242.968 426.12 243.201 425.649 243.668 425.294C244.144 424.93 244.835 424.748 245.74 424.748C246.207 424.748 246.617 424.785 246.972 424.86C247.327 424.935 247.555 424.991 247.658 425.028V426.148C247.387 426.036 247.098 425.957 246.79 425.91C246.491 425.863 246.193 425.84 245.894 425.84C245.362 425.84 244.979 425.915 244.746 426.064C244.513 426.204 244.396 426.395 244.396 426.638C244.396 426.778 244.433 426.904 244.508 427.016C244.583 427.119 244.681 427.217 244.802 427.31C244.933 427.394 245.082 427.478 245.25 427.562C245.418 427.637 245.595 427.716 245.782 427.8C246.034 427.912 246.291 428.029 246.552 428.15C246.823 428.262 247.065 428.402 247.28 428.57C247.504 428.738 247.681 428.939 247.812 429.172C247.952 429.405 248.022 429.695 248.022 430.04C248.022 430.656 247.77 431.155 247.266 431.538C246.771 431.921 246.062 432.112 245.138 432.112ZM248.902 424.86H250.344L251.94 430.544L253.774 424.86H254.894L256.714 430.572L258.436 424.86H259.724L257.414 432H256.028L254.264 426.596L252.584 432H251.198L248.902 424.86ZM264.147 432.112C263.605 432.112 263.111 432.023 262.663 431.846C262.215 431.669 261.827 431.417 261.501 431.09C261.183 430.763 260.936 430.376 260.759 429.928C260.581 429.48 260.493 428.981 260.493 428.43C260.493 427.889 260.581 427.394 260.759 426.946C260.936 426.489 261.183 426.097 261.501 425.77C261.827 425.443 262.215 425.191 262.663 425.014C263.111 424.837 263.605 424.748 264.147 424.748C264.688 424.748 265.183 424.837 265.631 425.014C266.079 425.191 266.461 425.443 266.779 425.77C267.105 426.097 267.357 426.489 267.535 426.946C267.712 427.394 267.801 427.889 267.801 428.43C267.801 428.981 267.712 429.48 267.535 429.928C267.357 430.376 267.105 430.763 266.779 431.09C266.461 431.417 266.079 431.669 265.631 431.846C265.183 432.023 264.688 432.112 264.147 432.112ZM264.147 431.048C264.455 431.048 264.744 430.987 265.015 430.866C265.295 430.745 265.533 430.572 265.729 430.348C265.934 430.115 266.097 429.839 266.219 429.522C266.34 429.195 266.401 428.831 266.401 428.43C266.401 428.029 266.34 427.669 266.219 427.352C266.097 427.025 265.934 426.75 265.729 426.526C265.523 426.293 265.285 426.115 265.015 425.994C264.744 425.873 264.455 425.812 264.147 425.812C263.839 425.812 263.545 425.873 263.265 425.994C262.994 426.115 262.756 426.293 262.551 426.526C262.355 426.75 262.196 427.025 262.075 427.352C261.953 427.669 261.893 428.029 261.893 428.43C261.893 428.831 261.953 429.195 262.075 429.522C262.196 429.839 262.355 430.115 262.551 430.348C262.756 430.572 262.994 430.745 263.265 430.866C263.545 430.987 263.839 431.048 264.147 431.048ZM269.65 424.86H270.882V426.022H270.91C271.144 425.565 271.424 425.238 271.75 425.042C272.086 424.846 272.488 424.748 272.954 424.748C273.085 424.748 273.216 424.757 273.346 424.776C273.486 424.785 273.631 424.799 273.78 424.818V425.966C273.64 425.947 273.505 425.933 273.374 425.924C273.244 425.905 273.118 425.896 272.996 425.896C272.278 425.896 271.76 426.143 271.442 426.638C271.125 427.133 270.966 427.856 270.966 428.808V432H269.65V424.86ZM278.029 432.112C277.525 432.112 277.068 432.019 276.657 431.832C276.247 431.645 275.897 431.384 275.607 431.048C275.318 430.712 275.094 430.315 274.935 429.858C274.786 429.391 274.711 428.887 274.711 428.346C274.711 427.833 274.791 427.357 274.949 426.918C275.108 426.479 275.332 426.101 275.621 425.784C275.911 425.457 276.256 425.205 276.657 425.028C277.068 424.841 277.516 424.748 278.001 424.748C278.543 424.748 279 424.851 279.373 425.056C279.756 425.261 280.078 425.513 280.339 425.812H280.367V421.36H281.683V432H280.423V430.992H280.339C280.069 431.337 279.747 431.613 279.373 431.818C279.009 432.014 278.561 432.112 278.029 432.112ZM278.253 431.048C278.561 431.048 278.846 430.983 279.107 430.852C279.369 430.721 279.593 430.544 279.779 430.32C279.966 430.087 280.111 429.811 280.213 429.494C280.316 429.177 280.367 428.827 280.367 428.444C280.367 428.061 280.311 427.711 280.199 427.394C280.097 427.067 279.952 426.787 279.765 426.554C279.579 426.321 279.355 426.139 279.093 426.008C278.832 425.877 278.543 425.812 278.225 425.812C277.927 425.812 277.647 425.877 277.385 426.008C277.124 426.139 276.9 426.321 276.713 426.554C276.527 426.778 276.377 427.049 276.265 427.366C276.163 427.683 276.111 428.029 276.111 428.402C276.111 428.785 276.163 429.139 276.265 429.466C276.377 429.783 276.527 430.063 276.713 430.306C276.909 430.539 277.138 430.721 277.399 430.852C277.661 430.983 277.945 431.048 278.253 431.048ZM285.7 428.99C285.7 428.626 285.751 428.313 285.854 428.052C285.956 427.781 286.082 427.534 286.232 427.31C286.381 427.086 286.544 426.881 286.722 426.694C286.899 426.498 287.062 426.302 287.212 426.106C287.361 425.901 287.487 425.686 287.59 425.462C287.692 425.229 287.744 424.963 287.744 424.664C287.744 424.225 287.604 423.88 287.324 423.628C287.053 423.376 286.633 423.25 286.064 423.25C286.017 423.25 285.919 423.255 285.77 423.264C285.63 423.264 285.457 423.283 285.252 423.32C285.056 423.348 284.841 423.404 284.608 423.488C284.374 423.563 284.141 423.67 283.908 423.81V422.522C284.337 422.335 284.748 422.214 285.14 422.158C285.541 422.093 285.877 422.06 286.148 422.06C286.642 422.06 287.081 422.125 287.464 422.256C287.846 422.377 288.168 422.55 288.43 422.774C288.691 422.998 288.887 423.264 289.018 423.572C289.158 423.871 289.228 424.197 289.228 424.552C289.228 424.888 289.172 425.196 289.06 425.476C288.957 425.747 288.822 425.999 288.654 426.232C288.486 426.465 288.308 426.689 288.122 426.904C287.935 427.109 287.758 427.324 287.59 427.548C287.422 427.763 287.282 427.996 287.17 428.248C287.067 428.491 287.016 428.761 287.016 429.06V429.27H285.7V428.99ZM285.574 430.432H287.142V432H285.574V430.432Z" fill="#0062FF"/>
<rect x="281" y="205" width="46" height="24" rx="4" fill="#FF5C22"/>
<path d="M293.98 221.12C293.292 221.12 292.676 221.02 292.132 220.82C291.596 220.612 291.136 220.32 290.752 219.944C290.376 219.568 290.088 219.116 289.888 218.588C289.688 218.052 289.588 217.456 289.588 216.8C289.588 216.16 289.692 215.576 289.9 215.048C290.108 214.512 290.4 214.056 290.776 213.68C291.16 213.296 291.62 213 292.156 212.792C292.7 212.584 293.308 212.48 293.98 212.48C294.26 212.48 294.52 212.5 294.76 212.54C295 212.572 295.212 212.608 295.396 212.648C295.604 212.696 295.796 212.752 295.972 212.816V213.968C295.796 213.888 295.604 213.816 295.396 213.752C295.212 213.696 295 213.648 294.76 213.608C294.52 213.56 294.26 213.536 293.98 213.536C293.5 213.536 293.064 213.612 292.672 213.764C292.288 213.916 291.96 214.132 291.688 214.412C291.416 214.692 291.204 215.036 291.052 215.444C290.908 215.844 290.836 216.296 290.836 216.8C290.836 217.304 290.908 217.76 291.052 218.168C291.204 218.568 291.416 218.908 291.688 219.188C291.96 219.468 292.288 219.684 292.672 219.836C293.064 219.988 293.5 220.064 293.98 220.064C294.26 220.064 294.52 220.048 294.76 220.016C295 219.976 295.212 219.932 295.396 219.884C295.604 219.828 295.796 219.764 295.972 219.692V220.844C295.796 220.9 295.604 220.948 295.396 220.988C295.212 221.028 295 221.06 294.76 221.084C294.52 221.108 294.26 221.12 293.98 221.12ZM300.063 212.6H301.335L304.659 221H303.339L302.535 218.84H298.815L298.011 221H296.739L300.063 212.6ZM299.175 217.88H302.187L300.699 213.86H300.675L299.175 217.88ZM305.96 212.6H308.648C309.688 212.6 310.456 212.832 310.952 213.296C311.448 213.752 311.696 214.404 311.696 215.252C311.696 216.1 311.448 216.756 310.952 217.22C310.456 217.676 309.688 217.904 308.648 217.904H307.136V221H305.96V212.6ZM308.648 216.848C309.264 216.848 309.716 216.716 310.004 216.452C310.3 216.18 310.448 215.78 310.448 215.252C310.448 214.724 310.3 214.328 310.004 214.064C309.716 213.792 309.264 213.656 308.648 213.656H307.136V216.848H308.648ZM314.715 221.12C314.483 221.12 314.203 221.096 313.875 221.048C313.547 221 313.187 220.908 312.795 220.772V219.668C312.923 219.724 313.071 219.776 313.239 219.824C313.407 219.872 313.579 219.916 313.755 219.956C313.931 219.988 314.103 220.016 314.271 220.04C314.439 220.056 314.595 220.064 314.739 220.064C315.011 220.064 315.255 220.028 315.471 219.956C315.687 219.876 315.867 219.776 316.011 219.656C316.163 219.528 316.275 219.384 316.347 219.224C316.427 219.056 316.467 218.884 316.467 218.708C316.467 218.516 316.419 218.344 316.323 218.192C316.235 218.04 316.115 217.904 315.963 217.784C315.819 217.656 315.647 217.54 315.447 217.436C315.255 217.332 315.051 217.228 314.835 217.124C314.579 217.004 314.323 216.876 314.067 216.74C313.819 216.596 313.591 216.432 313.383 216.248C313.183 216.064 313.019 215.852 312.891 215.612C312.763 215.372 312.699 215.084 312.699 214.748C312.699 214.42 312.759 214.116 312.879 213.836C312.999 213.556 313.175 213.316 313.407 213.116C313.647 212.916 313.943 212.76 314.295 212.648C314.647 212.536 315.055 212.48 315.519 212.48C315.975 212.48 316.359 212.52 316.671 212.6C316.983 212.672 317.207 212.732 317.343 212.78V213.884C317.007 213.74 316.671 213.648 316.335 213.608C315.999 213.56 315.727 213.536 315.519 213.536C314.959 213.536 314.559 213.64 314.319 213.848C314.087 214.056 313.971 214.304 313.971 214.592C313.971 214.776 314.011 214.94 314.091 215.084C314.179 215.22 314.295 215.348 314.439 215.468C314.583 215.58 314.747 215.688 314.931 215.792C315.115 215.888 315.311 215.984 315.519 216.08C315.783 216.2 316.047 216.332 316.311 216.476C316.575 216.62 316.811 216.792 317.019 216.992C317.235 217.184 317.407 217.416 317.535 217.688C317.671 217.96 317.739 218.284 317.739 218.66C317.739 219.02 317.675 219.352 317.547 219.656C317.419 219.952 317.227 220.208 316.971 220.424C316.715 220.64 316.399 220.812 316.023 220.94C315.647 221.06 315.211 221.12 314.715 221.12Z" fill="white"/>
<rect x="335" y="205" width="38" height="24" rx="4" fill="#FF5C22"/>
<path d="M344.116 212.6H346.804C347.844 212.6 348.612 212.832 349.108 213.296C349.604 213.752 349.852 214.404 349.852 215.252C349.852 216.1 349.604 216.756 349.108 217.22C348.612 217.676 347.844 217.904 346.804 217.904H345.292V221H344.116V212.6ZM346.804 216.848C347.42 216.848 347.872 216.716 348.16 216.452C348.456 216.18 348.604 215.78 348.604 215.252C348.604 214.724 348.456 214.328 348.16 214.064C347.872 213.792 347.42 213.656 346.804 213.656H345.292V216.848H346.804ZM351.482 219.968C351.61 220.016 351.73 220.056 351.842 220.088C351.954 220.112 352.066 220.124 352.178 220.124C352.418 220.124 352.63 220.048 352.814 219.896C352.998 219.744 353.154 219.488 353.282 219.128L350.222 212.6H351.482L353.798 217.784H353.858L356.15 212.6H357.374L354.338 219.308C354.194 219.628 354.05 219.904 353.906 220.136C353.77 220.36 353.622 220.548 353.462 220.7C353.31 220.844 353.138 220.948 352.946 221.012C352.762 221.084 352.55 221.12 352.31 221.12C352.126 221.12 351.966 221.104 351.83 221.072C351.702 221.048 351.586 221.016 351.482 220.976V219.968ZM362.078 221.12C361.39 221.12 360.774 221.02 360.23 220.82C359.694 220.612 359.234 220.32 358.85 219.944C358.474 219.568 358.186 219.116 357.986 218.588C357.786 218.052 357.686 217.456 357.686 216.8C357.686 216.16 357.79 215.576 357.998 215.048C358.206 214.512 358.498 214.056 358.874 213.68C359.258 213.296 359.718 213 360.254 212.792C360.798 212.584 361.406 212.48 362.078 212.48C362.358 212.48 362.618 212.5 362.858 212.54C363.098 212.572 363.31 212.608 363.494 212.648C363.702 212.696 363.894 212.752 364.07 212.816V213.968C363.894 213.888 363.702 213.816 363.494 213.752C363.31 213.696 363.098 213.648 362.858 213.608C362.618 213.56 362.358 213.536 362.078 213.536C361.598 213.536 361.162 213.612 360.77 213.764C360.386 213.916 360.058 214.132 359.786 214.412C359.514 214.692 359.302 215.036 359.15 215.444C359.006 215.844 358.934 216.296 358.934 216.8C358.934 217.304 359.006 217.76 359.15 218.168C359.302 218.568 359.514 218.908 359.786 219.188C360.058 219.468 360.386 219.684 360.77 219.836C361.162 219.988 361.598 220.064 362.078 220.064C362.358 220.064 362.618 220.048 362.858 220.016C363.098 219.976 363.31 219.932 363.494 219.884C363.702 219.828 363.894 219.764 364.07 219.692V220.844C363.894 220.9 363.702 220.948 363.494 220.988C363.31 221.028 363.098 221.06 362.858 221.084C362.618 221.108 362.358 221.12 362.078 221.12Z" fill="white"/>
</svg>
